%TF.GenerationSoftware,KiCad,Pcbnew,8.0.7*%
%TF.CreationDate,2026-07-08T19:47:45-07:00*%
%TF.ProjectId,ChemistryDetector,4368656d-6973-4747-9279-446574656374,rev?*%
%TF.SameCoordinates,Original*%
%TF.FileFunction,Copper,L3,Inr*%
%TF.FilePolarity,Positive*%
%FSLAX46Y46*%
G04 Gerber Fmt 4.6, Leading zero omitted, Abs format (unit mm)*
G04 Created by KiCad (PCBNEW 8.0.7) date 2026-07-08 19:47:45*
%MOMM*%
%LPD*%
G01*
G04 APERTURE LIST*
%TA.AperFunction,Conductor*%
%ADD10C,0.508000*%
%TD*%
%TA.AperFunction,ComponentPad*%
%ADD11R,1.700000X1.700000*%
%TD*%
%TA.AperFunction,ComponentPad*%
%ADD12O,1.700000X1.700000*%
%TD*%
%TA.AperFunction,ComponentPad*%
%ADD13C,3.000000*%
%TD*%
%TA.AperFunction,ComponentPad*%
%ADD14R,1.508000X1.508000*%
%TD*%
%TA.AperFunction,ComponentPad*%
%ADD15C,1.508000*%
%TD*%
%TA.AperFunction,ViaPad*%
%ADD16C,0.600000*%
%TD*%
%TA.AperFunction,ViaPad*%
%ADD17C,0.558800*%
%TD*%
%TA.AperFunction,ViaPad*%
%ADD18C,0.812800*%
%TD*%
%TA.AperFunction,ViaPad*%
%ADD19C,0.500000*%
%TD*%
%TA.AperFunction,Conductor*%
%ADD20C,0.635000*%
%TD*%
G04 APERTURE END LIST*
D10*
%TO.N,+BATT*%
X223100000Y-66900000D02*
G75*
G02*
X168634655Y-107472775I-31321500J-14797500D01*
G01*
%TD*%
D11*
%TO.N,Net-(J3-Pin_1)*%
%TO.C,J3*%
X172975000Y-74500000D03*
D12*
%TO.N,GND*%
X170435000Y-74500000D03*
%TD*%
D13*
%TO.N,GND*%
%TO.C,J6*%
X214100000Y-86200000D03*
%TD*%
%TO.N,Net-(J8-Pin_1)*%
%TO.C,J8*%
X168800000Y-101400000D03*
%TD*%
%TO.N,Net-(J7-Pin_1)*%
%TO.C,J7*%
X210376010Y-102699683D03*
%TD*%
%TO.N,GND*%
%TO.C,J9*%
X168600000Y-87900000D03*
%TD*%
D14*
%TO.N,L_BUTTON*%
%TO.C,S3*%
X200152020Y-108000000D03*
D15*
%TO.N,unconnected-(S3-Pad2)*%
X193652020Y-108000000D03*
%TO.N,GND*%
X200152020Y-112500000D03*
%TO.N,unconnected-(S3-Pad4)*%
X193652020Y-112500000D03*
%TD*%
D14*
%TO.N,C_BUTTON*%
%TO.C,S2*%
X195026010Y-101400000D03*
D15*
%TO.N,unconnected-(S2-Pad2)*%
X188526010Y-101400000D03*
%TO.N,GND*%
X195026010Y-105900000D03*
%TO.N,unconnected-(S2-Pad4)*%
X188526010Y-105900000D03*
%TD*%
D14*
%TO.N,unconnected-(S1-Pad1)*%
%TO.C,S1*%
X189900000Y-108000000D03*
D15*
%TO.N,R_BUTTON*%
X183400000Y-108000000D03*
%TO.N,unconnected-(S1-Pad3)*%
X189900000Y-112500000D03*
%TO.N,GND*%
X183400000Y-112500000D03*
%TD*%
D16*
%TO.N,GND*%
X216576010Y-61199683D03*
X219376010Y-65599683D03*
X221276010Y-64399683D03*
X219876010Y-62199683D03*
X216076010Y-63899683D03*
X165376010Y-102799683D03*
X169676010Y-103799683D03*
X169876010Y-106999683D03*
%TO.N,Net-(D1-K)*%
X219700000Y-81200000D03*
%TO.N,GND*%
X183176010Y-81699683D03*
X172476010Y-91199683D03*
D17*
X163100000Y-94400000D03*
D16*
X223600000Y-88700000D03*
X157376010Y-84799683D03*
X199476010Y-91699683D03*
X187576010Y-95399683D03*
X220100000Y-78800000D03*
X209976010Y-91399683D03*
X187076010Y-99399683D03*
X219900000Y-85100000D03*
X225600000Y-81400000D03*
X195112711Y-78901730D03*
X194076010Y-89999683D03*
X175776010Y-90499683D03*
X184376010Y-82299683D03*
X205776010Y-106399683D03*
X170276010Y-84473000D03*
D18*
X219538164Y-68761837D03*
D16*
X220376010Y-98899683D03*
D17*
X171400000Y-102100000D03*
D16*
X181776010Y-86499683D03*
X199876010Y-100099683D03*
D17*
X160536219Y-79969477D03*
D19*
X220100000Y-86600000D03*
D16*
X220800000Y-95100000D03*
X164806726Y-85629654D03*
X191976010Y-92199683D03*
X218876010Y-91299683D03*
X192700000Y-75200000D03*
X158762500Y-76762500D03*
X178976010Y-101699683D03*
D17*
X172800000Y-105200000D03*
D16*
X187276010Y-113999683D03*
X201876010Y-97899683D03*
X164200000Y-75100000D03*
X164676010Y-91999683D03*
D17*
X175000000Y-95700000D03*
X162000000Y-91275000D03*
D19*
X216200000Y-76900000D03*
D16*
X168100000Y-95700000D03*
X211276010Y-77699683D03*
X179776010Y-106999683D03*
X223900000Y-86000000D03*
X221100000Y-75500000D03*
X183676010Y-102099683D03*
X193476010Y-84499683D03*
X165076010Y-99499683D03*
X179976010Y-103799683D03*
X162776010Y-88599683D03*
X182776010Y-90399683D03*
X191676010Y-86099683D03*
X215176010Y-97599683D03*
X196376010Y-114099683D03*
X196200000Y-75800000D03*
X191776010Y-114599683D03*
X181676010Y-91899683D03*
%TO.N,+3.3V*%
X183976010Y-91599683D03*
X220988683Y-78811317D03*
X225000000Y-82800000D03*
D17*
X157700000Y-80400000D03*
D16*
X197300000Y-112300000D03*
X159200000Y-74700000D03*
X183376010Y-83399683D03*
D18*
X217900000Y-68100000D03*
D16*
X192000000Y-105700000D03*
D19*
X213990192Y-75923902D03*
D16*
X186300000Y-112100000D03*
D17*
X160300000Y-95200000D03*
D16*
X190600000Y-96500000D03*
D19*
X218500000Y-95500000D03*
D16*
X200041359Y-74241359D03*
X166000000Y-74200000D03*
X201476010Y-92899683D03*
X164300000Y-101300000D03*
X185676010Y-95499683D03*
D19*
X213600000Y-79800000D03*
D16*
X188276010Y-76799683D03*
X200696880Y-90332329D03*
X170400000Y-77100000D03*
X193400000Y-78200000D03*
X217000000Y-90300000D03*
X166401126Y-85798604D03*
D17*
X159600000Y-82700000D03*
D16*
X181300000Y-74400000D03*
X222700000Y-70900000D03*
X190676010Y-78899683D03*
X167300000Y-91100000D03*
%TO.N,SWCLK*%
X198200000Y-77500000D03*
X197415057Y-86586865D03*
%TO.N,SWO*%
X195100000Y-84900000D03*
X196900000Y-77500000D03*
%TO.N,SWDIO*%
X199400000Y-77500000D03*
X196400272Y-87873000D03*
%TO.N,Net-(D4-K)*%
X164100000Y-81200000D03*
%TO.N,PPG_CH2*%
X167900000Y-76800000D03*
X186700000Y-82600000D03*
%TO.N,LCD_SCK*%
X189300000Y-87300000D03*
X188500000Y-78000000D03*
%TO.N,LCD_CS*%
X185564993Y-79451707D03*
%TO.N,LCD_MOSI*%
X189355919Y-88255919D03*
%TO.N,LCD_RESET*%
X186091817Y-81816179D03*
%TO.N,LCD_BLK*%
X183350000Y-74217500D03*
X185098725Y-80191051D03*
%TO.N,LCD_DC*%
X186445997Y-79766149D03*
%TO.N,+BATT*%
X223100000Y-66900000D03*
X223300000Y-69700000D03*
X202176010Y-114299683D03*
D17*
X172200000Y-103200000D03*
D16*
%TO.N,Net-(D2-K)*%
X161400000Y-88000000D03*
%TO.N,Net-(U5B-+)*%
X215000000Y-74600000D03*
X218800000Y-77600000D03*
%TO.N,LED_CLK*%
X216100000Y-88500000D03*
X209850000Y-80150000D03*
%TO.N,Net-(D3-K)*%
X222600000Y-85300000D03*
%TO.N,Net-(R28-Pad2)*%
X214400000Y-82100000D03*
%TO.N,TEMP_CH1*%
X216712021Y-85079800D03*
X200200000Y-86900000D03*
X194300000Y-87800000D03*
%TO.N,Net-(R30-Pad2)*%
X171500000Y-80000000D03*
%TO.N,TEMP_CH2*%
X182300000Y-83800000D03*
X166600214Y-87870724D03*
%TO.N,GSR_CH1*%
X220800000Y-90700000D03*
X218000000Y-90000000D03*
X201100000Y-87200000D03*
X193100000Y-87100000D03*
%TO.N,PPG_CH1*%
X200200000Y-78600000D03*
X217500000Y-74100000D03*
X223700000Y-73500000D03*
X195800000Y-88500000D03*
%TO.N,GSR_CH2*%
X169000000Y-91000000D03*
X166183138Y-96254676D03*
%TO.N,Net-(U9B-+)*%
X163300000Y-80400000D03*
X162487893Y-77587893D03*
%TO.N,VBAT*%
X192700000Y-90500000D03*
X196800000Y-94400000D03*
%TO.N,Net-(D2-A)*%
X161700000Y-76960893D03*
%TO.N,Net-(D3-A)*%
X223327400Y-82900000D03*
%TO.N,TEMP_CTRL*%
X198000000Y-82200000D03*
X191356644Y-82356642D03*
%TO.N,Net-(J3-Pin_1)*%
X217400000Y-65600000D03*
%TO.N,XTAL*%
X190376010Y-82899683D03*
%TD*%
D10*
%TO.N,+BATT*%
X168634655Y-107472775D02*
X168634655Y-106765345D01*
X168634655Y-106765345D02*
X172200000Y-103200000D01*
D20*
%TO.N,Net-(J3-Pin_1)*%
X216000000Y-73400000D02*
X216600000Y-72800000D01*
X216600000Y-72800000D02*
X216600000Y-66400000D01*
X174075000Y-73400000D02*
X216000000Y-73400000D01*
X172975000Y-74500000D02*
X174075000Y-73400000D01*
X216600000Y-66400000D02*
X217400000Y-65600000D01*
%TD*%
%TA.AperFunction,Conductor*%
%TO.N,+3.3V*%
G36*
X215419861Y-55474179D02*
G01*
X215422670Y-55476691D01*
X215788236Y-55813703D01*
X216153797Y-56150711D01*
X216156798Y-56153571D01*
X216994286Y-56979108D01*
X216997189Y-56982067D01*
X217806587Y-57835109D01*
X217809390Y-57838163D01*
X218589853Y-58717817D01*
X218592552Y-58720964D01*
X219343157Y-59626192D01*
X219345749Y-59629427D01*
X220065660Y-60559218D01*
X220068132Y-60562522D01*
X220730180Y-61479325D01*
X220756607Y-61515920D01*
X220758967Y-61519306D01*
X220913441Y-61749028D01*
X221415162Y-62495147D01*
X221417411Y-62498615D01*
X222040661Y-63495907D01*
X222042762Y-63499399D01*
X222632292Y-64516904D01*
X222634306Y-64520518D01*
X222858917Y-64939909D01*
X223189497Y-65557165D01*
X223191393Y-65560852D01*
X223527212Y-66241634D01*
X223539216Y-66310465D01*
X223512102Y-66374859D01*
X223454478Y-66414371D01*
X223384639Y-66416457D01*
X223368554Y-66411051D01*
X223244757Y-66359773D01*
X223244752Y-66359771D01*
X223100001Y-66340715D01*
X223099999Y-66340715D01*
X222955247Y-66359771D01*
X222955245Y-66359772D01*
X222820361Y-66415643D01*
X222820358Y-66415644D01*
X222820358Y-66415645D01*
X222704526Y-66504526D01*
X222630798Y-66600611D01*
X222615643Y-66620361D01*
X222559772Y-66755245D01*
X222559771Y-66755247D01*
X222540715Y-66899998D01*
X222540715Y-66900001D01*
X222559771Y-67044752D01*
X222559773Y-67044757D01*
X222615642Y-67179638D01*
X222615645Y-67179644D01*
X222704525Y-67295473D01*
X222704714Y-67295618D01*
X222704884Y-67295832D01*
X222710276Y-67301225D01*
X222709653Y-67301847D01*
X222742225Y-67342932D01*
X223115452Y-68168867D01*
X223117117Y-68172723D01*
X223446430Y-68972621D01*
X223453749Y-69042106D01*
X223422340Y-69104518D01*
X223362174Y-69140041D01*
X223315583Y-69142766D01*
X223300003Y-69140715D01*
X223299999Y-69140715D01*
X223155247Y-69159771D01*
X223155245Y-69159772D01*
X223020361Y-69215643D01*
X222904526Y-69304526D01*
X222815643Y-69420361D01*
X222759772Y-69555245D01*
X222759771Y-69555247D01*
X222740715Y-69699998D01*
X222740715Y-69700001D01*
X222759771Y-69844752D01*
X222759773Y-69844757D01*
X222815642Y-69979638D01*
X222815645Y-69979644D01*
X222904525Y-70095473D01*
X222904526Y-70095474D01*
X223020355Y-70184354D01*
X223020361Y-70184357D01*
X223087801Y-70212291D01*
X223155246Y-70240228D01*
X223227623Y-70249756D01*
X223299999Y-70259285D01*
X223300000Y-70259285D01*
X223300001Y-70259285D01*
X223348251Y-70252932D01*
X223444754Y-70240228D01*
X223579643Y-70184355D01*
X223695474Y-70095474D01*
X223695474Y-70095473D01*
X223701921Y-70090527D01*
X223704066Y-70093322D01*
X223751046Y-70067545D01*
X223820748Y-70072387D01*
X223876767Y-70114144D01*
X223893848Y-70145362D01*
X223959408Y-70321312D01*
X223960808Y-70325272D01*
X224326242Y-71417761D01*
X224327506Y-71421766D01*
X224655711Y-72525943D01*
X224656840Y-72529989D01*
X224947478Y-73644713D01*
X224948468Y-73648794D01*
X225201176Y-74772673D01*
X225202028Y-74776786D01*
X225416532Y-75908604D01*
X225417244Y-75912744D01*
X225593288Y-77051149D01*
X225593860Y-77055310D01*
X225731254Y-78199067D01*
X225731684Y-78203245D01*
X225830258Y-79350955D01*
X225830547Y-79355145D01*
X225890197Y-80505584D01*
X225890343Y-80509782D01*
X225894400Y-80736052D01*
X225875920Y-80803434D01*
X225823945Y-80850128D01*
X225754976Y-80861309D01*
X225751989Y-80860724D01*
X225600001Y-80840715D01*
X225599999Y-80840715D01*
X225455247Y-80859771D01*
X225455245Y-80859772D01*
X225320361Y-80915643D01*
X225320358Y-80915644D01*
X225320358Y-80915645D01*
X225204526Y-81004526D01*
X225165607Y-81055247D01*
X225115643Y-81120361D01*
X225059772Y-81255245D01*
X225059771Y-81255247D01*
X225040715Y-81399998D01*
X225040715Y-81400001D01*
X225059771Y-81544752D01*
X225059773Y-81544757D01*
X225115642Y-81679638D01*
X225115645Y-81679644D01*
X225204525Y-81795473D01*
X225204526Y-81795474D01*
X225320355Y-81884354D01*
X225320361Y-81884357D01*
X225368291Y-81904210D01*
X225455246Y-81940228D01*
X225527623Y-81949756D01*
X225599999Y-81959285D01*
X225600000Y-81959285D01*
X225600001Y-81959285D01*
X225630672Y-81955247D01*
X225744754Y-81940228D01*
X225744763Y-81940224D01*
X225748609Y-81939194D01*
X225751996Y-81939274D01*
X225752812Y-81939167D01*
X225752828Y-81939294D01*
X225818459Y-81940851D01*
X225876325Y-81980009D01*
X225903834Y-82044235D01*
X225904696Y-82060943D01*
X225892632Y-82817551D01*
X225892494Y-82821749D01*
X225835128Y-83972273D01*
X225834848Y-83976464D01*
X225738548Y-85124397D01*
X225738126Y-85128576D01*
X225603006Y-86272574D01*
X225602443Y-86276736D01*
X225428653Y-87415516D01*
X225427949Y-87419657D01*
X225215690Y-88551901D01*
X225214846Y-88556015D01*
X224964372Y-89680379D01*
X224963390Y-89684463D01*
X224674963Y-90799768D01*
X224673842Y-90803816D01*
X224347822Y-91908661D01*
X224346565Y-91912669D01*
X223983317Y-93005826D01*
X223981926Y-93009789D01*
X223581837Y-94090090D01*
X223580311Y-94094003D01*
X223143904Y-95160036D01*
X223142248Y-95163896D01*
X222669948Y-96214626D01*
X222668161Y-96218427D01*
X222160577Y-97252496D01*
X222158663Y-97256235D01*
X221616322Y-98272569D01*
X221614282Y-98276240D01*
X221152866Y-99074588D01*
X221102276Y-99122781D01*
X221033663Y-99135972D01*
X220968810Y-99109974D01*
X220928308Y-99053042D01*
X220922568Y-98996354D01*
X220935295Y-98899683D01*
X220935295Y-98899681D01*
X220916238Y-98754930D01*
X220916238Y-98754929D01*
X220860365Y-98620041D01*
X220771484Y-98504209D01*
X220655653Y-98415328D01*
X220655650Y-98415327D01*
X220655648Y-98415325D01*
X220520767Y-98359456D01*
X220520762Y-98359454D01*
X220376011Y-98340398D01*
X220376009Y-98340398D01*
X220231257Y-98359454D01*
X220231255Y-98359455D01*
X220096371Y-98415326D01*
X220096368Y-98415327D01*
X220096368Y-98415328D01*
X220064331Y-98439911D01*
X219980536Y-98504209D01*
X219891653Y-98620044D01*
X219835782Y-98754928D01*
X219835781Y-98754930D01*
X219816725Y-98899681D01*
X219816725Y-98899684D01*
X219835781Y-99044435D01*
X219835783Y-99044440D01*
X219891652Y-99179321D01*
X219891655Y-99179327D01*
X219980535Y-99295156D01*
X219980536Y-99295157D01*
X220096365Y-99384037D01*
X220096371Y-99384040D01*
X220163811Y-99411974D01*
X220231256Y-99439911D01*
X220271119Y-99445159D01*
X220376009Y-99458968D01*
X220376010Y-99458968D01*
X220376011Y-99458968D01*
X220424261Y-99452615D01*
X220520764Y-99439911D01*
X220655653Y-99384038D01*
X220713812Y-99339410D01*
X220778977Y-99314217D01*
X220847422Y-99328254D01*
X220897412Y-99377068D01*
X220913077Y-99445159D01*
X220894492Y-99503437D01*
X220425799Y-100254461D01*
X220423515Y-100257986D01*
X219780887Y-101214027D01*
X219778485Y-101217473D01*
X219103839Y-102151213D01*
X219101322Y-102154575D01*
X218395435Y-103064934D01*
X218392805Y-103068209D01*
X217656505Y-103954125D01*
X217653766Y-103957309D01*
X216887889Y-104817773D01*
X216885044Y-104820863D01*
X216090455Y-105654907D01*
X216087507Y-105657899D01*
X215265113Y-106464566D01*
X215262065Y-106467456D01*
X214412835Y-107245795D01*
X214409691Y-107248580D01*
X213534582Y-107997717D01*
X213531345Y-108000394D01*
X212631386Y-108719447D01*
X212628061Y-108722013D01*
X211704219Y-109410209D01*
X211700809Y-109412660D01*
X211029822Y-109878012D01*
X210935795Y-109943224D01*
X210754255Y-110069128D01*
X210750763Y-110071463D01*
X209782465Y-110695530D01*
X209778896Y-110697745D01*
X208790075Y-111288626D01*
X208786434Y-111290720D01*
X207778095Y-111847815D01*
X207774385Y-111849783D01*
X206747808Y-112372381D01*
X206744033Y-112374223D01*
X205700331Y-112861760D01*
X205696496Y-112863473D01*
X204636876Y-113315386D01*
X204632985Y-113316968D01*
X203558669Y-113732733D01*
X203554727Y-113734182D01*
X202760654Y-114010952D01*
X202690870Y-114014429D01*
X202630286Y-113979626D01*
X202621474Y-113969357D01*
X202571484Y-113904209D01*
X202455653Y-113815328D01*
X202455650Y-113815327D01*
X202455648Y-113815325D01*
X202320767Y-113759456D01*
X202320762Y-113759454D01*
X202176011Y-113740398D01*
X202176009Y-113740398D01*
X202031257Y-113759454D01*
X202031255Y-113759455D01*
X201896371Y-113815326D01*
X201896368Y-113815327D01*
X201896368Y-113815328D01*
X201780536Y-113904209D01*
X201695962Y-114014429D01*
X201691653Y-114020044D01*
X201635782Y-114154928D01*
X201635782Y-114154929D01*
X201616356Y-114302481D01*
X201588089Y-114366377D01*
X201530240Y-114404701D01*
X201451741Y-114429113D01*
X201362991Y-114456713D01*
X201358961Y-114457892D01*
X200248004Y-114762527D01*
X200243935Y-114763569D01*
X199123282Y-115030407D01*
X199119180Y-115031310D01*
X197990172Y-115260033D01*
X197986042Y-115260797D01*
X196849929Y-115451154D01*
X196845775Y-115451778D01*
X195703863Y-115603547D01*
X195699691Y-115604030D01*
X194553276Y-115717040D01*
X194549089Y-115717381D01*
X193399520Y-115791500D01*
X193395325Y-115791699D01*
X192243909Y-115826840D01*
X192239709Y-115826897D01*
X191087766Y-115823024D01*
X191083567Y-115822939D01*
X189932413Y-115780053D01*
X189928219Y-115779826D01*
X188779142Y-115697976D01*
X188774958Y-115697606D01*
X187629356Y-115576891D01*
X187625187Y-115576380D01*
X186484348Y-115416938D01*
X186480198Y-115416287D01*
X185345351Y-115218286D01*
X185341227Y-115217494D01*
X184213783Y-114981184D01*
X184209687Y-114980253D01*
X184177484Y-114972356D01*
X184159809Y-114968021D01*
X183090856Y-114705883D01*
X183086794Y-114704813D01*
X182713262Y-114599681D01*
X191216725Y-114599681D01*
X191216725Y-114599684D01*
X191235781Y-114744435D01*
X191235783Y-114744440D01*
X191291652Y-114879321D01*
X191291655Y-114879327D01*
X191380535Y-114995156D01*
X191380536Y-114995157D01*
X191496365Y-115084037D01*
X191496371Y-115084040D01*
X191563811Y-115111974D01*
X191631256Y-115139911D01*
X191703633Y-115149439D01*
X191776009Y-115158968D01*
X191776010Y-115158968D01*
X191776011Y-115158968D01*
X191824261Y-115152615D01*
X191920764Y-115139911D01*
X192055653Y-115084038D01*
X192171484Y-114995157D01*
X192260365Y-114879326D01*
X192316238Y-114744437D01*
X192335295Y-114599683D01*
X192333235Y-114584038D01*
X192316238Y-114454930D01*
X192316238Y-114454929D01*
X192260365Y-114320041D01*
X192171484Y-114204209D01*
X192055653Y-114115328D01*
X192055650Y-114115327D01*
X192055648Y-114115325D01*
X192017880Y-114099681D01*
X195816725Y-114099681D01*
X195816725Y-114099684D01*
X195835781Y-114244435D01*
X195835783Y-114244440D01*
X195891652Y-114379321D01*
X195891655Y-114379327D01*
X195980535Y-114495156D01*
X195980536Y-114495157D01*
X196096365Y-114584037D01*
X196096371Y-114584040D01*
X196163811Y-114611974D01*
X196231256Y-114639911D01*
X196303633Y-114649439D01*
X196376009Y-114658968D01*
X196376010Y-114658968D01*
X196376011Y-114658968D01*
X196445436Y-114649828D01*
X196520764Y-114639911D01*
X196655653Y-114584038D01*
X196771484Y-114495157D01*
X196860365Y-114379326D01*
X196916238Y-114244437D01*
X196929403Y-114144435D01*
X196935295Y-114099684D01*
X196935295Y-114099681D01*
X196916238Y-113954930D01*
X196916238Y-113954929D01*
X196860365Y-113820041D01*
X196771484Y-113704209D01*
X196655653Y-113615328D01*
X196655650Y-113615327D01*
X196655648Y-113615325D01*
X196520767Y-113559456D01*
X196520762Y-113559454D01*
X196376011Y-113540398D01*
X196376009Y-113540398D01*
X196231257Y-113559454D01*
X196231255Y-113559455D01*
X196096371Y-113615326D01*
X196096368Y-113615327D01*
X196096368Y-113615328D01*
X195980536Y-113704209D01*
X195895272Y-113815328D01*
X195891653Y-113820044D01*
X195835782Y-113954928D01*
X195835781Y-113954930D01*
X195816725Y-114099681D01*
X192017880Y-114099681D01*
X191920767Y-114059456D01*
X191920762Y-114059454D01*
X191776011Y-114040398D01*
X191776009Y-114040398D01*
X191631257Y-114059454D01*
X191631255Y-114059455D01*
X191496371Y-114115326D01*
X191496368Y-114115327D01*
X191496368Y-114115328D01*
X191380536Y-114204209D01*
X191305130Y-114302481D01*
X191291653Y-114320044D01*
X191235782Y-114454928D01*
X191235781Y-114454930D01*
X191216725Y-114599681D01*
X182713262Y-114599681D01*
X181977943Y-114392723D01*
X181973920Y-114391517D01*
X180876241Y-114042040D01*
X180872261Y-114040698D01*
X180757079Y-113999681D01*
X186716725Y-113999681D01*
X186716725Y-113999684D01*
X186735781Y-114144435D01*
X186735783Y-114144440D01*
X186791652Y-114279321D01*
X186791655Y-114279327D01*
X186880535Y-114395156D01*
X186880536Y-114395157D01*
X186996365Y-114484037D01*
X186996371Y-114484040D01*
X187063811Y-114511974D01*
X187131256Y-114539911D01*
X187203633Y-114549439D01*
X187276009Y-114558968D01*
X187276010Y-114558968D01*
X187276011Y-114558968D01*
X187324261Y-114552615D01*
X187420764Y-114539911D01*
X187555653Y-114484038D01*
X187671484Y-114395157D01*
X187760365Y-114279326D01*
X187816238Y-114144437D01*
X187829935Y-114040398D01*
X187835295Y-113999684D01*
X187835295Y-113999681D01*
X187816238Y-113854930D01*
X187816238Y-113854929D01*
X187760365Y-113720041D01*
X187671484Y-113604209D01*
X187555653Y-113515328D01*
X187555650Y-113515327D01*
X187555648Y-113515325D01*
X187420767Y-113459456D01*
X187420762Y-113459454D01*
X187276011Y-113440398D01*
X187276009Y-113440398D01*
X187131257Y-113459454D01*
X187131255Y-113459455D01*
X186996371Y-113515326D01*
X186996368Y-113515327D01*
X186996368Y-113515328D01*
X186880536Y-113604209D01*
X186803804Y-113704209D01*
X186791653Y-113720044D01*
X186735782Y-113854928D01*
X186735781Y-113854930D01*
X186716725Y-113999681D01*
X180757079Y-113999681D01*
X179787068Y-113654253D01*
X179783135Y-113652777D01*
X178711645Y-113229798D01*
X178707765Y-113228190D01*
X177651221Y-112769167D01*
X177647398Y-112767429D01*
X177084794Y-112500000D01*
X182386620Y-112500000D01*
X182406091Y-112697699D01*
X182463760Y-112887808D01*
X182557401Y-113062998D01*
X182557405Y-113063005D01*
X182683431Y-113216568D01*
X182836994Y-113342594D01*
X182837001Y-113342598D01*
X183012191Y-113436239D01*
X183012193Y-113436239D01*
X183012196Y-113436241D01*
X183202299Y-113493908D01*
X183202298Y-113493908D01*
X183220024Y-113495653D01*
X183400000Y-113513380D01*
X183597701Y-113493908D01*
X183787804Y-113436241D01*
X183963004Y-113342595D01*
X184116568Y-113216568D01*
X184242595Y-113063004D01*
X184336241Y-112887804D01*
X184393908Y-112697701D01*
X184413380Y-112500000D01*
X188886620Y-112500000D01*
X188906091Y-112697699D01*
X188963760Y-112887808D01*
X189057401Y-113062998D01*
X189057405Y-113063005D01*
X189183431Y-113216568D01*
X189336994Y-113342594D01*
X189337001Y-113342598D01*
X189512191Y-113436239D01*
X189512193Y-113436239D01*
X189512196Y-113436241D01*
X189702299Y-113493908D01*
X189702298Y-113493908D01*
X189720024Y-113495653D01*
X189900000Y-113513380D01*
X190097701Y-113493908D01*
X190287804Y-113436241D01*
X190463004Y-113342595D01*
X190616568Y-113216568D01*
X190742595Y-113063004D01*
X190836241Y-112887804D01*
X190893908Y-112697701D01*
X190913380Y-112500000D01*
X192638640Y-112500000D01*
X192658111Y-112697699D01*
X192715780Y-112887808D01*
X192809421Y-113062998D01*
X192809425Y-113063005D01*
X192935451Y-113216568D01*
X193089014Y-113342594D01*
X193089021Y-113342598D01*
X193264211Y-113436239D01*
X193264213Y-113436239D01*
X193264216Y-113436241D01*
X193454319Y-113493908D01*
X193454318Y-113493908D01*
X193472044Y-113495653D01*
X193652020Y-113513380D01*
X193849721Y-113493908D01*
X194039824Y-113436241D01*
X194215024Y-113342595D01*
X194368588Y-113216568D01*
X194494615Y-113063004D01*
X194588261Y-112887804D01*
X194645928Y-112697701D01*
X194665400Y-112500000D01*
X199138640Y-112500000D01*
X199158111Y-112697699D01*
X199215780Y-112887808D01*
X199309421Y-113062998D01*
X199309425Y-113063005D01*
X199435451Y-113216568D01*
X199589014Y-113342594D01*
X199589021Y-113342598D01*
X199764211Y-113436239D01*
X199764213Y-113436239D01*
X199764216Y-113436241D01*
X199954319Y-113493908D01*
X199954318Y-113493908D01*
X199972044Y-113495653D01*
X200152020Y-113513380D01*
X200349721Y-113493908D01*
X200539824Y-113436241D01*
X200715024Y-113342595D01*
X200868588Y-113216568D01*
X200994615Y-113063004D01*
X201088261Y-112887804D01*
X201145928Y-112697701D01*
X201165400Y-112500000D01*
X201145928Y-112302299D01*
X201088261Y-112112196D01*
X201088259Y-112112193D01*
X201088259Y-112112191D01*
X200994618Y-111937001D01*
X200994614Y-111936994D01*
X200868588Y-111783431D01*
X200715025Y-111657405D01*
X200715018Y-111657401D01*
X200539828Y-111563760D01*
X200444772Y-111534925D01*
X200349721Y-111506092D01*
X200349719Y-111506091D01*
X200349721Y-111506091D01*
X200152020Y-111486620D01*
X199954320Y-111506091D01*
X199764211Y-111563760D01*
X199589021Y-111657401D01*
X199589014Y-111657405D01*
X199435451Y-111783431D01*
X199309425Y-111936994D01*
X199309421Y-111937001D01*
X199215780Y-112112191D01*
X199158111Y-112302300D01*
X199138640Y-112500000D01*
X194665400Y-112500000D01*
X194645928Y-112302299D01*
X194588261Y-112112196D01*
X194588259Y-112112193D01*
X194588259Y-112112191D01*
X194494618Y-111937001D01*
X194494614Y-111936994D01*
X194368588Y-111783431D01*
X194215025Y-111657405D01*
X194215018Y-111657401D01*
X194039828Y-111563760D01*
X193944772Y-111534925D01*
X193849721Y-111506092D01*
X193849719Y-111506091D01*
X193849721Y-111506091D01*
X193652020Y-111486620D01*
X193454320Y-111506091D01*
X193264211Y-111563760D01*
X193089021Y-111657401D01*
X193089014Y-111657405D01*
X192935451Y-111783431D01*
X192809425Y-111936994D01*
X192809421Y-111937001D01*
X192715780Y-112112191D01*
X192658111Y-112302300D01*
X192638640Y-112500000D01*
X190913380Y-112500000D01*
X190893908Y-112302299D01*
X190836241Y-112112196D01*
X190836239Y-112112193D01*
X190836239Y-112112191D01*
X190742598Y-111937001D01*
X190742594Y-111936994D01*
X190616568Y-111783431D01*
X190463005Y-111657405D01*
X190462998Y-111657401D01*
X190287808Y-111563760D01*
X190192752Y-111534925D01*
X190097701Y-111506092D01*
X190097699Y-111506091D01*
X190097701Y-111506091D01*
X189900000Y-111486620D01*
X189702300Y-111506091D01*
X189512191Y-111563760D01*
X189337001Y-111657401D01*
X189336994Y-111657405D01*
X189183431Y-111783431D01*
X189057405Y-111936994D01*
X189057401Y-111937001D01*
X188963760Y-112112191D01*
X188906091Y-112302300D01*
X188886620Y-112500000D01*
X184413380Y-112500000D01*
X184393908Y-112302299D01*
X184336241Y-112112196D01*
X184336239Y-112112193D01*
X184336239Y-112112191D01*
X184242598Y-111937001D01*
X184242594Y-111936994D01*
X184116568Y-111783431D01*
X183963005Y-111657405D01*
X183962998Y-111657401D01*
X183787808Y-111563760D01*
X183692752Y-111534925D01*
X183597701Y-111506092D01*
X183597699Y-111506091D01*
X183597701Y-111506091D01*
X183400000Y-111486620D01*
X183202300Y-111506091D01*
X183012191Y-111563760D01*
X182837001Y-111657401D01*
X182836994Y-111657405D01*
X182683431Y-111783431D01*
X182557405Y-111936994D01*
X182557401Y-111937001D01*
X182463760Y-112112191D01*
X182406091Y-112302300D01*
X182386620Y-112500000D01*
X177084794Y-112500000D01*
X176606976Y-112272873D01*
X176603213Y-112271005D01*
X175580184Y-111741519D01*
X175576487Y-111739526D01*
X174571928Y-111175669D01*
X174568301Y-111173551D01*
X173780431Y-110695530D01*
X173583453Y-110576018D01*
X173579910Y-110573786D01*
X173527919Y-110539781D01*
X172615838Y-109943224D01*
X172612363Y-109940866D01*
X171670212Y-109278023D01*
X171666818Y-109275548D01*
X170747664Y-108581184D01*
X170744356Y-108578596D01*
X170725109Y-108563005D01*
X170074805Y-108036217D01*
X170030096Y-108000000D01*
X182386620Y-108000000D01*
X182406091Y-108197699D01*
X182463760Y-108387808D01*
X182557401Y-108562998D01*
X182557405Y-108563005D01*
X182683431Y-108716568D01*
X182836994Y-108842594D01*
X182837001Y-108842598D01*
X183012191Y-108936239D01*
X183012193Y-108936239D01*
X183012196Y-108936241D01*
X183202299Y-108993908D01*
X183202298Y-108993908D01*
X183220024Y-108995653D01*
X183400000Y-109013380D01*
X183597701Y-108993908D01*
X183787804Y-108936241D01*
X183963004Y-108842595D01*
X184116568Y-108716568D01*
X184242595Y-108563004D01*
X184336241Y-108387804D01*
X184393908Y-108197701D01*
X184413380Y-108000000D01*
X184393908Y-107802299D01*
X184336241Y-107612196D01*
X184336239Y-107612193D01*
X184336239Y-107612191D01*
X184242598Y-107437001D01*
X184242594Y-107436994D01*
X184116568Y-107283431D01*
X183963005Y-107157405D01*
X183962998Y-107157401D01*
X183787808Y-107063760D01*
X183674438Y-107029370D01*
X183597701Y-107006092D01*
X183597699Y-107006091D01*
X183597701Y-107006091D01*
X183400000Y-106986620D01*
X183202300Y-107006091D01*
X183012191Y-107063760D01*
X182837001Y-107157401D01*
X182836994Y-107157405D01*
X182683431Y-107283431D01*
X182557405Y-107436994D01*
X182557401Y-107437001D01*
X182463760Y-107612191D01*
X182406091Y-107802300D01*
X182386620Y-108000000D01*
X170030096Y-108000000D01*
X169849225Y-107853483D01*
X169846030Y-107850804D01*
X169755878Y-107772573D01*
X169718149Y-107713771D01*
X169718199Y-107643902D01*
X169756016Y-107585151D01*
X169819592Y-107556172D01*
X169853336Y-107555983D01*
X169876009Y-107558968D01*
X169876010Y-107558968D01*
X169876011Y-107558968D01*
X169924261Y-107552615D01*
X170020764Y-107539911D01*
X170155653Y-107484038D01*
X170271484Y-107395157D01*
X170360365Y-107279326D01*
X170416238Y-107144437D01*
X170435295Y-106999683D01*
X170435295Y-106999681D01*
X179216725Y-106999681D01*
X179216725Y-106999684D01*
X179235781Y-107144435D01*
X179235783Y-107144440D01*
X179291652Y-107279321D01*
X179291655Y-107279327D01*
X179380535Y-107395156D01*
X179380536Y-107395157D01*
X179496365Y-107484037D01*
X179496371Y-107484040D01*
X179563811Y-107511974D01*
X179631256Y-107539911D01*
X179703633Y-107549439D01*
X179776009Y-107558968D01*
X179776010Y-107558968D01*
X179776011Y-107558968D01*
X179824261Y-107552615D01*
X179920764Y-107539911D01*
X180055653Y-107484038D01*
X180171484Y-107395157D01*
X180260365Y-107279326D01*
X180316238Y-107144437D01*
X180335295Y-106999683D01*
X180316238Y-106854929D01*
X180260365Y-106720041D01*
X180171484Y-106604209D01*
X180055653Y-106515328D01*
X180055650Y-106515327D01*
X180055648Y-106515325D01*
X179920767Y-106459456D01*
X179920762Y-106459454D01*
X179776011Y-106440398D01*
X179776009Y-106440398D01*
X179631257Y-106459454D01*
X179631255Y-106459455D01*
X179496371Y-106515326D01*
X179496368Y-106515327D01*
X179496368Y-106515328D01*
X179426329Y-106569071D01*
X179380536Y-106604209D01*
X179291653Y-106720044D01*
X179235782Y-106854928D01*
X179235781Y-106854930D01*
X179216725Y-106999681D01*
X170435295Y-106999681D01*
X170416238Y-106854929D01*
X170360365Y-106720041D01*
X170271484Y-106604209D01*
X170155653Y-106515328D01*
X170155650Y-106515327D01*
X170155648Y-106515325D01*
X170020767Y-106459456D01*
X170020765Y-106459455D01*
X170020764Y-106459455D01*
X169972606Y-106453115D01*
X169950974Y-106450267D01*
X169887078Y-106422000D01*
X169848607Y-106363676D01*
X169847776Y-106293811D01*
X169879477Y-106239649D01*
X170219126Y-105900000D01*
X187512630Y-105900000D01*
X187532101Y-106097699D01*
X187589770Y-106287808D01*
X187683411Y-106462998D01*
X187683415Y-106463005D01*
X187809441Y-106616568D01*
X187963004Y-106742594D01*
X187963011Y-106742598D01*
X188138201Y-106836239D01*
X188138203Y-106836239D01*
X188138206Y-106836241D01*
X188328309Y-106893908D01*
X188328308Y-106893908D01*
X188346034Y-106895653D01*
X188526010Y-106913380D01*
X188723711Y-106893908D01*
X188834805Y-106860207D01*
X188904671Y-106859584D01*
X188963784Y-106896832D01*
X188993375Y-106960125D01*
X188984050Y-107029370D01*
X188968574Y-107051875D01*
X188969301Y-107052361D01*
X188906266Y-107146699D01*
X188906264Y-107146703D01*
X188891500Y-107220928D01*
X188891500Y-108779063D01*
X188906266Y-108853301D01*
X188962515Y-108937484D01*
X188996234Y-108960014D01*
X189046699Y-108993734D01*
X189046702Y-108993734D01*
X189046703Y-108993735D01*
X189071666Y-108998700D01*
X189120933Y-109008500D01*
X190679066Y-109008499D01*
X190753301Y-108993734D01*
X190837484Y-108937484D01*
X190893734Y-108853301D01*
X190908500Y-108779067D01*
X190908499Y-108000000D01*
X192638640Y-108000000D01*
X192658111Y-108197699D01*
X192715780Y-108387808D01*
X192809421Y-108562998D01*
X192809425Y-108563005D01*
X192935451Y-108716568D01*
X193089014Y-108842594D01*
X193089021Y-108842598D01*
X193264211Y-108936239D01*
X193264213Y-108936239D01*
X193264216Y-108936241D01*
X193454319Y-108993908D01*
X193454318Y-108993908D01*
X193472044Y-108995653D01*
X193652020Y-109013380D01*
X193849721Y-108993908D01*
X194039824Y-108936241D01*
X194215024Y-108842595D01*
X194368588Y-108716568D01*
X194494615Y-108563004D01*
X194588261Y-108387804D01*
X194645928Y-108197701D01*
X194665400Y-108000000D01*
X194645928Y-107802299D01*
X194588261Y-107612196D01*
X194588259Y-107612193D01*
X194588259Y-107612191D01*
X194494618Y-107437001D01*
X194494614Y-107436994D01*
X194368588Y-107283431D01*
X194292428Y-107220928D01*
X199143520Y-107220928D01*
X199143520Y-108779063D01*
X199158286Y-108853301D01*
X199214535Y-108937484D01*
X199248254Y-108960014D01*
X199298719Y-108993734D01*
X199298722Y-108993734D01*
X199298723Y-108993735D01*
X199323686Y-108998700D01*
X199372953Y-109008500D01*
X200931086Y-109008499D01*
X201005321Y-108993734D01*
X201089504Y-108937484D01*
X201145754Y-108853301D01*
X201160520Y-108779067D01*
X201160519Y-107220934D01*
X201145754Y-107146699D01*
X201123962Y-107114085D01*
X201089504Y-107062515D01*
X201039039Y-107028796D01*
X201005321Y-107006266D01*
X201005319Y-107006265D01*
X201005316Y-107006264D01*
X200931089Y-106991500D01*
X199372956Y-106991500D01*
X199298718Y-107006266D01*
X199214535Y-107062515D01*
X199158286Y-107146699D01*
X199158284Y-107146703D01*
X199143520Y-107220928D01*
X194292428Y-107220928D01*
X194215025Y-107157405D01*
X194215018Y-107157401D01*
X194039828Y-107063760D01*
X193926458Y-107029370D01*
X193849721Y-107006092D01*
X193849719Y-107006091D01*
X193849721Y-107006091D01*
X193652020Y-106986620D01*
X193454320Y-107006091D01*
X193264211Y-107063760D01*
X193089021Y-107157401D01*
X193089014Y-107157405D01*
X192935451Y-107283431D01*
X192809425Y-107436994D01*
X192809421Y-107437001D01*
X192715780Y-107612191D01*
X192658111Y-107802300D01*
X192638640Y-108000000D01*
X190908499Y-108000000D01*
X190908499Y-107220934D01*
X190893734Y-107146699D01*
X190871942Y-107114085D01*
X190837484Y-107062515D01*
X190787019Y-107028796D01*
X190753301Y-107006266D01*
X190753299Y-107006265D01*
X190753296Y-107006264D01*
X190679071Y-106991500D01*
X189118380Y-106991500D01*
X189051341Y-106971815D01*
X189005586Y-106919011D01*
X188995642Y-106849853D01*
X189024667Y-106786297D01*
X189059927Y-106758142D01*
X189089014Y-106742595D01*
X189242578Y-106616568D01*
X189368605Y-106463004D01*
X189462251Y-106287804D01*
X189519918Y-106097701D01*
X189539390Y-105900000D01*
X194012630Y-105900000D01*
X194032101Y-106097699D01*
X194089770Y-106287808D01*
X194183411Y-106462998D01*
X194183415Y-106463005D01*
X194309441Y-106616568D01*
X194463004Y-106742594D01*
X194463011Y-106742598D01*
X194638201Y-106836239D01*
X194638203Y-106836239D01*
X194638206Y-106836241D01*
X194828309Y-106893908D01*
X194828308Y-106893908D01*
X194846034Y-106895653D01*
X195026010Y-106913380D01*
X195223711Y-106893908D01*
X195413814Y-106836241D01*
X195589014Y-106742595D01*
X195742578Y-106616568D01*
X195868605Y-106463004D01*
X195902452Y-106399681D01*
X205216725Y-106399681D01*
X205216725Y-106399684D01*
X205235781Y-106544435D01*
X205235783Y-106544440D01*
X205291652Y-106679321D01*
X205291655Y-106679327D01*
X205380535Y-106795156D01*
X205380536Y-106795157D01*
X205496365Y-106884037D01*
X205496371Y-106884040D01*
X205520195Y-106893908D01*
X205631256Y-106939911D01*
X205703633Y-106949439D01*
X205776009Y-106958968D01*
X205776010Y-106958968D01*
X205776011Y-106958968D01*
X205824261Y-106952615D01*
X205920764Y-106939911D01*
X206055653Y-106884038D01*
X206171484Y-106795157D01*
X206260365Y-106679326D01*
X206316238Y-106544437D01*
X206335295Y-106399683D01*
X206334945Y-106397027D01*
X206316238Y-106254930D01*
X206316238Y-106254929D01*
X206260365Y-106120041D01*
X206171484Y-106004209D01*
X206055653Y-105915328D01*
X206055650Y-105915327D01*
X206055648Y-105915325D01*
X205920767Y-105859456D01*
X205920762Y-105859454D01*
X205776011Y-105840398D01*
X205776009Y-105840398D01*
X205631257Y-105859454D01*
X205631255Y-105859455D01*
X205496371Y-105915326D01*
X205496368Y-105915327D01*
X205496368Y-105915328D01*
X205380539Y-106004207D01*
X205380536Y-106004209D01*
X205291653Y-106120044D01*
X205235782Y-106254928D01*
X205235781Y-106254930D01*
X205216725Y-106399681D01*
X195902452Y-106399681D01*
X195962251Y-106287804D01*
X196019918Y-106097701D01*
X196039390Y-105900000D01*
X196026802Y-105772196D01*
X206447417Y-105772196D01*
X206476258Y-105917183D01*
X206476261Y-105917193D01*
X206532830Y-106053764D01*
X206532837Y-106053777D01*
X206614966Y-106176691D01*
X206614969Y-106176695D01*
X206719498Y-106281224D01*
X206719502Y-106281227D01*
X206842416Y-106363356D01*
X206842429Y-106363363D01*
X206930117Y-106399684D01*
X206979005Y-106419934D01*
X206979009Y-106419934D01*
X206979010Y-106419935D01*
X207123997Y-106448776D01*
X207124000Y-106448776D01*
X207271838Y-106448776D01*
X207369380Y-106429372D01*
X207416831Y-106419934D01*
X207553413Y-106363360D01*
X207676334Y-106281227D01*
X207780869Y-106176692D01*
X207863002Y-106053771D01*
X207919576Y-105917189D01*
X207931060Y-105859455D01*
X207948418Y-105772196D01*
X207948418Y-105624355D01*
X207919577Y-105479368D01*
X207919576Y-105479367D01*
X207919576Y-105479363D01*
X207915388Y-105469252D01*
X207863005Y-105342787D01*
X207862998Y-105342774D01*
X207780869Y-105219860D01*
X207780866Y-105219856D01*
X207676337Y-105115327D01*
X207676333Y-105115324D01*
X207553419Y-105033195D01*
X207553406Y-105033188D01*
X207416835Y-104976619D01*
X207416825Y-104976616D01*
X207271838Y-104947776D01*
X207271836Y-104947776D01*
X207124000Y-104947776D01*
X207123998Y-104947776D01*
X206979010Y-104976616D01*
X206979000Y-104976619D01*
X206842429Y-105033188D01*
X206842416Y-105033195D01*
X206719502Y-105115324D01*
X206719498Y-105115327D01*
X206614969Y-105219856D01*
X206614966Y-105219860D01*
X206532837Y-105342774D01*
X206532830Y-105342787D01*
X206476261Y-105479358D01*
X206476258Y-105479368D01*
X206447418Y-105624355D01*
X206447418Y-105624358D01*
X206447418Y-105772194D01*
X206447418Y-105772196D01*
X206447417Y-105772196D01*
X196026802Y-105772196D01*
X196019918Y-105702299D01*
X195962251Y-105512196D01*
X195962249Y-105512193D01*
X195962249Y-105512191D01*
X195868608Y-105337001D01*
X195868604Y-105336994D01*
X195742578Y-105183431D01*
X195589015Y-105057405D01*
X195589008Y-105057401D01*
X195413818Y-104963760D01*
X195304988Y-104930747D01*
X195223711Y-104906092D01*
X195223709Y-104906091D01*
X195223711Y-104906091D01*
X195026010Y-104886620D01*
X194828310Y-104906091D01*
X194638201Y-104963760D01*
X194463011Y-105057401D01*
X194463004Y-105057405D01*
X194309441Y-105183431D01*
X194183415Y-105336994D01*
X194183411Y-105337001D01*
X194089770Y-105512191D01*
X194032101Y-105702300D01*
X194012630Y-105900000D01*
X189539390Y-105900000D01*
X189519918Y-105702299D01*
X189462251Y-105512196D01*
X189462249Y-105512193D01*
X189462249Y-105512191D01*
X189368608Y-105337001D01*
X189368604Y-105336994D01*
X189242578Y-105183431D01*
X189089015Y-105057405D01*
X189089008Y-105057401D01*
X188913818Y-104963760D01*
X188804988Y-104930747D01*
X188723711Y-104906092D01*
X188723709Y-104906091D01*
X188723711Y-104906091D01*
X188526010Y-104886620D01*
X188328310Y-104906091D01*
X188138201Y-104963760D01*
X187963011Y-105057401D01*
X187963004Y-105057405D01*
X187809441Y-105183431D01*
X187683415Y-105336994D01*
X187683411Y-105337001D01*
X187589770Y-105512191D01*
X187532101Y-105702300D01*
X187512630Y-105900000D01*
X170219126Y-105900000D01*
X170919128Y-105199998D01*
X172261493Y-105199998D01*
X172261493Y-105200001D01*
X172279841Y-105339374D01*
X172279843Y-105339379D01*
X172333637Y-105469252D01*
X172333639Y-105469255D01*
X172419217Y-105580781D01*
X172419218Y-105580782D01*
X172530744Y-105666360D01*
X172530747Y-105666362D01*
X172612644Y-105700284D01*
X172660624Y-105720158D01*
X172730312Y-105729332D01*
X172799999Y-105738507D01*
X172800000Y-105738507D01*
X172800001Y-105738507D01*
X172846458Y-105732390D01*
X172939376Y-105720158D01*
X173069254Y-105666361D01*
X173180782Y-105580782D01*
X173266361Y-105469254D01*
X173320158Y-105339376D01*
X173338507Y-105200000D01*
X173320158Y-105060624D01*
X173285362Y-104976619D01*
X173266363Y-104930751D01*
X173266362Y-104930750D01*
X173266361Y-104930747D01*
X173180782Y-104819218D01*
X173180780Y-104819217D01*
X173180780Y-104819216D01*
X173069254Y-104733639D01*
X173069252Y-104733637D01*
X172939379Y-104679843D01*
X172939374Y-104679841D01*
X172800001Y-104661493D01*
X172799999Y-104661493D01*
X172660625Y-104679841D01*
X172660620Y-104679843D01*
X172530751Y-104733636D01*
X172530750Y-104733637D01*
X172530747Y-104733638D01*
X172530747Y-104733639D01*
X172419218Y-104819218D01*
X172352558Y-104906092D01*
X172333637Y-104930750D01*
X172333636Y-104930751D01*
X172279843Y-105060620D01*
X172279841Y-105060625D01*
X172261493Y-105199998D01*
X170919128Y-105199998D01*
X172319445Y-103799681D01*
X179416725Y-103799681D01*
X179416725Y-103799684D01*
X179435781Y-103944435D01*
X179435783Y-103944440D01*
X179491652Y-104079321D01*
X179491655Y-104079327D01*
X179580535Y-104195156D01*
X179580536Y-104195157D01*
X179696365Y-104284037D01*
X179696371Y-104284040D01*
X179762992Y-104311635D01*
X179831256Y-104339911D01*
X179903633Y-104349439D01*
X179976009Y-104358968D01*
X179976010Y-104358968D01*
X179976011Y-104358968D01*
X180024261Y-104352615D01*
X180120764Y-104339911D01*
X180255653Y-104284038D01*
X180371484Y-104195157D01*
X180460365Y-104079326D01*
X180516238Y-103944437D01*
X180535295Y-103799683D01*
X180534176Y-103791187D01*
X180516238Y-103654930D01*
X180516238Y-103654929D01*
X180460365Y-103520041D01*
X180371484Y-103404209D01*
X180255653Y-103315328D01*
X180255650Y-103315327D01*
X180255648Y-103315325D01*
X180120767Y-103259456D01*
X180120762Y-103259454D01*
X179976011Y-103240398D01*
X179976009Y-103240398D01*
X179831257Y-103259454D01*
X179831255Y-103259455D01*
X179696371Y-103315326D01*
X179696368Y-103315327D01*
X179696368Y-103315328D01*
X179580536Y-103404209D01*
X179530625Y-103469255D01*
X179491653Y-103520044D01*
X179435782Y-103654928D01*
X179435781Y-103654930D01*
X179416725Y-103799681D01*
X172319445Y-103799681D01*
X172423669Y-103695457D01*
X172463900Y-103668578D01*
X172469254Y-103666361D01*
X172484153Y-103654929D01*
X172500753Y-103642190D01*
X172580782Y-103580782D01*
X172666361Y-103469254D01*
X172720158Y-103339376D01*
X172738507Y-103200000D01*
X172737869Y-103195157D01*
X172722619Y-103079321D01*
X172720158Y-103060624D01*
X172679268Y-102961906D01*
X172666363Y-102930751D01*
X172666362Y-102930750D01*
X172666361Y-102930747D01*
X172580782Y-102819218D01*
X172580780Y-102819217D01*
X172580780Y-102819216D01*
X172469254Y-102733639D01*
X172469252Y-102733637D01*
X172387266Y-102699678D01*
X208616590Y-102699678D01*
X208616590Y-102699687D01*
X208636239Y-102961901D01*
X208636240Y-102961906D01*
X208694752Y-103218267D01*
X208694754Y-103218276D01*
X208694756Y-103218281D01*
X208790827Y-103463067D01*
X208922309Y-103690800D01*
X209086264Y-103896393D01*
X209279030Y-104075253D01*
X209496300Y-104223385D01*
X209733222Y-104337481D01*
X209984502Y-104414991D01*
X209984503Y-104414991D01*
X209984506Y-104414992D01*
X210244520Y-104454182D01*
X210244525Y-104454182D01*
X210244528Y-104454183D01*
X210244529Y-104454183D01*
X210507491Y-104454183D01*
X210507492Y-104454183D01*
X210507499Y-104454182D01*
X210767513Y-104414992D01*
X210767514Y-104414991D01*
X210767518Y-104414991D01*
X211018798Y-104337481D01*
X211255720Y-104223385D01*
X211472990Y-104075253D01*
X211665756Y-103896393D01*
X211829711Y-103690800D01*
X211961193Y-103463067D01*
X212057264Y-103218281D01*
X212115779Y-102961911D01*
X212115780Y-102961901D01*
X212135430Y-102699687D01*
X212135430Y-102699678D01*
X212115780Y-102437464D01*
X212115779Y-102437459D01*
X212115779Y-102437455D01*
X212057264Y-102181085D01*
X211961193Y-101936299D01*
X211829711Y-101708566D01*
X211665756Y-101502973D01*
X211472990Y-101324113D01*
X211255720Y-101175981D01*
X211255717Y-101175980D01*
X211255715Y-101175978D01*
X211018798Y-101061885D01*
X210767519Y-100984375D01*
X210767513Y-100984373D01*
X210507499Y-100945183D01*
X210507492Y-100945183D01*
X210244528Y-100945183D01*
X210244520Y-100945183D01*
X209984506Y-100984373D01*
X209984500Y-100984375D01*
X209733221Y-101061885D01*
X209496304Y-101175978D01*
X209279029Y-101324113D01*
X209086266Y-101502971D01*
X209086264Y-101502973D01*
X208922309Y-101708566D01*
X208790827Y-101936298D01*
X208694758Y-102181079D01*
X208694752Y-102181098D01*
X208636240Y-102437459D01*
X208636239Y-102437464D01*
X208616590Y-102699678D01*
X172387266Y-102699678D01*
X172339379Y-102679843D01*
X172339374Y-102679841D01*
X172200001Y-102661493D01*
X172199999Y-102661493D01*
X172060625Y-102679841D01*
X172060620Y-102679843D01*
X171930751Y-102733636D01*
X171930750Y-102733637D01*
X171930747Y-102733638D01*
X171930747Y-102733639D01*
X171844679Y-102799681D01*
X171819218Y-102819218D01*
X171733637Y-102930749D01*
X171733636Y-102930750D01*
X171731416Y-102936110D01*
X171704540Y-102976330D01*
X168227756Y-106453115D01*
X168227754Y-106453118D01*
X168191837Y-106515328D01*
X168160808Y-106569069D01*
X168126155Y-106698400D01*
X168126155Y-107406735D01*
X168123481Y-107432347D01*
X168123292Y-107433239D01*
X168125976Y-107483114D01*
X168126155Y-107489776D01*
X168126155Y-107539721D01*
X168126392Y-107540606D01*
X168130434Y-107566011D01*
X168130483Y-107566931D01*
X168130485Y-107566940D01*
X168132545Y-107573250D01*
X168134635Y-107643088D01*
X168098636Y-107702970D01*
X168035977Y-107733883D01*
X167966552Y-107726013D01*
X167930522Y-107702809D01*
X167416303Y-107227752D01*
X167413305Y-107224888D01*
X166576702Y-106398484D01*
X166573802Y-106395522D01*
X165765287Y-105541612D01*
X165762488Y-105538555D01*
X165739151Y-105512196D01*
X164982948Y-104658074D01*
X164980290Y-104654969D01*
X164401738Y-103955737D01*
X164272616Y-103799681D01*
X169116725Y-103799681D01*
X169116725Y-103799684D01*
X169135781Y-103944435D01*
X169135783Y-103944440D01*
X169191652Y-104079321D01*
X169191655Y-104079327D01*
X169280535Y-104195156D01*
X169280536Y-104195157D01*
X169396365Y-104284037D01*
X169396371Y-104284040D01*
X169462992Y-104311635D01*
X169531256Y-104339911D01*
X169603633Y-104349439D01*
X169676009Y-104358968D01*
X169676010Y-104358968D01*
X169676011Y-104358968D01*
X169724261Y-104352615D01*
X169820764Y-104339911D01*
X169955653Y-104284038D01*
X170071484Y-104195157D01*
X170160365Y-104079326D01*
X170216238Y-103944437D01*
X170235295Y-103799683D01*
X170234176Y-103791187D01*
X170216238Y-103654930D01*
X170216238Y-103654929D01*
X170160365Y-103520041D01*
X170071484Y-103404209D01*
X169955653Y-103315328D01*
X169955650Y-103315327D01*
X169955648Y-103315325D01*
X169820767Y-103259456D01*
X169820762Y-103259454D01*
X169676011Y-103240398D01*
X169676009Y-103240398D01*
X169542976Y-103257912D01*
X169489520Y-103249575D01*
X169457533Y-103287522D01*
X169436534Y-103298689D01*
X169396374Y-103315324D01*
X169396371Y-103315325D01*
X169339495Y-103358968D01*
X169280536Y-103404209D01*
X169230625Y-103469255D01*
X169191653Y-103520044D01*
X169135782Y-103654928D01*
X169135781Y-103654930D01*
X169116725Y-103799681D01*
X164272616Y-103799681D01*
X164230634Y-103748942D01*
X164228045Y-103745705D01*
X163509088Y-102815123D01*
X163506609Y-102811801D01*
X163497876Y-102799681D01*
X164816725Y-102799681D01*
X164816725Y-102799684D01*
X164835781Y-102944435D01*
X164835783Y-102944440D01*
X164891652Y-103079321D01*
X164891655Y-103079327D01*
X164980535Y-103195156D01*
X164980536Y-103195157D01*
X165096365Y-103284037D01*
X165096371Y-103284040D01*
X165163811Y-103311974D01*
X165231256Y-103339911D01*
X165303633Y-103349439D01*
X165376009Y-103358968D01*
X165376010Y-103358968D01*
X165376011Y-103358968D01*
X165424261Y-103352615D01*
X165520764Y-103339911D01*
X165655653Y-103284038D01*
X165771484Y-103195157D01*
X165860365Y-103079326D01*
X165916238Y-102944437D01*
X165932723Y-102819218D01*
X165935295Y-102799684D01*
X165935295Y-102799681D01*
X165916238Y-102654930D01*
X165916238Y-102654929D01*
X165860365Y-102520041D01*
X165771484Y-102404209D01*
X165655653Y-102315328D01*
X165655650Y-102315327D01*
X165655648Y-102315325D01*
X165520767Y-102259456D01*
X165520762Y-102259454D01*
X165376011Y-102240398D01*
X165376009Y-102240398D01*
X165231257Y-102259454D01*
X165231255Y-102259455D01*
X165096371Y-102315326D01*
X165096368Y-102315327D01*
X165096368Y-102315328D01*
X164980536Y-102404209D01*
X164921780Y-102480782D01*
X164891653Y-102520044D01*
X164835782Y-102654928D01*
X164835781Y-102654930D01*
X164816725Y-102799681D01*
X163497876Y-102799681D01*
X163425825Y-102699683D01*
X162819155Y-101857700D01*
X162816797Y-101854309D01*
X162810172Y-101844435D01*
X162511993Y-101399995D01*
X167040580Y-101399995D01*
X167040580Y-101400004D01*
X167060229Y-101662218D01*
X167060230Y-101662223D01*
X167118742Y-101918584D01*
X167118744Y-101918593D01*
X167118746Y-101918598D01*
X167214817Y-102163384D01*
X167346299Y-102391117D01*
X167510254Y-102596710D01*
X167703020Y-102775570D01*
X167920290Y-102923702D01*
X168157212Y-103037798D01*
X168408492Y-103115308D01*
X168408493Y-103115308D01*
X168408496Y-103115309D01*
X168668510Y-103154499D01*
X168668515Y-103154499D01*
X168668518Y-103154500D01*
X168668519Y-103154500D01*
X168931481Y-103154500D01*
X168931482Y-103154500D01*
X168931489Y-103154499D01*
X169191503Y-103115309D01*
X169191503Y-103115308D01*
X169191508Y-103115308D01*
X169352533Y-103065637D01*
X169422393Y-103064687D01*
X169424253Y-103065847D01*
X169472988Y-103023253D01*
X169636647Y-102944440D01*
X169679702Y-102923706D01*
X169679702Y-102923705D01*
X169679710Y-102923702D01*
X169896980Y-102775570D01*
X170089746Y-102596710D01*
X170253701Y-102391117D01*
X170385183Y-102163384D01*
X170410060Y-102099998D01*
X170861493Y-102099998D01*
X170861493Y-102100001D01*
X170879841Y-102239374D01*
X170879843Y-102239379D01*
X170933637Y-102369252D01*
X170933639Y-102369255D01*
X171019217Y-102480781D01*
X171019218Y-102480782D01*
X171130744Y-102566360D01*
X171130747Y-102566362D01*
X171204013Y-102596709D01*
X171260624Y-102620158D01*
X171330312Y-102629332D01*
X171399999Y-102638507D01*
X171400000Y-102638507D01*
X171400001Y-102638507D01*
X171446458Y-102632390D01*
X171539376Y-102620158D01*
X171669254Y-102566361D01*
X171780782Y-102480782D01*
X171866361Y-102369254D01*
X171920158Y-102239376D01*
X171938507Y-102100000D01*
X171938465Y-102099684D01*
X171920471Y-101963004D01*
X171920158Y-101960624D01*
X171866361Y-101830747D01*
X171780782Y-101719218D01*
X171780780Y-101719217D01*
X171780780Y-101719216D01*
X171755322Y-101699681D01*
X178416725Y-101699681D01*
X178416725Y-101699684D01*
X178435781Y-101844435D01*
X178435783Y-101844440D01*
X178491652Y-101979321D01*
X178491655Y-101979327D01*
X178580535Y-102095156D01*
X178580536Y-102095157D01*
X178696365Y-102184037D01*
X178696371Y-102184040D01*
X178763811Y-102211974D01*
X178831256Y-102239911D01*
X178865620Y-102244435D01*
X178976009Y-102258968D01*
X178976010Y-102258968D01*
X178976011Y-102258968D01*
X179024261Y-102252615D01*
X179120764Y-102239911D01*
X179255653Y-102184038D01*
X179365588Y-102099681D01*
X183116725Y-102099681D01*
X183116725Y-102099684D01*
X183135781Y-102244435D01*
X183135783Y-102244440D01*
X183191652Y-102379321D01*
X183191655Y-102379327D01*
X183280535Y-102495156D01*
X183280536Y-102495157D01*
X183396365Y-102584037D01*
X183396371Y-102584040D01*
X183426962Y-102596711D01*
X183531256Y-102639911D01*
X183603633Y-102649439D01*
X183676009Y-102658968D01*
X183676010Y-102658968D01*
X183676011Y-102658968D01*
X183724261Y-102652615D01*
X183820764Y-102639911D01*
X183955653Y-102584038D01*
X184071484Y-102495157D01*
X184160365Y-102379326D01*
X184216238Y-102244437D01*
X184235295Y-102099683D01*
X184216238Y-101954929D01*
X184160365Y-101820041D01*
X184071484Y-101704209D01*
X183955653Y-101615328D01*
X183955650Y-101615327D01*
X183955648Y-101615325D01*
X183820767Y-101559456D01*
X183820762Y-101559454D01*
X183676011Y-101540398D01*
X183676009Y-101540398D01*
X183531257Y-101559454D01*
X183531255Y-101559455D01*
X183396371Y-101615326D01*
X183396368Y-101615327D01*
X183396368Y-101615328D01*
X183280536Y-101704209D01*
X183216392Y-101787804D01*
X183191653Y-101820044D01*
X183135782Y-101954928D01*
X183135781Y-101954930D01*
X183116725Y-102099681D01*
X179365588Y-102099681D01*
X179371484Y-102095157D01*
X179460365Y-101979326D01*
X179516238Y-101844437D01*
X179532723Y-101719218D01*
X179535295Y-101699684D01*
X179535295Y-101699681D01*
X179516238Y-101554930D01*
X179516238Y-101554929D01*
X179460365Y-101420041D01*
X179444987Y-101400000D01*
X187512630Y-101400000D01*
X187532101Y-101597699D01*
X187589770Y-101787808D01*
X187683411Y-101962998D01*
X187683415Y-101963005D01*
X187809441Y-102116568D01*
X187963004Y-102242594D01*
X187963011Y-102242598D01*
X188138201Y-102336239D01*
X188138203Y-102336239D01*
X188138206Y-102336241D01*
X188328309Y-102393908D01*
X188328308Y-102393908D01*
X188346034Y-102395653D01*
X188526010Y-102413380D01*
X188723711Y-102393908D01*
X188913814Y-102336241D01*
X189089014Y-102242595D01*
X189242578Y-102116568D01*
X189368605Y-101963004D01*
X189439298Y-101830747D01*
X189462249Y-101787808D01*
X189462249Y-101787807D01*
X189462251Y-101787804D01*
X189519918Y-101597701D01*
X189539390Y-101400000D01*
X189519918Y-101202299D01*
X189462251Y-101012196D01*
X189462249Y-101012193D01*
X189462249Y-101012191D01*
X189368608Y-100837001D01*
X189368604Y-100836994D01*
X189242578Y-100683431D01*
X189166418Y-100620928D01*
X194017510Y-100620928D01*
X194017510Y-102179063D01*
X194032276Y-102253301D01*
X194088525Y-102337484D01*
X194122244Y-102360014D01*
X194172709Y-102393734D01*
X194172712Y-102393734D01*
X194172713Y-102393735D01*
X194197676Y-102398700D01*
X194246943Y-102408500D01*
X195805076Y-102408499D01*
X195879311Y-102393734D01*
X195963494Y-102337484D01*
X196019744Y-102253301D01*
X196034510Y-102179067D01*
X196034509Y-100620934D01*
X196019744Y-100546699D01*
X195985449Y-100495373D01*
X195963494Y-100462515D01*
X195913029Y-100428796D01*
X195879311Y-100406266D01*
X195879309Y-100406265D01*
X195879306Y-100406264D01*
X195805079Y-100391500D01*
X194246946Y-100391500D01*
X194172708Y-100406266D01*
X194088525Y-100462515D01*
X194032276Y-100546699D01*
X194032274Y-100546703D01*
X194017510Y-100620928D01*
X189166418Y-100620928D01*
X189089015Y-100557405D01*
X189089008Y-100557401D01*
X188913818Y-100463760D01*
X188818762Y-100434925D01*
X188723711Y-100406092D01*
X188723709Y-100406091D01*
X188723711Y-100406091D01*
X188526010Y-100386620D01*
X188328310Y-100406091D01*
X188138201Y-100463760D01*
X187963011Y-100557401D01*
X187963004Y-100557405D01*
X187809441Y-100683431D01*
X187683415Y-100836994D01*
X187683411Y-100837001D01*
X187589770Y-101012191D01*
X187532101Y-101202300D01*
X187512630Y-101400000D01*
X179444987Y-101400000D01*
X179371484Y-101304209D01*
X179255653Y-101215328D01*
X179255650Y-101215327D01*
X179255648Y-101215325D01*
X179120767Y-101159456D01*
X179120762Y-101159454D01*
X178976011Y-101140398D01*
X178976009Y-101140398D01*
X178831257Y-101159454D01*
X178831255Y-101159455D01*
X178696371Y-101215326D01*
X178696368Y-101215327D01*
X178696368Y-101215328D01*
X178693573Y-101217473D01*
X178580536Y-101304209D01*
X178491653Y-101420044D01*
X178435782Y-101554928D01*
X178435781Y-101554930D01*
X178416725Y-101699681D01*
X171755322Y-101699681D01*
X171669254Y-101633639D01*
X171669252Y-101633637D01*
X171539379Y-101579843D01*
X171539374Y-101579841D01*
X171400001Y-101561493D01*
X171399999Y-101561493D01*
X171260625Y-101579841D01*
X171260620Y-101579843D01*
X171130751Y-101633636D01*
X171130750Y-101633637D01*
X171019218Y-101719218D01*
X170933637Y-101830750D01*
X170933636Y-101830751D01*
X170879843Y-101960620D01*
X170879841Y-101960625D01*
X170861493Y-102099998D01*
X170410060Y-102099998D01*
X170481254Y-101918598D01*
X170539769Y-101662228D01*
X170539770Y-101662218D01*
X170559420Y-101400004D01*
X170559420Y-101399995D01*
X170539770Y-101137781D01*
X170539769Y-101137776D01*
X170539769Y-101137772D01*
X170481254Y-100881402D01*
X170385183Y-100636616D01*
X170253701Y-100408883D01*
X170089746Y-100203290D01*
X169978082Y-100099681D01*
X199316725Y-100099681D01*
X199316725Y-100099684D01*
X199335781Y-100244435D01*
X199335783Y-100244440D01*
X199391652Y-100379321D01*
X199391655Y-100379327D01*
X199480535Y-100495156D01*
X199480536Y-100495157D01*
X199596365Y-100584037D01*
X199596371Y-100584040D01*
X199663811Y-100611974D01*
X199731256Y-100639911D01*
X199803633Y-100649439D01*
X199876009Y-100658968D01*
X199876010Y-100658968D01*
X199876011Y-100658968D01*
X199924261Y-100652615D01*
X200020764Y-100639911D01*
X200155653Y-100584038D01*
X200271484Y-100495157D01*
X200360365Y-100379326D01*
X200416238Y-100244437D01*
X200433234Y-100115341D01*
X212104272Y-100115341D01*
X212133113Y-100260328D01*
X212133116Y-100260338D01*
X212189685Y-100396909D01*
X212189692Y-100396922D01*
X212271821Y-100519836D01*
X212271824Y-100519840D01*
X212376353Y-100624369D01*
X212376357Y-100624372D01*
X212499271Y-100706501D01*
X212499284Y-100706508D01*
X212635855Y-100763077D01*
X212635860Y-100763079D01*
X212635864Y-100763079D01*
X212635865Y-100763080D01*
X212780852Y-100791921D01*
X212780855Y-100791921D01*
X212928693Y-100791921D01*
X213026235Y-100772517D01*
X213073686Y-100763079D01*
X213210268Y-100706505D01*
X213333189Y-100624372D01*
X213437724Y-100519837D01*
X213519857Y-100396916D01*
X213576431Y-100260334D01*
X213605273Y-100115339D01*
X213605273Y-99967503D01*
X213605273Y-99967500D01*
X213576432Y-99822513D01*
X213576431Y-99822512D01*
X213576431Y-99822508D01*
X213565102Y-99795157D01*
X213519860Y-99685932D01*
X213519853Y-99685919D01*
X213437724Y-99563005D01*
X213437721Y-99563001D01*
X213333192Y-99458472D01*
X213333188Y-99458469D01*
X213210274Y-99376340D01*
X213210261Y-99376333D01*
X213073690Y-99319764D01*
X213073680Y-99319761D01*
X212928693Y-99290921D01*
X212928691Y-99290921D01*
X212780855Y-99290921D01*
X212780853Y-99290921D01*
X212635865Y-99319761D01*
X212635855Y-99319764D01*
X212499284Y-99376333D01*
X212499271Y-99376340D01*
X212376357Y-99458469D01*
X212376353Y-99458472D01*
X212271824Y-99563001D01*
X212271821Y-99563005D01*
X212189692Y-99685919D01*
X212189685Y-99685932D01*
X212133116Y-99822503D01*
X212133113Y-99822513D01*
X212104273Y-99967500D01*
X212104273Y-99967503D01*
X212104273Y-100115339D01*
X212104273Y-100115341D01*
X212104272Y-100115341D01*
X200433234Y-100115341D01*
X200435295Y-100099683D01*
X200416238Y-99954929D01*
X200360365Y-99820041D01*
X200271484Y-99704209D01*
X200155653Y-99615328D01*
X200155650Y-99615327D01*
X200155648Y-99615325D01*
X200020767Y-99559456D01*
X200020762Y-99559454D01*
X199876011Y-99540398D01*
X199876009Y-99540398D01*
X199731257Y-99559454D01*
X199731255Y-99559455D01*
X199596371Y-99615326D01*
X199596368Y-99615327D01*
X199596368Y-99615328D01*
X199480536Y-99704209D01*
X199436037Y-99762202D01*
X199391653Y-99820044D01*
X199335782Y-99954928D01*
X199335781Y-99954930D01*
X199316725Y-100099681D01*
X169978082Y-100099681D01*
X169896980Y-100024430D01*
X169679710Y-99876298D01*
X169679707Y-99876297D01*
X169679705Y-99876295D01*
X169442788Y-99762202D01*
X169191509Y-99684692D01*
X169191503Y-99684690D01*
X168931489Y-99645500D01*
X168931482Y-99645500D01*
X168668518Y-99645500D01*
X168668510Y-99645500D01*
X168408496Y-99684690D01*
X168408490Y-99684692D01*
X168157211Y-99762202D01*
X167920294Y-99876295D01*
X167703019Y-100024430D01*
X167510256Y-100203288D01*
X167510254Y-100203290D01*
X167346299Y-100408883D01*
X167214817Y-100636615D01*
X167118748Y-100881396D01*
X167118742Y-100881415D01*
X167060230Y-101137776D01*
X167060229Y-101137781D01*
X167040580Y-101399995D01*
X162511993Y-101399995D01*
X162161645Y-100877798D01*
X162159393Y-100874318D01*
X161676423Y-100099681D01*
X161537218Y-99876410D01*
X161535090Y-99872865D01*
X161511067Y-99831302D01*
X161319397Y-99499681D01*
X164516725Y-99499681D01*
X164516725Y-99499684D01*
X164535781Y-99644435D01*
X164535783Y-99644440D01*
X164591652Y-99779321D01*
X164591655Y-99779327D01*
X164680535Y-99895156D01*
X164680536Y-99895157D01*
X164796365Y-99984037D01*
X164796371Y-99984040D01*
X164863811Y-100011974D01*
X164931256Y-100039911D01*
X165003633Y-100049439D01*
X165076009Y-100058968D01*
X165076010Y-100058968D01*
X165076011Y-100058968D01*
X165124261Y-100052615D01*
X165220764Y-100039911D01*
X165355653Y-99984038D01*
X165471484Y-99895157D01*
X165560365Y-99779326D01*
X165616238Y-99644437D01*
X165635295Y-99499683D01*
X165633502Y-99486067D01*
X165622129Y-99399681D01*
X186516725Y-99399681D01*
X186516725Y-99399684D01*
X186535781Y-99544435D01*
X186535783Y-99544440D01*
X186591652Y-99679321D01*
X186591655Y-99679327D01*
X186680535Y-99795156D01*
X186680536Y-99795157D01*
X186796365Y-99884037D01*
X186796371Y-99884040D01*
X186863811Y-99911974D01*
X186931256Y-99939911D01*
X187003633Y-99949439D01*
X187076009Y-99958968D01*
X187076010Y-99958968D01*
X187076011Y-99958968D01*
X187124261Y-99952615D01*
X187220764Y-99939911D01*
X187355653Y-99884038D01*
X187471484Y-99795157D01*
X187560365Y-99679326D01*
X187616238Y-99544437D01*
X187635295Y-99399683D01*
X187633235Y-99384039D01*
X187616238Y-99254930D01*
X187616238Y-99254929D01*
X187560365Y-99120041D01*
X187471484Y-99004209D01*
X187355653Y-98915328D01*
X187355650Y-98915327D01*
X187355648Y-98915325D01*
X187220767Y-98859456D01*
X187220762Y-98859454D01*
X187076011Y-98840398D01*
X187076009Y-98840398D01*
X186931257Y-98859454D01*
X186931255Y-98859455D01*
X186796371Y-98915326D01*
X186796368Y-98915327D01*
X186796368Y-98915328D01*
X186680536Y-99004209D01*
X186603804Y-99104209D01*
X186591653Y-99120044D01*
X186535782Y-99254928D01*
X186535781Y-99254930D01*
X186516725Y-99399681D01*
X165622129Y-99399681D01*
X165616238Y-99354930D01*
X165616238Y-99354929D01*
X165560365Y-99220041D01*
X165471484Y-99104209D01*
X165355653Y-99015328D01*
X165355650Y-99015327D01*
X165355648Y-99015325D01*
X165220767Y-98959456D01*
X165220762Y-98959454D01*
X165076011Y-98940398D01*
X165076009Y-98940398D01*
X164931257Y-98959454D01*
X164931255Y-98959455D01*
X164796371Y-99015326D01*
X164796368Y-99015327D01*
X164796368Y-99015328D01*
X164747218Y-99053042D01*
X164680536Y-99104209D01*
X164591653Y-99220044D01*
X164535782Y-99354928D01*
X164535781Y-99354930D01*
X164516725Y-99499681D01*
X161319397Y-99499681D01*
X161007157Y-98959455D01*
X160946638Y-98854747D01*
X160944624Y-98851124D01*
X160436354Y-97899681D01*
X201316725Y-97899681D01*
X201316725Y-97899684D01*
X201335781Y-98044435D01*
X201335783Y-98044440D01*
X201391652Y-98179321D01*
X201391655Y-98179327D01*
X201480535Y-98295156D01*
X201480536Y-98295157D01*
X201596365Y-98384037D01*
X201596371Y-98384040D01*
X201663811Y-98411974D01*
X201731256Y-98439911D01*
X201803633Y-98449439D01*
X201876009Y-98458968D01*
X201876010Y-98458968D01*
X201876011Y-98458968D01*
X201924261Y-98452615D01*
X202020764Y-98439911D01*
X202155653Y-98384038D01*
X202271484Y-98295157D01*
X202360365Y-98179326D01*
X202416238Y-98044437D01*
X202435295Y-97899683D01*
X202434601Y-97894414D01*
X202416238Y-97754930D01*
X202416238Y-97754929D01*
X202360365Y-97620041D01*
X202344742Y-97599681D01*
X214616725Y-97599681D01*
X214616725Y-97599684D01*
X214635781Y-97744435D01*
X214635783Y-97744440D01*
X214691652Y-97879321D01*
X214691655Y-97879327D01*
X214780535Y-97995156D01*
X214780536Y-97995157D01*
X214896365Y-98084037D01*
X214896371Y-98084040D01*
X214963811Y-98111974D01*
X215031256Y-98139911D01*
X215103633Y-98149439D01*
X215176009Y-98158968D01*
X215176010Y-98158968D01*
X215176011Y-98158968D01*
X215224261Y-98152615D01*
X215320764Y-98139911D01*
X215455653Y-98084038D01*
X215571484Y-97995157D01*
X215660365Y-97879326D01*
X215716238Y-97744437D01*
X215728942Y-97647934D01*
X215735295Y-97599684D01*
X215735295Y-97599681D01*
X215716238Y-97454930D01*
X215716238Y-97454929D01*
X215660365Y-97320041D01*
X215571484Y-97204209D01*
X215455653Y-97115328D01*
X215455650Y-97115327D01*
X215455648Y-97115325D01*
X215320767Y-97059456D01*
X215320762Y-97059454D01*
X215176011Y-97040398D01*
X215176009Y-97040398D01*
X215031257Y-97059454D01*
X215031255Y-97059455D01*
X214896371Y-97115326D01*
X214780536Y-97204209D01*
X214691653Y-97320044D01*
X214635782Y-97454928D01*
X214635781Y-97454930D01*
X214616725Y-97599681D01*
X202344742Y-97599681D01*
X202271484Y-97504209D01*
X202155653Y-97415328D01*
X202155650Y-97415327D01*
X202155648Y-97415325D01*
X202020767Y-97359456D01*
X202020762Y-97359454D01*
X201876011Y-97340398D01*
X201876009Y-97340398D01*
X201731257Y-97359454D01*
X201731255Y-97359455D01*
X201596371Y-97415326D01*
X201596368Y-97415327D01*
X201596368Y-97415328D01*
X201480536Y-97504209D01*
X201407276Y-97599684D01*
X201391653Y-97620044D01*
X201335782Y-97754928D01*
X201335781Y-97754930D01*
X201316725Y-97899681D01*
X160436354Y-97899681D01*
X160390528Y-97813899D01*
X160388636Y-97810210D01*
X159869516Y-96755033D01*
X159867749Y-96751283D01*
X159643725Y-96254674D01*
X165623853Y-96254674D01*
X165623853Y-96254677D01*
X165642909Y-96399428D01*
X165642911Y-96399433D01*
X165698780Y-96534314D01*
X165698783Y-96534320D01*
X165787663Y-96650149D01*
X165787664Y-96650150D01*
X165903493Y-96739030D01*
X165903499Y-96739033D01*
X165942127Y-96755033D01*
X166038384Y-96794904D01*
X166110761Y-96804432D01*
X166183137Y-96813961D01*
X166183138Y-96813961D01*
X166183139Y-96813961D01*
X166231389Y-96807608D01*
X166327892Y-96794904D01*
X166462781Y-96739031D01*
X166578612Y-96650150D01*
X166667493Y-96534319D01*
X166723366Y-96399430D01*
X166742423Y-96254676D01*
X166740294Y-96238507D01*
X166723366Y-96109923D01*
X166723366Y-96109922D01*
X166667493Y-95975034D01*
X166578612Y-95859202D01*
X166462781Y-95770321D01*
X166462778Y-95770320D01*
X166462776Y-95770318D01*
X166327895Y-95714449D01*
X166327890Y-95714447D01*
X166218134Y-95699998D01*
X167540715Y-95699998D01*
X167540715Y-95700001D01*
X167559771Y-95844752D01*
X167559773Y-95844757D01*
X167615642Y-95979638D01*
X167615645Y-95979644D01*
X167704525Y-96095473D01*
X167704526Y-96095474D01*
X167820355Y-96184354D01*
X167820361Y-96184357D01*
X167887801Y-96212291D01*
X167955246Y-96240228D01*
X168027623Y-96249756D01*
X168099999Y-96259285D01*
X168100000Y-96259285D01*
X168100001Y-96259285D01*
X168148251Y-96252932D01*
X168244754Y-96240228D01*
X168379643Y-96184355D01*
X168495474Y-96095474D01*
X168584355Y-95979643D01*
X168640228Y-95844754D01*
X168659285Y-95700000D01*
X168659285Y-95699998D01*
X174461493Y-95699998D01*
X174461493Y-95700001D01*
X174479841Y-95839374D01*
X174479843Y-95839379D01*
X174533637Y-95969252D01*
X174533639Y-95969255D01*
X174619217Y-96080781D01*
X174619218Y-96080782D01*
X174730744Y-96166360D01*
X174730747Y-96166362D01*
X174774192Y-96184357D01*
X174860624Y-96220158D01*
X174930312Y-96229332D01*
X174999999Y-96238507D01*
X175000000Y-96238507D01*
X175000001Y-96238507D01*
X175046458Y-96232390D01*
X175139376Y-96220158D01*
X175269254Y-96166361D01*
X175380782Y-96080782D01*
X175466361Y-95969254D01*
X175520158Y-95839376D01*
X175538507Y-95700000D01*
X175535785Y-95679327D01*
X175520158Y-95560625D01*
X175520156Y-95560620D01*
X175517930Y-95555247D01*
X175466361Y-95430747D01*
X175442523Y-95399681D01*
X187016725Y-95399681D01*
X187016725Y-95399684D01*
X187035781Y-95544435D01*
X187035783Y-95544440D01*
X187091652Y-95679321D01*
X187091655Y-95679327D01*
X187180535Y-95795156D01*
X187180536Y-95795157D01*
X187296365Y-95884037D01*
X187296371Y-95884040D01*
X187363811Y-95911974D01*
X187431256Y-95939911D01*
X187503633Y-95949439D01*
X187576009Y-95958968D01*
X187576010Y-95958968D01*
X187576011Y-95958968D01*
X187624261Y-95952615D01*
X187720764Y-95939911D01*
X187855653Y-95884038D01*
X187971484Y-95795157D01*
X188060365Y-95679326D01*
X188116238Y-95544437D01*
X188135295Y-95399683D01*
X188116238Y-95254929D01*
X188060365Y-95120041D01*
X188044985Y-95099998D01*
X220240715Y-95099998D01*
X220240715Y-95100001D01*
X220259771Y-95244752D01*
X220259773Y-95244757D01*
X220315642Y-95379638D01*
X220315645Y-95379644D01*
X220404525Y-95495473D01*
X220404526Y-95495474D01*
X220520355Y-95584354D01*
X220520361Y-95584357D01*
X220587801Y-95612291D01*
X220655246Y-95640228D01*
X220727623Y-95649756D01*
X220799999Y-95659285D01*
X220800000Y-95659285D01*
X220800001Y-95659285D01*
X220848251Y-95652932D01*
X220944754Y-95640228D01*
X221079643Y-95584355D01*
X221195474Y-95495474D01*
X221284355Y-95379643D01*
X221340228Y-95244754D01*
X221359285Y-95100000D01*
X221340228Y-94955246D01*
X221284355Y-94820358D01*
X221195474Y-94704526D01*
X221079643Y-94615645D01*
X221079640Y-94615644D01*
X221079638Y-94615642D01*
X220944757Y-94559773D01*
X220944752Y-94559771D01*
X220800001Y-94540715D01*
X220799999Y-94540715D01*
X220655247Y-94559771D01*
X220655245Y-94559772D01*
X220520361Y-94615643D01*
X220520358Y-94615644D01*
X220520358Y-94615645D01*
X220404526Y-94704526D01*
X220346014Y-94780781D01*
X220315643Y-94820361D01*
X220259772Y-94955245D01*
X220259771Y-94955247D01*
X220240715Y-95099998D01*
X188044985Y-95099998D01*
X187971484Y-95004209D01*
X187855653Y-94915328D01*
X187855650Y-94915327D01*
X187855648Y-94915325D01*
X187720767Y-94859456D01*
X187720762Y-94859454D01*
X187576011Y-94840398D01*
X187576009Y-94840398D01*
X187431257Y-94859454D01*
X187431255Y-94859455D01*
X187296371Y-94915326D01*
X187296368Y-94915327D01*
X187296368Y-94915328D01*
X187263918Y-94940228D01*
X187180536Y-95004209D01*
X187091653Y-95120044D01*
X187035782Y-95254928D01*
X187035781Y-95254930D01*
X187016725Y-95399681D01*
X175442523Y-95399681D01*
X175380782Y-95319218D01*
X175380780Y-95319217D01*
X175380780Y-95319216D01*
X175269254Y-95233639D01*
X175269252Y-95233637D01*
X175139379Y-95179843D01*
X175139374Y-95179841D01*
X175000001Y-95161493D01*
X174999999Y-95161493D01*
X174860625Y-95179841D01*
X174860620Y-95179843D01*
X174730751Y-95233636D01*
X174730750Y-95233637D01*
X174730747Y-95233638D01*
X174730747Y-95233639D01*
X174619218Y-95319218D01*
X174541609Y-95420361D01*
X174533637Y-95430750D01*
X174533636Y-95430751D01*
X174479843Y-95560620D01*
X174479841Y-95560625D01*
X174461493Y-95699998D01*
X168659285Y-95699998D01*
X168656563Y-95679327D01*
X168640228Y-95555247D01*
X168640228Y-95555246D01*
X168584355Y-95420358D01*
X168495474Y-95304526D01*
X168379643Y-95215645D01*
X168379640Y-95215644D01*
X168379638Y-95215642D01*
X168244757Y-95159773D01*
X168244752Y-95159771D01*
X168100001Y-95140715D01*
X168099999Y-95140715D01*
X167955247Y-95159771D01*
X167955245Y-95159772D01*
X167820361Y-95215643D01*
X167820358Y-95215644D01*
X167820358Y-95215645D01*
X167704526Y-95304526D01*
X167631510Y-95399683D01*
X167615643Y-95420361D01*
X167559772Y-95555245D01*
X167559771Y-95555247D01*
X167540715Y-95699998D01*
X166218134Y-95699998D01*
X166183139Y-95695391D01*
X166183137Y-95695391D01*
X166038385Y-95714447D01*
X166038383Y-95714448D01*
X165903499Y-95770319D01*
X165903496Y-95770320D01*
X165903496Y-95770321D01*
X165787664Y-95859202D01*
X165703218Y-95969255D01*
X165698781Y-95975037D01*
X165642910Y-96109921D01*
X165642909Y-96109923D01*
X165623853Y-96254674D01*
X159643725Y-96254674D01*
X159519657Y-95979644D01*
X159384207Y-95679384D01*
X159382573Y-95675595D01*
X158935087Y-94588024D01*
X158933610Y-94584256D01*
X158864904Y-94399998D01*
X162561493Y-94399998D01*
X162561493Y-94400001D01*
X162579841Y-94539374D01*
X162579843Y-94539379D01*
X162633637Y-94669252D01*
X162633639Y-94669255D01*
X162719217Y-94780781D01*
X162719218Y-94780782D01*
X162830744Y-94866360D01*
X162830747Y-94866362D01*
X162874192Y-94884357D01*
X162960624Y-94920158D01*
X163030312Y-94929332D01*
X163099999Y-94938507D01*
X163100000Y-94938507D01*
X163100001Y-94938507D01*
X163146458Y-94932390D01*
X163239376Y-94920158D01*
X163369254Y-94866361D01*
X163480782Y-94780782D01*
X163566361Y-94669254D01*
X163620158Y-94539376D01*
X163638507Y-94400000D01*
X163638507Y-94399998D01*
X196240715Y-94399998D01*
X196240715Y-94400001D01*
X196259771Y-94544752D01*
X196259773Y-94544757D01*
X196315642Y-94679638D01*
X196315645Y-94679644D01*
X196404525Y-94795473D01*
X196404526Y-94795474D01*
X196520355Y-94884354D01*
X196520361Y-94884357D01*
X196587801Y-94912291D01*
X196655246Y-94940228D01*
X196727623Y-94949756D01*
X196799999Y-94959285D01*
X196800000Y-94959285D01*
X196800001Y-94959285D01*
X196848251Y-94952932D01*
X196944754Y-94940228D01*
X197079643Y-94884355D01*
X197195474Y-94795474D01*
X197284355Y-94679643D01*
X197340228Y-94544754D01*
X197359285Y-94400000D01*
X197340228Y-94255246D01*
X197284355Y-94120358D01*
X197195474Y-94004526D01*
X197079643Y-93915645D01*
X197079640Y-93915644D01*
X197079638Y-93915642D01*
X196944757Y-93859773D01*
X196944752Y-93859771D01*
X196800001Y-93840715D01*
X196799999Y-93840715D01*
X196655247Y-93859771D01*
X196655245Y-93859772D01*
X196520361Y-93915643D01*
X196520358Y-93915644D01*
X196520358Y-93915645D01*
X196404526Y-94004526D01*
X196338871Y-94090090D01*
X196315643Y-94120361D01*
X196259772Y-94255245D01*
X196259771Y-94255247D01*
X196240715Y-94399998D01*
X163638507Y-94399998D01*
X163620158Y-94260624D01*
X163566361Y-94130747D01*
X163480782Y-94019218D01*
X163480780Y-94019217D01*
X163480780Y-94019216D01*
X163369254Y-93933639D01*
X163369252Y-93933637D01*
X163239379Y-93879843D01*
X163239374Y-93879841D01*
X163100001Y-93861493D01*
X163099999Y-93861493D01*
X162960625Y-93879841D01*
X162960620Y-93879843D01*
X162830751Y-93933636D01*
X162830750Y-93933637D01*
X162830747Y-93933638D01*
X162830747Y-93933639D01*
X162719218Y-94019218D01*
X162641609Y-94120361D01*
X162633637Y-94130750D01*
X162633636Y-94130751D01*
X162579843Y-94260620D01*
X162579841Y-94260625D01*
X162561493Y-94399998D01*
X158864904Y-94399998D01*
X158522730Y-93482343D01*
X158521367Y-93478492D01*
X158147561Y-92363493D01*
X158146317Y-92359566D01*
X158038905Y-91999681D01*
X164116725Y-91999681D01*
X164116725Y-91999684D01*
X164135781Y-92144435D01*
X164135783Y-92144440D01*
X164191652Y-92279321D01*
X164191655Y-92279327D01*
X164280535Y-92395156D01*
X164280536Y-92395157D01*
X164396365Y-92484037D01*
X164396371Y-92484040D01*
X164463811Y-92511974D01*
X164531256Y-92539911D01*
X164603633Y-92549439D01*
X164676009Y-92558968D01*
X164676010Y-92558968D01*
X164676011Y-92558968D01*
X164724261Y-92552615D01*
X164820764Y-92539911D01*
X164955653Y-92484038D01*
X165071484Y-92395157D01*
X165160365Y-92279326D01*
X165216238Y-92144437D01*
X165235295Y-91999683D01*
X165232614Y-91979321D01*
X165222129Y-91899681D01*
X181116725Y-91899681D01*
X181116725Y-91899684D01*
X181135781Y-92044435D01*
X181135783Y-92044440D01*
X181191652Y-92179321D01*
X181191655Y-92179327D01*
X181280535Y-92295156D01*
X181280536Y-92295157D01*
X181396365Y-92384037D01*
X181396371Y-92384040D01*
X181463811Y-92411974D01*
X181531256Y-92439911D01*
X181603633Y-92449439D01*
X181676009Y-92458968D01*
X181676010Y-92458968D01*
X181676011Y-92458968D01*
X181724261Y-92452615D01*
X181820764Y-92439911D01*
X181955653Y-92384038D01*
X182071484Y-92295157D01*
X182144746Y-92199681D01*
X191416725Y-92199681D01*
X191416725Y-92199684D01*
X191435781Y-92344435D01*
X191435783Y-92344440D01*
X191491652Y-92479321D01*
X191491655Y-92479327D01*
X191580535Y-92595156D01*
X191580536Y-92595157D01*
X191696365Y-92684037D01*
X191696371Y-92684040D01*
X191763811Y-92711974D01*
X191831256Y-92739911D01*
X191903633Y-92749439D01*
X191976009Y-92758968D01*
X191976010Y-92758968D01*
X191976011Y-92758968D01*
X192024261Y-92752615D01*
X192120764Y-92739911D01*
X192255653Y-92684038D01*
X192371484Y-92595157D01*
X192460365Y-92479326D01*
X192516238Y-92344437D01*
X192535295Y-92199683D01*
X192533235Y-92184038D01*
X192516238Y-92054930D01*
X192516238Y-92054929D01*
X192460365Y-91920041D01*
X192371484Y-91804209D01*
X192255653Y-91715328D01*
X192255650Y-91715327D01*
X192255648Y-91715325D01*
X192217880Y-91699681D01*
X198916725Y-91699681D01*
X198916725Y-91699684D01*
X198935781Y-91844435D01*
X198935783Y-91844440D01*
X198991652Y-91979321D01*
X198991655Y-91979327D01*
X199080535Y-92095156D01*
X199080536Y-92095157D01*
X199196365Y-92184037D01*
X199196371Y-92184040D01*
X199263811Y-92211974D01*
X199331256Y-92239911D01*
X199403633Y-92249439D01*
X199476009Y-92258968D01*
X199476010Y-92258968D01*
X199476011Y-92258968D01*
X199524261Y-92252615D01*
X199620764Y-92239911D01*
X199755653Y-92184038D01*
X199871484Y-92095157D01*
X199960365Y-91979326D01*
X200016238Y-91844437D01*
X200029999Y-91739909D01*
X200035295Y-91699684D01*
X200035295Y-91699681D01*
X200016238Y-91554930D01*
X200016238Y-91554929D01*
X199960365Y-91420041D01*
X199944742Y-91399681D01*
X209416725Y-91399681D01*
X209416725Y-91399684D01*
X209435781Y-91544435D01*
X209435783Y-91544440D01*
X209491652Y-91679321D01*
X209491655Y-91679327D01*
X209580535Y-91795156D01*
X209580536Y-91795157D01*
X209696365Y-91884037D01*
X209696371Y-91884040D01*
X209755812Y-91908661D01*
X209831256Y-91939911D01*
X209903633Y-91949439D01*
X209976009Y-91958968D01*
X209976010Y-91958968D01*
X209976011Y-91958968D01*
X210024261Y-91952615D01*
X210120764Y-91939911D01*
X210255653Y-91884038D01*
X210371484Y-91795157D01*
X210460365Y-91679326D01*
X210516238Y-91544437D01*
X210529935Y-91440398D01*
X210535295Y-91399684D01*
X210535295Y-91399681D01*
X210522130Y-91299681D01*
X218316725Y-91299681D01*
X218316725Y-91299684D01*
X218335781Y-91444435D01*
X218335783Y-91444440D01*
X218391652Y-91579321D01*
X218391655Y-91579327D01*
X218480535Y-91695156D01*
X218480536Y-91695157D01*
X218596365Y-91784037D01*
X218596371Y-91784040D01*
X218645059Y-91804207D01*
X218731256Y-91839911D01*
X218765620Y-91844435D01*
X218876009Y-91858968D01*
X218876010Y-91858968D01*
X218876011Y-91858968D01*
X218924261Y-91852615D01*
X219020764Y-91839911D01*
X219155653Y-91784038D01*
X219271484Y-91695157D01*
X219360365Y-91579326D01*
X219416238Y-91444437D01*
X219434699Y-91304209D01*
X219435295Y-91299684D01*
X219435295Y-91299681D01*
X219416238Y-91154930D01*
X219416238Y-91154929D01*
X219360365Y-91020041D01*
X219271484Y-90904209D01*
X219155653Y-90815328D01*
X219155650Y-90815327D01*
X219155648Y-90815325D01*
X219020767Y-90759456D01*
X219020762Y-90759454D01*
X218876011Y-90740398D01*
X218876009Y-90740398D01*
X218731257Y-90759454D01*
X218731255Y-90759455D01*
X218596371Y-90815326D01*
X218596368Y-90815327D01*
X218596368Y-90815328D01*
X218480536Y-90904209D01*
X218403804Y-91004209D01*
X218391653Y-91020044D01*
X218335782Y-91154928D01*
X218335781Y-91154930D01*
X218316725Y-91299681D01*
X210522130Y-91299681D01*
X210516238Y-91254930D01*
X210516238Y-91254929D01*
X210460365Y-91120041D01*
X210371484Y-91004209D01*
X210255653Y-90915328D01*
X210255650Y-90915327D01*
X210255648Y-90915325D01*
X210120767Y-90859456D01*
X210120762Y-90859454D01*
X209976011Y-90840398D01*
X209976009Y-90840398D01*
X209831257Y-90859454D01*
X209831255Y-90859455D01*
X209696371Y-90915326D01*
X209696368Y-90915327D01*
X209696368Y-90915328D01*
X209580536Y-91004209D01*
X209541617Y-91054930D01*
X209491653Y-91120044D01*
X209435782Y-91254928D01*
X209435781Y-91254930D01*
X209416725Y-91399681D01*
X199944742Y-91399681D01*
X199871484Y-91304209D01*
X199755653Y-91215328D01*
X199755650Y-91215327D01*
X199755648Y-91215325D01*
X199620767Y-91159456D01*
X199620762Y-91159454D01*
X199476011Y-91140398D01*
X199476009Y-91140398D01*
X199331257Y-91159454D01*
X199331255Y-91159455D01*
X199196371Y-91215326D01*
X199196368Y-91215327D01*
X199196368Y-91215328D01*
X199080536Y-91304209D01*
X198995272Y-91415328D01*
X198991653Y-91420044D01*
X198935782Y-91554928D01*
X198935781Y-91554930D01*
X198916725Y-91699681D01*
X192217880Y-91699681D01*
X192120767Y-91659456D01*
X192120762Y-91659454D01*
X191976011Y-91640398D01*
X191976009Y-91640398D01*
X191831257Y-91659454D01*
X191831255Y-91659455D01*
X191696371Y-91715326D01*
X191696368Y-91715327D01*
X191696368Y-91715328D01*
X191580536Y-91804209D01*
X191507276Y-91899684D01*
X191491653Y-91920044D01*
X191435782Y-92054928D01*
X191435781Y-92054930D01*
X191416725Y-92199681D01*
X182144746Y-92199681D01*
X182160365Y-92179326D01*
X182216238Y-92044437D01*
X182231276Y-91930213D01*
X182235295Y-91899684D01*
X182235295Y-91899681D01*
X182216238Y-91754930D01*
X182216238Y-91754929D01*
X182160365Y-91620041D01*
X182071484Y-91504209D01*
X181955653Y-91415328D01*
X181955650Y-91415327D01*
X181955648Y-91415325D01*
X181820767Y-91359456D01*
X181820762Y-91359454D01*
X181676011Y-91340398D01*
X181676009Y-91340398D01*
X181531257Y-91359454D01*
X181531255Y-91359455D01*
X181396371Y-91415326D01*
X181396368Y-91415327D01*
X181396368Y-91415328D01*
X181280536Y-91504209D01*
X181203804Y-91604209D01*
X181191653Y-91620044D01*
X181135782Y-91754928D01*
X181135781Y-91754930D01*
X181116725Y-91899681D01*
X165222129Y-91899681D01*
X165216238Y-91854930D01*
X165216238Y-91854929D01*
X165160365Y-91720041D01*
X165071484Y-91604209D01*
X164955653Y-91515328D01*
X164955650Y-91515327D01*
X164955648Y-91515325D01*
X164820767Y-91459456D01*
X164820762Y-91459454D01*
X164676011Y-91440398D01*
X164676009Y-91440398D01*
X164531257Y-91459454D01*
X164531255Y-91459455D01*
X164396371Y-91515326D01*
X164396368Y-91515327D01*
X164396368Y-91515328D01*
X164280536Y-91604209D01*
X164195272Y-91715328D01*
X164191653Y-91720044D01*
X164135782Y-91854928D01*
X164135781Y-91854930D01*
X164116725Y-91999681D01*
X158038905Y-91999681D01*
X157822615Y-91274998D01*
X161461493Y-91274998D01*
X161461493Y-91275001D01*
X161479841Y-91414374D01*
X161479843Y-91414379D01*
X161533637Y-91544252D01*
X161533639Y-91544255D01*
X161619217Y-91655781D01*
X161619218Y-91655782D01*
X161730744Y-91741360D01*
X161730747Y-91741362D01*
X161773253Y-91758968D01*
X161860624Y-91795158D01*
X161929359Y-91804207D01*
X161999999Y-91813507D01*
X162000000Y-91813507D01*
X162000001Y-91813507D01*
X162070641Y-91804207D01*
X162139376Y-91795158D01*
X162269254Y-91741361D01*
X162380782Y-91655782D01*
X162466361Y-91544254D01*
X162468030Y-91540226D01*
X162491172Y-91484354D01*
X162520158Y-91414376D01*
X162535257Y-91299684D01*
X162538507Y-91275001D01*
X162538507Y-91274998D01*
X162526274Y-91182082D01*
X162520158Y-91135624D01*
X162480512Y-91039911D01*
X162466363Y-91005751D01*
X162466362Y-91005750D01*
X162466361Y-91005747D01*
X162461950Y-90999998D01*
X168440715Y-90999998D01*
X168440715Y-91000001D01*
X168459771Y-91144752D01*
X168459773Y-91144757D01*
X168515642Y-91279638D01*
X168515645Y-91279644D01*
X168604525Y-91395473D01*
X168604526Y-91395474D01*
X168720355Y-91484354D01*
X168720361Y-91484357D01*
X168787801Y-91512291D01*
X168855246Y-91540228D01*
X168887202Y-91544435D01*
X168999999Y-91559285D01*
X169000000Y-91559285D01*
X169000001Y-91559285D01*
X169048251Y-91552932D01*
X169144754Y-91540228D01*
X169279643Y-91484355D01*
X169395474Y-91395474D01*
X169484355Y-91279643D01*
X169517476Y-91199681D01*
X171916725Y-91199681D01*
X171916725Y-91199684D01*
X171935781Y-91344435D01*
X171935783Y-91344440D01*
X171991652Y-91479321D01*
X171991655Y-91479327D01*
X172080535Y-91595156D01*
X172080536Y-91595157D01*
X172196365Y-91684037D01*
X172196371Y-91684040D01*
X172263811Y-91711974D01*
X172331256Y-91739911D01*
X172342278Y-91741362D01*
X172476009Y-91758968D01*
X172476010Y-91758968D01*
X172476011Y-91758968D01*
X172524261Y-91752615D01*
X172620764Y-91739911D01*
X172755653Y-91684038D01*
X172871484Y-91595157D01*
X172960365Y-91479326D01*
X173016238Y-91344437D01*
X173035295Y-91199683D01*
X173033277Y-91184357D01*
X173016238Y-91054930D01*
X173016238Y-91054929D01*
X172960365Y-90920041D01*
X172871484Y-90804209D01*
X172755653Y-90715328D01*
X172755650Y-90715327D01*
X172755648Y-90715325D01*
X172620767Y-90659456D01*
X172620762Y-90659454D01*
X172476011Y-90640398D01*
X172476009Y-90640398D01*
X172331257Y-90659454D01*
X172331255Y-90659455D01*
X172196371Y-90715326D01*
X172196368Y-90715327D01*
X172196368Y-90715328D01*
X172080536Y-90804209D01*
X171995272Y-90915328D01*
X171991653Y-90920044D01*
X171935782Y-91054928D01*
X171935781Y-91054930D01*
X171916725Y-91199681D01*
X169517476Y-91199681D01*
X169540228Y-91144754D01*
X169558528Y-91005750D01*
X169559285Y-91000001D01*
X169559285Y-90999998D01*
X169540228Y-90855247D01*
X169540228Y-90855246D01*
X169484355Y-90720358D01*
X169395474Y-90604526D01*
X169279643Y-90515645D01*
X169279640Y-90515644D01*
X169279638Y-90515642D01*
X169241104Y-90499681D01*
X175216725Y-90499681D01*
X175216725Y-90499684D01*
X175235781Y-90644435D01*
X175235783Y-90644440D01*
X175291652Y-90779321D01*
X175291655Y-90779327D01*
X175380535Y-90895156D01*
X175380536Y-90895157D01*
X175496365Y-90984037D01*
X175496371Y-90984040D01*
X175563811Y-91011974D01*
X175631256Y-91039911D01*
X175703633Y-91049439D01*
X175776009Y-91058968D01*
X175776010Y-91058968D01*
X175776011Y-91058968D01*
X175824261Y-91052615D01*
X175920764Y-91039911D01*
X176055653Y-90984038D01*
X176171484Y-90895157D01*
X176260365Y-90779326D01*
X176316238Y-90644437D01*
X176335295Y-90499683D01*
X176333277Y-90484357D01*
X176322130Y-90399681D01*
X182216725Y-90399681D01*
X182216725Y-90399684D01*
X182235781Y-90544435D01*
X182235783Y-90544440D01*
X182291652Y-90679321D01*
X182291655Y-90679327D01*
X182380535Y-90795156D01*
X182380536Y-90795157D01*
X182496365Y-90884037D01*
X182496371Y-90884040D01*
X182545059Y-90904207D01*
X182631256Y-90939911D01*
X182703633Y-90949439D01*
X182776009Y-90958968D01*
X182776010Y-90958968D01*
X182776011Y-90958968D01*
X182824261Y-90952615D01*
X182920764Y-90939911D01*
X183055653Y-90884038D01*
X183171484Y-90795157D01*
X183260365Y-90679326D01*
X183316238Y-90544437D01*
X183322088Y-90499998D01*
X192140715Y-90499998D01*
X192140715Y-90500001D01*
X192159771Y-90644752D01*
X192159773Y-90644757D01*
X192215642Y-90779638D01*
X192215645Y-90779644D01*
X192304525Y-90895473D01*
X192304526Y-90895474D01*
X192420355Y-90984354D01*
X192420361Y-90984357D01*
X192472002Y-91005747D01*
X192555246Y-91040228D01*
X192627623Y-91049756D01*
X192699999Y-91059285D01*
X192700000Y-91059285D01*
X192700001Y-91059285D01*
X192748251Y-91052932D01*
X192844754Y-91040228D01*
X192979643Y-90984355D01*
X193095474Y-90895474D01*
X193184355Y-90779643D01*
X193217345Y-90699998D01*
X220240715Y-90699998D01*
X220240715Y-90700001D01*
X220259771Y-90844752D01*
X220259773Y-90844757D01*
X220315642Y-90979638D01*
X220315645Y-90979644D01*
X220404525Y-91095473D01*
X220404526Y-91095474D01*
X220520355Y-91184354D01*
X220520361Y-91184357D01*
X220557357Y-91199681D01*
X220655246Y-91240228D01*
X220727623Y-91249756D01*
X220799999Y-91259285D01*
X220800000Y-91259285D01*
X220800001Y-91259285D01*
X220848251Y-91252932D01*
X220944754Y-91240228D01*
X221079643Y-91184355D01*
X221195474Y-91095474D01*
X221284355Y-90979643D01*
X221340228Y-90844754D01*
X221354481Y-90736493D01*
X221359285Y-90700001D01*
X221359285Y-90699998D01*
X221340228Y-90555247D01*
X221340228Y-90555246D01*
X221284355Y-90420358D01*
X221195474Y-90304526D01*
X221079643Y-90215645D01*
X221079640Y-90215644D01*
X221079638Y-90215642D01*
X220944757Y-90159773D01*
X220944752Y-90159771D01*
X220800001Y-90140715D01*
X220799999Y-90140715D01*
X220655247Y-90159771D01*
X220655245Y-90159772D01*
X220520361Y-90215643D01*
X220520358Y-90215644D01*
X220520358Y-90215645D01*
X220404526Y-90304526D01*
X220331510Y-90399683D01*
X220315643Y-90420361D01*
X220259772Y-90555245D01*
X220259771Y-90555247D01*
X220240715Y-90699998D01*
X193217345Y-90699998D01*
X193240228Y-90644754D01*
X193259285Y-90500000D01*
X193259243Y-90499684D01*
X193240228Y-90355247D01*
X193240228Y-90355246D01*
X193184355Y-90220358D01*
X193095474Y-90104526D01*
X192979643Y-90015645D01*
X192979640Y-90015644D01*
X192979638Y-90015642D01*
X192941104Y-89999681D01*
X193516725Y-89999681D01*
X193516725Y-89999684D01*
X193535781Y-90144435D01*
X193535783Y-90144440D01*
X193591652Y-90279321D01*
X193591655Y-90279327D01*
X193680535Y-90395156D01*
X193680536Y-90395157D01*
X193796365Y-90484037D01*
X193796371Y-90484040D01*
X193834905Y-90500001D01*
X193931256Y-90539911D01*
X193965620Y-90544435D01*
X194076009Y-90558968D01*
X194076010Y-90558968D01*
X194076011Y-90558968D01*
X194124261Y-90552615D01*
X194220764Y-90539911D01*
X194355653Y-90484038D01*
X194471484Y-90395157D01*
X194560365Y-90279326D01*
X194616238Y-90144437D01*
X194634699Y-90004209D01*
X194635254Y-89999998D01*
X217440715Y-89999998D01*
X217440715Y-90000001D01*
X217459771Y-90144752D01*
X217459773Y-90144757D01*
X217515642Y-90279638D01*
X217515645Y-90279644D01*
X217604525Y-90395473D01*
X217604526Y-90395474D01*
X217720355Y-90484354D01*
X217720361Y-90484357D01*
X217787801Y-90512291D01*
X217855246Y-90540228D01*
X217887202Y-90544435D01*
X217999999Y-90559285D01*
X218000000Y-90559285D01*
X218000001Y-90559285D01*
X218048251Y-90552932D01*
X218144754Y-90540228D01*
X218279643Y-90484355D01*
X218395474Y-90395474D01*
X218484355Y-90279643D01*
X218540228Y-90144754D01*
X218557267Y-90015326D01*
X218559285Y-90000001D01*
X218559285Y-89999998D01*
X218540228Y-89855247D01*
X218540228Y-89855246D01*
X218484355Y-89720358D01*
X218395474Y-89604526D01*
X218279643Y-89515645D01*
X218279640Y-89515644D01*
X218279638Y-89515642D01*
X218144757Y-89459773D01*
X218144752Y-89459771D01*
X218000001Y-89440715D01*
X217999999Y-89440715D01*
X217855247Y-89459771D01*
X217855245Y-89459772D01*
X217720361Y-89515643D01*
X217720358Y-89515644D01*
X217720358Y-89515645D01*
X217604526Y-89604526D01*
X217515889Y-89720041D01*
X217515643Y-89720361D01*
X217459772Y-89855245D01*
X217459771Y-89855247D01*
X217440715Y-89999998D01*
X194635254Y-89999998D01*
X194635295Y-89999684D01*
X194635295Y-89999681D01*
X194616834Y-89859454D01*
X194616238Y-89854929D01*
X194560365Y-89720041D01*
X194471484Y-89604209D01*
X194355653Y-89515328D01*
X194355650Y-89515327D01*
X194355648Y-89515325D01*
X194220767Y-89459456D01*
X194220762Y-89459454D01*
X194076011Y-89440398D01*
X194076009Y-89440398D01*
X193931257Y-89459454D01*
X193931255Y-89459455D01*
X193796371Y-89515326D01*
X193796368Y-89515327D01*
X193796368Y-89515328D01*
X193680536Y-89604209D01*
X193620501Y-89682449D01*
X193591653Y-89720044D01*
X193535782Y-89854928D01*
X193535781Y-89854930D01*
X193516725Y-89999681D01*
X192941104Y-89999681D01*
X192844757Y-89959773D01*
X192844752Y-89959771D01*
X192700001Y-89940715D01*
X192699999Y-89940715D01*
X192555247Y-89959771D01*
X192555245Y-89959772D01*
X192420361Y-90015643D01*
X192420358Y-90015644D01*
X192420358Y-90015645D01*
X192304526Y-90104526D01*
X192215889Y-90220041D01*
X192215643Y-90220361D01*
X192159772Y-90355245D01*
X192159771Y-90355247D01*
X192140715Y-90499998D01*
X183322088Y-90499998D01*
X183335295Y-90399683D01*
X183316238Y-90254929D01*
X183260365Y-90120041D01*
X183171484Y-90004209D01*
X183055653Y-89915328D01*
X183055650Y-89915327D01*
X183055648Y-89915325D01*
X182920767Y-89859456D01*
X182920762Y-89859454D01*
X182776011Y-89840398D01*
X182776009Y-89840398D01*
X182631257Y-89859454D01*
X182631255Y-89859455D01*
X182496371Y-89915326D01*
X182496368Y-89915327D01*
X182496368Y-89915328D01*
X182380536Y-90004209D01*
X182303804Y-90104209D01*
X182291653Y-90120044D01*
X182235782Y-90254928D01*
X182235781Y-90254930D01*
X182216725Y-90399681D01*
X176322130Y-90399681D01*
X176316280Y-90355246D01*
X176316238Y-90354929D01*
X176260365Y-90220041D01*
X176171484Y-90104209D01*
X176055653Y-90015328D01*
X176055650Y-90015327D01*
X176055648Y-90015325D01*
X175920767Y-89959456D01*
X175920762Y-89959454D01*
X175776011Y-89940398D01*
X175776009Y-89940398D01*
X175631257Y-89959454D01*
X175631255Y-89959455D01*
X175496371Y-90015326D01*
X175496368Y-90015327D01*
X175496368Y-90015328D01*
X175380536Y-90104209D01*
X175295031Y-90215642D01*
X175291653Y-90220044D01*
X175235782Y-90354928D01*
X175235781Y-90354930D01*
X175216725Y-90499681D01*
X169241104Y-90499681D01*
X169144757Y-90459773D01*
X169144752Y-90459771D01*
X169000001Y-90440715D01*
X168999999Y-90440715D01*
X168855247Y-90459771D01*
X168855245Y-90459772D01*
X168720361Y-90515643D01*
X168720358Y-90515644D01*
X168720358Y-90515645D01*
X168604526Y-90604526D01*
X168531266Y-90700001D01*
X168515643Y-90720361D01*
X168459772Y-90855245D01*
X168459771Y-90855247D01*
X168440715Y-90999998D01*
X162461950Y-90999998D01*
X162380782Y-90894218D01*
X162380780Y-90894217D01*
X162380780Y-90894216D01*
X162269254Y-90808639D01*
X162269252Y-90808637D01*
X162139379Y-90754843D01*
X162139374Y-90754841D01*
X162000001Y-90736493D01*
X161999999Y-90736493D01*
X161860625Y-90754841D01*
X161860620Y-90754843D01*
X161730751Y-90808636D01*
X161730750Y-90808637D01*
X161730747Y-90808638D01*
X161730747Y-90808639D01*
X161619218Y-90894218D01*
X161538051Y-90999998D01*
X161533637Y-91005750D01*
X161533636Y-91005751D01*
X161479843Y-91135620D01*
X161479841Y-91135625D01*
X161461493Y-91274998D01*
X157822615Y-91274998D01*
X157809986Y-91232685D01*
X157808896Y-91228798D01*
X157510408Y-90091253D01*
X157509446Y-90087322D01*
X157249157Y-88940472D01*
X157248308Y-88936415D01*
X157183635Y-88599681D01*
X162216725Y-88599681D01*
X162216725Y-88599684D01*
X162235781Y-88744435D01*
X162235783Y-88744440D01*
X162291652Y-88879321D01*
X162291655Y-88879327D01*
X162380535Y-88995156D01*
X162380536Y-88995157D01*
X162496365Y-89084037D01*
X162496371Y-89084040D01*
X162526962Y-89096711D01*
X162631256Y-89139911D01*
X162703633Y-89149439D01*
X162776009Y-89158968D01*
X162776010Y-89158968D01*
X162776011Y-89158968D01*
X162824261Y-89152615D01*
X162920764Y-89139911D01*
X163055653Y-89084038D01*
X163171484Y-88995157D01*
X163260365Y-88879326D01*
X163316238Y-88744437D01*
X163335295Y-88599683D01*
X163329004Y-88551901D01*
X163316238Y-88454930D01*
X163316238Y-88454929D01*
X163260365Y-88320041D01*
X163171484Y-88204209D01*
X163055653Y-88115328D01*
X163055650Y-88115327D01*
X163055648Y-88115325D01*
X162920767Y-88059456D01*
X162920762Y-88059454D01*
X162776011Y-88040398D01*
X162776009Y-88040398D01*
X162631257Y-88059454D01*
X162631255Y-88059455D01*
X162496371Y-88115326D01*
X162496368Y-88115327D01*
X162496368Y-88115328D01*
X162380536Y-88204209D01*
X162322654Y-88279643D01*
X162291653Y-88320044D01*
X162235782Y-88454928D01*
X162235781Y-88454930D01*
X162216725Y-88599681D01*
X157183635Y-88599681D01*
X157068461Y-87999998D01*
X160840715Y-87999998D01*
X160840715Y-88000001D01*
X160859771Y-88144752D01*
X160859773Y-88144757D01*
X160915642Y-88279638D01*
X160915645Y-88279644D01*
X161004525Y-88395473D01*
X161004526Y-88395474D01*
X161120355Y-88484354D01*
X161120361Y-88484357D01*
X161187801Y-88512291D01*
X161255246Y-88540228D01*
X161327623Y-88549756D01*
X161399999Y-88559285D01*
X161400000Y-88559285D01*
X161400001Y-88559285D01*
X161456088Y-88551901D01*
X161544754Y-88540228D01*
X161679643Y-88484355D01*
X161795474Y-88395474D01*
X161884355Y-88279643D01*
X161940228Y-88144754D01*
X161959285Y-88000000D01*
X161942265Y-87870722D01*
X166040929Y-87870722D01*
X166040929Y-87870725D01*
X166059985Y-88015476D01*
X166059987Y-88015481D01*
X166115856Y-88150362D01*
X166115859Y-88150368D01*
X166204739Y-88266197D01*
X166204740Y-88266198D01*
X166320569Y-88355078D01*
X166320575Y-88355081D01*
X166388015Y-88383015D01*
X166455460Y-88410952D01*
X166513538Y-88418598D01*
X166600213Y-88430009D01*
X166600214Y-88430009D01*
X166600215Y-88430009D01*
X166659089Y-88422258D01*
X166744968Y-88410952D01*
X166775141Y-88398453D01*
X166844609Y-88390984D01*
X166907089Y-88422258D01*
X166938021Y-88467711D01*
X167014817Y-88663384D01*
X167146299Y-88891117D01*
X167310254Y-89096710D01*
X167503020Y-89275570D01*
X167720290Y-89423702D01*
X167957212Y-89537798D01*
X168208492Y-89615308D01*
X168208493Y-89615308D01*
X168208496Y-89615309D01*
X168468510Y-89654499D01*
X168468515Y-89654499D01*
X168468518Y-89654500D01*
X168468519Y-89654500D01*
X168731481Y-89654500D01*
X168731482Y-89654500D01*
X168731489Y-89654499D01*
X168991503Y-89615309D01*
X168991504Y-89615308D01*
X168991508Y-89615308D01*
X169242788Y-89537798D01*
X169479710Y-89423702D01*
X169696980Y-89275570D01*
X169889746Y-89096710D01*
X170053701Y-88891117D01*
X170185183Y-88663384D01*
X170281254Y-88418598D01*
X170339769Y-88162228D01*
X170340487Y-88152644D01*
X170359420Y-87900004D01*
X170359420Y-87899995D01*
X170339770Y-87637781D01*
X170339769Y-87637776D01*
X170339769Y-87637772D01*
X170326216Y-87578394D01*
X176425510Y-87578394D01*
X176425510Y-87820971D01*
X176457171Y-88061468D01*
X176519957Y-88295787D01*
X176612783Y-88519888D01*
X176612787Y-88519897D01*
X176621828Y-88535557D01*
X176734074Y-88729972D01*
X176734076Y-88729975D01*
X176734077Y-88729976D01*
X176881743Y-88922419D01*
X176881749Y-88922426D01*
X177053266Y-89093943D01*
X177053273Y-89093949D01*
X177056873Y-89096711D01*
X177245721Y-89241619D01*
X177455798Y-89362907D01*
X177679910Y-89455737D01*
X177914221Y-89518521D01*
X178060647Y-89537798D01*
X178154721Y-89550183D01*
X178154722Y-89550183D01*
X178397299Y-89550183D01*
X178445398Y-89543850D01*
X178637799Y-89518521D01*
X178872110Y-89455737D01*
X179096222Y-89362907D01*
X179306299Y-89241619D01*
X179498748Y-89093948D01*
X179670275Y-88922421D01*
X179817946Y-88729972D01*
X179939234Y-88519895D01*
X180032064Y-88295783D01*
X180094848Y-88061472D01*
X180126510Y-87820971D01*
X180126510Y-87578395D01*
X180094848Y-87337894D01*
X180084694Y-87299998D01*
X188740715Y-87299998D01*
X188740715Y-87300001D01*
X188759771Y-87444752D01*
X188759773Y-87444757D01*
X188815642Y-87579638D01*
X188815645Y-87579644D01*
X188904525Y-87695473D01*
X188904526Y-87695474D01*
X188921020Y-87708130D01*
X188962223Y-87764558D01*
X188966378Y-87834304D01*
X188943910Y-87881992D01*
X188871564Y-87976276D01*
X188871562Y-87976279D01*
X188815691Y-88111164D01*
X188815690Y-88111166D01*
X188796634Y-88255917D01*
X188796634Y-88255920D01*
X188815690Y-88400671D01*
X188815692Y-88400676D01*
X188871561Y-88535557D01*
X188871564Y-88535563D01*
X188960444Y-88651392D01*
X188960445Y-88651393D01*
X189076274Y-88740273D01*
X189076280Y-88740276D01*
X189143720Y-88768210D01*
X189211165Y-88796147D01*
X189283542Y-88805675D01*
X189355918Y-88815204D01*
X189355919Y-88815204D01*
X189355920Y-88815204D01*
X189404170Y-88808851D01*
X189500673Y-88796147D01*
X189635562Y-88740274D01*
X189751393Y-88651393D01*
X189840274Y-88535562D01*
X189855005Y-88499998D01*
X195240715Y-88499998D01*
X195240715Y-88500001D01*
X195259771Y-88644752D01*
X195259773Y-88644757D01*
X195315642Y-88779638D01*
X195315645Y-88779644D01*
X195404525Y-88895473D01*
X195404526Y-88895474D01*
X195520355Y-88984354D01*
X195520361Y-88984357D01*
X195546435Y-88995157D01*
X195655246Y-89040228D01*
X195727623Y-89049756D01*
X195799999Y-89059285D01*
X195800000Y-89059285D01*
X195800001Y-89059285D01*
X195848251Y-89052932D01*
X195944754Y-89040228D01*
X196079643Y-88984355D01*
X196195474Y-88895474D01*
X196284355Y-88779643D01*
X196340228Y-88644754D01*
X196355215Y-88530914D01*
X196383480Y-88467020D01*
X196441804Y-88428548D01*
X196461962Y-88424163D01*
X196545026Y-88413228D01*
X196679915Y-88357355D01*
X196795746Y-88268474D01*
X196884627Y-88152643D01*
X196940500Y-88017754D01*
X196959557Y-87873000D01*
X196959257Y-87870725D01*
X196946203Y-87771564D01*
X196940500Y-87728246D01*
X196884627Y-87593358D01*
X196795746Y-87477526D01*
X196679915Y-87388645D01*
X196679912Y-87388644D01*
X196679910Y-87388642D01*
X196545029Y-87332773D01*
X196545024Y-87332771D01*
X196400273Y-87313715D01*
X196400271Y-87313715D01*
X196255519Y-87332771D01*
X196255517Y-87332772D01*
X196120633Y-87388643D01*
X196120630Y-87388644D01*
X196120630Y-87388645D01*
X196004798Y-87477526D01*
X195917664Y-87591082D01*
X195915915Y-87593361D01*
X195860044Y-87728245D01*
X195860043Y-87728247D01*
X195845057Y-87842083D01*
X195816790Y-87905980D01*
X195758466Y-87944451D01*
X195738304Y-87948837D01*
X195655246Y-87959772D01*
X195655245Y-87959772D01*
X195520361Y-88015643D01*
X195520358Y-88015644D01*
X195520358Y-88015645D01*
X195404526Y-88104526D01*
X195319262Y-88215645D01*
X195315643Y-88220361D01*
X195259772Y-88355245D01*
X195259771Y-88355247D01*
X195240715Y-88499998D01*
X189855005Y-88499998D01*
X189896147Y-88400673D01*
X189915204Y-88255919D01*
X189910522Y-88220358D01*
X189896147Y-88111166D01*
X189896147Y-88111165D01*
X189840274Y-87976277D01*
X189751393Y-87860445D01*
X189751391Y-87860443D01*
X189751390Y-87860442D01*
X189740885Y-87852382D01*
X189734898Y-87847788D01*
X189700001Y-87799998D01*
X193740715Y-87799998D01*
X193740715Y-87800001D01*
X193759771Y-87944752D01*
X193759773Y-87944757D01*
X193815642Y-88079638D01*
X193815645Y-88079644D01*
X193904525Y-88195473D01*
X193904526Y-88195474D01*
X194020355Y-88284354D01*
X194020361Y-88284357D01*
X194069049Y-88304524D01*
X194155246Y-88340228D01*
X194227623Y-88349756D01*
X194299999Y-88359285D01*
X194300000Y-88359285D01*
X194300001Y-88359285D01*
X194348251Y-88352932D01*
X194444754Y-88340228D01*
X194579643Y-88284355D01*
X194695474Y-88195474D01*
X194784355Y-88079643D01*
X194840228Y-87944754D01*
X194859285Y-87800000D01*
X194858615Y-87794913D01*
X194840228Y-87655247D01*
X194840228Y-87655246D01*
X194784355Y-87520358D01*
X194695474Y-87404526D01*
X194579643Y-87315645D01*
X194579640Y-87315644D01*
X194579638Y-87315642D01*
X194444757Y-87259773D01*
X194444752Y-87259771D01*
X194300001Y-87240715D01*
X194299999Y-87240715D01*
X194155247Y-87259771D01*
X194155245Y-87259772D01*
X194020361Y-87315643D01*
X194020358Y-87315644D01*
X194020358Y-87315645D01*
X193904526Y-87404526D01*
X193819262Y-87515645D01*
X193815643Y-87520361D01*
X193759772Y-87655245D01*
X193759771Y-87655247D01*
X193740715Y-87799998D01*
X189700001Y-87799998D01*
X189693695Y-87791362D01*
X189689540Y-87721616D01*
X189712009Y-87673925D01*
X189726342Y-87655247D01*
X189784355Y-87579643D01*
X189840228Y-87444754D01*
X189857226Y-87315642D01*
X189859285Y-87300001D01*
X189859285Y-87299998D01*
X189840228Y-87155247D01*
X189840228Y-87155246D01*
X189817343Y-87099998D01*
X192540715Y-87099998D01*
X192540715Y-87100001D01*
X192559771Y-87244752D01*
X192559773Y-87244757D01*
X192615642Y-87379638D01*
X192615645Y-87379644D01*
X192704525Y-87495473D01*
X192704526Y-87495474D01*
X192820355Y-87584354D01*
X192820361Y-87584357D01*
X192869049Y-87604524D01*
X192955246Y-87640228D01*
X193027623Y-87649756D01*
X193099999Y-87659285D01*
X193100000Y-87659285D01*
X193100001Y-87659285D01*
X193148251Y-87652932D01*
X193244754Y-87640228D01*
X193379643Y-87584355D01*
X193495474Y-87495474D01*
X193584355Y-87379643D01*
X193640228Y-87244754D01*
X193653209Y-87146150D01*
X193659285Y-87100001D01*
X193659285Y-87099998D01*
X193640228Y-86955247D01*
X193640228Y-86955246D01*
X193584355Y-86820358D01*
X193495474Y-86704526D01*
X193379643Y-86615645D01*
X193379640Y-86615644D01*
X193379638Y-86615642D01*
X193310159Y-86586863D01*
X196855772Y-86586863D01*
X196855772Y-86586866D01*
X196874828Y-86731617D01*
X196874830Y-86731622D01*
X196930699Y-86866503D01*
X196930702Y-86866509D01*
X197019582Y-86982338D01*
X197019583Y-86982339D01*
X197135412Y-87071219D01*
X197135418Y-87071222D01*
X197202858Y-87099156D01*
X197270303Y-87127093D01*
X197342615Y-87136613D01*
X197415056Y-87146150D01*
X197415057Y-87146150D01*
X197415058Y-87146150D01*
X197463308Y-87139797D01*
X197559811Y-87127093D01*
X197694700Y-87071220D01*
X197810531Y-86982339D01*
X197873714Y-86899998D01*
X199640715Y-86899998D01*
X199640715Y-86900001D01*
X199659771Y-87044752D01*
X199659773Y-87044757D01*
X199715642Y-87179638D01*
X199715645Y-87179644D01*
X199804525Y-87295473D01*
X199804526Y-87295474D01*
X199920355Y-87384354D01*
X199920361Y-87384357D01*
X199952521Y-87397678D01*
X200055246Y-87440228D01*
X200089610Y-87444752D01*
X200199999Y-87459285D01*
X200200000Y-87459285D01*
X200200001Y-87459285D01*
X200248251Y-87452932D01*
X200344754Y-87440228D01*
X200447479Y-87397677D01*
X200516946Y-87390209D01*
X200579426Y-87421484D01*
X200609492Y-87464788D01*
X200615644Y-87479642D01*
X200615645Y-87479644D01*
X200704525Y-87595473D01*
X200704526Y-87595474D01*
X200820355Y-87684354D01*
X200820361Y-87684357D01*
X200877755Y-87708130D01*
X200955246Y-87740228D01*
X201027623Y-87749756D01*
X201099999Y-87759285D01*
X201100000Y-87759285D01*
X201100001Y-87759285D01*
X201148251Y-87752932D01*
X201244754Y-87740228D01*
X201379643Y-87684355D01*
X201495474Y-87595474D01*
X201508580Y-87578394D01*
X203425510Y-87578394D01*
X203425510Y-87820971D01*
X203457171Y-88061468D01*
X203519957Y-88295787D01*
X203612783Y-88519888D01*
X203612787Y-88519897D01*
X203621828Y-88535557D01*
X203734074Y-88729972D01*
X203734076Y-88729975D01*
X203734077Y-88729976D01*
X203881743Y-88922419D01*
X203881749Y-88922426D01*
X204053266Y-89093943D01*
X204053273Y-89093949D01*
X204056873Y-89096711D01*
X204245721Y-89241619D01*
X204455798Y-89362907D01*
X204679910Y-89455737D01*
X204914221Y-89518521D01*
X205060647Y-89537798D01*
X205154721Y-89550183D01*
X205154722Y-89550183D01*
X205397299Y-89550183D01*
X205445398Y-89543850D01*
X205637799Y-89518521D01*
X205872110Y-89455737D01*
X206096222Y-89362907D01*
X206306299Y-89241619D01*
X206498748Y-89093948D01*
X206670275Y-88922421D01*
X206817946Y-88729972D01*
X206939234Y-88519895D01*
X206947476Y-88499998D01*
X215540715Y-88499998D01*
X215540715Y-88500001D01*
X215559771Y-88644752D01*
X215559773Y-88644757D01*
X215615642Y-88779638D01*
X215615645Y-88779644D01*
X215704525Y-88895473D01*
X215704526Y-88895474D01*
X215820355Y-88984354D01*
X215820361Y-88984357D01*
X215846435Y-88995157D01*
X215955246Y-89040228D01*
X216027623Y-89049756D01*
X216099999Y-89059285D01*
X216100000Y-89059285D01*
X216100001Y-89059285D01*
X216148251Y-89052932D01*
X216244754Y-89040228D01*
X216379643Y-88984355D01*
X216495474Y-88895474D01*
X216584355Y-88779643D01*
X216617345Y-88699998D01*
X223040715Y-88699998D01*
X223040715Y-88700001D01*
X223059771Y-88844752D01*
X223059773Y-88844757D01*
X223115642Y-88979638D01*
X223115645Y-88979644D01*
X223204525Y-89095473D01*
X223204526Y-89095474D01*
X223320355Y-89184354D01*
X223320361Y-89184357D01*
X223387801Y-89212291D01*
X223455246Y-89240228D01*
X223527623Y-89249756D01*
X223599999Y-89259285D01*
X223600000Y-89259285D01*
X223600001Y-89259285D01*
X223648251Y-89252932D01*
X223744754Y-89240228D01*
X223879643Y-89184355D01*
X223995474Y-89095474D01*
X224084355Y-88979643D01*
X224140228Y-88844754D01*
X224159285Y-88700000D01*
X224157906Y-88689528D01*
X224140228Y-88555247D01*
X224140228Y-88555246D01*
X224084355Y-88420358D01*
X223995474Y-88304526D01*
X223879643Y-88215645D01*
X223879640Y-88215644D01*
X223879638Y-88215642D01*
X223744757Y-88159773D01*
X223744752Y-88159771D01*
X223600001Y-88140715D01*
X223599999Y-88140715D01*
X223455247Y-88159771D01*
X223455245Y-88159772D01*
X223320361Y-88215643D01*
X223320358Y-88215644D01*
X223320358Y-88215645D01*
X223204526Y-88304526D01*
X223116996Y-88418598D01*
X223115643Y-88420361D01*
X223059772Y-88555245D01*
X223059771Y-88555247D01*
X223040715Y-88699998D01*
X216617345Y-88699998D01*
X216640228Y-88644754D01*
X216659285Y-88500000D01*
X216657225Y-88484355D01*
X216646209Y-88400676D01*
X216640228Y-88355246D01*
X216584355Y-88220358D01*
X216495474Y-88104526D01*
X216379643Y-88015645D01*
X216379640Y-88015644D01*
X216379638Y-88015642D01*
X216244757Y-87959773D01*
X216244752Y-87959771D01*
X216100001Y-87940715D01*
X216099999Y-87940715D01*
X215955247Y-87959771D01*
X215955245Y-87959772D01*
X215820361Y-88015643D01*
X215820358Y-88015644D01*
X215820358Y-88015645D01*
X215704526Y-88104526D01*
X215619262Y-88215645D01*
X215615643Y-88220361D01*
X215559772Y-88355245D01*
X215559771Y-88355247D01*
X215540715Y-88499998D01*
X206947476Y-88499998D01*
X207032064Y-88295783D01*
X207094848Y-88061472D01*
X207126510Y-87820971D01*
X207126510Y-87578395D01*
X207094848Y-87337894D01*
X207032064Y-87103583D01*
X206939234Y-86879471D01*
X206817946Y-86669394D01*
X206733830Y-86559772D01*
X206670276Y-86476946D01*
X206670270Y-86476939D01*
X206498753Y-86305422D01*
X206498746Y-86305416D01*
X206361358Y-86199995D01*
X212340580Y-86199995D01*
X212340580Y-86200004D01*
X212360229Y-86462218D01*
X212360230Y-86462223D01*
X212418742Y-86718584D01*
X212418744Y-86718593D01*
X212418746Y-86718598D01*
X212514817Y-86963384D01*
X212646299Y-87191117D01*
X212810254Y-87396710D01*
X213003020Y-87575570D01*
X213220290Y-87723702D01*
X213220293Y-87723703D01*
X213220294Y-87723704D01*
X213229724Y-87728245D01*
X213457212Y-87837798D01*
X213708492Y-87915308D01*
X213708493Y-87915308D01*
X213708496Y-87915309D01*
X213968510Y-87954499D01*
X213968515Y-87954499D01*
X213968518Y-87954500D01*
X213968519Y-87954500D01*
X214231481Y-87954500D01*
X214231482Y-87954500D01*
X214231489Y-87954499D01*
X214491503Y-87915309D01*
X214491504Y-87915308D01*
X214491508Y-87915308D01*
X214742788Y-87837798D01*
X214979710Y-87723702D01*
X215196980Y-87575570D01*
X215389746Y-87396710D01*
X215553701Y-87191117D01*
X215685183Y-86963384D01*
X215781254Y-86718598D01*
X215808323Y-86600000D01*
X219590312Y-86600000D01*
X219610957Y-86743595D01*
X219610958Y-86743599D01*
X219646015Y-86820361D01*
X219671223Y-86875558D01*
X219766225Y-86985196D01*
X219844659Y-87035602D01*
X219888269Y-87063630D01*
X220027461Y-87104499D01*
X220027463Y-87104500D01*
X220027464Y-87104500D01*
X220172537Y-87104500D01*
X220172537Y-87104499D01*
X220285879Y-87071220D01*
X220311729Y-87063630D01*
X220311730Y-87063630D01*
X220311732Y-87063629D01*
X220433775Y-86985196D01*
X220528777Y-86875558D01*
X220589042Y-86743596D01*
X220609688Y-86600000D01*
X220589042Y-86456404D01*
X220589041Y-86456400D01*
X220542699Y-86354928D01*
X220528777Y-86324442D01*
X220433775Y-86214804D01*
X220363873Y-86169880D01*
X220311730Y-86136369D01*
X220172538Y-86095500D01*
X220172536Y-86095500D01*
X220027464Y-86095500D01*
X220027461Y-86095500D01*
X219888270Y-86136369D01*
X219888269Y-86136369D01*
X219766226Y-86214803D01*
X219671223Y-86324442D01*
X219671222Y-86324443D01*
X219610958Y-86456400D01*
X219610957Y-86456404D01*
X219590312Y-86600000D01*
X215808323Y-86600000D01*
X215839769Y-86462228D01*
X215839770Y-86462218D01*
X215859420Y-86200004D01*
X215859420Y-86199995D01*
X215844432Y-85999998D01*
X223340715Y-85999998D01*
X223340715Y-86000001D01*
X223359771Y-86144752D01*
X223359773Y-86144757D01*
X223415642Y-86279638D01*
X223415645Y-86279644D01*
X223504525Y-86395473D01*
X223504526Y-86395474D01*
X223620355Y-86484354D01*
X223620361Y-86484357D01*
X223646435Y-86495157D01*
X223755246Y-86540228D01*
X223827623Y-86549756D01*
X223899999Y-86559285D01*
X223900000Y-86559285D01*
X223900001Y-86559285D01*
X223948251Y-86552932D01*
X224044754Y-86540228D01*
X224179643Y-86484355D01*
X224295474Y-86395474D01*
X224384355Y-86279643D01*
X224440228Y-86144754D01*
X224457267Y-86015326D01*
X224459285Y-86000001D01*
X224459285Y-85999998D01*
X224440228Y-85855247D01*
X224440228Y-85855246D01*
X224384355Y-85720358D01*
X224295474Y-85604526D01*
X224179643Y-85515645D01*
X224179640Y-85515644D01*
X224179638Y-85515642D01*
X224044757Y-85459773D01*
X224044752Y-85459771D01*
X223900001Y-85440715D01*
X223899999Y-85440715D01*
X223755247Y-85459771D01*
X223755245Y-85459772D01*
X223620361Y-85515643D01*
X223620358Y-85515644D01*
X223620358Y-85515645D01*
X223504526Y-85604526D01*
X223477133Y-85640226D01*
X223415643Y-85720361D01*
X223359772Y-85855245D01*
X223359771Y-85855247D01*
X223340715Y-85999998D01*
X215844432Y-85999998D01*
X215839770Y-85937781D01*
X215839769Y-85937776D01*
X215839769Y-85937772D01*
X215781254Y-85681402D01*
X215685183Y-85436616D01*
X215553701Y-85208883D01*
X215450759Y-85079798D01*
X216152736Y-85079798D01*
X216152736Y-85079801D01*
X216171792Y-85224552D01*
X216171794Y-85224557D01*
X216227663Y-85359438D01*
X216227666Y-85359444D01*
X216316546Y-85475273D01*
X216316547Y-85475274D01*
X216432376Y-85564154D01*
X216432382Y-85564157D01*
X216481145Y-85584355D01*
X216567267Y-85620028D01*
X216639644Y-85629556D01*
X216712020Y-85639085D01*
X216712021Y-85639085D01*
X216712022Y-85639085D01*
X216760272Y-85632732D01*
X216856775Y-85620028D01*
X216991664Y-85564155D01*
X217107495Y-85475274D01*
X217196376Y-85359443D01*
X217252249Y-85224554D01*
X217268647Y-85099998D01*
X219340715Y-85099998D01*
X219340715Y-85100001D01*
X219359771Y-85244752D01*
X219359773Y-85244757D01*
X219415642Y-85379638D01*
X219415645Y-85379644D01*
X219504525Y-85495473D01*
X219504526Y-85495474D01*
X219620355Y-85584354D01*
X219620361Y-85584357D01*
X219669049Y-85604524D01*
X219755246Y-85640228D01*
X219827623Y-85649756D01*
X219899999Y-85659285D01*
X219900000Y-85659285D01*
X219900001Y-85659285D01*
X219948251Y-85652932D01*
X220044754Y-85640228D01*
X220179643Y-85584355D01*
X220295474Y-85495474D01*
X220384355Y-85379643D01*
X220417345Y-85299998D01*
X222040715Y-85299998D01*
X222040715Y-85300001D01*
X222059771Y-85444752D01*
X222059773Y-85444757D01*
X222115642Y-85579638D01*
X222115645Y-85579644D01*
X222204525Y-85695473D01*
X222204526Y-85695474D01*
X222320355Y-85784354D01*
X222320361Y-85784357D01*
X222387801Y-85812291D01*
X222455246Y-85840228D01*
X222523267Y-85849183D01*
X222599999Y-85859285D01*
X222600000Y-85859285D01*
X222600001Y-85859285D01*
X222676733Y-85849183D01*
X222744754Y-85840228D01*
X222879643Y-85784355D01*
X222995474Y-85695474D01*
X223084355Y-85579643D01*
X223140228Y-85444754D01*
X223159285Y-85300000D01*
X223157183Y-85284037D01*
X223140228Y-85155247D01*
X223140228Y-85155246D01*
X223084355Y-85020358D01*
X222995474Y-84904526D01*
X222879643Y-84815645D01*
X222879640Y-84815644D01*
X222879638Y-84815642D01*
X222744757Y-84759773D01*
X222744752Y-84759771D01*
X222600001Y-84740715D01*
X222599999Y-84740715D01*
X222455247Y-84759771D01*
X222455245Y-84759772D01*
X222320361Y-84815643D01*
X222320358Y-84815644D01*
X222320358Y-84815645D01*
X222204526Y-84904526D01*
X222128744Y-85003288D01*
X222115643Y-85020361D01*
X222059772Y-85155245D01*
X222059771Y-85155247D01*
X222040715Y-85299998D01*
X220417345Y-85299998D01*
X220440228Y-85244754D01*
X220459285Y-85100000D01*
X220456625Y-85079798D01*
X220440506Y-84957355D01*
X220440228Y-84955246D01*
X220384355Y-84820358D01*
X220295474Y-84704526D01*
X220179643Y-84615645D01*
X220179640Y-84615644D01*
X220179638Y-84615642D01*
X220044757Y-84559773D01*
X220044752Y-84559771D01*
X219900001Y-84540715D01*
X219899999Y-84540715D01*
X219755247Y-84559771D01*
X219755245Y-84559772D01*
X219620361Y-84615643D01*
X219620358Y-84615644D01*
X219620358Y-84615645D01*
X219504526Y-84704526D01*
X219419262Y-84815645D01*
X219415643Y-84820361D01*
X219359772Y-84955245D01*
X219359771Y-84955247D01*
X219340715Y-85099998D01*
X217268647Y-85099998D01*
X217271306Y-85079800D01*
X217270064Y-85070369D01*
X217252249Y-84935047D01*
X217252249Y-84935046D01*
X217196376Y-84800158D01*
X217107495Y-84684326D01*
X216991664Y-84595445D01*
X216991661Y-84595444D01*
X216991659Y-84595442D01*
X216856778Y-84539573D01*
X216856773Y-84539571D01*
X216712022Y-84520515D01*
X216712020Y-84520515D01*
X216567268Y-84539571D01*
X216567266Y-84539572D01*
X216432382Y-84595443D01*
X216432379Y-84595444D01*
X216432379Y-84595445D01*
X216316547Y-84684326D01*
X216228031Y-84799683D01*
X216227664Y-84800161D01*
X216171793Y-84935045D01*
X216171792Y-84935047D01*
X216152736Y-85079798D01*
X215450759Y-85079798D01*
X215389746Y-85003290D01*
X215196980Y-84824430D01*
X214979710Y-84676298D01*
X214979707Y-84676297D01*
X214979705Y-84676295D01*
X214742788Y-84562202D01*
X214491509Y-84484692D01*
X214491503Y-84484690D01*
X214231489Y-84445500D01*
X214231482Y-84445500D01*
X213968518Y-84445500D01*
X213968510Y-84445500D01*
X213708496Y-84484690D01*
X213708490Y-84484692D01*
X213457211Y-84562202D01*
X213220294Y-84676295D01*
X213003019Y-84824430D01*
X212810256Y-85003288D01*
X212810254Y-85003290D01*
X212646299Y-85208883D01*
X212514817Y-85436615D01*
X212418748Y-85681396D01*
X212418742Y-85681415D01*
X212360230Y-85937776D01*
X212360229Y-85937781D01*
X212340580Y-86199995D01*
X206361358Y-86199995D01*
X206306303Y-86157750D01*
X206306302Y-86157749D01*
X206306299Y-86157747D01*
X206096222Y-86036459D01*
X206096215Y-86036456D01*
X205872114Y-85943630D01*
X205637795Y-85880844D01*
X205397299Y-85849183D01*
X205397298Y-85849183D01*
X205154722Y-85849183D01*
X205154721Y-85849183D01*
X204914224Y-85880844D01*
X204679905Y-85943630D01*
X204455804Y-86036456D01*
X204455795Y-86036460D01*
X204245716Y-86157750D01*
X204053273Y-86305416D01*
X204053266Y-86305422D01*
X203881749Y-86476939D01*
X203881743Y-86476946D01*
X203734077Y-86669389D01*
X203612787Y-86879468D01*
X203612783Y-86879477D01*
X203519957Y-87103578D01*
X203457171Y-87337897D01*
X203425510Y-87578394D01*
X201508580Y-87578394D01*
X201584355Y-87479643D01*
X201640228Y-87344754D01*
X201659285Y-87200000D01*
X201658115Y-87191116D01*
X201640228Y-87055247D01*
X201640228Y-87055246D01*
X201584355Y-86920358D01*
X201495474Y-86804526D01*
X201379643Y-86715645D01*
X201379640Y-86715644D01*
X201379638Y-86715642D01*
X201244757Y-86659773D01*
X201244752Y-86659771D01*
X201100001Y-86640715D01*
X201099999Y-86640715D01*
X200955247Y-86659771D01*
X200955242Y-86659773D01*
X200852521Y-86702321D01*
X200783051Y-86709790D01*
X200720572Y-86678514D01*
X200690507Y-86635211D01*
X200684355Y-86620358D01*
X200595474Y-86504526D01*
X200479643Y-86415645D01*
X200479640Y-86415644D01*
X200479638Y-86415642D01*
X200344757Y-86359773D01*
X200344752Y-86359771D01*
X200200001Y-86340715D01*
X200199999Y-86340715D01*
X200055247Y-86359771D01*
X200055245Y-86359772D01*
X199920361Y-86415643D01*
X199920358Y-86415644D01*
X199920358Y-86415645D01*
X199804526Y-86504526D01*
X199719262Y-86615645D01*
X199715643Y-86620361D01*
X199659772Y-86755245D01*
X199659771Y-86755247D01*
X199640715Y-86899998D01*
X197873714Y-86899998D01*
X197899412Y-86866508D01*
X197955285Y-86731619D01*
X197970553Y-86615643D01*
X197974342Y-86586866D01*
X197974342Y-86586863D01*
X197955285Y-86442112D01*
X197955285Y-86442111D01*
X197899412Y-86307223D01*
X197810531Y-86191391D01*
X197694700Y-86102510D01*
X197694697Y-86102509D01*
X197694695Y-86102507D01*
X197559814Y-86046638D01*
X197559809Y-86046636D01*
X197415058Y-86027580D01*
X197415056Y-86027580D01*
X197270304Y-86046636D01*
X197270302Y-86046637D01*
X197135418Y-86102508D01*
X197135415Y-86102509D01*
X197135415Y-86102510D01*
X197019583Y-86191391D01*
X196954096Y-86276736D01*
X196930700Y-86307226D01*
X196874829Y-86442110D01*
X196874828Y-86442112D01*
X196855772Y-86586863D01*
X193310159Y-86586863D01*
X193244757Y-86559773D01*
X193244752Y-86559771D01*
X193100001Y-86540715D01*
X193099999Y-86540715D01*
X192955247Y-86559771D01*
X192955245Y-86559772D01*
X192820361Y-86615643D01*
X192820358Y-86615644D01*
X192820358Y-86615645D01*
X192704526Y-86704526D01*
X192619262Y-86815645D01*
X192615643Y-86820361D01*
X192559772Y-86955245D01*
X192559771Y-86955247D01*
X192540715Y-87099998D01*
X189817343Y-87099998D01*
X189784355Y-87020358D01*
X189695474Y-86904526D01*
X189579643Y-86815645D01*
X189579640Y-86815644D01*
X189579638Y-86815642D01*
X189444757Y-86759773D01*
X189444752Y-86759771D01*
X189300001Y-86740715D01*
X189299999Y-86740715D01*
X189155247Y-86759771D01*
X189155245Y-86759772D01*
X189020361Y-86815643D01*
X189020358Y-86815644D01*
X189020358Y-86815645D01*
X188904526Y-86904526D01*
X188843515Y-86984038D01*
X188815643Y-87020361D01*
X188759772Y-87155245D01*
X188759771Y-87155247D01*
X188740715Y-87299998D01*
X180084694Y-87299998D01*
X180032064Y-87103583D01*
X179939234Y-86879471D01*
X179817946Y-86669394D01*
X179733830Y-86559772D01*
X179687721Y-86499681D01*
X181216725Y-86499681D01*
X181216725Y-86499684D01*
X181235781Y-86644435D01*
X181235783Y-86644440D01*
X181291652Y-86779321D01*
X181291655Y-86779327D01*
X181380535Y-86895156D01*
X181380536Y-86895157D01*
X181496365Y-86984037D01*
X181496371Y-86984040D01*
X181563811Y-87011974D01*
X181631256Y-87039911D01*
X181703633Y-87049439D01*
X181776009Y-87058968D01*
X181776010Y-87058968D01*
X181776011Y-87058968D01*
X181824261Y-87052615D01*
X181920764Y-87039911D01*
X182055653Y-86984038D01*
X182171484Y-86895157D01*
X182260365Y-86779326D01*
X182316238Y-86644437D01*
X182332037Y-86524430D01*
X182335295Y-86499684D01*
X182335295Y-86499681D01*
X182316876Y-86359773D01*
X182316238Y-86354929D01*
X182260365Y-86220041D01*
X182171484Y-86104209D01*
X182165583Y-86099681D01*
X191116725Y-86099681D01*
X191116725Y-86099684D01*
X191135781Y-86244435D01*
X191135783Y-86244440D01*
X191191652Y-86379321D01*
X191191655Y-86379327D01*
X191280535Y-86495156D01*
X191280536Y-86495157D01*
X191396365Y-86584037D01*
X191396371Y-86584040D01*
X191463402Y-86611805D01*
X191531256Y-86639911D01*
X191565620Y-86644435D01*
X191676009Y-86658968D01*
X191676010Y-86658968D01*
X191676011Y-86658968D01*
X191724261Y-86652615D01*
X191820764Y-86639911D01*
X191955653Y-86584038D01*
X192071484Y-86495157D01*
X192160365Y-86379326D01*
X192216238Y-86244437D01*
X192234699Y-86104209D01*
X192235295Y-86099684D01*
X192235295Y-86099681D01*
X192216238Y-85954930D01*
X192216238Y-85954929D01*
X192160365Y-85820041D01*
X192071484Y-85704209D01*
X191955653Y-85615328D01*
X191955650Y-85615327D01*
X191955648Y-85615325D01*
X191820767Y-85559456D01*
X191820762Y-85559454D01*
X191676011Y-85540398D01*
X191676009Y-85540398D01*
X191531257Y-85559454D01*
X191531255Y-85559455D01*
X191396371Y-85615326D01*
X191396368Y-85615327D01*
X191396368Y-85615328D01*
X191280536Y-85704209D01*
X191226671Y-85774408D01*
X191191653Y-85820044D01*
X191135782Y-85954928D01*
X191135781Y-85954930D01*
X191116725Y-86099681D01*
X182165583Y-86099681D01*
X182055653Y-86015328D01*
X182055650Y-86015327D01*
X182055648Y-86015325D01*
X181920767Y-85959456D01*
X181920762Y-85959454D01*
X181776011Y-85940398D01*
X181776009Y-85940398D01*
X181631257Y-85959454D01*
X181631255Y-85959455D01*
X181496371Y-86015326D01*
X181496368Y-86015327D01*
X181496368Y-86015328D01*
X181380536Y-86104209D01*
X181295674Y-86214804D01*
X181291653Y-86220044D01*
X181235782Y-86354928D01*
X181235781Y-86354930D01*
X181216725Y-86499681D01*
X179687721Y-86499681D01*
X179670276Y-86476946D01*
X179670270Y-86476939D01*
X179498753Y-86305422D01*
X179498746Y-86305416D01*
X179306303Y-86157750D01*
X179306302Y-86157749D01*
X179306299Y-86157747D01*
X179096222Y-86036459D01*
X179096215Y-86036456D01*
X178872114Y-85943630D01*
X178637795Y-85880844D01*
X178397299Y-85849183D01*
X178397298Y-85849183D01*
X178154722Y-85849183D01*
X178154721Y-85849183D01*
X177914224Y-85880844D01*
X177679905Y-85943630D01*
X177455804Y-86036456D01*
X177455795Y-86036460D01*
X177245716Y-86157750D01*
X177053273Y-86305416D01*
X177053266Y-86305422D01*
X176881749Y-86476939D01*
X176881743Y-86476946D01*
X176734077Y-86669389D01*
X176612787Y-86879468D01*
X176612783Y-86879477D01*
X176519957Y-87103578D01*
X176457171Y-87337897D01*
X176425510Y-87578394D01*
X170326216Y-87578394D01*
X170281254Y-87381402D01*
X170185183Y-87136616D01*
X170053701Y-86908883D01*
X169889746Y-86703290D01*
X169696980Y-86524430D01*
X169479710Y-86376298D01*
X169479707Y-86376297D01*
X169479705Y-86376295D01*
X169242788Y-86262202D01*
X168991509Y-86184692D01*
X168991503Y-86184690D01*
X168731489Y-86145500D01*
X168731482Y-86145500D01*
X168468518Y-86145500D01*
X168468510Y-86145500D01*
X168208496Y-86184690D01*
X168208490Y-86184692D01*
X167957211Y-86262202D01*
X167720294Y-86376295D01*
X167503019Y-86524430D01*
X167310256Y-86703288D01*
X167310254Y-86703290D01*
X167146299Y-86908883D01*
X167014818Y-87136613D01*
X166957788Y-87281923D01*
X166914972Y-87337136D01*
X166849102Y-87360437D01*
X166794909Y-87351182D01*
X166774182Y-87342596D01*
X166744968Y-87330496D01*
X166744966Y-87330495D01*
X166600215Y-87311439D01*
X166600213Y-87311439D01*
X166455461Y-87330495D01*
X166455459Y-87330496D01*
X166320575Y-87386367D01*
X166320572Y-87386368D01*
X166320572Y-87386369D01*
X166204740Y-87475250D01*
X166121020Y-87584357D01*
X166115857Y-87591085D01*
X166059986Y-87725969D01*
X166059985Y-87725971D01*
X166040929Y-87870722D01*
X161942265Y-87870722D01*
X161940228Y-87855246D01*
X161884355Y-87720358D01*
X161795474Y-87604526D01*
X161679643Y-87515645D01*
X161679640Y-87515644D01*
X161679638Y-87515642D01*
X161544757Y-87459773D01*
X161544752Y-87459771D01*
X161400001Y-87440715D01*
X161399999Y-87440715D01*
X161255247Y-87459771D01*
X161255245Y-87459772D01*
X161120361Y-87515643D01*
X161120358Y-87515644D01*
X161120358Y-87515645D01*
X161004526Y-87604526D01*
X160965607Y-87655247D01*
X160915643Y-87720361D01*
X160859772Y-87855245D01*
X160859771Y-87855247D01*
X160840715Y-87999998D01*
X157068461Y-87999998D01*
X157026516Y-87781602D01*
X157025802Y-87777518D01*
X157024864Y-87771564D01*
X156842727Y-86615877D01*
X156842159Y-86611838D01*
X156720854Y-85629652D01*
X164247441Y-85629652D01*
X164247441Y-85629655D01*
X164266497Y-85774406D01*
X164266499Y-85774411D01*
X164322368Y-85909292D01*
X164322371Y-85909298D01*
X164411251Y-86025127D01*
X164411252Y-86025128D01*
X164527081Y-86114008D01*
X164527087Y-86114011D01*
X164594527Y-86141945D01*
X164661972Y-86169882D01*
X164734349Y-86179410D01*
X164806725Y-86188939D01*
X164806726Y-86188939D01*
X164806727Y-86188939D01*
X164854977Y-86182586D01*
X164951480Y-86169882D01*
X165086369Y-86114009D01*
X165202200Y-86025128D01*
X165291081Y-85909297D01*
X165346954Y-85774408D01*
X165364619Y-85640226D01*
X165366011Y-85629655D01*
X165366011Y-85629652D01*
X165346954Y-85484901D01*
X165346954Y-85484900D01*
X165291081Y-85350012D01*
X165202200Y-85234180D01*
X165086369Y-85145299D01*
X165086366Y-85145298D01*
X165086364Y-85145296D01*
X164951483Y-85089427D01*
X164951478Y-85089425D01*
X164806727Y-85070369D01*
X164806725Y-85070369D01*
X164661973Y-85089425D01*
X164661971Y-85089426D01*
X164527087Y-85145297D01*
X164527084Y-85145298D01*
X164527084Y-85145299D01*
X164411252Y-85234180D01*
X164330124Y-85339909D01*
X164322369Y-85350015D01*
X164266498Y-85484899D01*
X164266497Y-85484901D01*
X164247441Y-85629652D01*
X156720854Y-85629652D01*
X156698012Y-85444708D01*
X156697574Y-85440590D01*
X156697218Y-85436616D01*
X156673354Y-85170551D01*
X156686971Y-85102023D01*
X156735476Y-85051734D01*
X156803470Y-85035652D01*
X156869364Y-85058884D01*
X156895233Y-85083989D01*
X156980535Y-85195156D01*
X156980536Y-85195157D01*
X157096365Y-85284037D01*
X157096371Y-85284040D01*
X157134905Y-85300001D01*
X157231256Y-85339911D01*
X157303633Y-85349439D01*
X157376009Y-85358968D01*
X157376010Y-85358968D01*
X157376011Y-85358968D01*
X157424261Y-85352615D01*
X157520764Y-85339911D01*
X157655653Y-85284038D01*
X157771484Y-85195157D01*
X157860365Y-85079326D01*
X157916238Y-84944437D01*
X157935232Y-84800161D01*
X157935295Y-84799684D01*
X157935295Y-84799681D01*
X157916238Y-84654930D01*
X157916238Y-84654929D01*
X157860365Y-84520041D01*
X157824268Y-84472998D01*
X169716725Y-84472998D01*
X169716725Y-84473001D01*
X169735781Y-84617752D01*
X169735783Y-84617757D01*
X169791652Y-84752638D01*
X169791655Y-84752644D01*
X169880535Y-84868473D01*
X169880536Y-84868474D01*
X169996365Y-84957354D01*
X169996371Y-84957357D01*
X170060783Y-84984037D01*
X170131256Y-85013228D01*
X170185437Y-85020361D01*
X170276009Y-85032285D01*
X170276010Y-85032285D01*
X170276011Y-85032285D01*
X170324261Y-85025932D01*
X170420764Y-85013228D01*
X170555653Y-84957355D01*
X170671484Y-84868474D01*
X170760365Y-84752643D01*
X170816238Y-84617754D01*
X170831782Y-84499681D01*
X192916725Y-84499681D01*
X192916725Y-84499684D01*
X192935781Y-84644435D01*
X192935783Y-84644440D01*
X192991652Y-84779321D01*
X192991655Y-84779327D01*
X193080535Y-84895156D01*
X193080536Y-84895157D01*
X193196365Y-84984037D01*
X193196371Y-84984040D01*
X193242840Y-85003288D01*
X193331256Y-85039911D01*
X193403633Y-85049439D01*
X193476009Y-85058968D01*
X193476010Y-85058968D01*
X193476011Y-85058968D01*
X193530958Y-85051734D01*
X193620764Y-85039911D01*
X193755653Y-84984038D01*
X193865175Y-84899998D01*
X194540715Y-84899998D01*
X194540715Y-84900001D01*
X194559771Y-85044752D01*
X194559773Y-85044757D01*
X194615642Y-85179638D01*
X194615645Y-85179644D01*
X194704525Y-85295473D01*
X194704526Y-85295474D01*
X194820355Y-85384354D01*
X194820361Y-85384357D01*
X194887801Y-85412291D01*
X194955246Y-85440228D01*
X194989306Y-85444712D01*
X195099999Y-85459285D01*
X195100000Y-85459285D01*
X195100001Y-85459285D01*
X195148251Y-85452932D01*
X195244754Y-85440228D01*
X195379643Y-85384355D01*
X195495474Y-85295474D01*
X195584355Y-85179643D01*
X195640228Y-85044754D01*
X195658689Y-84904526D01*
X195659285Y-84900001D01*
X195659285Y-84899998D01*
X195640228Y-84755247D01*
X195640228Y-84755246D01*
X195584355Y-84620358D01*
X195495474Y-84504526D01*
X195379643Y-84415645D01*
X195379640Y-84415644D01*
X195379638Y-84415642D01*
X195244757Y-84359773D01*
X195244752Y-84359771D01*
X195100001Y-84340715D01*
X195099999Y-84340715D01*
X194955247Y-84359771D01*
X194955245Y-84359772D01*
X194820361Y-84415643D01*
X194820358Y-84415644D01*
X194820358Y-84415645D01*
X194704526Y-84504526D01*
X194619262Y-84615645D01*
X194615643Y-84620361D01*
X194559772Y-84755245D01*
X194559771Y-84755247D01*
X194540715Y-84899998D01*
X193865175Y-84899998D01*
X193871484Y-84895157D01*
X193960365Y-84779326D01*
X194016238Y-84644437D01*
X194030044Y-84539571D01*
X194035295Y-84499684D01*
X194035295Y-84499681D01*
X194016876Y-84359773D01*
X194016238Y-84354929D01*
X193960365Y-84220041D01*
X193871484Y-84104209D01*
X193755653Y-84015328D01*
X193755650Y-84015327D01*
X193755648Y-84015325D01*
X193620767Y-83959456D01*
X193620762Y-83959454D01*
X193476011Y-83940398D01*
X193476009Y-83940398D01*
X193331257Y-83959454D01*
X193331255Y-83959455D01*
X193196371Y-84015326D01*
X193196368Y-84015327D01*
X193196368Y-84015328D01*
X193080536Y-84104209D01*
X193012128Y-84193361D01*
X192991653Y-84220044D01*
X192935782Y-84354928D01*
X192935781Y-84354930D01*
X192916725Y-84499681D01*
X170831782Y-84499681D01*
X170835295Y-84473000D01*
X170816238Y-84328246D01*
X170760365Y-84193358D01*
X170671484Y-84077526D01*
X170555653Y-83988645D01*
X170555650Y-83988644D01*
X170555648Y-83988642D01*
X170420767Y-83932773D01*
X170420762Y-83932771D01*
X170276011Y-83913715D01*
X170276009Y-83913715D01*
X170131257Y-83932771D01*
X170131255Y-83932772D01*
X169996371Y-83988643D01*
X169880536Y-84077526D01*
X169791653Y-84193361D01*
X169735782Y-84328245D01*
X169735781Y-84328247D01*
X169716725Y-84472998D01*
X157824268Y-84472998D01*
X157771484Y-84404209D01*
X157655653Y-84315328D01*
X157655650Y-84315327D01*
X157655648Y-84315325D01*
X157520767Y-84259456D01*
X157520762Y-84259454D01*
X157376011Y-84240398D01*
X157376009Y-84240398D01*
X157231257Y-84259454D01*
X157231255Y-84259455D01*
X157096371Y-84315326D01*
X157096368Y-84315327D01*
X157096368Y-84315328D01*
X156980536Y-84404209D01*
X156907276Y-84499684D01*
X156891653Y-84520044D01*
X156857260Y-84603076D01*
X156813419Y-84657479D01*
X156747124Y-84679544D01*
X156679425Y-84662264D01*
X156631815Y-84611127D01*
X156619195Y-84566700D01*
X156618574Y-84559771D01*
X156592522Y-84269312D01*
X156592229Y-84265302D01*
X156566137Y-83799998D01*
X181740715Y-83799998D01*
X181740715Y-83800001D01*
X181759771Y-83944752D01*
X181759773Y-83944757D01*
X181815642Y-84079638D01*
X181815645Y-84079644D01*
X181904525Y-84195473D01*
X181904526Y-84195474D01*
X182020355Y-84284354D01*
X182020361Y-84284357D01*
X182087801Y-84312291D01*
X182155246Y-84340228D01*
X182227623Y-84349756D01*
X182299999Y-84359285D01*
X182300000Y-84359285D01*
X182300001Y-84359285D01*
X182348251Y-84352932D01*
X182444754Y-84340228D01*
X182579643Y-84284355D01*
X182695474Y-84195474D01*
X182784355Y-84079643D01*
X182840228Y-83944754D01*
X182859285Y-83800000D01*
X182840228Y-83655246D01*
X182784355Y-83520358D01*
X182695474Y-83404526D01*
X182579643Y-83315645D01*
X182579640Y-83315644D01*
X182579638Y-83315642D01*
X182444757Y-83259773D01*
X182444752Y-83259771D01*
X182300001Y-83240715D01*
X182299999Y-83240715D01*
X182155247Y-83259771D01*
X182155245Y-83259772D01*
X182020361Y-83315643D01*
X182020358Y-83315644D01*
X182020358Y-83315645D01*
X181904526Y-83404526D01*
X181877133Y-83440226D01*
X181815643Y-83520361D01*
X181759772Y-83655245D01*
X181759771Y-83655247D01*
X181740715Y-83799998D01*
X156566137Y-83799998D01*
X156526382Y-83091051D01*
X156526223Y-83086976D01*
X156526164Y-83084354D01*
X156508438Y-82299681D01*
X183816725Y-82299681D01*
X183816725Y-82299684D01*
X183835781Y-82444435D01*
X183835783Y-82444440D01*
X183891652Y-82579321D01*
X183891655Y-82579327D01*
X183980535Y-82695156D01*
X183980536Y-82695157D01*
X184096365Y-82784037D01*
X184096371Y-82784040D01*
X184163811Y-82811974D01*
X184231256Y-82839911D01*
X184303633Y-82849439D01*
X184376009Y-82858968D01*
X184376010Y-82858968D01*
X184376011Y-82858968D01*
X184442519Y-82850212D01*
X184520764Y-82839911D01*
X184655653Y-82784038D01*
X184771484Y-82695157D01*
X184860365Y-82579326D01*
X184916238Y-82444437D01*
X184935295Y-82299683D01*
X184916238Y-82154929D01*
X184860365Y-82020041D01*
X184771484Y-81904209D01*
X184656759Y-81816177D01*
X185532532Y-81816177D01*
X185532532Y-81816180D01*
X185551588Y-81960931D01*
X185551590Y-81960936D01*
X185607459Y-82095817D01*
X185607462Y-82095823D01*
X185696342Y-82211652D01*
X185696343Y-82211653D01*
X185812172Y-82300533D01*
X185812178Y-82300536D01*
X185860033Y-82320358D01*
X185947063Y-82356407D01*
X185999338Y-82363289D01*
X186045999Y-82369432D01*
X186109896Y-82397698D01*
X186148367Y-82456023D01*
X186152753Y-82508555D01*
X186140715Y-82599997D01*
X186140715Y-82600001D01*
X186159771Y-82744752D01*
X186159773Y-82744757D01*
X186215642Y-82879638D01*
X186215645Y-82879644D01*
X186304525Y-82995473D01*
X186304526Y-82995474D01*
X186420355Y-83084354D01*
X186420361Y-83084357D01*
X186431684Y-83089047D01*
X186555246Y-83140228D01*
X186627623Y-83149756D01*
X186699999Y-83159285D01*
X186700000Y-83159285D01*
X186700001Y-83159285D01*
X186748251Y-83152932D01*
X186844754Y-83140228D01*
X186979643Y-83084355D01*
X187095474Y-82995474D01*
X187168979Y-82899681D01*
X189816725Y-82899681D01*
X189816725Y-82899684D01*
X189835781Y-83044435D01*
X189835783Y-83044440D01*
X189891652Y-83179321D01*
X189891655Y-83179327D01*
X189980535Y-83295156D01*
X189980536Y-83295157D01*
X190096365Y-83384037D01*
X190096371Y-83384040D01*
X190145824Y-83404524D01*
X190231256Y-83439911D01*
X190303633Y-83449439D01*
X190376009Y-83458968D01*
X190376010Y-83458968D01*
X190376011Y-83458968D01*
X190424261Y-83452615D01*
X190520764Y-83439911D01*
X190655653Y-83384038D01*
X190771484Y-83295157D01*
X190860365Y-83179326D01*
X190916238Y-83044437D01*
X190928856Y-82948586D01*
X190957122Y-82884692D01*
X191015446Y-82846220D01*
X191085311Y-82845388D01*
X191099247Y-82850211D01*
X191211890Y-82896870D01*
X191235673Y-82900001D01*
X191356643Y-82915927D01*
X191356644Y-82915927D01*
X191356645Y-82915927D01*
X191404895Y-82909574D01*
X191477637Y-82899998D01*
X222768115Y-82899998D01*
X222768115Y-82900001D01*
X222787171Y-83044752D01*
X222787173Y-83044757D01*
X222843042Y-83179638D01*
X222843045Y-83179644D01*
X222931925Y-83295473D01*
X222931926Y-83295474D01*
X223047755Y-83384354D01*
X223047761Y-83384357D01*
X223096449Y-83404524D01*
X223182646Y-83440228D01*
X223255023Y-83449756D01*
X223327399Y-83459285D01*
X223327400Y-83459285D01*
X223327401Y-83459285D01*
X223375651Y-83452932D01*
X223472154Y-83440228D01*
X223607043Y-83384355D01*
X223722874Y-83295474D01*
X223811755Y-83179643D01*
X223867628Y-83044754D01*
X223886685Y-82900000D01*
X223886643Y-82899684D01*
X223868160Y-82759285D01*
X223867628Y-82755246D01*
X223811755Y-82620358D01*
X223722874Y-82504526D01*
X223607043Y-82415645D01*
X223607040Y-82415644D01*
X223607038Y-82415642D01*
X223472157Y-82359773D01*
X223472152Y-82359771D01*
X223327401Y-82340715D01*
X223327399Y-82340715D01*
X223182647Y-82359771D01*
X223182645Y-82359772D01*
X223047761Y-82415643D01*
X223047758Y-82415644D01*
X223047758Y-82415645D01*
X222931926Y-82504526D01*
X222843289Y-82620041D01*
X222843043Y-82620361D01*
X222787172Y-82755245D01*
X222787171Y-82755247D01*
X222768115Y-82899998D01*
X191477637Y-82899998D01*
X191501398Y-82896870D01*
X191636287Y-82840997D01*
X191752118Y-82752116D01*
X191840999Y-82636285D01*
X191896872Y-82501396D01*
X191913451Y-82375464D01*
X191915929Y-82356643D01*
X191915929Y-82356640D01*
X191896872Y-82211889D01*
X191896872Y-82211888D01*
X191891947Y-82199998D01*
X197440715Y-82199998D01*
X197440715Y-82200001D01*
X197459771Y-82344752D01*
X197459773Y-82344757D01*
X197515642Y-82479638D01*
X197515645Y-82479644D01*
X197604525Y-82595473D01*
X197604526Y-82595474D01*
X197720355Y-82684354D01*
X197720361Y-82684357D01*
X197746435Y-82695157D01*
X197855246Y-82740228D01*
X197889610Y-82744752D01*
X197999999Y-82759285D01*
X198000000Y-82759285D01*
X198000001Y-82759285D01*
X198048251Y-82752932D01*
X198144754Y-82740228D01*
X198279643Y-82684355D01*
X198395474Y-82595474D01*
X198484355Y-82479643D01*
X198540228Y-82344754D01*
X198558689Y-82204526D01*
X198559285Y-82200001D01*
X198559285Y-82199998D01*
X198546120Y-82099998D01*
X213840715Y-82099998D01*
X213840715Y-82100001D01*
X213859771Y-82244752D01*
X213859773Y-82244757D01*
X213915642Y-82379638D01*
X213915645Y-82379644D01*
X214004525Y-82495473D01*
X214004526Y-82495474D01*
X214120355Y-82584354D01*
X214120361Y-82584357D01*
X214187801Y-82612291D01*
X214255246Y-82640228D01*
X214327623Y-82649756D01*
X214399999Y-82659285D01*
X214400000Y-82659285D01*
X214400001Y-82659285D01*
X214448251Y-82652932D01*
X214544754Y-82640228D01*
X214679643Y-82584355D01*
X214795474Y-82495474D01*
X214884355Y-82379643D01*
X214940228Y-82244754D01*
X214959285Y-82100000D01*
X214958734Y-82095817D01*
X214940228Y-81955247D01*
X214940228Y-81955246D01*
X214884355Y-81820358D01*
X214795474Y-81704526D01*
X214679643Y-81615645D01*
X214679640Y-81615644D01*
X214679638Y-81615642D01*
X214544757Y-81559773D01*
X214544752Y-81559771D01*
X214400001Y-81540715D01*
X214399999Y-81540715D01*
X214255247Y-81559771D01*
X214255245Y-81559772D01*
X214120361Y-81615643D01*
X214120358Y-81615644D01*
X214120358Y-81615645D01*
X214004526Y-81704526D01*
X213918672Y-81816414D01*
X213915643Y-81820361D01*
X213859772Y-81955245D01*
X213859771Y-81955247D01*
X213840715Y-82099998D01*
X198546120Y-82099998D01*
X198540228Y-82055247D01*
X198540228Y-82055246D01*
X198484355Y-81920358D01*
X198395474Y-81804526D01*
X198279643Y-81715645D01*
X198279640Y-81715644D01*
X198279638Y-81715642D01*
X198144757Y-81659773D01*
X198144752Y-81659771D01*
X198000001Y-81640715D01*
X197999999Y-81640715D01*
X197855247Y-81659771D01*
X197855245Y-81659772D01*
X197720361Y-81715643D01*
X197720358Y-81715644D01*
X197720358Y-81715645D01*
X197604526Y-81804526D01*
X197525419Y-81907621D01*
X197515643Y-81920361D01*
X197459772Y-82055245D01*
X197459771Y-82055247D01*
X197440715Y-82199998D01*
X191891947Y-82199998D01*
X191840999Y-82077000D01*
X191752118Y-81961168D01*
X191636287Y-81872287D01*
X191636284Y-81872286D01*
X191636282Y-81872284D01*
X191501401Y-81816415D01*
X191501396Y-81816413D01*
X191356645Y-81797357D01*
X191356643Y-81797357D01*
X191211891Y-81816413D01*
X191211889Y-81816414D01*
X191077005Y-81872285D01*
X191077002Y-81872286D01*
X191077002Y-81872287D01*
X190961170Y-81961168D01*
X190888982Y-82055246D01*
X190872287Y-82077003D01*
X190816416Y-82211887D01*
X190816416Y-82211888D01*
X190803797Y-82307737D01*
X190775530Y-82371633D01*
X190717206Y-82410104D01*
X190647341Y-82410935D01*
X190633406Y-82406112D01*
X190520767Y-82359456D01*
X190520762Y-82359454D01*
X190376011Y-82340398D01*
X190376009Y-82340398D01*
X190231257Y-82359454D01*
X190231255Y-82359455D01*
X190096371Y-82415326D01*
X190096368Y-82415327D01*
X190096368Y-82415328D01*
X189980536Y-82504209D01*
X189907036Y-82599997D01*
X189891653Y-82620044D01*
X189835782Y-82754928D01*
X189835781Y-82754930D01*
X189816725Y-82899681D01*
X187168979Y-82899681D01*
X187184355Y-82879643D01*
X187240228Y-82744754D01*
X187253989Y-82640226D01*
X187259285Y-82600001D01*
X187259285Y-82599998D01*
X187240228Y-82455247D01*
X187240228Y-82455246D01*
X187184355Y-82320358D01*
X187095474Y-82204526D01*
X186979643Y-82115645D01*
X186979640Y-82115644D01*
X186979638Y-82115642D01*
X186844757Y-82059773D01*
X186844755Y-82059772D01*
X186844754Y-82059772D01*
X186810383Y-82055247D01*
X186745816Y-82046746D01*
X186681919Y-82018479D01*
X186643449Y-81960154D01*
X186639063Y-81907623D01*
X186651102Y-81816179D01*
X186632045Y-81671425D01*
X186576172Y-81536537D01*
X186487291Y-81420705D01*
X186371460Y-81331824D01*
X186371457Y-81331823D01*
X186371455Y-81331821D01*
X186236574Y-81275952D01*
X186236569Y-81275950D01*
X186091818Y-81256894D01*
X186091816Y-81256894D01*
X185947064Y-81275950D01*
X185947062Y-81275951D01*
X185812178Y-81331822D01*
X185812175Y-81331823D01*
X185812175Y-81331824D01*
X185723329Y-81399998D01*
X185696343Y-81420705D01*
X185607460Y-81536540D01*
X185551589Y-81671424D01*
X185551588Y-81671426D01*
X185532532Y-81816177D01*
X184656759Y-81816177D01*
X184655653Y-81815328D01*
X184655650Y-81815327D01*
X184655648Y-81815325D01*
X184520767Y-81759456D01*
X184520762Y-81759454D01*
X184376011Y-81740398D01*
X184376009Y-81740398D01*
X184231257Y-81759454D01*
X184231255Y-81759455D01*
X184096371Y-81815326D01*
X184096368Y-81815327D01*
X184096368Y-81815328D01*
X184006408Y-81884357D01*
X183980535Y-81904210D01*
X183925781Y-81975566D01*
X183869352Y-82016768D01*
X183817161Y-82019876D01*
X183846083Y-82074373D01*
X183840270Y-82144001D01*
X183839175Y-82146735D01*
X183835784Y-82154922D01*
X183835781Y-82154930D01*
X183816725Y-82299681D01*
X156508438Y-82299681D01*
X156499665Y-81911332D01*
X156499641Y-81907203D01*
X156512397Y-80731237D01*
X156512509Y-80727186D01*
X156546082Y-79969475D01*
X159997712Y-79969475D01*
X159997712Y-79969478D01*
X160016060Y-80108851D01*
X160016062Y-80108856D01*
X160069856Y-80238729D01*
X160069858Y-80238732D01*
X160155436Y-80350258D01*
X160155437Y-80350259D01*
X160266963Y-80435837D01*
X160266966Y-80435839D01*
X160348863Y-80469761D01*
X160396843Y-80489635D01*
X160466531Y-80498809D01*
X160536218Y-80507984D01*
X160536219Y-80507984D01*
X160536220Y-80507984D01*
X160582677Y-80501867D01*
X160675595Y-80489635D01*
X160805473Y-80435838D01*
X160852180Y-80399998D01*
X162740715Y-80399998D01*
X162740715Y-80400001D01*
X162759771Y-80544752D01*
X162759773Y-80544757D01*
X162815642Y-80679638D01*
X162815645Y-80679644D01*
X162904525Y-80795473D01*
X162904526Y-80795474D01*
X163020355Y-80884354D01*
X163020361Y-80884357D01*
X163087801Y-80912291D01*
X163155246Y-80940228D01*
X163227623Y-80949756D01*
X163299999Y-80959285D01*
X163300000Y-80959285D01*
X163416995Y-80943882D01*
X163486027Y-80954647D01*
X163538283Y-81001027D01*
X163557169Y-81068296D01*
X163556117Y-81083006D01*
X163540715Y-81199998D01*
X163540715Y-81200001D01*
X163559771Y-81344752D01*
X163559773Y-81344757D01*
X163615642Y-81479638D01*
X163615645Y-81479644D01*
X163704525Y-81595473D01*
X163704526Y-81595474D01*
X163820355Y-81684354D01*
X163820361Y-81684357D01*
X163857357Y-81699681D01*
X163955246Y-81740228D01*
X164027623Y-81749756D01*
X164099999Y-81759285D01*
X164100000Y-81759285D01*
X164100001Y-81759285D01*
X164148251Y-81752932D01*
X164244754Y-81740228D01*
X164342643Y-81699681D01*
X182616725Y-81699681D01*
X182616725Y-81699684D01*
X182635781Y-81844435D01*
X182635783Y-81844440D01*
X182691652Y-81979321D01*
X182691655Y-81979327D01*
X182780535Y-82095156D01*
X182780536Y-82095157D01*
X182896365Y-82184037D01*
X182896371Y-82184040D01*
X182934905Y-82200001D01*
X183031256Y-82239911D01*
X183103633Y-82249439D01*
X183176009Y-82258968D01*
X183176010Y-82258968D01*
X183176011Y-82258968D01*
X183224261Y-82252615D01*
X183320764Y-82239911D01*
X183455653Y-82184038D01*
X183571484Y-82095157D01*
X183626238Y-82023800D01*
X183682664Y-81982599D01*
X183734855Y-81979489D01*
X183705934Y-81924991D01*
X183711749Y-81855363D01*
X183712810Y-81852712D01*
X183716238Y-81844437D01*
X183733194Y-81715642D01*
X183735295Y-81699684D01*
X183735295Y-81699681D01*
X183716876Y-81559773D01*
X183716238Y-81554929D01*
X183660365Y-81420041D01*
X183571484Y-81304209D01*
X183455653Y-81215328D01*
X183455650Y-81215327D01*
X183455648Y-81215325D01*
X183418645Y-81199998D01*
X219140715Y-81199998D01*
X219140715Y-81200001D01*
X219159771Y-81344752D01*
X219159773Y-81344757D01*
X219215642Y-81479638D01*
X219215645Y-81479644D01*
X219304525Y-81595473D01*
X219304526Y-81595474D01*
X219420355Y-81684354D01*
X219420361Y-81684357D01*
X219457357Y-81699681D01*
X219555246Y-81740228D01*
X219627623Y-81749756D01*
X219699999Y-81759285D01*
X219700000Y-81759285D01*
X219700001Y-81759285D01*
X219748251Y-81752932D01*
X219844754Y-81740228D01*
X219979643Y-81684355D01*
X220095474Y-81595474D01*
X220184355Y-81479643D01*
X220240228Y-81344754D01*
X220257267Y-81215326D01*
X220259285Y-81200001D01*
X220259285Y-81199998D01*
X220240228Y-81055247D01*
X220240228Y-81055246D01*
X220184355Y-80920358D01*
X220095474Y-80804526D01*
X219979643Y-80715645D01*
X219979640Y-80715644D01*
X219979638Y-80715642D01*
X219844757Y-80659773D01*
X219844752Y-80659771D01*
X219700001Y-80640715D01*
X219699999Y-80640715D01*
X219555247Y-80659771D01*
X219555245Y-80659772D01*
X219420361Y-80715643D01*
X219420358Y-80715644D01*
X219420358Y-80715645D01*
X219304526Y-80804526D01*
X219219262Y-80915645D01*
X219215643Y-80920361D01*
X219159772Y-81055245D01*
X219159771Y-81055247D01*
X219140715Y-81199998D01*
X183418645Y-81199998D01*
X183320767Y-81159456D01*
X183320762Y-81159454D01*
X183176011Y-81140398D01*
X183176009Y-81140398D01*
X183031257Y-81159454D01*
X183031255Y-81159455D01*
X182896371Y-81215326D01*
X182896368Y-81215327D01*
X182896368Y-81215328D01*
X182780536Y-81304209D01*
X182749423Y-81344757D01*
X182691653Y-81420044D01*
X182635782Y-81554928D01*
X182635781Y-81554930D01*
X182616725Y-81699681D01*
X164342643Y-81699681D01*
X164379643Y-81684355D01*
X164495474Y-81595474D01*
X164584355Y-81479643D01*
X164640228Y-81344754D01*
X164657267Y-81215326D01*
X164659285Y-81200001D01*
X164659285Y-81199998D01*
X164640228Y-81055247D01*
X164640228Y-81055246D01*
X164584355Y-80920358D01*
X164495474Y-80804526D01*
X164379643Y-80715645D01*
X164379640Y-80715644D01*
X164379638Y-80715642D01*
X164244757Y-80659773D01*
X164244752Y-80659771D01*
X164100001Y-80640715D01*
X164099999Y-80640715D01*
X163983006Y-80656117D01*
X163913971Y-80645351D01*
X163861715Y-80598971D01*
X163842830Y-80531702D01*
X163843880Y-80517006D01*
X163859285Y-80400000D01*
X163852736Y-80350258D01*
X163840228Y-80255247D01*
X163840228Y-80255246D01*
X163784355Y-80120358D01*
X163695474Y-80004526D01*
X163689573Y-79999998D01*
X170940715Y-79999998D01*
X170940715Y-80000001D01*
X170959771Y-80144752D01*
X170959773Y-80144757D01*
X171015642Y-80279638D01*
X171015645Y-80279644D01*
X171104525Y-80395473D01*
X171104526Y-80395474D01*
X171220355Y-80484354D01*
X171220361Y-80484357D01*
X171271608Y-80505584D01*
X171355246Y-80540228D01*
X171395094Y-80545474D01*
X171499999Y-80559285D01*
X171500000Y-80559285D01*
X171500001Y-80559285D01*
X171548251Y-80552932D01*
X171644754Y-80540228D01*
X171779643Y-80484355D01*
X171895474Y-80395474D01*
X171984355Y-80279643D01*
X172021052Y-80191049D01*
X184539440Y-80191049D01*
X184539440Y-80191052D01*
X184558496Y-80335803D01*
X184558498Y-80335808D01*
X184614367Y-80470689D01*
X184614370Y-80470695D01*
X184703250Y-80586524D01*
X184703251Y-80586525D01*
X184819080Y-80675405D01*
X184819086Y-80675408D01*
X184854865Y-80690228D01*
X184953971Y-80731279D01*
X184990226Y-80736052D01*
X185098724Y-80750336D01*
X185098725Y-80750336D01*
X185098726Y-80750336D01*
X185146976Y-80743983D01*
X185243479Y-80731279D01*
X185378368Y-80675406D01*
X185494199Y-80586525D01*
X185583080Y-80470694D01*
X185638953Y-80335805D01*
X185658010Y-80191051D01*
X185648246Y-80116886D01*
X185659011Y-80047852D01*
X185705391Y-79995596D01*
X185723720Y-79986147D01*
X185791152Y-79958215D01*
X185860619Y-79950747D01*
X185923098Y-79982022D01*
X185953162Y-80025322D01*
X185961639Y-80045787D01*
X185961642Y-80045793D01*
X186050522Y-80161622D01*
X186050523Y-80161623D01*
X186166352Y-80250503D01*
X186166358Y-80250506D01*
X186232593Y-80277941D01*
X186301243Y-80306377D01*
X186373620Y-80315905D01*
X186445996Y-80325434D01*
X186445997Y-80325434D01*
X186445998Y-80325434D01*
X186494248Y-80319081D01*
X186590751Y-80306377D01*
X186725640Y-80250504D01*
X186841471Y-80161623D01*
X186850391Y-80149998D01*
X209290715Y-80149998D01*
X209290715Y-80150001D01*
X209309771Y-80294752D01*
X209309773Y-80294757D01*
X209365642Y-80429638D01*
X209365645Y-80429644D01*
X209454525Y-80545473D01*
X209454526Y-80545474D01*
X209570355Y-80634354D01*
X209570361Y-80634357D01*
X209622895Y-80656117D01*
X209705246Y-80690228D01*
X209777623Y-80699756D01*
X209849999Y-80709285D01*
X209850000Y-80709285D01*
X209850001Y-80709285D01*
X209898251Y-80702932D01*
X209994754Y-80690228D01*
X210129643Y-80634355D01*
X210245474Y-80545474D01*
X210334355Y-80429643D01*
X210390228Y-80294754D01*
X210409285Y-80150000D01*
X210408594Y-80144754D01*
X210390228Y-80005247D01*
X210390228Y-80005246D01*
X210334355Y-79870358D01*
X210245474Y-79754526D01*
X210129643Y-79665645D01*
X210129640Y-79665644D01*
X210129638Y-79665642D01*
X209994757Y-79609773D01*
X209994752Y-79609771D01*
X209850001Y-79590715D01*
X209849999Y-79590715D01*
X209705247Y-79609771D01*
X209705245Y-79609772D01*
X209570361Y-79665643D01*
X209570358Y-79665644D01*
X209570358Y-79665645D01*
X209454526Y-79754526D01*
X209396539Y-79830097D01*
X209365643Y-79870361D01*
X209309772Y-80005245D01*
X209309771Y-80005247D01*
X209290715Y-80149998D01*
X186850391Y-80149998D01*
X186930352Y-80045792D01*
X186986225Y-79910903D01*
X187005282Y-79766149D01*
X186997947Y-79710437D01*
X186986225Y-79621396D01*
X186986225Y-79621395D01*
X186930352Y-79486507D01*
X186841471Y-79370675D01*
X186725640Y-79281794D01*
X186725637Y-79281793D01*
X186725635Y-79281791D01*
X186590754Y-79225922D01*
X186590749Y-79225920D01*
X186445998Y-79206864D01*
X186445996Y-79206864D01*
X186301245Y-79225920D01*
X186219838Y-79259640D01*
X186150368Y-79267108D01*
X186087889Y-79235832D01*
X186057825Y-79192530D01*
X186049348Y-79172065D01*
X185960467Y-79056233D01*
X185844636Y-78967352D01*
X185844633Y-78967351D01*
X185844631Y-78967349D01*
X185709750Y-78911480D01*
X185709745Y-78911478D01*
X185635683Y-78901728D01*
X194553426Y-78901728D01*
X194553426Y-78901731D01*
X194572482Y-79046482D01*
X194572484Y-79046487D01*
X194628353Y-79181368D01*
X194628356Y-79181374D01*
X194717236Y-79297203D01*
X194717237Y-79297204D01*
X194833066Y-79386084D01*
X194833072Y-79386087D01*
X194900512Y-79414021D01*
X194967957Y-79441958D01*
X195023870Y-79449319D01*
X195112710Y-79461015D01*
X195112711Y-79461015D01*
X195112712Y-79461015D01*
X195160962Y-79454662D01*
X195257465Y-79441958D01*
X195392354Y-79386085D01*
X195508185Y-79297204D01*
X195597066Y-79181373D01*
X195652939Y-79046484D01*
X195666332Y-78944752D01*
X195671996Y-78901731D01*
X195671996Y-78901728D01*
X195652939Y-78756977D01*
X195652939Y-78756976D01*
X195597066Y-78622088D01*
X195580116Y-78599998D01*
X199640715Y-78599998D01*
X199640715Y-78600001D01*
X199659771Y-78744752D01*
X199659773Y-78744757D01*
X199715642Y-78879638D01*
X199715645Y-78879644D01*
X199804525Y-78995473D01*
X199804526Y-78995474D01*
X199920355Y-79084354D01*
X199920361Y-79084357D01*
X199957572Y-79099770D01*
X200055246Y-79140228D01*
X200127623Y-79149756D01*
X200199999Y-79159285D01*
X200200000Y-79159285D01*
X200200001Y-79159285D01*
X200248251Y-79152932D01*
X200344754Y-79140228D01*
X200479643Y-79084355D01*
X200595474Y-78995474D01*
X200684355Y-78879643D01*
X200717345Y-78799998D01*
X219540715Y-78799998D01*
X219540715Y-78800001D01*
X219559771Y-78944752D01*
X219559773Y-78944757D01*
X219615642Y-79079638D01*
X219615645Y-79079644D01*
X219704525Y-79195473D01*
X219704526Y-79195474D01*
X219820355Y-79284354D01*
X219820361Y-79284357D01*
X219851377Y-79297204D01*
X219955246Y-79340228D01*
X220027623Y-79349756D01*
X220099999Y-79359285D01*
X220100000Y-79359285D01*
X220100001Y-79359285D01*
X220163273Y-79350955D01*
X220244754Y-79340228D01*
X220379643Y-79284355D01*
X220495474Y-79195474D01*
X220584355Y-79079643D01*
X220640228Y-78944754D01*
X220659285Y-78800000D01*
X220640228Y-78655246D01*
X220584355Y-78520358D01*
X220495474Y-78404526D01*
X220379643Y-78315645D01*
X220379640Y-78315644D01*
X220379638Y-78315642D01*
X220244757Y-78259773D01*
X220244752Y-78259771D01*
X220100001Y-78240715D01*
X220099999Y-78240715D01*
X219955247Y-78259771D01*
X219955245Y-78259772D01*
X219820361Y-78315643D01*
X219820358Y-78315644D01*
X219820358Y-78315645D01*
X219704526Y-78404526D01*
X219626468Y-78506254D01*
X219615643Y-78520361D01*
X219559772Y-78655245D01*
X219559771Y-78655247D01*
X219540715Y-78799998D01*
X200717345Y-78799998D01*
X200740228Y-78744754D01*
X200759285Y-78600000D01*
X200740228Y-78455246D01*
X200684355Y-78320358D01*
X200595474Y-78204526D01*
X200479643Y-78115645D01*
X200479640Y-78115644D01*
X200479638Y-78115642D01*
X200344757Y-78059773D01*
X200344752Y-78059771D01*
X200200001Y-78040715D01*
X200199999Y-78040715D01*
X200055247Y-78059771D01*
X200055245Y-78059772D01*
X199920361Y-78115643D01*
X199920358Y-78115644D01*
X199920358Y-78115645D01*
X199804526Y-78204526D01*
X199719262Y-78315645D01*
X199715643Y-78320361D01*
X199659772Y-78455245D01*
X199659771Y-78455247D01*
X199640715Y-78599998D01*
X195580116Y-78599998D01*
X195508185Y-78506256D01*
X195392354Y-78417375D01*
X195392351Y-78417374D01*
X195392349Y-78417372D01*
X195257468Y-78361503D01*
X195257463Y-78361501D01*
X195112712Y-78342445D01*
X195112710Y-78342445D01*
X194967958Y-78361501D01*
X194967956Y-78361502D01*
X194833072Y-78417373D01*
X194833069Y-78417374D01*
X194833069Y-78417375D01*
X194717237Y-78506256D01*
X194676547Y-78559285D01*
X194628354Y-78622091D01*
X194572483Y-78756975D01*
X194572482Y-78756977D01*
X194553426Y-78901728D01*
X185635683Y-78901728D01*
X185564994Y-78892422D01*
X185564992Y-78892422D01*
X185420240Y-78911478D01*
X185420238Y-78911479D01*
X185285354Y-78967350D01*
X185285351Y-78967351D01*
X185285351Y-78967352D01*
X185169519Y-79056233D01*
X185090445Y-79159285D01*
X185080636Y-79172068D01*
X185024765Y-79306952D01*
X185024764Y-79306954D01*
X185005708Y-79451705D01*
X185005708Y-79451708D01*
X185015471Y-79525869D01*
X185004705Y-79594905D01*
X184958325Y-79647160D01*
X184939986Y-79656615D01*
X184819085Y-79706695D01*
X184819083Y-79706696D01*
X184703251Y-79795577D01*
X184614759Y-79910903D01*
X184614368Y-79911412D01*
X184558497Y-80046296D01*
X184558496Y-80046298D01*
X184539440Y-80191049D01*
X172021052Y-80191049D01*
X172040228Y-80144754D01*
X172058594Y-80005246D01*
X172059285Y-80000001D01*
X172059285Y-79999998D01*
X172046580Y-79903497D01*
X172040228Y-79855246D01*
X171984355Y-79720358D01*
X171895474Y-79604526D01*
X171779643Y-79515645D01*
X171779640Y-79515644D01*
X171779638Y-79515642D01*
X171644757Y-79459773D01*
X171644752Y-79459771D01*
X171500001Y-79440715D01*
X171499999Y-79440715D01*
X171355247Y-79459771D01*
X171355245Y-79459772D01*
X171220361Y-79515643D01*
X171220358Y-79515644D01*
X171220358Y-79515645D01*
X171104526Y-79604526D01*
X171031092Y-79700228D01*
X171015643Y-79720361D01*
X170959772Y-79855245D01*
X170959771Y-79855247D01*
X170940715Y-79999998D01*
X163689573Y-79999998D01*
X163579643Y-79915645D01*
X163579640Y-79915644D01*
X163579638Y-79915642D01*
X163444757Y-79859773D01*
X163444752Y-79859771D01*
X163300001Y-79840715D01*
X163299999Y-79840715D01*
X163155247Y-79859771D01*
X163155245Y-79859772D01*
X163020361Y-79915643D01*
X163020358Y-79915644D01*
X163020358Y-79915645D01*
X162904526Y-80004526D01*
X162872862Y-80045792D01*
X162815643Y-80120361D01*
X162759772Y-80255245D01*
X162759771Y-80255247D01*
X162740715Y-80399998D01*
X160852180Y-80399998D01*
X160917001Y-80350259D01*
X161002580Y-80238731D01*
X161056377Y-80108853D01*
X161070236Y-80003584D01*
X161074726Y-79969478D01*
X161074726Y-79969475D01*
X161056377Y-79830102D01*
X161056375Y-79830097D01*
X161042076Y-79795577D01*
X161010920Y-79720358D01*
X161002582Y-79700228D01*
X161002581Y-79700227D01*
X161002580Y-79700224D01*
X160917001Y-79588695D01*
X160916999Y-79588694D01*
X160916999Y-79588693D01*
X160805473Y-79503116D01*
X160805471Y-79503114D01*
X160675598Y-79449320D01*
X160675593Y-79449318D01*
X160536220Y-79430970D01*
X160536218Y-79430970D01*
X160396844Y-79449318D01*
X160396839Y-79449320D01*
X160266970Y-79503113D01*
X160266969Y-79503114D01*
X160266966Y-79503115D01*
X160266966Y-79503116D01*
X160155437Y-79588695D01*
X160096392Y-79665645D01*
X160069856Y-79700227D01*
X160069855Y-79700228D01*
X160016062Y-79830097D01*
X160016060Y-79830102D01*
X159997712Y-79969475D01*
X156546082Y-79969475D01*
X156564564Y-79552371D01*
X156564815Y-79548252D01*
X156567354Y-79515645D01*
X156656113Y-78375786D01*
X156656496Y-78371746D01*
X156786935Y-77202978D01*
X156787461Y-77198893D01*
X156788404Y-77192417D01*
X156850997Y-76762498D01*
X158203215Y-76762498D01*
X158203215Y-76762501D01*
X158222271Y-76907252D01*
X158222273Y-76907257D01*
X158278142Y-77042138D01*
X158278145Y-77042144D01*
X158367025Y-77157973D01*
X158367026Y-77157974D01*
X158482855Y-77246854D01*
X158482861Y-77246857D01*
X158550301Y-77274791D01*
X158617746Y-77302728D01*
X158659698Y-77308251D01*
X158762499Y-77321785D01*
X158762500Y-77321785D01*
X158762501Y-77321785D01*
X158810751Y-77315432D01*
X158907254Y-77302728D01*
X159042143Y-77246855D01*
X159157974Y-77157974D01*
X159246855Y-77042143D01*
X159280511Y-76960891D01*
X161140715Y-76960891D01*
X161140715Y-76960894D01*
X161159771Y-77105645D01*
X161159773Y-77105650D01*
X161215642Y-77240531D01*
X161215645Y-77240537D01*
X161304525Y-77356366D01*
X161304526Y-77356367D01*
X161420355Y-77445247D01*
X161420361Y-77445250D01*
X161455421Y-77459772D01*
X161555246Y-77501121D01*
X161627623Y-77510649D01*
X161699999Y-77520178D01*
X161699999Y-77520177D01*
X161700000Y-77520178D01*
X161793013Y-77507932D01*
X161862045Y-77518697D01*
X161914301Y-77565077D01*
X161932135Y-77614685D01*
X161947665Y-77732646D01*
X161947666Y-77732650D01*
X162003535Y-77867531D01*
X162003538Y-77867537D01*
X162092418Y-77983366D01*
X162092419Y-77983367D01*
X162208248Y-78072247D01*
X162208254Y-78072250D01*
X162263555Y-78095156D01*
X162343139Y-78128121D01*
X162415516Y-78137649D01*
X162487892Y-78147178D01*
X162487893Y-78147178D01*
X162487894Y-78147178D01*
X162540699Y-78140226D01*
X162632647Y-78128121D01*
X162767536Y-78072248D01*
X162861693Y-77999998D01*
X187940715Y-77999998D01*
X187940715Y-78000001D01*
X187959771Y-78144752D01*
X187959773Y-78144757D01*
X188015642Y-78279638D01*
X188015645Y-78279644D01*
X188104525Y-78395473D01*
X188104526Y-78395474D01*
X188220355Y-78484354D01*
X188220361Y-78484357D01*
X188287801Y-78512291D01*
X188355246Y-78540228D01*
X188427623Y-78549756D01*
X188499999Y-78559285D01*
X188500000Y-78559285D01*
X188500001Y-78559285D01*
X188548251Y-78552932D01*
X188644754Y-78540228D01*
X188779643Y-78484355D01*
X188895474Y-78395474D01*
X188984355Y-78279643D01*
X189040228Y-78144754D01*
X189059285Y-78000000D01*
X189057225Y-77984355D01*
X189040228Y-77855247D01*
X189040228Y-77855246D01*
X188984355Y-77720358D01*
X188895474Y-77604526D01*
X188779643Y-77515645D01*
X188779640Y-77515644D01*
X188779638Y-77515642D01*
X188644757Y-77459773D01*
X188644752Y-77459771D01*
X188500001Y-77440715D01*
X188499999Y-77440715D01*
X188355247Y-77459771D01*
X188355245Y-77459772D01*
X188220361Y-77515643D01*
X188220358Y-77515644D01*
X188220358Y-77515645D01*
X188104526Y-77604526D01*
X188031510Y-77699683D01*
X188015643Y-77720361D01*
X187959772Y-77855245D01*
X187959771Y-77855247D01*
X187940715Y-77999998D01*
X162861693Y-77999998D01*
X162883367Y-77983367D01*
X162972248Y-77867536D01*
X163028121Y-77732647D01*
X163045584Y-77599998D01*
X163047178Y-77587894D01*
X163047178Y-77587891D01*
X163030259Y-77459379D01*
X163028121Y-77443139D01*
X162972248Y-77308251D01*
X162883367Y-77192419D01*
X162767536Y-77103538D01*
X162767533Y-77103537D01*
X162767531Y-77103535D01*
X162632650Y-77047666D01*
X162632645Y-77047664D01*
X162487894Y-77028608D01*
X162487892Y-77028608D01*
X162394881Y-77040853D01*
X162325846Y-77030087D01*
X162273590Y-76983707D01*
X162255757Y-76934101D01*
X162240228Y-76816139D01*
X162233542Y-76799998D01*
X167340715Y-76799998D01*
X167340715Y-76800001D01*
X167359771Y-76944752D01*
X167359773Y-76944757D01*
X167415642Y-77079638D01*
X167415645Y-77079644D01*
X167504525Y-77195473D01*
X167504526Y-77195474D01*
X167620355Y-77284354D01*
X167620361Y-77284357D01*
X167678047Y-77308251D01*
X167755246Y-77340228D01*
X167781505Y-77343685D01*
X167899999Y-77359285D01*
X167900000Y-77359285D01*
X167900001Y-77359285D01*
X167957333Y-77351737D01*
X168044754Y-77340228D01*
X168179643Y-77284355D01*
X168295474Y-77195474D01*
X168384355Y-77079643D01*
X168440228Y-76944754D01*
X168457160Y-76816139D01*
X168459285Y-76800001D01*
X168459285Y-76799998D01*
X168440228Y-76655247D01*
X168440228Y-76655246D01*
X168384355Y-76520358D01*
X168295474Y-76404526D01*
X168179643Y-76315645D01*
X168179640Y-76315644D01*
X168179638Y-76315642D01*
X168044757Y-76259773D01*
X168044752Y-76259771D01*
X167900001Y-76240715D01*
X167899999Y-76240715D01*
X167755247Y-76259771D01*
X167755245Y-76259772D01*
X167620361Y-76315643D01*
X167620358Y-76315644D01*
X167620358Y-76315645D01*
X167504526Y-76404526D01*
X167416001Y-76519895D01*
X167415643Y-76520361D01*
X167359772Y-76655245D01*
X167359771Y-76655247D01*
X167340715Y-76799998D01*
X162233542Y-76799998D01*
X162184355Y-76681251D01*
X162095474Y-76565419D01*
X161979643Y-76476538D01*
X161979640Y-76476537D01*
X161979638Y-76476535D01*
X161844757Y-76420666D01*
X161844752Y-76420664D01*
X161700001Y-76401608D01*
X161699999Y-76401608D01*
X161555247Y-76420664D01*
X161555245Y-76420665D01*
X161420361Y-76476536D01*
X161420358Y-76476537D01*
X161420358Y-76476538D01*
X161304526Y-76565419D01*
X161235600Y-76655246D01*
X161215643Y-76681254D01*
X161159772Y-76816138D01*
X161159771Y-76816140D01*
X161140715Y-76960891D01*
X159280511Y-76960891D01*
X159302728Y-76907254D01*
X159321785Y-76762500D01*
X159320982Y-76756404D01*
X159303610Y-76624443D01*
X159302728Y-76617746D01*
X159246855Y-76482858D01*
X159157974Y-76367026D01*
X159042143Y-76278145D01*
X159042140Y-76278144D01*
X159042138Y-76278142D01*
X158907257Y-76222273D01*
X158907252Y-76222271D01*
X158762501Y-76203215D01*
X158762499Y-76203215D01*
X158617747Y-76222271D01*
X158617745Y-76222272D01*
X158482861Y-76278143D01*
X158482858Y-76278144D01*
X158482858Y-76278145D01*
X158367026Y-76367026D01*
X158293588Y-76462733D01*
X158278143Y-76482861D01*
X158222272Y-76617745D01*
X158222271Y-76617747D01*
X158203215Y-76762498D01*
X156850997Y-76762498D01*
X156956888Y-76035188D01*
X156957533Y-76031219D01*
X157125071Y-75099998D01*
X163640715Y-75099998D01*
X163640715Y-75100001D01*
X163659771Y-75244752D01*
X163659773Y-75244757D01*
X163715642Y-75379638D01*
X163715645Y-75379644D01*
X163804525Y-75495473D01*
X163804526Y-75495474D01*
X163920355Y-75584354D01*
X163920361Y-75584357D01*
X163968989Y-75604499D01*
X164055246Y-75640228D01*
X164089610Y-75644752D01*
X164199999Y-75659285D01*
X164200000Y-75659285D01*
X164200001Y-75659285D01*
X164248251Y-75652932D01*
X164344754Y-75640228D01*
X164479643Y-75584355D01*
X164595474Y-75495474D01*
X164684355Y-75379643D01*
X164740228Y-75244754D01*
X164758689Y-75104526D01*
X164759285Y-75100001D01*
X164759285Y-75099998D01*
X164740228Y-74955247D01*
X164740228Y-74955246D01*
X164684355Y-74820358D01*
X164595474Y-74704526D01*
X164479643Y-74615645D01*
X164479640Y-74615644D01*
X164479638Y-74615642D01*
X164344757Y-74559773D01*
X164344752Y-74559771D01*
X164200001Y-74540715D01*
X164199999Y-74540715D01*
X164055247Y-74559771D01*
X164055245Y-74559772D01*
X163920361Y-74615643D01*
X163920358Y-74615644D01*
X163920358Y-74615645D01*
X163804526Y-74704526D01*
X163727794Y-74804526D01*
X163715643Y-74820361D01*
X163659772Y-74955245D01*
X163659771Y-74955247D01*
X163640715Y-75099998D01*
X157125071Y-75099998D01*
X157165784Y-74873707D01*
X157166572Y-74869717D01*
X157245932Y-74499999D01*
X169325768Y-74499999D01*
X169325768Y-74500000D01*
X169344654Y-74703816D01*
X169344654Y-74703818D01*
X169344655Y-74703821D01*
X169394631Y-74879468D01*
X169400673Y-74900704D01*
X169491912Y-75083935D01*
X169615269Y-75247287D01*
X169766537Y-75385185D01*
X169766539Y-75385187D01*
X169940569Y-75492942D01*
X169940575Y-75492945D01*
X169958789Y-75500001D01*
X170131444Y-75566888D01*
X170332653Y-75604500D01*
X170332656Y-75604500D01*
X170537344Y-75604500D01*
X170537347Y-75604500D01*
X170738556Y-75566888D01*
X170929427Y-75492944D01*
X171103462Y-75385186D01*
X171232008Y-75268000D01*
X171254730Y-75247287D01*
X171256643Y-75244754D01*
X171378088Y-75083935D01*
X171469328Y-74900701D01*
X171525345Y-74703821D01*
X171544232Y-74500000D01*
X171525345Y-74296179D01*
X171469328Y-74099299D01*
X171378088Y-73916065D01*
X171254732Y-73752715D01*
X171254730Y-73752712D01*
X171103462Y-73614814D01*
X171103460Y-73614812D01*
X170929430Y-73507057D01*
X170929424Y-73507054D01*
X170778993Y-73448777D01*
X170738556Y-73433112D01*
X170537347Y-73395500D01*
X170332653Y-73395500D01*
X170131444Y-73433112D01*
X170131441Y-73433112D01*
X170131441Y-73433113D01*
X169940575Y-73507054D01*
X169940569Y-73507057D01*
X169766539Y-73614812D01*
X169766537Y-73614814D01*
X169615269Y-73752712D01*
X169491912Y-73916064D01*
X169400673Y-74099295D01*
X169344654Y-74296183D01*
X169325768Y-74499999D01*
X157245932Y-74499999D01*
X157413370Y-73719949D01*
X157414304Y-73715926D01*
X157417154Y-73704524D01*
X157583702Y-73038033D01*
X157619052Y-72977766D01*
X157681373Y-72946177D01*
X157704003Y-72944095D01*
X166148266Y-72944095D01*
X173422613Y-72944095D01*
X173489652Y-72963780D01*
X173535407Y-73016584D01*
X173545351Y-73085742D01*
X173516326Y-73149298D01*
X173510300Y-73155769D01*
X173391438Y-73274631D01*
X173306888Y-73359181D01*
X173245565Y-73392666D01*
X173219207Y-73395500D01*
X172099936Y-73395500D01*
X172025698Y-73410266D01*
X171941515Y-73466515D01*
X171885266Y-73550699D01*
X171885264Y-73550703D01*
X171870500Y-73624928D01*
X171870500Y-75375063D01*
X171885266Y-75449301D01*
X171941515Y-75533484D01*
X171975234Y-75556014D01*
X172025699Y-75589734D01*
X172025702Y-75589734D01*
X172025703Y-75589735D01*
X172050666Y-75594700D01*
X172099933Y-75604500D01*
X173850066Y-75604499D01*
X173924301Y-75589734D01*
X174008484Y-75533484D01*
X174064734Y-75449301D01*
X174079500Y-75375067D01*
X174079499Y-74255791D01*
X174099184Y-74188753D01*
X174115813Y-74168115D01*
X174275612Y-74008316D01*
X174336934Y-73974834D01*
X174363292Y-73972000D01*
X177122499Y-73972000D01*
X177189538Y-73991685D01*
X177235293Y-74044489D01*
X177245237Y-74113647D01*
X177216212Y-74177203D01*
X177197985Y-74194376D01*
X177053273Y-74305416D01*
X177053266Y-74305422D01*
X176881749Y-74476939D01*
X176881743Y-74476946D01*
X176734077Y-74669389D01*
X176612787Y-74879468D01*
X176612783Y-74879477D01*
X176519957Y-75103578D01*
X176457171Y-75337897D01*
X176425510Y-75578394D01*
X176425510Y-75820971D01*
X176457171Y-76061468D01*
X176519957Y-76295787D01*
X176578188Y-76436369D01*
X176612786Y-76519895D01*
X176734074Y-76729972D01*
X176734076Y-76729975D01*
X176734077Y-76729976D01*
X176881743Y-76922419D01*
X176881749Y-76922426D01*
X177053266Y-77093943D01*
X177053273Y-77093949D01*
X177151432Y-77169269D01*
X177245721Y-77241619D01*
X177455798Y-77362907D01*
X177643644Y-77440715D01*
X177678724Y-77455246D01*
X177679910Y-77455737D01*
X177914221Y-77518521D01*
X178094596Y-77542267D01*
X178154721Y-77550183D01*
X178154722Y-77550183D01*
X178397299Y-77550183D01*
X178445398Y-77543850D01*
X178637799Y-77518521D01*
X178872110Y-77455737D01*
X179096222Y-77362907D01*
X179306299Y-77241619D01*
X179498748Y-77093948D01*
X179670275Y-76922421D01*
X179817946Y-76729972D01*
X179939234Y-76519895D01*
X180032064Y-76295783D01*
X180094848Y-76061472D01*
X180126510Y-75820971D01*
X180126510Y-75578395D01*
X180094848Y-75337894D01*
X180057899Y-75199998D01*
X192140715Y-75199998D01*
X192140715Y-75200001D01*
X192159771Y-75344752D01*
X192159773Y-75344757D01*
X192215642Y-75479638D01*
X192215645Y-75479644D01*
X192304525Y-75595473D01*
X192304526Y-75595474D01*
X192420355Y-75684354D01*
X192420361Y-75684357D01*
X192487801Y-75712291D01*
X192555246Y-75740228D01*
X192627623Y-75749756D01*
X192699999Y-75759285D01*
X192700000Y-75759285D01*
X192700001Y-75759285D01*
X192748251Y-75752932D01*
X192844754Y-75740228D01*
X192979643Y-75684355D01*
X193095474Y-75595474D01*
X193184355Y-75479643D01*
X193240228Y-75344754D01*
X193256560Y-75220698D01*
X193259285Y-75200001D01*
X193259285Y-75199998D01*
X193244005Y-75083935D01*
X193240228Y-75055246D01*
X193184355Y-74920358D01*
X193095474Y-74804526D01*
X192979643Y-74715645D01*
X192979640Y-74715644D01*
X192979638Y-74715642D01*
X192844757Y-74659773D01*
X192844752Y-74659771D01*
X192700001Y-74640715D01*
X192699999Y-74640715D01*
X192555247Y-74659771D01*
X192555245Y-74659772D01*
X192420361Y-74715643D01*
X192420358Y-74715644D01*
X192420358Y-74715645D01*
X192304526Y-74804526D01*
X192230729Y-74900701D01*
X192215643Y-74920361D01*
X192159772Y-75055245D01*
X192159771Y-75055247D01*
X192140715Y-75199998D01*
X180057899Y-75199998D01*
X180032064Y-75103583D01*
X179939234Y-74879471D01*
X179817946Y-74669394D01*
X179733830Y-74559772D01*
X179670276Y-74476946D01*
X179670270Y-74476939D01*
X179498753Y-74305422D01*
X179498746Y-74305416D01*
X179354035Y-74194376D01*
X179312832Y-74137948D01*
X179308677Y-74068202D01*
X179342889Y-74007282D01*
X179404606Y-73974529D01*
X179429521Y-73972000D01*
X182681641Y-73972000D01*
X182748680Y-73991685D01*
X182794435Y-74044489D01*
X182804579Y-74112184D01*
X182801188Y-74137948D01*
X182790715Y-74217498D01*
X182790715Y-74217501D01*
X182809771Y-74362252D01*
X182809773Y-74362257D01*
X182865642Y-74497138D01*
X182865645Y-74497144D01*
X182954525Y-74612973D01*
X182954526Y-74612974D01*
X183070355Y-74701854D01*
X183070361Y-74701857D01*
X183137801Y-74729791D01*
X183205246Y-74757728D01*
X183277623Y-74767256D01*
X183349999Y-74776785D01*
X183350000Y-74776785D01*
X183350001Y-74776785D01*
X183398251Y-74770432D01*
X183494754Y-74757728D01*
X183629643Y-74701855D01*
X183745474Y-74612974D01*
X183834355Y-74497143D01*
X183890228Y-74362254D01*
X183909285Y-74217500D01*
X183907564Y-74204430D01*
X183898812Y-74137948D01*
X183895420Y-74112184D01*
X183906186Y-74043150D01*
X183952565Y-73990894D01*
X184018359Y-73972000D01*
X195094065Y-73972000D01*
X195161104Y-73991685D01*
X195206859Y-74044489D01*
X195216803Y-74113647D01*
X195187778Y-74177203D01*
X195162956Y-74199102D01*
X195154580Y-74204698D01*
X195154576Y-74204701D01*
X195050701Y-74308576D01*
X195050698Y-74308580D01*
X194969083Y-74430724D01*
X194969078Y-74430733D01*
X194912861Y-74566455D01*
X194912858Y-74566465D01*
X194884200Y-74710540D01*
X194884200Y-74857459D01*
X194912858Y-75001534D01*
X194912861Y-75001544D01*
X194969078Y-75137266D01*
X194969083Y-75137275D01*
X195050698Y-75259419D01*
X195050701Y-75259423D01*
X195154576Y-75363298D01*
X195154580Y-75363301D01*
X195276724Y-75444916D01*
X195276733Y-75444921D01*
X195301800Y-75455304D01*
X195412458Y-75501140D01*
X195504199Y-75519388D01*
X195559324Y-75530353D01*
X195621235Y-75562737D01*
X195655809Y-75623453D01*
X195658072Y-75668155D01*
X195640715Y-75799998D01*
X195640715Y-75800001D01*
X195658072Y-75931844D01*
X195647306Y-76000879D01*
X195600926Y-76053135D01*
X195559324Y-76069646D01*
X195412465Y-76098858D01*
X195412455Y-76098861D01*
X195276733Y-76155078D01*
X195276724Y-76155083D01*
X195154580Y-76236698D01*
X195154576Y-76236701D01*
X195050701Y-76340576D01*
X195050698Y-76340580D01*
X194969083Y-76462724D01*
X194969078Y-76462733D01*
X194912861Y-76598455D01*
X194912858Y-76598465D01*
X194884200Y-76742540D01*
X194884200Y-76889459D01*
X194912858Y-77033534D01*
X194912861Y-77033544D01*
X194969078Y-77169266D01*
X194969083Y-77169275D01*
X195050698Y-77291419D01*
X195050701Y-77291423D01*
X195154576Y-77395298D01*
X195154580Y-77395301D01*
X195276724Y-77476916D01*
X195276730Y-77476919D01*
X195276731Y-77476920D01*
X195412458Y-77533140D01*
X195556540Y-77561799D01*
X195556544Y-77561800D01*
X195556545Y-77561800D01*
X195703456Y-77561800D01*
X195703457Y-77561799D01*
X195847542Y-77533140D01*
X195983269Y-77476920D01*
X196105420Y-77395301D01*
X196133962Y-77366758D01*
X196195283Y-77333274D01*
X196264975Y-77338258D01*
X196320909Y-77380128D01*
X196345327Y-77445592D01*
X196344582Y-77470625D01*
X196340715Y-77499998D01*
X196340715Y-77500001D01*
X196359771Y-77644752D01*
X196359773Y-77644757D01*
X196415642Y-77779638D01*
X196415645Y-77779644D01*
X196504525Y-77895473D01*
X196504526Y-77895474D01*
X196620355Y-77984354D01*
X196620361Y-77984357D01*
X196687801Y-78012291D01*
X196755246Y-78040228D01*
X196827623Y-78049756D01*
X196899999Y-78059285D01*
X196900000Y-78059285D01*
X196900001Y-78059285D01*
X196948251Y-78052932D01*
X197044754Y-78040228D01*
X197179643Y-77984355D01*
X197295474Y-77895474D01*
X197384355Y-77779643D01*
X197407973Y-77722625D01*
X197435439Y-77656316D01*
X197479280Y-77601912D01*
X197545574Y-77579847D01*
X197613273Y-77597126D01*
X197660884Y-77648263D01*
X197664561Y-77656316D01*
X197715642Y-77779638D01*
X197715645Y-77779644D01*
X197804525Y-77895473D01*
X197804526Y-77895474D01*
X197920355Y-77984354D01*
X197920361Y-77984357D01*
X197987801Y-78012291D01*
X198055246Y-78040228D01*
X198127623Y-78049756D01*
X198199999Y-78059285D01*
X198200000Y-78059285D01*
X198200001Y-78059285D01*
X198248251Y-78052932D01*
X198344754Y-78040228D01*
X198479643Y-77984355D01*
X198595474Y-77895474D01*
X198684355Y-77779643D01*
X198685438Y-77777029D01*
X198686941Y-77775162D01*
X198688421Y-77772601D01*
X198688820Y-77772831D01*
X198729277Y-77722625D01*
X198795571Y-77700558D01*
X198863271Y-77717835D01*
X198910882Y-77768971D01*
X198914562Y-77777029D01*
X198915643Y-77779640D01*
X198915645Y-77779644D01*
X199004525Y-77895473D01*
X199004526Y-77895474D01*
X199120355Y-77984354D01*
X199120361Y-77984357D01*
X199187801Y-78012291D01*
X199255246Y-78040228D01*
X199327623Y-78049756D01*
X199399999Y-78059285D01*
X199400000Y-78059285D01*
X199400001Y-78059285D01*
X199448251Y-78052932D01*
X199544754Y-78040228D01*
X199679643Y-77984355D01*
X199795474Y-77895474D01*
X199884355Y-77779643D01*
X199917476Y-77699681D01*
X210716725Y-77699681D01*
X210716725Y-77699684D01*
X210735781Y-77844435D01*
X210735783Y-77844440D01*
X210791652Y-77979321D01*
X210791655Y-77979327D01*
X210880535Y-78095156D01*
X210880536Y-78095157D01*
X210996365Y-78184037D01*
X210996371Y-78184040D01*
X211045824Y-78204524D01*
X211131256Y-78239911D01*
X211203633Y-78249439D01*
X211276009Y-78258968D01*
X211276010Y-78258968D01*
X211276011Y-78258968D01*
X211324261Y-78252615D01*
X211420764Y-78239911D01*
X211555653Y-78184038D01*
X211671484Y-78095157D01*
X211760365Y-77979326D01*
X211816238Y-77844437D01*
X211835295Y-77699683D01*
X211822171Y-77599998D01*
X218240715Y-77599998D01*
X218240715Y-77600001D01*
X218259771Y-77744752D01*
X218259773Y-77744757D01*
X218315642Y-77879638D01*
X218315645Y-77879644D01*
X218404525Y-77995473D01*
X218404526Y-77995474D01*
X218520355Y-78084354D01*
X218520361Y-78084357D01*
X218546435Y-78095157D01*
X218655246Y-78140228D01*
X218689610Y-78144752D01*
X218799999Y-78159285D01*
X218800000Y-78159285D01*
X218800001Y-78159285D01*
X218848251Y-78152932D01*
X218944754Y-78140228D01*
X219079643Y-78084355D01*
X219195474Y-77995474D01*
X219284355Y-77879643D01*
X219340228Y-77744754D01*
X219358689Y-77604526D01*
X219359285Y-77600001D01*
X219359285Y-77599998D01*
X219346120Y-77499998D01*
X219340228Y-77455246D01*
X219284355Y-77320358D01*
X219195474Y-77204526D01*
X219079643Y-77115645D01*
X219079640Y-77115644D01*
X219079638Y-77115642D01*
X218944757Y-77059773D01*
X218944752Y-77059771D01*
X218800001Y-77040715D01*
X218799999Y-77040715D01*
X218655247Y-77059771D01*
X218655245Y-77059772D01*
X218520361Y-77115643D01*
X218520358Y-77115644D01*
X218520358Y-77115645D01*
X218404526Y-77204526D01*
X218331695Y-77299442D01*
X218315643Y-77320361D01*
X218259772Y-77455245D01*
X218259771Y-77455247D01*
X218240715Y-77599998D01*
X211822171Y-77599998D01*
X211816238Y-77554929D01*
X211760365Y-77420041D01*
X211671484Y-77304209D01*
X211555653Y-77215328D01*
X211555650Y-77215327D01*
X211555648Y-77215325D01*
X211420767Y-77159456D01*
X211420762Y-77159454D01*
X211276011Y-77140398D01*
X211276009Y-77140398D01*
X211131257Y-77159454D01*
X211131255Y-77159455D01*
X210996371Y-77215326D01*
X210996368Y-77215327D01*
X210996368Y-77215328D01*
X210880536Y-77304209D01*
X210822282Y-77380128D01*
X210791653Y-77420044D01*
X210735782Y-77554928D01*
X210735781Y-77554930D01*
X210716725Y-77699681D01*
X199917476Y-77699681D01*
X199940228Y-77644754D01*
X199958241Y-77507932D01*
X199959285Y-77500001D01*
X199959285Y-77499998D01*
X199941237Y-77362909D01*
X199940228Y-77355246D01*
X199884355Y-77220358D01*
X199795474Y-77104526D01*
X199679643Y-77015645D01*
X199679640Y-77015644D01*
X199679638Y-77015642D01*
X199544757Y-76959773D01*
X199544752Y-76959771D01*
X199400001Y-76940715D01*
X199399999Y-76940715D01*
X199255247Y-76959771D01*
X199255245Y-76959772D01*
X199120361Y-77015643D01*
X199120358Y-77015644D01*
X199120358Y-77015645D01*
X199004526Y-77104526D01*
X198915645Y-77220358D01*
X198915644Y-77220359D01*
X198915644Y-77220360D01*
X198914561Y-77222975D01*
X198913054Y-77224843D01*
X198911579Y-77227400D01*
X198911180Y-77227169D01*
X198870719Y-77277378D01*
X198804425Y-77299442D01*
X198736726Y-77282162D01*
X198689116Y-77231025D01*
X198685439Y-77222975D01*
X198684355Y-77220358D01*
X198595474Y-77104526D01*
X198479643Y-77015645D01*
X198479640Y-77015644D01*
X198479638Y-77015642D01*
X198344757Y-76959773D01*
X198344752Y-76959771D01*
X198200001Y-76940715D01*
X198199999Y-76940715D01*
X198055247Y-76959771D01*
X198055245Y-76959772D01*
X197920361Y-77015643D01*
X197920358Y-77015644D01*
X197920358Y-77015645D01*
X197804526Y-77104526D01*
X197727794Y-77204526D01*
X197715643Y-77220361D01*
X197664561Y-77343685D01*
X197620720Y-77398088D01*
X197554426Y-77420153D01*
X197486727Y-77402874D01*
X197439116Y-77351737D01*
X197435439Y-77343685D01*
X197420762Y-77308251D01*
X197384355Y-77220358D01*
X197295474Y-77104526D01*
X197179643Y-77015645D01*
X197179640Y-77015644D01*
X197179638Y-77015642D01*
X197044757Y-76959773D01*
X197044752Y-76959771D01*
X196900001Y-76940715D01*
X196899999Y-76940715D01*
X196755247Y-76959771D01*
X196755245Y-76959772D01*
X196620360Y-77015643D01*
X196620357Y-77015645D01*
X196563505Y-77059269D01*
X196498335Y-77084463D01*
X196429891Y-77070424D01*
X196379901Y-77021610D01*
X196364238Y-76953518D01*
X196366402Y-76936701D01*
X196366920Y-76934099D01*
X196375800Y-76889455D01*
X196375800Y-76742545D01*
X196347140Y-76598458D01*
X196302944Y-76491761D01*
X196295476Y-76422292D01*
X196326751Y-76359813D01*
X196370052Y-76329748D01*
X196479643Y-76284355D01*
X196595474Y-76195474D01*
X196684355Y-76079643D01*
X196740228Y-75944754D01*
X196759285Y-75800000D01*
X196756604Y-75779638D01*
X196749614Y-75726540D01*
X199964200Y-75726540D01*
X199964200Y-75873459D01*
X199992858Y-76017534D01*
X199992861Y-76017544D01*
X200049078Y-76153266D01*
X200049083Y-76153275D01*
X200130698Y-76275419D01*
X200130701Y-76275423D01*
X200234576Y-76379298D01*
X200234580Y-76379301D01*
X200356724Y-76460916D01*
X200356730Y-76460919D01*
X200356731Y-76460920D01*
X200492458Y-76517140D01*
X200636540Y-76545799D01*
X200636544Y-76545800D01*
X200636545Y-76545800D01*
X200783456Y-76545800D01*
X200783457Y-76545799D01*
X200927542Y-76517140D01*
X201063269Y-76460920D01*
X201185420Y-76379301D01*
X201289301Y-76275420D01*
X201370920Y-76153269D01*
X201427140Y-76017542D01*
X201455800Y-75873455D01*
X201455800Y-75726545D01*
X201427140Y-75582458D01*
X201371984Y-75449300D01*
X201370921Y-75446733D01*
X201370916Y-75446724D01*
X201289301Y-75324580D01*
X201289298Y-75324576D01*
X201185423Y-75220701D01*
X201185419Y-75220698D01*
X201063275Y-75139083D01*
X201063266Y-75139078D01*
X200931151Y-75084355D01*
X200927542Y-75082860D01*
X200927538Y-75082859D01*
X200927534Y-75082858D01*
X200783459Y-75054200D01*
X200783455Y-75054200D01*
X200636545Y-75054200D01*
X200636540Y-75054200D01*
X200492465Y-75082858D01*
X200492455Y-75082861D01*
X200356733Y-75139078D01*
X200356724Y-75139083D01*
X200234580Y-75220698D01*
X200234576Y-75220701D01*
X200130701Y-75324576D01*
X200130698Y-75324580D01*
X200049083Y-75446724D01*
X200049078Y-75446733D01*
X199992861Y-75582455D01*
X199992858Y-75582465D01*
X199964200Y-75726540D01*
X196749614Y-75726540D01*
X196740228Y-75655247D01*
X196740228Y-75655246D01*
X196684355Y-75520358D01*
X196595474Y-75404526D01*
X196479643Y-75315645D01*
X196479639Y-75315643D01*
X196370053Y-75270251D01*
X196315650Y-75226410D01*
X196293585Y-75160116D01*
X196302945Y-75108237D01*
X196347140Y-75001542D01*
X196375800Y-74857455D01*
X196375800Y-74710545D01*
X196347140Y-74566458D01*
X196290920Y-74430731D01*
X196290919Y-74430730D01*
X196290916Y-74430724D01*
X196209301Y-74308580D01*
X196209298Y-74308576D01*
X196105423Y-74204701D01*
X196105419Y-74204698D01*
X196097044Y-74199102D01*
X196052239Y-74145490D01*
X196043532Y-74076165D01*
X196073686Y-74013137D01*
X196133129Y-73976418D01*
X196165935Y-73972000D01*
X204122499Y-73972000D01*
X204189538Y-73991685D01*
X204235293Y-74044489D01*
X204245237Y-74113647D01*
X204216212Y-74177203D01*
X204197985Y-74194376D01*
X204053273Y-74305416D01*
X204053266Y-74305422D01*
X203881749Y-74476939D01*
X203881743Y-74476946D01*
X203734077Y-74669389D01*
X203612787Y-74879468D01*
X203612783Y-74879477D01*
X203519957Y-75103578D01*
X203457171Y-75337897D01*
X203425510Y-75578394D01*
X203425510Y-75820971D01*
X203457171Y-76061468D01*
X203519957Y-76295787D01*
X203578188Y-76436369D01*
X203612786Y-76519895D01*
X203734074Y-76729972D01*
X203734076Y-76729975D01*
X203734077Y-76729976D01*
X203881743Y-76922419D01*
X203881749Y-76922426D01*
X204053266Y-77093943D01*
X204053273Y-77093949D01*
X204151432Y-77169269D01*
X204245721Y-77241619D01*
X204455798Y-77362907D01*
X204643644Y-77440715D01*
X204678724Y-77455246D01*
X204679910Y-77455737D01*
X204914221Y-77518521D01*
X205094596Y-77542267D01*
X205154721Y-77550183D01*
X205154722Y-77550183D01*
X205397299Y-77550183D01*
X205445398Y-77543850D01*
X205637799Y-77518521D01*
X205872110Y-77455737D01*
X206096222Y-77362907D01*
X206306299Y-77241619D01*
X206498748Y-77093948D01*
X206670275Y-76922421D01*
X206687479Y-76900000D01*
X215690312Y-76900000D01*
X215710957Y-77043595D01*
X215710958Y-77043599D01*
X215768351Y-77169269D01*
X215771223Y-77175558D01*
X215866225Y-77285196D01*
X215923158Y-77321785D01*
X215988269Y-77363630D01*
X216096138Y-77395302D01*
X216121926Y-77402874D01*
X216127461Y-77404499D01*
X216127463Y-77404500D01*
X216127464Y-77404500D01*
X216272537Y-77404500D01*
X216272537Y-77404499D01*
X216411729Y-77363630D01*
X216411730Y-77363630D01*
X216412855Y-77362907D01*
X216533775Y-77285196D01*
X216628777Y-77175558D01*
X216681655Y-77059771D01*
X216689041Y-77043599D01*
X216689042Y-77043595D01*
X216689251Y-77042143D01*
X216709688Y-76900000D01*
X216689042Y-76756404D01*
X216689041Y-76756400D01*
X216628777Y-76624443D01*
X216628777Y-76624442D01*
X216533775Y-76514804D01*
X216484067Y-76482858D01*
X216411730Y-76436369D01*
X216272538Y-76395500D01*
X216272536Y-76395500D01*
X216127464Y-76395500D01*
X216127461Y-76395500D01*
X215988270Y-76436369D01*
X215988269Y-76436369D01*
X215866226Y-76514803D01*
X215866225Y-76514803D01*
X215866225Y-76514804D01*
X215861410Y-76520361D01*
X215771223Y-76624442D01*
X215771222Y-76624443D01*
X215710958Y-76756400D01*
X215710957Y-76756404D01*
X215690312Y-76900000D01*
X206687479Y-76900000D01*
X206817946Y-76729972D01*
X206939234Y-76519895D01*
X207032064Y-76295783D01*
X207094848Y-76061472D01*
X207126510Y-75820971D01*
X207126510Y-75578395D01*
X207116189Y-75499998D01*
X220540715Y-75499998D01*
X220540715Y-75500001D01*
X220559771Y-75644752D01*
X220559773Y-75644757D01*
X220615642Y-75779638D01*
X220615645Y-75779644D01*
X220704525Y-75895473D01*
X220704526Y-75895474D01*
X220820355Y-75984354D01*
X220820361Y-75984357D01*
X220860249Y-76000879D01*
X220955246Y-76040228D01*
X221027623Y-76049756D01*
X221099999Y-76059285D01*
X221100000Y-76059285D01*
X221100001Y-76059285D01*
X221148251Y-76052932D01*
X221244754Y-76040228D01*
X221379643Y-75984355D01*
X221495474Y-75895474D01*
X221584355Y-75779643D01*
X221640228Y-75644754D01*
X221655598Y-75528005D01*
X221659285Y-75500001D01*
X221659285Y-75499998D01*
X221640228Y-75355247D01*
X221640228Y-75355246D01*
X221584355Y-75220358D01*
X221495474Y-75104526D01*
X221379643Y-75015645D01*
X221379640Y-75015644D01*
X221379638Y-75015642D01*
X221244757Y-74959773D01*
X221244752Y-74959771D01*
X221100001Y-74940715D01*
X221099999Y-74940715D01*
X220955247Y-74959771D01*
X220955245Y-74959772D01*
X220820361Y-75015643D01*
X220820358Y-75015644D01*
X220820358Y-75015645D01*
X220704526Y-75104526D01*
X220631266Y-75200001D01*
X220615643Y-75220361D01*
X220559772Y-75355245D01*
X220559771Y-75355247D01*
X220540715Y-75499998D01*
X207116189Y-75499998D01*
X207094848Y-75337894D01*
X207032064Y-75103583D01*
X206939234Y-74879471D01*
X206817946Y-74669394D01*
X206733830Y-74559772D01*
X206670276Y-74476946D01*
X206670270Y-74476939D01*
X206498753Y-74305422D01*
X206498746Y-74305416D01*
X206354035Y-74194376D01*
X206312832Y-74137948D01*
X206308677Y-74068202D01*
X206342889Y-74007282D01*
X206404606Y-73974529D01*
X206429521Y-73972000D01*
X214542268Y-73972000D01*
X214609307Y-73991685D01*
X214655062Y-74044489D01*
X214665006Y-74113647D01*
X214635981Y-74177203D01*
X214617760Y-74194370D01*
X214604526Y-74204526D01*
X214527111Y-74305416D01*
X214515643Y-74320361D01*
X214459772Y-74455245D01*
X214459771Y-74455247D01*
X214440715Y-74599998D01*
X214440715Y-74600001D01*
X214459771Y-74744752D01*
X214459773Y-74744757D01*
X214515642Y-74879638D01*
X214515645Y-74879644D01*
X214604525Y-74995473D01*
X214604526Y-74995474D01*
X214720355Y-75084354D01*
X214720361Y-75084357D01*
X214766765Y-75103578D01*
X214855246Y-75140228D01*
X214927623Y-75149756D01*
X214999999Y-75159285D01*
X215000000Y-75159285D01*
X215000001Y-75159285D01*
X215048251Y-75152932D01*
X215144754Y-75140228D01*
X215279643Y-75084355D01*
X215395474Y-74995474D01*
X215484355Y-74879643D01*
X215540228Y-74744754D01*
X215559285Y-74600000D01*
X215557225Y-74584355D01*
X215540228Y-74455247D01*
X215540228Y-74455246D01*
X215484355Y-74320358D01*
X215395474Y-74204526D01*
X215382245Y-74194375D01*
X215341044Y-74137948D01*
X215338783Y-74099998D01*
X216940715Y-74099998D01*
X216940715Y-74100001D01*
X216959771Y-74244752D01*
X216959773Y-74244757D01*
X217015642Y-74379638D01*
X217015645Y-74379644D01*
X217104525Y-74495473D01*
X217104526Y-74495474D01*
X217220355Y-74584354D01*
X217220361Y-74584357D01*
X217287801Y-74612291D01*
X217355246Y-74640228D01*
X217427623Y-74649756D01*
X217499999Y-74659285D01*
X217500000Y-74659285D01*
X217500001Y-74659285D01*
X217548251Y-74652932D01*
X217644754Y-74640228D01*
X217779643Y-74584355D01*
X217895474Y-74495474D01*
X217984355Y-74379643D01*
X218040228Y-74244754D01*
X218054289Y-74137948D01*
X218059285Y-74100001D01*
X218059285Y-74099998D01*
X218040228Y-73955247D01*
X218040228Y-73955246D01*
X217984355Y-73820358D01*
X217895474Y-73704526D01*
X217779643Y-73615645D01*
X217779640Y-73615644D01*
X217779638Y-73615642D01*
X217644757Y-73559773D01*
X217644752Y-73559771D01*
X217500001Y-73540715D01*
X217499999Y-73540715D01*
X217355247Y-73559771D01*
X217355245Y-73559772D01*
X217220361Y-73615643D01*
X217220358Y-73615644D01*
X217220358Y-73615645D01*
X217104526Y-73704526D01*
X217095779Y-73715926D01*
X217015643Y-73820361D01*
X216959772Y-73955245D01*
X216959771Y-73955247D01*
X216940715Y-74099998D01*
X215338783Y-74099998D01*
X215336889Y-74068202D01*
X215371102Y-74007281D01*
X215432819Y-73974529D01*
X215457733Y-73972000D01*
X216075302Y-73972000D01*
X216075305Y-73972000D01*
X216220784Y-73933019D01*
X216351216Y-73857714D01*
X216457714Y-73751216D01*
X216708932Y-73499998D01*
X223140715Y-73499998D01*
X223140715Y-73500001D01*
X223159771Y-73644752D01*
X223159773Y-73644757D01*
X223215642Y-73779638D01*
X223215645Y-73779644D01*
X223304525Y-73895473D01*
X223304526Y-73895474D01*
X223420355Y-73984354D01*
X223420361Y-73984357D01*
X223478209Y-74008318D01*
X223555246Y-74040228D01*
X223587612Y-74044489D01*
X223699999Y-74059285D01*
X223700000Y-74059285D01*
X223700001Y-74059285D01*
X223748251Y-74052932D01*
X223844754Y-74040228D01*
X223979643Y-73984355D01*
X224095474Y-73895474D01*
X224184355Y-73779643D01*
X224240228Y-73644754D01*
X224259285Y-73500000D01*
X224240228Y-73355246D01*
X224184355Y-73220358D01*
X224095474Y-73104526D01*
X223979643Y-73015645D01*
X223979640Y-73015644D01*
X223979638Y-73015642D01*
X223844757Y-72959773D01*
X223844752Y-72959771D01*
X223700001Y-72940715D01*
X223699999Y-72940715D01*
X223555247Y-72959771D01*
X223555245Y-72959772D01*
X223420361Y-73015643D01*
X223420358Y-73015644D01*
X223420358Y-73015645D01*
X223329006Y-73085742D01*
X223304526Y-73104526D01*
X223215643Y-73220361D01*
X223159772Y-73355245D01*
X223159771Y-73355247D01*
X223140715Y-73499998D01*
X216708932Y-73499998D01*
X217057714Y-73151216D01*
X217133019Y-73020784D01*
X217172000Y-72875306D01*
X217172000Y-72724695D01*
X217172000Y-68761837D01*
X218872410Y-68761837D01*
X218891755Y-68921160D01*
X218891756Y-68921165D01*
X218948668Y-69071228D01*
X218948669Y-69071229D01*
X219009784Y-69159771D01*
X219039840Y-69203314D01*
X219159973Y-69309742D01*
X219302084Y-69384328D01*
X219302086Y-69384328D01*
X219302087Y-69384329D01*
X219457916Y-69422737D01*
X219618412Y-69422737D01*
X219774240Y-69384329D01*
X219774240Y-69384328D01*
X219774244Y-69384328D01*
X219916355Y-69309742D01*
X220036488Y-69203314D01*
X220127660Y-69071228D01*
X220184572Y-68921162D01*
X220203918Y-68761837D01*
X220184572Y-68602512D01*
X220184571Y-68602510D01*
X220184571Y-68602508D01*
X220158710Y-68534319D01*
X220127660Y-68452446D01*
X220036488Y-68320360D01*
X219916355Y-68213932D01*
X219774244Y-68139346D01*
X219774243Y-68139345D01*
X219774240Y-68139344D01*
X219618412Y-68100937D01*
X219457916Y-68100937D01*
X219302087Y-68139344D01*
X219159973Y-68213932D01*
X219039839Y-68320360D01*
X218948669Y-68452444D01*
X218948668Y-68452445D01*
X218891756Y-68602508D01*
X218891755Y-68602513D01*
X218872410Y-68761837D01*
X217172000Y-68761837D01*
X217172000Y-66779003D01*
X220824382Y-66779003D01*
X220824382Y-66915916D01*
X220851088Y-67050176D01*
X220851090Y-67050184D01*
X220903480Y-67176664D01*
X220979541Y-67290499D01*
X221076342Y-67387300D01*
X221076345Y-67387302D01*
X221190176Y-67463361D01*
X221316658Y-67515752D01*
X221450925Y-67542459D01*
X221450929Y-67542460D01*
X221450930Y-67542460D01*
X221587835Y-67542460D01*
X221587836Y-67542459D01*
X221722106Y-67515752D01*
X221848588Y-67463361D01*
X221962419Y-67387302D01*
X222059224Y-67290497D01*
X222135283Y-67176666D01*
X222187674Y-67050184D01*
X222214382Y-66915912D01*
X222214382Y-66779008D01*
X222187674Y-66644736D01*
X222135283Y-66518254D01*
X222059224Y-66404423D01*
X222059222Y-66404420D01*
X221962421Y-66307619D01*
X221863666Y-66241634D01*
X221848588Y-66231559D01*
X221722106Y-66179168D01*
X221722098Y-66179166D01*
X221587838Y-66152460D01*
X221587834Y-66152460D01*
X221450930Y-66152460D01*
X221450925Y-66152460D01*
X221316665Y-66179166D01*
X221316657Y-66179168D01*
X221190177Y-66231558D01*
X221076342Y-66307619D01*
X220979541Y-66404420D01*
X220903480Y-66518255D01*
X220851090Y-66644735D01*
X220851088Y-66644743D01*
X220824382Y-66779003D01*
X217172000Y-66779003D01*
X217172000Y-66688292D01*
X217191685Y-66621253D01*
X217208319Y-66600611D01*
X217501312Y-66307618D01*
X217857714Y-65951216D01*
X217933019Y-65820783D01*
X217972000Y-65675305D01*
X217972000Y-65599681D01*
X218816725Y-65599681D01*
X218816725Y-65599684D01*
X218835781Y-65744435D01*
X218835783Y-65744440D01*
X218891652Y-65879321D01*
X218891655Y-65879327D01*
X218980535Y-65995156D01*
X218980536Y-65995157D01*
X219096365Y-66084037D01*
X219096371Y-66084040D01*
X219163811Y-66111974D01*
X219231256Y-66139911D01*
X219303633Y-66149439D01*
X219376009Y-66158968D01*
X219376010Y-66158968D01*
X219376011Y-66158968D01*
X219425444Y-66152460D01*
X219520764Y-66139911D01*
X219655653Y-66084038D01*
X219771484Y-65995157D01*
X219860365Y-65879326D01*
X219916238Y-65744437D01*
X219935295Y-65599683D01*
X219929697Y-65557165D01*
X219916238Y-65454930D01*
X219916238Y-65454929D01*
X219860365Y-65320041D01*
X219771484Y-65204209D01*
X219655653Y-65115328D01*
X219655650Y-65115327D01*
X219655648Y-65115325D01*
X219520767Y-65059456D01*
X219520762Y-65059454D01*
X219376011Y-65040398D01*
X219376009Y-65040398D01*
X219231257Y-65059454D01*
X219231255Y-65059455D01*
X219096371Y-65115326D01*
X219096368Y-65115327D01*
X219096368Y-65115328D01*
X218980539Y-65204207D01*
X218980536Y-65204209D01*
X218891653Y-65320044D01*
X218835782Y-65454928D01*
X218835781Y-65454930D01*
X218816725Y-65599681D01*
X217972000Y-65599681D01*
X217972000Y-65524694D01*
X217933019Y-65379216D01*
X217857714Y-65248783D01*
X217751217Y-65142286D01*
X217751216Y-65142285D01*
X217751213Y-65142283D01*
X217620786Y-65066982D01*
X217620785Y-65066981D01*
X217584414Y-65057235D01*
X217475306Y-65028000D01*
X217324695Y-65028000D01*
X217237408Y-65051388D01*
X217179215Y-65066981D01*
X217179214Y-65066982D01*
X217048787Y-65142283D01*
X217048782Y-65142287D01*
X216142288Y-66048781D01*
X216142284Y-66048787D01*
X216066982Y-66179212D01*
X216066981Y-66179216D01*
X216028000Y-66324695D01*
X216028000Y-66324697D01*
X216028000Y-72511708D01*
X216008315Y-72578747D01*
X215991681Y-72599389D01*
X215799389Y-72791681D01*
X215738066Y-72825166D01*
X215711708Y-72828000D01*
X215284924Y-72828000D01*
X215217885Y-72808315D01*
X215172130Y-72755511D01*
X215162186Y-72686353D01*
X215177537Y-72641999D01*
X215180550Y-72636781D01*
X215214658Y-72509487D01*
X215214658Y-63899681D01*
X215516725Y-63899681D01*
X215516725Y-63899684D01*
X215535781Y-64044435D01*
X215535783Y-64044440D01*
X215591652Y-64179321D01*
X215591655Y-64179327D01*
X215680535Y-64295156D01*
X215680536Y-64295157D01*
X215796365Y-64384037D01*
X215796371Y-64384040D01*
X215863811Y-64411974D01*
X215931256Y-64439911D01*
X216003633Y-64449439D01*
X216076009Y-64458968D01*
X216076010Y-64458968D01*
X216076011Y-64458968D01*
X216124261Y-64452615D01*
X216220764Y-64439911D01*
X216317888Y-64399681D01*
X220716725Y-64399681D01*
X220716725Y-64399684D01*
X220735781Y-64544435D01*
X220735783Y-64544440D01*
X220791652Y-64679321D01*
X220791655Y-64679327D01*
X220880535Y-64795156D01*
X220880536Y-64795157D01*
X220996365Y-64884037D01*
X220996371Y-64884040D01*
X221063811Y-64911974D01*
X221131256Y-64939911D01*
X221203633Y-64949439D01*
X221276009Y-64958968D01*
X221276010Y-64958968D01*
X221276011Y-64958968D01*
X221324261Y-64952615D01*
X221420764Y-64939911D01*
X221555653Y-64884038D01*
X221671484Y-64795157D01*
X221760365Y-64679326D01*
X221816238Y-64544437D01*
X221835295Y-64399683D01*
X221833235Y-64384038D01*
X221816238Y-64254930D01*
X221816238Y-64254929D01*
X221760365Y-64120041D01*
X221671484Y-64004209D01*
X221555653Y-63915328D01*
X221555650Y-63915327D01*
X221555648Y-63915325D01*
X221420767Y-63859456D01*
X221420762Y-63859454D01*
X221276011Y-63840398D01*
X221276009Y-63840398D01*
X221131257Y-63859454D01*
X221131255Y-63859455D01*
X220996371Y-63915326D01*
X220880536Y-64004209D01*
X220791653Y-64120044D01*
X220735782Y-64254928D01*
X220735781Y-64254930D01*
X220716725Y-64399681D01*
X216317888Y-64399681D01*
X216355653Y-64384038D01*
X216471484Y-64295157D01*
X216560365Y-64179326D01*
X216616238Y-64044437D01*
X216635295Y-63899683D01*
X216616238Y-63754929D01*
X216560365Y-63620041D01*
X216471484Y-63504209D01*
X216355653Y-63415328D01*
X216355650Y-63415327D01*
X216355648Y-63415325D01*
X216220767Y-63359456D01*
X216220762Y-63359454D01*
X216076011Y-63340398D01*
X216076009Y-63340398D01*
X215931257Y-63359454D01*
X215931255Y-63359455D01*
X215796371Y-63415326D01*
X215680536Y-63504209D01*
X215591653Y-63620044D01*
X215535782Y-63754928D01*
X215535781Y-63754930D01*
X215516725Y-63899681D01*
X215214658Y-63899681D01*
X215214658Y-62199681D01*
X219316725Y-62199681D01*
X219316725Y-62199684D01*
X219335781Y-62344435D01*
X219335783Y-62344440D01*
X219391652Y-62479321D01*
X219391655Y-62479327D01*
X219480535Y-62595156D01*
X219480536Y-62595157D01*
X219596365Y-62684037D01*
X219596371Y-62684040D01*
X219663811Y-62711974D01*
X219731256Y-62739911D01*
X219803633Y-62749439D01*
X219876009Y-62758968D01*
X219876010Y-62758968D01*
X219876011Y-62758968D01*
X219924261Y-62752615D01*
X220020764Y-62739911D01*
X220155653Y-62684038D01*
X220271484Y-62595157D01*
X220360365Y-62479326D01*
X220416238Y-62344437D01*
X220435295Y-62199683D01*
X220416238Y-62054929D01*
X220360365Y-61920041D01*
X220271484Y-61804209D01*
X220155653Y-61715328D01*
X220155650Y-61715327D01*
X220155648Y-61715325D01*
X220020767Y-61659456D01*
X220020762Y-61659454D01*
X219876011Y-61640398D01*
X219876009Y-61640398D01*
X219731257Y-61659454D01*
X219731255Y-61659455D01*
X219596371Y-61715326D01*
X219596368Y-61715327D01*
X219596368Y-61715328D01*
X219552448Y-61749029D01*
X219480536Y-61804209D01*
X219391653Y-61920044D01*
X219335782Y-62054928D01*
X219335781Y-62054930D01*
X219316725Y-62199681D01*
X215214658Y-62199681D01*
X215214658Y-61199681D01*
X216016725Y-61199681D01*
X216016725Y-61199684D01*
X216035781Y-61344435D01*
X216035783Y-61344440D01*
X216091652Y-61479321D01*
X216091655Y-61479327D01*
X216180535Y-61595156D01*
X216180536Y-61595157D01*
X216296365Y-61684037D01*
X216296371Y-61684040D01*
X216363811Y-61711974D01*
X216431256Y-61739911D01*
X216500500Y-61749027D01*
X216576009Y-61758968D01*
X216576010Y-61758968D01*
X216576011Y-61758968D01*
X216651505Y-61749029D01*
X216720764Y-61739911D01*
X216855653Y-61684038D01*
X216971484Y-61595157D01*
X217060365Y-61479326D01*
X217081045Y-61429399D01*
X217124885Y-61374997D01*
X217191179Y-61352931D01*
X217258878Y-61370210D01*
X217298708Y-61407962D01*
X217376087Y-61523768D01*
X217376093Y-61523776D01*
X217472893Y-61620576D01*
X217472896Y-61620578D01*
X217586727Y-61696637D01*
X217713209Y-61749028D01*
X217847476Y-61775735D01*
X217847480Y-61775736D01*
X217847481Y-61775736D01*
X217984386Y-61775736D01*
X217984387Y-61775735D01*
X218118657Y-61749028D01*
X218245139Y-61696637D01*
X218358970Y-61620578D01*
X218455775Y-61523773D01*
X218531834Y-61409942D01*
X218584225Y-61283460D01*
X218610933Y-61149188D01*
X218610933Y-61012284D01*
X218584225Y-60878012D01*
X218531834Y-60751530D01*
X218455775Y-60637699D01*
X218455773Y-60637696D01*
X218358972Y-60540895D01*
X218302054Y-60502864D01*
X218245139Y-60464835D01*
X218118657Y-60412444D01*
X218118649Y-60412442D01*
X217984389Y-60385736D01*
X217984385Y-60385736D01*
X217847481Y-60385736D01*
X217847476Y-60385736D01*
X217713216Y-60412442D01*
X217713208Y-60412444D01*
X217586728Y-60464834D01*
X217472893Y-60540895D01*
X217376092Y-60637696D01*
X217300030Y-60751531D01*
X217252872Y-60865383D01*
X217209031Y-60919786D01*
X217142737Y-60941851D01*
X217075037Y-60924572D01*
X217039937Y-60893418D01*
X216971484Y-60804209D01*
X216971482Y-60804208D01*
X216971482Y-60804207D01*
X216902832Y-60751530D01*
X216855653Y-60715328D01*
X216855650Y-60715327D01*
X216855648Y-60715325D01*
X216720767Y-60659456D01*
X216720762Y-60659454D01*
X216576011Y-60640398D01*
X216576009Y-60640398D01*
X216431257Y-60659454D01*
X216431255Y-60659455D01*
X216296371Y-60715326D01*
X216296368Y-60715327D01*
X216296368Y-60715328D01*
X216180536Y-60804209D01*
X216112085Y-60893417D01*
X216091653Y-60920044D01*
X216035782Y-61054928D01*
X216035781Y-61054930D01*
X216016725Y-61199681D01*
X215214658Y-61199681D01*
X215214658Y-55567892D01*
X215234343Y-55500853D01*
X215287147Y-55455098D01*
X215356305Y-55445154D01*
X215419861Y-55474179D01*
G37*
%TD.AperFunction*%
%TD*%
M02*
