%TF.GenerationSoftware,KiCad,Pcbnew,8.0.7*%
%TF.CreationDate,2026-07-08T19:47:45-07:00*%
%TF.ProjectId,ChemistryDetector,4368656d-6973-4747-9279-446574656374,rev?*%
%TF.SameCoordinates,Original*%
%TF.FileFunction,Legend,Bot*%
%TF.FilePolarity,Positive*%
%FSLAX46Y46*%
G04 Gerber Fmt 4.6, Leading zero omitted, Abs format (unit mm)*
G04 Created by KiCad (PCBNEW 8.0.7) date 2026-07-08 19:47:45*
%MOMM*%
%LPD*%
G01*
G04 APERTURE LIST*
%ADD10C,0.200000*%
%ADD11C,0.100000*%
%ADD12C,0.150000*%
%ADD13C,0.120000*%
%ADD14C,0.508000*%
%ADD15C,0.127000*%
G04 APERTURE END LIST*
D10*
X182732698Y-108239250D02*
X182732698Y-112745879D01*
X166848013Y-72941532D02*
X215348013Y-72941532D01*
X227070612Y-81700000D02*
G75*
G02*
X156529388Y-81700000I-35270612J0D01*
G01*
X156529388Y-81700000D02*
G75*
G02*
X227070612Y-81700000I35270612J0D01*
G01*
X158251945Y-92587796D02*
X172309842Y-92587796D01*
X190556284Y-108239250D02*
X190556284Y-112745879D01*
X166848013Y-55441532D02*
X215348013Y-55441532D01*
D11*
X203300000Y-99700000D02*
G75*
G02*
X180300000Y-99700000I-11500000J0D01*
G01*
X180300000Y-99700000D02*
G75*
G02*
X203300000Y-99700000I11500000J0D01*
G01*
D10*
X187890286Y-101423277D02*
X187890286Y-105929905D01*
X166848013Y-55441532D02*
X166848013Y-72941532D01*
X225348055Y-92587796D02*
X211290158Y-92587796D01*
X208050000Y-75700000D02*
G75*
G02*
X202550000Y-75700000I-2750000J0D01*
G01*
X202550000Y-75700000D02*
G75*
G02*
X208050000Y-75700000I2750000J0D01*
G01*
X182732698Y-108239250D02*
X190556284Y-108239250D01*
X182732698Y-112745879D02*
X190556284Y-112745879D01*
X218800000Y-74935101D02*
X226415780Y-74935101D01*
X193047874Y-108239250D02*
X193047874Y-112745879D01*
X215348013Y-55441532D02*
X215348013Y-72941532D01*
X213472584Y-109526520D02*
X211290158Y-109526520D01*
X195713872Y-101423277D02*
X195713872Y-105929905D01*
X208050000Y-87700000D02*
G75*
G02*
X202550000Y-87700000I-2750000J0D01*
G01*
X202550000Y-87700000D02*
G75*
G02*
X208050000Y-87700000I2750000J0D01*
G01*
X157776010Y-90994309D02*
X164800000Y-90994309D01*
X225823990Y-90994309D02*
X218799998Y-90994309D01*
X170127416Y-109526520D02*
X172309842Y-109526520D01*
X164800000Y-74935101D02*
X157184220Y-74935101D01*
X211290158Y-109526520D02*
G75*
G02*
X211290158Y-92587800I2J8469360D01*
G01*
X209800000Y-81700000D02*
G75*
G02*
X173800000Y-81700000I-18000000J0D01*
G01*
X173800000Y-81700000D02*
G75*
G02*
X209800000Y-81700000I18000000J0D01*
G01*
X172309842Y-92587796D02*
G75*
G02*
X172309842Y-109526524I-2J-8469364D01*
G01*
X227070612Y-81700000D02*
G75*
G02*
X156529388Y-81700000I-35270612J0D01*
G01*
X156529388Y-81700000D02*
G75*
G02*
X227070612Y-81700000I35270612J0D01*
G01*
X218799998Y-90994309D02*
G75*
G02*
X218800000Y-74935091I2J8029609D01*
G01*
X200871460Y-108239250D02*
X200871460Y-112745879D01*
X193047874Y-108239250D02*
X200871460Y-108239250D01*
X181050000Y-75700000D02*
G75*
G02*
X175550000Y-75700000I-2750000J0D01*
G01*
X175550000Y-75700000D02*
G75*
G02*
X181050000Y-75700000I2750000J0D01*
G01*
X181050000Y-87700000D02*
G75*
G02*
X175550000Y-87700000I-2750000J0D01*
G01*
X175550000Y-87700000D02*
G75*
G02*
X181050000Y-87700000I2750000J0D01*
G01*
X187890286Y-105929905D02*
X195713872Y-105929905D01*
X187890286Y-101423277D02*
X195713872Y-101423277D01*
X164800000Y-74935101D02*
G75*
G02*
X164800000Y-90994299I0J-8029599D01*
G01*
X193047874Y-112745879D02*
X200871460Y-112745879D01*
D12*
X222854819Y-65988095D02*
X223664342Y-65988095D01*
X223664342Y-65988095D02*
X223759580Y-66035714D01*
X223759580Y-66035714D02*
X223807200Y-66083333D01*
X223807200Y-66083333D02*
X223854819Y-66178571D01*
X223854819Y-66178571D02*
X223854819Y-66369047D01*
X223854819Y-66369047D02*
X223807200Y-66464285D01*
X223807200Y-66464285D02*
X223759580Y-66511904D01*
X223759580Y-66511904D02*
X223664342Y-66559523D01*
X223664342Y-66559523D02*
X222854819Y-66559523D01*
X222950057Y-66988095D02*
X222902438Y-67035714D01*
X222902438Y-67035714D02*
X222854819Y-67130952D01*
X222854819Y-67130952D02*
X222854819Y-67369047D01*
X222854819Y-67369047D02*
X222902438Y-67464285D01*
X222902438Y-67464285D02*
X222950057Y-67511904D01*
X222950057Y-67511904D02*
X223045295Y-67559523D01*
X223045295Y-67559523D02*
X223140533Y-67559523D01*
X223140533Y-67559523D02*
X223283390Y-67511904D01*
X223283390Y-67511904D02*
X223854819Y-66940476D01*
X223854819Y-66940476D02*
X223854819Y-67559523D01*
D13*
%TO.C,U2*%
X222310000Y-64840000D02*
X222310000Y-68600000D01*
X215490000Y-64840000D02*
X215490000Y-68600000D01*
X221050000Y-64840000D02*
X222310000Y-64840000D01*
X216750000Y-64840000D02*
X215490000Y-64840000D01*
X222540000Y-70120000D02*
X222210000Y-69880000D01*
X222540000Y-69640000D01*
X222540000Y-70120000D01*
G36*
X222540000Y-70120000D02*
G01*
X222210000Y-69880000D01*
X222540000Y-69640000D01*
X222540000Y-70120000D01*
G37*
D14*
%TO.C,SW1*%
X222472908Y-70028187D02*
G75*
G02*
X221710906Y-70028187I-381001J0D01*
G01*
X221710906Y-70028187D02*
G75*
G02*
X222472908Y-70028187I381001J0D01*
G01*
D11*
%TO.C,Y1*%
X191976010Y-79999683D02*
X191976010Y-79999683D01*
X192076010Y-79999683D02*
X192076010Y-79999683D01*
X191976010Y-79999683D02*
G75*
G02*
X192076010Y-79999683I50000J0D01*
G01*
X192076010Y-79999683D02*
G75*
G02*
X191976010Y-79999683I-50000J0D01*
G01*
D13*
%TO.C,C2*%
X217640580Y-71590000D02*
X217359420Y-71590000D01*
X217640580Y-72610000D02*
X217359420Y-72610000D01*
%TO.C,D2*%
X161140000Y-82000000D02*
X161140000Y-84685000D01*
X161140000Y-84685000D02*
X163060000Y-84685000D01*
X163060000Y-84685000D02*
X163060000Y-82000000D01*
D15*
%TO.C,S3*%
X193902020Y-111426000D02*
X193902020Y-109074000D01*
X194726020Y-107250000D02*
X199078020Y-107250000D01*
X194726020Y-113250000D02*
X199078020Y-113250000D01*
X199902020Y-111426000D02*
X199902020Y-109074000D01*
D10*
X200252020Y-106246000D02*
G75*
G02*
X200052020Y-106246000I-100000J0D01*
G01*
X200052020Y-106246000D02*
G75*
G02*
X200252020Y-106246000I100000J0D01*
G01*
D15*
%TO.C,S2*%
X188776010Y-104826000D02*
X188776010Y-102474000D01*
X189600010Y-100650000D02*
X193952010Y-100650000D01*
X189600010Y-106650000D02*
X193952010Y-106650000D01*
X194776010Y-104826000D02*
X194776010Y-102474000D01*
D10*
X195126010Y-99646000D02*
G75*
G02*
X194926010Y-99646000I-100000J0D01*
G01*
X194926010Y-99646000D02*
G75*
G02*
X195126010Y-99646000I100000J0D01*
G01*
D13*
%TO.C,D3*%
X220492020Y-82000000D02*
X220492020Y-84685000D01*
X220492020Y-84685000D02*
X222412020Y-84685000D01*
X222412020Y-84685000D02*
X222412020Y-82000000D01*
D15*
%TO.C,J10*%
X181950000Y-77900000D02*
X181950000Y-79300000D01*
X181950000Y-79300000D02*
X191450000Y-79300000D01*
X182750000Y-76850000D02*
X182750000Y-77900000D01*
X182750000Y-77900000D02*
X181950000Y-77900000D01*
X190650000Y-77900000D02*
X190650000Y-76850000D01*
X191450000Y-77900000D02*
X190650000Y-77900000D01*
X191450000Y-79300000D02*
X191450000Y-77900000D01*
D10*
X188550000Y-73450000D02*
G75*
G02*
X188350000Y-73450000I-100000J0D01*
G01*
X188350000Y-73450000D02*
G75*
G02*
X188550000Y-73450000I100000J0D01*
G01*
D13*
%TO.C,C1*%
X220359420Y-71490000D02*
X220640580Y-71490000D01*
X220359420Y-72510000D02*
X220640580Y-72510000D01*
%TO.C,TH1*%
X216717020Y-83227064D02*
X216717020Y-82772936D01*
X218187020Y-83227064D02*
X218187020Y-82772936D01*
%TO.C,D4*%
X163140000Y-81315000D02*
X163140000Y-84000000D01*
X165060000Y-81315000D02*
X163140000Y-81315000D01*
X165060000Y-84000000D02*
X165060000Y-81315000D01*
%TO.C,D1*%
X218492020Y-81315000D02*
X218492020Y-84000000D01*
X220412020Y-81315000D02*
X218492020Y-81315000D01*
X220412020Y-84000000D02*
X220412020Y-81315000D01*
D15*
%TO.C,S1*%
X183650000Y-111426000D02*
X183650000Y-109074000D01*
X184474000Y-107250000D02*
X188826000Y-107250000D01*
X184474000Y-113250000D02*
X188826000Y-113250000D01*
X189650000Y-111426000D02*
X189650000Y-109074000D01*
D10*
X190000000Y-106246000D02*
G75*
G02*
X189800000Y-106246000I-100000J0D01*
G01*
X189800000Y-106246000D02*
G75*
G02*
X190000000Y-106246000I100000J0D01*
G01*
D13*
%TO.C,C39*%
X195566010Y-80434103D02*
X195566010Y-80715263D01*
X196586010Y-80434103D02*
X196586010Y-80715263D01*
%TO.C,TH2*%
X165365000Y-83227064D02*
X165365000Y-82772936D01*
X166835000Y-83227064D02*
X166835000Y-82772936D01*
%TD*%
M02*
