%TF.GenerationSoftware,KiCad,Pcbnew,8.0.7*%
%TF.CreationDate,2026-07-08T19:47:45-07:00*%
%TF.ProjectId,ChemistryDetector,4368656d-6973-4747-9279-446574656374,rev?*%
%TF.SameCoordinates,Original*%
%TF.FileFunction,Soldermask,Bot*%
%TF.FilePolarity,Negative*%
%FSLAX46Y46*%
G04 Gerber Fmt 4.6, Leading zero omitted, Abs format (unit mm)*
G04 Created by KiCad (PCBNEW 8.0.7) date 2026-07-08 19:47:45*
%MOMM*%
%LPD*%
G01*
G04 APERTURE LIST*
G04 Aperture macros list*
%AMRoundRect*
0 Rectangle with rounded corners*
0 $1 Rounding radius*
0 $2 $3 $4 $5 $6 $7 $8 $9 X,Y pos of 4 corners*
0 Add a 4 corners polygon primitive as box body*
4,1,4,$2,$3,$4,$5,$6,$7,$8,$9,$2,$3,0*
0 Add four circle primitives for the rounded corners*
1,1,$1+$1,$2,$3*
1,1,$1+$1,$4,$5*
1,1,$1+$1,$6,$7*
1,1,$1+$1,$8,$9*
0 Add four rect primitives between the rounded corners*
20,1,$1+$1,$2,$3,$4,$5,0*
20,1,$1+$1,$4,$5,$6,$7,0*
20,1,$1+$1,$6,$7,$8,$9,0*
20,1,$1+$1,$8,$9,$2,$3,0*%
G04 Aperture macros list end*
%ADD10C,0.010000*%
%ADD11RoundRect,0.375000X0.375000X-0.625000X0.375000X0.625000X-0.375000X0.625000X-0.375000X-0.625000X0*%
%ADD12RoundRect,0.500000X1.400000X-0.500000X1.400000X0.500000X-1.400000X0.500000X-1.400000X-0.500000X0*%
%ADD13C,3.200000*%
%ADD14R,1.700000X1.700000*%
%ADD15O,1.700000X1.700000*%
%ADD16C,1.000000*%
%ADD17C,0.990600*%
%ADD18C,3.000000*%
%ADD19C,0.889000*%
%ADD20R,0.700000X0.700000*%
%ADD21RoundRect,0.225000X-0.225000X-0.250000X0.225000X-0.250000X0.225000X0.250000X-0.225000X0.250000X0*%
%ADD22RoundRect,0.243750X0.456250X-0.243750X0.456250X0.243750X-0.456250X0.243750X-0.456250X-0.243750X0*%
%ADD23RoundRect,0.102000X0.754000X0.754000X-0.754000X0.754000X-0.754000X-0.754000X0.754000X-0.754000X0*%
%ADD24C,1.712000*%
%ADD25RoundRect,0.050000X0.150000X0.700000X-0.150000X0.700000X-0.150000X-0.700000X0.150000X-0.700000X0*%
%ADD26RoundRect,0.225000X0.225000X0.250000X-0.225000X0.250000X-0.225000X-0.250000X0.225000X-0.250000X0*%
%ADD27RoundRect,0.250000X-0.450000X0.262500X-0.450000X-0.262500X0.450000X-0.262500X0.450000X0.262500X0*%
%ADD28RoundRect,0.243750X-0.456250X0.243750X-0.456250X-0.243750X0.456250X-0.243750X0.456250X0.243750X0*%
%ADD29RoundRect,0.225000X0.250000X-0.225000X0.250000X0.225000X-0.250000X0.225000X-0.250000X-0.225000X0*%
G04 APERTURE END LIST*
D10*
%TO.C,J10*%
X184498400Y-77198400D02*
X183251600Y-77198400D01*
X183251600Y-76498400D01*
X181851600Y-76498400D01*
X181851600Y-75401600D01*
X182551600Y-75401600D01*
X182551600Y-74901600D01*
X184498400Y-74901600D01*
X184498400Y-77198400D01*
G36*
X184498400Y-77198400D02*
G01*
X183251600Y-77198400D01*
X183251600Y-76498400D01*
X181851600Y-76498400D01*
X181851600Y-75401600D01*
X182551600Y-75401600D01*
X182551600Y-74901600D01*
X184498400Y-74901600D01*
X184498400Y-77198400D01*
G37*
X190848400Y-75401600D02*
X191548400Y-75401600D01*
X191548400Y-76498400D01*
X190148400Y-76498400D01*
X190148400Y-77198400D01*
X188901600Y-77198400D01*
X188901600Y-74901600D01*
X190848400Y-74901600D01*
X190848400Y-75401600D01*
G36*
X190848400Y-75401600D02*
G01*
X191548400Y-75401600D01*
X191548400Y-76498400D01*
X190148400Y-76498400D01*
X190148400Y-77198400D01*
X188901600Y-77198400D01*
X188901600Y-74901600D01*
X190848400Y-74901600D01*
X190848400Y-75401600D01*
G37*
%TD*%
D11*
%TO.C,U2*%
X221200000Y-69900000D03*
X218900000Y-69900000D03*
D12*
X218900000Y-63600000D03*
D11*
X216600000Y-69900000D03*
%TD*%
D13*
%TO.C,H1*%
X178276010Y-75699683D03*
%TD*%
D14*
%TO.C,J3*%
X172975000Y-74500000D03*
D15*
X170435000Y-74500000D03*
%TD*%
D13*
%TO.C,H4*%
X205276010Y-87699683D03*
%TD*%
D16*
%TO.C,J1*%
X207197918Y-105698276D03*
X212854773Y-100041421D03*
%TD*%
D17*
%TO.C,J4*%
X200710000Y-75800000D03*
X195630000Y-76816000D03*
X195630000Y-74784000D03*
%TD*%
D13*
%TO.C,H3*%
X178276010Y-87699683D03*
%TD*%
%TO.C,H2*%
X205276010Y-75699683D03*
%TD*%
D18*
%TO.C,J6*%
X214100000Y-86200000D03*
%TD*%
%TO.C,J8*%
X168800000Y-101400000D03*
%TD*%
%TO.C,J7*%
X210376010Y-102699683D03*
%TD*%
D19*
%TO.C,SW1*%
X221519382Y-66847460D03*
X217915933Y-61080736D03*
%TD*%
D18*
%TO.C,J9*%
X168600000Y-87900000D03*
%TD*%
D20*
%TO.C,Y1*%
X192776010Y-79999683D03*
X194576010Y-79999683D03*
X194576010Y-80999683D03*
X192776010Y-80999683D03*
%TD*%
D21*
%TO.C,C2*%
X216725000Y-72100000D03*
X218275000Y-72100000D03*
%TD*%
D22*
%TO.C,D2*%
X162100000Y-83937500D03*
X162100000Y-82062500D03*
%TD*%
D23*
%TO.C,S3*%
X200152020Y-108000000D03*
D24*
X193652020Y-108000000D03*
X200152020Y-112500000D03*
X193652020Y-112500000D03*
%TD*%
D23*
%TO.C,S2*%
X195026010Y-101400000D03*
D24*
X188526010Y-101400000D03*
X195026010Y-105900000D03*
X188526010Y-105900000D03*
%TD*%
D22*
%TO.C,D3*%
X221452020Y-83937500D03*
X221452020Y-82062500D03*
%TD*%
D25*
%TO.C,J10*%
X188450000Y-74800000D03*
X187950000Y-74800000D03*
X187450000Y-74800000D03*
X186950000Y-74800000D03*
X186450000Y-74800000D03*
X185950000Y-74800000D03*
X185450000Y-74800000D03*
X184950000Y-74800000D03*
%TD*%
D26*
%TO.C,C1*%
X221275000Y-72000000D03*
X219725000Y-72000000D03*
%TD*%
D27*
%TO.C,TH1*%
X217452020Y-82087500D03*
X217452020Y-83912500D03*
%TD*%
D28*
%TO.C,D4*%
X164100000Y-82062500D03*
X164100000Y-83937500D03*
%TD*%
%TO.C,D1*%
X219452020Y-82062500D03*
X219452020Y-83937500D03*
%TD*%
D23*
%TO.C,S1*%
X189900000Y-108000000D03*
D24*
X183400000Y-108000000D03*
X189900000Y-112500000D03*
X183400000Y-112500000D03*
%TD*%
D29*
%TO.C,C39*%
X196076010Y-81349683D03*
X196076010Y-79799683D03*
%TD*%
D27*
%TO.C,TH2*%
X166100000Y-82087500D03*
X166100000Y-83912500D03*
%TD*%
M02*
