%TF.GenerationSoftware,KiCad,Pcbnew,8.0.7*%
%TF.CreationDate,2026-07-08T19:47:45-07:00*%
%TF.ProjectId,ChemistryDetector,4368656d-6973-4747-9279-446574656374,rev?*%
%TF.SameCoordinates,Original*%
%TF.FileFunction,Paste,Bot*%
%TF.FilePolarity,Positive*%
%FSLAX46Y46*%
G04 Gerber Fmt 4.6, Leading zero omitted, Abs format (unit mm)*
G04 Created by KiCad (PCBNEW 8.0.7) date 2026-07-08 19:47:45*
%MOMM*%
%LPD*%
G01*
G04 APERTURE LIST*
G04 Aperture macros list*
%AMRoundRect*
0 Rectangle with rounded corners*
0 $1 Rounding radius*
0 $2 $3 $4 $5 $6 $7 $8 $9 X,Y pos of 4 corners*
0 Add a 4 corners polygon primitive as box body*
4,1,4,$2,$3,$4,$5,$6,$7,$8,$9,$2,$3,0*
0 Add four circle primitives for the rounded corners*
1,1,$1+$1,$2,$3*
1,1,$1+$1,$4,$5*
1,1,$1+$1,$6,$7*
1,1,$1+$1,$8,$9*
0 Add four rect primitives between the rounded corners*
20,1,$1+$1,$2,$3,$4,$5,0*
20,1,$1+$1,$4,$5,$6,$7,0*
20,1,$1+$1,$6,$7,$8,$9,0*
20,1,$1+$1,$8,$9,$2,$3,0*%
G04 Aperture macros list end*
%ADD10C,0.010000*%
%ADD11RoundRect,0.375000X0.375000X-0.625000X0.375000X0.625000X-0.375000X0.625000X-0.375000X-0.625000X0*%
%ADD12RoundRect,0.500000X1.400000X-0.500000X1.400000X0.500000X-1.400000X0.500000X-1.400000X-0.500000X0*%
%ADD13R,0.700000X0.700000*%
%ADD14RoundRect,0.225000X-0.225000X-0.250000X0.225000X-0.250000X0.225000X0.250000X-0.225000X0.250000X0*%
%ADD15RoundRect,0.243750X0.456250X-0.243750X0.456250X0.243750X-0.456250X0.243750X-0.456250X-0.243750X0*%
%ADD16R,0.300000X1.400000*%
%ADD17RoundRect,0.225000X0.225000X0.250000X-0.225000X0.250000X-0.225000X-0.250000X0.225000X-0.250000X0*%
%ADD18RoundRect,0.250000X-0.450000X0.262500X-0.450000X-0.262500X0.450000X-0.262500X0.450000X0.262500X0*%
%ADD19RoundRect,0.243750X-0.456250X0.243750X-0.456250X-0.243750X0.456250X-0.243750X0.456250X0.243750X0*%
%ADD20RoundRect,0.225000X0.250000X-0.225000X0.250000X0.225000X-0.250000X0.225000X-0.250000X-0.225000X0*%
G04 APERTURE END LIST*
D10*
%TO.C,J10*%
X184500000Y-77200000D02*
X183250000Y-77200000D01*
X183250000Y-76500000D01*
X181850000Y-76500000D01*
X181850000Y-75400000D01*
X182550000Y-75400000D01*
X182550000Y-74900000D01*
X184500000Y-74900000D01*
X184500000Y-77200000D01*
G36*
X184500000Y-77200000D02*
G01*
X183250000Y-77200000D01*
X183250000Y-76500000D01*
X181850000Y-76500000D01*
X181850000Y-75400000D01*
X182550000Y-75400000D01*
X182550000Y-74900000D01*
X184500000Y-74900000D01*
X184500000Y-77200000D01*
G37*
X190850000Y-75400000D02*
X191550000Y-75400000D01*
X191550000Y-76500000D01*
X190150000Y-76500000D01*
X190150000Y-77200000D01*
X188900000Y-77200000D01*
X188900000Y-74900000D01*
X190850000Y-74900000D01*
X190850000Y-75400000D01*
G36*
X190850000Y-75400000D02*
G01*
X191550000Y-75400000D01*
X191550000Y-76500000D01*
X190150000Y-76500000D01*
X190150000Y-77200000D01*
X188900000Y-77200000D01*
X188900000Y-74900000D01*
X190850000Y-74900000D01*
X190850000Y-75400000D01*
G37*
%TD*%
D11*
%TO.C,U2*%
X221200000Y-69900000D03*
X218900000Y-69900000D03*
D12*
X218900000Y-63600000D03*
D11*
X216600000Y-69900000D03*
%TD*%
D13*
%TO.C,Y1*%
X192776010Y-79999683D03*
X194576010Y-79999683D03*
X194576010Y-80999683D03*
X192776010Y-80999683D03*
%TD*%
D14*
%TO.C,C2*%
X216725000Y-72100000D03*
X218275000Y-72100000D03*
%TD*%
D15*
%TO.C,D2*%
X162100000Y-83937500D03*
X162100000Y-82062500D03*
%TD*%
%TO.C,D3*%
X221452020Y-83937500D03*
X221452020Y-82062500D03*
%TD*%
D16*
%TO.C,J10*%
X188450000Y-74800000D03*
X187950000Y-74800000D03*
X187450000Y-74800000D03*
X186950000Y-74800000D03*
X186450000Y-74800000D03*
X185950000Y-74800000D03*
X185450000Y-74800000D03*
X184950000Y-74800000D03*
%TD*%
D17*
%TO.C,C1*%
X221275000Y-72000000D03*
X219725000Y-72000000D03*
%TD*%
D18*
%TO.C,TH1*%
X217452020Y-82087500D03*
X217452020Y-83912500D03*
%TD*%
D19*
%TO.C,D4*%
X164100000Y-82062500D03*
X164100000Y-83937500D03*
%TD*%
%TO.C,D1*%
X219452020Y-82062500D03*
X219452020Y-83937500D03*
%TD*%
D20*
%TO.C,C39*%
X196076010Y-81349683D03*
X196076010Y-79799683D03*
%TD*%
D18*
%TO.C,TH2*%
X166100000Y-82087500D03*
X166100000Y-83912500D03*
%TD*%
M02*
