%TF.GenerationSoftware,KiCad,Pcbnew,8.0.7*%
%TF.CreationDate,2026-07-08T19:47:49-07:00*%
%TF.ProjectId,ChemistryDetector,4368656d-6973-4747-9279-446574656374,rev?*%
%TF.SameCoordinates,Original*%
%TF.FileFunction,Drillmap*%
%TF.FilePolarity,Positive*%
%FSLAX45Y45*%
G04 Gerber Fmt 4.5, Leading zero omitted, Abs format (unit mm)*
G04 Created by KiCad (PCBNEW 8.0.7) date 2026-07-08 19:47:49*
%MOMM*%
%LPD*%
G01*
G04 APERTURE LIST*
%ADD10C,0.200000*%
%ADD11C,0.100000*%
G04 APERTURE END LIST*
D10*
X16621416Y-7244359D02*
X21471416Y-7244359D01*
X21471416Y-5419729D02*
G75*
G02*
X15721643Y-7244359I-2291565J-2750478D01*
G01*
X16621416Y-7244359D02*
X15721643Y-7244359D01*
X21471416Y-5419729D02*
X21471416Y-7244359D01*
D11*
X15722601Y-8464968D02*
X15752601Y-8494968D01*
X15752601Y-8464968D02*
X15722601Y-8494968D01*
X15861250Y-7661250D02*
X15891250Y-7691250D01*
X15891250Y-7661250D02*
X15861250Y-7691250D01*
X15905000Y-7455000D02*
X15935000Y-7485000D01*
X15935000Y-7455000D02*
X15905000Y-7485000D01*
X16125000Y-8785000D02*
X16155000Y-8815000D01*
X16155000Y-8785000D02*
X16125000Y-8815000D01*
X16155000Y-7681089D02*
X16185000Y-7711089D01*
X16185000Y-7681089D02*
X16155000Y-7711089D01*
X16233789Y-7743789D02*
X16263789Y-7773789D01*
X16263789Y-7743789D02*
X16233789Y-7773789D01*
X16262601Y-8844968D02*
X16292601Y-8874968D01*
X16292601Y-8844968D02*
X16262601Y-8874968D01*
X16315000Y-8025000D02*
X16345000Y-8055000D01*
X16345000Y-8025000D02*
X16315000Y-8055000D01*
X16395000Y-8105000D02*
X16425000Y-8135000D01*
X16425000Y-8105000D02*
X16395000Y-8135000D01*
X16405000Y-7495000D02*
X16435000Y-7525000D01*
X16435000Y-7495000D02*
X16405000Y-7525000D01*
X16415000Y-10115000D02*
X16445000Y-10145000D01*
X16445000Y-10115000D02*
X16415000Y-10145000D01*
X16452601Y-9184968D02*
X16482601Y-9214968D01*
X16482601Y-9184968D02*
X16452601Y-9214968D01*
X16465673Y-8547965D02*
X16495673Y-8577965D01*
X16495673Y-8547965D02*
X16465673Y-8577965D01*
X16492601Y-9934968D02*
X16522601Y-9964968D01*
X16522601Y-9934968D02*
X16492601Y-9964968D01*
X16522601Y-10264968D02*
X16552601Y-10294968D01*
X16552601Y-10264968D02*
X16522601Y-10294968D01*
X16585000Y-7405000D02*
X16615000Y-7435000D01*
X16615000Y-7405000D02*
X16585000Y-7435000D01*
X16603314Y-9610468D02*
X16633314Y-9640468D01*
X16633314Y-9610468D02*
X16603314Y-9640468D01*
X16625113Y-8564860D02*
X16655113Y-8594860D01*
X16655113Y-8564860D02*
X16625113Y-8594860D01*
X16645021Y-8772072D02*
X16675021Y-8802072D01*
X16675021Y-8772072D02*
X16645021Y-8802072D01*
X16715000Y-9095000D02*
X16745000Y-9125000D01*
X16745000Y-9095000D02*
X16715000Y-9125000D01*
X16775000Y-7665000D02*
X16805000Y-7695000D01*
X16805000Y-7665000D02*
X16775000Y-7695000D01*
X16795000Y-9555000D02*
X16825000Y-9585000D01*
X16825000Y-9555000D02*
X16795000Y-9585000D01*
X16885000Y-9085000D02*
X16915000Y-9115000D01*
X16915000Y-9085000D02*
X16885000Y-9115000D01*
X16952601Y-10364968D02*
X16982601Y-10394968D01*
X16982601Y-10364968D02*
X16952601Y-10394968D01*
X16972601Y-10684968D02*
X17002601Y-10714968D01*
X17002601Y-10684968D02*
X16972601Y-10714968D01*
X17012601Y-8432300D02*
X17042601Y-8462300D01*
X17042601Y-8432300D02*
X17012601Y-8462300D01*
X17025000Y-7695000D02*
X17055000Y-7725000D01*
X17055000Y-7695000D02*
X17025000Y-7725000D01*
X17135000Y-7985000D02*
X17165000Y-8015000D01*
X17165000Y-7985000D02*
X17135000Y-8015000D01*
X17232601Y-9104968D02*
X17262601Y-9134968D01*
X17262601Y-9104968D02*
X17232601Y-9134968D01*
X17562601Y-9034968D02*
X17592601Y-9064968D01*
X17592601Y-9034968D02*
X17562601Y-9064968D01*
X17882601Y-10154968D02*
X17912601Y-10184968D01*
X17912601Y-10154968D02*
X17882601Y-10184968D01*
X17962601Y-10684968D02*
X17992601Y-10714968D01*
X17992601Y-10684968D02*
X17962601Y-10714968D01*
X17982601Y-10364968D02*
X18012601Y-10394968D01*
X18012601Y-10364968D02*
X17982601Y-10394968D01*
X18115000Y-7425000D02*
X18145000Y-7455000D01*
X18145000Y-7425000D02*
X18115000Y-7455000D01*
X18152601Y-9174968D02*
X18182601Y-9204968D01*
X18182601Y-9174968D02*
X18152601Y-9204968D01*
X18162601Y-8634968D02*
X18192601Y-8664968D01*
X18192601Y-8634968D02*
X18162601Y-8664968D01*
X18215000Y-8365000D02*
X18245000Y-8395000D01*
X18245000Y-8365000D02*
X18215000Y-8395000D01*
X18262601Y-9024968D02*
X18292601Y-9054968D01*
X18292601Y-9024968D02*
X18262601Y-9054968D01*
X18302601Y-8154968D02*
X18332601Y-8184968D01*
X18332601Y-8154968D02*
X18302601Y-8184968D01*
X18320000Y-7406750D02*
X18350000Y-7436750D01*
X18350000Y-7406750D02*
X18320000Y-7436750D01*
X18322601Y-8324968D02*
X18352601Y-8354968D01*
X18352601Y-8324968D02*
X18322601Y-8354968D01*
X18352601Y-10194968D02*
X18382601Y-10224968D01*
X18382601Y-10194968D02*
X18352601Y-10224968D01*
X18382601Y-9144968D02*
X18412601Y-9174968D01*
X18412601Y-9144968D02*
X18382601Y-9174968D01*
X18422601Y-8214968D02*
X18452601Y-8244968D01*
X18452601Y-8214968D02*
X18422601Y-8244968D01*
X18494873Y-8004105D02*
X18524873Y-8034105D01*
X18524873Y-8004105D02*
X18494873Y-8034105D01*
X18541499Y-7930171D02*
X18571499Y-7960171D01*
X18571499Y-7930171D02*
X18541499Y-7960171D01*
X18552601Y-9534968D02*
X18582601Y-9564968D01*
X18582601Y-9534968D02*
X18552601Y-9564968D01*
X18594182Y-8166618D02*
X18624182Y-8196618D01*
X18624182Y-8166618D02*
X18594182Y-8196618D01*
X18615000Y-11195000D02*
X18645000Y-11225000D01*
X18645000Y-11195000D02*
X18615000Y-11225000D01*
X18629600Y-7961615D02*
X18659600Y-7991615D01*
X18659600Y-7961615D02*
X18629600Y-7991615D01*
X18655000Y-8245000D02*
X18685000Y-8275000D01*
X18685000Y-8245000D02*
X18655000Y-8275000D01*
X18692601Y-9924968D02*
X18722601Y-9954968D01*
X18722601Y-9924968D02*
X18692601Y-9954968D01*
X18712601Y-11384968D02*
X18742601Y-11414968D01*
X18742601Y-11384968D02*
X18712601Y-11414968D01*
X18742601Y-9524968D02*
X18772601Y-9554968D01*
X18772601Y-9524968D02*
X18742601Y-9554968D01*
X18812601Y-7664968D02*
X18842601Y-7694968D01*
X18842601Y-7664968D02*
X18812601Y-7694968D01*
X18835000Y-7785000D02*
X18865000Y-7815000D01*
X18865000Y-7785000D02*
X18835000Y-7815000D01*
X18915000Y-8715000D02*
X18945000Y-8745000D01*
X18945000Y-8715000D02*
X18915000Y-8745000D01*
X18920592Y-8810592D02*
X18950592Y-8840592D01*
X18950592Y-8810592D02*
X18920592Y-8840592D01*
X19022601Y-8274968D02*
X19052601Y-8304968D01*
X19052601Y-8274968D02*
X19022601Y-8304968D01*
X19045000Y-9635000D02*
X19075000Y-9665000D01*
X19075000Y-9635000D02*
X19045000Y-9665000D01*
X19052601Y-7874968D02*
X19082601Y-7904968D01*
X19082601Y-7874968D02*
X19052601Y-7904968D01*
X19120664Y-8220664D02*
X19150664Y-8250664D01*
X19150664Y-8220664D02*
X19120664Y-8250664D01*
X19152601Y-8594968D02*
X19182601Y-8624968D01*
X19182601Y-8594968D02*
X19152601Y-8624968D01*
X19162601Y-11444968D02*
X19192601Y-11474968D01*
X19192601Y-11444968D02*
X19162601Y-11474968D01*
X19182601Y-9204968D02*
X19212601Y-9234968D01*
X19212601Y-9204968D02*
X19182601Y-9234968D01*
X19185000Y-10555000D02*
X19215000Y-10585000D01*
X19215000Y-10555000D02*
X19185000Y-10585000D01*
X19255000Y-7505000D02*
X19285000Y-7535000D01*
X19285000Y-7505000D02*
X19255000Y-7535000D01*
X19255000Y-9035000D02*
X19285000Y-9065000D01*
X19285000Y-9035000D02*
X19255000Y-9065000D01*
X19295000Y-8695000D02*
X19325000Y-8725000D01*
X19325000Y-8695000D02*
X19295000Y-8725000D01*
X19325000Y-7805000D02*
X19355000Y-7835000D01*
X19355000Y-7805000D02*
X19325000Y-7835000D01*
X19332601Y-8434968D02*
X19362601Y-8464968D01*
X19362601Y-8434968D02*
X19332601Y-8464968D01*
X19392601Y-8984968D02*
X19422601Y-9014968D01*
X19422601Y-8984968D02*
X19392601Y-9014968D01*
X19415000Y-8765000D02*
X19445000Y-8795000D01*
X19445000Y-8765000D02*
X19415000Y-8795000D01*
X19495000Y-8475000D02*
X19525000Y-8505000D01*
X19525000Y-8475000D02*
X19495000Y-8505000D01*
X19496271Y-7875173D02*
X19526271Y-7905173D01*
X19526271Y-7875173D02*
X19496271Y-7905173D01*
X19565000Y-8835000D02*
X19595000Y-8865000D01*
X19595000Y-8835000D02*
X19565000Y-8865000D01*
X19605000Y-7565000D02*
X19635000Y-7595000D01*
X19635000Y-7565000D02*
X19605000Y-7595000D01*
X19622601Y-11394968D02*
X19652601Y-11424968D01*
X19652601Y-11394968D02*
X19622601Y-11424968D01*
X19625027Y-8772300D02*
X19655027Y-8802300D01*
X19655027Y-8772300D02*
X19625027Y-8802300D01*
X19665000Y-9425000D02*
X19695000Y-9455000D01*
X19695000Y-9425000D02*
X19665000Y-9455000D01*
X19675000Y-7735000D02*
X19705000Y-7765000D01*
X19705000Y-7735000D02*
X19675000Y-7765000D01*
X19715000Y-11215000D02*
X19745000Y-11245000D01*
X19745000Y-11215000D02*
X19715000Y-11245000D01*
X19726506Y-8643687D02*
X19756506Y-8673687D01*
X19756506Y-8643687D02*
X19726506Y-8673687D01*
X19785000Y-8205000D02*
X19815000Y-8235000D01*
X19815000Y-8205000D02*
X19785000Y-8235000D01*
X19805000Y-7735000D02*
X19835000Y-7765000D01*
X19835000Y-7735000D02*
X19805000Y-7765000D01*
X19925000Y-7735000D02*
X19955000Y-7765000D01*
X19955000Y-7735000D02*
X19925000Y-7765000D01*
X19932601Y-9154968D02*
X19962601Y-9184968D01*
X19962601Y-9154968D02*
X19932601Y-9184968D01*
X19972601Y-9994968D02*
X20002601Y-10024968D01*
X20002601Y-9994968D02*
X19972601Y-10024968D01*
X19989136Y-7409136D02*
X20019136Y-7439136D01*
X20019136Y-7409136D02*
X19989136Y-7439136D01*
X20005000Y-7845000D02*
X20035000Y-7875000D01*
X20035000Y-7845000D02*
X20005000Y-7875000D01*
X20005000Y-8675000D02*
X20035000Y-8705000D01*
X20035000Y-8675000D02*
X20005000Y-8705000D01*
X20054688Y-9018233D02*
X20084688Y-9048233D01*
X20084688Y-9018233D02*
X20054688Y-9048233D01*
X20095000Y-8705000D02*
X20125000Y-8735000D01*
X20125000Y-8705000D02*
X20095000Y-8735000D01*
X20132601Y-9274968D02*
X20162601Y-9304968D01*
X20162601Y-9274968D02*
X20132601Y-9304968D01*
X20172601Y-9774968D02*
X20202601Y-9804968D01*
X20202601Y-9774968D02*
X20172601Y-9804968D01*
X20202601Y-11414968D02*
X20232601Y-11444968D01*
X20232601Y-11414968D02*
X20202601Y-11444968D01*
X20562601Y-10624968D02*
X20592601Y-10654968D01*
X20592601Y-10624968D02*
X20562601Y-10654968D01*
X20970000Y-8000000D02*
X21000000Y-8030000D01*
X21000000Y-8000000D02*
X20970000Y-8030000D01*
X20982601Y-9124968D02*
X21012601Y-9154968D01*
X21012601Y-9124968D02*
X20982601Y-9154968D01*
X21112601Y-7754968D02*
X21142601Y-7784968D01*
X21142601Y-7754968D02*
X21112601Y-7784968D01*
X21345000Y-7965000D02*
X21375000Y-7995000D01*
X21375000Y-7965000D02*
X21345000Y-7995000D01*
X21384019Y-7577390D02*
X21414019Y-7607390D01*
X21414019Y-7577390D02*
X21384019Y-7607390D01*
X21425000Y-8195000D02*
X21455000Y-8225000D01*
X21455000Y-8195000D02*
X21425000Y-8225000D01*
X21485000Y-7445000D02*
X21515000Y-7475000D01*
X21515000Y-7445000D02*
X21485000Y-7475000D01*
X21502601Y-9744968D02*
X21532601Y-9774968D01*
X21532601Y-9744968D02*
X21502601Y-9774968D01*
X21592601Y-6374968D02*
X21622601Y-6404968D01*
X21622601Y-6374968D02*
X21592601Y-6404968D01*
X21595000Y-8835000D02*
X21625000Y-8865000D01*
X21625000Y-8835000D02*
X21595000Y-8865000D01*
X21605000Y-7675000D02*
X21635000Y-7705000D01*
X21635000Y-7675000D02*
X21605000Y-7705000D01*
X21642601Y-6104968D02*
X21672601Y-6134968D01*
X21672601Y-6104968D02*
X21642601Y-6134968D01*
X21656202Y-8492980D02*
X21686202Y-8522980D01*
X21686202Y-8492980D02*
X21656202Y-8522980D01*
X21685000Y-9015000D02*
X21715000Y-9045000D01*
X21715000Y-9015000D02*
X21685000Y-9045000D01*
X21725000Y-6545000D02*
X21755000Y-6575000D01*
X21755000Y-6545000D02*
X21725000Y-6575000D01*
X21735000Y-7395000D02*
X21765000Y-7425000D01*
X21765000Y-7395000D02*
X21735000Y-7425000D01*
X21785000Y-8985000D02*
X21815000Y-9015000D01*
X21815000Y-8985000D02*
X21785000Y-9015000D01*
X21835000Y-9535000D02*
X21865000Y-9565000D01*
X21865000Y-9535000D02*
X21835000Y-9565000D01*
X21865000Y-7745000D02*
X21895000Y-7775000D01*
X21895000Y-7745000D02*
X21865000Y-7775000D01*
X21872601Y-9114968D02*
X21902601Y-9144968D01*
X21902601Y-9114968D02*
X21872601Y-9144968D01*
X21922601Y-6544968D02*
X21952601Y-6574968D01*
X21952601Y-6544968D02*
X21922601Y-6574968D01*
X21955000Y-8105000D02*
X21985000Y-8135000D01*
X21985000Y-8105000D02*
X21955000Y-8135000D01*
X21972601Y-6204968D02*
X22002601Y-6234968D01*
X22002601Y-6204968D02*
X21972601Y-6234968D01*
X21975000Y-8495000D02*
X22005000Y-8525000D01*
X22005000Y-8495000D02*
X21975000Y-8525000D01*
X21995000Y-7865000D02*
X22025000Y-7895000D01*
X22025000Y-7865000D02*
X21995000Y-7895000D01*
X21995000Y-8645000D02*
X22025000Y-8675000D01*
X22025000Y-8645000D02*
X21995000Y-8675000D01*
X22022601Y-9874968D02*
X22052601Y-9904968D01*
X22052601Y-9874968D02*
X22022601Y-9904968D01*
X22065000Y-9055000D02*
X22095000Y-9085000D01*
X22095000Y-9055000D02*
X22065000Y-9085000D01*
X22065000Y-9495000D02*
X22095000Y-9525000D01*
X22095000Y-9495000D02*
X22065000Y-9525000D01*
X22083868Y-7866132D02*
X22113868Y-7896132D01*
X22113868Y-7866132D02*
X22083868Y-7896132D01*
X22095000Y-7535000D02*
X22125000Y-7565000D01*
X22125000Y-7535000D02*
X22095000Y-7565000D01*
X22112601Y-6424968D02*
X22142601Y-6454968D01*
X22142601Y-6424968D02*
X22112601Y-6454968D01*
X22245000Y-8515000D02*
X22275000Y-8545000D01*
X22275000Y-8515000D02*
X22245000Y-8545000D01*
X22255000Y-7075000D02*
X22285000Y-7105000D01*
X22285000Y-7075000D02*
X22255000Y-7105000D01*
X22295000Y-6675000D02*
X22325000Y-6705000D01*
X22325000Y-6675000D02*
X22295000Y-6705000D01*
X22315000Y-6955000D02*
X22345000Y-6985000D01*
X22345000Y-6955000D02*
X22315000Y-6985000D01*
X22317740Y-8275000D02*
X22347740Y-8305000D01*
X22347740Y-8275000D02*
X22317740Y-8305000D01*
X22345000Y-8855000D02*
X22375000Y-8885000D01*
X22375000Y-8855000D02*
X22345000Y-8885000D01*
X22355000Y-7335000D02*
X22385000Y-7365000D01*
X22385000Y-7335000D02*
X22355000Y-7365000D01*
X22375000Y-8585000D02*
X22405000Y-8615000D01*
X22405000Y-8585000D02*
X22375000Y-8615000D01*
X22485000Y-8265000D02*
X22515000Y-8295000D01*
X22515000Y-8265000D02*
X22485000Y-8295000D01*
X22545000Y-8125000D02*
X22575000Y-8155000D01*
X22575000Y-8125000D02*
X22545000Y-8155000D01*
X15785240Y-8040000D02*
G75*
G02*
X15754760Y-8040000I-15240J0D01*
G01*
X15754760Y-8040000D02*
G75*
G02*
X15785240Y-8040000I15240J0D01*
G01*
X15975240Y-8270000D02*
G75*
G02*
X15944760Y-8270000I-15240J0D01*
G01*
X15944760Y-8270000D02*
G75*
G02*
X15975240Y-8270000I15240J0D01*
G01*
X16045240Y-9520000D02*
G75*
G02*
X16014760Y-9520000I-15240J0D01*
G01*
X16014760Y-9520000D02*
G75*
G02*
X16045240Y-9520000I15240J0D01*
G01*
X16068862Y-7996948D02*
G75*
G02*
X16038382Y-7996948I-15240J0D01*
G01*
X16038382Y-7996948D02*
G75*
G02*
X16068862Y-7996948I15240J0D01*
G01*
X16215240Y-9127500D02*
G75*
G02*
X16184760Y-9127500I-15240J0D01*
G01*
X16184760Y-9127500D02*
G75*
G02*
X16215240Y-9127500I15240J0D01*
G01*
X16325240Y-9440000D02*
G75*
G02*
X16294760Y-9440000I-15240J0D01*
G01*
X16294760Y-9440000D02*
G75*
G02*
X16325240Y-9440000I15240J0D01*
G01*
X17155240Y-10210000D02*
G75*
G02*
X17124760Y-10210000I-15240J0D01*
G01*
X17124760Y-10210000D02*
G75*
G02*
X17155240Y-10210000I15240J0D01*
G01*
X17235240Y-10320000D02*
G75*
G02*
X17204760Y-10320000I-15240J0D01*
G01*
X17204760Y-10320000D02*
G75*
G02*
X17235240Y-10320000I15240J0D01*
G01*
X17295240Y-10520000D02*
G75*
G02*
X17264760Y-10520000I-15240J0D01*
G01*
X17264760Y-10520000D02*
G75*
G02*
X17295240Y-10520000I15240J0D01*
G01*
X17515240Y-9570000D02*
G75*
G02*
X17484760Y-9570000I-15240J0D01*
G01*
X17484760Y-9570000D02*
G75*
G02*
X17515240Y-9570000I15240J0D01*
G01*
X21790000Y-6784600D02*
X21790000Y-6835400D01*
X21764600Y-6810000D02*
X21815400Y-6810000D01*
X21953816Y-6850784D02*
X21953816Y-6901584D01*
X21928416Y-6876184D02*
X21979216Y-6876184D01*
X17078856Y-7485356D02*
X17078856Y-7414644D01*
X17008144Y-7414644D01*
X17008144Y-7485356D01*
X17078856Y-7485356D01*
X17332856Y-7485356D02*
X17332856Y-7414644D01*
X17262144Y-7414644D01*
X17262144Y-7485356D01*
X17332856Y-7485356D01*
X18375356Y-10835356D02*
X18375356Y-10764644D01*
X18304644Y-10764644D01*
X18304644Y-10835356D01*
X18375356Y-10835356D01*
X18375356Y-11285356D02*
X18375356Y-11214644D01*
X18304644Y-11214644D01*
X18304644Y-11285356D01*
X18375356Y-11285356D01*
X18887957Y-10175356D02*
X18887957Y-10104644D01*
X18817245Y-10104644D01*
X18817245Y-10175356D01*
X18887957Y-10175356D01*
X18887957Y-10625356D02*
X18887957Y-10554644D01*
X18817245Y-10554644D01*
X18817245Y-10625356D01*
X18887957Y-10625356D01*
X19025356Y-10835356D02*
X19025356Y-10764644D01*
X18954644Y-10764644D01*
X18954644Y-10835356D01*
X19025356Y-10835356D01*
X19025356Y-11285356D02*
X19025356Y-11214644D01*
X18954644Y-11214644D01*
X18954644Y-11285356D01*
X19025356Y-11285356D01*
X19400558Y-10835356D02*
X19400558Y-10764644D01*
X19329846Y-10764644D01*
X19329846Y-10835356D01*
X19400558Y-10835356D01*
X19400558Y-11285356D02*
X19400558Y-11214644D01*
X19329846Y-11214644D01*
X19329846Y-11285356D01*
X19400558Y-11285356D01*
X19537957Y-10175356D02*
X19537957Y-10104644D01*
X19467245Y-10104644D01*
X19467245Y-10175356D01*
X19537957Y-10175356D01*
X19537957Y-10625356D02*
X19537957Y-10554644D01*
X19467245Y-10554644D01*
X19467245Y-10625356D01*
X19537957Y-10625356D01*
X20050558Y-10835356D02*
X20050558Y-10764644D01*
X19979846Y-10764644D01*
X19979846Y-10835356D01*
X20050558Y-10835356D01*
X20050558Y-11285356D02*
X20050558Y-11214644D01*
X19979846Y-11214644D01*
X19979846Y-11285356D01*
X20050558Y-11285356D01*
D10*
X16860000Y-8890000D02*
X16960000Y-8790000D01*
X16860000Y-8690000D01*
X16760000Y-8790000D01*
X16860000Y-8890000D01*
X16880000Y-10240000D02*
X16980000Y-10140000D01*
X16880000Y-10040000D01*
X16780000Y-10140000D01*
X16880000Y-10240000D01*
X21037601Y-10369968D02*
X21137601Y-10269968D01*
X21037601Y-10169968D01*
X20937601Y-10269968D01*
X21037601Y-10369968D01*
X21410000Y-8720000D02*
X21510000Y-8620000D01*
X21410000Y-8520000D01*
X21310000Y-8620000D01*
X21410000Y-8720000D01*
X15850628Y-12071691D02*
X15850628Y-11871691D01*
X15850628Y-11871691D02*
X15898247Y-11871691D01*
X15898247Y-11871691D02*
X15926818Y-11881215D01*
X15926818Y-11881215D02*
X15945866Y-11900263D01*
X15945866Y-11900263D02*
X15955390Y-11919310D01*
X15955390Y-11919310D02*
X15964914Y-11957405D01*
X15964914Y-11957405D02*
X15964914Y-11985977D01*
X15964914Y-11985977D02*
X15955390Y-12024072D01*
X15955390Y-12024072D02*
X15945866Y-12043120D01*
X15945866Y-12043120D02*
X15926818Y-12062167D01*
X15926818Y-12062167D02*
X15898247Y-12071691D01*
X15898247Y-12071691D02*
X15850628Y-12071691D01*
X16050628Y-12071691D02*
X16050628Y-11938358D01*
X16050628Y-11976453D02*
X16060152Y-11957405D01*
X16060152Y-11957405D02*
X16069675Y-11947882D01*
X16069675Y-11947882D02*
X16088723Y-11938358D01*
X16088723Y-11938358D02*
X16107771Y-11938358D01*
X16174437Y-12071691D02*
X16174437Y-11938358D01*
X16174437Y-11871691D02*
X16164914Y-11881215D01*
X16164914Y-11881215D02*
X16174437Y-11890739D01*
X16174437Y-11890739D02*
X16183961Y-11881215D01*
X16183961Y-11881215D02*
X16174437Y-11871691D01*
X16174437Y-11871691D02*
X16174437Y-11890739D01*
X16298247Y-12071691D02*
X16279199Y-12062167D01*
X16279199Y-12062167D02*
X16269675Y-12043120D01*
X16269675Y-12043120D02*
X16269675Y-11871691D01*
X16403009Y-12071691D02*
X16383961Y-12062167D01*
X16383961Y-12062167D02*
X16374437Y-12043120D01*
X16374437Y-12043120D02*
X16374437Y-11871691D01*
X16631580Y-12071691D02*
X16631580Y-11871691D01*
X16631580Y-11871691D02*
X16698247Y-12014548D01*
X16698247Y-12014548D02*
X16764914Y-11871691D01*
X16764914Y-11871691D02*
X16764914Y-12071691D01*
X16945866Y-12071691D02*
X16945866Y-11966929D01*
X16945866Y-11966929D02*
X16936342Y-11947882D01*
X16936342Y-11947882D02*
X16917295Y-11938358D01*
X16917295Y-11938358D02*
X16879199Y-11938358D01*
X16879199Y-11938358D02*
X16860152Y-11947882D01*
X16945866Y-12062167D02*
X16926818Y-12071691D01*
X16926818Y-12071691D02*
X16879199Y-12071691D01*
X16879199Y-12071691D02*
X16860152Y-12062167D01*
X16860152Y-12062167D02*
X16850628Y-12043120D01*
X16850628Y-12043120D02*
X16850628Y-12024072D01*
X16850628Y-12024072D02*
X16860152Y-12005024D01*
X16860152Y-12005024D02*
X16879199Y-11995501D01*
X16879199Y-11995501D02*
X16926818Y-11995501D01*
X16926818Y-11995501D02*
X16945866Y-11985977D01*
X17041104Y-11938358D02*
X17041104Y-12138358D01*
X17041104Y-11947882D02*
X17060152Y-11938358D01*
X17060152Y-11938358D02*
X17098247Y-11938358D01*
X17098247Y-11938358D02*
X17117295Y-11947882D01*
X17117295Y-11947882D02*
X17126818Y-11957405D01*
X17126818Y-11957405D02*
X17136342Y-11976453D01*
X17136342Y-11976453D02*
X17136342Y-12033596D01*
X17136342Y-12033596D02*
X17126818Y-12052643D01*
X17126818Y-12052643D02*
X17117295Y-12062167D01*
X17117295Y-12062167D02*
X17098247Y-12071691D01*
X17098247Y-12071691D02*
X17060152Y-12071691D01*
X17060152Y-12071691D02*
X17041104Y-12062167D01*
X17222057Y-12052643D02*
X17231580Y-12062167D01*
X17231580Y-12062167D02*
X17222057Y-12071691D01*
X17222057Y-12071691D02*
X17212533Y-12062167D01*
X17212533Y-12062167D02*
X17222057Y-12052643D01*
X17222057Y-12052643D02*
X17222057Y-12071691D01*
X17222057Y-11947882D02*
X17231580Y-11957405D01*
X17231580Y-11957405D02*
X17222057Y-11966929D01*
X17222057Y-11966929D02*
X17212533Y-11957405D01*
X17212533Y-11957405D02*
X17222057Y-11947882D01*
X17222057Y-11947882D02*
X17222057Y-11966929D01*
D11*
X15559851Y-12385207D02*
X15589851Y-12415207D01*
X15589851Y-12385207D02*
X15559851Y-12415207D01*
D10*
X15888723Y-12291691D02*
X15907771Y-12291691D01*
X15907771Y-12291691D02*
X15926818Y-12301215D01*
X15926818Y-12301215D02*
X15936342Y-12310739D01*
X15936342Y-12310739D02*
X15945866Y-12329786D01*
X15945866Y-12329786D02*
X15955390Y-12367882D01*
X15955390Y-12367882D02*
X15955390Y-12415501D01*
X15955390Y-12415501D02*
X15945866Y-12453596D01*
X15945866Y-12453596D02*
X15936342Y-12472643D01*
X15936342Y-12472643D02*
X15926818Y-12482167D01*
X15926818Y-12482167D02*
X15907771Y-12491691D01*
X15907771Y-12491691D02*
X15888723Y-12491691D01*
X15888723Y-12491691D02*
X15869675Y-12482167D01*
X15869675Y-12482167D02*
X15860152Y-12472643D01*
X15860152Y-12472643D02*
X15850628Y-12453596D01*
X15850628Y-12453596D02*
X15841104Y-12415501D01*
X15841104Y-12415501D02*
X15841104Y-12367882D01*
X15841104Y-12367882D02*
X15850628Y-12329786D01*
X15850628Y-12329786D02*
X15860152Y-12310739D01*
X15860152Y-12310739D02*
X15869675Y-12301215D01*
X15869675Y-12301215D02*
X15888723Y-12291691D01*
X16041104Y-12472643D02*
X16050628Y-12482167D01*
X16050628Y-12482167D02*
X16041104Y-12491691D01*
X16041104Y-12491691D02*
X16031580Y-12482167D01*
X16031580Y-12482167D02*
X16041104Y-12472643D01*
X16041104Y-12472643D02*
X16041104Y-12491691D01*
X16117295Y-12291691D02*
X16241104Y-12291691D01*
X16241104Y-12291691D02*
X16174437Y-12367882D01*
X16174437Y-12367882D02*
X16203009Y-12367882D01*
X16203009Y-12367882D02*
X16222056Y-12377405D01*
X16222056Y-12377405D02*
X16231580Y-12386929D01*
X16231580Y-12386929D02*
X16241104Y-12405977D01*
X16241104Y-12405977D02*
X16241104Y-12453596D01*
X16241104Y-12453596D02*
X16231580Y-12472643D01*
X16231580Y-12472643D02*
X16222056Y-12482167D01*
X16222056Y-12482167D02*
X16203009Y-12491691D01*
X16203009Y-12491691D02*
X16145866Y-12491691D01*
X16145866Y-12491691D02*
X16126818Y-12482167D01*
X16126818Y-12482167D02*
X16117295Y-12472643D01*
X16364914Y-12291691D02*
X16383961Y-12291691D01*
X16383961Y-12291691D02*
X16403009Y-12301215D01*
X16403009Y-12301215D02*
X16412533Y-12310739D01*
X16412533Y-12310739D02*
X16422056Y-12329786D01*
X16422056Y-12329786D02*
X16431580Y-12367882D01*
X16431580Y-12367882D02*
X16431580Y-12415501D01*
X16431580Y-12415501D02*
X16422056Y-12453596D01*
X16422056Y-12453596D02*
X16412533Y-12472643D01*
X16412533Y-12472643D02*
X16403009Y-12482167D01*
X16403009Y-12482167D02*
X16383961Y-12491691D01*
X16383961Y-12491691D02*
X16364914Y-12491691D01*
X16364914Y-12491691D02*
X16345866Y-12482167D01*
X16345866Y-12482167D02*
X16336342Y-12472643D01*
X16336342Y-12472643D02*
X16326818Y-12453596D01*
X16326818Y-12453596D02*
X16317295Y-12415501D01*
X16317295Y-12415501D02*
X16317295Y-12367882D01*
X16317295Y-12367882D02*
X16326818Y-12329786D01*
X16326818Y-12329786D02*
X16336342Y-12310739D01*
X16336342Y-12310739D02*
X16345866Y-12301215D01*
X16345866Y-12301215D02*
X16364914Y-12291691D01*
X16555390Y-12291691D02*
X16574437Y-12291691D01*
X16574437Y-12291691D02*
X16593485Y-12301215D01*
X16593485Y-12301215D02*
X16603009Y-12310739D01*
X16603009Y-12310739D02*
X16612533Y-12329786D01*
X16612533Y-12329786D02*
X16622056Y-12367882D01*
X16622056Y-12367882D02*
X16622056Y-12415501D01*
X16622056Y-12415501D02*
X16612533Y-12453596D01*
X16612533Y-12453596D02*
X16603009Y-12472643D01*
X16603009Y-12472643D02*
X16593485Y-12482167D01*
X16593485Y-12482167D02*
X16574437Y-12491691D01*
X16574437Y-12491691D02*
X16555390Y-12491691D01*
X16555390Y-12491691D02*
X16536342Y-12482167D01*
X16536342Y-12482167D02*
X16526818Y-12472643D01*
X16526818Y-12472643D02*
X16517295Y-12453596D01*
X16517295Y-12453596D02*
X16507771Y-12415501D01*
X16507771Y-12415501D02*
X16507771Y-12367882D01*
X16507771Y-12367882D02*
X16517295Y-12329786D01*
X16517295Y-12329786D02*
X16526818Y-12310739D01*
X16526818Y-12310739D02*
X16536342Y-12301215D01*
X16536342Y-12301215D02*
X16555390Y-12291691D01*
X16707771Y-12491691D02*
X16707771Y-12358358D01*
X16707771Y-12377405D02*
X16717295Y-12367882D01*
X16717295Y-12367882D02*
X16736342Y-12358358D01*
X16736342Y-12358358D02*
X16764914Y-12358358D01*
X16764914Y-12358358D02*
X16783961Y-12367882D01*
X16783961Y-12367882D02*
X16793485Y-12386929D01*
X16793485Y-12386929D02*
X16793485Y-12491691D01*
X16793485Y-12386929D02*
X16803009Y-12367882D01*
X16803009Y-12367882D02*
X16822057Y-12358358D01*
X16822057Y-12358358D02*
X16850628Y-12358358D01*
X16850628Y-12358358D02*
X16869676Y-12367882D01*
X16869676Y-12367882D02*
X16879199Y-12386929D01*
X16879199Y-12386929D02*
X16879199Y-12491691D01*
X16974438Y-12491691D02*
X16974438Y-12358358D01*
X16974438Y-12377405D02*
X16983961Y-12367882D01*
X16983961Y-12367882D02*
X17003009Y-12358358D01*
X17003009Y-12358358D02*
X17031580Y-12358358D01*
X17031580Y-12358358D02*
X17050628Y-12367882D01*
X17050628Y-12367882D02*
X17060152Y-12386929D01*
X17060152Y-12386929D02*
X17060152Y-12491691D01*
X17060152Y-12386929D02*
X17069676Y-12367882D01*
X17069676Y-12367882D02*
X17088723Y-12358358D01*
X17088723Y-12358358D02*
X17117295Y-12358358D01*
X17117295Y-12358358D02*
X17136342Y-12367882D01*
X17136342Y-12367882D02*
X17145866Y-12386929D01*
X17145866Y-12386929D02*
X17145866Y-12491691D01*
X17536342Y-12282167D02*
X17364914Y-12539310D01*
X17793485Y-12291691D02*
X17812533Y-12291691D01*
X17812533Y-12291691D02*
X17831581Y-12301215D01*
X17831581Y-12301215D02*
X17841104Y-12310739D01*
X17841104Y-12310739D02*
X17850628Y-12329786D01*
X17850628Y-12329786D02*
X17860152Y-12367882D01*
X17860152Y-12367882D02*
X17860152Y-12415501D01*
X17860152Y-12415501D02*
X17850628Y-12453596D01*
X17850628Y-12453596D02*
X17841104Y-12472643D01*
X17841104Y-12472643D02*
X17831581Y-12482167D01*
X17831581Y-12482167D02*
X17812533Y-12491691D01*
X17812533Y-12491691D02*
X17793485Y-12491691D01*
X17793485Y-12491691D02*
X17774438Y-12482167D01*
X17774438Y-12482167D02*
X17764914Y-12472643D01*
X17764914Y-12472643D02*
X17755390Y-12453596D01*
X17755390Y-12453596D02*
X17745866Y-12415501D01*
X17745866Y-12415501D02*
X17745866Y-12367882D01*
X17745866Y-12367882D02*
X17755390Y-12329786D01*
X17755390Y-12329786D02*
X17764914Y-12310739D01*
X17764914Y-12310739D02*
X17774438Y-12301215D01*
X17774438Y-12301215D02*
X17793485Y-12291691D01*
X17945866Y-12472643D02*
X17955390Y-12482167D01*
X17955390Y-12482167D02*
X17945866Y-12491691D01*
X17945866Y-12491691D02*
X17936342Y-12482167D01*
X17936342Y-12482167D02*
X17945866Y-12472643D01*
X17945866Y-12472643D02*
X17945866Y-12491691D01*
X18079200Y-12291691D02*
X18098247Y-12291691D01*
X18098247Y-12291691D02*
X18117295Y-12301215D01*
X18117295Y-12301215D02*
X18126819Y-12310739D01*
X18126819Y-12310739D02*
X18136342Y-12329786D01*
X18136342Y-12329786D02*
X18145866Y-12367882D01*
X18145866Y-12367882D02*
X18145866Y-12415501D01*
X18145866Y-12415501D02*
X18136342Y-12453596D01*
X18136342Y-12453596D02*
X18126819Y-12472643D01*
X18126819Y-12472643D02*
X18117295Y-12482167D01*
X18117295Y-12482167D02*
X18098247Y-12491691D01*
X18098247Y-12491691D02*
X18079200Y-12491691D01*
X18079200Y-12491691D02*
X18060152Y-12482167D01*
X18060152Y-12482167D02*
X18050628Y-12472643D01*
X18050628Y-12472643D02*
X18041104Y-12453596D01*
X18041104Y-12453596D02*
X18031581Y-12415501D01*
X18031581Y-12415501D02*
X18031581Y-12367882D01*
X18031581Y-12367882D02*
X18041104Y-12329786D01*
X18041104Y-12329786D02*
X18050628Y-12310739D01*
X18050628Y-12310739D02*
X18060152Y-12301215D01*
X18060152Y-12301215D02*
X18079200Y-12291691D01*
X18336342Y-12491691D02*
X18222057Y-12491691D01*
X18279200Y-12491691D02*
X18279200Y-12291691D01*
X18279200Y-12291691D02*
X18260152Y-12320263D01*
X18260152Y-12320263D02*
X18241104Y-12339310D01*
X18241104Y-12339310D02*
X18222057Y-12348834D01*
X18526819Y-12491691D02*
X18412533Y-12491691D01*
X18469676Y-12491691D02*
X18469676Y-12291691D01*
X18469676Y-12291691D02*
X18450628Y-12320263D01*
X18450628Y-12320263D02*
X18431581Y-12339310D01*
X18431581Y-12339310D02*
X18412533Y-12348834D01*
X18641104Y-12377405D02*
X18622057Y-12367882D01*
X18622057Y-12367882D02*
X18612533Y-12358358D01*
X18612533Y-12358358D02*
X18603009Y-12339310D01*
X18603009Y-12339310D02*
X18603009Y-12329786D01*
X18603009Y-12329786D02*
X18612533Y-12310739D01*
X18612533Y-12310739D02*
X18622057Y-12301215D01*
X18622057Y-12301215D02*
X18641104Y-12291691D01*
X18641104Y-12291691D02*
X18679200Y-12291691D01*
X18679200Y-12291691D02*
X18698247Y-12301215D01*
X18698247Y-12301215D02*
X18707771Y-12310739D01*
X18707771Y-12310739D02*
X18717295Y-12329786D01*
X18717295Y-12329786D02*
X18717295Y-12339310D01*
X18717295Y-12339310D02*
X18707771Y-12358358D01*
X18707771Y-12358358D02*
X18698247Y-12367882D01*
X18698247Y-12367882D02*
X18679200Y-12377405D01*
X18679200Y-12377405D02*
X18641104Y-12377405D01*
X18641104Y-12377405D02*
X18622057Y-12386929D01*
X18622057Y-12386929D02*
X18612533Y-12396453D01*
X18612533Y-12396453D02*
X18603009Y-12415501D01*
X18603009Y-12415501D02*
X18603009Y-12453596D01*
X18603009Y-12453596D02*
X18612533Y-12472643D01*
X18612533Y-12472643D02*
X18622057Y-12482167D01*
X18622057Y-12482167D02*
X18641104Y-12491691D01*
X18641104Y-12491691D02*
X18679200Y-12491691D01*
X18679200Y-12491691D02*
X18698247Y-12482167D01*
X18698247Y-12482167D02*
X18707771Y-12472643D01*
X18707771Y-12472643D02*
X18717295Y-12453596D01*
X18717295Y-12453596D02*
X18717295Y-12415501D01*
X18717295Y-12415501D02*
X18707771Y-12396453D01*
X18707771Y-12396453D02*
X18698247Y-12386929D01*
X18698247Y-12386929D02*
X18679200Y-12377405D01*
X18793485Y-12291691D02*
X18793485Y-12329786D01*
X18869676Y-12291691D02*
X18869676Y-12329786D01*
X19164914Y-12567882D02*
X19155390Y-12558358D01*
X19155390Y-12558358D02*
X19136343Y-12529786D01*
X19136343Y-12529786D02*
X19126819Y-12510739D01*
X19126819Y-12510739D02*
X19117295Y-12482167D01*
X19117295Y-12482167D02*
X19107771Y-12434548D01*
X19107771Y-12434548D02*
X19107771Y-12396453D01*
X19107771Y-12396453D02*
X19117295Y-12348834D01*
X19117295Y-12348834D02*
X19126819Y-12320263D01*
X19126819Y-12320263D02*
X19136343Y-12301215D01*
X19136343Y-12301215D02*
X19155390Y-12272643D01*
X19155390Y-12272643D02*
X19164914Y-12263120D01*
X19345866Y-12491691D02*
X19231581Y-12491691D01*
X19288723Y-12491691D02*
X19288723Y-12291691D01*
X19288723Y-12291691D02*
X19269676Y-12320263D01*
X19269676Y-12320263D02*
X19250628Y-12339310D01*
X19250628Y-12339310D02*
X19231581Y-12348834D01*
X19412533Y-12291691D02*
X19536343Y-12291691D01*
X19536343Y-12291691D02*
X19469676Y-12367882D01*
X19469676Y-12367882D02*
X19498247Y-12367882D01*
X19498247Y-12367882D02*
X19517295Y-12377405D01*
X19517295Y-12377405D02*
X19526819Y-12386929D01*
X19526819Y-12386929D02*
X19536343Y-12405977D01*
X19536343Y-12405977D02*
X19536343Y-12453596D01*
X19536343Y-12453596D02*
X19526819Y-12472643D01*
X19526819Y-12472643D02*
X19517295Y-12482167D01*
X19517295Y-12482167D02*
X19498247Y-12491691D01*
X19498247Y-12491691D02*
X19441104Y-12491691D01*
X19441104Y-12491691D02*
X19422057Y-12482167D01*
X19422057Y-12482167D02*
X19412533Y-12472643D01*
X19631581Y-12491691D02*
X19669676Y-12491691D01*
X19669676Y-12491691D02*
X19688724Y-12482167D01*
X19688724Y-12482167D02*
X19698247Y-12472643D01*
X19698247Y-12472643D02*
X19717295Y-12444072D01*
X19717295Y-12444072D02*
X19726819Y-12405977D01*
X19726819Y-12405977D02*
X19726819Y-12329786D01*
X19726819Y-12329786D02*
X19717295Y-12310739D01*
X19717295Y-12310739D02*
X19707771Y-12301215D01*
X19707771Y-12301215D02*
X19688724Y-12291691D01*
X19688724Y-12291691D02*
X19650628Y-12291691D01*
X19650628Y-12291691D02*
X19631581Y-12301215D01*
X19631581Y-12301215D02*
X19622057Y-12310739D01*
X19622057Y-12310739D02*
X19612533Y-12329786D01*
X19612533Y-12329786D02*
X19612533Y-12377405D01*
X19612533Y-12377405D02*
X19622057Y-12396453D01*
X19622057Y-12396453D02*
X19631581Y-12405977D01*
X19631581Y-12405977D02*
X19650628Y-12415501D01*
X19650628Y-12415501D02*
X19688724Y-12415501D01*
X19688724Y-12415501D02*
X19707771Y-12405977D01*
X19707771Y-12405977D02*
X19717295Y-12396453D01*
X19717295Y-12396453D02*
X19726819Y-12377405D01*
X19964914Y-12491691D02*
X19964914Y-12291691D01*
X20050628Y-12491691D02*
X20050628Y-12386929D01*
X20050628Y-12386929D02*
X20041105Y-12367882D01*
X20041105Y-12367882D02*
X20022057Y-12358358D01*
X20022057Y-12358358D02*
X19993485Y-12358358D01*
X19993485Y-12358358D02*
X19974438Y-12367882D01*
X19974438Y-12367882D02*
X19964914Y-12377405D01*
X20174438Y-12491691D02*
X20155390Y-12482167D01*
X20155390Y-12482167D02*
X20145866Y-12472643D01*
X20145866Y-12472643D02*
X20136343Y-12453596D01*
X20136343Y-12453596D02*
X20136343Y-12396453D01*
X20136343Y-12396453D02*
X20145866Y-12377405D01*
X20145866Y-12377405D02*
X20155390Y-12367882D01*
X20155390Y-12367882D02*
X20174438Y-12358358D01*
X20174438Y-12358358D02*
X20203009Y-12358358D01*
X20203009Y-12358358D02*
X20222057Y-12367882D01*
X20222057Y-12367882D02*
X20231581Y-12377405D01*
X20231581Y-12377405D02*
X20241105Y-12396453D01*
X20241105Y-12396453D02*
X20241105Y-12453596D01*
X20241105Y-12453596D02*
X20231581Y-12472643D01*
X20231581Y-12472643D02*
X20222057Y-12482167D01*
X20222057Y-12482167D02*
X20203009Y-12491691D01*
X20203009Y-12491691D02*
X20174438Y-12491691D01*
X20355390Y-12491691D02*
X20336343Y-12482167D01*
X20336343Y-12482167D02*
X20326819Y-12463120D01*
X20326819Y-12463120D02*
X20326819Y-12291691D01*
X20507771Y-12482167D02*
X20488724Y-12491691D01*
X20488724Y-12491691D02*
X20450628Y-12491691D01*
X20450628Y-12491691D02*
X20431581Y-12482167D01*
X20431581Y-12482167D02*
X20422057Y-12463120D01*
X20422057Y-12463120D02*
X20422057Y-12386929D01*
X20422057Y-12386929D02*
X20431581Y-12367882D01*
X20431581Y-12367882D02*
X20450628Y-12358358D01*
X20450628Y-12358358D02*
X20488724Y-12358358D01*
X20488724Y-12358358D02*
X20507771Y-12367882D01*
X20507771Y-12367882D02*
X20517295Y-12386929D01*
X20517295Y-12386929D02*
X20517295Y-12405977D01*
X20517295Y-12405977D02*
X20422057Y-12425024D01*
X20593486Y-12482167D02*
X20612533Y-12491691D01*
X20612533Y-12491691D02*
X20650628Y-12491691D01*
X20650628Y-12491691D02*
X20669676Y-12482167D01*
X20669676Y-12482167D02*
X20679200Y-12463120D01*
X20679200Y-12463120D02*
X20679200Y-12453596D01*
X20679200Y-12453596D02*
X20669676Y-12434548D01*
X20669676Y-12434548D02*
X20650628Y-12425024D01*
X20650628Y-12425024D02*
X20622057Y-12425024D01*
X20622057Y-12425024D02*
X20603009Y-12415501D01*
X20603009Y-12415501D02*
X20593486Y-12396453D01*
X20593486Y-12396453D02*
X20593486Y-12386929D01*
X20593486Y-12386929D02*
X20603009Y-12367882D01*
X20603009Y-12367882D02*
X20622057Y-12358358D01*
X20622057Y-12358358D02*
X20650628Y-12358358D01*
X20650628Y-12358358D02*
X20669676Y-12367882D01*
X20745867Y-12567882D02*
X20755390Y-12558358D01*
X20755390Y-12558358D02*
X20774438Y-12529786D01*
X20774438Y-12529786D02*
X20783962Y-12510739D01*
X20783962Y-12510739D02*
X20793486Y-12482167D01*
X20793486Y-12482167D02*
X20803009Y-12434548D01*
X20803009Y-12434548D02*
X20803009Y-12396453D01*
X20803009Y-12396453D02*
X20793486Y-12348834D01*
X20793486Y-12348834D02*
X20783962Y-12320263D01*
X20783962Y-12320263D02*
X20774438Y-12301215D01*
X20774438Y-12301215D02*
X20755390Y-12272643D01*
X20755390Y-12272643D02*
X20745867Y-12263120D01*
D11*
X15589851Y-12664207D02*
G75*
G02*
X15559371Y-12664207I-15240J0D01*
G01*
X15559371Y-12664207D02*
G75*
G02*
X15589851Y-12664207I15240J0D01*
G01*
D10*
X15888723Y-12555691D02*
X15907771Y-12555691D01*
X15907771Y-12555691D02*
X15926818Y-12565215D01*
X15926818Y-12565215D02*
X15936342Y-12574739D01*
X15936342Y-12574739D02*
X15945866Y-12593786D01*
X15945866Y-12593786D02*
X15955390Y-12631882D01*
X15955390Y-12631882D02*
X15955390Y-12679501D01*
X15955390Y-12679501D02*
X15945866Y-12717596D01*
X15945866Y-12717596D02*
X15936342Y-12736643D01*
X15936342Y-12736643D02*
X15926818Y-12746167D01*
X15926818Y-12746167D02*
X15907771Y-12755691D01*
X15907771Y-12755691D02*
X15888723Y-12755691D01*
X15888723Y-12755691D02*
X15869675Y-12746167D01*
X15869675Y-12746167D02*
X15860152Y-12736643D01*
X15860152Y-12736643D02*
X15850628Y-12717596D01*
X15850628Y-12717596D02*
X15841104Y-12679501D01*
X15841104Y-12679501D02*
X15841104Y-12631882D01*
X15841104Y-12631882D02*
X15850628Y-12593786D01*
X15850628Y-12593786D02*
X15860152Y-12574739D01*
X15860152Y-12574739D02*
X15869675Y-12565215D01*
X15869675Y-12565215D02*
X15888723Y-12555691D01*
X16041104Y-12736643D02*
X16050628Y-12746167D01*
X16050628Y-12746167D02*
X16041104Y-12755691D01*
X16041104Y-12755691D02*
X16031580Y-12746167D01*
X16031580Y-12746167D02*
X16041104Y-12736643D01*
X16041104Y-12736643D02*
X16041104Y-12755691D01*
X16117295Y-12555691D02*
X16241104Y-12555691D01*
X16241104Y-12555691D02*
X16174437Y-12631882D01*
X16174437Y-12631882D02*
X16203009Y-12631882D01*
X16203009Y-12631882D02*
X16222056Y-12641405D01*
X16222056Y-12641405D02*
X16231580Y-12650929D01*
X16231580Y-12650929D02*
X16241104Y-12669977D01*
X16241104Y-12669977D02*
X16241104Y-12717596D01*
X16241104Y-12717596D02*
X16231580Y-12736643D01*
X16231580Y-12736643D02*
X16222056Y-12746167D01*
X16222056Y-12746167D02*
X16203009Y-12755691D01*
X16203009Y-12755691D02*
X16145866Y-12755691D01*
X16145866Y-12755691D02*
X16126818Y-12746167D01*
X16126818Y-12746167D02*
X16117295Y-12736643D01*
X16364914Y-12555691D02*
X16383961Y-12555691D01*
X16383961Y-12555691D02*
X16403009Y-12565215D01*
X16403009Y-12565215D02*
X16412533Y-12574739D01*
X16412533Y-12574739D02*
X16422056Y-12593786D01*
X16422056Y-12593786D02*
X16431580Y-12631882D01*
X16431580Y-12631882D02*
X16431580Y-12679501D01*
X16431580Y-12679501D02*
X16422056Y-12717596D01*
X16422056Y-12717596D02*
X16412533Y-12736643D01*
X16412533Y-12736643D02*
X16403009Y-12746167D01*
X16403009Y-12746167D02*
X16383961Y-12755691D01*
X16383961Y-12755691D02*
X16364914Y-12755691D01*
X16364914Y-12755691D02*
X16345866Y-12746167D01*
X16345866Y-12746167D02*
X16336342Y-12736643D01*
X16336342Y-12736643D02*
X16326818Y-12717596D01*
X16326818Y-12717596D02*
X16317295Y-12679501D01*
X16317295Y-12679501D02*
X16317295Y-12631882D01*
X16317295Y-12631882D02*
X16326818Y-12593786D01*
X16326818Y-12593786D02*
X16336342Y-12574739D01*
X16336342Y-12574739D02*
X16345866Y-12565215D01*
X16345866Y-12565215D02*
X16364914Y-12555691D01*
X16612533Y-12555691D02*
X16517295Y-12555691D01*
X16517295Y-12555691D02*
X16507771Y-12650929D01*
X16507771Y-12650929D02*
X16517295Y-12641405D01*
X16517295Y-12641405D02*
X16536342Y-12631882D01*
X16536342Y-12631882D02*
X16583961Y-12631882D01*
X16583961Y-12631882D02*
X16603009Y-12641405D01*
X16603009Y-12641405D02*
X16612533Y-12650929D01*
X16612533Y-12650929D02*
X16622056Y-12669977D01*
X16622056Y-12669977D02*
X16622056Y-12717596D01*
X16622056Y-12717596D02*
X16612533Y-12736643D01*
X16612533Y-12736643D02*
X16603009Y-12746167D01*
X16603009Y-12746167D02*
X16583961Y-12755691D01*
X16583961Y-12755691D02*
X16536342Y-12755691D01*
X16536342Y-12755691D02*
X16517295Y-12746167D01*
X16517295Y-12746167D02*
X16507771Y-12736643D01*
X16707771Y-12755691D02*
X16707771Y-12622358D01*
X16707771Y-12641405D02*
X16717295Y-12631882D01*
X16717295Y-12631882D02*
X16736342Y-12622358D01*
X16736342Y-12622358D02*
X16764914Y-12622358D01*
X16764914Y-12622358D02*
X16783961Y-12631882D01*
X16783961Y-12631882D02*
X16793485Y-12650929D01*
X16793485Y-12650929D02*
X16793485Y-12755691D01*
X16793485Y-12650929D02*
X16803009Y-12631882D01*
X16803009Y-12631882D02*
X16822057Y-12622358D01*
X16822057Y-12622358D02*
X16850628Y-12622358D01*
X16850628Y-12622358D02*
X16869676Y-12631882D01*
X16869676Y-12631882D02*
X16879199Y-12650929D01*
X16879199Y-12650929D02*
X16879199Y-12755691D01*
X16974438Y-12755691D02*
X16974438Y-12622358D01*
X16974438Y-12641405D02*
X16983961Y-12631882D01*
X16983961Y-12631882D02*
X17003009Y-12622358D01*
X17003009Y-12622358D02*
X17031580Y-12622358D01*
X17031580Y-12622358D02*
X17050628Y-12631882D01*
X17050628Y-12631882D02*
X17060152Y-12650929D01*
X17060152Y-12650929D02*
X17060152Y-12755691D01*
X17060152Y-12650929D02*
X17069676Y-12631882D01*
X17069676Y-12631882D02*
X17088723Y-12622358D01*
X17088723Y-12622358D02*
X17117295Y-12622358D01*
X17117295Y-12622358D02*
X17136342Y-12631882D01*
X17136342Y-12631882D02*
X17145866Y-12650929D01*
X17145866Y-12650929D02*
X17145866Y-12755691D01*
X17536342Y-12546167D02*
X17364914Y-12803310D01*
X17793485Y-12555691D02*
X17812533Y-12555691D01*
X17812533Y-12555691D02*
X17831581Y-12565215D01*
X17831581Y-12565215D02*
X17841104Y-12574739D01*
X17841104Y-12574739D02*
X17850628Y-12593786D01*
X17850628Y-12593786D02*
X17860152Y-12631882D01*
X17860152Y-12631882D02*
X17860152Y-12679501D01*
X17860152Y-12679501D02*
X17850628Y-12717596D01*
X17850628Y-12717596D02*
X17841104Y-12736643D01*
X17841104Y-12736643D02*
X17831581Y-12746167D01*
X17831581Y-12746167D02*
X17812533Y-12755691D01*
X17812533Y-12755691D02*
X17793485Y-12755691D01*
X17793485Y-12755691D02*
X17774438Y-12746167D01*
X17774438Y-12746167D02*
X17764914Y-12736643D01*
X17764914Y-12736643D02*
X17755390Y-12717596D01*
X17755390Y-12717596D02*
X17745866Y-12679501D01*
X17745866Y-12679501D02*
X17745866Y-12631882D01*
X17745866Y-12631882D02*
X17755390Y-12593786D01*
X17755390Y-12593786D02*
X17764914Y-12574739D01*
X17764914Y-12574739D02*
X17774438Y-12565215D01*
X17774438Y-12565215D02*
X17793485Y-12555691D01*
X17945866Y-12736643D02*
X17955390Y-12746167D01*
X17955390Y-12746167D02*
X17945866Y-12755691D01*
X17945866Y-12755691D02*
X17936342Y-12746167D01*
X17936342Y-12746167D02*
X17945866Y-12736643D01*
X17945866Y-12736643D02*
X17945866Y-12755691D01*
X18079200Y-12555691D02*
X18098247Y-12555691D01*
X18098247Y-12555691D02*
X18117295Y-12565215D01*
X18117295Y-12565215D02*
X18126819Y-12574739D01*
X18126819Y-12574739D02*
X18136342Y-12593786D01*
X18136342Y-12593786D02*
X18145866Y-12631882D01*
X18145866Y-12631882D02*
X18145866Y-12679501D01*
X18145866Y-12679501D02*
X18136342Y-12717596D01*
X18136342Y-12717596D02*
X18126819Y-12736643D01*
X18126819Y-12736643D02*
X18117295Y-12746167D01*
X18117295Y-12746167D02*
X18098247Y-12755691D01*
X18098247Y-12755691D02*
X18079200Y-12755691D01*
X18079200Y-12755691D02*
X18060152Y-12746167D01*
X18060152Y-12746167D02*
X18050628Y-12736643D01*
X18050628Y-12736643D02*
X18041104Y-12717596D01*
X18041104Y-12717596D02*
X18031581Y-12679501D01*
X18031581Y-12679501D02*
X18031581Y-12631882D01*
X18031581Y-12631882D02*
X18041104Y-12593786D01*
X18041104Y-12593786D02*
X18050628Y-12574739D01*
X18050628Y-12574739D02*
X18060152Y-12565215D01*
X18060152Y-12565215D02*
X18079200Y-12555691D01*
X18336342Y-12755691D02*
X18222057Y-12755691D01*
X18279200Y-12755691D02*
X18279200Y-12555691D01*
X18279200Y-12555691D02*
X18260152Y-12584263D01*
X18260152Y-12584263D02*
X18241104Y-12603310D01*
X18241104Y-12603310D02*
X18222057Y-12612834D01*
X18412533Y-12574739D02*
X18422057Y-12565215D01*
X18422057Y-12565215D02*
X18441104Y-12555691D01*
X18441104Y-12555691D02*
X18488723Y-12555691D01*
X18488723Y-12555691D02*
X18507771Y-12565215D01*
X18507771Y-12565215D02*
X18517295Y-12574739D01*
X18517295Y-12574739D02*
X18526819Y-12593786D01*
X18526819Y-12593786D02*
X18526819Y-12612834D01*
X18526819Y-12612834D02*
X18517295Y-12641405D01*
X18517295Y-12641405D02*
X18403009Y-12755691D01*
X18403009Y-12755691D02*
X18526819Y-12755691D01*
X18650628Y-12555691D02*
X18669676Y-12555691D01*
X18669676Y-12555691D02*
X18688723Y-12565215D01*
X18688723Y-12565215D02*
X18698247Y-12574739D01*
X18698247Y-12574739D02*
X18707771Y-12593786D01*
X18707771Y-12593786D02*
X18717295Y-12631882D01*
X18717295Y-12631882D02*
X18717295Y-12679501D01*
X18717295Y-12679501D02*
X18707771Y-12717596D01*
X18707771Y-12717596D02*
X18698247Y-12736643D01*
X18698247Y-12736643D02*
X18688723Y-12746167D01*
X18688723Y-12746167D02*
X18669676Y-12755691D01*
X18669676Y-12755691D02*
X18650628Y-12755691D01*
X18650628Y-12755691D02*
X18631581Y-12746167D01*
X18631581Y-12746167D02*
X18622057Y-12736643D01*
X18622057Y-12736643D02*
X18612533Y-12717596D01*
X18612533Y-12717596D02*
X18603009Y-12679501D01*
X18603009Y-12679501D02*
X18603009Y-12631882D01*
X18603009Y-12631882D02*
X18612533Y-12593786D01*
X18612533Y-12593786D02*
X18622057Y-12574739D01*
X18622057Y-12574739D02*
X18631581Y-12565215D01*
X18631581Y-12565215D02*
X18650628Y-12555691D01*
X18793485Y-12555691D02*
X18793485Y-12593786D01*
X18869676Y-12555691D02*
X18869676Y-12593786D01*
X19164914Y-12831882D02*
X19155390Y-12822358D01*
X19155390Y-12822358D02*
X19136343Y-12793786D01*
X19136343Y-12793786D02*
X19126819Y-12774739D01*
X19126819Y-12774739D02*
X19117295Y-12746167D01*
X19117295Y-12746167D02*
X19107771Y-12698548D01*
X19107771Y-12698548D02*
X19107771Y-12660453D01*
X19107771Y-12660453D02*
X19117295Y-12612834D01*
X19117295Y-12612834D02*
X19126819Y-12584263D01*
X19126819Y-12584263D02*
X19136343Y-12565215D01*
X19136343Y-12565215D02*
X19155390Y-12536643D01*
X19155390Y-12536643D02*
X19164914Y-12527120D01*
X19345866Y-12755691D02*
X19231581Y-12755691D01*
X19288723Y-12755691D02*
X19288723Y-12555691D01*
X19288723Y-12555691D02*
X19269676Y-12584263D01*
X19269676Y-12584263D02*
X19250628Y-12603310D01*
X19250628Y-12603310D02*
X19231581Y-12612834D01*
X19469676Y-12555691D02*
X19488724Y-12555691D01*
X19488724Y-12555691D02*
X19507771Y-12565215D01*
X19507771Y-12565215D02*
X19517295Y-12574739D01*
X19517295Y-12574739D02*
X19526819Y-12593786D01*
X19526819Y-12593786D02*
X19536343Y-12631882D01*
X19536343Y-12631882D02*
X19536343Y-12679501D01*
X19536343Y-12679501D02*
X19526819Y-12717596D01*
X19526819Y-12717596D02*
X19517295Y-12736643D01*
X19517295Y-12736643D02*
X19507771Y-12746167D01*
X19507771Y-12746167D02*
X19488724Y-12755691D01*
X19488724Y-12755691D02*
X19469676Y-12755691D01*
X19469676Y-12755691D02*
X19450628Y-12746167D01*
X19450628Y-12746167D02*
X19441104Y-12736643D01*
X19441104Y-12736643D02*
X19431581Y-12717596D01*
X19431581Y-12717596D02*
X19422057Y-12679501D01*
X19422057Y-12679501D02*
X19422057Y-12631882D01*
X19422057Y-12631882D02*
X19431581Y-12593786D01*
X19431581Y-12593786D02*
X19441104Y-12574739D01*
X19441104Y-12574739D02*
X19450628Y-12565215D01*
X19450628Y-12565215D02*
X19469676Y-12555691D01*
X19774438Y-12755691D02*
X19774438Y-12555691D01*
X19860152Y-12755691D02*
X19860152Y-12650929D01*
X19860152Y-12650929D02*
X19850628Y-12631882D01*
X19850628Y-12631882D02*
X19831581Y-12622358D01*
X19831581Y-12622358D02*
X19803009Y-12622358D01*
X19803009Y-12622358D02*
X19783962Y-12631882D01*
X19783962Y-12631882D02*
X19774438Y-12641405D01*
X19983962Y-12755691D02*
X19964914Y-12746167D01*
X19964914Y-12746167D02*
X19955390Y-12736643D01*
X19955390Y-12736643D02*
X19945866Y-12717596D01*
X19945866Y-12717596D02*
X19945866Y-12660453D01*
X19945866Y-12660453D02*
X19955390Y-12641405D01*
X19955390Y-12641405D02*
X19964914Y-12631882D01*
X19964914Y-12631882D02*
X19983962Y-12622358D01*
X19983962Y-12622358D02*
X20012533Y-12622358D01*
X20012533Y-12622358D02*
X20031581Y-12631882D01*
X20031581Y-12631882D02*
X20041105Y-12641405D01*
X20041105Y-12641405D02*
X20050628Y-12660453D01*
X20050628Y-12660453D02*
X20050628Y-12717596D01*
X20050628Y-12717596D02*
X20041105Y-12736643D01*
X20041105Y-12736643D02*
X20031581Y-12746167D01*
X20031581Y-12746167D02*
X20012533Y-12755691D01*
X20012533Y-12755691D02*
X19983962Y-12755691D01*
X20164914Y-12755691D02*
X20145866Y-12746167D01*
X20145866Y-12746167D02*
X20136343Y-12727120D01*
X20136343Y-12727120D02*
X20136343Y-12555691D01*
X20317295Y-12746167D02*
X20298247Y-12755691D01*
X20298247Y-12755691D02*
X20260152Y-12755691D01*
X20260152Y-12755691D02*
X20241105Y-12746167D01*
X20241105Y-12746167D02*
X20231581Y-12727120D01*
X20231581Y-12727120D02*
X20231581Y-12650929D01*
X20231581Y-12650929D02*
X20241105Y-12631882D01*
X20241105Y-12631882D02*
X20260152Y-12622358D01*
X20260152Y-12622358D02*
X20298247Y-12622358D01*
X20298247Y-12622358D02*
X20317295Y-12631882D01*
X20317295Y-12631882D02*
X20326819Y-12650929D01*
X20326819Y-12650929D02*
X20326819Y-12669977D01*
X20326819Y-12669977D02*
X20231581Y-12689024D01*
X20403009Y-12746167D02*
X20422057Y-12755691D01*
X20422057Y-12755691D02*
X20460152Y-12755691D01*
X20460152Y-12755691D02*
X20479200Y-12746167D01*
X20479200Y-12746167D02*
X20488724Y-12727120D01*
X20488724Y-12727120D02*
X20488724Y-12717596D01*
X20488724Y-12717596D02*
X20479200Y-12698548D01*
X20479200Y-12698548D02*
X20460152Y-12689024D01*
X20460152Y-12689024D02*
X20431581Y-12689024D01*
X20431581Y-12689024D02*
X20412533Y-12679501D01*
X20412533Y-12679501D02*
X20403009Y-12660453D01*
X20403009Y-12660453D02*
X20403009Y-12650929D01*
X20403009Y-12650929D02*
X20412533Y-12631882D01*
X20412533Y-12631882D02*
X20431581Y-12622358D01*
X20431581Y-12622358D02*
X20460152Y-12622358D01*
X20460152Y-12622358D02*
X20479200Y-12631882D01*
X20555390Y-12831882D02*
X20564914Y-12822358D01*
X20564914Y-12822358D02*
X20583962Y-12793786D01*
X20583962Y-12793786D02*
X20593486Y-12774739D01*
X20593486Y-12774739D02*
X20603009Y-12746167D01*
X20603009Y-12746167D02*
X20612533Y-12698548D01*
X20612533Y-12698548D02*
X20612533Y-12660453D01*
X20612533Y-12660453D02*
X20603009Y-12612834D01*
X20603009Y-12612834D02*
X20593486Y-12584263D01*
X20593486Y-12584263D02*
X20583962Y-12565215D01*
X20583962Y-12565215D02*
X20564914Y-12536643D01*
X20564914Y-12536643D02*
X20555390Y-12527120D01*
D11*
X15564451Y-12902807D02*
X15564451Y-12953607D01*
X15539051Y-12928207D02*
X15589851Y-12928207D01*
D10*
X15888723Y-12819691D02*
X15907771Y-12819691D01*
X15907771Y-12819691D02*
X15926818Y-12829215D01*
X15926818Y-12829215D02*
X15936342Y-12838739D01*
X15936342Y-12838739D02*
X15945866Y-12857786D01*
X15945866Y-12857786D02*
X15955390Y-12895882D01*
X15955390Y-12895882D02*
X15955390Y-12943501D01*
X15955390Y-12943501D02*
X15945866Y-12981596D01*
X15945866Y-12981596D02*
X15936342Y-13000643D01*
X15936342Y-13000643D02*
X15926818Y-13010167D01*
X15926818Y-13010167D02*
X15907771Y-13019691D01*
X15907771Y-13019691D02*
X15888723Y-13019691D01*
X15888723Y-13019691D02*
X15869675Y-13010167D01*
X15869675Y-13010167D02*
X15860152Y-13000643D01*
X15860152Y-13000643D02*
X15850628Y-12981596D01*
X15850628Y-12981596D02*
X15841104Y-12943501D01*
X15841104Y-12943501D02*
X15841104Y-12895882D01*
X15841104Y-12895882D02*
X15850628Y-12857786D01*
X15850628Y-12857786D02*
X15860152Y-12838739D01*
X15860152Y-12838739D02*
X15869675Y-12829215D01*
X15869675Y-12829215D02*
X15888723Y-12819691D01*
X16041104Y-13000643D02*
X16050628Y-13010167D01*
X16050628Y-13010167D02*
X16041104Y-13019691D01*
X16041104Y-13019691D02*
X16031580Y-13010167D01*
X16031580Y-13010167D02*
X16041104Y-13000643D01*
X16041104Y-13000643D02*
X16041104Y-13019691D01*
X16231580Y-12819691D02*
X16136342Y-12819691D01*
X16136342Y-12819691D02*
X16126818Y-12914929D01*
X16126818Y-12914929D02*
X16136342Y-12905405D01*
X16136342Y-12905405D02*
X16155390Y-12895882D01*
X16155390Y-12895882D02*
X16203009Y-12895882D01*
X16203009Y-12895882D02*
X16222056Y-12905405D01*
X16222056Y-12905405D02*
X16231580Y-12914929D01*
X16231580Y-12914929D02*
X16241104Y-12933977D01*
X16241104Y-12933977D02*
X16241104Y-12981596D01*
X16241104Y-12981596D02*
X16231580Y-13000643D01*
X16231580Y-13000643D02*
X16222056Y-13010167D01*
X16222056Y-13010167D02*
X16203009Y-13019691D01*
X16203009Y-13019691D02*
X16155390Y-13019691D01*
X16155390Y-13019691D02*
X16136342Y-13010167D01*
X16136342Y-13010167D02*
X16126818Y-13000643D01*
X16364914Y-12819691D02*
X16383961Y-12819691D01*
X16383961Y-12819691D02*
X16403009Y-12829215D01*
X16403009Y-12829215D02*
X16412533Y-12838739D01*
X16412533Y-12838739D02*
X16422056Y-12857786D01*
X16422056Y-12857786D02*
X16431580Y-12895882D01*
X16431580Y-12895882D02*
X16431580Y-12943501D01*
X16431580Y-12943501D02*
X16422056Y-12981596D01*
X16422056Y-12981596D02*
X16412533Y-13000643D01*
X16412533Y-13000643D02*
X16403009Y-13010167D01*
X16403009Y-13010167D02*
X16383961Y-13019691D01*
X16383961Y-13019691D02*
X16364914Y-13019691D01*
X16364914Y-13019691D02*
X16345866Y-13010167D01*
X16345866Y-13010167D02*
X16336342Y-13000643D01*
X16336342Y-13000643D02*
X16326818Y-12981596D01*
X16326818Y-12981596D02*
X16317295Y-12943501D01*
X16317295Y-12943501D02*
X16317295Y-12895882D01*
X16317295Y-12895882D02*
X16326818Y-12857786D01*
X16326818Y-12857786D02*
X16336342Y-12838739D01*
X16336342Y-12838739D02*
X16345866Y-12829215D01*
X16345866Y-12829215D02*
X16364914Y-12819691D01*
X16545866Y-12905405D02*
X16526818Y-12895882D01*
X16526818Y-12895882D02*
X16517295Y-12886358D01*
X16517295Y-12886358D02*
X16507771Y-12867310D01*
X16507771Y-12867310D02*
X16507771Y-12857786D01*
X16507771Y-12857786D02*
X16517295Y-12838739D01*
X16517295Y-12838739D02*
X16526818Y-12829215D01*
X16526818Y-12829215D02*
X16545866Y-12819691D01*
X16545866Y-12819691D02*
X16583961Y-12819691D01*
X16583961Y-12819691D02*
X16603009Y-12829215D01*
X16603009Y-12829215D02*
X16612533Y-12838739D01*
X16612533Y-12838739D02*
X16622056Y-12857786D01*
X16622056Y-12857786D02*
X16622056Y-12867310D01*
X16622056Y-12867310D02*
X16612533Y-12886358D01*
X16612533Y-12886358D02*
X16603009Y-12895882D01*
X16603009Y-12895882D02*
X16583961Y-12905405D01*
X16583961Y-12905405D02*
X16545866Y-12905405D01*
X16545866Y-12905405D02*
X16526818Y-12914929D01*
X16526818Y-12914929D02*
X16517295Y-12924453D01*
X16517295Y-12924453D02*
X16507771Y-12943501D01*
X16507771Y-12943501D02*
X16507771Y-12981596D01*
X16507771Y-12981596D02*
X16517295Y-13000643D01*
X16517295Y-13000643D02*
X16526818Y-13010167D01*
X16526818Y-13010167D02*
X16545866Y-13019691D01*
X16545866Y-13019691D02*
X16583961Y-13019691D01*
X16583961Y-13019691D02*
X16603009Y-13010167D01*
X16603009Y-13010167D02*
X16612533Y-13000643D01*
X16612533Y-13000643D02*
X16622056Y-12981596D01*
X16622056Y-12981596D02*
X16622056Y-12943501D01*
X16622056Y-12943501D02*
X16612533Y-12924453D01*
X16612533Y-12924453D02*
X16603009Y-12914929D01*
X16603009Y-12914929D02*
X16583961Y-12905405D01*
X16707771Y-13019691D02*
X16707771Y-12886358D01*
X16707771Y-12905405D02*
X16717295Y-12895882D01*
X16717295Y-12895882D02*
X16736342Y-12886358D01*
X16736342Y-12886358D02*
X16764914Y-12886358D01*
X16764914Y-12886358D02*
X16783961Y-12895882D01*
X16783961Y-12895882D02*
X16793485Y-12914929D01*
X16793485Y-12914929D02*
X16793485Y-13019691D01*
X16793485Y-12914929D02*
X16803009Y-12895882D01*
X16803009Y-12895882D02*
X16822057Y-12886358D01*
X16822057Y-12886358D02*
X16850628Y-12886358D01*
X16850628Y-12886358D02*
X16869676Y-12895882D01*
X16869676Y-12895882D02*
X16879199Y-12914929D01*
X16879199Y-12914929D02*
X16879199Y-13019691D01*
X16974438Y-13019691D02*
X16974438Y-12886358D01*
X16974438Y-12905405D02*
X16983961Y-12895882D01*
X16983961Y-12895882D02*
X17003009Y-12886358D01*
X17003009Y-12886358D02*
X17031580Y-12886358D01*
X17031580Y-12886358D02*
X17050628Y-12895882D01*
X17050628Y-12895882D02*
X17060152Y-12914929D01*
X17060152Y-12914929D02*
X17060152Y-13019691D01*
X17060152Y-12914929D02*
X17069676Y-12895882D01*
X17069676Y-12895882D02*
X17088723Y-12886358D01*
X17088723Y-12886358D02*
X17117295Y-12886358D01*
X17117295Y-12886358D02*
X17136342Y-12895882D01*
X17136342Y-12895882D02*
X17145866Y-12914929D01*
X17145866Y-12914929D02*
X17145866Y-13019691D01*
X17536342Y-12810167D02*
X17364914Y-13067310D01*
X17793485Y-12819691D02*
X17812533Y-12819691D01*
X17812533Y-12819691D02*
X17831581Y-12829215D01*
X17831581Y-12829215D02*
X17841104Y-12838739D01*
X17841104Y-12838739D02*
X17850628Y-12857786D01*
X17850628Y-12857786D02*
X17860152Y-12895882D01*
X17860152Y-12895882D02*
X17860152Y-12943501D01*
X17860152Y-12943501D02*
X17850628Y-12981596D01*
X17850628Y-12981596D02*
X17841104Y-13000643D01*
X17841104Y-13000643D02*
X17831581Y-13010167D01*
X17831581Y-13010167D02*
X17812533Y-13019691D01*
X17812533Y-13019691D02*
X17793485Y-13019691D01*
X17793485Y-13019691D02*
X17774438Y-13010167D01*
X17774438Y-13010167D02*
X17764914Y-13000643D01*
X17764914Y-13000643D02*
X17755390Y-12981596D01*
X17755390Y-12981596D02*
X17745866Y-12943501D01*
X17745866Y-12943501D02*
X17745866Y-12895882D01*
X17745866Y-12895882D02*
X17755390Y-12857786D01*
X17755390Y-12857786D02*
X17764914Y-12838739D01*
X17764914Y-12838739D02*
X17774438Y-12829215D01*
X17774438Y-12829215D02*
X17793485Y-12819691D01*
X17945866Y-13000643D02*
X17955390Y-13010167D01*
X17955390Y-13010167D02*
X17945866Y-13019691D01*
X17945866Y-13019691D02*
X17936342Y-13010167D01*
X17936342Y-13010167D02*
X17945866Y-13000643D01*
X17945866Y-13000643D02*
X17945866Y-13019691D01*
X18079200Y-12819691D02*
X18098247Y-12819691D01*
X18098247Y-12819691D02*
X18117295Y-12829215D01*
X18117295Y-12829215D02*
X18126819Y-12838739D01*
X18126819Y-12838739D02*
X18136342Y-12857786D01*
X18136342Y-12857786D02*
X18145866Y-12895882D01*
X18145866Y-12895882D02*
X18145866Y-12943501D01*
X18145866Y-12943501D02*
X18136342Y-12981596D01*
X18136342Y-12981596D02*
X18126819Y-13000643D01*
X18126819Y-13000643D02*
X18117295Y-13010167D01*
X18117295Y-13010167D02*
X18098247Y-13019691D01*
X18098247Y-13019691D02*
X18079200Y-13019691D01*
X18079200Y-13019691D02*
X18060152Y-13010167D01*
X18060152Y-13010167D02*
X18050628Y-13000643D01*
X18050628Y-13000643D02*
X18041104Y-12981596D01*
X18041104Y-12981596D02*
X18031581Y-12943501D01*
X18031581Y-12943501D02*
X18031581Y-12895882D01*
X18031581Y-12895882D02*
X18041104Y-12857786D01*
X18041104Y-12857786D02*
X18050628Y-12838739D01*
X18050628Y-12838739D02*
X18060152Y-12829215D01*
X18060152Y-12829215D02*
X18079200Y-12819691D01*
X18222057Y-12838739D02*
X18231581Y-12829215D01*
X18231581Y-12829215D02*
X18250628Y-12819691D01*
X18250628Y-12819691D02*
X18298247Y-12819691D01*
X18298247Y-12819691D02*
X18317295Y-12829215D01*
X18317295Y-12829215D02*
X18326819Y-12838739D01*
X18326819Y-12838739D02*
X18336342Y-12857786D01*
X18336342Y-12857786D02*
X18336342Y-12876834D01*
X18336342Y-12876834D02*
X18326819Y-12905405D01*
X18326819Y-12905405D02*
X18212533Y-13019691D01*
X18212533Y-13019691D02*
X18336342Y-13019691D01*
X18460152Y-12819691D02*
X18479200Y-12819691D01*
X18479200Y-12819691D02*
X18498247Y-12829215D01*
X18498247Y-12829215D02*
X18507771Y-12838739D01*
X18507771Y-12838739D02*
X18517295Y-12857786D01*
X18517295Y-12857786D02*
X18526819Y-12895882D01*
X18526819Y-12895882D02*
X18526819Y-12943501D01*
X18526819Y-12943501D02*
X18517295Y-12981596D01*
X18517295Y-12981596D02*
X18507771Y-13000643D01*
X18507771Y-13000643D02*
X18498247Y-13010167D01*
X18498247Y-13010167D02*
X18479200Y-13019691D01*
X18479200Y-13019691D02*
X18460152Y-13019691D01*
X18460152Y-13019691D02*
X18441104Y-13010167D01*
X18441104Y-13010167D02*
X18431581Y-13000643D01*
X18431581Y-13000643D02*
X18422057Y-12981596D01*
X18422057Y-12981596D02*
X18412533Y-12943501D01*
X18412533Y-12943501D02*
X18412533Y-12895882D01*
X18412533Y-12895882D02*
X18422057Y-12857786D01*
X18422057Y-12857786D02*
X18431581Y-12838739D01*
X18431581Y-12838739D02*
X18441104Y-12829215D01*
X18441104Y-12829215D02*
X18460152Y-12819691D01*
X18650628Y-12819691D02*
X18669676Y-12819691D01*
X18669676Y-12819691D02*
X18688723Y-12829215D01*
X18688723Y-12829215D02*
X18698247Y-12838739D01*
X18698247Y-12838739D02*
X18707771Y-12857786D01*
X18707771Y-12857786D02*
X18717295Y-12895882D01*
X18717295Y-12895882D02*
X18717295Y-12943501D01*
X18717295Y-12943501D02*
X18707771Y-12981596D01*
X18707771Y-12981596D02*
X18698247Y-13000643D01*
X18698247Y-13000643D02*
X18688723Y-13010167D01*
X18688723Y-13010167D02*
X18669676Y-13019691D01*
X18669676Y-13019691D02*
X18650628Y-13019691D01*
X18650628Y-13019691D02*
X18631581Y-13010167D01*
X18631581Y-13010167D02*
X18622057Y-13000643D01*
X18622057Y-13000643D02*
X18612533Y-12981596D01*
X18612533Y-12981596D02*
X18603009Y-12943501D01*
X18603009Y-12943501D02*
X18603009Y-12895882D01*
X18603009Y-12895882D02*
X18612533Y-12857786D01*
X18612533Y-12857786D02*
X18622057Y-12838739D01*
X18622057Y-12838739D02*
X18631581Y-12829215D01*
X18631581Y-12829215D02*
X18650628Y-12819691D01*
X18793485Y-12819691D02*
X18793485Y-12857786D01*
X18869676Y-12819691D02*
X18869676Y-12857786D01*
X19164914Y-13095882D02*
X19155390Y-13086358D01*
X19155390Y-13086358D02*
X19136343Y-13057786D01*
X19136343Y-13057786D02*
X19126819Y-13038739D01*
X19126819Y-13038739D02*
X19117295Y-13010167D01*
X19117295Y-13010167D02*
X19107771Y-12962548D01*
X19107771Y-12962548D02*
X19107771Y-12924453D01*
X19107771Y-12924453D02*
X19117295Y-12876834D01*
X19117295Y-12876834D02*
X19126819Y-12848263D01*
X19126819Y-12848263D02*
X19136343Y-12829215D01*
X19136343Y-12829215D02*
X19155390Y-12800643D01*
X19155390Y-12800643D02*
X19164914Y-12791120D01*
X19231581Y-12838739D02*
X19241104Y-12829215D01*
X19241104Y-12829215D02*
X19260152Y-12819691D01*
X19260152Y-12819691D02*
X19307771Y-12819691D01*
X19307771Y-12819691D02*
X19326819Y-12829215D01*
X19326819Y-12829215D02*
X19336343Y-12838739D01*
X19336343Y-12838739D02*
X19345866Y-12857786D01*
X19345866Y-12857786D02*
X19345866Y-12876834D01*
X19345866Y-12876834D02*
X19336343Y-12905405D01*
X19336343Y-12905405D02*
X19222057Y-13019691D01*
X19222057Y-13019691D02*
X19345866Y-13019691D01*
X19583962Y-13019691D02*
X19583962Y-12819691D01*
X19669676Y-13019691D02*
X19669676Y-12914929D01*
X19669676Y-12914929D02*
X19660152Y-12895882D01*
X19660152Y-12895882D02*
X19641105Y-12886358D01*
X19641105Y-12886358D02*
X19612533Y-12886358D01*
X19612533Y-12886358D02*
X19593485Y-12895882D01*
X19593485Y-12895882D02*
X19583962Y-12905405D01*
X19793485Y-13019691D02*
X19774438Y-13010167D01*
X19774438Y-13010167D02*
X19764914Y-13000643D01*
X19764914Y-13000643D02*
X19755390Y-12981596D01*
X19755390Y-12981596D02*
X19755390Y-12924453D01*
X19755390Y-12924453D02*
X19764914Y-12905405D01*
X19764914Y-12905405D02*
X19774438Y-12895882D01*
X19774438Y-12895882D02*
X19793485Y-12886358D01*
X19793485Y-12886358D02*
X19822057Y-12886358D01*
X19822057Y-12886358D02*
X19841105Y-12895882D01*
X19841105Y-12895882D02*
X19850628Y-12905405D01*
X19850628Y-12905405D02*
X19860152Y-12924453D01*
X19860152Y-12924453D02*
X19860152Y-12981596D01*
X19860152Y-12981596D02*
X19850628Y-13000643D01*
X19850628Y-13000643D02*
X19841105Y-13010167D01*
X19841105Y-13010167D02*
X19822057Y-13019691D01*
X19822057Y-13019691D02*
X19793485Y-13019691D01*
X19974438Y-13019691D02*
X19955390Y-13010167D01*
X19955390Y-13010167D02*
X19945866Y-12991120D01*
X19945866Y-12991120D02*
X19945866Y-12819691D01*
X20126819Y-13010167D02*
X20107771Y-13019691D01*
X20107771Y-13019691D02*
X20069676Y-13019691D01*
X20069676Y-13019691D02*
X20050628Y-13010167D01*
X20050628Y-13010167D02*
X20041105Y-12991120D01*
X20041105Y-12991120D02*
X20041105Y-12914929D01*
X20041105Y-12914929D02*
X20050628Y-12895882D01*
X20050628Y-12895882D02*
X20069676Y-12886358D01*
X20069676Y-12886358D02*
X20107771Y-12886358D01*
X20107771Y-12886358D02*
X20126819Y-12895882D01*
X20126819Y-12895882D02*
X20136343Y-12914929D01*
X20136343Y-12914929D02*
X20136343Y-12933977D01*
X20136343Y-12933977D02*
X20041105Y-12953024D01*
X20212533Y-13010167D02*
X20231581Y-13019691D01*
X20231581Y-13019691D02*
X20269676Y-13019691D01*
X20269676Y-13019691D02*
X20288724Y-13010167D01*
X20288724Y-13010167D02*
X20298247Y-12991120D01*
X20298247Y-12991120D02*
X20298247Y-12981596D01*
X20298247Y-12981596D02*
X20288724Y-12962548D01*
X20288724Y-12962548D02*
X20269676Y-12953024D01*
X20269676Y-12953024D02*
X20241105Y-12953024D01*
X20241105Y-12953024D02*
X20222057Y-12943501D01*
X20222057Y-12943501D02*
X20212533Y-12924453D01*
X20212533Y-12924453D02*
X20212533Y-12914929D01*
X20212533Y-12914929D02*
X20222057Y-12895882D01*
X20222057Y-12895882D02*
X20241105Y-12886358D01*
X20241105Y-12886358D02*
X20269676Y-12886358D01*
X20269676Y-12886358D02*
X20288724Y-12895882D01*
X20364914Y-13095882D02*
X20374438Y-13086358D01*
X20374438Y-13086358D02*
X20393486Y-13057786D01*
X20393486Y-13057786D02*
X20403009Y-13038739D01*
X20403009Y-13038739D02*
X20412533Y-13010167D01*
X20412533Y-13010167D02*
X20422057Y-12962548D01*
X20422057Y-12962548D02*
X20422057Y-12924453D01*
X20422057Y-12924453D02*
X20412533Y-12876834D01*
X20412533Y-12876834D02*
X20403009Y-12848263D01*
X20403009Y-12848263D02*
X20393486Y-12829215D01*
X20393486Y-12829215D02*
X20374438Y-12800643D01*
X20374438Y-12800643D02*
X20364914Y-12791120D01*
D11*
X15575207Y-13227563D02*
X15575207Y-13156852D01*
X15504495Y-13156852D01*
X15504495Y-13227563D01*
X15575207Y-13227563D01*
D10*
X15955390Y-13283691D02*
X15841104Y-13283691D01*
X15898247Y-13283691D02*
X15898247Y-13083691D01*
X15898247Y-13083691D02*
X15879199Y-13112263D01*
X15879199Y-13112263D02*
X15860152Y-13131310D01*
X15860152Y-13131310D02*
X15841104Y-13140834D01*
X16041104Y-13264643D02*
X16050628Y-13274167D01*
X16050628Y-13274167D02*
X16041104Y-13283691D01*
X16041104Y-13283691D02*
X16031580Y-13274167D01*
X16031580Y-13274167D02*
X16041104Y-13264643D01*
X16041104Y-13264643D02*
X16041104Y-13283691D01*
X16174437Y-13083691D02*
X16193485Y-13083691D01*
X16193485Y-13083691D02*
X16212533Y-13093215D01*
X16212533Y-13093215D02*
X16222056Y-13102739D01*
X16222056Y-13102739D02*
X16231580Y-13121786D01*
X16231580Y-13121786D02*
X16241104Y-13159882D01*
X16241104Y-13159882D02*
X16241104Y-13207501D01*
X16241104Y-13207501D02*
X16231580Y-13245596D01*
X16231580Y-13245596D02*
X16222056Y-13264643D01*
X16222056Y-13264643D02*
X16212533Y-13274167D01*
X16212533Y-13274167D02*
X16193485Y-13283691D01*
X16193485Y-13283691D02*
X16174437Y-13283691D01*
X16174437Y-13283691D02*
X16155390Y-13274167D01*
X16155390Y-13274167D02*
X16145866Y-13264643D01*
X16145866Y-13264643D02*
X16136342Y-13245596D01*
X16136342Y-13245596D02*
X16126818Y-13207501D01*
X16126818Y-13207501D02*
X16126818Y-13159882D01*
X16126818Y-13159882D02*
X16136342Y-13121786D01*
X16136342Y-13121786D02*
X16145866Y-13102739D01*
X16145866Y-13102739D02*
X16155390Y-13093215D01*
X16155390Y-13093215D02*
X16174437Y-13083691D01*
X16364914Y-13083691D02*
X16383961Y-13083691D01*
X16383961Y-13083691D02*
X16403009Y-13093215D01*
X16403009Y-13093215D02*
X16412533Y-13102739D01*
X16412533Y-13102739D02*
X16422056Y-13121786D01*
X16422056Y-13121786D02*
X16431580Y-13159882D01*
X16431580Y-13159882D02*
X16431580Y-13207501D01*
X16431580Y-13207501D02*
X16422056Y-13245596D01*
X16422056Y-13245596D02*
X16412533Y-13264643D01*
X16412533Y-13264643D02*
X16403009Y-13274167D01*
X16403009Y-13274167D02*
X16383961Y-13283691D01*
X16383961Y-13283691D02*
X16364914Y-13283691D01*
X16364914Y-13283691D02*
X16345866Y-13274167D01*
X16345866Y-13274167D02*
X16336342Y-13264643D01*
X16336342Y-13264643D02*
X16326818Y-13245596D01*
X16326818Y-13245596D02*
X16317295Y-13207501D01*
X16317295Y-13207501D02*
X16317295Y-13159882D01*
X16317295Y-13159882D02*
X16326818Y-13121786D01*
X16326818Y-13121786D02*
X16336342Y-13102739D01*
X16336342Y-13102739D02*
X16345866Y-13093215D01*
X16345866Y-13093215D02*
X16364914Y-13083691D01*
X16555390Y-13083691D02*
X16574437Y-13083691D01*
X16574437Y-13083691D02*
X16593485Y-13093215D01*
X16593485Y-13093215D02*
X16603009Y-13102739D01*
X16603009Y-13102739D02*
X16612533Y-13121786D01*
X16612533Y-13121786D02*
X16622056Y-13159882D01*
X16622056Y-13159882D02*
X16622056Y-13207501D01*
X16622056Y-13207501D02*
X16612533Y-13245596D01*
X16612533Y-13245596D02*
X16603009Y-13264643D01*
X16603009Y-13264643D02*
X16593485Y-13274167D01*
X16593485Y-13274167D02*
X16574437Y-13283691D01*
X16574437Y-13283691D02*
X16555390Y-13283691D01*
X16555390Y-13283691D02*
X16536342Y-13274167D01*
X16536342Y-13274167D02*
X16526818Y-13264643D01*
X16526818Y-13264643D02*
X16517295Y-13245596D01*
X16517295Y-13245596D02*
X16507771Y-13207501D01*
X16507771Y-13207501D02*
X16507771Y-13159882D01*
X16507771Y-13159882D02*
X16517295Y-13121786D01*
X16517295Y-13121786D02*
X16526818Y-13102739D01*
X16526818Y-13102739D02*
X16536342Y-13093215D01*
X16536342Y-13093215D02*
X16555390Y-13083691D01*
X16707771Y-13283691D02*
X16707771Y-13150358D01*
X16707771Y-13169405D02*
X16717295Y-13159882D01*
X16717295Y-13159882D02*
X16736342Y-13150358D01*
X16736342Y-13150358D02*
X16764914Y-13150358D01*
X16764914Y-13150358D02*
X16783961Y-13159882D01*
X16783961Y-13159882D02*
X16793485Y-13178929D01*
X16793485Y-13178929D02*
X16793485Y-13283691D01*
X16793485Y-13178929D02*
X16803009Y-13159882D01*
X16803009Y-13159882D02*
X16822057Y-13150358D01*
X16822057Y-13150358D02*
X16850628Y-13150358D01*
X16850628Y-13150358D02*
X16869676Y-13159882D01*
X16869676Y-13159882D02*
X16879199Y-13178929D01*
X16879199Y-13178929D02*
X16879199Y-13283691D01*
X16974438Y-13283691D02*
X16974438Y-13150358D01*
X16974438Y-13169405D02*
X16983961Y-13159882D01*
X16983961Y-13159882D02*
X17003009Y-13150358D01*
X17003009Y-13150358D02*
X17031580Y-13150358D01*
X17031580Y-13150358D02*
X17050628Y-13159882D01*
X17050628Y-13159882D02*
X17060152Y-13178929D01*
X17060152Y-13178929D02*
X17060152Y-13283691D01*
X17060152Y-13178929D02*
X17069676Y-13159882D01*
X17069676Y-13159882D02*
X17088723Y-13150358D01*
X17088723Y-13150358D02*
X17117295Y-13150358D01*
X17117295Y-13150358D02*
X17136342Y-13159882D01*
X17136342Y-13159882D02*
X17145866Y-13178929D01*
X17145866Y-13178929D02*
X17145866Y-13283691D01*
X17536342Y-13074167D02*
X17364914Y-13331310D01*
X17793485Y-13083691D02*
X17812533Y-13083691D01*
X17812533Y-13083691D02*
X17831581Y-13093215D01*
X17831581Y-13093215D02*
X17841104Y-13102739D01*
X17841104Y-13102739D02*
X17850628Y-13121786D01*
X17850628Y-13121786D02*
X17860152Y-13159882D01*
X17860152Y-13159882D02*
X17860152Y-13207501D01*
X17860152Y-13207501D02*
X17850628Y-13245596D01*
X17850628Y-13245596D02*
X17841104Y-13264643D01*
X17841104Y-13264643D02*
X17831581Y-13274167D01*
X17831581Y-13274167D02*
X17812533Y-13283691D01*
X17812533Y-13283691D02*
X17793485Y-13283691D01*
X17793485Y-13283691D02*
X17774438Y-13274167D01*
X17774438Y-13274167D02*
X17764914Y-13264643D01*
X17764914Y-13264643D02*
X17755390Y-13245596D01*
X17755390Y-13245596D02*
X17745866Y-13207501D01*
X17745866Y-13207501D02*
X17745866Y-13159882D01*
X17745866Y-13159882D02*
X17755390Y-13121786D01*
X17755390Y-13121786D02*
X17764914Y-13102739D01*
X17764914Y-13102739D02*
X17774438Y-13093215D01*
X17774438Y-13093215D02*
X17793485Y-13083691D01*
X17945866Y-13264643D02*
X17955390Y-13274167D01*
X17955390Y-13274167D02*
X17945866Y-13283691D01*
X17945866Y-13283691D02*
X17936342Y-13274167D01*
X17936342Y-13274167D02*
X17945866Y-13264643D01*
X17945866Y-13264643D02*
X17945866Y-13283691D01*
X18079200Y-13083691D02*
X18098247Y-13083691D01*
X18098247Y-13083691D02*
X18117295Y-13093215D01*
X18117295Y-13093215D02*
X18126819Y-13102739D01*
X18126819Y-13102739D02*
X18136342Y-13121786D01*
X18136342Y-13121786D02*
X18145866Y-13159882D01*
X18145866Y-13159882D02*
X18145866Y-13207501D01*
X18145866Y-13207501D02*
X18136342Y-13245596D01*
X18136342Y-13245596D02*
X18126819Y-13264643D01*
X18126819Y-13264643D02*
X18117295Y-13274167D01*
X18117295Y-13274167D02*
X18098247Y-13283691D01*
X18098247Y-13283691D02*
X18079200Y-13283691D01*
X18079200Y-13283691D02*
X18060152Y-13274167D01*
X18060152Y-13274167D02*
X18050628Y-13264643D01*
X18050628Y-13264643D02*
X18041104Y-13245596D01*
X18041104Y-13245596D02*
X18031581Y-13207501D01*
X18031581Y-13207501D02*
X18031581Y-13159882D01*
X18031581Y-13159882D02*
X18041104Y-13121786D01*
X18041104Y-13121786D02*
X18050628Y-13102739D01*
X18050628Y-13102739D02*
X18060152Y-13093215D01*
X18060152Y-13093215D02*
X18079200Y-13083691D01*
X18212533Y-13083691D02*
X18336342Y-13083691D01*
X18336342Y-13083691D02*
X18269676Y-13159882D01*
X18269676Y-13159882D02*
X18298247Y-13159882D01*
X18298247Y-13159882D02*
X18317295Y-13169405D01*
X18317295Y-13169405D02*
X18326819Y-13178929D01*
X18326819Y-13178929D02*
X18336342Y-13197977D01*
X18336342Y-13197977D02*
X18336342Y-13245596D01*
X18336342Y-13245596D02*
X18326819Y-13264643D01*
X18326819Y-13264643D02*
X18317295Y-13274167D01*
X18317295Y-13274167D02*
X18298247Y-13283691D01*
X18298247Y-13283691D02*
X18241104Y-13283691D01*
X18241104Y-13283691D02*
X18222057Y-13274167D01*
X18222057Y-13274167D02*
X18212533Y-13264643D01*
X18431581Y-13283691D02*
X18469676Y-13283691D01*
X18469676Y-13283691D02*
X18488723Y-13274167D01*
X18488723Y-13274167D02*
X18498247Y-13264643D01*
X18498247Y-13264643D02*
X18517295Y-13236072D01*
X18517295Y-13236072D02*
X18526819Y-13197977D01*
X18526819Y-13197977D02*
X18526819Y-13121786D01*
X18526819Y-13121786D02*
X18517295Y-13102739D01*
X18517295Y-13102739D02*
X18507771Y-13093215D01*
X18507771Y-13093215D02*
X18488723Y-13083691D01*
X18488723Y-13083691D02*
X18450628Y-13083691D01*
X18450628Y-13083691D02*
X18431581Y-13093215D01*
X18431581Y-13093215D02*
X18422057Y-13102739D01*
X18422057Y-13102739D02*
X18412533Y-13121786D01*
X18412533Y-13121786D02*
X18412533Y-13169405D01*
X18412533Y-13169405D02*
X18422057Y-13188453D01*
X18422057Y-13188453D02*
X18431581Y-13197977D01*
X18431581Y-13197977D02*
X18450628Y-13207501D01*
X18450628Y-13207501D02*
X18488723Y-13207501D01*
X18488723Y-13207501D02*
X18507771Y-13197977D01*
X18507771Y-13197977D02*
X18517295Y-13188453D01*
X18517295Y-13188453D02*
X18526819Y-13169405D01*
X18698247Y-13150358D02*
X18698247Y-13283691D01*
X18650628Y-13074167D02*
X18603009Y-13217024D01*
X18603009Y-13217024D02*
X18726819Y-13217024D01*
X18793485Y-13083691D02*
X18793485Y-13121786D01*
X18869676Y-13083691D02*
X18869676Y-13121786D01*
X19164914Y-13359882D02*
X19155390Y-13350358D01*
X19155390Y-13350358D02*
X19136343Y-13321786D01*
X19136343Y-13321786D02*
X19126819Y-13302739D01*
X19126819Y-13302739D02*
X19117295Y-13274167D01*
X19117295Y-13274167D02*
X19107771Y-13226548D01*
X19107771Y-13226548D02*
X19107771Y-13188453D01*
X19107771Y-13188453D02*
X19117295Y-13140834D01*
X19117295Y-13140834D02*
X19126819Y-13112263D01*
X19126819Y-13112263D02*
X19136343Y-13093215D01*
X19136343Y-13093215D02*
X19155390Y-13064643D01*
X19155390Y-13064643D02*
X19164914Y-13055120D01*
X19345866Y-13283691D02*
X19231581Y-13283691D01*
X19288723Y-13283691D02*
X19288723Y-13083691D01*
X19288723Y-13083691D02*
X19269676Y-13112263D01*
X19269676Y-13112263D02*
X19250628Y-13131310D01*
X19250628Y-13131310D02*
X19231581Y-13140834D01*
X19517295Y-13150358D02*
X19517295Y-13283691D01*
X19469676Y-13074167D02*
X19422057Y-13217024D01*
X19422057Y-13217024D02*
X19545866Y-13217024D01*
X19774438Y-13283691D02*
X19774438Y-13083691D01*
X19860152Y-13283691D02*
X19860152Y-13178929D01*
X19860152Y-13178929D02*
X19850628Y-13159882D01*
X19850628Y-13159882D02*
X19831581Y-13150358D01*
X19831581Y-13150358D02*
X19803009Y-13150358D01*
X19803009Y-13150358D02*
X19783962Y-13159882D01*
X19783962Y-13159882D02*
X19774438Y-13169405D01*
X19983962Y-13283691D02*
X19964914Y-13274167D01*
X19964914Y-13274167D02*
X19955390Y-13264643D01*
X19955390Y-13264643D02*
X19945866Y-13245596D01*
X19945866Y-13245596D02*
X19945866Y-13188453D01*
X19945866Y-13188453D02*
X19955390Y-13169405D01*
X19955390Y-13169405D02*
X19964914Y-13159882D01*
X19964914Y-13159882D02*
X19983962Y-13150358D01*
X19983962Y-13150358D02*
X20012533Y-13150358D01*
X20012533Y-13150358D02*
X20031581Y-13159882D01*
X20031581Y-13159882D02*
X20041105Y-13169405D01*
X20041105Y-13169405D02*
X20050628Y-13188453D01*
X20050628Y-13188453D02*
X20050628Y-13245596D01*
X20050628Y-13245596D02*
X20041105Y-13264643D01*
X20041105Y-13264643D02*
X20031581Y-13274167D01*
X20031581Y-13274167D02*
X20012533Y-13283691D01*
X20012533Y-13283691D02*
X19983962Y-13283691D01*
X20164914Y-13283691D02*
X20145866Y-13274167D01*
X20145866Y-13274167D02*
X20136343Y-13255120D01*
X20136343Y-13255120D02*
X20136343Y-13083691D01*
X20317295Y-13274167D02*
X20298247Y-13283691D01*
X20298247Y-13283691D02*
X20260152Y-13283691D01*
X20260152Y-13283691D02*
X20241105Y-13274167D01*
X20241105Y-13274167D02*
X20231581Y-13255120D01*
X20231581Y-13255120D02*
X20231581Y-13178929D01*
X20231581Y-13178929D02*
X20241105Y-13159882D01*
X20241105Y-13159882D02*
X20260152Y-13150358D01*
X20260152Y-13150358D02*
X20298247Y-13150358D01*
X20298247Y-13150358D02*
X20317295Y-13159882D01*
X20317295Y-13159882D02*
X20326819Y-13178929D01*
X20326819Y-13178929D02*
X20326819Y-13197977D01*
X20326819Y-13197977D02*
X20231581Y-13217024D01*
X20403009Y-13274167D02*
X20422057Y-13283691D01*
X20422057Y-13283691D02*
X20460152Y-13283691D01*
X20460152Y-13283691D02*
X20479200Y-13274167D01*
X20479200Y-13274167D02*
X20488724Y-13255120D01*
X20488724Y-13255120D02*
X20488724Y-13245596D01*
X20488724Y-13245596D02*
X20479200Y-13226548D01*
X20479200Y-13226548D02*
X20460152Y-13217024D01*
X20460152Y-13217024D02*
X20431581Y-13217024D01*
X20431581Y-13217024D02*
X20412533Y-13207501D01*
X20412533Y-13207501D02*
X20403009Y-13188453D01*
X20403009Y-13188453D02*
X20403009Y-13178929D01*
X20403009Y-13178929D02*
X20412533Y-13159882D01*
X20412533Y-13159882D02*
X20431581Y-13150358D01*
X20431581Y-13150358D02*
X20460152Y-13150358D01*
X20460152Y-13150358D02*
X20479200Y-13159882D01*
X20555390Y-13359882D02*
X20564914Y-13350358D01*
X20564914Y-13350358D02*
X20583962Y-13321786D01*
X20583962Y-13321786D02*
X20593486Y-13302739D01*
X20593486Y-13302739D02*
X20603009Y-13274167D01*
X20603009Y-13274167D02*
X20612533Y-13226548D01*
X20612533Y-13226548D02*
X20612533Y-13188453D01*
X20612533Y-13188453D02*
X20603009Y-13140834D01*
X20603009Y-13140834D02*
X20593486Y-13112263D01*
X20593486Y-13112263D02*
X20583962Y-13093215D01*
X20583962Y-13093215D02*
X20564914Y-13064643D01*
X20564914Y-13064643D02*
X20555390Y-13055120D01*
X15489851Y-13556207D02*
X15589851Y-13456207D01*
X15489851Y-13356207D01*
X15389851Y-13456207D01*
X15489851Y-13556207D01*
X15841104Y-13366739D02*
X15850628Y-13357215D01*
X15850628Y-13357215D02*
X15869675Y-13347691D01*
X15869675Y-13347691D02*
X15917295Y-13347691D01*
X15917295Y-13347691D02*
X15936342Y-13357215D01*
X15936342Y-13357215D02*
X15945866Y-13366739D01*
X15945866Y-13366739D02*
X15955390Y-13385786D01*
X15955390Y-13385786D02*
X15955390Y-13404834D01*
X15955390Y-13404834D02*
X15945866Y-13433405D01*
X15945866Y-13433405D02*
X15831580Y-13547691D01*
X15831580Y-13547691D02*
X15955390Y-13547691D01*
X16041104Y-13528643D02*
X16050628Y-13538167D01*
X16050628Y-13538167D02*
X16041104Y-13547691D01*
X16041104Y-13547691D02*
X16031580Y-13538167D01*
X16031580Y-13538167D02*
X16041104Y-13528643D01*
X16041104Y-13528643D02*
X16041104Y-13547691D01*
X16174437Y-13347691D02*
X16193485Y-13347691D01*
X16193485Y-13347691D02*
X16212533Y-13357215D01*
X16212533Y-13357215D02*
X16222056Y-13366739D01*
X16222056Y-13366739D02*
X16231580Y-13385786D01*
X16231580Y-13385786D02*
X16241104Y-13423882D01*
X16241104Y-13423882D02*
X16241104Y-13471501D01*
X16241104Y-13471501D02*
X16231580Y-13509596D01*
X16231580Y-13509596D02*
X16222056Y-13528643D01*
X16222056Y-13528643D02*
X16212533Y-13538167D01*
X16212533Y-13538167D02*
X16193485Y-13547691D01*
X16193485Y-13547691D02*
X16174437Y-13547691D01*
X16174437Y-13547691D02*
X16155390Y-13538167D01*
X16155390Y-13538167D02*
X16145866Y-13528643D01*
X16145866Y-13528643D02*
X16136342Y-13509596D01*
X16136342Y-13509596D02*
X16126818Y-13471501D01*
X16126818Y-13471501D02*
X16126818Y-13423882D01*
X16126818Y-13423882D02*
X16136342Y-13385786D01*
X16136342Y-13385786D02*
X16145866Y-13366739D01*
X16145866Y-13366739D02*
X16155390Y-13357215D01*
X16155390Y-13357215D02*
X16174437Y-13347691D01*
X16364914Y-13347691D02*
X16383961Y-13347691D01*
X16383961Y-13347691D02*
X16403009Y-13357215D01*
X16403009Y-13357215D02*
X16412533Y-13366739D01*
X16412533Y-13366739D02*
X16422056Y-13385786D01*
X16422056Y-13385786D02*
X16431580Y-13423882D01*
X16431580Y-13423882D02*
X16431580Y-13471501D01*
X16431580Y-13471501D02*
X16422056Y-13509596D01*
X16422056Y-13509596D02*
X16412533Y-13528643D01*
X16412533Y-13528643D02*
X16403009Y-13538167D01*
X16403009Y-13538167D02*
X16383961Y-13547691D01*
X16383961Y-13547691D02*
X16364914Y-13547691D01*
X16364914Y-13547691D02*
X16345866Y-13538167D01*
X16345866Y-13538167D02*
X16336342Y-13528643D01*
X16336342Y-13528643D02*
X16326818Y-13509596D01*
X16326818Y-13509596D02*
X16317295Y-13471501D01*
X16317295Y-13471501D02*
X16317295Y-13423882D01*
X16317295Y-13423882D02*
X16326818Y-13385786D01*
X16326818Y-13385786D02*
X16336342Y-13366739D01*
X16336342Y-13366739D02*
X16345866Y-13357215D01*
X16345866Y-13357215D02*
X16364914Y-13347691D01*
X16555390Y-13347691D02*
X16574437Y-13347691D01*
X16574437Y-13347691D02*
X16593485Y-13357215D01*
X16593485Y-13357215D02*
X16603009Y-13366739D01*
X16603009Y-13366739D02*
X16612533Y-13385786D01*
X16612533Y-13385786D02*
X16622056Y-13423882D01*
X16622056Y-13423882D02*
X16622056Y-13471501D01*
X16622056Y-13471501D02*
X16612533Y-13509596D01*
X16612533Y-13509596D02*
X16603009Y-13528643D01*
X16603009Y-13528643D02*
X16593485Y-13538167D01*
X16593485Y-13538167D02*
X16574437Y-13547691D01*
X16574437Y-13547691D02*
X16555390Y-13547691D01*
X16555390Y-13547691D02*
X16536342Y-13538167D01*
X16536342Y-13538167D02*
X16526818Y-13528643D01*
X16526818Y-13528643D02*
X16517295Y-13509596D01*
X16517295Y-13509596D02*
X16507771Y-13471501D01*
X16507771Y-13471501D02*
X16507771Y-13423882D01*
X16507771Y-13423882D02*
X16517295Y-13385786D01*
X16517295Y-13385786D02*
X16526818Y-13366739D01*
X16526818Y-13366739D02*
X16536342Y-13357215D01*
X16536342Y-13357215D02*
X16555390Y-13347691D01*
X16707771Y-13547691D02*
X16707771Y-13414358D01*
X16707771Y-13433405D02*
X16717295Y-13423882D01*
X16717295Y-13423882D02*
X16736342Y-13414358D01*
X16736342Y-13414358D02*
X16764914Y-13414358D01*
X16764914Y-13414358D02*
X16783961Y-13423882D01*
X16783961Y-13423882D02*
X16793485Y-13442929D01*
X16793485Y-13442929D02*
X16793485Y-13547691D01*
X16793485Y-13442929D02*
X16803009Y-13423882D01*
X16803009Y-13423882D02*
X16822057Y-13414358D01*
X16822057Y-13414358D02*
X16850628Y-13414358D01*
X16850628Y-13414358D02*
X16869676Y-13423882D01*
X16869676Y-13423882D02*
X16879199Y-13442929D01*
X16879199Y-13442929D02*
X16879199Y-13547691D01*
X16974438Y-13547691D02*
X16974438Y-13414358D01*
X16974438Y-13433405D02*
X16983961Y-13423882D01*
X16983961Y-13423882D02*
X17003009Y-13414358D01*
X17003009Y-13414358D02*
X17031580Y-13414358D01*
X17031580Y-13414358D02*
X17050628Y-13423882D01*
X17050628Y-13423882D02*
X17060152Y-13442929D01*
X17060152Y-13442929D02*
X17060152Y-13547691D01*
X17060152Y-13442929D02*
X17069676Y-13423882D01*
X17069676Y-13423882D02*
X17088723Y-13414358D01*
X17088723Y-13414358D02*
X17117295Y-13414358D01*
X17117295Y-13414358D02*
X17136342Y-13423882D01*
X17136342Y-13423882D02*
X17145866Y-13442929D01*
X17145866Y-13442929D02*
X17145866Y-13547691D01*
X17536342Y-13338167D02*
X17364914Y-13595310D01*
X17793485Y-13347691D02*
X17812533Y-13347691D01*
X17812533Y-13347691D02*
X17831581Y-13357215D01*
X17831581Y-13357215D02*
X17841104Y-13366739D01*
X17841104Y-13366739D02*
X17850628Y-13385786D01*
X17850628Y-13385786D02*
X17860152Y-13423882D01*
X17860152Y-13423882D02*
X17860152Y-13471501D01*
X17860152Y-13471501D02*
X17850628Y-13509596D01*
X17850628Y-13509596D02*
X17841104Y-13528643D01*
X17841104Y-13528643D02*
X17831581Y-13538167D01*
X17831581Y-13538167D02*
X17812533Y-13547691D01*
X17812533Y-13547691D02*
X17793485Y-13547691D01*
X17793485Y-13547691D02*
X17774438Y-13538167D01*
X17774438Y-13538167D02*
X17764914Y-13528643D01*
X17764914Y-13528643D02*
X17755390Y-13509596D01*
X17755390Y-13509596D02*
X17745866Y-13471501D01*
X17745866Y-13471501D02*
X17745866Y-13423882D01*
X17745866Y-13423882D02*
X17755390Y-13385786D01*
X17755390Y-13385786D02*
X17764914Y-13366739D01*
X17764914Y-13366739D02*
X17774438Y-13357215D01*
X17774438Y-13357215D02*
X17793485Y-13347691D01*
X17945866Y-13528643D02*
X17955390Y-13538167D01*
X17955390Y-13538167D02*
X17945866Y-13547691D01*
X17945866Y-13547691D02*
X17936342Y-13538167D01*
X17936342Y-13538167D02*
X17945866Y-13528643D01*
X17945866Y-13528643D02*
X17945866Y-13547691D01*
X18079200Y-13347691D02*
X18098247Y-13347691D01*
X18098247Y-13347691D02*
X18117295Y-13357215D01*
X18117295Y-13357215D02*
X18126819Y-13366739D01*
X18126819Y-13366739D02*
X18136342Y-13385786D01*
X18136342Y-13385786D02*
X18145866Y-13423882D01*
X18145866Y-13423882D02*
X18145866Y-13471501D01*
X18145866Y-13471501D02*
X18136342Y-13509596D01*
X18136342Y-13509596D02*
X18126819Y-13528643D01*
X18126819Y-13528643D02*
X18117295Y-13538167D01*
X18117295Y-13538167D02*
X18098247Y-13547691D01*
X18098247Y-13547691D02*
X18079200Y-13547691D01*
X18079200Y-13547691D02*
X18060152Y-13538167D01*
X18060152Y-13538167D02*
X18050628Y-13528643D01*
X18050628Y-13528643D02*
X18041104Y-13509596D01*
X18041104Y-13509596D02*
X18031581Y-13471501D01*
X18031581Y-13471501D02*
X18031581Y-13423882D01*
X18031581Y-13423882D02*
X18041104Y-13385786D01*
X18041104Y-13385786D02*
X18050628Y-13366739D01*
X18050628Y-13366739D02*
X18060152Y-13357215D01*
X18060152Y-13357215D02*
X18079200Y-13347691D01*
X18212533Y-13347691D02*
X18345866Y-13347691D01*
X18345866Y-13347691D02*
X18260152Y-13547691D01*
X18450628Y-13433405D02*
X18431581Y-13423882D01*
X18431581Y-13423882D02*
X18422057Y-13414358D01*
X18422057Y-13414358D02*
X18412533Y-13395310D01*
X18412533Y-13395310D02*
X18412533Y-13385786D01*
X18412533Y-13385786D02*
X18422057Y-13366739D01*
X18422057Y-13366739D02*
X18431581Y-13357215D01*
X18431581Y-13357215D02*
X18450628Y-13347691D01*
X18450628Y-13347691D02*
X18488723Y-13347691D01*
X18488723Y-13347691D02*
X18507771Y-13357215D01*
X18507771Y-13357215D02*
X18517295Y-13366739D01*
X18517295Y-13366739D02*
X18526819Y-13385786D01*
X18526819Y-13385786D02*
X18526819Y-13395310D01*
X18526819Y-13395310D02*
X18517295Y-13414358D01*
X18517295Y-13414358D02*
X18507771Y-13423882D01*
X18507771Y-13423882D02*
X18488723Y-13433405D01*
X18488723Y-13433405D02*
X18450628Y-13433405D01*
X18450628Y-13433405D02*
X18431581Y-13442929D01*
X18431581Y-13442929D02*
X18422057Y-13452453D01*
X18422057Y-13452453D02*
X18412533Y-13471501D01*
X18412533Y-13471501D02*
X18412533Y-13509596D01*
X18412533Y-13509596D02*
X18422057Y-13528643D01*
X18422057Y-13528643D02*
X18431581Y-13538167D01*
X18431581Y-13538167D02*
X18450628Y-13547691D01*
X18450628Y-13547691D02*
X18488723Y-13547691D01*
X18488723Y-13547691D02*
X18507771Y-13538167D01*
X18507771Y-13538167D02*
X18517295Y-13528643D01*
X18517295Y-13528643D02*
X18526819Y-13509596D01*
X18526819Y-13509596D02*
X18526819Y-13471501D01*
X18526819Y-13471501D02*
X18517295Y-13452453D01*
X18517295Y-13452453D02*
X18507771Y-13442929D01*
X18507771Y-13442929D02*
X18488723Y-13433405D01*
X18593485Y-13347691D02*
X18726819Y-13347691D01*
X18726819Y-13347691D02*
X18641104Y-13547691D01*
X18793485Y-13347691D02*
X18793485Y-13385786D01*
X18869676Y-13347691D02*
X18869676Y-13385786D01*
X19164914Y-13623882D02*
X19155390Y-13614358D01*
X19155390Y-13614358D02*
X19136343Y-13585786D01*
X19136343Y-13585786D02*
X19126819Y-13566739D01*
X19126819Y-13566739D02*
X19117295Y-13538167D01*
X19117295Y-13538167D02*
X19107771Y-13490548D01*
X19107771Y-13490548D02*
X19107771Y-13452453D01*
X19107771Y-13452453D02*
X19117295Y-13404834D01*
X19117295Y-13404834D02*
X19126819Y-13376263D01*
X19126819Y-13376263D02*
X19136343Y-13357215D01*
X19136343Y-13357215D02*
X19155390Y-13328643D01*
X19155390Y-13328643D02*
X19164914Y-13319120D01*
X19326819Y-13414358D02*
X19326819Y-13547691D01*
X19279200Y-13338167D02*
X19231581Y-13481024D01*
X19231581Y-13481024D02*
X19355390Y-13481024D01*
X19583962Y-13547691D02*
X19583962Y-13347691D01*
X19669676Y-13547691D02*
X19669676Y-13442929D01*
X19669676Y-13442929D02*
X19660152Y-13423882D01*
X19660152Y-13423882D02*
X19641105Y-13414358D01*
X19641105Y-13414358D02*
X19612533Y-13414358D01*
X19612533Y-13414358D02*
X19593485Y-13423882D01*
X19593485Y-13423882D02*
X19583962Y-13433405D01*
X19793485Y-13547691D02*
X19774438Y-13538167D01*
X19774438Y-13538167D02*
X19764914Y-13528643D01*
X19764914Y-13528643D02*
X19755390Y-13509596D01*
X19755390Y-13509596D02*
X19755390Y-13452453D01*
X19755390Y-13452453D02*
X19764914Y-13433405D01*
X19764914Y-13433405D02*
X19774438Y-13423882D01*
X19774438Y-13423882D02*
X19793485Y-13414358D01*
X19793485Y-13414358D02*
X19822057Y-13414358D01*
X19822057Y-13414358D02*
X19841105Y-13423882D01*
X19841105Y-13423882D02*
X19850628Y-13433405D01*
X19850628Y-13433405D02*
X19860152Y-13452453D01*
X19860152Y-13452453D02*
X19860152Y-13509596D01*
X19860152Y-13509596D02*
X19850628Y-13528643D01*
X19850628Y-13528643D02*
X19841105Y-13538167D01*
X19841105Y-13538167D02*
X19822057Y-13547691D01*
X19822057Y-13547691D02*
X19793485Y-13547691D01*
X19974438Y-13547691D02*
X19955390Y-13538167D01*
X19955390Y-13538167D02*
X19945866Y-13519120D01*
X19945866Y-13519120D02*
X19945866Y-13347691D01*
X20126819Y-13538167D02*
X20107771Y-13547691D01*
X20107771Y-13547691D02*
X20069676Y-13547691D01*
X20069676Y-13547691D02*
X20050628Y-13538167D01*
X20050628Y-13538167D02*
X20041105Y-13519120D01*
X20041105Y-13519120D02*
X20041105Y-13442929D01*
X20041105Y-13442929D02*
X20050628Y-13423882D01*
X20050628Y-13423882D02*
X20069676Y-13414358D01*
X20069676Y-13414358D02*
X20107771Y-13414358D01*
X20107771Y-13414358D02*
X20126819Y-13423882D01*
X20126819Y-13423882D02*
X20136343Y-13442929D01*
X20136343Y-13442929D02*
X20136343Y-13461977D01*
X20136343Y-13461977D02*
X20041105Y-13481024D01*
X20212533Y-13538167D02*
X20231581Y-13547691D01*
X20231581Y-13547691D02*
X20269676Y-13547691D01*
X20269676Y-13547691D02*
X20288724Y-13538167D01*
X20288724Y-13538167D02*
X20298247Y-13519120D01*
X20298247Y-13519120D02*
X20298247Y-13509596D01*
X20298247Y-13509596D02*
X20288724Y-13490548D01*
X20288724Y-13490548D02*
X20269676Y-13481024D01*
X20269676Y-13481024D02*
X20241105Y-13481024D01*
X20241105Y-13481024D02*
X20222057Y-13471501D01*
X20222057Y-13471501D02*
X20212533Y-13452453D01*
X20212533Y-13452453D02*
X20212533Y-13442929D01*
X20212533Y-13442929D02*
X20222057Y-13423882D01*
X20222057Y-13423882D02*
X20241105Y-13414358D01*
X20241105Y-13414358D02*
X20269676Y-13414358D01*
X20269676Y-13414358D02*
X20288724Y-13423882D01*
X20364914Y-13623882D02*
X20374438Y-13614358D01*
X20374438Y-13614358D02*
X20393486Y-13585786D01*
X20393486Y-13585786D02*
X20403009Y-13566739D01*
X20403009Y-13566739D02*
X20412533Y-13538167D01*
X20412533Y-13538167D02*
X20422057Y-13490548D01*
X20422057Y-13490548D02*
X20422057Y-13452453D01*
X20422057Y-13452453D02*
X20412533Y-13404834D01*
X20412533Y-13404834D02*
X20403009Y-13376263D01*
X20403009Y-13376263D02*
X20393486Y-13357215D01*
X20393486Y-13357215D02*
X20374438Y-13328643D01*
X20374438Y-13328643D02*
X20364914Y-13319120D01*
M02*
