%TF.GenerationSoftware,KiCad,Pcbnew,8.0.7*%
%TF.CreationDate,2026-07-08T19:47:49-07:00*%
%TF.ProjectId,ChemistryDetector,4368656d-6973-4747-9279-446574656374,rev?*%
%TF.SameCoordinates,Original*%
%TF.FileFunction,Drillmap*%
%TF.FilePolarity,Positive*%
%FSLAX45Y45*%
G04 Gerber Fmt 4.5, Leading zero omitted, Abs format (unit mm)*
G04 Created by KiCad (PCBNEW 8.0.7) date 2026-07-08 19:47:49*
%MOMM*%
%LPD*%
G01*
G04 APERTURE LIST*
%ADD10C,0.200000*%
%ADD11C,0.100000*%
%ADD12C,0.320000*%
G04 APERTURE END LIST*
D10*
X16621416Y-7244359D02*
X21471416Y-7244359D01*
X21471416Y-5419729D02*
G75*
G02*
X15721643Y-7244359I-2291565J-2750478D01*
G01*
X16621416Y-7244359D02*
X15721643Y-7244359D01*
X21471416Y-5419729D02*
X21471416Y-7244359D01*
D11*
X21747143Y-6063624D02*
X21836043Y-6152524D01*
X21836043Y-6063624D02*
X21747143Y-6152524D01*
X22107488Y-6640296D02*
X22196388Y-6729196D01*
X22196388Y-6640296D02*
X22107488Y-6729196D01*
X19612530Y-7478400D02*
G75*
G02*
X19513470Y-7478400I-49530J0D01*
G01*
X19513470Y-7478400D02*
G75*
G02*
X19612530Y-7478400I49530J0D01*
G01*
X19612530Y-7681600D02*
G75*
G02*
X19513470Y-7681600I-49530J0D01*
G01*
X19513470Y-7681600D02*
G75*
G02*
X19612530Y-7681600I49530J0D01*
G01*
X20120530Y-7580000D02*
G75*
G02*
X20021470Y-7580000I-49530J0D01*
G01*
X20021470Y-7580000D02*
G75*
G02*
X20120530Y-7580000I49530J0D01*
G01*
X20719792Y-10519828D02*
X20719792Y-10619828D01*
X20669792Y-10569828D02*
X20769792Y-10569828D01*
X21285477Y-9954142D02*
X21285477Y-10054142D01*
X21235477Y-10004142D02*
X21335477Y-10004142D01*
D12*
X17940739Y-7683106D02*
X17940739Y-7456830D01*
X17714463Y-7456830D01*
X17714463Y-7683106D01*
X17940739Y-7683106D01*
X17940739Y-8883107D02*
X17940739Y-8656830D01*
X17714463Y-8656830D01*
X17714463Y-8883107D01*
X17940739Y-8883107D01*
X20640739Y-7683106D02*
X20640739Y-7456830D01*
X20414463Y-7456830D01*
X20414463Y-7683106D01*
X20640739Y-7683106D01*
X20640739Y-8883107D02*
X20640739Y-8656830D01*
X20414463Y-8656830D01*
X20414463Y-8883107D01*
X20640739Y-8883107D01*
D10*
X15850628Y-12071691D02*
X15850628Y-11871691D01*
X15850628Y-11871691D02*
X15898247Y-11871691D01*
X15898247Y-11871691D02*
X15926818Y-11881215D01*
X15926818Y-11881215D02*
X15945866Y-11900263D01*
X15945866Y-11900263D02*
X15955390Y-11919310D01*
X15955390Y-11919310D02*
X15964914Y-11957405D01*
X15964914Y-11957405D02*
X15964914Y-11985977D01*
X15964914Y-11985977D02*
X15955390Y-12024072D01*
X15955390Y-12024072D02*
X15945866Y-12043120D01*
X15945866Y-12043120D02*
X15926818Y-12062167D01*
X15926818Y-12062167D02*
X15898247Y-12071691D01*
X15898247Y-12071691D02*
X15850628Y-12071691D01*
X16050628Y-12071691D02*
X16050628Y-11938358D01*
X16050628Y-11976453D02*
X16060152Y-11957405D01*
X16060152Y-11957405D02*
X16069675Y-11947882D01*
X16069675Y-11947882D02*
X16088723Y-11938358D01*
X16088723Y-11938358D02*
X16107771Y-11938358D01*
X16174437Y-12071691D02*
X16174437Y-11938358D01*
X16174437Y-11871691D02*
X16164914Y-11881215D01*
X16164914Y-11881215D02*
X16174437Y-11890739D01*
X16174437Y-11890739D02*
X16183961Y-11881215D01*
X16183961Y-11881215D02*
X16174437Y-11871691D01*
X16174437Y-11871691D02*
X16174437Y-11890739D01*
X16298247Y-12071691D02*
X16279199Y-12062167D01*
X16279199Y-12062167D02*
X16269675Y-12043120D01*
X16269675Y-12043120D02*
X16269675Y-11871691D01*
X16403009Y-12071691D02*
X16383961Y-12062167D01*
X16383961Y-12062167D02*
X16374437Y-12043120D01*
X16374437Y-12043120D02*
X16374437Y-11871691D01*
X16631580Y-12071691D02*
X16631580Y-11871691D01*
X16631580Y-11871691D02*
X16698247Y-12014548D01*
X16698247Y-12014548D02*
X16764914Y-11871691D01*
X16764914Y-11871691D02*
X16764914Y-12071691D01*
X16945866Y-12071691D02*
X16945866Y-11966929D01*
X16945866Y-11966929D02*
X16936342Y-11947882D01*
X16936342Y-11947882D02*
X16917295Y-11938358D01*
X16917295Y-11938358D02*
X16879199Y-11938358D01*
X16879199Y-11938358D02*
X16860152Y-11947882D01*
X16945866Y-12062167D02*
X16926818Y-12071691D01*
X16926818Y-12071691D02*
X16879199Y-12071691D01*
X16879199Y-12071691D02*
X16860152Y-12062167D01*
X16860152Y-12062167D02*
X16850628Y-12043120D01*
X16850628Y-12043120D02*
X16850628Y-12024072D01*
X16850628Y-12024072D02*
X16860152Y-12005024D01*
X16860152Y-12005024D02*
X16879199Y-11995501D01*
X16879199Y-11995501D02*
X16926818Y-11995501D01*
X16926818Y-11995501D02*
X16945866Y-11985977D01*
X17041104Y-11938358D02*
X17041104Y-12138358D01*
X17041104Y-11947882D02*
X17060152Y-11938358D01*
X17060152Y-11938358D02*
X17098247Y-11938358D01*
X17098247Y-11938358D02*
X17117295Y-11947882D01*
X17117295Y-11947882D02*
X17126818Y-11957405D01*
X17126818Y-11957405D02*
X17136342Y-11976453D01*
X17136342Y-11976453D02*
X17136342Y-12033596D01*
X17136342Y-12033596D02*
X17126818Y-12052643D01*
X17126818Y-12052643D02*
X17117295Y-12062167D01*
X17117295Y-12062167D02*
X17098247Y-12071691D01*
X17098247Y-12071691D02*
X17060152Y-12071691D01*
X17060152Y-12071691D02*
X17041104Y-12062167D01*
X17222057Y-12052643D02*
X17231580Y-12062167D01*
X17231580Y-12062167D02*
X17222057Y-12071691D01*
X17222057Y-12071691D02*
X17212533Y-12062167D01*
X17212533Y-12062167D02*
X17222057Y-12052643D01*
X17222057Y-12052643D02*
X17222057Y-12071691D01*
X17222057Y-11947882D02*
X17231580Y-11957405D01*
X17231580Y-11957405D02*
X17222057Y-11966929D01*
X17222057Y-11966929D02*
X17212533Y-11957405D01*
X17212533Y-11957405D02*
X17222057Y-11947882D01*
X17222057Y-11947882D02*
X17222057Y-11966929D01*
D11*
X15500951Y-12355757D02*
X15589851Y-12444657D01*
X15589851Y-12355757D02*
X15500951Y-12444657D01*
D10*
X15888723Y-12291691D02*
X15907771Y-12291691D01*
X15907771Y-12291691D02*
X15926818Y-12301215D01*
X15926818Y-12301215D02*
X15936342Y-12310739D01*
X15936342Y-12310739D02*
X15945866Y-12329786D01*
X15945866Y-12329786D02*
X15955390Y-12367882D01*
X15955390Y-12367882D02*
X15955390Y-12415501D01*
X15955390Y-12415501D02*
X15945866Y-12453596D01*
X15945866Y-12453596D02*
X15936342Y-12472643D01*
X15936342Y-12472643D02*
X15926818Y-12482167D01*
X15926818Y-12482167D02*
X15907771Y-12491691D01*
X15907771Y-12491691D02*
X15888723Y-12491691D01*
X15888723Y-12491691D02*
X15869675Y-12482167D01*
X15869675Y-12482167D02*
X15860152Y-12472643D01*
X15860152Y-12472643D02*
X15850628Y-12453596D01*
X15850628Y-12453596D02*
X15841104Y-12415501D01*
X15841104Y-12415501D02*
X15841104Y-12367882D01*
X15841104Y-12367882D02*
X15850628Y-12329786D01*
X15850628Y-12329786D02*
X15860152Y-12310739D01*
X15860152Y-12310739D02*
X15869675Y-12301215D01*
X15869675Y-12301215D02*
X15888723Y-12291691D01*
X16041104Y-12472643D02*
X16050628Y-12482167D01*
X16050628Y-12482167D02*
X16041104Y-12491691D01*
X16041104Y-12491691D02*
X16031580Y-12482167D01*
X16031580Y-12482167D02*
X16041104Y-12472643D01*
X16041104Y-12472643D02*
X16041104Y-12491691D01*
X16164914Y-12377405D02*
X16145866Y-12367882D01*
X16145866Y-12367882D02*
X16136342Y-12358358D01*
X16136342Y-12358358D02*
X16126818Y-12339310D01*
X16126818Y-12339310D02*
X16126818Y-12329786D01*
X16126818Y-12329786D02*
X16136342Y-12310739D01*
X16136342Y-12310739D02*
X16145866Y-12301215D01*
X16145866Y-12301215D02*
X16164914Y-12291691D01*
X16164914Y-12291691D02*
X16203009Y-12291691D01*
X16203009Y-12291691D02*
X16222056Y-12301215D01*
X16222056Y-12301215D02*
X16231580Y-12310739D01*
X16231580Y-12310739D02*
X16241104Y-12329786D01*
X16241104Y-12329786D02*
X16241104Y-12339310D01*
X16241104Y-12339310D02*
X16231580Y-12358358D01*
X16231580Y-12358358D02*
X16222056Y-12367882D01*
X16222056Y-12367882D02*
X16203009Y-12377405D01*
X16203009Y-12377405D02*
X16164914Y-12377405D01*
X16164914Y-12377405D02*
X16145866Y-12386929D01*
X16145866Y-12386929D02*
X16136342Y-12396453D01*
X16136342Y-12396453D02*
X16126818Y-12415501D01*
X16126818Y-12415501D02*
X16126818Y-12453596D01*
X16126818Y-12453596D02*
X16136342Y-12472643D01*
X16136342Y-12472643D02*
X16145866Y-12482167D01*
X16145866Y-12482167D02*
X16164914Y-12491691D01*
X16164914Y-12491691D02*
X16203009Y-12491691D01*
X16203009Y-12491691D02*
X16222056Y-12482167D01*
X16222056Y-12482167D02*
X16231580Y-12472643D01*
X16231580Y-12472643D02*
X16241104Y-12453596D01*
X16241104Y-12453596D02*
X16241104Y-12415501D01*
X16241104Y-12415501D02*
X16231580Y-12396453D01*
X16231580Y-12396453D02*
X16222056Y-12386929D01*
X16222056Y-12386929D02*
X16203009Y-12377405D01*
X16355390Y-12377405D02*
X16336342Y-12367882D01*
X16336342Y-12367882D02*
X16326818Y-12358358D01*
X16326818Y-12358358D02*
X16317295Y-12339310D01*
X16317295Y-12339310D02*
X16317295Y-12329786D01*
X16317295Y-12329786D02*
X16326818Y-12310739D01*
X16326818Y-12310739D02*
X16336342Y-12301215D01*
X16336342Y-12301215D02*
X16355390Y-12291691D01*
X16355390Y-12291691D02*
X16393485Y-12291691D01*
X16393485Y-12291691D02*
X16412533Y-12301215D01*
X16412533Y-12301215D02*
X16422056Y-12310739D01*
X16422056Y-12310739D02*
X16431580Y-12329786D01*
X16431580Y-12329786D02*
X16431580Y-12339310D01*
X16431580Y-12339310D02*
X16422056Y-12358358D01*
X16422056Y-12358358D02*
X16412533Y-12367882D01*
X16412533Y-12367882D02*
X16393485Y-12377405D01*
X16393485Y-12377405D02*
X16355390Y-12377405D01*
X16355390Y-12377405D02*
X16336342Y-12386929D01*
X16336342Y-12386929D02*
X16326818Y-12396453D01*
X16326818Y-12396453D02*
X16317295Y-12415501D01*
X16317295Y-12415501D02*
X16317295Y-12453596D01*
X16317295Y-12453596D02*
X16326818Y-12472643D01*
X16326818Y-12472643D02*
X16336342Y-12482167D01*
X16336342Y-12482167D02*
X16355390Y-12491691D01*
X16355390Y-12491691D02*
X16393485Y-12491691D01*
X16393485Y-12491691D02*
X16412533Y-12482167D01*
X16412533Y-12482167D02*
X16422056Y-12472643D01*
X16422056Y-12472643D02*
X16431580Y-12453596D01*
X16431580Y-12453596D02*
X16431580Y-12415501D01*
X16431580Y-12415501D02*
X16422056Y-12396453D01*
X16422056Y-12396453D02*
X16412533Y-12386929D01*
X16412533Y-12386929D02*
X16393485Y-12377405D01*
X16526818Y-12491691D02*
X16564914Y-12491691D01*
X16564914Y-12491691D02*
X16583961Y-12482167D01*
X16583961Y-12482167D02*
X16593485Y-12472643D01*
X16593485Y-12472643D02*
X16612533Y-12444072D01*
X16612533Y-12444072D02*
X16622056Y-12405977D01*
X16622056Y-12405977D02*
X16622056Y-12329786D01*
X16622056Y-12329786D02*
X16612533Y-12310739D01*
X16612533Y-12310739D02*
X16603009Y-12301215D01*
X16603009Y-12301215D02*
X16583961Y-12291691D01*
X16583961Y-12291691D02*
X16545866Y-12291691D01*
X16545866Y-12291691D02*
X16526818Y-12301215D01*
X16526818Y-12301215D02*
X16517295Y-12310739D01*
X16517295Y-12310739D02*
X16507771Y-12329786D01*
X16507771Y-12329786D02*
X16507771Y-12377405D01*
X16507771Y-12377405D02*
X16517295Y-12396453D01*
X16517295Y-12396453D02*
X16526818Y-12405977D01*
X16526818Y-12405977D02*
X16545866Y-12415501D01*
X16545866Y-12415501D02*
X16583961Y-12415501D01*
X16583961Y-12415501D02*
X16603009Y-12405977D01*
X16603009Y-12405977D02*
X16612533Y-12396453D01*
X16612533Y-12396453D02*
X16622056Y-12377405D01*
X16707771Y-12491691D02*
X16707771Y-12358358D01*
X16707771Y-12377405D02*
X16717295Y-12367882D01*
X16717295Y-12367882D02*
X16736342Y-12358358D01*
X16736342Y-12358358D02*
X16764914Y-12358358D01*
X16764914Y-12358358D02*
X16783961Y-12367882D01*
X16783961Y-12367882D02*
X16793485Y-12386929D01*
X16793485Y-12386929D02*
X16793485Y-12491691D01*
X16793485Y-12386929D02*
X16803009Y-12367882D01*
X16803009Y-12367882D02*
X16822057Y-12358358D01*
X16822057Y-12358358D02*
X16850628Y-12358358D01*
X16850628Y-12358358D02*
X16869676Y-12367882D01*
X16869676Y-12367882D02*
X16879199Y-12386929D01*
X16879199Y-12386929D02*
X16879199Y-12491691D01*
X16974438Y-12491691D02*
X16974438Y-12358358D01*
X16974438Y-12377405D02*
X16983961Y-12367882D01*
X16983961Y-12367882D02*
X17003009Y-12358358D01*
X17003009Y-12358358D02*
X17031580Y-12358358D01*
X17031580Y-12358358D02*
X17050628Y-12367882D01*
X17050628Y-12367882D02*
X17060152Y-12386929D01*
X17060152Y-12386929D02*
X17060152Y-12491691D01*
X17060152Y-12386929D02*
X17069676Y-12367882D01*
X17069676Y-12367882D02*
X17088723Y-12358358D01*
X17088723Y-12358358D02*
X17117295Y-12358358D01*
X17117295Y-12358358D02*
X17136342Y-12367882D01*
X17136342Y-12367882D02*
X17145866Y-12386929D01*
X17145866Y-12386929D02*
X17145866Y-12491691D01*
X17536342Y-12282167D02*
X17364914Y-12539310D01*
X17793485Y-12291691D02*
X17812533Y-12291691D01*
X17812533Y-12291691D02*
X17831581Y-12301215D01*
X17831581Y-12301215D02*
X17841104Y-12310739D01*
X17841104Y-12310739D02*
X17850628Y-12329786D01*
X17850628Y-12329786D02*
X17860152Y-12367882D01*
X17860152Y-12367882D02*
X17860152Y-12415501D01*
X17860152Y-12415501D02*
X17850628Y-12453596D01*
X17850628Y-12453596D02*
X17841104Y-12472643D01*
X17841104Y-12472643D02*
X17831581Y-12482167D01*
X17831581Y-12482167D02*
X17812533Y-12491691D01*
X17812533Y-12491691D02*
X17793485Y-12491691D01*
X17793485Y-12491691D02*
X17774438Y-12482167D01*
X17774438Y-12482167D02*
X17764914Y-12472643D01*
X17764914Y-12472643D02*
X17755390Y-12453596D01*
X17755390Y-12453596D02*
X17745866Y-12415501D01*
X17745866Y-12415501D02*
X17745866Y-12367882D01*
X17745866Y-12367882D02*
X17755390Y-12329786D01*
X17755390Y-12329786D02*
X17764914Y-12310739D01*
X17764914Y-12310739D02*
X17774438Y-12301215D01*
X17774438Y-12301215D02*
X17793485Y-12291691D01*
X17945866Y-12472643D02*
X17955390Y-12482167D01*
X17955390Y-12482167D02*
X17945866Y-12491691D01*
X17945866Y-12491691D02*
X17936342Y-12482167D01*
X17936342Y-12482167D02*
X17945866Y-12472643D01*
X17945866Y-12472643D02*
X17945866Y-12491691D01*
X18079200Y-12291691D02*
X18098247Y-12291691D01*
X18098247Y-12291691D02*
X18117295Y-12301215D01*
X18117295Y-12301215D02*
X18126819Y-12310739D01*
X18126819Y-12310739D02*
X18136342Y-12329786D01*
X18136342Y-12329786D02*
X18145866Y-12367882D01*
X18145866Y-12367882D02*
X18145866Y-12415501D01*
X18145866Y-12415501D02*
X18136342Y-12453596D01*
X18136342Y-12453596D02*
X18126819Y-12472643D01*
X18126819Y-12472643D02*
X18117295Y-12482167D01*
X18117295Y-12482167D02*
X18098247Y-12491691D01*
X18098247Y-12491691D02*
X18079200Y-12491691D01*
X18079200Y-12491691D02*
X18060152Y-12482167D01*
X18060152Y-12482167D02*
X18050628Y-12472643D01*
X18050628Y-12472643D02*
X18041104Y-12453596D01*
X18041104Y-12453596D02*
X18031581Y-12415501D01*
X18031581Y-12415501D02*
X18031581Y-12367882D01*
X18031581Y-12367882D02*
X18041104Y-12329786D01*
X18041104Y-12329786D02*
X18050628Y-12310739D01*
X18050628Y-12310739D02*
X18060152Y-12301215D01*
X18060152Y-12301215D02*
X18079200Y-12291691D01*
X18212533Y-12291691D02*
X18336342Y-12291691D01*
X18336342Y-12291691D02*
X18269676Y-12367882D01*
X18269676Y-12367882D02*
X18298247Y-12367882D01*
X18298247Y-12367882D02*
X18317295Y-12377405D01*
X18317295Y-12377405D02*
X18326819Y-12386929D01*
X18326819Y-12386929D02*
X18336342Y-12405977D01*
X18336342Y-12405977D02*
X18336342Y-12453596D01*
X18336342Y-12453596D02*
X18326819Y-12472643D01*
X18326819Y-12472643D02*
X18317295Y-12482167D01*
X18317295Y-12482167D02*
X18298247Y-12491691D01*
X18298247Y-12491691D02*
X18241104Y-12491691D01*
X18241104Y-12491691D02*
X18222057Y-12482167D01*
X18222057Y-12482167D02*
X18212533Y-12472643D01*
X18517295Y-12291691D02*
X18422057Y-12291691D01*
X18422057Y-12291691D02*
X18412533Y-12386929D01*
X18412533Y-12386929D02*
X18422057Y-12377405D01*
X18422057Y-12377405D02*
X18441104Y-12367882D01*
X18441104Y-12367882D02*
X18488723Y-12367882D01*
X18488723Y-12367882D02*
X18507771Y-12377405D01*
X18507771Y-12377405D02*
X18517295Y-12386929D01*
X18517295Y-12386929D02*
X18526819Y-12405977D01*
X18526819Y-12405977D02*
X18526819Y-12453596D01*
X18526819Y-12453596D02*
X18517295Y-12472643D01*
X18517295Y-12472643D02*
X18507771Y-12482167D01*
X18507771Y-12482167D02*
X18488723Y-12491691D01*
X18488723Y-12491691D02*
X18441104Y-12491691D01*
X18441104Y-12491691D02*
X18422057Y-12482167D01*
X18422057Y-12482167D02*
X18412533Y-12472643D01*
X18650628Y-12291691D02*
X18669676Y-12291691D01*
X18669676Y-12291691D02*
X18688723Y-12301215D01*
X18688723Y-12301215D02*
X18698247Y-12310739D01*
X18698247Y-12310739D02*
X18707771Y-12329786D01*
X18707771Y-12329786D02*
X18717295Y-12367882D01*
X18717295Y-12367882D02*
X18717295Y-12415501D01*
X18717295Y-12415501D02*
X18707771Y-12453596D01*
X18707771Y-12453596D02*
X18698247Y-12472643D01*
X18698247Y-12472643D02*
X18688723Y-12482167D01*
X18688723Y-12482167D02*
X18669676Y-12491691D01*
X18669676Y-12491691D02*
X18650628Y-12491691D01*
X18650628Y-12491691D02*
X18631581Y-12482167D01*
X18631581Y-12482167D02*
X18622057Y-12472643D01*
X18622057Y-12472643D02*
X18612533Y-12453596D01*
X18612533Y-12453596D02*
X18603009Y-12415501D01*
X18603009Y-12415501D02*
X18603009Y-12367882D01*
X18603009Y-12367882D02*
X18612533Y-12329786D01*
X18612533Y-12329786D02*
X18622057Y-12310739D01*
X18622057Y-12310739D02*
X18631581Y-12301215D01*
X18631581Y-12301215D02*
X18650628Y-12291691D01*
X18793485Y-12291691D02*
X18793485Y-12329786D01*
X18869676Y-12291691D02*
X18869676Y-12329786D01*
X19164914Y-12567882D02*
X19155390Y-12558358D01*
X19155390Y-12558358D02*
X19136343Y-12529786D01*
X19136343Y-12529786D02*
X19126819Y-12510739D01*
X19126819Y-12510739D02*
X19117295Y-12482167D01*
X19117295Y-12482167D02*
X19107771Y-12434548D01*
X19107771Y-12434548D02*
X19107771Y-12396453D01*
X19107771Y-12396453D02*
X19117295Y-12348834D01*
X19117295Y-12348834D02*
X19126819Y-12320263D01*
X19126819Y-12320263D02*
X19136343Y-12301215D01*
X19136343Y-12301215D02*
X19155390Y-12272643D01*
X19155390Y-12272643D02*
X19164914Y-12263120D01*
X19231581Y-12310739D02*
X19241104Y-12301215D01*
X19241104Y-12301215D02*
X19260152Y-12291691D01*
X19260152Y-12291691D02*
X19307771Y-12291691D01*
X19307771Y-12291691D02*
X19326819Y-12301215D01*
X19326819Y-12301215D02*
X19336343Y-12310739D01*
X19336343Y-12310739D02*
X19345866Y-12329786D01*
X19345866Y-12329786D02*
X19345866Y-12348834D01*
X19345866Y-12348834D02*
X19336343Y-12377405D01*
X19336343Y-12377405D02*
X19222057Y-12491691D01*
X19222057Y-12491691D02*
X19345866Y-12491691D01*
X19583962Y-12491691D02*
X19583962Y-12291691D01*
X19669676Y-12491691D02*
X19669676Y-12386929D01*
X19669676Y-12386929D02*
X19660152Y-12367882D01*
X19660152Y-12367882D02*
X19641105Y-12358358D01*
X19641105Y-12358358D02*
X19612533Y-12358358D01*
X19612533Y-12358358D02*
X19593485Y-12367882D01*
X19593485Y-12367882D02*
X19583962Y-12377405D01*
X19793485Y-12491691D02*
X19774438Y-12482167D01*
X19774438Y-12482167D02*
X19764914Y-12472643D01*
X19764914Y-12472643D02*
X19755390Y-12453596D01*
X19755390Y-12453596D02*
X19755390Y-12396453D01*
X19755390Y-12396453D02*
X19764914Y-12377405D01*
X19764914Y-12377405D02*
X19774438Y-12367882D01*
X19774438Y-12367882D02*
X19793485Y-12358358D01*
X19793485Y-12358358D02*
X19822057Y-12358358D01*
X19822057Y-12358358D02*
X19841105Y-12367882D01*
X19841105Y-12367882D02*
X19850628Y-12377405D01*
X19850628Y-12377405D02*
X19860152Y-12396453D01*
X19860152Y-12396453D02*
X19860152Y-12453596D01*
X19860152Y-12453596D02*
X19850628Y-12472643D01*
X19850628Y-12472643D02*
X19841105Y-12482167D01*
X19841105Y-12482167D02*
X19822057Y-12491691D01*
X19822057Y-12491691D02*
X19793485Y-12491691D01*
X19974438Y-12491691D02*
X19955390Y-12482167D01*
X19955390Y-12482167D02*
X19945866Y-12463120D01*
X19945866Y-12463120D02*
X19945866Y-12291691D01*
X20126819Y-12482167D02*
X20107771Y-12491691D01*
X20107771Y-12491691D02*
X20069676Y-12491691D01*
X20069676Y-12491691D02*
X20050628Y-12482167D01*
X20050628Y-12482167D02*
X20041105Y-12463120D01*
X20041105Y-12463120D02*
X20041105Y-12386929D01*
X20041105Y-12386929D02*
X20050628Y-12367882D01*
X20050628Y-12367882D02*
X20069676Y-12358358D01*
X20069676Y-12358358D02*
X20107771Y-12358358D01*
X20107771Y-12358358D02*
X20126819Y-12367882D01*
X20126819Y-12367882D02*
X20136343Y-12386929D01*
X20136343Y-12386929D02*
X20136343Y-12405977D01*
X20136343Y-12405977D02*
X20041105Y-12425024D01*
X20212533Y-12482167D02*
X20231581Y-12491691D01*
X20231581Y-12491691D02*
X20269676Y-12491691D01*
X20269676Y-12491691D02*
X20288724Y-12482167D01*
X20288724Y-12482167D02*
X20298247Y-12463120D01*
X20298247Y-12463120D02*
X20298247Y-12453596D01*
X20298247Y-12453596D02*
X20288724Y-12434548D01*
X20288724Y-12434548D02*
X20269676Y-12425024D01*
X20269676Y-12425024D02*
X20241105Y-12425024D01*
X20241105Y-12425024D02*
X20222057Y-12415501D01*
X20222057Y-12415501D02*
X20212533Y-12396453D01*
X20212533Y-12396453D02*
X20212533Y-12386929D01*
X20212533Y-12386929D02*
X20222057Y-12367882D01*
X20222057Y-12367882D02*
X20241105Y-12358358D01*
X20241105Y-12358358D02*
X20269676Y-12358358D01*
X20269676Y-12358358D02*
X20288724Y-12367882D01*
X20364914Y-12567882D02*
X20374438Y-12558358D01*
X20374438Y-12558358D02*
X20393486Y-12529786D01*
X20393486Y-12529786D02*
X20403009Y-12510739D01*
X20403009Y-12510739D02*
X20412533Y-12482167D01*
X20412533Y-12482167D02*
X20422057Y-12434548D01*
X20422057Y-12434548D02*
X20422057Y-12396453D01*
X20422057Y-12396453D02*
X20412533Y-12348834D01*
X20412533Y-12348834D02*
X20403009Y-12320263D01*
X20403009Y-12320263D02*
X20393486Y-12301215D01*
X20393486Y-12301215D02*
X20374438Y-12272643D01*
X20374438Y-12272643D02*
X20364914Y-12263120D01*
X20726819Y-12567882D02*
X20717295Y-12558358D01*
X20717295Y-12558358D02*
X20698247Y-12529786D01*
X20698247Y-12529786D02*
X20688724Y-12510739D01*
X20688724Y-12510739D02*
X20679200Y-12482167D01*
X20679200Y-12482167D02*
X20669676Y-12434548D01*
X20669676Y-12434548D02*
X20669676Y-12396453D01*
X20669676Y-12396453D02*
X20679200Y-12348834D01*
X20679200Y-12348834D02*
X20688724Y-12320263D01*
X20688724Y-12320263D02*
X20698247Y-12301215D01*
X20698247Y-12301215D02*
X20717295Y-12272643D01*
X20717295Y-12272643D02*
X20726819Y-12263120D01*
X20803009Y-12358358D02*
X20803009Y-12491691D01*
X20803009Y-12377405D02*
X20812533Y-12367882D01*
X20812533Y-12367882D02*
X20831581Y-12358358D01*
X20831581Y-12358358D02*
X20860152Y-12358358D01*
X20860152Y-12358358D02*
X20879200Y-12367882D01*
X20879200Y-12367882D02*
X20888724Y-12386929D01*
X20888724Y-12386929D02*
X20888724Y-12491691D01*
X21012533Y-12491691D02*
X20993486Y-12482167D01*
X20993486Y-12482167D02*
X20983962Y-12472643D01*
X20983962Y-12472643D02*
X20974438Y-12453596D01*
X20974438Y-12453596D02*
X20974438Y-12396453D01*
X20974438Y-12396453D02*
X20983962Y-12377405D01*
X20983962Y-12377405D02*
X20993486Y-12367882D01*
X20993486Y-12367882D02*
X21012533Y-12358358D01*
X21012533Y-12358358D02*
X21041105Y-12358358D01*
X21041105Y-12358358D02*
X21060152Y-12367882D01*
X21060152Y-12367882D02*
X21069676Y-12377405D01*
X21069676Y-12377405D02*
X21079200Y-12396453D01*
X21079200Y-12396453D02*
X21079200Y-12453596D01*
X21079200Y-12453596D02*
X21069676Y-12472643D01*
X21069676Y-12472643D02*
X21060152Y-12482167D01*
X21060152Y-12482167D02*
X21041105Y-12491691D01*
X21041105Y-12491691D02*
X21012533Y-12491691D01*
X21136343Y-12358358D02*
X21212533Y-12358358D01*
X21164914Y-12291691D02*
X21164914Y-12463120D01*
X21164914Y-12463120D02*
X21174438Y-12482167D01*
X21174438Y-12482167D02*
X21193486Y-12491691D01*
X21193486Y-12491691D02*
X21212533Y-12491691D01*
X21431581Y-12358358D02*
X21431581Y-12558358D01*
X21431581Y-12367882D02*
X21450628Y-12358358D01*
X21450628Y-12358358D02*
X21488724Y-12358358D01*
X21488724Y-12358358D02*
X21507771Y-12367882D01*
X21507771Y-12367882D02*
X21517295Y-12377405D01*
X21517295Y-12377405D02*
X21526819Y-12396453D01*
X21526819Y-12396453D02*
X21526819Y-12453596D01*
X21526819Y-12453596D02*
X21517295Y-12472643D01*
X21517295Y-12472643D02*
X21507771Y-12482167D01*
X21507771Y-12482167D02*
X21488724Y-12491691D01*
X21488724Y-12491691D02*
X21450628Y-12491691D01*
X21450628Y-12491691D02*
X21431581Y-12482167D01*
X21641105Y-12491691D02*
X21622057Y-12482167D01*
X21622057Y-12482167D02*
X21612533Y-12463120D01*
X21612533Y-12463120D02*
X21612533Y-12291691D01*
X21803009Y-12491691D02*
X21803009Y-12386929D01*
X21803009Y-12386929D02*
X21793486Y-12367882D01*
X21793486Y-12367882D02*
X21774438Y-12358358D01*
X21774438Y-12358358D02*
X21736343Y-12358358D01*
X21736343Y-12358358D02*
X21717295Y-12367882D01*
X21803009Y-12482167D02*
X21783962Y-12491691D01*
X21783962Y-12491691D02*
X21736343Y-12491691D01*
X21736343Y-12491691D02*
X21717295Y-12482167D01*
X21717295Y-12482167D02*
X21707771Y-12463120D01*
X21707771Y-12463120D02*
X21707771Y-12444072D01*
X21707771Y-12444072D02*
X21717295Y-12425024D01*
X21717295Y-12425024D02*
X21736343Y-12415501D01*
X21736343Y-12415501D02*
X21783962Y-12415501D01*
X21783962Y-12415501D02*
X21803009Y-12405977D01*
X21869676Y-12358358D02*
X21945867Y-12358358D01*
X21898248Y-12291691D02*
X21898248Y-12463120D01*
X21898248Y-12463120D02*
X21907771Y-12482167D01*
X21907771Y-12482167D02*
X21926819Y-12491691D01*
X21926819Y-12491691D02*
X21945867Y-12491691D01*
X22088724Y-12482167D02*
X22069676Y-12491691D01*
X22069676Y-12491691D02*
X22031581Y-12491691D01*
X22031581Y-12491691D02*
X22012533Y-12482167D01*
X22012533Y-12482167D02*
X22003009Y-12463120D01*
X22003009Y-12463120D02*
X22003009Y-12386929D01*
X22003009Y-12386929D02*
X22012533Y-12367882D01*
X22012533Y-12367882D02*
X22031581Y-12358358D01*
X22031581Y-12358358D02*
X22069676Y-12358358D01*
X22069676Y-12358358D02*
X22088724Y-12367882D01*
X22088724Y-12367882D02*
X22098248Y-12386929D01*
X22098248Y-12386929D02*
X22098248Y-12405977D01*
X22098248Y-12405977D02*
X22003009Y-12425024D01*
X22269676Y-12491691D02*
X22269676Y-12291691D01*
X22269676Y-12482167D02*
X22250629Y-12491691D01*
X22250629Y-12491691D02*
X22212533Y-12491691D01*
X22212533Y-12491691D02*
X22193486Y-12482167D01*
X22193486Y-12482167D02*
X22183962Y-12472643D01*
X22183962Y-12472643D02*
X22174438Y-12453596D01*
X22174438Y-12453596D02*
X22174438Y-12396453D01*
X22174438Y-12396453D02*
X22183962Y-12377405D01*
X22183962Y-12377405D02*
X22193486Y-12367882D01*
X22193486Y-12367882D02*
X22212533Y-12358358D01*
X22212533Y-12358358D02*
X22250629Y-12358358D01*
X22250629Y-12358358D02*
X22269676Y-12367882D01*
X22345867Y-12567882D02*
X22355390Y-12558358D01*
X22355390Y-12558358D02*
X22374438Y-12529786D01*
X22374438Y-12529786D02*
X22383962Y-12510739D01*
X22383962Y-12510739D02*
X22393486Y-12482167D01*
X22393486Y-12482167D02*
X22403009Y-12434548D01*
X22403009Y-12434548D02*
X22403009Y-12396453D01*
X22403009Y-12396453D02*
X22393486Y-12348834D01*
X22393486Y-12348834D02*
X22383962Y-12320263D01*
X22383962Y-12320263D02*
X22374438Y-12301215D01*
X22374438Y-12301215D02*
X22355390Y-12272643D01*
X22355390Y-12272643D02*
X22345867Y-12263120D01*
D11*
X15589851Y-12664207D02*
G75*
G02*
X15490791Y-12664207I-49530J0D01*
G01*
X15490791Y-12664207D02*
G75*
G02*
X15589851Y-12664207I49530J0D01*
G01*
D10*
X15888723Y-12555691D02*
X15907771Y-12555691D01*
X15907771Y-12555691D02*
X15926818Y-12565215D01*
X15926818Y-12565215D02*
X15936342Y-12574739D01*
X15936342Y-12574739D02*
X15945866Y-12593786D01*
X15945866Y-12593786D02*
X15955390Y-12631882D01*
X15955390Y-12631882D02*
X15955390Y-12679501D01*
X15955390Y-12679501D02*
X15945866Y-12717596D01*
X15945866Y-12717596D02*
X15936342Y-12736643D01*
X15936342Y-12736643D02*
X15926818Y-12746167D01*
X15926818Y-12746167D02*
X15907771Y-12755691D01*
X15907771Y-12755691D02*
X15888723Y-12755691D01*
X15888723Y-12755691D02*
X15869675Y-12746167D01*
X15869675Y-12746167D02*
X15860152Y-12736643D01*
X15860152Y-12736643D02*
X15850628Y-12717596D01*
X15850628Y-12717596D02*
X15841104Y-12679501D01*
X15841104Y-12679501D02*
X15841104Y-12631882D01*
X15841104Y-12631882D02*
X15850628Y-12593786D01*
X15850628Y-12593786D02*
X15860152Y-12574739D01*
X15860152Y-12574739D02*
X15869675Y-12565215D01*
X15869675Y-12565215D02*
X15888723Y-12555691D01*
X16041104Y-12736643D02*
X16050628Y-12746167D01*
X16050628Y-12746167D02*
X16041104Y-12755691D01*
X16041104Y-12755691D02*
X16031580Y-12746167D01*
X16031580Y-12746167D02*
X16041104Y-12736643D01*
X16041104Y-12736643D02*
X16041104Y-12755691D01*
X16145866Y-12755691D02*
X16183961Y-12755691D01*
X16183961Y-12755691D02*
X16203009Y-12746167D01*
X16203009Y-12746167D02*
X16212533Y-12736643D01*
X16212533Y-12736643D02*
X16231580Y-12708072D01*
X16231580Y-12708072D02*
X16241104Y-12669977D01*
X16241104Y-12669977D02*
X16241104Y-12593786D01*
X16241104Y-12593786D02*
X16231580Y-12574739D01*
X16231580Y-12574739D02*
X16222056Y-12565215D01*
X16222056Y-12565215D02*
X16203009Y-12555691D01*
X16203009Y-12555691D02*
X16164914Y-12555691D01*
X16164914Y-12555691D02*
X16145866Y-12565215D01*
X16145866Y-12565215D02*
X16136342Y-12574739D01*
X16136342Y-12574739D02*
X16126818Y-12593786D01*
X16126818Y-12593786D02*
X16126818Y-12641405D01*
X16126818Y-12641405D02*
X16136342Y-12660453D01*
X16136342Y-12660453D02*
X16145866Y-12669977D01*
X16145866Y-12669977D02*
X16164914Y-12679501D01*
X16164914Y-12679501D02*
X16203009Y-12679501D01*
X16203009Y-12679501D02*
X16222056Y-12669977D01*
X16222056Y-12669977D02*
X16231580Y-12660453D01*
X16231580Y-12660453D02*
X16241104Y-12641405D01*
X16336342Y-12755691D02*
X16374437Y-12755691D01*
X16374437Y-12755691D02*
X16393485Y-12746167D01*
X16393485Y-12746167D02*
X16403009Y-12736643D01*
X16403009Y-12736643D02*
X16422056Y-12708072D01*
X16422056Y-12708072D02*
X16431580Y-12669977D01*
X16431580Y-12669977D02*
X16431580Y-12593786D01*
X16431580Y-12593786D02*
X16422056Y-12574739D01*
X16422056Y-12574739D02*
X16412533Y-12565215D01*
X16412533Y-12565215D02*
X16393485Y-12555691D01*
X16393485Y-12555691D02*
X16355390Y-12555691D01*
X16355390Y-12555691D02*
X16336342Y-12565215D01*
X16336342Y-12565215D02*
X16326818Y-12574739D01*
X16326818Y-12574739D02*
X16317295Y-12593786D01*
X16317295Y-12593786D02*
X16317295Y-12641405D01*
X16317295Y-12641405D02*
X16326818Y-12660453D01*
X16326818Y-12660453D02*
X16336342Y-12669977D01*
X16336342Y-12669977D02*
X16355390Y-12679501D01*
X16355390Y-12679501D02*
X16393485Y-12679501D01*
X16393485Y-12679501D02*
X16412533Y-12669977D01*
X16412533Y-12669977D02*
X16422056Y-12660453D01*
X16422056Y-12660453D02*
X16431580Y-12641405D01*
X16622056Y-12755691D02*
X16507771Y-12755691D01*
X16564914Y-12755691D02*
X16564914Y-12555691D01*
X16564914Y-12555691D02*
X16545866Y-12584263D01*
X16545866Y-12584263D02*
X16526818Y-12603310D01*
X16526818Y-12603310D02*
X16507771Y-12612834D01*
X16707771Y-12755691D02*
X16707771Y-12622358D01*
X16707771Y-12641405D02*
X16717295Y-12631882D01*
X16717295Y-12631882D02*
X16736342Y-12622358D01*
X16736342Y-12622358D02*
X16764914Y-12622358D01*
X16764914Y-12622358D02*
X16783961Y-12631882D01*
X16783961Y-12631882D02*
X16793485Y-12650929D01*
X16793485Y-12650929D02*
X16793485Y-12755691D01*
X16793485Y-12650929D02*
X16803009Y-12631882D01*
X16803009Y-12631882D02*
X16822057Y-12622358D01*
X16822057Y-12622358D02*
X16850628Y-12622358D01*
X16850628Y-12622358D02*
X16869676Y-12631882D01*
X16869676Y-12631882D02*
X16879199Y-12650929D01*
X16879199Y-12650929D02*
X16879199Y-12755691D01*
X16974438Y-12755691D02*
X16974438Y-12622358D01*
X16974438Y-12641405D02*
X16983961Y-12631882D01*
X16983961Y-12631882D02*
X17003009Y-12622358D01*
X17003009Y-12622358D02*
X17031580Y-12622358D01*
X17031580Y-12622358D02*
X17050628Y-12631882D01*
X17050628Y-12631882D02*
X17060152Y-12650929D01*
X17060152Y-12650929D02*
X17060152Y-12755691D01*
X17060152Y-12650929D02*
X17069676Y-12631882D01*
X17069676Y-12631882D02*
X17088723Y-12622358D01*
X17088723Y-12622358D02*
X17117295Y-12622358D01*
X17117295Y-12622358D02*
X17136342Y-12631882D01*
X17136342Y-12631882D02*
X17145866Y-12650929D01*
X17145866Y-12650929D02*
X17145866Y-12755691D01*
X17536342Y-12546167D02*
X17364914Y-12803310D01*
X17793485Y-12555691D02*
X17812533Y-12555691D01*
X17812533Y-12555691D02*
X17831581Y-12565215D01*
X17831581Y-12565215D02*
X17841104Y-12574739D01*
X17841104Y-12574739D02*
X17850628Y-12593786D01*
X17850628Y-12593786D02*
X17860152Y-12631882D01*
X17860152Y-12631882D02*
X17860152Y-12679501D01*
X17860152Y-12679501D02*
X17850628Y-12717596D01*
X17850628Y-12717596D02*
X17841104Y-12736643D01*
X17841104Y-12736643D02*
X17831581Y-12746167D01*
X17831581Y-12746167D02*
X17812533Y-12755691D01*
X17812533Y-12755691D02*
X17793485Y-12755691D01*
X17793485Y-12755691D02*
X17774438Y-12746167D01*
X17774438Y-12746167D02*
X17764914Y-12736643D01*
X17764914Y-12736643D02*
X17755390Y-12717596D01*
X17755390Y-12717596D02*
X17745866Y-12679501D01*
X17745866Y-12679501D02*
X17745866Y-12631882D01*
X17745866Y-12631882D02*
X17755390Y-12593786D01*
X17755390Y-12593786D02*
X17764914Y-12574739D01*
X17764914Y-12574739D02*
X17774438Y-12565215D01*
X17774438Y-12565215D02*
X17793485Y-12555691D01*
X17945866Y-12736643D02*
X17955390Y-12746167D01*
X17955390Y-12746167D02*
X17945866Y-12755691D01*
X17945866Y-12755691D02*
X17936342Y-12746167D01*
X17936342Y-12746167D02*
X17945866Y-12736643D01*
X17945866Y-12736643D02*
X17945866Y-12755691D01*
X18079200Y-12555691D02*
X18098247Y-12555691D01*
X18098247Y-12555691D02*
X18117295Y-12565215D01*
X18117295Y-12565215D02*
X18126819Y-12574739D01*
X18126819Y-12574739D02*
X18136342Y-12593786D01*
X18136342Y-12593786D02*
X18145866Y-12631882D01*
X18145866Y-12631882D02*
X18145866Y-12679501D01*
X18145866Y-12679501D02*
X18136342Y-12717596D01*
X18136342Y-12717596D02*
X18126819Y-12736643D01*
X18126819Y-12736643D02*
X18117295Y-12746167D01*
X18117295Y-12746167D02*
X18098247Y-12755691D01*
X18098247Y-12755691D02*
X18079200Y-12755691D01*
X18079200Y-12755691D02*
X18060152Y-12746167D01*
X18060152Y-12746167D02*
X18050628Y-12736643D01*
X18050628Y-12736643D02*
X18041104Y-12717596D01*
X18041104Y-12717596D02*
X18031581Y-12679501D01*
X18031581Y-12679501D02*
X18031581Y-12631882D01*
X18031581Y-12631882D02*
X18041104Y-12593786D01*
X18041104Y-12593786D02*
X18050628Y-12574739D01*
X18050628Y-12574739D02*
X18060152Y-12565215D01*
X18060152Y-12565215D02*
X18079200Y-12555691D01*
X18212533Y-12555691D02*
X18336342Y-12555691D01*
X18336342Y-12555691D02*
X18269676Y-12631882D01*
X18269676Y-12631882D02*
X18298247Y-12631882D01*
X18298247Y-12631882D02*
X18317295Y-12641405D01*
X18317295Y-12641405D02*
X18326819Y-12650929D01*
X18326819Y-12650929D02*
X18336342Y-12669977D01*
X18336342Y-12669977D02*
X18336342Y-12717596D01*
X18336342Y-12717596D02*
X18326819Y-12736643D01*
X18326819Y-12736643D02*
X18317295Y-12746167D01*
X18317295Y-12746167D02*
X18298247Y-12755691D01*
X18298247Y-12755691D02*
X18241104Y-12755691D01*
X18241104Y-12755691D02*
X18222057Y-12746167D01*
X18222057Y-12746167D02*
X18212533Y-12736643D01*
X18431581Y-12755691D02*
X18469676Y-12755691D01*
X18469676Y-12755691D02*
X18488723Y-12746167D01*
X18488723Y-12746167D02*
X18498247Y-12736643D01*
X18498247Y-12736643D02*
X18517295Y-12708072D01*
X18517295Y-12708072D02*
X18526819Y-12669977D01*
X18526819Y-12669977D02*
X18526819Y-12593786D01*
X18526819Y-12593786D02*
X18517295Y-12574739D01*
X18517295Y-12574739D02*
X18507771Y-12565215D01*
X18507771Y-12565215D02*
X18488723Y-12555691D01*
X18488723Y-12555691D02*
X18450628Y-12555691D01*
X18450628Y-12555691D02*
X18431581Y-12565215D01*
X18431581Y-12565215D02*
X18422057Y-12574739D01*
X18422057Y-12574739D02*
X18412533Y-12593786D01*
X18412533Y-12593786D02*
X18412533Y-12641405D01*
X18412533Y-12641405D02*
X18422057Y-12660453D01*
X18422057Y-12660453D02*
X18431581Y-12669977D01*
X18431581Y-12669977D02*
X18450628Y-12679501D01*
X18450628Y-12679501D02*
X18488723Y-12679501D01*
X18488723Y-12679501D02*
X18507771Y-12669977D01*
X18507771Y-12669977D02*
X18517295Y-12660453D01*
X18517295Y-12660453D02*
X18526819Y-12641405D01*
X18650628Y-12555691D02*
X18669676Y-12555691D01*
X18669676Y-12555691D02*
X18688723Y-12565215D01*
X18688723Y-12565215D02*
X18698247Y-12574739D01*
X18698247Y-12574739D02*
X18707771Y-12593786D01*
X18707771Y-12593786D02*
X18717295Y-12631882D01*
X18717295Y-12631882D02*
X18717295Y-12679501D01*
X18717295Y-12679501D02*
X18707771Y-12717596D01*
X18707771Y-12717596D02*
X18698247Y-12736643D01*
X18698247Y-12736643D02*
X18688723Y-12746167D01*
X18688723Y-12746167D02*
X18669676Y-12755691D01*
X18669676Y-12755691D02*
X18650628Y-12755691D01*
X18650628Y-12755691D02*
X18631581Y-12746167D01*
X18631581Y-12746167D02*
X18622057Y-12736643D01*
X18622057Y-12736643D02*
X18612533Y-12717596D01*
X18612533Y-12717596D02*
X18603009Y-12679501D01*
X18603009Y-12679501D02*
X18603009Y-12631882D01*
X18603009Y-12631882D02*
X18612533Y-12593786D01*
X18612533Y-12593786D02*
X18622057Y-12574739D01*
X18622057Y-12574739D02*
X18631581Y-12565215D01*
X18631581Y-12565215D02*
X18650628Y-12555691D01*
X18793485Y-12555691D02*
X18793485Y-12593786D01*
X18869676Y-12555691D02*
X18869676Y-12593786D01*
X19164914Y-12831882D02*
X19155390Y-12822358D01*
X19155390Y-12822358D02*
X19136343Y-12793786D01*
X19136343Y-12793786D02*
X19126819Y-12774739D01*
X19126819Y-12774739D02*
X19117295Y-12746167D01*
X19117295Y-12746167D02*
X19107771Y-12698548D01*
X19107771Y-12698548D02*
X19107771Y-12660453D01*
X19107771Y-12660453D02*
X19117295Y-12612834D01*
X19117295Y-12612834D02*
X19126819Y-12584263D01*
X19126819Y-12584263D02*
X19136343Y-12565215D01*
X19136343Y-12565215D02*
X19155390Y-12536643D01*
X19155390Y-12536643D02*
X19164914Y-12527120D01*
X19222057Y-12555691D02*
X19345866Y-12555691D01*
X19345866Y-12555691D02*
X19279200Y-12631882D01*
X19279200Y-12631882D02*
X19307771Y-12631882D01*
X19307771Y-12631882D02*
X19326819Y-12641405D01*
X19326819Y-12641405D02*
X19336343Y-12650929D01*
X19336343Y-12650929D02*
X19345866Y-12669977D01*
X19345866Y-12669977D02*
X19345866Y-12717596D01*
X19345866Y-12717596D02*
X19336343Y-12736643D01*
X19336343Y-12736643D02*
X19326819Y-12746167D01*
X19326819Y-12746167D02*
X19307771Y-12755691D01*
X19307771Y-12755691D02*
X19250628Y-12755691D01*
X19250628Y-12755691D02*
X19231581Y-12746167D01*
X19231581Y-12746167D02*
X19222057Y-12736643D01*
X19583962Y-12755691D02*
X19583962Y-12555691D01*
X19669676Y-12755691D02*
X19669676Y-12650929D01*
X19669676Y-12650929D02*
X19660152Y-12631882D01*
X19660152Y-12631882D02*
X19641105Y-12622358D01*
X19641105Y-12622358D02*
X19612533Y-12622358D01*
X19612533Y-12622358D02*
X19593485Y-12631882D01*
X19593485Y-12631882D02*
X19583962Y-12641405D01*
X19793485Y-12755691D02*
X19774438Y-12746167D01*
X19774438Y-12746167D02*
X19764914Y-12736643D01*
X19764914Y-12736643D02*
X19755390Y-12717596D01*
X19755390Y-12717596D02*
X19755390Y-12660453D01*
X19755390Y-12660453D02*
X19764914Y-12641405D01*
X19764914Y-12641405D02*
X19774438Y-12631882D01*
X19774438Y-12631882D02*
X19793485Y-12622358D01*
X19793485Y-12622358D02*
X19822057Y-12622358D01*
X19822057Y-12622358D02*
X19841105Y-12631882D01*
X19841105Y-12631882D02*
X19850628Y-12641405D01*
X19850628Y-12641405D02*
X19860152Y-12660453D01*
X19860152Y-12660453D02*
X19860152Y-12717596D01*
X19860152Y-12717596D02*
X19850628Y-12736643D01*
X19850628Y-12736643D02*
X19841105Y-12746167D01*
X19841105Y-12746167D02*
X19822057Y-12755691D01*
X19822057Y-12755691D02*
X19793485Y-12755691D01*
X19974438Y-12755691D02*
X19955390Y-12746167D01*
X19955390Y-12746167D02*
X19945866Y-12727120D01*
X19945866Y-12727120D02*
X19945866Y-12555691D01*
X20126819Y-12746167D02*
X20107771Y-12755691D01*
X20107771Y-12755691D02*
X20069676Y-12755691D01*
X20069676Y-12755691D02*
X20050628Y-12746167D01*
X20050628Y-12746167D02*
X20041105Y-12727120D01*
X20041105Y-12727120D02*
X20041105Y-12650929D01*
X20041105Y-12650929D02*
X20050628Y-12631882D01*
X20050628Y-12631882D02*
X20069676Y-12622358D01*
X20069676Y-12622358D02*
X20107771Y-12622358D01*
X20107771Y-12622358D02*
X20126819Y-12631882D01*
X20126819Y-12631882D02*
X20136343Y-12650929D01*
X20136343Y-12650929D02*
X20136343Y-12669977D01*
X20136343Y-12669977D02*
X20041105Y-12689024D01*
X20212533Y-12746167D02*
X20231581Y-12755691D01*
X20231581Y-12755691D02*
X20269676Y-12755691D01*
X20269676Y-12755691D02*
X20288724Y-12746167D01*
X20288724Y-12746167D02*
X20298247Y-12727120D01*
X20298247Y-12727120D02*
X20298247Y-12717596D01*
X20298247Y-12717596D02*
X20288724Y-12698548D01*
X20288724Y-12698548D02*
X20269676Y-12689024D01*
X20269676Y-12689024D02*
X20241105Y-12689024D01*
X20241105Y-12689024D02*
X20222057Y-12679501D01*
X20222057Y-12679501D02*
X20212533Y-12660453D01*
X20212533Y-12660453D02*
X20212533Y-12650929D01*
X20212533Y-12650929D02*
X20222057Y-12631882D01*
X20222057Y-12631882D02*
X20241105Y-12622358D01*
X20241105Y-12622358D02*
X20269676Y-12622358D01*
X20269676Y-12622358D02*
X20288724Y-12631882D01*
X20364914Y-12831882D02*
X20374438Y-12822358D01*
X20374438Y-12822358D02*
X20393486Y-12793786D01*
X20393486Y-12793786D02*
X20403009Y-12774739D01*
X20403009Y-12774739D02*
X20412533Y-12746167D01*
X20412533Y-12746167D02*
X20422057Y-12698548D01*
X20422057Y-12698548D02*
X20422057Y-12660453D01*
X20422057Y-12660453D02*
X20412533Y-12612834D01*
X20412533Y-12612834D02*
X20403009Y-12584263D01*
X20403009Y-12584263D02*
X20393486Y-12565215D01*
X20393486Y-12565215D02*
X20374438Y-12536643D01*
X20374438Y-12536643D02*
X20364914Y-12527120D01*
X20726819Y-12831882D02*
X20717295Y-12822358D01*
X20717295Y-12822358D02*
X20698247Y-12793786D01*
X20698247Y-12793786D02*
X20688724Y-12774739D01*
X20688724Y-12774739D02*
X20679200Y-12746167D01*
X20679200Y-12746167D02*
X20669676Y-12698548D01*
X20669676Y-12698548D02*
X20669676Y-12660453D01*
X20669676Y-12660453D02*
X20679200Y-12612834D01*
X20679200Y-12612834D02*
X20688724Y-12584263D01*
X20688724Y-12584263D02*
X20698247Y-12565215D01*
X20698247Y-12565215D02*
X20717295Y-12536643D01*
X20717295Y-12536643D02*
X20726819Y-12527120D01*
X20803009Y-12622358D02*
X20803009Y-12755691D01*
X20803009Y-12641405D02*
X20812533Y-12631882D01*
X20812533Y-12631882D02*
X20831581Y-12622358D01*
X20831581Y-12622358D02*
X20860152Y-12622358D01*
X20860152Y-12622358D02*
X20879200Y-12631882D01*
X20879200Y-12631882D02*
X20888724Y-12650929D01*
X20888724Y-12650929D02*
X20888724Y-12755691D01*
X21012533Y-12755691D02*
X20993486Y-12746167D01*
X20993486Y-12746167D02*
X20983962Y-12736643D01*
X20983962Y-12736643D02*
X20974438Y-12717596D01*
X20974438Y-12717596D02*
X20974438Y-12660453D01*
X20974438Y-12660453D02*
X20983962Y-12641405D01*
X20983962Y-12641405D02*
X20993486Y-12631882D01*
X20993486Y-12631882D02*
X21012533Y-12622358D01*
X21012533Y-12622358D02*
X21041105Y-12622358D01*
X21041105Y-12622358D02*
X21060152Y-12631882D01*
X21060152Y-12631882D02*
X21069676Y-12641405D01*
X21069676Y-12641405D02*
X21079200Y-12660453D01*
X21079200Y-12660453D02*
X21079200Y-12717596D01*
X21079200Y-12717596D02*
X21069676Y-12736643D01*
X21069676Y-12736643D02*
X21060152Y-12746167D01*
X21060152Y-12746167D02*
X21041105Y-12755691D01*
X21041105Y-12755691D02*
X21012533Y-12755691D01*
X21136343Y-12622358D02*
X21212533Y-12622358D01*
X21164914Y-12555691D02*
X21164914Y-12727120D01*
X21164914Y-12727120D02*
X21174438Y-12746167D01*
X21174438Y-12746167D02*
X21193486Y-12755691D01*
X21193486Y-12755691D02*
X21212533Y-12755691D01*
X21431581Y-12622358D02*
X21431581Y-12822358D01*
X21431581Y-12631882D02*
X21450628Y-12622358D01*
X21450628Y-12622358D02*
X21488724Y-12622358D01*
X21488724Y-12622358D02*
X21507771Y-12631882D01*
X21507771Y-12631882D02*
X21517295Y-12641405D01*
X21517295Y-12641405D02*
X21526819Y-12660453D01*
X21526819Y-12660453D02*
X21526819Y-12717596D01*
X21526819Y-12717596D02*
X21517295Y-12736643D01*
X21517295Y-12736643D02*
X21507771Y-12746167D01*
X21507771Y-12746167D02*
X21488724Y-12755691D01*
X21488724Y-12755691D02*
X21450628Y-12755691D01*
X21450628Y-12755691D02*
X21431581Y-12746167D01*
X21641105Y-12755691D02*
X21622057Y-12746167D01*
X21622057Y-12746167D02*
X21612533Y-12727120D01*
X21612533Y-12727120D02*
X21612533Y-12555691D01*
X21803009Y-12755691D02*
X21803009Y-12650929D01*
X21803009Y-12650929D02*
X21793486Y-12631882D01*
X21793486Y-12631882D02*
X21774438Y-12622358D01*
X21774438Y-12622358D02*
X21736343Y-12622358D01*
X21736343Y-12622358D02*
X21717295Y-12631882D01*
X21803009Y-12746167D02*
X21783962Y-12755691D01*
X21783962Y-12755691D02*
X21736343Y-12755691D01*
X21736343Y-12755691D02*
X21717295Y-12746167D01*
X21717295Y-12746167D02*
X21707771Y-12727120D01*
X21707771Y-12727120D02*
X21707771Y-12708072D01*
X21707771Y-12708072D02*
X21717295Y-12689024D01*
X21717295Y-12689024D02*
X21736343Y-12679501D01*
X21736343Y-12679501D02*
X21783962Y-12679501D01*
X21783962Y-12679501D02*
X21803009Y-12669977D01*
X21869676Y-12622358D02*
X21945867Y-12622358D01*
X21898248Y-12555691D02*
X21898248Y-12727120D01*
X21898248Y-12727120D02*
X21907771Y-12746167D01*
X21907771Y-12746167D02*
X21926819Y-12755691D01*
X21926819Y-12755691D02*
X21945867Y-12755691D01*
X22088724Y-12746167D02*
X22069676Y-12755691D01*
X22069676Y-12755691D02*
X22031581Y-12755691D01*
X22031581Y-12755691D02*
X22012533Y-12746167D01*
X22012533Y-12746167D02*
X22003009Y-12727120D01*
X22003009Y-12727120D02*
X22003009Y-12650929D01*
X22003009Y-12650929D02*
X22012533Y-12631882D01*
X22012533Y-12631882D02*
X22031581Y-12622358D01*
X22031581Y-12622358D02*
X22069676Y-12622358D01*
X22069676Y-12622358D02*
X22088724Y-12631882D01*
X22088724Y-12631882D02*
X22098248Y-12650929D01*
X22098248Y-12650929D02*
X22098248Y-12669977D01*
X22098248Y-12669977D02*
X22003009Y-12689024D01*
X22269676Y-12755691D02*
X22269676Y-12555691D01*
X22269676Y-12746167D02*
X22250629Y-12755691D01*
X22250629Y-12755691D02*
X22212533Y-12755691D01*
X22212533Y-12755691D02*
X22193486Y-12746167D01*
X22193486Y-12746167D02*
X22183962Y-12736643D01*
X22183962Y-12736643D02*
X22174438Y-12717596D01*
X22174438Y-12717596D02*
X22174438Y-12660453D01*
X22174438Y-12660453D02*
X22183962Y-12641405D01*
X22183962Y-12641405D02*
X22193486Y-12631882D01*
X22193486Y-12631882D02*
X22212533Y-12622358D01*
X22212533Y-12622358D02*
X22250629Y-12622358D01*
X22250629Y-12622358D02*
X22269676Y-12631882D01*
X22345867Y-12831882D02*
X22355390Y-12822358D01*
X22355390Y-12822358D02*
X22374438Y-12793786D01*
X22374438Y-12793786D02*
X22383962Y-12774739D01*
X22383962Y-12774739D02*
X22393486Y-12746167D01*
X22393486Y-12746167D02*
X22403009Y-12698548D01*
X22403009Y-12698548D02*
X22403009Y-12660453D01*
X22403009Y-12660453D02*
X22393486Y-12612834D01*
X22393486Y-12612834D02*
X22383962Y-12584263D01*
X22383962Y-12584263D02*
X22374438Y-12565215D01*
X22374438Y-12565215D02*
X22355390Y-12536643D01*
X22355390Y-12536643D02*
X22345867Y-12527120D01*
D11*
X15539851Y-12878207D02*
X15539851Y-12978207D01*
X15489851Y-12928207D02*
X15589851Y-12928207D01*
D10*
X15955390Y-13019691D02*
X15841104Y-13019691D01*
X15898247Y-13019691D02*
X15898247Y-12819691D01*
X15898247Y-12819691D02*
X15879199Y-12848263D01*
X15879199Y-12848263D02*
X15860152Y-12867310D01*
X15860152Y-12867310D02*
X15841104Y-12876834D01*
X16041104Y-13000643D02*
X16050628Y-13010167D01*
X16050628Y-13010167D02*
X16041104Y-13019691D01*
X16041104Y-13019691D02*
X16031580Y-13010167D01*
X16031580Y-13010167D02*
X16041104Y-13000643D01*
X16041104Y-13000643D02*
X16041104Y-13019691D01*
X16174437Y-12819691D02*
X16193485Y-12819691D01*
X16193485Y-12819691D02*
X16212533Y-12829215D01*
X16212533Y-12829215D02*
X16222056Y-12838739D01*
X16222056Y-12838739D02*
X16231580Y-12857786D01*
X16231580Y-12857786D02*
X16241104Y-12895882D01*
X16241104Y-12895882D02*
X16241104Y-12943501D01*
X16241104Y-12943501D02*
X16231580Y-12981596D01*
X16231580Y-12981596D02*
X16222056Y-13000643D01*
X16222056Y-13000643D02*
X16212533Y-13010167D01*
X16212533Y-13010167D02*
X16193485Y-13019691D01*
X16193485Y-13019691D02*
X16174437Y-13019691D01*
X16174437Y-13019691D02*
X16155390Y-13010167D01*
X16155390Y-13010167D02*
X16145866Y-13000643D01*
X16145866Y-13000643D02*
X16136342Y-12981596D01*
X16136342Y-12981596D02*
X16126818Y-12943501D01*
X16126818Y-12943501D02*
X16126818Y-12895882D01*
X16126818Y-12895882D02*
X16136342Y-12857786D01*
X16136342Y-12857786D02*
X16145866Y-12838739D01*
X16145866Y-12838739D02*
X16155390Y-12829215D01*
X16155390Y-12829215D02*
X16174437Y-12819691D01*
X16364914Y-12819691D02*
X16383961Y-12819691D01*
X16383961Y-12819691D02*
X16403009Y-12829215D01*
X16403009Y-12829215D02*
X16412533Y-12838739D01*
X16412533Y-12838739D02*
X16422056Y-12857786D01*
X16422056Y-12857786D02*
X16431580Y-12895882D01*
X16431580Y-12895882D02*
X16431580Y-12943501D01*
X16431580Y-12943501D02*
X16422056Y-12981596D01*
X16422056Y-12981596D02*
X16412533Y-13000643D01*
X16412533Y-13000643D02*
X16403009Y-13010167D01*
X16403009Y-13010167D02*
X16383961Y-13019691D01*
X16383961Y-13019691D02*
X16364914Y-13019691D01*
X16364914Y-13019691D02*
X16345866Y-13010167D01*
X16345866Y-13010167D02*
X16336342Y-13000643D01*
X16336342Y-13000643D02*
X16326818Y-12981596D01*
X16326818Y-12981596D02*
X16317295Y-12943501D01*
X16317295Y-12943501D02*
X16317295Y-12895882D01*
X16317295Y-12895882D02*
X16326818Y-12857786D01*
X16326818Y-12857786D02*
X16336342Y-12838739D01*
X16336342Y-12838739D02*
X16345866Y-12829215D01*
X16345866Y-12829215D02*
X16364914Y-12819691D01*
X16555390Y-12819691D02*
X16574437Y-12819691D01*
X16574437Y-12819691D02*
X16593485Y-12829215D01*
X16593485Y-12829215D02*
X16603009Y-12838739D01*
X16603009Y-12838739D02*
X16612533Y-12857786D01*
X16612533Y-12857786D02*
X16622056Y-12895882D01*
X16622056Y-12895882D02*
X16622056Y-12943501D01*
X16622056Y-12943501D02*
X16612533Y-12981596D01*
X16612533Y-12981596D02*
X16603009Y-13000643D01*
X16603009Y-13000643D02*
X16593485Y-13010167D01*
X16593485Y-13010167D02*
X16574437Y-13019691D01*
X16574437Y-13019691D02*
X16555390Y-13019691D01*
X16555390Y-13019691D02*
X16536342Y-13010167D01*
X16536342Y-13010167D02*
X16526818Y-13000643D01*
X16526818Y-13000643D02*
X16517295Y-12981596D01*
X16517295Y-12981596D02*
X16507771Y-12943501D01*
X16507771Y-12943501D02*
X16507771Y-12895882D01*
X16507771Y-12895882D02*
X16517295Y-12857786D01*
X16517295Y-12857786D02*
X16526818Y-12838739D01*
X16526818Y-12838739D02*
X16536342Y-12829215D01*
X16536342Y-12829215D02*
X16555390Y-12819691D01*
X16707771Y-13019691D02*
X16707771Y-12886358D01*
X16707771Y-12905405D02*
X16717295Y-12895882D01*
X16717295Y-12895882D02*
X16736342Y-12886358D01*
X16736342Y-12886358D02*
X16764914Y-12886358D01*
X16764914Y-12886358D02*
X16783961Y-12895882D01*
X16783961Y-12895882D02*
X16793485Y-12914929D01*
X16793485Y-12914929D02*
X16793485Y-13019691D01*
X16793485Y-12914929D02*
X16803009Y-12895882D01*
X16803009Y-12895882D02*
X16822057Y-12886358D01*
X16822057Y-12886358D02*
X16850628Y-12886358D01*
X16850628Y-12886358D02*
X16869676Y-12895882D01*
X16869676Y-12895882D02*
X16879199Y-12914929D01*
X16879199Y-12914929D02*
X16879199Y-13019691D01*
X16974438Y-13019691D02*
X16974438Y-12886358D01*
X16974438Y-12905405D02*
X16983961Y-12895882D01*
X16983961Y-12895882D02*
X17003009Y-12886358D01*
X17003009Y-12886358D02*
X17031580Y-12886358D01*
X17031580Y-12886358D02*
X17050628Y-12895882D01*
X17050628Y-12895882D02*
X17060152Y-12914929D01*
X17060152Y-12914929D02*
X17060152Y-13019691D01*
X17060152Y-12914929D02*
X17069676Y-12895882D01*
X17069676Y-12895882D02*
X17088723Y-12886358D01*
X17088723Y-12886358D02*
X17117295Y-12886358D01*
X17117295Y-12886358D02*
X17136342Y-12895882D01*
X17136342Y-12895882D02*
X17145866Y-12914929D01*
X17145866Y-12914929D02*
X17145866Y-13019691D01*
X17536342Y-12810167D02*
X17364914Y-13067310D01*
X17793485Y-12819691D02*
X17812533Y-12819691D01*
X17812533Y-12819691D02*
X17831581Y-12829215D01*
X17831581Y-12829215D02*
X17841104Y-12838739D01*
X17841104Y-12838739D02*
X17850628Y-12857786D01*
X17850628Y-12857786D02*
X17860152Y-12895882D01*
X17860152Y-12895882D02*
X17860152Y-12943501D01*
X17860152Y-12943501D02*
X17850628Y-12981596D01*
X17850628Y-12981596D02*
X17841104Y-13000643D01*
X17841104Y-13000643D02*
X17831581Y-13010167D01*
X17831581Y-13010167D02*
X17812533Y-13019691D01*
X17812533Y-13019691D02*
X17793485Y-13019691D01*
X17793485Y-13019691D02*
X17774438Y-13010167D01*
X17774438Y-13010167D02*
X17764914Y-13000643D01*
X17764914Y-13000643D02*
X17755390Y-12981596D01*
X17755390Y-12981596D02*
X17745866Y-12943501D01*
X17745866Y-12943501D02*
X17745866Y-12895882D01*
X17745866Y-12895882D02*
X17755390Y-12857786D01*
X17755390Y-12857786D02*
X17764914Y-12838739D01*
X17764914Y-12838739D02*
X17774438Y-12829215D01*
X17774438Y-12829215D02*
X17793485Y-12819691D01*
X17945866Y-13000643D02*
X17955390Y-13010167D01*
X17955390Y-13010167D02*
X17945866Y-13019691D01*
X17945866Y-13019691D02*
X17936342Y-13010167D01*
X17936342Y-13010167D02*
X17945866Y-13000643D01*
X17945866Y-13000643D02*
X17945866Y-13019691D01*
X18079200Y-12819691D02*
X18098247Y-12819691D01*
X18098247Y-12819691D02*
X18117295Y-12829215D01*
X18117295Y-12829215D02*
X18126819Y-12838739D01*
X18126819Y-12838739D02*
X18136342Y-12857786D01*
X18136342Y-12857786D02*
X18145866Y-12895882D01*
X18145866Y-12895882D02*
X18145866Y-12943501D01*
X18145866Y-12943501D02*
X18136342Y-12981596D01*
X18136342Y-12981596D02*
X18126819Y-13000643D01*
X18126819Y-13000643D02*
X18117295Y-13010167D01*
X18117295Y-13010167D02*
X18098247Y-13019691D01*
X18098247Y-13019691D02*
X18079200Y-13019691D01*
X18079200Y-13019691D02*
X18060152Y-13010167D01*
X18060152Y-13010167D02*
X18050628Y-13000643D01*
X18050628Y-13000643D02*
X18041104Y-12981596D01*
X18041104Y-12981596D02*
X18031581Y-12943501D01*
X18031581Y-12943501D02*
X18031581Y-12895882D01*
X18031581Y-12895882D02*
X18041104Y-12857786D01*
X18041104Y-12857786D02*
X18050628Y-12838739D01*
X18050628Y-12838739D02*
X18060152Y-12829215D01*
X18060152Y-12829215D02*
X18079200Y-12819691D01*
X18212533Y-12819691D02*
X18336342Y-12819691D01*
X18336342Y-12819691D02*
X18269676Y-12895882D01*
X18269676Y-12895882D02*
X18298247Y-12895882D01*
X18298247Y-12895882D02*
X18317295Y-12905405D01*
X18317295Y-12905405D02*
X18326819Y-12914929D01*
X18326819Y-12914929D02*
X18336342Y-12933977D01*
X18336342Y-12933977D02*
X18336342Y-12981596D01*
X18336342Y-12981596D02*
X18326819Y-13000643D01*
X18326819Y-13000643D02*
X18317295Y-13010167D01*
X18317295Y-13010167D02*
X18298247Y-13019691D01*
X18298247Y-13019691D02*
X18241104Y-13019691D01*
X18241104Y-13019691D02*
X18222057Y-13010167D01*
X18222057Y-13010167D02*
X18212533Y-13000643D01*
X18431581Y-13019691D02*
X18469676Y-13019691D01*
X18469676Y-13019691D02*
X18488723Y-13010167D01*
X18488723Y-13010167D02*
X18498247Y-13000643D01*
X18498247Y-13000643D02*
X18517295Y-12972072D01*
X18517295Y-12972072D02*
X18526819Y-12933977D01*
X18526819Y-12933977D02*
X18526819Y-12857786D01*
X18526819Y-12857786D02*
X18517295Y-12838739D01*
X18517295Y-12838739D02*
X18507771Y-12829215D01*
X18507771Y-12829215D02*
X18488723Y-12819691D01*
X18488723Y-12819691D02*
X18450628Y-12819691D01*
X18450628Y-12819691D02*
X18431581Y-12829215D01*
X18431581Y-12829215D02*
X18422057Y-12838739D01*
X18422057Y-12838739D02*
X18412533Y-12857786D01*
X18412533Y-12857786D02*
X18412533Y-12905405D01*
X18412533Y-12905405D02*
X18422057Y-12924453D01*
X18422057Y-12924453D02*
X18431581Y-12933977D01*
X18431581Y-12933977D02*
X18450628Y-12943501D01*
X18450628Y-12943501D02*
X18488723Y-12943501D01*
X18488723Y-12943501D02*
X18507771Y-12933977D01*
X18507771Y-12933977D02*
X18517295Y-12924453D01*
X18517295Y-12924453D02*
X18526819Y-12905405D01*
X18698247Y-12886358D02*
X18698247Y-13019691D01*
X18650628Y-12810167D02*
X18603009Y-12953024D01*
X18603009Y-12953024D02*
X18726819Y-12953024D01*
X18793485Y-12819691D02*
X18793485Y-12857786D01*
X18869676Y-12819691D02*
X18869676Y-12857786D01*
X19164914Y-13095882D02*
X19155390Y-13086358D01*
X19155390Y-13086358D02*
X19136343Y-13057786D01*
X19136343Y-13057786D02*
X19126819Y-13038739D01*
X19126819Y-13038739D02*
X19117295Y-13010167D01*
X19117295Y-13010167D02*
X19107771Y-12962548D01*
X19107771Y-12962548D02*
X19107771Y-12924453D01*
X19107771Y-12924453D02*
X19117295Y-12876834D01*
X19117295Y-12876834D02*
X19126819Y-12848263D01*
X19126819Y-12848263D02*
X19136343Y-12829215D01*
X19136343Y-12829215D02*
X19155390Y-12800643D01*
X19155390Y-12800643D02*
X19164914Y-12791120D01*
X19231581Y-12838739D02*
X19241104Y-12829215D01*
X19241104Y-12829215D02*
X19260152Y-12819691D01*
X19260152Y-12819691D02*
X19307771Y-12819691D01*
X19307771Y-12819691D02*
X19326819Y-12829215D01*
X19326819Y-12829215D02*
X19336343Y-12838739D01*
X19336343Y-12838739D02*
X19345866Y-12857786D01*
X19345866Y-12857786D02*
X19345866Y-12876834D01*
X19345866Y-12876834D02*
X19336343Y-12905405D01*
X19336343Y-12905405D02*
X19222057Y-13019691D01*
X19222057Y-13019691D02*
X19345866Y-13019691D01*
X19583962Y-13019691D02*
X19583962Y-12819691D01*
X19669676Y-13019691D02*
X19669676Y-12914929D01*
X19669676Y-12914929D02*
X19660152Y-12895882D01*
X19660152Y-12895882D02*
X19641105Y-12886358D01*
X19641105Y-12886358D02*
X19612533Y-12886358D01*
X19612533Y-12886358D02*
X19593485Y-12895882D01*
X19593485Y-12895882D02*
X19583962Y-12905405D01*
X19793485Y-13019691D02*
X19774438Y-13010167D01*
X19774438Y-13010167D02*
X19764914Y-13000643D01*
X19764914Y-13000643D02*
X19755390Y-12981596D01*
X19755390Y-12981596D02*
X19755390Y-12924453D01*
X19755390Y-12924453D02*
X19764914Y-12905405D01*
X19764914Y-12905405D02*
X19774438Y-12895882D01*
X19774438Y-12895882D02*
X19793485Y-12886358D01*
X19793485Y-12886358D02*
X19822057Y-12886358D01*
X19822057Y-12886358D02*
X19841105Y-12895882D01*
X19841105Y-12895882D02*
X19850628Y-12905405D01*
X19850628Y-12905405D02*
X19860152Y-12924453D01*
X19860152Y-12924453D02*
X19860152Y-12981596D01*
X19860152Y-12981596D02*
X19850628Y-13000643D01*
X19850628Y-13000643D02*
X19841105Y-13010167D01*
X19841105Y-13010167D02*
X19822057Y-13019691D01*
X19822057Y-13019691D02*
X19793485Y-13019691D01*
X19974438Y-13019691D02*
X19955390Y-13010167D01*
X19955390Y-13010167D02*
X19945866Y-12991120D01*
X19945866Y-12991120D02*
X19945866Y-12819691D01*
X20126819Y-13010167D02*
X20107771Y-13019691D01*
X20107771Y-13019691D02*
X20069676Y-13019691D01*
X20069676Y-13019691D02*
X20050628Y-13010167D01*
X20050628Y-13010167D02*
X20041105Y-12991120D01*
X20041105Y-12991120D02*
X20041105Y-12914929D01*
X20041105Y-12914929D02*
X20050628Y-12895882D01*
X20050628Y-12895882D02*
X20069676Y-12886358D01*
X20069676Y-12886358D02*
X20107771Y-12886358D01*
X20107771Y-12886358D02*
X20126819Y-12895882D01*
X20126819Y-12895882D02*
X20136343Y-12914929D01*
X20136343Y-12914929D02*
X20136343Y-12933977D01*
X20136343Y-12933977D02*
X20041105Y-12953024D01*
X20212533Y-13010167D02*
X20231581Y-13019691D01*
X20231581Y-13019691D02*
X20269676Y-13019691D01*
X20269676Y-13019691D02*
X20288724Y-13010167D01*
X20288724Y-13010167D02*
X20298247Y-12991120D01*
X20298247Y-12991120D02*
X20298247Y-12981596D01*
X20298247Y-12981596D02*
X20288724Y-12962548D01*
X20288724Y-12962548D02*
X20269676Y-12953024D01*
X20269676Y-12953024D02*
X20241105Y-12953024D01*
X20241105Y-12953024D02*
X20222057Y-12943501D01*
X20222057Y-12943501D02*
X20212533Y-12924453D01*
X20212533Y-12924453D02*
X20212533Y-12914929D01*
X20212533Y-12914929D02*
X20222057Y-12895882D01*
X20222057Y-12895882D02*
X20241105Y-12886358D01*
X20241105Y-12886358D02*
X20269676Y-12886358D01*
X20269676Y-12886358D02*
X20288724Y-12895882D01*
X20364914Y-13095882D02*
X20374438Y-13086358D01*
X20374438Y-13086358D02*
X20393486Y-13057786D01*
X20393486Y-13057786D02*
X20403009Y-13038739D01*
X20403009Y-13038739D02*
X20412533Y-13010167D01*
X20412533Y-13010167D02*
X20422057Y-12962548D01*
X20422057Y-12962548D02*
X20422057Y-12924453D01*
X20422057Y-12924453D02*
X20412533Y-12876834D01*
X20412533Y-12876834D02*
X20403009Y-12848263D01*
X20403009Y-12848263D02*
X20393486Y-12829215D01*
X20393486Y-12829215D02*
X20374438Y-12800643D01*
X20374438Y-12800643D02*
X20364914Y-12791120D01*
X20726819Y-13095882D02*
X20717295Y-13086358D01*
X20717295Y-13086358D02*
X20698247Y-13057786D01*
X20698247Y-13057786D02*
X20688724Y-13038739D01*
X20688724Y-13038739D02*
X20679200Y-13010167D01*
X20679200Y-13010167D02*
X20669676Y-12962548D01*
X20669676Y-12962548D02*
X20669676Y-12924453D01*
X20669676Y-12924453D02*
X20679200Y-12876834D01*
X20679200Y-12876834D02*
X20688724Y-12848263D01*
X20688724Y-12848263D02*
X20698247Y-12829215D01*
X20698247Y-12829215D02*
X20717295Y-12800643D01*
X20717295Y-12800643D02*
X20726819Y-12791120D01*
X20803009Y-12886358D02*
X20803009Y-13019691D01*
X20803009Y-12905405D02*
X20812533Y-12895882D01*
X20812533Y-12895882D02*
X20831581Y-12886358D01*
X20831581Y-12886358D02*
X20860152Y-12886358D01*
X20860152Y-12886358D02*
X20879200Y-12895882D01*
X20879200Y-12895882D02*
X20888724Y-12914929D01*
X20888724Y-12914929D02*
X20888724Y-13019691D01*
X21012533Y-13019691D02*
X20993486Y-13010167D01*
X20993486Y-13010167D02*
X20983962Y-13000643D01*
X20983962Y-13000643D02*
X20974438Y-12981596D01*
X20974438Y-12981596D02*
X20974438Y-12924453D01*
X20974438Y-12924453D02*
X20983962Y-12905405D01*
X20983962Y-12905405D02*
X20993486Y-12895882D01*
X20993486Y-12895882D02*
X21012533Y-12886358D01*
X21012533Y-12886358D02*
X21041105Y-12886358D01*
X21041105Y-12886358D02*
X21060152Y-12895882D01*
X21060152Y-12895882D02*
X21069676Y-12905405D01*
X21069676Y-12905405D02*
X21079200Y-12924453D01*
X21079200Y-12924453D02*
X21079200Y-12981596D01*
X21079200Y-12981596D02*
X21069676Y-13000643D01*
X21069676Y-13000643D02*
X21060152Y-13010167D01*
X21060152Y-13010167D02*
X21041105Y-13019691D01*
X21041105Y-13019691D02*
X21012533Y-13019691D01*
X21136343Y-12886358D02*
X21212533Y-12886358D01*
X21164914Y-12819691D02*
X21164914Y-12991120D01*
X21164914Y-12991120D02*
X21174438Y-13010167D01*
X21174438Y-13010167D02*
X21193486Y-13019691D01*
X21193486Y-13019691D02*
X21212533Y-13019691D01*
X21431581Y-12886358D02*
X21431581Y-13086358D01*
X21431581Y-12895882D02*
X21450628Y-12886358D01*
X21450628Y-12886358D02*
X21488724Y-12886358D01*
X21488724Y-12886358D02*
X21507771Y-12895882D01*
X21507771Y-12895882D02*
X21517295Y-12905405D01*
X21517295Y-12905405D02*
X21526819Y-12924453D01*
X21526819Y-12924453D02*
X21526819Y-12981596D01*
X21526819Y-12981596D02*
X21517295Y-13000643D01*
X21517295Y-13000643D02*
X21507771Y-13010167D01*
X21507771Y-13010167D02*
X21488724Y-13019691D01*
X21488724Y-13019691D02*
X21450628Y-13019691D01*
X21450628Y-13019691D02*
X21431581Y-13010167D01*
X21641105Y-13019691D02*
X21622057Y-13010167D01*
X21622057Y-13010167D02*
X21612533Y-12991120D01*
X21612533Y-12991120D02*
X21612533Y-12819691D01*
X21803009Y-13019691D02*
X21803009Y-12914929D01*
X21803009Y-12914929D02*
X21793486Y-12895882D01*
X21793486Y-12895882D02*
X21774438Y-12886358D01*
X21774438Y-12886358D02*
X21736343Y-12886358D01*
X21736343Y-12886358D02*
X21717295Y-12895882D01*
X21803009Y-13010167D02*
X21783962Y-13019691D01*
X21783962Y-13019691D02*
X21736343Y-13019691D01*
X21736343Y-13019691D02*
X21717295Y-13010167D01*
X21717295Y-13010167D02*
X21707771Y-12991120D01*
X21707771Y-12991120D02*
X21707771Y-12972072D01*
X21707771Y-12972072D02*
X21717295Y-12953024D01*
X21717295Y-12953024D02*
X21736343Y-12943501D01*
X21736343Y-12943501D02*
X21783962Y-12943501D01*
X21783962Y-12943501D02*
X21803009Y-12933977D01*
X21869676Y-12886358D02*
X21945867Y-12886358D01*
X21898248Y-12819691D02*
X21898248Y-12991120D01*
X21898248Y-12991120D02*
X21907771Y-13010167D01*
X21907771Y-13010167D02*
X21926819Y-13019691D01*
X21926819Y-13019691D02*
X21945867Y-13019691D01*
X22088724Y-13010167D02*
X22069676Y-13019691D01*
X22069676Y-13019691D02*
X22031581Y-13019691D01*
X22031581Y-13019691D02*
X22012533Y-13010167D01*
X22012533Y-13010167D02*
X22003009Y-12991120D01*
X22003009Y-12991120D02*
X22003009Y-12914929D01*
X22003009Y-12914929D02*
X22012533Y-12895882D01*
X22012533Y-12895882D02*
X22031581Y-12886358D01*
X22031581Y-12886358D02*
X22069676Y-12886358D01*
X22069676Y-12886358D02*
X22088724Y-12895882D01*
X22088724Y-12895882D02*
X22098248Y-12914929D01*
X22098248Y-12914929D02*
X22098248Y-12933977D01*
X22098248Y-12933977D02*
X22003009Y-12953024D01*
X22269676Y-13019691D02*
X22269676Y-12819691D01*
X22269676Y-13010167D02*
X22250629Y-13019691D01*
X22250629Y-13019691D02*
X22212533Y-13019691D01*
X22212533Y-13019691D02*
X22193486Y-13010167D01*
X22193486Y-13010167D02*
X22183962Y-13000643D01*
X22183962Y-13000643D02*
X22174438Y-12981596D01*
X22174438Y-12981596D02*
X22174438Y-12924453D01*
X22174438Y-12924453D02*
X22183962Y-12905405D01*
X22183962Y-12905405D02*
X22193486Y-12895882D01*
X22193486Y-12895882D02*
X22212533Y-12886358D01*
X22212533Y-12886358D02*
X22250629Y-12886358D01*
X22250629Y-12886358D02*
X22269676Y-12895882D01*
X22345867Y-13095882D02*
X22355390Y-13086358D01*
X22355390Y-13086358D02*
X22374438Y-13057786D01*
X22374438Y-13057786D02*
X22383962Y-13038739D01*
X22383962Y-13038739D02*
X22393486Y-13010167D01*
X22393486Y-13010167D02*
X22403009Y-12962548D01*
X22403009Y-12962548D02*
X22403009Y-12924453D01*
X22403009Y-12924453D02*
X22393486Y-12876834D01*
X22393486Y-12876834D02*
X22383962Y-12848263D01*
X22383962Y-12848263D02*
X22374438Y-12829215D01*
X22374438Y-12829215D02*
X22355390Y-12800643D01*
X22355390Y-12800643D02*
X22345867Y-12791120D01*
X15560562Y-13262919D02*
X15560562Y-13121496D01*
X15419140Y-13121496D01*
X15419140Y-13262919D01*
X15560562Y-13262919D01*
X15831580Y-13083691D02*
X15955390Y-13083691D01*
X15955390Y-13083691D02*
X15888723Y-13159882D01*
X15888723Y-13159882D02*
X15917295Y-13159882D01*
X15917295Y-13159882D02*
X15936342Y-13169405D01*
X15936342Y-13169405D02*
X15945866Y-13178929D01*
X15945866Y-13178929D02*
X15955390Y-13197977D01*
X15955390Y-13197977D02*
X15955390Y-13245596D01*
X15955390Y-13245596D02*
X15945866Y-13264643D01*
X15945866Y-13264643D02*
X15936342Y-13274167D01*
X15936342Y-13274167D02*
X15917295Y-13283691D01*
X15917295Y-13283691D02*
X15860152Y-13283691D01*
X15860152Y-13283691D02*
X15841104Y-13274167D01*
X15841104Y-13274167D02*
X15831580Y-13264643D01*
X16041104Y-13264643D02*
X16050628Y-13274167D01*
X16050628Y-13274167D02*
X16041104Y-13283691D01*
X16041104Y-13283691D02*
X16031580Y-13274167D01*
X16031580Y-13274167D02*
X16041104Y-13264643D01*
X16041104Y-13264643D02*
X16041104Y-13283691D01*
X16126818Y-13102739D02*
X16136342Y-13093215D01*
X16136342Y-13093215D02*
X16155390Y-13083691D01*
X16155390Y-13083691D02*
X16203009Y-13083691D01*
X16203009Y-13083691D02*
X16222056Y-13093215D01*
X16222056Y-13093215D02*
X16231580Y-13102739D01*
X16231580Y-13102739D02*
X16241104Y-13121786D01*
X16241104Y-13121786D02*
X16241104Y-13140834D01*
X16241104Y-13140834D02*
X16231580Y-13169405D01*
X16231580Y-13169405D02*
X16117295Y-13283691D01*
X16117295Y-13283691D02*
X16241104Y-13283691D01*
X16364914Y-13083691D02*
X16383961Y-13083691D01*
X16383961Y-13083691D02*
X16403009Y-13093215D01*
X16403009Y-13093215D02*
X16412533Y-13102739D01*
X16412533Y-13102739D02*
X16422056Y-13121786D01*
X16422056Y-13121786D02*
X16431580Y-13159882D01*
X16431580Y-13159882D02*
X16431580Y-13207501D01*
X16431580Y-13207501D02*
X16422056Y-13245596D01*
X16422056Y-13245596D02*
X16412533Y-13264643D01*
X16412533Y-13264643D02*
X16403009Y-13274167D01*
X16403009Y-13274167D02*
X16383961Y-13283691D01*
X16383961Y-13283691D02*
X16364914Y-13283691D01*
X16364914Y-13283691D02*
X16345866Y-13274167D01*
X16345866Y-13274167D02*
X16336342Y-13264643D01*
X16336342Y-13264643D02*
X16326818Y-13245596D01*
X16326818Y-13245596D02*
X16317295Y-13207501D01*
X16317295Y-13207501D02*
X16317295Y-13159882D01*
X16317295Y-13159882D02*
X16326818Y-13121786D01*
X16326818Y-13121786D02*
X16336342Y-13102739D01*
X16336342Y-13102739D02*
X16345866Y-13093215D01*
X16345866Y-13093215D02*
X16364914Y-13083691D01*
X16555390Y-13083691D02*
X16574437Y-13083691D01*
X16574437Y-13083691D02*
X16593485Y-13093215D01*
X16593485Y-13093215D02*
X16603009Y-13102739D01*
X16603009Y-13102739D02*
X16612533Y-13121786D01*
X16612533Y-13121786D02*
X16622056Y-13159882D01*
X16622056Y-13159882D02*
X16622056Y-13207501D01*
X16622056Y-13207501D02*
X16612533Y-13245596D01*
X16612533Y-13245596D02*
X16603009Y-13264643D01*
X16603009Y-13264643D02*
X16593485Y-13274167D01*
X16593485Y-13274167D02*
X16574437Y-13283691D01*
X16574437Y-13283691D02*
X16555390Y-13283691D01*
X16555390Y-13283691D02*
X16536342Y-13274167D01*
X16536342Y-13274167D02*
X16526818Y-13264643D01*
X16526818Y-13264643D02*
X16517295Y-13245596D01*
X16517295Y-13245596D02*
X16507771Y-13207501D01*
X16507771Y-13207501D02*
X16507771Y-13159882D01*
X16507771Y-13159882D02*
X16517295Y-13121786D01*
X16517295Y-13121786D02*
X16526818Y-13102739D01*
X16526818Y-13102739D02*
X16536342Y-13093215D01*
X16536342Y-13093215D02*
X16555390Y-13083691D01*
X16707771Y-13283691D02*
X16707771Y-13150358D01*
X16707771Y-13169405D02*
X16717295Y-13159882D01*
X16717295Y-13159882D02*
X16736342Y-13150358D01*
X16736342Y-13150358D02*
X16764914Y-13150358D01*
X16764914Y-13150358D02*
X16783961Y-13159882D01*
X16783961Y-13159882D02*
X16793485Y-13178929D01*
X16793485Y-13178929D02*
X16793485Y-13283691D01*
X16793485Y-13178929D02*
X16803009Y-13159882D01*
X16803009Y-13159882D02*
X16822057Y-13150358D01*
X16822057Y-13150358D02*
X16850628Y-13150358D01*
X16850628Y-13150358D02*
X16869676Y-13159882D01*
X16869676Y-13159882D02*
X16879199Y-13178929D01*
X16879199Y-13178929D02*
X16879199Y-13283691D01*
X16974438Y-13283691D02*
X16974438Y-13150358D01*
X16974438Y-13169405D02*
X16983961Y-13159882D01*
X16983961Y-13159882D02*
X17003009Y-13150358D01*
X17003009Y-13150358D02*
X17031580Y-13150358D01*
X17031580Y-13150358D02*
X17050628Y-13159882D01*
X17050628Y-13159882D02*
X17060152Y-13178929D01*
X17060152Y-13178929D02*
X17060152Y-13283691D01*
X17060152Y-13178929D02*
X17069676Y-13159882D01*
X17069676Y-13159882D02*
X17088723Y-13150358D01*
X17088723Y-13150358D02*
X17117295Y-13150358D01*
X17117295Y-13150358D02*
X17136342Y-13159882D01*
X17136342Y-13159882D02*
X17145866Y-13178929D01*
X17145866Y-13178929D02*
X17145866Y-13283691D01*
X17536342Y-13074167D02*
X17364914Y-13331310D01*
X17793485Y-13083691D02*
X17812533Y-13083691D01*
X17812533Y-13083691D02*
X17831581Y-13093215D01*
X17831581Y-13093215D02*
X17841104Y-13102739D01*
X17841104Y-13102739D02*
X17850628Y-13121786D01*
X17850628Y-13121786D02*
X17860152Y-13159882D01*
X17860152Y-13159882D02*
X17860152Y-13207501D01*
X17860152Y-13207501D02*
X17850628Y-13245596D01*
X17850628Y-13245596D02*
X17841104Y-13264643D01*
X17841104Y-13264643D02*
X17831581Y-13274167D01*
X17831581Y-13274167D02*
X17812533Y-13283691D01*
X17812533Y-13283691D02*
X17793485Y-13283691D01*
X17793485Y-13283691D02*
X17774438Y-13274167D01*
X17774438Y-13274167D02*
X17764914Y-13264643D01*
X17764914Y-13264643D02*
X17755390Y-13245596D01*
X17755390Y-13245596D02*
X17745866Y-13207501D01*
X17745866Y-13207501D02*
X17745866Y-13159882D01*
X17745866Y-13159882D02*
X17755390Y-13121786D01*
X17755390Y-13121786D02*
X17764914Y-13102739D01*
X17764914Y-13102739D02*
X17774438Y-13093215D01*
X17774438Y-13093215D02*
X17793485Y-13083691D01*
X17945866Y-13264643D02*
X17955390Y-13274167D01*
X17955390Y-13274167D02*
X17945866Y-13283691D01*
X17945866Y-13283691D02*
X17936342Y-13274167D01*
X17936342Y-13274167D02*
X17945866Y-13264643D01*
X17945866Y-13264643D02*
X17945866Y-13283691D01*
X18145866Y-13283691D02*
X18031581Y-13283691D01*
X18088723Y-13283691D02*
X18088723Y-13083691D01*
X18088723Y-13083691D02*
X18069676Y-13112263D01*
X18069676Y-13112263D02*
X18050628Y-13131310D01*
X18050628Y-13131310D02*
X18031581Y-13140834D01*
X18222057Y-13102739D02*
X18231581Y-13093215D01*
X18231581Y-13093215D02*
X18250628Y-13083691D01*
X18250628Y-13083691D02*
X18298247Y-13083691D01*
X18298247Y-13083691D02*
X18317295Y-13093215D01*
X18317295Y-13093215D02*
X18326819Y-13102739D01*
X18326819Y-13102739D02*
X18336342Y-13121786D01*
X18336342Y-13121786D02*
X18336342Y-13140834D01*
X18336342Y-13140834D02*
X18326819Y-13169405D01*
X18326819Y-13169405D02*
X18212533Y-13283691D01*
X18212533Y-13283691D02*
X18336342Y-13283691D01*
X18507771Y-13083691D02*
X18469676Y-13083691D01*
X18469676Y-13083691D02*
X18450628Y-13093215D01*
X18450628Y-13093215D02*
X18441104Y-13102739D01*
X18441104Y-13102739D02*
X18422057Y-13131310D01*
X18422057Y-13131310D02*
X18412533Y-13169405D01*
X18412533Y-13169405D02*
X18412533Y-13245596D01*
X18412533Y-13245596D02*
X18422057Y-13264643D01*
X18422057Y-13264643D02*
X18431581Y-13274167D01*
X18431581Y-13274167D02*
X18450628Y-13283691D01*
X18450628Y-13283691D02*
X18488723Y-13283691D01*
X18488723Y-13283691D02*
X18507771Y-13274167D01*
X18507771Y-13274167D02*
X18517295Y-13264643D01*
X18517295Y-13264643D02*
X18526819Y-13245596D01*
X18526819Y-13245596D02*
X18526819Y-13197977D01*
X18526819Y-13197977D02*
X18517295Y-13178929D01*
X18517295Y-13178929D02*
X18507771Y-13169405D01*
X18507771Y-13169405D02*
X18488723Y-13159882D01*
X18488723Y-13159882D02*
X18450628Y-13159882D01*
X18450628Y-13159882D02*
X18431581Y-13169405D01*
X18431581Y-13169405D02*
X18422057Y-13178929D01*
X18422057Y-13178929D02*
X18412533Y-13197977D01*
X18650628Y-13083691D02*
X18669676Y-13083691D01*
X18669676Y-13083691D02*
X18688723Y-13093215D01*
X18688723Y-13093215D02*
X18698247Y-13102739D01*
X18698247Y-13102739D02*
X18707771Y-13121786D01*
X18707771Y-13121786D02*
X18717295Y-13159882D01*
X18717295Y-13159882D02*
X18717295Y-13207501D01*
X18717295Y-13207501D02*
X18707771Y-13245596D01*
X18707771Y-13245596D02*
X18698247Y-13264643D01*
X18698247Y-13264643D02*
X18688723Y-13274167D01*
X18688723Y-13274167D02*
X18669676Y-13283691D01*
X18669676Y-13283691D02*
X18650628Y-13283691D01*
X18650628Y-13283691D02*
X18631581Y-13274167D01*
X18631581Y-13274167D02*
X18622057Y-13264643D01*
X18622057Y-13264643D02*
X18612533Y-13245596D01*
X18612533Y-13245596D02*
X18603009Y-13207501D01*
X18603009Y-13207501D02*
X18603009Y-13159882D01*
X18603009Y-13159882D02*
X18612533Y-13121786D01*
X18612533Y-13121786D02*
X18622057Y-13102739D01*
X18622057Y-13102739D02*
X18631581Y-13093215D01*
X18631581Y-13093215D02*
X18650628Y-13083691D01*
X18793485Y-13083691D02*
X18793485Y-13121786D01*
X18869676Y-13083691D02*
X18869676Y-13121786D01*
X19164914Y-13359882D02*
X19155390Y-13350358D01*
X19155390Y-13350358D02*
X19136343Y-13321786D01*
X19136343Y-13321786D02*
X19126819Y-13302739D01*
X19126819Y-13302739D02*
X19117295Y-13274167D01*
X19117295Y-13274167D02*
X19107771Y-13226548D01*
X19107771Y-13226548D02*
X19107771Y-13188453D01*
X19107771Y-13188453D02*
X19117295Y-13140834D01*
X19117295Y-13140834D02*
X19126819Y-13112263D01*
X19126819Y-13112263D02*
X19136343Y-13093215D01*
X19136343Y-13093215D02*
X19155390Y-13064643D01*
X19155390Y-13064643D02*
X19164914Y-13055120D01*
X19326819Y-13150358D02*
X19326819Y-13283691D01*
X19279200Y-13074167D02*
X19231581Y-13217024D01*
X19231581Y-13217024D02*
X19355390Y-13217024D01*
X19583962Y-13283691D02*
X19583962Y-13083691D01*
X19669676Y-13283691D02*
X19669676Y-13178929D01*
X19669676Y-13178929D02*
X19660152Y-13159882D01*
X19660152Y-13159882D02*
X19641105Y-13150358D01*
X19641105Y-13150358D02*
X19612533Y-13150358D01*
X19612533Y-13150358D02*
X19593485Y-13159882D01*
X19593485Y-13159882D02*
X19583962Y-13169405D01*
X19793485Y-13283691D02*
X19774438Y-13274167D01*
X19774438Y-13274167D02*
X19764914Y-13264643D01*
X19764914Y-13264643D02*
X19755390Y-13245596D01*
X19755390Y-13245596D02*
X19755390Y-13188453D01*
X19755390Y-13188453D02*
X19764914Y-13169405D01*
X19764914Y-13169405D02*
X19774438Y-13159882D01*
X19774438Y-13159882D02*
X19793485Y-13150358D01*
X19793485Y-13150358D02*
X19822057Y-13150358D01*
X19822057Y-13150358D02*
X19841105Y-13159882D01*
X19841105Y-13159882D02*
X19850628Y-13169405D01*
X19850628Y-13169405D02*
X19860152Y-13188453D01*
X19860152Y-13188453D02*
X19860152Y-13245596D01*
X19860152Y-13245596D02*
X19850628Y-13264643D01*
X19850628Y-13264643D02*
X19841105Y-13274167D01*
X19841105Y-13274167D02*
X19822057Y-13283691D01*
X19822057Y-13283691D02*
X19793485Y-13283691D01*
X19974438Y-13283691D02*
X19955390Y-13274167D01*
X19955390Y-13274167D02*
X19945866Y-13255120D01*
X19945866Y-13255120D02*
X19945866Y-13083691D01*
X20126819Y-13274167D02*
X20107771Y-13283691D01*
X20107771Y-13283691D02*
X20069676Y-13283691D01*
X20069676Y-13283691D02*
X20050628Y-13274167D01*
X20050628Y-13274167D02*
X20041105Y-13255120D01*
X20041105Y-13255120D02*
X20041105Y-13178929D01*
X20041105Y-13178929D02*
X20050628Y-13159882D01*
X20050628Y-13159882D02*
X20069676Y-13150358D01*
X20069676Y-13150358D02*
X20107771Y-13150358D01*
X20107771Y-13150358D02*
X20126819Y-13159882D01*
X20126819Y-13159882D02*
X20136343Y-13178929D01*
X20136343Y-13178929D02*
X20136343Y-13197977D01*
X20136343Y-13197977D02*
X20041105Y-13217024D01*
X20212533Y-13274167D02*
X20231581Y-13283691D01*
X20231581Y-13283691D02*
X20269676Y-13283691D01*
X20269676Y-13283691D02*
X20288724Y-13274167D01*
X20288724Y-13274167D02*
X20298247Y-13255120D01*
X20298247Y-13255120D02*
X20298247Y-13245596D01*
X20298247Y-13245596D02*
X20288724Y-13226548D01*
X20288724Y-13226548D02*
X20269676Y-13217024D01*
X20269676Y-13217024D02*
X20241105Y-13217024D01*
X20241105Y-13217024D02*
X20222057Y-13207501D01*
X20222057Y-13207501D02*
X20212533Y-13188453D01*
X20212533Y-13188453D02*
X20212533Y-13178929D01*
X20212533Y-13178929D02*
X20222057Y-13159882D01*
X20222057Y-13159882D02*
X20241105Y-13150358D01*
X20241105Y-13150358D02*
X20269676Y-13150358D01*
X20269676Y-13150358D02*
X20288724Y-13159882D01*
X20364914Y-13359882D02*
X20374438Y-13350358D01*
X20374438Y-13350358D02*
X20393486Y-13321786D01*
X20393486Y-13321786D02*
X20403009Y-13302739D01*
X20403009Y-13302739D02*
X20412533Y-13274167D01*
X20412533Y-13274167D02*
X20422057Y-13226548D01*
X20422057Y-13226548D02*
X20422057Y-13188453D01*
X20422057Y-13188453D02*
X20412533Y-13140834D01*
X20412533Y-13140834D02*
X20403009Y-13112263D01*
X20403009Y-13112263D02*
X20393486Y-13093215D01*
X20393486Y-13093215D02*
X20374438Y-13064643D01*
X20374438Y-13064643D02*
X20364914Y-13055120D01*
X20726819Y-13359882D02*
X20717295Y-13350358D01*
X20717295Y-13350358D02*
X20698247Y-13321786D01*
X20698247Y-13321786D02*
X20688724Y-13302739D01*
X20688724Y-13302739D02*
X20679200Y-13274167D01*
X20679200Y-13274167D02*
X20669676Y-13226548D01*
X20669676Y-13226548D02*
X20669676Y-13188453D01*
X20669676Y-13188453D02*
X20679200Y-13140834D01*
X20679200Y-13140834D02*
X20688724Y-13112263D01*
X20688724Y-13112263D02*
X20698247Y-13093215D01*
X20698247Y-13093215D02*
X20717295Y-13064643D01*
X20717295Y-13064643D02*
X20726819Y-13055120D01*
X20803009Y-13150358D02*
X20803009Y-13283691D01*
X20803009Y-13169405D02*
X20812533Y-13159882D01*
X20812533Y-13159882D02*
X20831581Y-13150358D01*
X20831581Y-13150358D02*
X20860152Y-13150358D01*
X20860152Y-13150358D02*
X20879200Y-13159882D01*
X20879200Y-13159882D02*
X20888724Y-13178929D01*
X20888724Y-13178929D02*
X20888724Y-13283691D01*
X21012533Y-13283691D02*
X20993486Y-13274167D01*
X20993486Y-13274167D02*
X20983962Y-13264643D01*
X20983962Y-13264643D02*
X20974438Y-13245596D01*
X20974438Y-13245596D02*
X20974438Y-13188453D01*
X20974438Y-13188453D02*
X20983962Y-13169405D01*
X20983962Y-13169405D02*
X20993486Y-13159882D01*
X20993486Y-13159882D02*
X21012533Y-13150358D01*
X21012533Y-13150358D02*
X21041105Y-13150358D01*
X21041105Y-13150358D02*
X21060152Y-13159882D01*
X21060152Y-13159882D02*
X21069676Y-13169405D01*
X21069676Y-13169405D02*
X21079200Y-13188453D01*
X21079200Y-13188453D02*
X21079200Y-13245596D01*
X21079200Y-13245596D02*
X21069676Y-13264643D01*
X21069676Y-13264643D02*
X21060152Y-13274167D01*
X21060152Y-13274167D02*
X21041105Y-13283691D01*
X21041105Y-13283691D02*
X21012533Y-13283691D01*
X21136343Y-13150358D02*
X21212533Y-13150358D01*
X21164914Y-13083691D02*
X21164914Y-13255120D01*
X21164914Y-13255120D02*
X21174438Y-13274167D01*
X21174438Y-13274167D02*
X21193486Y-13283691D01*
X21193486Y-13283691D02*
X21212533Y-13283691D01*
X21431581Y-13150358D02*
X21431581Y-13350358D01*
X21431581Y-13159882D02*
X21450628Y-13150358D01*
X21450628Y-13150358D02*
X21488724Y-13150358D01*
X21488724Y-13150358D02*
X21507771Y-13159882D01*
X21507771Y-13159882D02*
X21517295Y-13169405D01*
X21517295Y-13169405D02*
X21526819Y-13188453D01*
X21526819Y-13188453D02*
X21526819Y-13245596D01*
X21526819Y-13245596D02*
X21517295Y-13264643D01*
X21517295Y-13264643D02*
X21507771Y-13274167D01*
X21507771Y-13274167D02*
X21488724Y-13283691D01*
X21488724Y-13283691D02*
X21450628Y-13283691D01*
X21450628Y-13283691D02*
X21431581Y-13274167D01*
X21641105Y-13283691D02*
X21622057Y-13274167D01*
X21622057Y-13274167D02*
X21612533Y-13255120D01*
X21612533Y-13255120D02*
X21612533Y-13083691D01*
X21803009Y-13283691D02*
X21803009Y-13178929D01*
X21803009Y-13178929D02*
X21793486Y-13159882D01*
X21793486Y-13159882D02*
X21774438Y-13150358D01*
X21774438Y-13150358D02*
X21736343Y-13150358D01*
X21736343Y-13150358D02*
X21717295Y-13159882D01*
X21803009Y-13274167D02*
X21783962Y-13283691D01*
X21783962Y-13283691D02*
X21736343Y-13283691D01*
X21736343Y-13283691D02*
X21717295Y-13274167D01*
X21717295Y-13274167D02*
X21707771Y-13255120D01*
X21707771Y-13255120D02*
X21707771Y-13236072D01*
X21707771Y-13236072D02*
X21717295Y-13217024D01*
X21717295Y-13217024D02*
X21736343Y-13207501D01*
X21736343Y-13207501D02*
X21783962Y-13207501D01*
X21783962Y-13207501D02*
X21803009Y-13197977D01*
X21869676Y-13150358D02*
X21945867Y-13150358D01*
X21898248Y-13083691D02*
X21898248Y-13255120D01*
X21898248Y-13255120D02*
X21907771Y-13274167D01*
X21907771Y-13274167D02*
X21926819Y-13283691D01*
X21926819Y-13283691D02*
X21945867Y-13283691D01*
X22088724Y-13274167D02*
X22069676Y-13283691D01*
X22069676Y-13283691D02*
X22031581Y-13283691D01*
X22031581Y-13283691D02*
X22012533Y-13274167D01*
X22012533Y-13274167D02*
X22003009Y-13255120D01*
X22003009Y-13255120D02*
X22003009Y-13178929D01*
X22003009Y-13178929D02*
X22012533Y-13159882D01*
X22012533Y-13159882D02*
X22031581Y-13150358D01*
X22031581Y-13150358D02*
X22069676Y-13150358D01*
X22069676Y-13150358D02*
X22088724Y-13159882D01*
X22088724Y-13159882D02*
X22098248Y-13178929D01*
X22098248Y-13178929D02*
X22098248Y-13197977D01*
X22098248Y-13197977D02*
X22003009Y-13217024D01*
X22269676Y-13283691D02*
X22269676Y-13083691D01*
X22269676Y-13274167D02*
X22250629Y-13283691D01*
X22250629Y-13283691D02*
X22212533Y-13283691D01*
X22212533Y-13283691D02*
X22193486Y-13274167D01*
X22193486Y-13274167D02*
X22183962Y-13264643D01*
X22183962Y-13264643D02*
X22174438Y-13245596D01*
X22174438Y-13245596D02*
X22174438Y-13188453D01*
X22174438Y-13188453D02*
X22183962Y-13169405D01*
X22183962Y-13169405D02*
X22193486Y-13159882D01*
X22193486Y-13159882D02*
X22212533Y-13150358D01*
X22212533Y-13150358D02*
X22250629Y-13150358D01*
X22250629Y-13150358D02*
X22269676Y-13159882D01*
X22345867Y-13359882D02*
X22355390Y-13350358D01*
X22355390Y-13350358D02*
X22374438Y-13321786D01*
X22374438Y-13321786D02*
X22383962Y-13302739D01*
X22383962Y-13302739D02*
X22393486Y-13274167D01*
X22393486Y-13274167D02*
X22403009Y-13226548D01*
X22403009Y-13226548D02*
X22403009Y-13188453D01*
X22403009Y-13188453D02*
X22393486Y-13140834D01*
X22393486Y-13140834D02*
X22383962Y-13112263D01*
X22383962Y-13112263D02*
X22374438Y-13093215D01*
X22374438Y-13093215D02*
X22355390Y-13064643D01*
X22355390Y-13064643D02*
X22345867Y-13055120D01*
M02*
