M48
; DRILL file {KiCad 8.0.7} date 2026-07-08T19:47:48-0700
; FORMAT={-:-/ absolute / metric / decimal}
; #@! TF.CreationDate,2026-07-08T19:47:48-07:00
; #@! TF.GenerationSoftware,Kicad,Pcbnew,8.0.7
; #@! TF.FileFunction,Plated,1,4,PTH
FMAT,2
METRIC
; #@! TA.AperFunction,Plated,PTH,ViaDrill
T1C0.300
; #@! TA.AperFunction,Plated,PTH,ViaDrill
T2C0.305
; #@! TA.AperFunction,Plated,PTH,ViaDrill
T3C0.508
; #@! TA.AperFunction,Plated,PTH,ComponentDrill
T4C1.000
; #@! TA.AperFunction,Plated,PTH,ComponentDrill
T5C2.000
%
G90
G05
T1
X157.376Y-84.8
X158.762Y-76.763
X159.2Y-74.7
X161.4Y-88.0
X161.7Y-76.961
X162.488Y-77.588
X162.776Y-88.6
X163.3Y-80.4
X164.1Y-81.2
X164.2Y-75.1
X164.3Y-101.3
X164.676Y-92.0
X164.807Y-85.63
X165.076Y-99.5
X165.376Y-102.8
X166.0Y-74.2
X166.183Y-96.255
X166.401Y-85.799
X166.6Y-87.871
X167.3Y-91.1
X167.9Y-76.8
X168.1Y-95.7
X169.0Y-91.0
X169.676Y-103.8
X169.876Y-107.0
X170.276Y-84.473
X170.4Y-77.1
X171.5Y-80.0
X172.476Y-91.2
X175.776Y-90.5
X178.976Y-101.7
X179.776Y-107.0
X179.976Y-103.8
X181.3Y-74.4
X181.676Y-91.9
X181.776Y-86.5
X182.3Y-83.8
X182.776Y-90.4
X183.176Y-81.7
X183.35Y-74.218
X183.376Y-83.4
X183.676Y-102.1
X183.976Y-91.6
X184.376Y-82.3
X185.099Y-80.191
X185.565Y-79.452
X185.676Y-95.5
X186.092Y-81.816
X186.3Y-112.1
X186.446Y-79.766
X186.7Y-82.6
X187.076Y-99.4
X187.276Y-114.0
X187.576Y-95.4
X188.276Y-76.8
X188.5Y-78.0
X189.3Y-87.3
X189.356Y-88.256
X190.376Y-82.9
X190.6Y-96.5
X190.676Y-78.9
X191.357Y-82.357
X191.676Y-86.1
X191.776Y-114.6
X191.976Y-92.2
X192.0Y-105.7
X192.7Y-75.2
X192.7Y-90.5
X193.1Y-87.1
X193.4Y-78.2
X193.476Y-84.5
X194.076Y-90.0
X194.3Y-87.8
X195.1Y-84.9
X195.113Y-78.902
X195.8Y-88.5
X196.2Y-75.8
X196.376Y-114.1
X196.4Y-87.873
X196.8Y-94.4
X196.9Y-77.5
X197.3Y-112.3
X197.415Y-86.587
X198.0Y-82.2
X198.2Y-77.5
X199.4Y-77.5
X199.476Y-91.7
X199.876Y-100.1
X200.041Y-74.241
X200.2Y-78.6
X200.2Y-86.9
X200.697Y-90.332
X201.1Y-87.2
X201.476Y-92.9
X201.876Y-97.9
X202.176Y-114.3
X205.776Y-106.4
X209.85Y-80.15
X209.976Y-91.4
X211.276Y-77.7
X213.6Y-79.8
X213.99Y-75.924
X214.4Y-82.1
X215.0Y-74.6
X215.176Y-97.6
X216.076Y-63.9
X216.1Y-88.5
X216.2Y-76.9
X216.576Y-61.2
X216.712Y-85.08
X217.0Y-90.3
X217.4Y-65.6
X217.5Y-74.1
X218.0Y-90.0
X218.5Y-95.5
X218.8Y-77.6
X218.876Y-91.3
X219.376Y-65.6
X219.7Y-81.2
X219.876Y-62.2
X219.9Y-85.1
X220.1Y-78.8
X220.1Y-86.6
X220.376Y-98.9
X220.8Y-90.7
X220.8Y-95.1
X220.989Y-78.811
X221.1Y-75.5
X221.276Y-64.4
X222.6Y-85.3
X222.7Y-70.9
X223.1Y-66.9
X223.3Y-69.7
X223.327Y-82.9
X223.6Y-88.7
X223.7Y-73.5
X223.9Y-86.0
X225.0Y-82.8
X225.6Y-81.4
T2
X157.7Y-80.4
X159.6Y-82.7
X160.3Y-95.2
X160.536Y-79.969
X162.0Y-91.275
X163.1Y-94.4
X171.4Y-102.1
X172.2Y-103.2
X172.8Y-105.2
X175.0Y-95.7
T3
X217.9Y-68.1
X219.538Y-68.762
T4
X170.435Y-74.5
X172.975Y-74.5
X183.4Y-108.0
X183.4Y-112.5
X188.526Y-101.4
X188.526Y-105.9
X189.9Y-108.0
X189.9Y-112.5
X193.652Y-108.0
X193.652Y-112.5
X195.026Y-101.4
X195.026Y-105.9
X200.152Y-108.0
X200.152Y-112.5
T5
X168.6Y-87.9
X168.8Y-101.4
X210.376Y-102.7
X214.1Y-86.2
M30
