%TF.GenerationSoftware,KiCad,Pcbnew,8.0.7*%
%TF.CreationDate,2026-07-08T19:47:45-07:00*%
%TF.ProjectId,ChemistryDetector,4368656d-6973-4747-9279-446574656374,rev?*%
%TF.SameCoordinates,Original*%
%TF.FileFunction,Copper,L2,Inr*%
%TF.FilePolarity,Positive*%
%FSLAX46Y46*%
G04 Gerber Fmt 4.6, Leading zero omitted, Abs format (unit mm)*
G04 Created by KiCad (PCBNEW 8.0.7) date 2026-07-08 19:47:45*
%MOMM*%
%LPD*%
G01*
G04 APERTURE LIST*
%TA.AperFunction,ComponentPad*%
%ADD10R,1.700000X1.700000*%
%TD*%
%TA.AperFunction,ComponentPad*%
%ADD11O,1.700000X1.700000*%
%TD*%
%TA.AperFunction,ComponentPad*%
%ADD12C,3.000000*%
%TD*%
%TA.AperFunction,ComponentPad*%
%ADD13R,1.508000X1.508000*%
%TD*%
%TA.AperFunction,ComponentPad*%
%ADD14C,1.508000*%
%TD*%
%TA.AperFunction,ViaPad*%
%ADD15C,0.600000*%
%TD*%
%TA.AperFunction,ViaPad*%
%ADD16C,0.558800*%
%TD*%
%TA.AperFunction,ViaPad*%
%ADD17C,0.812800*%
%TD*%
%TA.AperFunction,ViaPad*%
%ADD18C,0.500000*%
%TD*%
G04 APERTURE END LIST*
D10*
%TO.N,Net-(J3-Pin_1)*%
%TO.C,J3*%
X172975000Y-74500000D03*
D11*
%TO.N,GND*%
X170435000Y-74500000D03*
%TD*%
D12*
%TO.N,GND*%
%TO.C,J6*%
X214100000Y-86200000D03*
%TD*%
%TO.N,Net-(J8-Pin_1)*%
%TO.C,J8*%
X168800000Y-101400000D03*
%TD*%
%TO.N,Net-(J7-Pin_1)*%
%TO.C,J7*%
X210376010Y-102699683D03*
%TD*%
%TO.N,GND*%
%TO.C,J9*%
X168600000Y-87900000D03*
%TD*%
D13*
%TO.N,L_BUTTON*%
%TO.C,S3*%
X200152020Y-108000000D03*
D14*
%TO.N,unconnected-(S3-Pad2)*%
X193652020Y-108000000D03*
%TO.N,GND*%
X200152020Y-112500000D03*
%TO.N,unconnected-(S3-Pad4)*%
X193652020Y-112500000D03*
%TD*%
D13*
%TO.N,C_BUTTON*%
%TO.C,S2*%
X195026010Y-101400000D03*
D14*
%TO.N,unconnected-(S2-Pad2)*%
X188526010Y-101400000D03*
%TO.N,GND*%
X195026010Y-105900000D03*
%TO.N,unconnected-(S2-Pad4)*%
X188526010Y-105900000D03*
%TD*%
D13*
%TO.N,unconnected-(S1-Pad1)*%
%TO.C,S1*%
X189900000Y-108000000D03*
D14*
%TO.N,R_BUTTON*%
X183400000Y-108000000D03*
%TO.N,unconnected-(S1-Pad3)*%
X189900000Y-112500000D03*
%TO.N,GND*%
X183400000Y-112500000D03*
%TD*%
D15*
%TO.N,GND*%
X216576010Y-61199683D03*
X219376010Y-65599683D03*
X221276010Y-64399683D03*
X219876010Y-62199683D03*
X216076010Y-63899683D03*
X165376010Y-102799683D03*
X169676010Y-103799683D03*
X169876010Y-106999683D03*
%TO.N,Net-(D1-K)*%
X219700000Y-81200000D03*
%TO.N,GND*%
X183176010Y-81699683D03*
X172476010Y-91199683D03*
D16*
X163100000Y-94400000D03*
D15*
X223600000Y-88700000D03*
X157376010Y-84799683D03*
X199476010Y-91699683D03*
X187576010Y-95399683D03*
X220100000Y-78800000D03*
X209976010Y-91399683D03*
X187076010Y-99399683D03*
X219900000Y-85100000D03*
X225600000Y-81400000D03*
X195112711Y-78901730D03*
X194076010Y-89999683D03*
X175776010Y-90499683D03*
X184376010Y-82299683D03*
X205776010Y-106399683D03*
X170276010Y-84473000D03*
D17*
X219538164Y-68761837D03*
D15*
X220376010Y-98899683D03*
D16*
X171400000Y-102100000D03*
D15*
X181776010Y-86499683D03*
X199876010Y-100099683D03*
D16*
X160536219Y-79969477D03*
D18*
X220100000Y-86600000D03*
D15*
X220800000Y-95100000D03*
X164806726Y-85629654D03*
X191976010Y-92199683D03*
X218876010Y-91299683D03*
X192700000Y-75200000D03*
X158762500Y-76762500D03*
X178976010Y-101699683D03*
D16*
X172800000Y-105200000D03*
D15*
X187276010Y-113999683D03*
X201876010Y-97899683D03*
X164200000Y-75100000D03*
X164676010Y-91999683D03*
D16*
X175000000Y-95700000D03*
X162000000Y-91275000D03*
D18*
X216200000Y-76900000D03*
D15*
X168100000Y-95700000D03*
X211276010Y-77699683D03*
X179776010Y-106999683D03*
X223900000Y-86000000D03*
X221100000Y-75500000D03*
X183676010Y-102099683D03*
X193476010Y-84499683D03*
X165076010Y-99499683D03*
X179976010Y-103799683D03*
X162776010Y-88599683D03*
X182776010Y-90399683D03*
X191676010Y-86099683D03*
X215176010Y-97599683D03*
X196376010Y-114099683D03*
X196200000Y-75800000D03*
X191776010Y-114599683D03*
X181676010Y-91899683D03*
%TO.N,+3.3V*%
X183976010Y-91599683D03*
X220988683Y-78811317D03*
X225000000Y-82800000D03*
D16*
X157700000Y-80400000D03*
D15*
X197300000Y-112300000D03*
X159200000Y-74700000D03*
X183376010Y-83399683D03*
D17*
X217900000Y-68100000D03*
D15*
X192000000Y-105700000D03*
D18*
X213990192Y-75923902D03*
D15*
X186300000Y-112100000D03*
D16*
X160300000Y-95200000D03*
D15*
X190600000Y-96500000D03*
D18*
X218500000Y-95500000D03*
D15*
X200041359Y-74241359D03*
X166000000Y-74200000D03*
X201476010Y-92899683D03*
X164300000Y-101300000D03*
X185676010Y-95499683D03*
D18*
X213600000Y-79800000D03*
D15*
X188276010Y-76799683D03*
X200696880Y-90332329D03*
X170400000Y-77100000D03*
X193400000Y-78200000D03*
X217000000Y-90300000D03*
X166401126Y-85798604D03*
D16*
X159600000Y-82700000D03*
D15*
X181300000Y-74400000D03*
X222700000Y-70900000D03*
X190676010Y-78899683D03*
X167300000Y-91100000D03*
%TO.N,SWCLK*%
X198200000Y-77500000D03*
X197415057Y-86586865D03*
%TO.N,SWO*%
X195100000Y-84900000D03*
X196900000Y-77500000D03*
%TO.N,SWDIO*%
X199400000Y-77500000D03*
X196400272Y-87873000D03*
%TO.N,Net-(D4-K)*%
X164100000Y-81200000D03*
%TO.N,PPG_CH2*%
X167900000Y-76800000D03*
X186700000Y-82600000D03*
%TO.N,LCD_SCK*%
X189300000Y-87300000D03*
X188500000Y-78000000D03*
%TO.N,LCD_CS*%
X185564993Y-79451707D03*
%TO.N,LCD_MOSI*%
X189355919Y-88255919D03*
%TO.N,LCD_RESET*%
X186091817Y-81816179D03*
%TO.N,LCD_BLK*%
X183350000Y-74217500D03*
X185098725Y-80191051D03*
%TO.N,LCD_DC*%
X186445997Y-79766149D03*
%TO.N,+BATT*%
X223100000Y-66900000D03*
X223300000Y-69700000D03*
X202176010Y-114299683D03*
D16*
X172200000Y-103200000D03*
D15*
%TO.N,Net-(D2-K)*%
X161400000Y-88000000D03*
%TO.N,Net-(U5B-+)*%
X215000000Y-74600000D03*
X218800000Y-77600000D03*
%TO.N,LED_CLK*%
X216100000Y-88500000D03*
X209850000Y-80150000D03*
%TO.N,Net-(D3-K)*%
X222600000Y-85300000D03*
%TO.N,Net-(R28-Pad2)*%
X214400000Y-82100000D03*
%TO.N,TEMP_CH1*%
X216712021Y-85079800D03*
X200200000Y-86900000D03*
X194300000Y-87800000D03*
%TO.N,Net-(R30-Pad2)*%
X171500000Y-80000000D03*
%TO.N,TEMP_CH2*%
X182300000Y-83800000D03*
X166600214Y-87870724D03*
%TO.N,GSR_CH1*%
X220800000Y-90700000D03*
X218000000Y-90000000D03*
X201100000Y-87200000D03*
X193100000Y-87100000D03*
%TO.N,PPG_CH1*%
X200200000Y-78600000D03*
X217500000Y-74100000D03*
X223700000Y-73500000D03*
X195800000Y-88500000D03*
%TO.N,GSR_CH2*%
X169000000Y-91000000D03*
X166183138Y-96254676D03*
%TO.N,Net-(U9B-+)*%
X163300000Y-80400000D03*
X162487893Y-77587893D03*
%TO.N,VBAT*%
X192700000Y-90500000D03*
X196800000Y-94400000D03*
%TO.N,Net-(D2-A)*%
X161700000Y-76960893D03*
%TO.N,Net-(D3-A)*%
X223327400Y-82900000D03*
%TO.N,TEMP_CTRL*%
X198000000Y-82200000D03*
X191356644Y-82356642D03*
%TO.N,Net-(J3-Pin_1)*%
X217400000Y-65600000D03*
%TO.N,XTAL*%
X190376010Y-82899683D03*
%TD*%
%TA.AperFunction,Conductor*%
%TO.N,GND*%
G36*
X215419861Y-55474179D02*
G01*
X215422670Y-55476691D01*
X215788236Y-55813703D01*
X216153797Y-56150711D01*
X216156798Y-56153571D01*
X216994286Y-56979108D01*
X216997189Y-56982067D01*
X217806587Y-57835109D01*
X217809390Y-57838163D01*
X218589853Y-58717817D01*
X218592552Y-58720964D01*
X219343157Y-59626192D01*
X219345749Y-59629427D01*
X220065660Y-60559218D01*
X220068132Y-60562522D01*
X220609095Y-61311647D01*
X220756607Y-61515920D01*
X220758967Y-61519306D01*
X220913441Y-61749028D01*
X221415162Y-62495147D01*
X221417411Y-62498615D01*
X222040661Y-63495907D01*
X222042772Y-63499416D01*
X222632292Y-64516904D01*
X222634310Y-64520525D01*
X223189497Y-65557165D01*
X223191393Y-65560852D01*
X223527212Y-66241634D01*
X223539216Y-66310465D01*
X223512102Y-66374859D01*
X223454478Y-66414371D01*
X223384639Y-66416457D01*
X223368554Y-66411051D01*
X223244757Y-66359773D01*
X223244752Y-66359771D01*
X223100001Y-66340715D01*
X223099999Y-66340715D01*
X222955247Y-66359771D01*
X222955245Y-66359772D01*
X222820361Y-66415643D01*
X222704526Y-66504526D01*
X222615643Y-66620361D01*
X222559772Y-66755245D01*
X222559771Y-66755247D01*
X222540715Y-66899998D01*
X222540715Y-66900001D01*
X222559771Y-67044752D01*
X222559773Y-67044757D01*
X222615642Y-67179638D01*
X222615645Y-67179644D01*
X222704525Y-67295473D01*
X222704526Y-67295474D01*
X222820355Y-67384354D01*
X222820361Y-67384357D01*
X222887801Y-67412291D01*
X222955246Y-67440228D01*
X223027623Y-67449756D01*
X223099999Y-67459285D01*
X223100000Y-67459285D01*
X223100001Y-67459285D01*
X223148251Y-67452932D01*
X223244754Y-67440228D01*
X223379643Y-67384355D01*
X223495474Y-67295474D01*
X223584355Y-67179643D01*
X223640228Y-67044754D01*
X223643372Y-67020868D01*
X223671637Y-66956973D01*
X223729961Y-66918501D01*
X223799826Y-66917668D01*
X223859050Y-66954739D01*
X223879289Y-66985945D01*
X224198075Y-67690638D01*
X224199720Y-67694443D01*
X224648314Y-68781450D01*
X224649831Y-68785308D01*
X225061851Y-69886734D01*
X225063238Y-69890640D01*
X225438199Y-71005182D01*
X225439453Y-71009128D01*
X225762864Y-72088567D01*
X225776962Y-72135622D01*
X225778085Y-72139613D01*
X226077736Y-73276707D01*
X226078726Y-73280733D01*
X226340212Y-74427259D01*
X226341066Y-74431315D01*
X226564080Y-75585923D01*
X226564798Y-75590006D01*
X226749092Y-76751422D01*
X226749673Y-76755526D01*
X226895041Y-77922440D01*
X226895485Y-77926562D01*
X227001770Y-79097723D01*
X227002075Y-79101857D01*
X227069151Y-80275878D01*
X227069318Y-80280020D01*
X227097113Y-81455622D01*
X227097142Y-81459767D01*
X227085626Y-82635670D01*
X227085516Y-82639814D01*
X227034702Y-83814647D01*
X227034454Y-83818785D01*
X226944394Y-84991301D01*
X226944007Y-84995429D01*
X226814810Y-86164236D01*
X226814286Y-86168348D01*
X226646090Y-87332200D01*
X226645429Y-87336292D01*
X226438421Y-88493890D01*
X226437623Y-88497958D01*
X226192036Y-89647988D01*
X226191102Y-89652027D01*
X225907226Y-90793147D01*
X225906159Y-90797153D01*
X225584270Y-91928247D01*
X225583068Y-91932214D01*
X225223577Y-93051832D01*
X225222244Y-93055757D01*
X224825527Y-94162743D01*
X224824064Y-94166622D01*
X224390543Y-95259786D01*
X224388950Y-95263613D01*
X223919161Y-96341608D01*
X223917442Y-96345380D01*
X223411861Y-97407112D01*
X223410016Y-97410825D01*
X222869240Y-98455040D01*
X222867273Y-98458688D01*
X222291882Y-99484269D01*
X222289793Y-99487850D01*
X221680456Y-100493601D01*
X221678249Y-100497110D01*
X221035636Y-101481927D01*
X221033313Y-101485361D01*
X220358126Y-102448170D01*
X220355690Y-102451523D01*
X219648701Y-103391220D01*
X219646153Y-103394491D01*
X218908153Y-104310025D01*
X218905498Y-104313208D01*
X218137312Y-105203557D01*
X218134552Y-105206650D01*
X217337026Y-106070833D01*
X217334164Y-106073832D01*
X216508215Y-106910855D01*
X216505255Y-106913757D01*
X215651757Y-107722734D01*
X215648701Y-107725535D01*
X214768651Y-108505523D01*
X214765503Y-108508220D01*
X213859897Y-109258332D01*
X213856661Y-109260923D01*
X212926458Y-109980370D01*
X212923137Y-109982851D01*
X211969412Y-110670798D01*
X211966009Y-110673167D01*
X210989824Y-111328847D01*
X210986345Y-111331100D01*
X209988793Y-111953781D01*
X209985240Y-111955917D01*
X208967433Y-112544905D01*
X208963811Y-112546921D01*
X207926891Y-113101557D01*
X207923204Y-113103451D01*
X206868312Y-113623122D01*
X206864563Y-113624892D01*
X205792875Y-114109017D01*
X205789069Y-114110660D01*
X204701816Y-114558685D01*
X204697957Y-114560200D01*
X203596335Y-114971632D01*
X203592428Y-114973017D01*
X202477679Y-115347394D01*
X202473728Y-115348648D01*
X201347068Y-115685559D01*
X201343077Y-115686680D01*
X200205796Y-115985740D01*
X200201770Y-115986727D01*
X199055129Y-116247604D01*
X199051072Y-116248456D01*
X197896352Y-116470861D01*
X197892269Y-116471577D01*
X196730752Y-116655260D01*
X196726647Y-116655839D01*
X195559631Y-116800595D01*
X195555509Y-116801036D01*
X194384351Y-116906699D01*
X194380217Y-116907003D01*
X193206130Y-116973462D01*
X193201988Y-116973627D01*
X192026343Y-117000804D01*
X192022197Y-117000830D01*
X190846331Y-116988694D01*
X190842187Y-116988582D01*
X189667378Y-116937149D01*
X189663241Y-116936899D01*
X188490775Y-116846222D01*
X188486647Y-116845833D01*
X187317904Y-116716019D01*
X187313793Y-116715493D01*
X186150005Y-116546681D01*
X186145913Y-116546017D01*
X184988454Y-116338404D01*
X184984386Y-116337604D01*
X183834507Y-116091417D01*
X183830469Y-116090482D01*
X182689442Y-115805991D01*
X182685437Y-115804921D01*
X181554549Y-115482446D01*
X181550582Y-115481242D01*
X180431154Y-115121162D01*
X180427229Y-115119827D01*
X179320444Y-114722524D01*
X179316566Y-114721059D01*
X178255654Y-114299681D01*
X201616725Y-114299681D01*
X201616725Y-114299684D01*
X201635781Y-114444435D01*
X201635783Y-114444440D01*
X201691652Y-114579321D01*
X201691655Y-114579327D01*
X201780535Y-114695156D01*
X201780536Y-114695157D01*
X201896365Y-114784037D01*
X201896371Y-114784040D01*
X201963811Y-114811974D01*
X202031256Y-114839911D01*
X202103633Y-114849439D01*
X202176009Y-114858968D01*
X202176010Y-114858968D01*
X202176011Y-114858968D01*
X202224261Y-114852615D01*
X202320764Y-114839911D01*
X202455653Y-114784038D01*
X202571484Y-114695157D01*
X202660365Y-114579326D01*
X202716238Y-114444437D01*
X202735295Y-114299683D01*
X202716238Y-114154929D01*
X202660365Y-114020041D01*
X202571484Y-113904209D01*
X202455653Y-113815328D01*
X202455650Y-113815327D01*
X202455648Y-113815325D01*
X202320767Y-113759456D01*
X202320762Y-113759454D01*
X202176011Y-113740398D01*
X202176009Y-113740398D01*
X202031257Y-113759454D01*
X202031255Y-113759455D01*
X201896371Y-113815326D01*
X201780536Y-113904209D01*
X201691653Y-114020044D01*
X201635782Y-114154928D01*
X201635781Y-114154930D01*
X201616725Y-114299681D01*
X178255654Y-114299681D01*
X178223629Y-114286961D01*
X178219803Y-114285366D01*
X177489906Y-113966820D01*
X177142041Y-113815002D01*
X177138301Y-113813295D01*
X176642540Y-113576901D01*
X176076821Y-113307148D01*
X176073109Y-113305301D01*
X175029178Y-112763976D01*
X175025531Y-112762007D01*
X174559103Y-112499999D01*
X182141210Y-112499999D01*
X182141210Y-112500000D01*
X182160333Y-112718582D01*
X182160335Y-112718592D01*
X182217121Y-112930524D01*
X182217125Y-112930533D01*
X182309854Y-113129392D01*
X182354003Y-113192443D01*
X182917037Y-112629409D01*
X182934075Y-112692993D01*
X182999901Y-112807007D01*
X183092993Y-112900099D01*
X183207007Y-112965925D01*
X183270590Y-112982962D01*
X182707555Y-113545996D01*
X182770601Y-113590142D01*
X182770605Y-113590144D01*
X182969466Y-113682874D01*
X182969475Y-113682878D01*
X183181407Y-113739664D01*
X183181417Y-113739666D01*
X183399999Y-113758790D01*
X183400001Y-113758790D01*
X183618582Y-113739666D01*
X183618592Y-113739664D01*
X183830524Y-113682878D01*
X183830533Y-113682874D01*
X184029392Y-113590145D01*
X184092443Y-113545995D01*
X183529410Y-112982962D01*
X183592993Y-112965925D01*
X183707007Y-112900099D01*
X183800099Y-112807007D01*
X183865925Y-112692993D01*
X183882962Y-112629409D01*
X184445995Y-113192442D01*
X184490145Y-113129392D01*
X184582874Y-112930533D01*
X184582878Y-112930524D01*
X184639664Y-112718592D01*
X184639666Y-112718582D01*
X184658790Y-112500000D01*
X184658790Y-112499999D01*
X184639666Y-112281417D01*
X184639664Y-112281407D01*
X184591056Y-112099998D01*
X185740715Y-112099998D01*
X185740715Y-112100001D01*
X185759771Y-112244752D01*
X185759773Y-112244757D01*
X185815642Y-112379638D01*
X185815645Y-112379644D01*
X185904525Y-112495473D01*
X185904526Y-112495474D01*
X186020355Y-112584354D01*
X186020361Y-112584357D01*
X186087801Y-112612291D01*
X186155246Y-112640228D01*
X186227623Y-112649756D01*
X186299999Y-112659285D01*
X186300000Y-112659285D01*
X186300001Y-112659285D01*
X186348251Y-112652932D01*
X186444754Y-112640228D01*
X186579643Y-112584355D01*
X186689576Y-112500000D01*
X188886620Y-112500000D01*
X188906091Y-112697699D01*
X188963760Y-112887808D01*
X189057401Y-113062998D01*
X189057405Y-113063005D01*
X189183431Y-113216568D01*
X189336994Y-113342594D01*
X189337001Y-113342598D01*
X189512191Y-113436239D01*
X189512193Y-113436239D01*
X189512196Y-113436241D01*
X189702299Y-113493908D01*
X189702298Y-113493908D01*
X189720024Y-113495653D01*
X189900000Y-113513380D01*
X190097701Y-113493908D01*
X190287804Y-113436241D01*
X190463004Y-113342595D01*
X190616568Y-113216568D01*
X190742595Y-113063004D01*
X190836241Y-112887804D01*
X190893908Y-112697701D01*
X190913380Y-112500000D01*
X192638640Y-112500000D01*
X192658111Y-112697699D01*
X192715780Y-112887808D01*
X192809421Y-113062998D01*
X192809425Y-113063005D01*
X192935451Y-113216568D01*
X193089014Y-113342594D01*
X193089021Y-113342598D01*
X193264211Y-113436239D01*
X193264213Y-113436239D01*
X193264216Y-113436241D01*
X193454319Y-113493908D01*
X193454318Y-113493908D01*
X193472044Y-113495653D01*
X193652020Y-113513380D01*
X193849721Y-113493908D01*
X194039824Y-113436241D01*
X194215024Y-113342595D01*
X194368588Y-113216568D01*
X194494615Y-113063004D01*
X194588261Y-112887804D01*
X194645928Y-112697701D01*
X194665400Y-112500000D01*
X194645928Y-112302299D01*
X194645230Y-112299998D01*
X196740715Y-112299998D01*
X196740715Y-112300001D01*
X196759771Y-112444752D01*
X196759773Y-112444757D01*
X196815642Y-112579638D01*
X196815645Y-112579644D01*
X196904525Y-112695473D01*
X196904526Y-112695474D01*
X197020355Y-112784354D01*
X197020361Y-112784357D01*
X197087801Y-112812291D01*
X197155246Y-112840228D01*
X197227623Y-112849756D01*
X197299999Y-112859285D01*
X197300000Y-112859285D01*
X197300001Y-112859285D01*
X197348251Y-112852932D01*
X197444754Y-112840228D01*
X197579643Y-112784355D01*
X197695474Y-112695474D01*
X197784355Y-112579643D01*
X197817345Y-112499999D01*
X198893230Y-112499999D01*
X198893230Y-112500000D01*
X198912353Y-112718582D01*
X198912355Y-112718592D01*
X198969141Y-112930524D01*
X198969145Y-112930533D01*
X199061874Y-113129392D01*
X199106023Y-113192443D01*
X199669057Y-112629409D01*
X199686095Y-112692993D01*
X199751921Y-112807007D01*
X199845013Y-112900099D01*
X199959027Y-112965925D01*
X200022610Y-112982962D01*
X199459575Y-113545996D01*
X199522621Y-113590142D01*
X199522625Y-113590144D01*
X199721486Y-113682874D01*
X199721495Y-113682878D01*
X199933427Y-113739664D01*
X199933437Y-113739666D01*
X200152019Y-113758790D01*
X200152021Y-113758790D01*
X200370602Y-113739666D01*
X200370612Y-113739664D01*
X200582544Y-113682878D01*
X200582553Y-113682874D01*
X200781412Y-113590145D01*
X200844463Y-113545995D01*
X200281430Y-112982962D01*
X200345013Y-112965925D01*
X200459027Y-112900099D01*
X200552119Y-112807007D01*
X200617945Y-112692993D01*
X200634982Y-112629409D01*
X201198015Y-113192442D01*
X201242165Y-113129392D01*
X201334894Y-112930533D01*
X201334898Y-112930524D01*
X201391684Y-112718592D01*
X201391686Y-112718582D01*
X201410810Y-112500000D01*
X201410810Y-112499999D01*
X201391686Y-112281417D01*
X201391684Y-112281407D01*
X201334898Y-112069475D01*
X201334894Y-112069466D01*
X201242164Y-111870605D01*
X201242162Y-111870601D01*
X201198016Y-111807555D01*
X200634982Y-112370589D01*
X200617945Y-112307007D01*
X200552119Y-112192993D01*
X200459027Y-112099901D01*
X200345013Y-112034075D01*
X200281429Y-112017037D01*
X200844463Y-111454003D01*
X200781412Y-111409854D01*
X200582553Y-111317125D01*
X200582544Y-111317121D01*
X200370612Y-111260335D01*
X200370602Y-111260333D01*
X200152021Y-111241210D01*
X200152019Y-111241210D01*
X199933437Y-111260333D01*
X199933427Y-111260335D01*
X199721495Y-111317121D01*
X199721486Y-111317124D01*
X199522626Y-111409855D01*
X199522624Y-111409856D01*
X199459576Y-111454003D01*
X199459575Y-111454003D01*
X200022610Y-112017037D01*
X199959027Y-112034075D01*
X199845013Y-112099901D01*
X199751921Y-112192993D01*
X199686095Y-112307007D01*
X199669057Y-112370590D01*
X199106023Y-111807555D01*
X199106023Y-111807556D01*
X199061876Y-111870604D01*
X199061875Y-111870606D01*
X198969144Y-112069466D01*
X198969141Y-112069475D01*
X198912355Y-112281407D01*
X198912353Y-112281417D01*
X198893230Y-112499999D01*
X197817345Y-112499999D01*
X197840228Y-112444754D01*
X197859285Y-112300000D01*
X197840228Y-112155246D01*
X197784355Y-112020358D01*
X197695474Y-111904526D01*
X197579643Y-111815645D01*
X197579640Y-111815644D01*
X197579638Y-111815642D01*
X197444757Y-111759773D01*
X197444752Y-111759771D01*
X197300001Y-111740715D01*
X197299999Y-111740715D01*
X197155247Y-111759771D01*
X197155245Y-111759772D01*
X197020361Y-111815643D01*
X197020358Y-111815644D01*
X197020358Y-111815645D01*
X196904526Y-111904526D01*
X196865607Y-111955247D01*
X196815643Y-112020361D01*
X196759772Y-112155245D01*
X196759771Y-112155247D01*
X196740715Y-112299998D01*
X194645230Y-112299998D01*
X194588261Y-112112196D01*
X194588259Y-112112193D01*
X194588259Y-112112191D01*
X194494618Y-111937001D01*
X194494614Y-111936994D01*
X194368588Y-111783431D01*
X194215025Y-111657405D01*
X194215018Y-111657401D01*
X194039828Y-111563760D01*
X193944772Y-111534925D01*
X193849721Y-111506092D01*
X193849719Y-111506091D01*
X193849721Y-111506091D01*
X193652020Y-111486620D01*
X193454320Y-111506091D01*
X193264211Y-111563760D01*
X193089021Y-111657401D01*
X193089014Y-111657405D01*
X192935451Y-111783431D01*
X192809425Y-111936994D01*
X192809421Y-111937001D01*
X192715780Y-112112191D01*
X192658111Y-112302300D01*
X192638640Y-112500000D01*
X190913380Y-112500000D01*
X190893908Y-112302299D01*
X190836241Y-112112196D01*
X190836239Y-112112193D01*
X190836239Y-112112191D01*
X190742598Y-111937001D01*
X190742594Y-111936994D01*
X190616568Y-111783431D01*
X190463005Y-111657405D01*
X190462998Y-111657401D01*
X190287808Y-111563760D01*
X190192752Y-111534925D01*
X190097701Y-111506092D01*
X190097699Y-111506091D01*
X190097701Y-111506091D01*
X189900000Y-111486620D01*
X189702300Y-111506091D01*
X189512191Y-111563760D01*
X189337001Y-111657401D01*
X189336994Y-111657405D01*
X189183431Y-111783431D01*
X189057405Y-111936994D01*
X189057401Y-111937001D01*
X188963760Y-112112191D01*
X188906091Y-112302300D01*
X188886620Y-112500000D01*
X186689576Y-112500000D01*
X186695474Y-112495474D01*
X186784355Y-112379643D01*
X186840228Y-112244754D01*
X186859285Y-112100000D01*
X186855266Y-112069475D01*
X186840228Y-111955247D01*
X186840228Y-111955246D01*
X186784355Y-111820358D01*
X186695474Y-111704526D01*
X186579643Y-111615645D01*
X186579640Y-111615644D01*
X186579638Y-111615642D01*
X186444757Y-111559773D01*
X186444752Y-111559771D01*
X186300001Y-111540715D01*
X186299999Y-111540715D01*
X186155247Y-111559771D01*
X186155245Y-111559772D01*
X186020361Y-111615643D01*
X186020358Y-111615644D01*
X186020358Y-111615645D01*
X185904526Y-111704526D01*
X185819262Y-111815645D01*
X185815643Y-111820361D01*
X185759772Y-111955245D01*
X185759771Y-111955247D01*
X185740715Y-112099998D01*
X184591056Y-112099998D01*
X184582878Y-112069475D01*
X184582874Y-112069466D01*
X184490144Y-111870605D01*
X184490142Y-111870601D01*
X184445996Y-111807555D01*
X183882962Y-112370589D01*
X183865925Y-112307007D01*
X183800099Y-112192993D01*
X183707007Y-112099901D01*
X183592993Y-112034075D01*
X183529409Y-112017037D01*
X184092443Y-111454003D01*
X184029392Y-111409854D01*
X183830533Y-111317125D01*
X183830524Y-111317121D01*
X183618592Y-111260335D01*
X183618582Y-111260333D01*
X183400001Y-111241210D01*
X183399999Y-111241210D01*
X183181417Y-111260333D01*
X183181407Y-111260335D01*
X182969475Y-111317121D01*
X182969466Y-111317124D01*
X182770606Y-111409855D01*
X182770604Y-111409856D01*
X182707556Y-111454003D01*
X182707555Y-111454003D01*
X183270590Y-112017037D01*
X183207007Y-112034075D01*
X183092993Y-112099901D01*
X182999901Y-112192993D01*
X182934075Y-112307007D01*
X182917037Y-112370590D01*
X182354003Y-111807555D01*
X182354003Y-111807556D01*
X182309856Y-111870604D01*
X182309855Y-111870606D01*
X182217124Y-112069466D01*
X182217121Y-112069475D01*
X182160335Y-112281407D01*
X182160333Y-112281417D01*
X182141210Y-112499999D01*
X174559103Y-112499999D01*
X174000252Y-112186074D01*
X173996672Y-112183983D01*
X172991265Y-111574130D01*
X172987757Y-111571922D01*
X172003243Y-110928768D01*
X171999811Y-110926443D01*
X171037366Y-110250754D01*
X171034013Y-110248315D01*
X170094699Y-109540838D01*
X170091430Y-109538289D01*
X169176299Y-108799819D01*
X169173117Y-108797163D01*
X168283141Y-108028480D01*
X168280050Y-108025718D01*
X168252212Y-108000000D01*
X182386620Y-108000000D01*
X182406091Y-108197699D01*
X182463760Y-108387808D01*
X182557401Y-108562998D01*
X182557405Y-108563005D01*
X182683431Y-108716568D01*
X182836994Y-108842594D01*
X182837001Y-108842598D01*
X183012191Y-108936239D01*
X183012193Y-108936239D01*
X183012196Y-108936241D01*
X183202299Y-108993908D01*
X183202298Y-108993908D01*
X183220024Y-108995653D01*
X183400000Y-109013380D01*
X183597701Y-108993908D01*
X183787804Y-108936241D01*
X183963004Y-108842595D01*
X184116568Y-108716568D01*
X184242595Y-108563004D01*
X184336241Y-108387804D01*
X184393908Y-108197701D01*
X184413380Y-108000000D01*
X184393908Y-107802299D01*
X184336241Y-107612196D01*
X184336239Y-107612193D01*
X184336239Y-107612191D01*
X184242598Y-107437001D01*
X184242594Y-107436994D01*
X184116568Y-107283431D01*
X183963005Y-107157405D01*
X183962998Y-107157401D01*
X183787808Y-107063760D01*
X183674438Y-107029370D01*
X183597701Y-107006092D01*
X183597699Y-107006091D01*
X183597701Y-107006091D01*
X183400000Y-106986620D01*
X183202300Y-107006091D01*
X183012191Y-107063760D01*
X182837001Y-107157401D01*
X182836994Y-107157405D01*
X182683431Y-107283431D01*
X182557405Y-107436994D01*
X182557401Y-107437001D01*
X182463760Y-107612191D01*
X182406091Y-107802300D01*
X182386620Y-108000000D01*
X168252212Y-108000000D01*
X167416303Y-107227752D01*
X167413305Y-107224888D01*
X167321309Y-107134014D01*
X166576702Y-106398484D01*
X166573802Y-106395522D01*
X166287356Y-106092993D01*
X166104623Y-105900000D01*
X187512630Y-105900000D01*
X187532101Y-106097699D01*
X187589770Y-106287808D01*
X187683411Y-106462998D01*
X187683415Y-106463005D01*
X187809441Y-106616568D01*
X187963004Y-106742594D01*
X187963011Y-106742598D01*
X188138201Y-106836239D01*
X188138203Y-106836239D01*
X188138206Y-106836241D01*
X188328309Y-106893908D01*
X188328308Y-106893908D01*
X188346034Y-106895653D01*
X188526010Y-106913380D01*
X188723711Y-106893908D01*
X188834805Y-106860207D01*
X188904671Y-106859584D01*
X188963784Y-106896832D01*
X188993375Y-106960125D01*
X188984050Y-107029370D01*
X188968574Y-107051875D01*
X188969301Y-107052361D01*
X188906266Y-107146699D01*
X188906264Y-107146703D01*
X188891500Y-107220928D01*
X188891500Y-108779063D01*
X188906266Y-108853301D01*
X188962515Y-108937484D01*
X188996234Y-108960014D01*
X189046699Y-108993734D01*
X189046702Y-108993734D01*
X189046703Y-108993735D01*
X189071666Y-108998700D01*
X189120933Y-109008500D01*
X190679066Y-109008499D01*
X190753301Y-108993734D01*
X190837484Y-108937484D01*
X190893734Y-108853301D01*
X190908500Y-108779067D01*
X190908499Y-108000000D01*
X192638640Y-108000000D01*
X192658111Y-108197699D01*
X192715780Y-108387808D01*
X192809421Y-108562998D01*
X192809425Y-108563005D01*
X192935451Y-108716568D01*
X193089014Y-108842594D01*
X193089021Y-108842598D01*
X193264211Y-108936239D01*
X193264213Y-108936239D01*
X193264216Y-108936241D01*
X193454319Y-108993908D01*
X193454318Y-108993908D01*
X193472044Y-108995653D01*
X193652020Y-109013380D01*
X193849721Y-108993908D01*
X194039824Y-108936241D01*
X194215024Y-108842595D01*
X194368588Y-108716568D01*
X194494615Y-108563004D01*
X194588261Y-108387804D01*
X194645928Y-108197701D01*
X194665400Y-108000000D01*
X194645928Y-107802299D01*
X194588261Y-107612196D01*
X194588259Y-107612193D01*
X194588259Y-107612191D01*
X194494618Y-107437001D01*
X194494614Y-107436994D01*
X194368588Y-107283431D01*
X194292427Y-107220928D01*
X199143520Y-107220928D01*
X199143520Y-108779063D01*
X199158286Y-108853301D01*
X199214535Y-108937484D01*
X199248254Y-108960014D01*
X199298719Y-108993734D01*
X199298722Y-108993734D01*
X199298723Y-108993735D01*
X199323686Y-108998700D01*
X199372953Y-109008500D01*
X200931086Y-109008499D01*
X201005321Y-108993734D01*
X201089504Y-108937484D01*
X201145754Y-108853301D01*
X201160520Y-108779067D01*
X201160519Y-107220934D01*
X201145754Y-107146699D01*
X201103107Y-107082874D01*
X201089504Y-107062515D01*
X201039039Y-107028796D01*
X201005321Y-107006266D01*
X201005319Y-107006265D01*
X201005316Y-107006264D01*
X200931089Y-106991500D01*
X199372956Y-106991500D01*
X199298718Y-107006266D01*
X199214535Y-107062515D01*
X199158286Y-107146699D01*
X199158284Y-107146703D01*
X199143520Y-107220928D01*
X194292427Y-107220928D01*
X194264170Y-107197738D01*
X194227313Y-107143630D01*
X194190092Y-107142154D01*
X194171263Y-107134014D01*
X194039824Y-107063759D01*
X194002250Y-107052361D01*
X193849721Y-107006092D01*
X193849719Y-107006091D01*
X193849721Y-107006091D01*
X193652020Y-106986620D01*
X193454320Y-107006091D01*
X193264211Y-107063760D01*
X193089021Y-107157401D01*
X193089014Y-107157405D01*
X192935451Y-107283431D01*
X192809425Y-107436994D01*
X192809421Y-107437001D01*
X192715780Y-107612191D01*
X192658111Y-107802300D01*
X192638640Y-108000000D01*
X190908499Y-108000000D01*
X190908499Y-107220934D01*
X190893734Y-107146699D01*
X190851087Y-107082874D01*
X190837484Y-107062515D01*
X190787019Y-107028796D01*
X190753301Y-107006266D01*
X190753299Y-107006265D01*
X190753296Y-107006264D01*
X190679071Y-106991500D01*
X189118380Y-106991500D01*
X189051341Y-106971815D01*
X189005586Y-106919011D01*
X188995642Y-106849853D01*
X189024667Y-106786297D01*
X189059927Y-106758142D01*
X189089014Y-106742595D01*
X189242578Y-106616568D01*
X189368605Y-106463004D01*
X189462251Y-106287804D01*
X189519918Y-106097701D01*
X189539390Y-105900000D01*
X189519918Y-105702299D01*
X189519220Y-105699998D01*
X191440715Y-105699998D01*
X191440715Y-105700001D01*
X191459771Y-105844752D01*
X191459773Y-105844757D01*
X191515642Y-105979638D01*
X191515645Y-105979644D01*
X191604525Y-106095473D01*
X191604526Y-106095474D01*
X191720355Y-106184354D01*
X191720361Y-106184357D01*
X191787801Y-106212291D01*
X191855246Y-106240228D01*
X191927623Y-106249756D01*
X191999999Y-106259285D01*
X192000000Y-106259285D01*
X192000001Y-106259285D01*
X192048251Y-106252932D01*
X192144754Y-106240228D01*
X192279643Y-106184355D01*
X192395474Y-106095474D01*
X192484355Y-105979643D01*
X192517345Y-105899999D01*
X193767220Y-105899999D01*
X193767220Y-105900000D01*
X193786343Y-106118582D01*
X193786345Y-106118592D01*
X193843131Y-106330524D01*
X193843135Y-106330533D01*
X193935864Y-106529392D01*
X193980013Y-106592443D01*
X194543047Y-106029409D01*
X194560085Y-106092993D01*
X194625911Y-106207007D01*
X194719003Y-106300099D01*
X194833017Y-106365925D01*
X194896600Y-106382962D01*
X194333565Y-106945996D01*
X194335336Y-106966236D01*
X194344464Y-106977655D01*
X194344949Y-106982349D01*
X194391308Y-106987752D01*
X194395240Y-106989503D01*
X194595476Y-107082874D01*
X194595485Y-107082878D01*
X194807417Y-107139664D01*
X194807427Y-107139666D01*
X195026009Y-107158790D01*
X195026011Y-107158790D01*
X195244592Y-107139666D01*
X195244602Y-107139664D01*
X195456534Y-107082878D01*
X195456543Y-107082874D01*
X195655402Y-106990145D01*
X195718453Y-106945995D01*
X195155420Y-106382962D01*
X195219003Y-106365925D01*
X195333017Y-106300099D01*
X195426109Y-106207007D01*
X195491935Y-106092993D01*
X195508972Y-106029409D01*
X196072005Y-106592442D01*
X196116155Y-106529392D01*
X196208884Y-106330533D01*
X196208888Y-106330524D01*
X196265674Y-106118592D01*
X196265676Y-106118582D01*
X196284800Y-105900000D01*
X196284800Y-105899999D01*
X196273618Y-105772196D01*
X206447417Y-105772196D01*
X206476258Y-105917183D01*
X206476261Y-105917193D01*
X206532830Y-106053764D01*
X206532837Y-106053777D01*
X206614966Y-106176691D01*
X206614969Y-106176695D01*
X206719498Y-106281224D01*
X206719502Y-106281227D01*
X206842416Y-106363356D01*
X206842429Y-106363363D01*
X206979000Y-106419932D01*
X206979005Y-106419934D01*
X206979009Y-106419934D01*
X206979010Y-106419935D01*
X207123997Y-106448776D01*
X207124000Y-106448776D01*
X207271838Y-106448776D01*
X207369380Y-106429372D01*
X207416831Y-106419934D01*
X207553413Y-106363360D01*
X207676334Y-106281227D01*
X207780869Y-106176692D01*
X207863002Y-106053771D01*
X207919576Y-105917189D01*
X207948418Y-105772194D01*
X207948418Y-105624358D01*
X207948418Y-105624355D01*
X207919577Y-105479368D01*
X207919576Y-105479367D01*
X207919576Y-105479363D01*
X207895137Y-105420361D01*
X207863005Y-105342787D01*
X207862998Y-105342774D01*
X207780869Y-105219860D01*
X207780866Y-105219856D01*
X207676337Y-105115327D01*
X207676333Y-105115324D01*
X207553419Y-105033195D01*
X207553406Y-105033188D01*
X207416835Y-104976619D01*
X207416825Y-104976616D01*
X207271838Y-104947776D01*
X207271836Y-104947776D01*
X207124000Y-104947776D01*
X207123998Y-104947776D01*
X206979010Y-104976616D01*
X206979000Y-104976619D01*
X206842429Y-105033188D01*
X206842416Y-105033195D01*
X206719502Y-105115324D01*
X206719498Y-105115327D01*
X206614969Y-105219856D01*
X206614966Y-105219860D01*
X206532837Y-105342774D01*
X206532830Y-105342787D01*
X206476261Y-105479358D01*
X206476258Y-105479368D01*
X206447418Y-105624355D01*
X206447418Y-105624358D01*
X206447418Y-105772194D01*
X206447418Y-105772196D01*
X206447417Y-105772196D01*
X196273618Y-105772196D01*
X196265676Y-105681417D01*
X196265674Y-105681407D01*
X196208888Y-105469475D01*
X196208884Y-105469466D01*
X196116154Y-105270605D01*
X196116152Y-105270601D01*
X196072006Y-105207555D01*
X195508972Y-105770589D01*
X195491935Y-105707007D01*
X195426109Y-105592993D01*
X195333017Y-105499901D01*
X195219003Y-105434075D01*
X195155419Y-105417037D01*
X195718453Y-104854003D01*
X195655402Y-104809854D01*
X195456543Y-104717125D01*
X195456534Y-104717121D01*
X195244602Y-104660335D01*
X195244592Y-104660333D01*
X195026011Y-104641210D01*
X195026009Y-104641210D01*
X194807427Y-104660333D01*
X194807417Y-104660335D01*
X194595485Y-104717121D01*
X194595476Y-104717124D01*
X194396616Y-104809855D01*
X194396614Y-104809856D01*
X194333566Y-104854003D01*
X194333565Y-104854003D01*
X194896600Y-105417037D01*
X194833017Y-105434075D01*
X194719003Y-105499901D01*
X194625911Y-105592993D01*
X194560085Y-105707007D01*
X194543047Y-105770590D01*
X193980013Y-105207555D01*
X193980013Y-105207556D01*
X193935866Y-105270604D01*
X193935865Y-105270606D01*
X193843134Y-105469466D01*
X193843131Y-105469475D01*
X193786345Y-105681407D01*
X193786343Y-105681417D01*
X193767220Y-105899999D01*
X192517345Y-105899999D01*
X192540228Y-105844754D01*
X192559285Y-105700000D01*
X192540228Y-105555246D01*
X192484355Y-105420358D01*
X192395474Y-105304526D01*
X192279643Y-105215645D01*
X192279640Y-105215644D01*
X192279638Y-105215642D01*
X192144757Y-105159773D01*
X192144752Y-105159771D01*
X192000001Y-105140715D01*
X191999999Y-105140715D01*
X191855247Y-105159771D01*
X191855245Y-105159772D01*
X191720361Y-105215643D01*
X191720358Y-105215644D01*
X191720358Y-105215645D01*
X191604526Y-105304526D01*
X191579613Y-105336994D01*
X191515643Y-105420361D01*
X191459772Y-105555245D01*
X191459771Y-105555247D01*
X191440715Y-105699998D01*
X189519220Y-105699998D01*
X189462251Y-105512196D01*
X189462249Y-105512193D01*
X189462249Y-105512191D01*
X189368608Y-105337001D01*
X189368604Y-105336994D01*
X189242578Y-105183431D01*
X189089015Y-105057405D01*
X189089008Y-105057401D01*
X188913818Y-104963760D01*
X188818762Y-104934925D01*
X188723711Y-104906092D01*
X188723709Y-104906091D01*
X188723711Y-104906091D01*
X188526010Y-104886620D01*
X188328310Y-104906091D01*
X188138201Y-104963760D01*
X187963011Y-105057401D01*
X187963004Y-105057405D01*
X187809441Y-105183431D01*
X187683415Y-105336994D01*
X187683411Y-105337001D01*
X187589770Y-105512191D01*
X187532101Y-105702300D01*
X187512630Y-105900000D01*
X166104623Y-105900000D01*
X165765284Y-105541608D01*
X165762488Y-105538555D01*
X165739151Y-105512196D01*
X164982948Y-104658074D01*
X164980290Y-104654969D01*
X164352636Y-103896393D01*
X164230634Y-103748942D01*
X164228045Y-103745705D01*
X163806438Y-103199998D01*
X171661493Y-103199998D01*
X171661493Y-103200001D01*
X171679841Y-103339374D01*
X171679843Y-103339379D01*
X171733637Y-103469252D01*
X171733639Y-103469255D01*
X171819217Y-103580781D01*
X171819218Y-103580782D01*
X171930744Y-103666360D01*
X171930747Y-103666362D01*
X171989747Y-103690800D01*
X172060624Y-103720158D01*
X172130312Y-103729332D01*
X172199999Y-103738507D01*
X172200000Y-103738507D01*
X172200001Y-103738507D01*
X172246458Y-103732390D01*
X172339376Y-103720158D01*
X172469254Y-103666361D01*
X172580782Y-103580782D01*
X172666361Y-103469254D01*
X172720158Y-103339376D01*
X172738507Y-103200000D01*
X172720158Y-103060624D01*
X172679268Y-102961906D01*
X172666363Y-102930751D01*
X172666362Y-102930750D01*
X172666361Y-102930747D01*
X172580782Y-102819218D01*
X172580780Y-102819217D01*
X172580780Y-102819216D01*
X172469254Y-102733639D01*
X172469252Y-102733637D01*
X172387266Y-102699678D01*
X208616590Y-102699678D01*
X208616590Y-102699687D01*
X208636239Y-102961901D01*
X208636240Y-102961906D01*
X208694752Y-103218267D01*
X208694754Y-103218276D01*
X208694756Y-103218281D01*
X208790827Y-103463067D01*
X208922309Y-103690800D01*
X209086264Y-103896393D01*
X209279030Y-104075253D01*
X209496300Y-104223385D01*
X209733222Y-104337481D01*
X209984502Y-104414991D01*
X209984503Y-104414991D01*
X209984506Y-104414992D01*
X210244520Y-104454182D01*
X210244525Y-104454182D01*
X210244528Y-104454183D01*
X210244529Y-104454183D01*
X210507491Y-104454183D01*
X210507492Y-104454183D01*
X210507499Y-104454182D01*
X210767513Y-104414992D01*
X210767514Y-104414991D01*
X210767518Y-104414991D01*
X211018798Y-104337481D01*
X211255720Y-104223385D01*
X211472990Y-104075253D01*
X211665756Y-103896393D01*
X211829711Y-103690800D01*
X211961193Y-103463067D01*
X212057264Y-103218281D01*
X212115779Y-102961911D01*
X212118114Y-102930750D01*
X212135430Y-102699687D01*
X212135430Y-102699678D01*
X212115780Y-102437464D01*
X212115779Y-102437459D01*
X212115779Y-102437455D01*
X212057264Y-102181085D01*
X211961193Y-101936299D01*
X211829711Y-101708566D01*
X211665756Y-101502973D01*
X211472990Y-101324113D01*
X211255720Y-101175981D01*
X211255717Y-101175980D01*
X211255715Y-101175978D01*
X211018798Y-101061885D01*
X210767519Y-100984375D01*
X210767513Y-100984373D01*
X210507499Y-100945183D01*
X210507492Y-100945183D01*
X210244528Y-100945183D01*
X210244520Y-100945183D01*
X209984506Y-100984373D01*
X209984500Y-100984375D01*
X209733221Y-101061885D01*
X209496304Y-101175978D01*
X209279029Y-101324113D01*
X209086266Y-101502971D01*
X209086264Y-101502973D01*
X208922309Y-101708566D01*
X208790827Y-101936298D01*
X208694758Y-102181079D01*
X208694752Y-102181098D01*
X208636240Y-102437459D01*
X208636239Y-102437464D01*
X208616590Y-102699678D01*
X172387266Y-102699678D01*
X172339379Y-102679843D01*
X172339374Y-102679841D01*
X172200001Y-102661493D01*
X172199999Y-102661493D01*
X172060625Y-102679841D01*
X172060620Y-102679843D01*
X171930751Y-102733636D01*
X171930750Y-102733637D01*
X171930747Y-102733638D01*
X171930747Y-102733639D01*
X171819218Y-102819218D01*
X171739044Y-102923704D01*
X171733637Y-102930750D01*
X171733636Y-102930751D01*
X171679843Y-103060620D01*
X171679841Y-103060625D01*
X171661493Y-103199998D01*
X163806438Y-103199998D01*
X163509088Y-102815123D01*
X163506609Y-102811801D01*
X163425825Y-102699683D01*
X162819155Y-101857700D01*
X162816797Y-101854309D01*
X162769865Y-101784357D01*
X162511993Y-101399995D01*
X162444904Y-101299998D01*
X163740715Y-101299998D01*
X163740715Y-101300001D01*
X163759771Y-101444752D01*
X163759773Y-101444757D01*
X163815642Y-101579638D01*
X163815645Y-101579644D01*
X163904525Y-101695473D01*
X163904526Y-101695474D01*
X164020355Y-101784354D01*
X164020361Y-101784357D01*
X164028693Y-101787808D01*
X164155246Y-101840228D01*
X164227623Y-101849756D01*
X164299999Y-101859285D01*
X164300000Y-101859285D01*
X164300001Y-101859285D01*
X164348251Y-101852932D01*
X164444754Y-101840228D01*
X164579643Y-101784355D01*
X164695474Y-101695474D01*
X164784355Y-101579643D01*
X164840228Y-101444754D01*
X164846121Y-101399995D01*
X167040580Y-101399995D01*
X167040580Y-101400004D01*
X167060229Y-101662218D01*
X167060230Y-101662223D01*
X167118742Y-101918584D01*
X167118744Y-101918593D01*
X167118746Y-101918598D01*
X167214817Y-102163384D01*
X167346299Y-102391117D01*
X167510254Y-102596710D01*
X167703020Y-102775570D01*
X167920290Y-102923702D01*
X168157212Y-103037798D01*
X168408492Y-103115308D01*
X168408493Y-103115308D01*
X168408496Y-103115309D01*
X168668510Y-103154499D01*
X168668515Y-103154499D01*
X168668518Y-103154500D01*
X168668519Y-103154500D01*
X168931481Y-103154500D01*
X168931482Y-103154500D01*
X168931489Y-103154499D01*
X169191503Y-103115309D01*
X169191504Y-103115308D01*
X169191508Y-103115308D01*
X169442788Y-103037798D01*
X169679710Y-102923702D01*
X169896980Y-102775570D01*
X170089746Y-102596710D01*
X170253701Y-102391117D01*
X170385183Y-102163384D01*
X170481254Y-101918598D01*
X170539769Y-101662228D01*
X170545958Y-101579638D01*
X170559420Y-101400004D01*
X170559420Y-101400000D01*
X187512630Y-101400000D01*
X187532101Y-101597699D01*
X187589770Y-101787808D01*
X187683411Y-101962998D01*
X187683415Y-101963005D01*
X187809441Y-102116568D01*
X187963004Y-102242594D01*
X187963011Y-102242598D01*
X188138201Y-102336239D01*
X188138203Y-102336239D01*
X188138206Y-102336241D01*
X188328309Y-102393908D01*
X188328308Y-102393908D01*
X188346034Y-102395653D01*
X188526010Y-102413380D01*
X188723711Y-102393908D01*
X188913814Y-102336241D01*
X189089014Y-102242595D01*
X189242578Y-102116568D01*
X189368605Y-101963004D01*
X189462251Y-101787804D01*
X189519918Y-101597701D01*
X189539390Y-101400000D01*
X189519918Y-101202299D01*
X189462251Y-101012196D01*
X189462249Y-101012193D01*
X189462249Y-101012191D01*
X189368608Y-100837001D01*
X189368604Y-100836994D01*
X189242578Y-100683431D01*
X189166418Y-100620928D01*
X194017510Y-100620928D01*
X194017510Y-102179063D01*
X194032276Y-102253301D01*
X194088525Y-102337484D01*
X194122244Y-102360014D01*
X194172709Y-102393734D01*
X194172712Y-102393734D01*
X194172713Y-102393735D01*
X194197676Y-102398700D01*
X194246943Y-102408500D01*
X195805076Y-102408499D01*
X195879311Y-102393734D01*
X195963494Y-102337484D01*
X196019744Y-102253301D01*
X196034510Y-102179067D01*
X196034509Y-100620934D01*
X196019744Y-100546699D01*
X196001078Y-100518765D01*
X195963494Y-100462515D01*
X195913029Y-100428796D01*
X195879311Y-100406266D01*
X195879309Y-100406265D01*
X195879306Y-100406264D01*
X195805079Y-100391500D01*
X194246946Y-100391500D01*
X194172708Y-100406266D01*
X194088525Y-100462515D01*
X194032276Y-100546699D01*
X194032274Y-100546703D01*
X194017510Y-100620928D01*
X189166418Y-100620928D01*
X189089015Y-100557405D01*
X189089008Y-100557401D01*
X188913818Y-100463760D01*
X188818762Y-100434925D01*
X188723711Y-100406092D01*
X188723709Y-100406091D01*
X188723711Y-100406091D01*
X188526010Y-100386620D01*
X188328310Y-100406091D01*
X188138201Y-100463760D01*
X187963011Y-100557401D01*
X187963004Y-100557405D01*
X187809441Y-100683431D01*
X187683415Y-100836994D01*
X187683411Y-100837001D01*
X187589770Y-101012191D01*
X187532101Y-101202300D01*
X187512630Y-101400000D01*
X170559420Y-101400000D01*
X170559420Y-101399995D01*
X170539770Y-101137781D01*
X170539769Y-101137776D01*
X170539769Y-101137772D01*
X170481254Y-100881402D01*
X170385183Y-100636616D01*
X170253701Y-100408883D01*
X170089746Y-100203290D01*
X169994959Y-100115341D01*
X212104272Y-100115341D01*
X212133113Y-100260328D01*
X212133116Y-100260338D01*
X212189685Y-100396909D01*
X212189692Y-100396922D01*
X212271821Y-100519836D01*
X212271824Y-100519840D01*
X212376353Y-100624369D01*
X212376357Y-100624372D01*
X212499271Y-100706501D01*
X212499284Y-100706508D01*
X212635855Y-100763077D01*
X212635860Y-100763079D01*
X212635864Y-100763079D01*
X212635865Y-100763080D01*
X212780852Y-100791921D01*
X212780855Y-100791921D01*
X212928693Y-100791921D01*
X213026235Y-100772517D01*
X213073686Y-100763079D01*
X213210268Y-100706505D01*
X213333189Y-100624372D01*
X213437724Y-100519837D01*
X213519857Y-100396916D01*
X213576431Y-100260334D01*
X213605273Y-100115339D01*
X213605273Y-99967503D01*
X213605273Y-99967500D01*
X213576432Y-99822513D01*
X213576431Y-99822512D01*
X213576431Y-99822508D01*
X213576429Y-99822503D01*
X213519860Y-99685932D01*
X213519853Y-99685919D01*
X213437724Y-99563005D01*
X213437721Y-99563001D01*
X213333192Y-99458472D01*
X213333188Y-99458469D01*
X213210274Y-99376340D01*
X213210261Y-99376333D01*
X213073690Y-99319764D01*
X213073680Y-99319761D01*
X212928693Y-99290921D01*
X212928691Y-99290921D01*
X212780855Y-99290921D01*
X212780853Y-99290921D01*
X212635865Y-99319761D01*
X212635855Y-99319764D01*
X212499284Y-99376333D01*
X212499271Y-99376340D01*
X212376357Y-99458469D01*
X212376353Y-99458472D01*
X212271824Y-99563001D01*
X212271821Y-99563005D01*
X212189692Y-99685919D01*
X212189685Y-99685932D01*
X212133116Y-99822503D01*
X212133113Y-99822513D01*
X212104273Y-99967500D01*
X212104273Y-99967503D01*
X212104273Y-100115339D01*
X212104273Y-100115341D01*
X212104272Y-100115341D01*
X169994959Y-100115341D01*
X169896980Y-100024430D01*
X169679710Y-99876298D01*
X169679707Y-99876297D01*
X169679705Y-99876295D01*
X169442788Y-99762202D01*
X169191509Y-99684692D01*
X169191503Y-99684690D01*
X168931489Y-99645500D01*
X168931482Y-99645500D01*
X168668518Y-99645500D01*
X168668510Y-99645500D01*
X168408496Y-99684690D01*
X168408490Y-99684692D01*
X168157211Y-99762202D01*
X167920294Y-99876295D01*
X167703019Y-100024430D01*
X167510256Y-100203288D01*
X167510254Y-100203290D01*
X167346299Y-100408883D01*
X167214817Y-100636615D01*
X167118748Y-100881396D01*
X167118742Y-100881415D01*
X167060230Y-101137776D01*
X167060229Y-101137781D01*
X167040580Y-101399995D01*
X164846121Y-101399995D01*
X164859285Y-101300000D01*
X164840228Y-101155246D01*
X164784355Y-101020358D01*
X164695474Y-100904526D01*
X164579643Y-100815645D01*
X164579640Y-100815644D01*
X164579638Y-100815642D01*
X164444757Y-100759773D01*
X164444752Y-100759771D01*
X164300001Y-100740715D01*
X164299999Y-100740715D01*
X164155247Y-100759771D01*
X164155245Y-100759772D01*
X164020361Y-100815643D01*
X164020358Y-100815644D01*
X164020358Y-100815645D01*
X163939359Y-100877798D01*
X163904526Y-100904526D01*
X163815643Y-101020361D01*
X163759772Y-101155245D01*
X163759771Y-101155247D01*
X163740715Y-101299998D01*
X162444904Y-101299998D01*
X162161645Y-100877798D01*
X162159393Y-100874318D01*
X161537224Y-99876419D01*
X161535090Y-99872865D01*
X161511067Y-99831302D01*
X160946638Y-98854747D01*
X160944624Y-98851124D01*
X160390528Y-97813899D01*
X160388636Y-97810210D01*
X159869516Y-96755033D01*
X159867749Y-96751283D01*
X159643725Y-96254674D01*
X165623853Y-96254674D01*
X165623853Y-96254677D01*
X165642909Y-96399428D01*
X165642911Y-96399433D01*
X165698780Y-96534314D01*
X165698783Y-96534320D01*
X165787663Y-96650149D01*
X165787664Y-96650150D01*
X165903493Y-96739030D01*
X165903499Y-96739033D01*
X165942127Y-96755033D01*
X166038384Y-96794904D01*
X166110761Y-96804432D01*
X166183137Y-96813961D01*
X166183138Y-96813961D01*
X166183139Y-96813961D01*
X166231389Y-96807608D01*
X166327892Y-96794904D01*
X166462781Y-96739031D01*
X166578612Y-96650150D01*
X166667493Y-96534319D01*
X166681709Y-96499998D01*
X190040715Y-96499998D01*
X190040715Y-96500001D01*
X190059771Y-96644752D01*
X190059773Y-96644757D01*
X190115642Y-96779638D01*
X190115645Y-96779644D01*
X190204525Y-96895473D01*
X190204526Y-96895474D01*
X190320355Y-96984354D01*
X190320361Y-96984357D01*
X190387801Y-97012291D01*
X190455246Y-97040228D01*
X190527623Y-97049756D01*
X190599999Y-97059285D01*
X190600000Y-97059285D01*
X190600001Y-97059285D01*
X190648251Y-97052932D01*
X190744754Y-97040228D01*
X190879643Y-96984355D01*
X190995474Y-96895474D01*
X191084355Y-96779643D01*
X191140228Y-96644754D01*
X191159285Y-96500000D01*
X191140228Y-96355246D01*
X191084355Y-96220358D01*
X190995474Y-96104526D01*
X190879643Y-96015645D01*
X190879640Y-96015644D01*
X190879638Y-96015642D01*
X190744757Y-95959773D01*
X190744752Y-95959771D01*
X190600001Y-95940715D01*
X190599999Y-95940715D01*
X190455247Y-95959771D01*
X190455245Y-95959772D01*
X190320361Y-96015643D01*
X190320358Y-96015644D01*
X190320358Y-96015645D01*
X190204529Y-96104524D01*
X190204526Y-96104526D01*
X190115643Y-96220361D01*
X190059772Y-96355245D01*
X190059771Y-96355247D01*
X190040715Y-96499998D01*
X166681709Y-96499998D01*
X166723366Y-96399430D01*
X166742423Y-96254676D01*
X166737905Y-96220361D01*
X166723366Y-96109923D01*
X166723366Y-96109922D01*
X166667493Y-95975034D01*
X166578612Y-95859202D01*
X166462781Y-95770321D01*
X166462778Y-95770320D01*
X166462776Y-95770318D01*
X166327895Y-95714449D01*
X166327890Y-95714447D01*
X166183139Y-95695391D01*
X166183137Y-95695391D01*
X166038385Y-95714447D01*
X166038383Y-95714448D01*
X165903499Y-95770319D01*
X165903496Y-95770320D01*
X165903496Y-95770321D01*
X165787664Y-95859202D01*
X165707535Y-95963629D01*
X165698781Y-95975037D01*
X165642910Y-96109921D01*
X165642909Y-96109923D01*
X165623853Y-96254674D01*
X159643725Y-96254674D01*
X159512433Y-95963630D01*
X159384207Y-95679384D01*
X159382573Y-95675595D01*
X159378774Y-95666361D01*
X159186887Y-95199998D01*
X159761493Y-95199998D01*
X159761493Y-95200001D01*
X159779841Y-95339374D01*
X159779843Y-95339379D01*
X159833637Y-95469252D01*
X159833639Y-95469255D01*
X159919217Y-95580781D01*
X159919218Y-95580782D01*
X160030744Y-95666360D01*
X160030747Y-95666362D01*
X160062227Y-95679401D01*
X160160624Y-95720158D01*
X160230312Y-95729332D01*
X160299999Y-95738507D01*
X160300000Y-95738507D01*
X160300001Y-95738507D01*
X160346458Y-95732390D01*
X160439376Y-95720158D01*
X160569254Y-95666361D01*
X160680782Y-95580782D01*
X160743013Y-95499681D01*
X185116725Y-95499681D01*
X185116725Y-95499684D01*
X185135781Y-95644435D01*
X185135783Y-95644440D01*
X185191652Y-95779321D01*
X185191655Y-95779327D01*
X185280535Y-95895156D01*
X185280536Y-95895157D01*
X185396365Y-95984037D01*
X185396371Y-95984040D01*
X185463811Y-96011974D01*
X185531256Y-96039911D01*
X185603633Y-96049439D01*
X185676009Y-96058968D01*
X185676010Y-96058968D01*
X185676011Y-96058968D01*
X185724261Y-96052615D01*
X185820764Y-96039911D01*
X185955653Y-95984038D01*
X186071484Y-95895157D01*
X186160365Y-95779326D01*
X186216238Y-95644437D01*
X186235253Y-95500000D01*
X217990312Y-95500000D01*
X218010957Y-95643595D01*
X218010958Y-95643599D01*
X218054302Y-95738507D01*
X218071223Y-95775558D01*
X218166225Y-95885196D01*
X218244659Y-95935602D01*
X218288269Y-95963630D01*
X218427461Y-96004499D01*
X218427463Y-96004500D01*
X218427464Y-96004500D01*
X218572537Y-96004500D01*
X218572537Y-96004499D01*
X218711729Y-95963630D01*
X218711730Y-95963630D01*
X218711732Y-95963629D01*
X218833775Y-95885196D01*
X218928777Y-95775558D01*
X218989042Y-95643596D01*
X219009688Y-95500000D01*
X218989042Y-95356404D01*
X218989041Y-95356400D01*
X218928777Y-95224443D01*
X218928777Y-95224442D01*
X218833775Y-95114804D01*
X218749472Y-95060625D01*
X218711730Y-95036369D01*
X218572538Y-94995500D01*
X218572536Y-94995500D01*
X218427464Y-94995500D01*
X218427461Y-94995500D01*
X218288270Y-95036369D01*
X218288269Y-95036369D01*
X218166226Y-95114803D01*
X218071223Y-95224442D01*
X218071222Y-95224443D01*
X218010958Y-95356400D01*
X218010957Y-95356404D01*
X217990312Y-95500000D01*
X186235253Y-95500000D01*
X186235295Y-95499683D01*
X186216238Y-95354929D01*
X186160365Y-95220041D01*
X186071484Y-95104209D01*
X185955653Y-95015328D01*
X185955650Y-95015327D01*
X185955648Y-95015325D01*
X185820767Y-94959456D01*
X185820762Y-94959454D01*
X185676011Y-94940398D01*
X185676009Y-94940398D01*
X185531257Y-94959454D01*
X185531255Y-94959455D01*
X185396371Y-95015326D01*
X185396368Y-95015327D01*
X185396368Y-95015328D01*
X185337342Y-95060620D01*
X185280536Y-95104209D01*
X185191653Y-95220044D01*
X185135782Y-95354928D01*
X185135781Y-95354930D01*
X185116725Y-95499681D01*
X160743013Y-95499681D01*
X160766361Y-95469254D01*
X160820158Y-95339376D01*
X160838507Y-95200000D01*
X160820158Y-95060624D01*
X160770288Y-94940228D01*
X160766363Y-94930751D01*
X160766362Y-94930750D01*
X160766361Y-94930747D01*
X160680782Y-94819218D01*
X160680780Y-94819217D01*
X160680780Y-94819216D01*
X160569254Y-94733639D01*
X160569252Y-94733637D01*
X160439379Y-94679843D01*
X160439374Y-94679841D01*
X160300001Y-94661493D01*
X160299999Y-94661493D01*
X160160625Y-94679841D01*
X160160620Y-94679843D01*
X160030751Y-94733636D01*
X160030750Y-94733637D01*
X159919218Y-94819218D01*
X159833637Y-94930750D01*
X159833636Y-94930751D01*
X159779843Y-95060620D01*
X159779841Y-95060625D01*
X159761493Y-95199998D01*
X159186887Y-95199998D01*
X158935087Y-94588024D01*
X158933610Y-94584256D01*
X158864904Y-94399998D01*
X196240715Y-94399998D01*
X196240715Y-94400001D01*
X196259771Y-94544752D01*
X196259773Y-94544757D01*
X196315642Y-94679638D01*
X196315645Y-94679644D01*
X196404525Y-94795473D01*
X196404526Y-94795474D01*
X196520355Y-94884354D01*
X196520361Y-94884357D01*
X196587801Y-94912291D01*
X196655246Y-94940228D01*
X196727623Y-94949756D01*
X196799999Y-94959285D01*
X196800000Y-94959285D01*
X196800001Y-94959285D01*
X196848251Y-94952932D01*
X196944754Y-94940228D01*
X197079643Y-94884355D01*
X197195474Y-94795474D01*
X197284355Y-94679643D01*
X197340228Y-94544754D01*
X197359285Y-94400000D01*
X197340228Y-94255246D01*
X197284355Y-94120358D01*
X197195474Y-94004526D01*
X197079643Y-93915645D01*
X197079640Y-93915644D01*
X197079638Y-93915642D01*
X196944757Y-93859773D01*
X196944752Y-93859771D01*
X196800001Y-93840715D01*
X196799999Y-93840715D01*
X196655247Y-93859771D01*
X196655245Y-93859772D01*
X196520361Y-93915643D01*
X196404526Y-94004526D01*
X196315643Y-94120361D01*
X196259772Y-94255245D01*
X196259771Y-94255247D01*
X196240715Y-94399998D01*
X158864904Y-94399998D01*
X158522730Y-93482343D01*
X158521367Y-93478492D01*
X158327319Y-92899681D01*
X200916725Y-92899681D01*
X200916725Y-92899684D01*
X200935781Y-93044435D01*
X200935783Y-93044440D01*
X200991652Y-93179321D01*
X200991655Y-93179327D01*
X201080535Y-93295156D01*
X201080536Y-93295157D01*
X201196365Y-93384037D01*
X201196371Y-93384040D01*
X201263811Y-93411974D01*
X201331256Y-93439911D01*
X201403633Y-93449439D01*
X201476009Y-93458968D01*
X201476010Y-93458968D01*
X201476011Y-93458968D01*
X201524261Y-93452615D01*
X201620764Y-93439911D01*
X201755653Y-93384038D01*
X201871484Y-93295157D01*
X201960365Y-93179326D01*
X202016238Y-93044437D01*
X202035295Y-92899683D01*
X202016238Y-92754929D01*
X201960365Y-92620041D01*
X201871484Y-92504209D01*
X201755653Y-92415328D01*
X201755650Y-92415327D01*
X201755648Y-92415325D01*
X201620767Y-92359456D01*
X201620762Y-92359454D01*
X201476011Y-92340398D01*
X201476009Y-92340398D01*
X201331257Y-92359454D01*
X201331255Y-92359455D01*
X201196371Y-92415326D01*
X201080536Y-92504209D01*
X200991653Y-92620044D01*
X200935782Y-92754928D01*
X200935781Y-92754930D01*
X200916725Y-92899681D01*
X158327319Y-92899681D01*
X158147561Y-92363493D01*
X158146317Y-92359566D01*
X157809986Y-91232685D01*
X157808896Y-91228798D01*
X157775099Y-91099998D01*
X166740715Y-91099998D01*
X166740715Y-91100001D01*
X166759771Y-91244752D01*
X166759773Y-91244757D01*
X166815642Y-91379638D01*
X166815645Y-91379644D01*
X166904525Y-91495473D01*
X166904526Y-91495474D01*
X167020355Y-91584354D01*
X167020361Y-91584357D01*
X167057357Y-91599681D01*
X167155246Y-91640228D01*
X167227623Y-91649756D01*
X167299999Y-91659285D01*
X167300000Y-91659285D01*
X167300001Y-91659285D01*
X167348251Y-91652932D01*
X167444754Y-91640228D01*
X167542643Y-91599681D01*
X183416725Y-91599681D01*
X183416725Y-91599684D01*
X183435781Y-91744435D01*
X183435783Y-91744440D01*
X183491652Y-91879321D01*
X183491655Y-91879327D01*
X183580535Y-91995156D01*
X183580536Y-91995157D01*
X183696365Y-92084037D01*
X183696371Y-92084040D01*
X183763811Y-92111974D01*
X183831256Y-92139911D01*
X183903633Y-92149439D01*
X183976009Y-92158968D01*
X183976010Y-92158968D01*
X183976011Y-92158968D01*
X184024261Y-92152615D01*
X184120764Y-92139911D01*
X184255653Y-92084038D01*
X184371484Y-91995157D01*
X184460365Y-91879326D01*
X184516238Y-91744437D01*
X184535295Y-91599683D01*
X184533277Y-91584357D01*
X184516238Y-91454930D01*
X184516238Y-91454929D01*
X184460365Y-91320041D01*
X184371484Y-91204209D01*
X184255653Y-91115328D01*
X184255650Y-91115327D01*
X184255648Y-91115325D01*
X184120767Y-91059456D01*
X184120762Y-91059454D01*
X183976011Y-91040398D01*
X183976009Y-91040398D01*
X183831257Y-91059454D01*
X183831255Y-91059455D01*
X183696371Y-91115326D01*
X183696368Y-91115327D01*
X183696368Y-91115328D01*
X183580536Y-91204209D01*
X183522654Y-91279643D01*
X183491653Y-91320044D01*
X183435782Y-91454928D01*
X183435781Y-91454930D01*
X183416725Y-91599681D01*
X167542643Y-91599681D01*
X167579643Y-91584355D01*
X167695474Y-91495474D01*
X167784355Y-91379643D01*
X167840228Y-91244754D01*
X167857267Y-91115326D01*
X167859285Y-91100001D01*
X167859285Y-91099998D01*
X167846120Y-90999998D01*
X168440715Y-90999998D01*
X168440715Y-91000001D01*
X168459771Y-91144752D01*
X168459773Y-91144757D01*
X168515642Y-91279638D01*
X168515645Y-91279644D01*
X168604525Y-91395473D01*
X168604526Y-91395474D01*
X168720355Y-91484354D01*
X168720361Y-91484357D01*
X168787801Y-91512291D01*
X168855246Y-91540228D01*
X168927623Y-91549756D01*
X168999999Y-91559285D01*
X169000000Y-91559285D01*
X169000001Y-91559285D01*
X169048251Y-91552932D01*
X169144754Y-91540228D01*
X169279643Y-91484355D01*
X169395474Y-91395474D01*
X169484355Y-91279643D01*
X169540228Y-91144754D01*
X169559285Y-91000000D01*
X169557225Y-90984355D01*
X169540228Y-90855247D01*
X169540228Y-90855246D01*
X169484355Y-90720358D01*
X169395474Y-90604526D01*
X169279643Y-90515645D01*
X169279640Y-90515644D01*
X169279638Y-90515642D01*
X169241870Y-90499998D01*
X192140715Y-90499998D01*
X192140715Y-90500001D01*
X192159771Y-90644752D01*
X192159773Y-90644757D01*
X192215642Y-90779638D01*
X192215645Y-90779644D01*
X192304525Y-90895473D01*
X192304526Y-90895474D01*
X192420355Y-90984354D01*
X192420361Y-90984357D01*
X192487801Y-91012291D01*
X192555246Y-91040228D01*
X192627623Y-91049756D01*
X192699999Y-91059285D01*
X192700000Y-91059285D01*
X192700001Y-91059285D01*
X192748251Y-91052932D01*
X192844754Y-91040228D01*
X192979643Y-90984355D01*
X193095474Y-90895474D01*
X193184355Y-90779643D01*
X193240228Y-90644754D01*
X193259285Y-90500000D01*
X193257225Y-90484355D01*
X193240228Y-90355247D01*
X193240228Y-90355246D01*
X193230735Y-90332327D01*
X200137595Y-90332327D01*
X200137595Y-90332330D01*
X200156651Y-90477081D01*
X200156653Y-90477086D01*
X200212522Y-90611967D01*
X200212525Y-90611973D01*
X200301405Y-90727802D01*
X200301406Y-90727803D01*
X200417235Y-90816683D01*
X200417241Y-90816686D01*
X200474072Y-90840226D01*
X200552126Y-90872557D01*
X200624503Y-90882085D01*
X200696879Y-90891614D01*
X200696880Y-90891614D01*
X200696881Y-90891614D01*
X200745131Y-90885261D01*
X200841634Y-90872557D01*
X200976523Y-90816684D01*
X201092354Y-90727803D01*
X201181235Y-90611972D01*
X201237108Y-90477083D01*
X201256165Y-90332329D01*
X201252504Y-90304524D01*
X201251908Y-90299998D01*
X216440715Y-90299998D01*
X216440715Y-90300001D01*
X216459771Y-90444752D01*
X216459773Y-90444757D01*
X216515642Y-90579638D01*
X216515645Y-90579644D01*
X216604525Y-90695473D01*
X216604526Y-90695474D01*
X216720355Y-90784354D01*
X216720361Y-90784357D01*
X216751254Y-90797153D01*
X216855246Y-90840228D01*
X216889610Y-90844752D01*
X216999999Y-90859285D01*
X217000000Y-90859285D01*
X217000001Y-90859285D01*
X217048251Y-90852932D01*
X217144754Y-90840228D01*
X217279643Y-90784355D01*
X217389578Y-90699998D01*
X220240715Y-90699998D01*
X220240715Y-90700001D01*
X220259771Y-90844752D01*
X220259773Y-90844757D01*
X220315642Y-90979638D01*
X220315645Y-90979644D01*
X220404525Y-91095473D01*
X220404526Y-91095474D01*
X220520355Y-91184354D01*
X220520361Y-91184357D01*
X220587801Y-91212291D01*
X220655246Y-91240228D01*
X220689610Y-91244752D01*
X220799999Y-91259285D01*
X220800000Y-91259285D01*
X220800001Y-91259285D01*
X220848251Y-91252932D01*
X220944754Y-91240228D01*
X221079643Y-91184355D01*
X221195474Y-91095474D01*
X221284355Y-90979643D01*
X221340228Y-90844754D01*
X221355625Y-90727802D01*
X221359285Y-90700001D01*
X221359285Y-90699998D01*
X221340228Y-90555247D01*
X221340228Y-90555246D01*
X221284355Y-90420358D01*
X221195474Y-90304526D01*
X221079643Y-90215645D01*
X221079640Y-90215644D01*
X221079638Y-90215642D01*
X220944757Y-90159773D01*
X220944752Y-90159771D01*
X220800001Y-90140715D01*
X220799999Y-90140715D01*
X220655247Y-90159771D01*
X220655245Y-90159772D01*
X220520361Y-90215643D01*
X220520358Y-90215644D01*
X220520358Y-90215645D01*
X220404526Y-90304526D01*
X220365607Y-90355247D01*
X220315643Y-90420361D01*
X220259772Y-90555245D01*
X220259771Y-90555247D01*
X220240715Y-90699998D01*
X217389578Y-90699998D01*
X217395474Y-90695474D01*
X217484355Y-90579643D01*
X217488877Y-90568724D01*
X217509383Y-90519221D01*
X217553224Y-90464817D01*
X217619518Y-90442752D01*
X217687217Y-90460031D01*
X217699431Y-90468298D01*
X217720355Y-90484354D01*
X217720361Y-90484357D01*
X217787801Y-90512291D01*
X217855246Y-90540228D01*
X217927623Y-90549756D01*
X217999999Y-90559285D01*
X218000000Y-90559285D01*
X218000001Y-90559285D01*
X218048251Y-90552932D01*
X218144754Y-90540228D01*
X218279643Y-90484355D01*
X218395474Y-90395474D01*
X218484355Y-90279643D01*
X218540228Y-90144754D01*
X218552932Y-90048251D01*
X218559285Y-90000001D01*
X218559285Y-89999998D01*
X218546580Y-89903497D01*
X218540228Y-89855246D01*
X218484355Y-89720358D01*
X218395474Y-89604526D01*
X218279643Y-89515645D01*
X218279640Y-89515644D01*
X218279638Y-89515642D01*
X218144757Y-89459773D01*
X218144752Y-89459771D01*
X218000001Y-89440715D01*
X217999999Y-89440715D01*
X217855247Y-89459771D01*
X217855245Y-89459772D01*
X217720361Y-89515643D01*
X217720358Y-89515644D01*
X217720358Y-89515645D01*
X217604526Y-89604526D01*
X217571177Y-89647988D01*
X217515643Y-89720361D01*
X217490617Y-89780779D01*
X217446775Y-89835183D01*
X217380481Y-89857247D01*
X217312782Y-89839967D01*
X217300571Y-89831703D01*
X217279643Y-89815645D01*
X217279638Y-89815642D01*
X217144757Y-89759773D01*
X217144752Y-89759771D01*
X217000001Y-89740715D01*
X216999999Y-89740715D01*
X216855247Y-89759771D01*
X216855245Y-89759772D01*
X216720361Y-89815643D01*
X216720358Y-89815644D01*
X216720358Y-89815645D01*
X216604526Y-89904526D01*
X216519262Y-90015645D01*
X216515643Y-90020361D01*
X216459772Y-90155245D01*
X216459771Y-90155247D01*
X216440715Y-90299998D01*
X201251908Y-90299998D01*
X201237108Y-90187576D01*
X201237108Y-90187575D01*
X201181235Y-90052687D01*
X201092354Y-89936855D01*
X200976523Y-89847974D01*
X200976520Y-89847973D01*
X200976518Y-89847971D01*
X200841637Y-89792102D01*
X200841632Y-89792100D01*
X200696881Y-89773044D01*
X200696879Y-89773044D01*
X200552127Y-89792100D01*
X200552125Y-89792101D01*
X200417241Y-89847972D01*
X200417238Y-89847973D01*
X200417238Y-89847974D01*
X200301406Y-89936855D01*
X200240949Y-90015645D01*
X200212523Y-90052690D01*
X200156652Y-90187574D01*
X200156651Y-90187576D01*
X200137595Y-90332327D01*
X193230735Y-90332327D01*
X193184355Y-90220358D01*
X193095474Y-90104526D01*
X192979643Y-90015645D01*
X192979640Y-90015644D01*
X192979638Y-90015642D01*
X192844757Y-89959773D01*
X192844752Y-89959771D01*
X192700001Y-89940715D01*
X192699999Y-89940715D01*
X192555247Y-89959771D01*
X192555245Y-89959772D01*
X192420361Y-90015643D01*
X192420358Y-90015644D01*
X192420358Y-90015645D01*
X192304526Y-90104526D01*
X192219262Y-90215645D01*
X192215643Y-90220361D01*
X192159772Y-90355245D01*
X192159771Y-90355247D01*
X192140715Y-90499998D01*
X169241870Y-90499998D01*
X169144757Y-90459773D01*
X169144752Y-90459771D01*
X169000001Y-90440715D01*
X168999999Y-90440715D01*
X168855247Y-90459771D01*
X168855245Y-90459772D01*
X168720361Y-90515643D01*
X168720358Y-90515644D01*
X168720358Y-90515645D01*
X168604526Y-90604526D01*
X168527794Y-90704526D01*
X168515643Y-90720361D01*
X168459772Y-90855245D01*
X168459771Y-90855247D01*
X168440715Y-90999998D01*
X167846120Y-90999998D01*
X167840228Y-90955247D01*
X167840228Y-90955246D01*
X167784355Y-90820358D01*
X167695474Y-90704526D01*
X167579643Y-90615645D01*
X167579640Y-90615644D01*
X167579638Y-90615642D01*
X167444757Y-90559773D01*
X167444752Y-90559771D01*
X167300001Y-90540715D01*
X167299999Y-90540715D01*
X167155247Y-90559771D01*
X167155245Y-90559772D01*
X167020361Y-90615643D01*
X167020358Y-90615644D01*
X167020358Y-90615645D01*
X166904526Y-90704526D01*
X166834960Y-90795187D01*
X166815643Y-90820361D01*
X166759772Y-90955245D01*
X166759771Y-90955247D01*
X166740715Y-91099998D01*
X157775099Y-91099998D01*
X157510408Y-90091253D01*
X157509446Y-90087322D01*
X157249157Y-88940472D01*
X157248308Y-88936415D01*
X157068461Y-87999998D01*
X160840715Y-87999998D01*
X160840715Y-88000001D01*
X160859771Y-88144752D01*
X160859773Y-88144757D01*
X160915642Y-88279638D01*
X160915645Y-88279644D01*
X161004525Y-88395473D01*
X161004526Y-88395474D01*
X161120355Y-88484354D01*
X161120361Y-88484357D01*
X161178856Y-88508586D01*
X161255246Y-88540228D01*
X161327623Y-88549756D01*
X161399999Y-88559285D01*
X161400000Y-88559285D01*
X161400001Y-88559285D01*
X161448251Y-88552932D01*
X161544754Y-88540228D01*
X161679643Y-88484355D01*
X161795474Y-88395474D01*
X161884355Y-88279643D01*
X161940228Y-88144754D01*
X161952932Y-88048251D01*
X161959285Y-88000001D01*
X161959285Y-87999998D01*
X161944383Y-87886807D01*
X161942265Y-87870722D01*
X166040929Y-87870722D01*
X166040929Y-87870725D01*
X166059985Y-88015476D01*
X166059987Y-88015481D01*
X166115856Y-88150362D01*
X166115859Y-88150368D01*
X166204739Y-88266197D01*
X166204740Y-88266198D01*
X166320569Y-88355078D01*
X166320575Y-88355081D01*
X166365473Y-88373678D01*
X166455460Y-88410952D01*
X166592409Y-88428981D01*
X166656305Y-88457247D01*
X166692405Y-88508586D01*
X166776091Y-88732958D01*
X166913191Y-88984038D01*
X166913196Y-88984046D01*
X167019882Y-89126562D01*
X167019883Y-89126563D01*
X167737426Y-88409020D01*
X167823249Y-88537463D01*
X167962537Y-88676751D01*
X168090978Y-88762573D01*
X167373435Y-89480115D01*
X167373436Y-89480116D01*
X167515953Y-89586803D01*
X167515961Y-89586808D01*
X167767042Y-89723908D01*
X167767041Y-89723908D01*
X168035104Y-89823890D01*
X168314637Y-89884699D01*
X168599999Y-89905109D01*
X168600001Y-89905109D01*
X168885362Y-89884699D01*
X169164895Y-89823890D01*
X169432958Y-89723908D01*
X169684038Y-89586808D01*
X169684039Y-89586807D01*
X169826563Y-89480115D01*
X169109020Y-88762573D01*
X169237463Y-88676751D01*
X169376751Y-88537463D01*
X169462573Y-88409020D01*
X170180115Y-89126563D01*
X170286807Y-88984039D01*
X170286808Y-88984038D01*
X170423908Y-88732958D01*
X170523890Y-88464895D01*
X170584699Y-88185362D01*
X170605109Y-87900001D01*
X170605109Y-87899998D01*
X170584699Y-87614637D01*
X170576815Y-87578394D01*
X176425510Y-87578394D01*
X176425510Y-87820971D01*
X176457171Y-88061468D01*
X176519957Y-88295787D01*
X176612783Y-88519888D01*
X176612787Y-88519897D01*
X176621828Y-88535557D01*
X176734074Y-88729972D01*
X176734076Y-88729975D01*
X176734077Y-88729976D01*
X176881743Y-88922419D01*
X176881749Y-88922426D01*
X177053266Y-89093943D01*
X177053272Y-89093948D01*
X177245721Y-89241619D01*
X177455798Y-89362907D01*
X177679910Y-89455737D01*
X177914221Y-89518521D01*
X178094596Y-89542267D01*
X178154721Y-89550183D01*
X178154722Y-89550183D01*
X178397299Y-89550183D01*
X178445398Y-89543850D01*
X178637799Y-89518521D01*
X178872110Y-89455737D01*
X179096222Y-89362907D01*
X179306299Y-89241619D01*
X179498748Y-89093948D01*
X179670275Y-88922421D01*
X179817946Y-88729972D01*
X179939234Y-88519895D01*
X180032064Y-88295783D01*
X180094848Y-88061472D01*
X180126510Y-87820971D01*
X180126510Y-87578395D01*
X180094848Y-87337894D01*
X180084694Y-87299998D01*
X188740715Y-87299998D01*
X188740715Y-87300001D01*
X188759771Y-87444752D01*
X188759773Y-87444757D01*
X188815642Y-87579638D01*
X188815645Y-87579644D01*
X188904525Y-87695473D01*
X188904526Y-87695474D01*
X188921020Y-87708130D01*
X188962223Y-87764558D01*
X188966378Y-87834304D01*
X188943910Y-87881992D01*
X188871564Y-87976276D01*
X188871562Y-87976279D01*
X188815691Y-88111164D01*
X188815690Y-88111166D01*
X188796634Y-88255917D01*
X188796634Y-88255920D01*
X188815690Y-88400671D01*
X188815692Y-88400676D01*
X188871561Y-88535557D01*
X188871564Y-88535563D01*
X188960444Y-88651392D01*
X188960445Y-88651393D01*
X189076274Y-88740273D01*
X189076280Y-88740276D01*
X189143720Y-88768210D01*
X189211165Y-88796147D01*
X189283542Y-88805675D01*
X189355918Y-88815204D01*
X189355919Y-88815204D01*
X189355920Y-88815204D01*
X189404170Y-88808851D01*
X189500673Y-88796147D01*
X189635562Y-88740274D01*
X189751393Y-88651393D01*
X189840274Y-88535562D01*
X189855005Y-88499998D01*
X195240715Y-88499998D01*
X195240715Y-88500001D01*
X195259771Y-88644752D01*
X195259773Y-88644757D01*
X195315642Y-88779638D01*
X195315645Y-88779644D01*
X195404525Y-88895473D01*
X195404526Y-88895474D01*
X195520355Y-88984354D01*
X195520361Y-88984357D01*
X195587801Y-89012291D01*
X195655246Y-89040228D01*
X195727623Y-89049756D01*
X195799999Y-89059285D01*
X195800000Y-89059285D01*
X195800001Y-89059285D01*
X195848251Y-89052932D01*
X195944754Y-89040228D01*
X196079643Y-88984355D01*
X196195474Y-88895474D01*
X196284355Y-88779643D01*
X196340228Y-88644754D01*
X196355215Y-88530914D01*
X196383480Y-88467020D01*
X196441804Y-88428548D01*
X196461962Y-88424163D01*
X196545026Y-88413228D01*
X196679915Y-88357355D01*
X196795746Y-88268474D01*
X196884627Y-88152643D01*
X196940500Y-88017754D01*
X196959557Y-87873000D01*
X196959257Y-87870725D01*
X196946203Y-87771564D01*
X196940500Y-87728246D01*
X196884627Y-87593358D01*
X196795746Y-87477526D01*
X196679915Y-87388645D01*
X196679912Y-87388644D01*
X196679910Y-87388642D01*
X196545029Y-87332773D01*
X196545024Y-87332771D01*
X196400273Y-87313715D01*
X196400271Y-87313715D01*
X196255519Y-87332771D01*
X196255517Y-87332772D01*
X196120633Y-87388643D01*
X196120630Y-87388644D01*
X196120630Y-87388645D01*
X196004798Y-87477526D01*
X195917664Y-87591082D01*
X195915915Y-87593361D01*
X195860044Y-87728245D01*
X195860043Y-87728247D01*
X195845057Y-87842083D01*
X195816790Y-87905980D01*
X195758466Y-87944451D01*
X195738304Y-87948837D01*
X195655246Y-87959772D01*
X195655245Y-87959772D01*
X195520361Y-88015643D01*
X195520358Y-88015644D01*
X195520358Y-88015645D01*
X195404526Y-88104526D01*
X195337644Y-88191689D01*
X195315643Y-88220361D01*
X195259772Y-88355245D01*
X195259771Y-88355247D01*
X195240715Y-88499998D01*
X189855005Y-88499998D01*
X189896147Y-88400673D01*
X189915204Y-88255919D01*
X189910522Y-88220358D01*
X189896147Y-88111166D01*
X189896147Y-88111165D01*
X189840274Y-87976277D01*
X189751393Y-87860445D01*
X189751391Y-87860443D01*
X189751390Y-87860442D01*
X189740885Y-87852382D01*
X189734898Y-87847788D01*
X189700001Y-87799998D01*
X193740715Y-87799998D01*
X193740715Y-87800001D01*
X193759771Y-87944752D01*
X193759773Y-87944757D01*
X193815642Y-88079638D01*
X193815645Y-88079644D01*
X193904525Y-88195473D01*
X193904526Y-88195474D01*
X194020355Y-88284354D01*
X194020361Y-88284357D01*
X194087801Y-88312291D01*
X194155246Y-88340228D01*
X194227623Y-88349756D01*
X194299999Y-88359285D01*
X194300000Y-88359285D01*
X194300001Y-88359285D01*
X194348251Y-88352932D01*
X194444754Y-88340228D01*
X194579643Y-88284355D01*
X194695474Y-88195474D01*
X194784355Y-88079643D01*
X194840228Y-87944754D01*
X194859285Y-87800000D01*
X194858615Y-87794913D01*
X194840228Y-87655247D01*
X194840228Y-87655246D01*
X194784355Y-87520358D01*
X194695474Y-87404526D01*
X194579643Y-87315645D01*
X194579640Y-87315644D01*
X194579638Y-87315642D01*
X194444757Y-87259773D01*
X194444752Y-87259771D01*
X194300001Y-87240715D01*
X194299999Y-87240715D01*
X194155247Y-87259771D01*
X194155245Y-87259772D01*
X194020361Y-87315643D01*
X194020358Y-87315644D01*
X194020358Y-87315645D01*
X193904526Y-87404526D01*
X193819262Y-87515645D01*
X193815643Y-87520361D01*
X193759772Y-87655245D01*
X193759771Y-87655247D01*
X193740715Y-87799998D01*
X189700001Y-87799998D01*
X189693695Y-87791362D01*
X189689540Y-87721616D01*
X189712009Y-87673925D01*
X189726342Y-87655247D01*
X189784355Y-87579643D01*
X189840228Y-87444754D01*
X189857226Y-87315642D01*
X189859285Y-87300001D01*
X189859285Y-87299998D01*
X189840228Y-87155247D01*
X189840228Y-87155246D01*
X189817343Y-87099998D01*
X192540715Y-87099998D01*
X192540715Y-87100001D01*
X192559771Y-87244752D01*
X192559773Y-87244757D01*
X192615642Y-87379638D01*
X192615645Y-87379644D01*
X192704525Y-87495473D01*
X192704526Y-87495474D01*
X192820355Y-87584354D01*
X192820361Y-87584357D01*
X192869049Y-87604524D01*
X192955246Y-87640228D01*
X193027623Y-87649756D01*
X193099999Y-87659285D01*
X193100000Y-87659285D01*
X193100001Y-87659285D01*
X193148251Y-87652932D01*
X193244754Y-87640228D01*
X193379643Y-87584355D01*
X193495474Y-87495474D01*
X193584355Y-87379643D01*
X193640228Y-87244754D01*
X193655718Y-87127093D01*
X193659285Y-87100001D01*
X193659285Y-87099998D01*
X193640228Y-86955247D01*
X193640228Y-86955246D01*
X193584355Y-86820358D01*
X193495474Y-86704526D01*
X193379643Y-86615645D01*
X193379640Y-86615644D01*
X193379638Y-86615642D01*
X193310159Y-86586863D01*
X196855772Y-86586863D01*
X196855772Y-86586866D01*
X196874828Y-86731617D01*
X196874830Y-86731622D01*
X196930699Y-86866503D01*
X196930702Y-86866509D01*
X197019582Y-86982338D01*
X197019583Y-86982339D01*
X197135412Y-87071219D01*
X197135418Y-87071222D01*
X197171552Y-87086189D01*
X197270303Y-87127093D01*
X197342680Y-87136621D01*
X197415056Y-87146150D01*
X197415057Y-87146150D01*
X197415058Y-87146150D01*
X197463308Y-87139797D01*
X197559811Y-87127093D01*
X197694700Y-87071220D01*
X197810531Y-86982339D01*
X197873714Y-86899998D01*
X199640715Y-86899998D01*
X199640715Y-86900001D01*
X199659771Y-87044752D01*
X199659773Y-87044757D01*
X199715642Y-87179638D01*
X199715645Y-87179644D01*
X199804525Y-87295473D01*
X199804526Y-87295474D01*
X199920355Y-87384354D01*
X199920361Y-87384357D01*
X199952521Y-87397678D01*
X200055246Y-87440228D01*
X200089610Y-87444752D01*
X200199999Y-87459285D01*
X200200000Y-87459285D01*
X200200001Y-87459285D01*
X200248251Y-87452932D01*
X200344754Y-87440228D01*
X200447479Y-87397677D01*
X200516946Y-87390209D01*
X200579426Y-87421484D01*
X200609492Y-87464788D01*
X200615644Y-87479642D01*
X200615645Y-87479644D01*
X200704525Y-87595473D01*
X200704526Y-87595474D01*
X200820355Y-87684354D01*
X200820361Y-87684357D01*
X200877755Y-87708130D01*
X200955246Y-87740228D01*
X201027623Y-87749756D01*
X201099999Y-87759285D01*
X201100000Y-87759285D01*
X201100001Y-87759285D01*
X201148251Y-87752932D01*
X201244754Y-87740228D01*
X201379643Y-87684355D01*
X201495474Y-87595474D01*
X201508580Y-87578394D01*
X203425510Y-87578394D01*
X203425510Y-87820971D01*
X203457171Y-88061468D01*
X203519957Y-88295787D01*
X203612783Y-88519888D01*
X203612787Y-88519897D01*
X203621828Y-88535557D01*
X203734074Y-88729972D01*
X203734076Y-88729975D01*
X203734077Y-88729976D01*
X203881743Y-88922419D01*
X203881749Y-88922426D01*
X204053266Y-89093943D01*
X204053272Y-89093948D01*
X204245721Y-89241619D01*
X204455798Y-89362907D01*
X204679910Y-89455737D01*
X204914221Y-89518521D01*
X205094596Y-89542267D01*
X205154721Y-89550183D01*
X205154722Y-89550183D01*
X205397299Y-89550183D01*
X205445398Y-89543850D01*
X205637799Y-89518521D01*
X205872110Y-89455737D01*
X206096222Y-89362907D01*
X206306299Y-89241619D01*
X206498748Y-89093948D01*
X206670275Y-88922421D01*
X206817946Y-88729972D01*
X206939234Y-88519895D01*
X206947476Y-88499998D01*
X215540715Y-88499998D01*
X215540715Y-88500001D01*
X215559771Y-88644752D01*
X215559773Y-88644757D01*
X215615642Y-88779638D01*
X215615645Y-88779644D01*
X215704525Y-88895473D01*
X215704526Y-88895474D01*
X215820355Y-88984354D01*
X215820361Y-88984357D01*
X215887801Y-89012291D01*
X215955246Y-89040228D01*
X216027623Y-89049756D01*
X216099999Y-89059285D01*
X216100000Y-89059285D01*
X216100001Y-89059285D01*
X216148251Y-89052932D01*
X216244754Y-89040228D01*
X216379643Y-88984355D01*
X216495474Y-88895474D01*
X216584355Y-88779643D01*
X216640228Y-88644754D01*
X216659285Y-88500000D01*
X216657225Y-88484355D01*
X216646209Y-88400676D01*
X216640228Y-88355246D01*
X216584355Y-88220358D01*
X216495474Y-88104526D01*
X216379643Y-88015645D01*
X216379640Y-88015644D01*
X216379638Y-88015642D01*
X216244757Y-87959773D01*
X216244752Y-87959771D01*
X216100001Y-87940715D01*
X216099999Y-87940715D01*
X215955247Y-87959771D01*
X215955245Y-87959772D01*
X215820361Y-88015643D01*
X215820358Y-88015644D01*
X215820358Y-88015645D01*
X215704526Y-88104526D01*
X215637644Y-88191689D01*
X215615643Y-88220361D01*
X215559772Y-88355245D01*
X215559771Y-88355247D01*
X215540715Y-88499998D01*
X206947476Y-88499998D01*
X207032064Y-88295783D01*
X207094848Y-88061472D01*
X207126510Y-87820971D01*
X207126510Y-87578395D01*
X207094848Y-87337894D01*
X207032064Y-87103583D01*
X206939234Y-86879471D01*
X206817946Y-86669394D01*
X206733830Y-86559772D01*
X206670276Y-86476946D01*
X206670270Y-86476939D01*
X206498753Y-86305422D01*
X206498746Y-86305416D01*
X206361362Y-86199998D01*
X212094891Y-86199998D01*
X212094891Y-86200001D01*
X212115300Y-86485362D01*
X212176109Y-86764895D01*
X212276091Y-87032958D01*
X212413191Y-87284038D01*
X212413196Y-87284046D01*
X212519882Y-87426562D01*
X212519883Y-87426563D01*
X213237425Y-86709020D01*
X213323249Y-86837463D01*
X213462537Y-86976751D01*
X213590978Y-87062573D01*
X212873435Y-87780115D01*
X212873436Y-87780116D01*
X213015953Y-87886803D01*
X213015961Y-87886808D01*
X213267042Y-88023908D01*
X213267041Y-88023908D01*
X213535104Y-88123890D01*
X213814637Y-88184699D01*
X214099999Y-88205109D01*
X214100001Y-88205109D01*
X214385362Y-88184699D01*
X214664895Y-88123890D01*
X214932958Y-88023908D01*
X215184038Y-87886808D01*
X215184039Y-87886807D01*
X215326563Y-87780115D01*
X214609020Y-87062573D01*
X214737463Y-86976751D01*
X214876751Y-86837463D01*
X214962573Y-86709020D01*
X215680115Y-87426563D01*
X215786807Y-87284039D01*
X215786808Y-87284038D01*
X215923908Y-87032958D01*
X216023890Y-86764895D01*
X216084699Y-86485362D01*
X216105109Y-86200001D01*
X216105109Y-86199998D01*
X216084699Y-85914637D01*
X216023890Y-85635104D01*
X215923908Y-85367041D01*
X215786808Y-85115961D01*
X215786803Y-85115953D01*
X215759738Y-85079798D01*
X216152736Y-85079798D01*
X216152736Y-85079801D01*
X216171792Y-85224552D01*
X216171794Y-85224557D01*
X216227663Y-85359438D01*
X216227666Y-85359444D01*
X216316546Y-85475273D01*
X216316547Y-85475274D01*
X216432376Y-85564154D01*
X216432382Y-85564157D01*
X216499822Y-85592091D01*
X216567267Y-85620028D01*
X216639644Y-85629556D01*
X216712020Y-85639085D01*
X216712021Y-85639085D01*
X216712022Y-85639085D01*
X216760272Y-85632732D01*
X216856775Y-85620028D01*
X216991664Y-85564155D01*
X217107495Y-85475274D01*
X217196376Y-85359443D01*
X217220999Y-85299998D01*
X222040715Y-85299998D01*
X222040715Y-85300001D01*
X222059771Y-85444752D01*
X222059773Y-85444757D01*
X222115642Y-85579638D01*
X222115645Y-85579644D01*
X222204525Y-85695473D01*
X222204526Y-85695474D01*
X222320355Y-85784354D01*
X222320361Y-85784357D01*
X222354752Y-85798602D01*
X222455246Y-85840228D01*
X222502477Y-85846446D01*
X222599999Y-85859285D01*
X222600000Y-85859285D01*
X222600001Y-85859285D01*
X222676733Y-85849183D01*
X222744754Y-85840228D01*
X222879643Y-85784355D01*
X222995474Y-85695474D01*
X223084355Y-85579643D01*
X223140228Y-85444754D01*
X223159285Y-85300000D01*
X223149352Y-85224554D01*
X223140228Y-85155247D01*
X223140228Y-85155246D01*
X223084355Y-85020358D01*
X222995474Y-84904526D01*
X222879643Y-84815645D01*
X222879640Y-84815644D01*
X222879638Y-84815642D01*
X222744757Y-84759773D01*
X222744752Y-84759771D01*
X222600001Y-84740715D01*
X222599999Y-84740715D01*
X222455247Y-84759771D01*
X222455245Y-84759772D01*
X222320361Y-84815643D01*
X222320358Y-84815644D01*
X222320358Y-84815645D01*
X222204526Y-84904526D01*
X222136365Y-84993356D01*
X222115643Y-85020361D01*
X222059772Y-85155245D01*
X222059771Y-85155247D01*
X222040715Y-85299998D01*
X217220999Y-85299998D01*
X217252249Y-85224554D01*
X217271306Y-85079800D01*
X217263480Y-85020358D01*
X217252249Y-84935047D01*
X217252249Y-84935046D01*
X217196376Y-84800158D01*
X217107495Y-84684326D01*
X216991664Y-84595445D01*
X216991661Y-84595444D01*
X216991659Y-84595442D01*
X216856778Y-84539573D01*
X216856773Y-84539571D01*
X216712022Y-84520515D01*
X216712020Y-84520515D01*
X216567268Y-84539571D01*
X216567266Y-84539572D01*
X216432382Y-84595443D01*
X216432379Y-84595444D01*
X216432379Y-84595445D01*
X216316547Y-84684326D01*
X216258655Y-84759773D01*
X216227664Y-84800161D01*
X216171793Y-84935045D01*
X216171792Y-84935047D01*
X216152736Y-85079798D01*
X215759738Y-85079798D01*
X215680116Y-84973436D01*
X215680115Y-84973435D01*
X214962572Y-85690978D01*
X214876751Y-85562537D01*
X214737463Y-85423249D01*
X214609020Y-85337425D01*
X215326563Y-84619883D01*
X215326562Y-84619882D01*
X215184046Y-84513196D01*
X215184038Y-84513191D01*
X214932957Y-84376091D01*
X214932958Y-84376091D01*
X214664895Y-84276109D01*
X214385362Y-84215300D01*
X214100001Y-84194891D01*
X214099999Y-84194891D01*
X213814637Y-84215300D01*
X213535104Y-84276109D01*
X213267041Y-84376091D01*
X213015961Y-84513191D01*
X213015953Y-84513196D01*
X212873435Y-84619882D01*
X213590979Y-85337426D01*
X213462537Y-85423249D01*
X213323249Y-85562537D01*
X213237426Y-85690979D01*
X212519882Y-84973435D01*
X212413196Y-85115953D01*
X212413191Y-85115961D01*
X212276091Y-85367041D01*
X212176109Y-85635104D01*
X212115300Y-85914637D01*
X212094891Y-86199998D01*
X206361362Y-86199998D01*
X206306303Y-86157750D01*
X206306302Y-86157749D01*
X206306299Y-86157747D01*
X206096222Y-86036459D01*
X206096215Y-86036456D01*
X205872114Y-85943630D01*
X205637795Y-85880844D01*
X205397299Y-85849183D01*
X205397298Y-85849183D01*
X205154722Y-85849183D01*
X205154721Y-85849183D01*
X204914224Y-85880844D01*
X204679905Y-85943630D01*
X204455804Y-86036456D01*
X204455795Y-86036460D01*
X204245716Y-86157750D01*
X204053273Y-86305416D01*
X204053266Y-86305422D01*
X203881749Y-86476939D01*
X203881743Y-86476946D01*
X203734077Y-86669389D01*
X203612787Y-86879468D01*
X203612783Y-86879477D01*
X203519957Y-87103578D01*
X203457171Y-87337897D01*
X203425510Y-87578394D01*
X201508580Y-87578394D01*
X201584355Y-87479643D01*
X201640228Y-87344754D01*
X201659285Y-87200000D01*
X201656604Y-87179638D01*
X201642331Y-87071219D01*
X201640228Y-87055246D01*
X201584355Y-86920358D01*
X201495474Y-86804526D01*
X201379643Y-86715645D01*
X201379640Y-86715644D01*
X201379638Y-86715642D01*
X201244757Y-86659773D01*
X201244752Y-86659771D01*
X201100001Y-86640715D01*
X201099999Y-86640715D01*
X200955247Y-86659771D01*
X200955242Y-86659773D01*
X200852521Y-86702321D01*
X200783051Y-86709790D01*
X200720572Y-86678514D01*
X200690507Y-86635211D01*
X200684355Y-86620358D01*
X200595474Y-86504526D01*
X200479643Y-86415645D01*
X200479640Y-86415644D01*
X200479638Y-86415642D01*
X200344757Y-86359773D01*
X200344752Y-86359771D01*
X200200001Y-86340715D01*
X200199999Y-86340715D01*
X200055247Y-86359771D01*
X200055245Y-86359772D01*
X199920361Y-86415643D01*
X199920358Y-86415644D01*
X199920358Y-86415645D01*
X199804526Y-86504526D01*
X199719262Y-86615645D01*
X199715643Y-86620361D01*
X199659772Y-86755245D01*
X199659771Y-86755247D01*
X199640715Y-86899998D01*
X197873714Y-86899998D01*
X197899412Y-86866508D01*
X197955285Y-86731619D01*
X197970553Y-86615643D01*
X197974342Y-86586866D01*
X197974342Y-86586863D01*
X197955285Y-86442112D01*
X197955285Y-86442111D01*
X197899412Y-86307223D01*
X197810531Y-86191391D01*
X197694700Y-86102510D01*
X197694697Y-86102509D01*
X197694695Y-86102507D01*
X197559814Y-86046638D01*
X197559809Y-86046636D01*
X197415058Y-86027580D01*
X197415056Y-86027580D01*
X197270304Y-86046636D01*
X197270302Y-86046637D01*
X197135418Y-86102508D01*
X197135415Y-86102509D01*
X197135415Y-86102510D01*
X197019583Y-86191391D01*
X196937403Y-86298491D01*
X196930700Y-86307226D01*
X196874829Y-86442110D01*
X196874828Y-86442112D01*
X196855772Y-86586863D01*
X193310159Y-86586863D01*
X193244757Y-86559773D01*
X193244752Y-86559771D01*
X193100001Y-86540715D01*
X193099999Y-86540715D01*
X192955247Y-86559771D01*
X192955245Y-86559772D01*
X192820361Y-86615643D01*
X192820358Y-86615644D01*
X192820358Y-86615645D01*
X192704526Y-86704526D01*
X192619262Y-86815645D01*
X192615643Y-86820361D01*
X192559772Y-86955245D01*
X192559771Y-86955247D01*
X192540715Y-87099998D01*
X189817343Y-87099998D01*
X189784355Y-87020358D01*
X189695474Y-86904526D01*
X189579643Y-86815645D01*
X189579640Y-86815644D01*
X189579638Y-86815642D01*
X189444757Y-86759773D01*
X189444752Y-86759771D01*
X189300001Y-86740715D01*
X189299999Y-86740715D01*
X189155247Y-86759771D01*
X189155245Y-86759772D01*
X189020361Y-86815643D01*
X189020358Y-86815644D01*
X189020358Y-86815645D01*
X188904526Y-86904526D01*
X188865607Y-86955247D01*
X188815643Y-87020361D01*
X188759772Y-87155245D01*
X188759771Y-87155247D01*
X188740715Y-87299998D01*
X180084694Y-87299998D01*
X180032064Y-87103583D01*
X179939234Y-86879471D01*
X179817946Y-86669394D01*
X179733830Y-86559772D01*
X179670276Y-86476946D01*
X179670270Y-86476939D01*
X179498753Y-86305422D01*
X179498746Y-86305416D01*
X179306303Y-86157750D01*
X179306302Y-86157749D01*
X179306299Y-86157747D01*
X179096222Y-86036459D01*
X179096215Y-86036456D01*
X178872114Y-85943630D01*
X178637795Y-85880844D01*
X178397299Y-85849183D01*
X178397298Y-85849183D01*
X178154722Y-85849183D01*
X178154721Y-85849183D01*
X177914224Y-85880844D01*
X177679905Y-85943630D01*
X177455804Y-86036456D01*
X177455795Y-86036460D01*
X177245716Y-86157750D01*
X177053273Y-86305416D01*
X177053266Y-86305422D01*
X176881749Y-86476939D01*
X176881743Y-86476946D01*
X176734077Y-86669389D01*
X176612787Y-86879468D01*
X176612783Y-86879477D01*
X176519957Y-87103578D01*
X176457171Y-87337897D01*
X176425510Y-87578394D01*
X170576815Y-87578394D01*
X170523890Y-87335104D01*
X170423908Y-87067041D01*
X170286808Y-86815961D01*
X170286803Y-86815953D01*
X170180116Y-86673436D01*
X170180115Y-86673435D01*
X169462572Y-87390978D01*
X169376751Y-87262537D01*
X169237463Y-87123249D01*
X169109020Y-87037425D01*
X169826563Y-86319883D01*
X169826562Y-86319882D01*
X169684046Y-86213196D01*
X169684038Y-86213191D01*
X169432957Y-86076091D01*
X169432958Y-86076091D01*
X169164895Y-85976109D01*
X168885362Y-85915300D01*
X168600001Y-85894891D01*
X168599999Y-85894891D01*
X168314637Y-85915300D01*
X168035104Y-85976109D01*
X167767041Y-86076091D01*
X167515961Y-86213191D01*
X167515953Y-86213196D01*
X167373435Y-86319882D01*
X168090979Y-87037426D01*
X167962537Y-87123249D01*
X167823249Y-87262537D01*
X167737426Y-87390979D01*
X167019882Y-86673435D01*
X166913196Y-86815953D01*
X166913191Y-86815961D01*
X166776091Y-87067042D01*
X166776086Y-87067054D01*
X166715021Y-87230773D01*
X166673150Y-87286707D01*
X166607685Y-87311123D01*
X166600722Y-87311371D01*
X166455461Y-87330495D01*
X166455459Y-87330496D01*
X166320575Y-87386367D01*
X166320572Y-87386368D01*
X166320572Y-87386369D01*
X166204740Y-87475250D01*
X166121020Y-87584357D01*
X166115857Y-87591085D01*
X166059986Y-87725969D01*
X166059985Y-87725971D01*
X166040929Y-87870722D01*
X161942265Y-87870722D01*
X161940228Y-87855246D01*
X161884355Y-87720358D01*
X161795474Y-87604526D01*
X161679643Y-87515645D01*
X161679640Y-87515644D01*
X161679638Y-87515642D01*
X161544757Y-87459773D01*
X161544752Y-87459771D01*
X161400001Y-87440715D01*
X161399999Y-87440715D01*
X161255247Y-87459771D01*
X161255245Y-87459772D01*
X161120361Y-87515643D01*
X161120358Y-87515644D01*
X161120358Y-87515645D01*
X161004526Y-87604526D01*
X160965607Y-87655247D01*
X160915643Y-87720361D01*
X160859772Y-87855245D01*
X160859771Y-87855247D01*
X160840715Y-87999998D01*
X157068461Y-87999998D01*
X157026516Y-87781602D01*
X157025802Y-87777518D01*
X157024864Y-87771564D01*
X156842727Y-86615877D01*
X156842159Y-86611838D01*
X156741720Y-85798602D01*
X165841841Y-85798602D01*
X165841841Y-85798605D01*
X165860897Y-85943356D01*
X165860899Y-85943361D01*
X165916768Y-86078242D01*
X165916771Y-86078248D01*
X166005651Y-86194077D01*
X166005652Y-86194078D01*
X166121481Y-86282958D01*
X166121487Y-86282961D01*
X166188927Y-86310895D01*
X166256372Y-86338832D01*
X166328749Y-86348360D01*
X166401125Y-86357889D01*
X166401126Y-86357889D01*
X166401127Y-86357889D01*
X166449377Y-86351536D01*
X166545880Y-86338832D01*
X166680769Y-86282959D01*
X166796600Y-86194078D01*
X166885481Y-86078247D01*
X166941354Y-85943358D01*
X166960411Y-85798604D01*
X166958535Y-85784357D01*
X166941354Y-85653851D01*
X166941354Y-85653850D01*
X166885481Y-85518962D01*
X166796600Y-85403130D01*
X166680769Y-85314249D01*
X166680766Y-85314248D01*
X166680764Y-85314246D01*
X166545883Y-85258377D01*
X166545878Y-85258375D01*
X166401127Y-85239319D01*
X166401125Y-85239319D01*
X166256373Y-85258375D01*
X166256371Y-85258376D01*
X166121487Y-85314247D01*
X166121484Y-85314248D01*
X166121484Y-85314249D01*
X166005652Y-85403130D01*
X165973711Y-85444757D01*
X165916769Y-85518965D01*
X165860898Y-85653849D01*
X165860897Y-85653851D01*
X165841841Y-85798602D01*
X156741720Y-85798602D01*
X156698012Y-85444708D01*
X156697574Y-85440590D01*
X156694214Y-85403128D01*
X156649088Y-84899998D01*
X194540715Y-84899998D01*
X194540715Y-84900001D01*
X194559771Y-85044752D01*
X194559773Y-85044757D01*
X194615642Y-85179638D01*
X194615645Y-85179644D01*
X194704525Y-85295473D01*
X194704526Y-85295474D01*
X194820355Y-85384354D01*
X194820361Y-85384357D01*
X194887801Y-85412291D01*
X194955246Y-85440228D01*
X194989306Y-85444712D01*
X195099999Y-85459285D01*
X195100000Y-85459285D01*
X195100001Y-85459285D01*
X195148251Y-85452932D01*
X195244754Y-85440228D01*
X195379643Y-85384355D01*
X195495474Y-85295474D01*
X195584355Y-85179643D01*
X195640228Y-85044754D01*
X195658689Y-84904526D01*
X195659285Y-84900001D01*
X195659285Y-84899998D01*
X195640228Y-84755247D01*
X195640228Y-84755246D01*
X195584355Y-84620358D01*
X195495474Y-84504526D01*
X195379643Y-84415645D01*
X195379640Y-84415644D01*
X195379638Y-84415642D01*
X195244757Y-84359773D01*
X195244752Y-84359771D01*
X195100001Y-84340715D01*
X195099999Y-84340715D01*
X194955247Y-84359771D01*
X194955245Y-84359772D01*
X194820361Y-84415643D01*
X194820358Y-84415644D01*
X194820358Y-84415645D01*
X194704526Y-84504526D01*
X194616010Y-84619883D01*
X194615643Y-84620361D01*
X194559772Y-84755245D01*
X194559771Y-84755247D01*
X194540715Y-84899998D01*
X156649088Y-84899998D01*
X156592522Y-84269312D01*
X156592229Y-84265302D01*
X156566137Y-83799998D01*
X181740715Y-83799998D01*
X181740715Y-83800001D01*
X181759771Y-83944752D01*
X181759773Y-83944757D01*
X181815642Y-84079638D01*
X181815645Y-84079644D01*
X181904525Y-84195473D01*
X181904526Y-84195474D01*
X182020355Y-84284354D01*
X182020361Y-84284357D01*
X182087801Y-84312291D01*
X182155246Y-84340228D01*
X182227623Y-84349756D01*
X182299999Y-84359285D01*
X182300000Y-84359285D01*
X182300001Y-84359285D01*
X182348251Y-84352932D01*
X182444754Y-84340228D01*
X182579643Y-84284355D01*
X182695474Y-84195474D01*
X182784355Y-84079643D01*
X182840228Y-83944754D01*
X182842955Y-83924035D01*
X182871220Y-83860140D01*
X182929544Y-83821668D01*
X182999408Y-83820835D01*
X183041379Y-83841844D01*
X183096367Y-83884038D01*
X183096369Y-83884038D01*
X183096371Y-83884040D01*
X183163811Y-83911974D01*
X183231256Y-83939911D01*
X183303633Y-83949439D01*
X183376009Y-83958968D01*
X183376010Y-83958968D01*
X183376011Y-83958968D01*
X183432394Y-83951545D01*
X183520764Y-83939911D01*
X183655653Y-83884038D01*
X183771484Y-83795157D01*
X183860365Y-83679326D01*
X183916238Y-83544437D01*
X183929999Y-83439909D01*
X183935295Y-83399684D01*
X183935295Y-83399681D01*
X183916876Y-83259773D01*
X183916238Y-83254929D01*
X183860365Y-83120041D01*
X183771484Y-83004209D01*
X183655653Y-82915328D01*
X183655650Y-82915327D01*
X183655648Y-82915325D01*
X183520767Y-82859456D01*
X183520762Y-82859454D01*
X183376011Y-82840398D01*
X183376009Y-82840398D01*
X183231257Y-82859454D01*
X183231255Y-82859455D01*
X183096371Y-82915326D01*
X183096368Y-82915327D01*
X183096368Y-82915328D01*
X182980536Y-83004209D01*
X182913849Y-83091118D01*
X182891653Y-83120044D01*
X182835782Y-83254928D01*
X182835782Y-83254929D01*
X182833054Y-83275649D01*
X182804786Y-83339545D01*
X182746460Y-83378015D01*
X182676596Y-83378845D01*
X182634629Y-83357837D01*
X182579643Y-83315645D01*
X182579638Y-83315642D01*
X182444757Y-83259773D01*
X182444752Y-83259771D01*
X182300001Y-83240715D01*
X182299999Y-83240715D01*
X182155247Y-83259771D01*
X182155245Y-83259772D01*
X182020361Y-83315643D01*
X182020358Y-83315644D01*
X182020358Y-83315645D01*
X181904526Y-83404526D01*
X181877133Y-83440226D01*
X181815643Y-83520361D01*
X181759772Y-83655245D01*
X181759771Y-83655247D01*
X181740715Y-83799998D01*
X156566137Y-83799998D01*
X156526382Y-83091051D01*
X156526223Y-83086976D01*
X156526083Y-83080781D01*
X156517481Y-82699998D01*
X159061493Y-82699998D01*
X159061493Y-82700001D01*
X159079841Y-82839374D01*
X159079843Y-82839379D01*
X159133637Y-82969252D01*
X159133639Y-82969255D01*
X159219217Y-83080781D01*
X159219218Y-83080782D01*
X159330744Y-83166360D01*
X159330747Y-83166362D01*
X159401029Y-83195473D01*
X159460624Y-83220158D01*
X159530312Y-83229332D01*
X159599999Y-83238507D01*
X159600000Y-83238507D01*
X159600001Y-83238507D01*
X159646458Y-83232390D01*
X159739376Y-83220158D01*
X159869254Y-83166361D01*
X159980782Y-83080782D01*
X160066361Y-82969254D01*
X160120158Y-82839376D01*
X160138507Y-82700000D01*
X160136447Y-82684355D01*
X160120158Y-82560625D01*
X160120156Y-82560620D01*
X160096920Y-82504524D01*
X160086615Y-82479644D01*
X160066363Y-82430751D01*
X160066362Y-82430750D01*
X160066361Y-82430747D01*
X159980782Y-82319218D01*
X159980780Y-82319217D01*
X159980780Y-82319216D01*
X159869254Y-82233639D01*
X159869252Y-82233637D01*
X159739379Y-82179843D01*
X159739374Y-82179841D01*
X159600001Y-82161493D01*
X159599999Y-82161493D01*
X159460625Y-82179841D01*
X159460620Y-82179843D01*
X159330751Y-82233636D01*
X159330750Y-82233637D01*
X159330747Y-82233638D01*
X159330747Y-82233639D01*
X159219218Y-82319218D01*
X159145230Y-82415642D01*
X159133637Y-82430750D01*
X159133636Y-82430751D01*
X159079843Y-82560620D01*
X159079841Y-82560625D01*
X159061493Y-82699998D01*
X156517481Y-82699998D01*
X156499665Y-81911332D01*
X156499641Y-81907203D01*
X156500626Y-81816413D01*
X156500629Y-81816177D01*
X185532532Y-81816177D01*
X185532532Y-81816180D01*
X185551588Y-81960931D01*
X185551590Y-81960936D01*
X185607459Y-82095817D01*
X185607462Y-82095823D01*
X185696342Y-82211652D01*
X185696343Y-82211653D01*
X185812172Y-82300533D01*
X185812178Y-82300536D01*
X185848650Y-82315643D01*
X185947063Y-82356407D01*
X185999338Y-82363289D01*
X186045999Y-82369432D01*
X186109896Y-82397698D01*
X186148367Y-82456023D01*
X186152753Y-82508555D01*
X186140715Y-82599997D01*
X186140715Y-82600001D01*
X186159771Y-82744752D01*
X186159773Y-82744757D01*
X186215642Y-82879638D01*
X186215645Y-82879644D01*
X186304525Y-82995473D01*
X186304526Y-82995474D01*
X186420355Y-83084354D01*
X186420361Y-83084357D01*
X186431684Y-83089047D01*
X186555246Y-83140228D01*
X186627623Y-83149756D01*
X186699999Y-83159285D01*
X186700000Y-83159285D01*
X186700001Y-83159285D01*
X186748251Y-83152932D01*
X186844754Y-83140228D01*
X186979643Y-83084355D01*
X187095474Y-82995474D01*
X187168979Y-82899681D01*
X189816725Y-82899681D01*
X189816725Y-82899684D01*
X189835781Y-83044435D01*
X189835783Y-83044440D01*
X189891652Y-83179321D01*
X189891655Y-83179327D01*
X189980535Y-83295156D01*
X189980536Y-83295157D01*
X190096365Y-83384037D01*
X190096371Y-83384040D01*
X190145829Y-83404526D01*
X190231256Y-83439911D01*
X190303633Y-83449439D01*
X190376009Y-83458968D01*
X190376010Y-83458968D01*
X190376011Y-83458968D01*
X190424261Y-83452615D01*
X190520764Y-83439911D01*
X190655653Y-83384038D01*
X190771484Y-83295157D01*
X190860365Y-83179326D01*
X190916238Y-83044437D01*
X190928856Y-82948586D01*
X190957122Y-82884692D01*
X191015446Y-82846220D01*
X191085311Y-82845388D01*
X191099247Y-82850211D01*
X191211890Y-82896870D01*
X191235673Y-82900001D01*
X191356643Y-82915927D01*
X191356644Y-82915927D01*
X191356645Y-82915927D01*
X191404895Y-82909574D01*
X191477637Y-82899998D01*
X222768115Y-82899998D01*
X222768115Y-82900001D01*
X222787171Y-83044752D01*
X222787173Y-83044757D01*
X222843042Y-83179638D01*
X222843045Y-83179644D01*
X222931925Y-83295473D01*
X222931926Y-83295474D01*
X223047755Y-83384354D01*
X223047761Y-83384357D01*
X223084757Y-83399681D01*
X223182646Y-83440228D01*
X223255023Y-83449756D01*
X223327399Y-83459285D01*
X223327400Y-83459285D01*
X223327401Y-83459285D01*
X223375651Y-83452932D01*
X223472154Y-83440228D01*
X223607043Y-83384355D01*
X223722874Y-83295474D01*
X223811755Y-83179643D01*
X223867628Y-83044754D01*
X223884667Y-82915326D01*
X223886685Y-82900001D01*
X223886685Y-82899998D01*
X223873520Y-82799998D01*
X224440715Y-82799998D01*
X224440715Y-82800001D01*
X224459771Y-82944752D01*
X224459773Y-82944757D01*
X224515642Y-83079638D01*
X224515645Y-83079644D01*
X224604525Y-83195473D01*
X224604526Y-83195474D01*
X224720355Y-83284354D01*
X224720361Y-83284357D01*
X224787801Y-83312291D01*
X224855246Y-83340228D01*
X224927623Y-83349756D01*
X224999999Y-83359285D01*
X225000000Y-83359285D01*
X225000001Y-83359285D01*
X225048251Y-83352932D01*
X225144754Y-83340228D01*
X225279643Y-83284355D01*
X225395474Y-83195474D01*
X225484355Y-83079643D01*
X225540228Y-82944754D01*
X225559285Y-82800000D01*
X225553351Y-82754930D01*
X225540228Y-82655247D01*
X225540228Y-82655246D01*
X225484355Y-82520358D01*
X225395474Y-82404526D01*
X225279643Y-82315645D01*
X225279640Y-82315644D01*
X225279638Y-82315642D01*
X225144757Y-82259773D01*
X225144752Y-82259771D01*
X225000001Y-82240715D01*
X224999999Y-82240715D01*
X224855247Y-82259771D01*
X224855245Y-82259772D01*
X224720361Y-82315643D01*
X224720358Y-82315644D01*
X224720358Y-82315645D01*
X224604526Y-82404526D01*
X224527794Y-82504526D01*
X224515643Y-82520361D01*
X224459772Y-82655245D01*
X224459771Y-82655247D01*
X224440715Y-82799998D01*
X223873520Y-82799998D01*
X223868160Y-82759285D01*
X223867628Y-82755246D01*
X223811755Y-82620358D01*
X223722874Y-82504526D01*
X223607043Y-82415645D01*
X223607040Y-82415644D01*
X223607038Y-82415642D01*
X223472157Y-82359773D01*
X223472152Y-82359771D01*
X223327401Y-82340715D01*
X223327399Y-82340715D01*
X223182647Y-82359771D01*
X223182645Y-82359772D01*
X223047761Y-82415643D01*
X223047758Y-82415644D01*
X223047758Y-82415645D01*
X222931926Y-82504526D01*
X222843289Y-82620041D01*
X222843043Y-82620361D01*
X222787172Y-82755245D01*
X222787171Y-82755247D01*
X222768115Y-82899998D01*
X191477637Y-82899998D01*
X191501398Y-82896870D01*
X191636287Y-82840997D01*
X191752118Y-82752116D01*
X191840999Y-82636285D01*
X191896872Y-82501396D01*
X191913451Y-82375464D01*
X191915929Y-82356643D01*
X191915929Y-82356640D01*
X191900667Y-82240715D01*
X191896872Y-82211888D01*
X191891947Y-82199998D01*
X197440715Y-82199998D01*
X197440715Y-82200001D01*
X197459771Y-82344752D01*
X197459773Y-82344757D01*
X197515642Y-82479638D01*
X197515645Y-82479644D01*
X197604525Y-82595473D01*
X197604526Y-82595474D01*
X197720355Y-82684354D01*
X197720361Y-82684357D01*
X197787801Y-82712291D01*
X197855246Y-82740228D01*
X197889610Y-82744752D01*
X197999999Y-82759285D01*
X198000000Y-82759285D01*
X198000001Y-82759285D01*
X198048251Y-82752932D01*
X198144754Y-82740228D01*
X198279643Y-82684355D01*
X198395474Y-82595474D01*
X198484355Y-82479643D01*
X198540228Y-82344754D01*
X198558689Y-82204526D01*
X198559285Y-82200001D01*
X198559285Y-82199998D01*
X198546120Y-82099998D01*
X213840715Y-82099998D01*
X213840715Y-82100001D01*
X213859771Y-82244752D01*
X213859773Y-82244757D01*
X213915642Y-82379638D01*
X213915645Y-82379644D01*
X214004525Y-82495473D01*
X214004526Y-82495474D01*
X214120355Y-82584354D01*
X214120361Y-82584357D01*
X214187801Y-82612291D01*
X214255246Y-82640228D01*
X214327623Y-82649756D01*
X214399999Y-82659285D01*
X214400000Y-82659285D01*
X214400001Y-82659285D01*
X214448251Y-82652932D01*
X214544754Y-82640228D01*
X214679643Y-82584355D01*
X214795474Y-82495474D01*
X214884355Y-82379643D01*
X214940228Y-82244754D01*
X214959285Y-82100000D01*
X214958734Y-82095817D01*
X214940228Y-81955247D01*
X214940228Y-81955246D01*
X214884355Y-81820358D01*
X214795474Y-81704526D01*
X214679643Y-81615645D01*
X214679640Y-81615644D01*
X214679638Y-81615642D01*
X214544757Y-81559773D01*
X214544752Y-81559771D01*
X214400001Y-81540715D01*
X214399999Y-81540715D01*
X214255247Y-81559771D01*
X214255245Y-81559772D01*
X214120361Y-81615643D01*
X214120358Y-81615644D01*
X214120358Y-81615645D01*
X214004526Y-81704526D01*
X213918672Y-81816414D01*
X213915643Y-81820361D01*
X213859772Y-81955245D01*
X213859771Y-81955247D01*
X213840715Y-82099998D01*
X198546120Y-82099998D01*
X198540228Y-82055247D01*
X198540228Y-82055246D01*
X198484355Y-81920358D01*
X198395474Y-81804526D01*
X198279643Y-81715645D01*
X198279640Y-81715644D01*
X198279638Y-81715642D01*
X198144757Y-81659773D01*
X198144752Y-81659771D01*
X198000001Y-81640715D01*
X197999999Y-81640715D01*
X197855247Y-81659771D01*
X197855245Y-81659772D01*
X197720361Y-81715643D01*
X197720358Y-81715644D01*
X197720358Y-81715645D01*
X197604526Y-81804526D01*
X197525419Y-81907621D01*
X197515643Y-81920361D01*
X197459772Y-82055245D01*
X197459771Y-82055247D01*
X197440715Y-82199998D01*
X191891947Y-82199998D01*
X191840999Y-82077000D01*
X191752118Y-81961168D01*
X191636287Y-81872287D01*
X191636284Y-81872286D01*
X191636282Y-81872284D01*
X191501401Y-81816415D01*
X191501396Y-81816413D01*
X191356645Y-81797357D01*
X191356643Y-81797357D01*
X191211891Y-81816413D01*
X191211889Y-81816414D01*
X191077005Y-81872285D01*
X191077002Y-81872286D01*
X191077002Y-81872287D01*
X190961170Y-81961168D01*
X190888982Y-82055246D01*
X190872287Y-82077003D01*
X190816416Y-82211887D01*
X190816416Y-82211888D01*
X190803797Y-82307737D01*
X190775530Y-82371633D01*
X190717206Y-82410104D01*
X190647341Y-82410935D01*
X190633406Y-82406112D01*
X190520767Y-82359456D01*
X190520762Y-82359454D01*
X190376011Y-82340398D01*
X190376009Y-82340398D01*
X190231257Y-82359454D01*
X190231255Y-82359455D01*
X190096371Y-82415326D01*
X190096368Y-82415327D01*
X190096368Y-82415328D01*
X189980536Y-82504209D01*
X189907036Y-82599997D01*
X189891653Y-82620044D01*
X189835782Y-82754928D01*
X189835781Y-82754930D01*
X189816725Y-82899681D01*
X187168979Y-82899681D01*
X187184355Y-82879643D01*
X187240228Y-82744754D01*
X187254043Y-82639814D01*
X187259285Y-82600001D01*
X187259285Y-82599998D01*
X187240228Y-82455247D01*
X187240228Y-82455246D01*
X187184355Y-82320358D01*
X187095474Y-82204526D01*
X186979643Y-82115645D01*
X186979640Y-82115644D01*
X186979638Y-82115642D01*
X186844757Y-82059773D01*
X186844755Y-82059772D01*
X186844754Y-82059772D01*
X186810383Y-82055247D01*
X186745816Y-82046746D01*
X186681919Y-82018479D01*
X186643449Y-81960154D01*
X186639063Y-81907623D01*
X186651102Y-81816179D01*
X186632045Y-81671425D01*
X186576172Y-81536537D01*
X186487291Y-81420705D01*
X186371460Y-81331824D01*
X186371457Y-81331823D01*
X186371455Y-81331821D01*
X186236574Y-81275952D01*
X186236569Y-81275950D01*
X186091818Y-81256894D01*
X186091816Y-81256894D01*
X185947064Y-81275950D01*
X185947062Y-81275951D01*
X185812178Y-81331822D01*
X185812175Y-81331823D01*
X185812175Y-81331824D01*
X185696346Y-81420703D01*
X185696343Y-81420705D01*
X185607460Y-81536540D01*
X185551589Y-81671424D01*
X185551588Y-81671426D01*
X185532532Y-81816177D01*
X156500629Y-81816177D01*
X156512397Y-80731237D01*
X156512509Y-80727186D01*
X156527006Y-80399998D01*
X157161493Y-80399998D01*
X157161493Y-80400001D01*
X157179841Y-80539374D01*
X157179843Y-80539379D01*
X157233637Y-80669252D01*
X157233639Y-80669255D01*
X157319217Y-80780781D01*
X157319218Y-80780782D01*
X157430744Y-80866360D01*
X157430747Y-80866362D01*
X157474192Y-80884357D01*
X157560624Y-80920158D01*
X157630312Y-80929332D01*
X157699999Y-80938507D01*
X157700000Y-80938507D01*
X157700001Y-80938507D01*
X157746458Y-80932390D01*
X157839376Y-80920158D01*
X157969254Y-80866361D01*
X158080782Y-80780782D01*
X158166361Y-80669254D01*
X158220158Y-80539376D01*
X158234604Y-80429644D01*
X158238507Y-80400001D01*
X158238507Y-80399998D01*
X162740715Y-80399998D01*
X162740715Y-80400001D01*
X162759771Y-80544752D01*
X162759773Y-80544757D01*
X162815642Y-80679638D01*
X162815645Y-80679644D01*
X162904525Y-80795473D01*
X162904526Y-80795474D01*
X163020355Y-80884354D01*
X163020361Y-80884357D01*
X163087801Y-80912291D01*
X163155246Y-80940228D01*
X163227623Y-80949756D01*
X163299999Y-80959285D01*
X163300000Y-80959285D01*
X163416995Y-80943882D01*
X163486027Y-80954647D01*
X163538283Y-81001027D01*
X163557169Y-81068296D01*
X163556117Y-81083006D01*
X163540715Y-81199998D01*
X163540715Y-81200001D01*
X163559771Y-81344752D01*
X163559773Y-81344757D01*
X163615642Y-81479638D01*
X163615645Y-81479644D01*
X163704525Y-81595473D01*
X163704526Y-81595474D01*
X163820355Y-81684354D01*
X163820361Y-81684357D01*
X163869049Y-81704524D01*
X163955246Y-81740228D01*
X164027623Y-81749756D01*
X164099999Y-81759285D01*
X164100000Y-81759285D01*
X164100001Y-81759285D01*
X164148251Y-81752932D01*
X164244754Y-81740228D01*
X164379643Y-81684355D01*
X164495474Y-81595474D01*
X164584355Y-81479643D01*
X164640228Y-81344754D01*
X164659285Y-81200000D01*
X164659285Y-81199998D01*
X219140715Y-81199998D01*
X219140715Y-81200001D01*
X219159771Y-81344752D01*
X219159773Y-81344757D01*
X219215642Y-81479638D01*
X219215645Y-81479644D01*
X219304525Y-81595473D01*
X219304526Y-81595474D01*
X219420355Y-81684354D01*
X219420361Y-81684357D01*
X219469049Y-81704524D01*
X219555246Y-81740228D01*
X219627623Y-81749756D01*
X219699999Y-81759285D01*
X219700000Y-81759285D01*
X219700001Y-81759285D01*
X219748251Y-81752932D01*
X219844754Y-81740228D01*
X219979643Y-81684355D01*
X220095474Y-81595474D01*
X220184355Y-81479643D01*
X220240228Y-81344754D01*
X220259285Y-81200000D01*
X220240228Y-81055246D01*
X220184355Y-80920358D01*
X220095474Y-80804526D01*
X219979643Y-80715645D01*
X219979640Y-80715644D01*
X219979638Y-80715642D01*
X219844757Y-80659773D01*
X219844752Y-80659771D01*
X219700001Y-80640715D01*
X219699999Y-80640715D01*
X219555247Y-80659771D01*
X219555245Y-80659772D01*
X219420361Y-80715643D01*
X219420358Y-80715644D01*
X219420358Y-80715645D01*
X219304526Y-80804526D01*
X219215799Y-80920158D01*
X219215643Y-80920361D01*
X219159772Y-81055245D01*
X219159771Y-81055247D01*
X219140715Y-81199998D01*
X164659285Y-81199998D01*
X164640228Y-81055246D01*
X164584355Y-80920358D01*
X164495474Y-80804526D01*
X164379643Y-80715645D01*
X164379640Y-80715644D01*
X164379638Y-80715642D01*
X164244757Y-80659773D01*
X164244752Y-80659771D01*
X164100001Y-80640715D01*
X164099999Y-80640715D01*
X163983006Y-80656117D01*
X163913971Y-80645351D01*
X163861715Y-80598971D01*
X163842830Y-80531702D01*
X163843880Y-80517006D01*
X163859285Y-80400000D01*
X163840228Y-80255246D01*
X163784355Y-80120358D01*
X163695474Y-80004526D01*
X163689573Y-79999998D01*
X170940715Y-79999998D01*
X170940715Y-80000001D01*
X170959771Y-80144752D01*
X170959773Y-80144757D01*
X171015642Y-80279638D01*
X171015645Y-80279644D01*
X171104525Y-80395473D01*
X171104526Y-80395474D01*
X171220355Y-80484354D01*
X171220361Y-80484357D01*
X171287801Y-80512291D01*
X171355246Y-80540228D01*
X171395094Y-80545474D01*
X171499999Y-80559285D01*
X171500000Y-80559285D01*
X171500001Y-80559285D01*
X171548251Y-80552932D01*
X171644754Y-80540228D01*
X171779643Y-80484355D01*
X171895474Y-80395474D01*
X171984355Y-80279643D01*
X172021052Y-80191049D01*
X184539440Y-80191049D01*
X184539440Y-80191052D01*
X184558496Y-80335803D01*
X184558498Y-80335808D01*
X184614367Y-80470689D01*
X184614370Y-80470695D01*
X184703250Y-80586524D01*
X184703251Y-80586525D01*
X184819080Y-80675405D01*
X184819086Y-80675408D01*
X184854865Y-80690228D01*
X184953971Y-80731279D01*
X185026348Y-80740807D01*
X185098724Y-80750336D01*
X185098725Y-80750336D01*
X185098726Y-80750336D01*
X185146976Y-80743983D01*
X185243479Y-80731279D01*
X185378368Y-80675406D01*
X185494199Y-80586525D01*
X185583080Y-80470694D01*
X185638953Y-80335805D01*
X185658010Y-80191051D01*
X185648246Y-80116886D01*
X185659011Y-80047852D01*
X185705391Y-79995596D01*
X185723720Y-79986147D01*
X185791152Y-79958215D01*
X185860619Y-79950747D01*
X185923098Y-79982022D01*
X185953162Y-80025322D01*
X185961639Y-80045787D01*
X185961642Y-80045793D01*
X186050522Y-80161622D01*
X186050523Y-80161623D01*
X186166352Y-80250503D01*
X186166358Y-80250506D01*
X186227612Y-80275878D01*
X186301243Y-80306377D01*
X186373620Y-80315905D01*
X186445996Y-80325434D01*
X186445997Y-80325434D01*
X186445998Y-80325434D01*
X186494248Y-80319081D01*
X186590751Y-80306377D01*
X186725640Y-80250504D01*
X186841471Y-80161623D01*
X186850391Y-80149998D01*
X209290715Y-80149998D01*
X209290715Y-80150001D01*
X209309771Y-80294752D01*
X209309773Y-80294757D01*
X209365642Y-80429638D01*
X209365645Y-80429644D01*
X209454525Y-80545473D01*
X209454526Y-80545474D01*
X209570355Y-80634354D01*
X209570361Y-80634357D01*
X209622895Y-80656117D01*
X209705246Y-80690228D01*
X209777623Y-80699756D01*
X209849999Y-80709285D01*
X209850000Y-80709285D01*
X209850001Y-80709285D01*
X209898251Y-80702932D01*
X209994754Y-80690228D01*
X210129643Y-80634355D01*
X210245474Y-80545474D01*
X210334355Y-80429643D01*
X210390228Y-80294754D01*
X210409285Y-80150000D01*
X210408594Y-80144754D01*
X210390228Y-80005247D01*
X210390228Y-80005246D01*
X210334355Y-79870358D01*
X210280367Y-79800000D01*
X213090312Y-79800000D01*
X213110957Y-79943595D01*
X213110958Y-79943599D01*
X213157859Y-80046296D01*
X213171223Y-80075558D01*
X213266225Y-80185196D01*
X213344659Y-80235602D01*
X213388269Y-80263630D01*
X213527461Y-80304499D01*
X213527463Y-80304500D01*
X213527464Y-80304500D01*
X213672537Y-80304500D01*
X213672537Y-80304499D01*
X213811729Y-80263630D01*
X213811730Y-80263630D01*
X213816406Y-80260625D01*
X213933775Y-80185196D01*
X214028777Y-80075558D01*
X214075262Y-79973771D01*
X214089041Y-79943599D01*
X214089042Y-79943595D01*
X214090125Y-79936062D01*
X214109688Y-79800000D01*
X214089042Y-79656404D01*
X214089041Y-79656400D01*
X214040585Y-79550298D01*
X214028777Y-79524442D01*
X213933775Y-79414804D01*
X213865110Y-79370675D01*
X213811730Y-79336369D01*
X213672538Y-79295500D01*
X213672536Y-79295500D01*
X213527464Y-79295500D01*
X213527461Y-79295500D01*
X213388270Y-79336369D01*
X213388269Y-79336369D01*
X213266226Y-79414803D01*
X213266225Y-79414803D01*
X213266225Y-79414804D01*
X213227957Y-79458968D01*
X213171223Y-79524442D01*
X213171222Y-79524443D01*
X213110958Y-79656400D01*
X213110957Y-79656404D01*
X213090312Y-79800000D01*
X210280367Y-79800000D01*
X210245474Y-79754526D01*
X210129643Y-79665645D01*
X210129640Y-79665644D01*
X210129638Y-79665642D01*
X209994757Y-79609773D01*
X209994752Y-79609771D01*
X209850001Y-79590715D01*
X209849999Y-79590715D01*
X209705247Y-79609771D01*
X209705245Y-79609772D01*
X209570361Y-79665643D01*
X209570358Y-79665644D01*
X209570358Y-79665645D01*
X209454526Y-79754526D01*
X209372448Y-79861493D01*
X209365643Y-79870361D01*
X209309772Y-80005245D01*
X209309771Y-80005247D01*
X209290715Y-80149998D01*
X186850391Y-80149998D01*
X186930352Y-80045792D01*
X186986225Y-79910903D01*
X186998929Y-79814400D01*
X187005282Y-79766150D01*
X187005282Y-79766147D01*
X186986225Y-79621396D01*
X186986225Y-79621395D01*
X186930352Y-79486507D01*
X186841471Y-79370675D01*
X186725640Y-79281794D01*
X186725637Y-79281793D01*
X186725635Y-79281791D01*
X186590754Y-79225922D01*
X186590749Y-79225920D01*
X186445998Y-79206864D01*
X186445996Y-79206864D01*
X186301245Y-79225920D01*
X186219838Y-79259640D01*
X186150368Y-79267108D01*
X186087889Y-79235832D01*
X186057825Y-79192530D01*
X186049348Y-79172065D01*
X185960467Y-79056233D01*
X185844636Y-78967352D01*
X185844633Y-78967351D01*
X185844631Y-78967349D01*
X185709750Y-78911480D01*
X185709745Y-78911478D01*
X185620134Y-78899681D01*
X190116725Y-78899681D01*
X190116725Y-78899684D01*
X190135781Y-79044435D01*
X190135783Y-79044440D01*
X190191652Y-79179321D01*
X190191655Y-79179327D01*
X190280535Y-79295156D01*
X190280536Y-79295157D01*
X190396365Y-79384037D01*
X190396371Y-79384040D01*
X190463811Y-79411974D01*
X190531256Y-79439911D01*
X190603633Y-79449439D01*
X190676009Y-79458968D01*
X190676010Y-79458968D01*
X190676011Y-79458968D01*
X190731163Y-79451707D01*
X190820764Y-79439911D01*
X190955653Y-79384038D01*
X191071484Y-79295157D01*
X191160365Y-79179326D01*
X191216238Y-79044437D01*
X191235295Y-78899683D01*
X191216238Y-78754929D01*
X191160365Y-78620041D01*
X191071484Y-78504209D01*
X190955653Y-78415328D01*
X190955650Y-78415327D01*
X190955648Y-78415325D01*
X190820767Y-78359456D01*
X190820762Y-78359454D01*
X190676011Y-78340398D01*
X190676009Y-78340398D01*
X190531257Y-78359454D01*
X190531255Y-78359455D01*
X190396371Y-78415326D01*
X190396368Y-78415327D01*
X190396368Y-78415328D01*
X190395697Y-78415843D01*
X190280536Y-78504209D01*
X190191653Y-78620044D01*
X190135782Y-78754928D01*
X190135781Y-78754930D01*
X190116725Y-78899681D01*
X185620134Y-78899681D01*
X185564994Y-78892422D01*
X185564992Y-78892422D01*
X185420240Y-78911478D01*
X185420238Y-78911479D01*
X185285354Y-78967350D01*
X185285351Y-78967351D01*
X185285351Y-78967352D01*
X185169519Y-79056233D01*
X185090445Y-79159285D01*
X185080636Y-79172068D01*
X185024765Y-79306952D01*
X185024764Y-79306954D01*
X185005708Y-79451705D01*
X185005708Y-79451708D01*
X185015471Y-79525869D01*
X185004705Y-79594905D01*
X184958325Y-79647160D01*
X184939986Y-79656615D01*
X184819085Y-79706695D01*
X184819083Y-79706696D01*
X184703251Y-79795577D01*
X184614759Y-79910903D01*
X184614368Y-79911412D01*
X184558497Y-80046296D01*
X184558496Y-80046298D01*
X184539440Y-80191049D01*
X172021052Y-80191049D01*
X172040228Y-80144754D01*
X172058594Y-80005246D01*
X172059285Y-80000001D01*
X172059285Y-79999998D01*
X172046580Y-79903497D01*
X172040228Y-79855246D01*
X171984355Y-79720358D01*
X171895474Y-79604526D01*
X171779643Y-79515645D01*
X171779640Y-79515644D01*
X171779638Y-79515642D01*
X171644757Y-79459773D01*
X171644752Y-79459771D01*
X171500001Y-79440715D01*
X171499999Y-79440715D01*
X171355247Y-79459771D01*
X171355245Y-79459772D01*
X171220361Y-79515643D01*
X171220358Y-79515644D01*
X171220358Y-79515645D01*
X171104526Y-79604526D01*
X171077941Y-79639173D01*
X171015643Y-79720361D01*
X170959772Y-79855245D01*
X170959771Y-79855247D01*
X170940715Y-79999998D01*
X163689573Y-79999998D01*
X163579643Y-79915645D01*
X163579640Y-79915644D01*
X163579638Y-79915642D01*
X163444757Y-79859773D01*
X163444752Y-79859771D01*
X163300001Y-79840715D01*
X163299999Y-79840715D01*
X163155247Y-79859771D01*
X163155245Y-79859772D01*
X163020361Y-79915643D01*
X163020358Y-79915644D01*
X163020358Y-79915645D01*
X162904526Y-80004526D01*
X162872862Y-80045792D01*
X162815643Y-80120361D01*
X162759772Y-80255245D01*
X162759771Y-80255247D01*
X162740715Y-80399998D01*
X158238507Y-80399998D01*
X158224651Y-80294752D01*
X158220158Y-80260624D01*
X158179150Y-80161622D01*
X158166363Y-80130751D01*
X158166362Y-80130750D01*
X158166361Y-80130747D01*
X158080782Y-80019218D01*
X158080780Y-80019217D01*
X158080780Y-80019216D01*
X157969254Y-79933639D01*
X157969252Y-79933637D01*
X157839379Y-79879843D01*
X157839374Y-79879841D01*
X157700001Y-79861493D01*
X157699999Y-79861493D01*
X157560625Y-79879841D01*
X157560620Y-79879843D01*
X157430751Y-79933636D01*
X157430750Y-79933637D01*
X157430747Y-79933638D01*
X157430747Y-79933639D01*
X157319218Y-80019218D01*
X157241609Y-80120361D01*
X157233637Y-80130750D01*
X157233636Y-80130751D01*
X157179843Y-80260620D01*
X157179841Y-80260625D01*
X157161493Y-80399998D01*
X156527006Y-80399998D01*
X156564564Y-79552371D01*
X156564815Y-79548252D01*
X156567354Y-79515645D01*
X156656113Y-78375786D01*
X156656496Y-78371746D01*
X156786935Y-77202978D01*
X156787461Y-77198893D01*
X156788404Y-77192417D01*
X156822112Y-76960891D01*
X161140715Y-76960891D01*
X161140715Y-76960894D01*
X161159771Y-77105645D01*
X161159773Y-77105650D01*
X161215642Y-77240531D01*
X161215645Y-77240537D01*
X161304525Y-77356366D01*
X161304526Y-77356367D01*
X161420355Y-77445247D01*
X161420361Y-77445250D01*
X161454472Y-77459379D01*
X161555246Y-77501121D01*
X161627623Y-77510649D01*
X161699999Y-77520178D01*
X161699999Y-77520177D01*
X161700000Y-77520178D01*
X161793013Y-77507932D01*
X161862045Y-77518697D01*
X161914301Y-77565077D01*
X161932135Y-77614685D01*
X161947665Y-77732646D01*
X161947666Y-77732650D01*
X162003535Y-77867531D01*
X162003538Y-77867537D01*
X162092418Y-77983366D01*
X162092419Y-77983367D01*
X162208248Y-78072247D01*
X162208254Y-78072250D01*
X162275694Y-78100184D01*
X162343139Y-78128121D01*
X162415516Y-78137649D01*
X162487892Y-78147178D01*
X162487893Y-78147178D01*
X162487894Y-78147178D01*
X162540699Y-78140226D01*
X162632647Y-78128121D01*
X162767536Y-78072248D01*
X162883367Y-77983367D01*
X162972248Y-77867536D01*
X163028121Y-77732647D01*
X163045584Y-77599998D01*
X163047178Y-77587894D01*
X163047178Y-77587891D01*
X163029901Y-77456662D01*
X163028121Y-77443139D01*
X162972248Y-77308251D01*
X162883367Y-77192419D01*
X162767536Y-77103538D01*
X162767533Y-77103537D01*
X162767531Y-77103535D01*
X162632650Y-77047666D01*
X162632645Y-77047664D01*
X162487894Y-77028608D01*
X162487892Y-77028608D01*
X162394881Y-77040853D01*
X162325846Y-77030087D01*
X162273590Y-76983707D01*
X162255757Y-76934101D01*
X162240228Y-76816139D01*
X162233542Y-76799998D01*
X167340715Y-76799998D01*
X167340715Y-76800001D01*
X167359771Y-76944752D01*
X167359773Y-76944757D01*
X167415642Y-77079638D01*
X167415645Y-77079644D01*
X167504525Y-77195473D01*
X167504526Y-77195474D01*
X167620355Y-77284354D01*
X167620361Y-77284357D01*
X167656780Y-77299442D01*
X167755246Y-77340228D01*
X167827623Y-77349756D01*
X167899999Y-77359285D01*
X167900000Y-77359285D01*
X167900001Y-77359285D01*
X167957333Y-77351737D01*
X168044754Y-77340228D01*
X168179643Y-77284355D01*
X168295474Y-77195474D01*
X168368736Y-77099998D01*
X169840715Y-77099998D01*
X169840715Y-77100001D01*
X169859771Y-77244752D01*
X169859773Y-77244757D01*
X169915642Y-77379638D01*
X169915645Y-77379644D01*
X170004525Y-77495473D01*
X170004526Y-77495474D01*
X170120355Y-77584354D01*
X170120361Y-77584357D01*
X170162743Y-77601912D01*
X170255246Y-77640228D01*
X170289610Y-77644752D01*
X170399999Y-77659285D01*
X170400000Y-77659285D01*
X170400001Y-77659285D01*
X170483721Y-77648263D01*
X170544754Y-77640228D01*
X170679643Y-77584355D01*
X170795474Y-77495474D01*
X170884355Y-77379643D01*
X170940228Y-77244754D01*
X170958689Y-77104526D01*
X170959285Y-77100001D01*
X170959285Y-77099998D01*
X170943975Y-76983707D01*
X170940228Y-76955246D01*
X170884355Y-76820358D01*
X170795474Y-76704526D01*
X170679643Y-76615645D01*
X170679640Y-76615644D01*
X170679638Y-76615642D01*
X170544757Y-76559773D01*
X170544752Y-76559771D01*
X170400001Y-76540715D01*
X170399999Y-76540715D01*
X170255247Y-76559771D01*
X170255245Y-76559772D01*
X170120361Y-76615643D01*
X170120358Y-76615644D01*
X170120358Y-76615645D01*
X170004526Y-76704526D01*
X169918883Y-76816139D01*
X169915643Y-76820361D01*
X169859772Y-76955245D01*
X169859771Y-76955247D01*
X169840715Y-77099998D01*
X168368736Y-77099998D01*
X168384355Y-77079643D01*
X168440228Y-76944754D01*
X168452932Y-76848251D01*
X168459285Y-76800001D01*
X168459285Y-76799998D01*
X168440228Y-76655247D01*
X168440228Y-76655246D01*
X168384355Y-76520358D01*
X168295474Y-76404526D01*
X168179643Y-76315645D01*
X168179640Y-76315644D01*
X168179638Y-76315642D01*
X168044757Y-76259773D01*
X168044752Y-76259771D01*
X167900001Y-76240715D01*
X167899999Y-76240715D01*
X167755247Y-76259771D01*
X167755245Y-76259772D01*
X167620361Y-76315643D01*
X167620358Y-76315644D01*
X167620358Y-76315645D01*
X167504526Y-76404526D01*
X167415889Y-76520041D01*
X167415643Y-76520361D01*
X167359772Y-76655245D01*
X167359771Y-76655247D01*
X167340715Y-76799998D01*
X162233542Y-76799998D01*
X162184355Y-76681251D01*
X162095474Y-76565419D01*
X161979643Y-76476538D01*
X161979640Y-76476537D01*
X161979638Y-76476535D01*
X161844757Y-76420666D01*
X161844752Y-76420664D01*
X161700001Y-76401608D01*
X161699999Y-76401608D01*
X161555247Y-76420664D01*
X161555245Y-76420665D01*
X161420361Y-76476536D01*
X161420358Y-76476537D01*
X161420358Y-76476538D01*
X161304526Y-76565419D01*
X161235600Y-76655246D01*
X161215643Y-76681254D01*
X161159772Y-76816138D01*
X161159771Y-76816140D01*
X161140715Y-76960891D01*
X156822112Y-76960891D01*
X156956888Y-76035188D01*
X156957533Y-76031219D01*
X157165784Y-74873707D01*
X157166572Y-74869717D01*
X157203002Y-74699998D01*
X158640715Y-74699998D01*
X158640715Y-74700001D01*
X158659771Y-74844752D01*
X158659773Y-74844757D01*
X158715642Y-74979638D01*
X158715645Y-74979644D01*
X158804525Y-75095473D01*
X158804526Y-75095474D01*
X158920355Y-75184354D01*
X158920361Y-75184357D01*
X158987801Y-75212291D01*
X159055246Y-75240228D01*
X159127623Y-75249756D01*
X159199999Y-75259285D01*
X159200000Y-75259285D01*
X159200001Y-75259285D01*
X159248251Y-75252932D01*
X159344754Y-75240228D01*
X159479643Y-75184355D01*
X159595474Y-75095474D01*
X159684355Y-74979643D01*
X159740228Y-74844754D01*
X159753989Y-74740226D01*
X159759285Y-74700001D01*
X159759285Y-74699998D01*
X159740228Y-74555247D01*
X159740228Y-74555246D01*
X159684355Y-74420358D01*
X159595474Y-74304526D01*
X159479643Y-74215645D01*
X159479640Y-74215644D01*
X159479638Y-74215642D01*
X159441870Y-74199998D01*
X165440715Y-74199998D01*
X165440715Y-74200001D01*
X165459771Y-74344752D01*
X165459773Y-74344757D01*
X165515642Y-74479638D01*
X165515645Y-74479644D01*
X165604525Y-74595473D01*
X165604526Y-74595474D01*
X165720355Y-74684354D01*
X165720361Y-74684357D01*
X165762610Y-74701857D01*
X165855246Y-74740228D01*
X165889610Y-74744752D01*
X165999999Y-74759285D01*
X166000000Y-74759285D01*
X166000001Y-74759285D01*
X166070527Y-74750000D01*
X166144754Y-74740228D01*
X166279643Y-74684355D01*
X166395474Y-74595474D01*
X166484355Y-74479643D01*
X166540228Y-74344754D01*
X166558689Y-74204526D01*
X166559285Y-74200001D01*
X166559285Y-74199998D01*
X166540228Y-74055247D01*
X166540228Y-74055246D01*
X166484355Y-73920358D01*
X166395474Y-73804526D01*
X166279643Y-73715645D01*
X166279640Y-73715644D01*
X166279638Y-73715642D01*
X166144757Y-73659773D01*
X166144752Y-73659771D01*
X166000001Y-73640715D01*
X165999999Y-73640715D01*
X165855247Y-73659771D01*
X165855245Y-73659772D01*
X165720361Y-73715643D01*
X165720358Y-73715644D01*
X165720358Y-73715645D01*
X165604526Y-73804526D01*
X165519262Y-73915645D01*
X165515643Y-73920361D01*
X165459772Y-74055245D01*
X165459771Y-74055247D01*
X165440715Y-74199998D01*
X159441870Y-74199998D01*
X159344757Y-74159773D01*
X159344752Y-74159771D01*
X159200001Y-74140715D01*
X159199999Y-74140715D01*
X159055247Y-74159771D01*
X159055245Y-74159772D01*
X158920361Y-74215643D01*
X158920358Y-74215644D01*
X158920358Y-74215645D01*
X158804526Y-74304526D01*
X158731266Y-74400001D01*
X158715643Y-74420361D01*
X158659772Y-74555245D01*
X158659771Y-74555247D01*
X158640715Y-74699998D01*
X157203002Y-74699998D01*
X157413370Y-73719949D01*
X157414304Y-73715926D01*
X157417154Y-73704524D01*
X157583702Y-73038033D01*
X157619052Y-72977766D01*
X157681373Y-72946177D01*
X157704003Y-72944095D01*
X170083842Y-72944095D01*
X170150881Y-72963780D01*
X170196636Y-73016584D01*
X170206580Y-73085742D01*
X170177555Y-73149298D01*
X170118777Y-73187072D01*
X170115935Y-73187870D01*
X169971516Y-73226566D01*
X169971507Y-73226570D01*
X169757422Y-73326399D01*
X169757420Y-73326400D01*
X169563926Y-73461886D01*
X169563920Y-73461891D01*
X169396891Y-73628920D01*
X169396886Y-73628926D01*
X169261400Y-73822420D01*
X169261399Y-73822422D01*
X169161570Y-74036507D01*
X169161567Y-74036513D01*
X169104364Y-74249999D01*
X169104364Y-74250000D01*
X170001988Y-74250000D01*
X169969075Y-74307007D01*
X169935000Y-74434174D01*
X169935000Y-74565826D01*
X169969075Y-74692993D01*
X170001988Y-74750000D01*
X169104364Y-74750000D01*
X169161567Y-74963486D01*
X169161570Y-74963492D01*
X169261399Y-75177578D01*
X169396894Y-75371082D01*
X169563917Y-75538105D01*
X169757421Y-75673600D01*
X169971507Y-75773429D01*
X169971516Y-75773433D01*
X170185000Y-75830634D01*
X170185000Y-74933012D01*
X170242007Y-74965925D01*
X170369174Y-75000000D01*
X170500826Y-75000000D01*
X170627993Y-74965925D01*
X170685000Y-74933012D01*
X170685000Y-75830633D01*
X170898483Y-75773433D01*
X170898492Y-75773429D01*
X171112578Y-75673600D01*
X171306082Y-75538105D01*
X171473105Y-75371082D01*
X171608599Y-75177578D01*
X171634117Y-75122855D01*
X171680289Y-75070415D01*
X171747482Y-75051262D01*
X171814364Y-75071477D01*
X171859699Y-75124642D01*
X171870500Y-75175257D01*
X171870500Y-75375063D01*
X171885266Y-75449301D01*
X171941515Y-75533484D01*
X171975234Y-75556014D01*
X172025699Y-75589734D01*
X172025702Y-75589734D01*
X172025703Y-75589735D01*
X172050666Y-75594700D01*
X172099933Y-75604500D01*
X173850066Y-75604499D01*
X173924301Y-75589734D01*
X173941272Y-75578394D01*
X176425510Y-75578394D01*
X176425510Y-75820971D01*
X176453719Y-76035250D01*
X176457172Y-76061472D01*
X176459511Y-76070200D01*
X176519957Y-76295787D01*
X176571684Y-76420666D01*
X176612786Y-76519895D01*
X176734074Y-76729972D01*
X176734076Y-76729975D01*
X176734077Y-76729976D01*
X176881743Y-76922419D01*
X176881749Y-76922426D01*
X177053266Y-77093943D01*
X177053273Y-77093949D01*
X177151432Y-77169269D01*
X177245721Y-77241619D01*
X177455798Y-77362907D01*
X177635172Y-77437206D01*
X177678724Y-77455246D01*
X177679910Y-77455737D01*
X177914221Y-77518521D01*
X178094596Y-77542267D01*
X178154721Y-77550183D01*
X178154722Y-77550183D01*
X178397299Y-77550183D01*
X178445398Y-77543850D01*
X178637799Y-77518521D01*
X178872110Y-77455737D01*
X179096222Y-77362907D01*
X179306299Y-77241619D01*
X179498748Y-77093948D01*
X179670275Y-76922421D01*
X179764457Y-76799681D01*
X187716725Y-76799681D01*
X187716725Y-76799684D01*
X187735781Y-76944435D01*
X187735783Y-76944440D01*
X187791652Y-77079321D01*
X187791655Y-77079327D01*
X187880535Y-77195156D01*
X187880536Y-77195157D01*
X187996365Y-77284037D01*
X187996371Y-77284040D01*
X188138764Y-77343021D01*
X188137477Y-77346128D01*
X188183813Y-77374363D01*
X188214350Y-77437206D01*
X188206065Y-77506583D01*
X188167557Y-77556160D01*
X188104528Y-77604524D01*
X188104527Y-77604525D01*
X188104526Y-77604526D01*
X188017581Y-77717835D01*
X188015643Y-77720361D01*
X187959772Y-77855245D01*
X187959771Y-77855247D01*
X187940715Y-77999998D01*
X187940715Y-78000001D01*
X187959771Y-78144752D01*
X187959773Y-78144757D01*
X188015642Y-78279638D01*
X188015645Y-78279644D01*
X188104525Y-78395473D01*
X188104526Y-78395474D01*
X188220355Y-78484354D01*
X188220361Y-78484357D01*
X188287801Y-78512291D01*
X188355246Y-78540228D01*
X188427623Y-78549756D01*
X188499999Y-78559285D01*
X188500000Y-78559285D01*
X188500001Y-78559285D01*
X188548251Y-78552932D01*
X188644754Y-78540228D01*
X188779643Y-78484355D01*
X188895474Y-78395474D01*
X188984355Y-78279643D01*
X189017345Y-78199998D01*
X192840715Y-78199998D01*
X192840715Y-78200001D01*
X192859771Y-78344752D01*
X192859773Y-78344757D01*
X192915642Y-78479638D01*
X192915645Y-78479644D01*
X193004525Y-78595473D01*
X193004526Y-78595474D01*
X193120355Y-78684354D01*
X193120361Y-78684357D01*
X193187801Y-78712291D01*
X193255246Y-78740228D01*
X193289610Y-78744752D01*
X193399999Y-78759285D01*
X193400000Y-78759285D01*
X193400001Y-78759285D01*
X193448251Y-78752932D01*
X193544754Y-78740228D01*
X193679643Y-78684355D01*
X193789578Y-78599998D01*
X199640715Y-78599998D01*
X199640715Y-78600001D01*
X199659771Y-78744752D01*
X199659773Y-78744757D01*
X199715642Y-78879638D01*
X199715645Y-78879644D01*
X199804525Y-78995473D01*
X199804526Y-78995474D01*
X199920355Y-79084354D01*
X199920361Y-79084357D01*
X199936305Y-79090961D01*
X200055246Y-79140228D01*
X200127623Y-79149756D01*
X200199999Y-79159285D01*
X200200000Y-79159285D01*
X200200001Y-79159285D01*
X200248251Y-79152932D01*
X200344754Y-79140228D01*
X200479643Y-79084355D01*
X200595474Y-78995474D01*
X200684355Y-78879643D01*
X200712657Y-78811315D01*
X220429398Y-78811315D01*
X220429398Y-78811318D01*
X220448454Y-78956069D01*
X220448456Y-78956074D01*
X220504325Y-79090955D01*
X220504328Y-79090961D01*
X220593208Y-79206790D01*
X220593209Y-79206791D01*
X220709038Y-79295671D01*
X220709044Y-79295674D01*
X220736277Y-79306954D01*
X220843929Y-79351545D01*
X220916306Y-79361073D01*
X220988682Y-79370602D01*
X220988683Y-79370602D01*
X220988684Y-79370602D01*
X221036934Y-79364249D01*
X221133437Y-79351545D01*
X221268326Y-79295672D01*
X221384157Y-79206791D01*
X221473038Y-79090960D01*
X221528911Y-78956071D01*
X221547968Y-78811317D01*
X221540544Y-78754929D01*
X221528911Y-78666564D01*
X221528911Y-78666563D01*
X221473038Y-78531675D01*
X221384157Y-78415843D01*
X221268326Y-78326962D01*
X221268323Y-78326961D01*
X221268321Y-78326959D01*
X221133440Y-78271090D01*
X221133435Y-78271088D01*
X220988684Y-78252032D01*
X220988682Y-78252032D01*
X220843930Y-78271088D01*
X220843928Y-78271089D01*
X220709044Y-78326960D01*
X220709041Y-78326961D01*
X220709041Y-78326962D01*
X220593209Y-78415843D01*
X220525404Y-78504209D01*
X220504326Y-78531678D01*
X220448455Y-78666562D01*
X220448454Y-78666564D01*
X220429398Y-78811315D01*
X200712657Y-78811315D01*
X200740228Y-78744754D01*
X200759285Y-78600000D01*
X200740228Y-78455246D01*
X200684355Y-78320358D01*
X200595474Y-78204526D01*
X200479643Y-78115645D01*
X200479640Y-78115644D01*
X200479638Y-78115642D01*
X200344757Y-78059773D01*
X200344752Y-78059771D01*
X200200001Y-78040715D01*
X200199999Y-78040715D01*
X200055247Y-78059771D01*
X200055245Y-78059772D01*
X199920361Y-78115643D01*
X199920358Y-78115644D01*
X199920358Y-78115645D01*
X199804526Y-78204526D01*
X199753451Y-78271089D01*
X199715643Y-78320361D01*
X199659772Y-78455245D01*
X199659771Y-78455247D01*
X199640715Y-78599998D01*
X193789578Y-78599998D01*
X193795474Y-78595474D01*
X193884355Y-78479643D01*
X193940228Y-78344754D01*
X193958689Y-78204526D01*
X193959285Y-78200001D01*
X193959285Y-78199998D01*
X193940228Y-78055247D01*
X193940228Y-78055246D01*
X193884355Y-77920358D01*
X193795474Y-77804526D01*
X193679643Y-77715645D01*
X193679640Y-77715644D01*
X193679638Y-77715642D01*
X193544757Y-77659773D01*
X193544752Y-77659771D01*
X193400001Y-77640715D01*
X193399999Y-77640715D01*
X193255247Y-77659771D01*
X193255245Y-77659772D01*
X193120361Y-77715643D01*
X193120358Y-77715644D01*
X193120358Y-77715645D01*
X193004526Y-77804526D01*
X192965607Y-77855247D01*
X192915643Y-77920361D01*
X192859772Y-78055245D01*
X192859771Y-78055247D01*
X192840715Y-78199998D01*
X189017345Y-78199998D01*
X189040228Y-78144754D01*
X189059285Y-78000000D01*
X189057225Y-77984355D01*
X189040228Y-77855247D01*
X189040228Y-77855246D01*
X188984355Y-77720358D01*
X188895474Y-77604526D01*
X188779643Y-77515645D01*
X188779640Y-77515644D01*
X188779638Y-77515642D01*
X188637246Y-77456662D01*
X188638524Y-77453576D01*
X188592094Y-77425206D01*
X188561634Y-77362325D01*
X188570006Y-77292959D01*
X188608452Y-77243523D01*
X188671484Y-77195157D01*
X188760365Y-77079326D01*
X188816238Y-76944437D01*
X188832573Y-76820358D01*
X188835295Y-76799684D01*
X188835295Y-76799681D01*
X188827772Y-76742540D01*
X194884200Y-76742540D01*
X194884200Y-76889459D01*
X194912858Y-77033534D01*
X194912861Y-77033544D01*
X194969078Y-77169266D01*
X194969083Y-77169275D01*
X195050698Y-77291419D01*
X195050701Y-77291423D01*
X195154576Y-77395298D01*
X195154580Y-77395301D01*
X195276724Y-77476916D01*
X195276730Y-77476919D01*
X195276731Y-77476920D01*
X195412458Y-77533140D01*
X195556540Y-77561799D01*
X195556544Y-77561800D01*
X195556545Y-77561800D01*
X195703456Y-77561800D01*
X195703457Y-77561799D01*
X195847542Y-77533140D01*
X195983269Y-77476920D01*
X196105420Y-77395301D01*
X196133962Y-77366758D01*
X196195283Y-77333274D01*
X196264975Y-77338258D01*
X196320909Y-77380128D01*
X196345327Y-77445592D01*
X196344582Y-77470625D01*
X196340715Y-77499998D01*
X196340715Y-77500001D01*
X196359771Y-77644752D01*
X196359773Y-77644757D01*
X196415642Y-77779638D01*
X196415645Y-77779644D01*
X196504525Y-77895473D01*
X196504526Y-77895474D01*
X196620355Y-77984354D01*
X196620361Y-77984357D01*
X196687801Y-78012291D01*
X196755246Y-78040228D01*
X196827623Y-78049756D01*
X196899999Y-78059285D01*
X196900000Y-78059285D01*
X196900001Y-78059285D01*
X196948251Y-78052932D01*
X197044754Y-78040228D01*
X197179643Y-77984355D01*
X197295474Y-77895474D01*
X197384355Y-77779643D01*
X197407973Y-77722625D01*
X197435439Y-77656316D01*
X197479280Y-77601912D01*
X197545574Y-77579847D01*
X197613273Y-77597126D01*
X197660884Y-77648263D01*
X197664561Y-77656316D01*
X197715642Y-77779638D01*
X197715645Y-77779644D01*
X197804525Y-77895473D01*
X197804526Y-77895474D01*
X197920355Y-77984354D01*
X197920361Y-77984357D01*
X197987801Y-78012291D01*
X198055246Y-78040228D01*
X198127623Y-78049756D01*
X198199999Y-78059285D01*
X198200000Y-78059285D01*
X198200001Y-78059285D01*
X198248251Y-78052932D01*
X198344754Y-78040228D01*
X198479643Y-77984355D01*
X198595474Y-77895474D01*
X198684355Y-77779643D01*
X198685438Y-77777029D01*
X198686941Y-77775162D01*
X198688421Y-77772601D01*
X198688820Y-77772831D01*
X198729277Y-77722625D01*
X198795571Y-77700558D01*
X198863271Y-77717835D01*
X198910882Y-77768971D01*
X198914562Y-77777029D01*
X198915643Y-77779640D01*
X198915645Y-77779644D01*
X199004525Y-77895473D01*
X199004526Y-77895474D01*
X199120355Y-77984354D01*
X199120361Y-77984357D01*
X199187801Y-78012291D01*
X199255246Y-78040228D01*
X199327623Y-78049756D01*
X199399999Y-78059285D01*
X199400000Y-78059285D01*
X199400001Y-78059285D01*
X199448251Y-78052932D01*
X199544754Y-78040228D01*
X199679643Y-77984355D01*
X199795474Y-77895474D01*
X199884355Y-77779643D01*
X199940228Y-77644754D01*
X199946120Y-77599998D01*
X218240715Y-77599998D01*
X218240715Y-77600001D01*
X218259771Y-77744752D01*
X218259773Y-77744757D01*
X218315642Y-77879638D01*
X218315645Y-77879644D01*
X218404525Y-77995473D01*
X218404526Y-77995474D01*
X218520355Y-78084354D01*
X218520361Y-78084357D01*
X218587801Y-78112291D01*
X218655246Y-78140228D01*
X218689610Y-78144752D01*
X218799999Y-78159285D01*
X218800000Y-78159285D01*
X218800001Y-78159285D01*
X218848251Y-78152932D01*
X218944754Y-78140228D01*
X219079643Y-78084355D01*
X219195474Y-77995474D01*
X219284355Y-77879643D01*
X219340228Y-77744754D01*
X219358689Y-77604526D01*
X219359285Y-77600001D01*
X219359285Y-77599998D01*
X219345524Y-77495473D01*
X219340228Y-77455246D01*
X219284355Y-77320358D01*
X219195474Y-77204526D01*
X219079643Y-77115645D01*
X219079640Y-77115644D01*
X219079638Y-77115642D01*
X218944757Y-77059773D01*
X218944752Y-77059771D01*
X218800001Y-77040715D01*
X218799999Y-77040715D01*
X218655247Y-77059771D01*
X218655245Y-77059772D01*
X218520361Y-77115643D01*
X218520358Y-77115644D01*
X218520358Y-77115645D01*
X218404526Y-77204526D01*
X218331695Y-77299442D01*
X218315643Y-77320361D01*
X218259772Y-77455245D01*
X218259771Y-77455247D01*
X218240715Y-77599998D01*
X199946120Y-77599998D01*
X199958418Y-77506583D01*
X199959285Y-77500001D01*
X199959285Y-77499998D01*
X199941237Y-77362909D01*
X199940228Y-77355246D01*
X199884355Y-77220358D01*
X199795474Y-77104526D01*
X199679643Y-77015645D01*
X199679640Y-77015644D01*
X199679638Y-77015642D01*
X199544757Y-76959773D01*
X199544752Y-76959771D01*
X199400001Y-76940715D01*
X199399999Y-76940715D01*
X199255247Y-76959771D01*
X199255245Y-76959772D01*
X199120361Y-77015643D01*
X199120358Y-77015644D01*
X199120358Y-77015645D01*
X199004526Y-77104526D01*
X198915645Y-77220358D01*
X198915644Y-77220359D01*
X198915644Y-77220360D01*
X198914561Y-77222975D01*
X198913054Y-77224843D01*
X198911579Y-77227400D01*
X198911180Y-77227169D01*
X198870719Y-77277378D01*
X198804425Y-77299442D01*
X198736726Y-77282162D01*
X198689116Y-77231025D01*
X198685439Y-77222975D01*
X198684355Y-77220358D01*
X198595474Y-77104526D01*
X198479643Y-77015645D01*
X198479640Y-77015644D01*
X198479638Y-77015642D01*
X198344757Y-76959773D01*
X198344752Y-76959771D01*
X198200001Y-76940715D01*
X198199999Y-76940715D01*
X198055247Y-76959771D01*
X198055245Y-76959772D01*
X197920361Y-77015643D01*
X197920358Y-77015644D01*
X197920358Y-77015645D01*
X197804526Y-77104526D01*
X197727794Y-77204526D01*
X197715643Y-77220361D01*
X197664561Y-77343685D01*
X197620720Y-77398088D01*
X197554426Y-77420153D01*
X197486727Y-77402874D01*
X197439116Y-77351737D01*
X197435439Y-77343685D01*
X197417113Y-77299442D01*
X197384355Y-77220358D01*
X197295474Y-77104526D01*
X197179643Y-77015645D01*
X197179640Y-77015644D01*
X197179638Y-77015642D01*
X197044757Y-76959773D01*
X197044752Y-76959771D01*
X196900001Y-76940715D01*
X196899999Y-76940715D01*
X196755247Y-76959771D01*
X196755245Y-76959772D01*
X196620360Y-77015643D01*
X196620357Y-77015645D01*
X196563505Y-77059269D01*
X196498335Y-77084463D01*
X196429891Y-77070424D01*
X196379901Y-77021610D01*
X196364238Y-76953518D01*
X196366402Y-76936701D01*
X196366920Y-76934099D01*
X196375800Y-76889455D01*
X196375800Y-76742545D01*
X196347140Y-76598458D01*
X196290920Y-76462731D01*
X196290919Y-76462730D01*
X196290916Y-76462724D01*
X196209301Y-76340580D01*
X196209298Y-76340576D01*
X196105423Y-76236701D01*
X196105419Y-76236698D01*
X195983275Y-76155083D01*
X195983266Y-76155078D01*
X195847544Y-76098861D01*
X195847545Y-76098861D01*
X195847542Y-76098860D01*
X195847538Y-76098859D01*
X195847534Y-76098858D01*
X195703459Y-76070200D01*
X195703455Y-76070200D01*
X195556545Y-76070200D01*
X195556540Y-76070200D01*
X195412465Y-76098858D01*
X195412455Y-76098861D01*
X195276733Y-76155078D01*
X195276724Y-76155083D01*
X195154580Y-76236698D01*
X195154576Y-76236701D01*
X195050701Y-76340576D01*
X195050698Y-76340580D01*
X194969083Y-76462724D01*
X194969078Y-76462733D01*
X194912861Y-76598455D01*
X194912858Y-76598465D01*
X194884200Y-76742540D01*
X188827772Y-76742540D01*
X188816280Y-76655246D01*
X188816238Y-76654929D01*
X188760365Y-76520041D01*
X188671484Y-76404209D01*
X188555653Y-76315328D01*
X188555650Y-76315327D01*
X188555648Y-76315325D01*
X188420767Y-76259456D01*
X188420762Y-76259454D01*
X188276011Y-76240398D01*
X188276009Y-76240398D01*
X188131257Y-76259454D01*
X188131255Y-76259455D01*
X187996371Y-76315326D01*
X187996368Y-76315327D01*
X187996368Y-76315328D01*
X187880536Y-76404209D01*
X187791766Y-76519897D01*
X187791653Y-76520044D01*
X187735782Y-76654928D01*
X187735781Y-76654930D01*
X187716725Y-76799681D01*
X179764457Y-76799681D01*
X179817946Y-76729972D01*
X179939234Y-76519895D01*
X180032064Y-76295783D01*
X180094848Y-76061472D01*
X180126510Y-75820971D01*
X180126510Y-75726540D01*
X199964200Y-75726540D01*
X199964200Y-75873459D01*
X199992858Y-76017534D01*
X199992861Y-76017544D01*
X200049078Y-76153266D01*
X200049083Y-76153275D01*
X200130698Y-76275419D01*
X200130701Y-76275423D01*
X200234576Y-76379298D01*
X200234580Y-76379301D01*
X200356724Y-76460916D01*
X200356730Y-76460919D01*
X200356731Y-76460920D01*
X200492458Y-76517140D01*
X200636540Y-76545799D01*
X200636544Y-76545800D01*
X200636545Y-76545800D01*
X200783456Y-76545800D01*
X200783457Y-76545799D01*
X200927542Y-76517140D01*
X201063269Y-76460920D01*
X201185420Y-76379301D01*
X201289301Y-76275420D01*
X201370920Y-76153269D01*
X201427140Y-76017542D01*
X201455800Y-75873455D01*
X201455800Y-75726545D01*
X201427140Y-75582458D01*
X201425457Y-75578394D01*
X203425510Y-75578394D01*
X203425510Y-75820971D01*
X203453719Y-76035250D01*
X203457172Y-76061472D01*
X203459511Y-76070200D01*
X203519957Y-76295787D01*
X203571684Y-76420666D01*
X203612786Y-76519895D01*
X203734074Y-76729972D01*
X203734076Y-76729975D01*
X203734077Y-76729976D01*
X203881743Y-76922419D01*
X203881749Y-76922426D01*
X204053266Y-77093943D01*
X204053273Y-77093949D01*
X204151432Y-77169269D01*
X204245721Y-77241619D01*
X204455798Y-77362907D01*
X204635172Y-77437206D01*
X204678724Y-77455246D01*
X204679910Y-77455737D01*
X204914221Y-77518521D01*
X205094596Y-77542267D01*
X205154721Y-77550183D01*
X205154722Y-77550183D01*
X205397299Y-77550183D01*
X205445398Y-77543850D01*
X205637799Y-77518521D01*
X205872110Y-77455737D01*
X206096222Y-77362907D01*
X206306299Y-77241619D01*
X206498748Y-77093948D01*
X206670275Y-76922421D01*
X206817946Y-76729972D01*
X206939234Y-76519895D01*
X207032064Y-76295783D01*
X207094848Y-76061472D01*
X207112959Y-75923902D01*
X213480504Y-75923902D01*
X213501149Y-76067497D01*
X213501150Y-76067501D01*
X213561414Y-76199458D01*
X213561415Y-76199460D01*
X213656417Y-76309098D01*
X213734851Y-76359504D01*
X213778461Y-76387532D01*
X213917653Y-76428401D01*
X213917655Y-76428402D01*
X213917656Y-76428402D01*
X214062729Y-76428402D01*
X214062729Y-76428401D01*
X214201921Y-76387532D01*
X214201922Y-76387532D01*
X214201924Y-76387531D01*
X214323967Y-76309098D01*
X214418969Y-76199460D01*
X214464911Y-76098861D01*
X214479233Y-76067501D01*
X214479234Y-76067497D01*
X214480101Y-76061468D01*
X214499880Y-75923902D01*
X214479234Y-75780306D01*
X214479233Y-75780302D01*
X214418969Y-75648345D01*
X214418969Y-75648344D01*
X214323967Y-75538706D01*
X214289142Y-75516325D01*
X214201922Y-75460271D01*
X214062730Y-75419402D01*
X214062728Y-75419402D01*
X213917656Y-75419402D01*
X213917653Y-75419402D01*
X213778462Y-75460271D01*
X213778461Y-75460271D01*
X213656418Y-75538705D01*
X213561415Y-75648344D01*
X213561414Y-75648345D01*
X213501150Y-75780302D01*
X213501149Y-75780306D01*
X213480504Y-75923902D01*
X207112959Y-75923902D01*
X207126510Y-75820971D01*
X207126510Y-75578395D01*
X207094848Y-75337894D01*
X207032064Y-75103583D01*
X206939234Y-74879471D01*
X206817946Y-74669394D01*
X206764697Y-74599998D01*
X214440715Y-74599998D01*
X214440715Y-74600001D01*
X214459771Y-74744752D01*
X214459773Y-74744757D01*
X214515642Y-74879638D01*
X214515645Y-74879644D01*
X214604525Y-74995473D01*
X214604526Y-74995474D01*
X214720355Y-75084354D01*
X214720361Y-75084357D01*
X214766765Y-75103578D01*
X214855246Y-75140228D01*
X214927623Y-75149756D01*
X214999999Y-75159285D01*
X215000000Y-75159285D01*
X215000001Y-75159285D01*
X215048251Y-75152932D01*
X215144754Y-75140228D01*
X215279643Y-75084355D01*
X215395474Y-74995474D01*
X215484355Y-74879643D01*
X215540228Y-74744754D01*
X215559285Y-74600000D01*
X215557225Y-74584355D01*
X215540228Y-74455247D01*
X215540228Y-74455246D01*
X215484355Y-74320358D01*
X215395474Y-74204526D01*
X215279643Y-74115645D01*
X215279640Y-74115644D01*
X215279638Y-74115642D01*
X215241870Y-74099998D01*
X216940715Y-74099998D01*
X216940715Y-74100001D01*
X216959771Y-74244752D01*
X216959773Y-74244757D01*
X217015642Y-74379638D01*
X217015645Y-74379644D01*
X217104525Y-74495473D01*
X217104526Y-74495474D01*
X217220355Y-74584354D01*
X217220361Y-74584357D01*
X217287801Y-74612291D01*
X217355246Y-74640228D01*
X217427623Y-74649756D01*
X217499999Y-74659285D01*
X217500000Y-74659285D01*
X217500001Y-74659285D01*
X217548251Y-74652932D01*
X217644754Y-74640228D01*
X217779643Y-74584355D01*
X217895474Y-74495474D01*
X217984355Y-74379643D01*
X218040228Y-74244754D01*
X218056246Y-74123083D01*
X218059285Y-74100001D01*
X218059285Y-74099998D01*
X218040228Y-73955247D01*
X218040228Y-73955246D01*
X217984355Y-73820358D01*
X217895474Y-73704526D01*
X217779643Y-73615645D01*
X217779640Y-73615644D01*
X217779638Y-73615642D01*
X217644757Y-73559773D01*
X217644752Y-73559771D01*
X217500001Y-73540715D01*
X217499999Y-73540715D01*
X217355247Y-73559771D01*
X217355245Y-73559772D01*
X217220361Y-73615643D01*
X217220358Y-73615644D01*
X217220358Y-73615645D01*
X217104526Y-73704526D01*
X217027794Y-73804526D01*
X217015643Y-73820361D01*
X216959772Y-73955245D01*
X216959771Y-73955247D01*
X216940715Y-74099998D01*
X215241870Y-74099998D01*
X215144757Y-74059773D01*
X215144752Y-74059771D01*
X215000001Y-74040715D01*
X214999999Y-74040715D01*
X214855247Y-74059771D01*
X214855245Y-74059772D01*
X214720361Y-74115643D01*
X214720358Y-74115644D01*
X214720358Y-74115645D01*
X214604526Y-74204526D01*
X214527111Y-74305416D01*
X214515643Y-74320361D01*
X214459772Y-74455245D01*
X214459771Y-74455247D01*
X214440715Y-74599998D01*
X206764697Y-74599998D01*
X206704077Y-74520997D01*
X206670276Y-74476946D01*
X206670270Y-74476939D01*
X206498753Y-74305422D01*
X206498746Y-74305416D01*
X206306303Y-74157750D01*
X206306302Y-74157749D01*
X206306299Y-74157747D01*
X206096222Y-74036459D01*
X206019129Y-74004526D01*
X205872114Y-73943630D01*
X205637795Y-73880844D01*
X205397299Y-73849183D01*
X205397298Y-73849183D01*
X205154722Y-73849183D01*
X205154721Y-73849183D01*
X204914224Y-73880844D01*
X204679905Y-73943630D01*
X204455804Y-74036456D01*
X204455795Y-74036460D01*
X204245716Y-74157750D01*
X204053273Y-74305416D01*
X204053266Y-74305422D01*
X203881749Y-74476939D01*
X203881743Y-74476946D01*
X203734077Y-74669389D01*
X203612787Y-74879468D01*
X203612783Y-74879477D01*
X203519957Y-75103578D01*
X203457171Y-75337897D01*
X203425510Y-75578394D01*
X201425457Y-75578394D01*
X201376529Y-75460273D01*
X201370921Y-75446733D01*
X201370916Y-75446724D01*
X201289301Y-75324580D01*
X201289298Y-75324576D01*
X201185423Y-75220701D01*
X201185419Y-75220698D01*
X201063275Y-75139083D01*
X201063266Y-75139078D01*
X200931151Y-75084355D01*
X200927542Y-75082860D01*
X200927538Y-75082859D01*
X200927534Y-75082858D01*
X200783459Y-75054200D01*
X200783455Y-75054200D01*
X200636545Y-75054200D01*
X200636540Y-75054200D01*
X200492465Y-75082858D01*
X200492455Y-75082861D01*
X200356733Y-75139078D01*
X200356724Y-75139083D01*
X200234580Y-75220698D01*
X200234576Y-75220701D01*
X200130701Y-75324576D01*
X200130698Y-75324580D01*
X200049083Y-75446724D01*
X200049078Y-75446733D01*
X199992861Y-75582455D01*
X199992858Y-75582465D01*
X199964200Y-75726540D01*
X180126510Y-75726540D01*
X180126510Y-75578395D01*
X180094848Y-75337894D01*
X180032064Y-75103583D01*
X179939234Y-74879471D01*
X179817946Y-74669394D01*
X179704077Y-74520997D01*
X179670276Y-74476946D01*
X179670270Y-74476939D01*
X179593329Y-74399998D01*
X180740715Y-74399998D01*
X180740715Y-74400001D01*
X180759771Y-74544752D01*
X180759773Y-74544757D01*
X180815642Y-74679638D01*
X180815645Y-74679644D01*
X180904525Y-74795473D01*
X180904526Y-74795474D01*
X181020355Y-74884354D01*
X181020361Y-74884357D01*
X181058366Y-74900099D01*
X181155246Y-74940228D01*
X181227623Y-74949756D01*
X181299999Y-74959285D01*
X181300000Y-74959285D01*
X181300001Y-74959285D01*
X181348251Y-74952932D01*
X181444754Y-74940228D01*
X181579643Y-74884355D01*
X181695474Y-74795474D01*
X181784355Y-74679643D01*
X181840228Y-74544754D01*
X181855696Y-74427259D01*
X181859285Y-74400001D01*
X181859285Y-74399998D01*
X181840228Y-74255247D01*
X181840228Y-74255246D01*
X181824592Y-74217498D01*
X182790715Y-74217498D01*
X182790715Y-74217501D01*
X182809771Y-74362252D01*
X182809773Y-74362257D01*
X182865642Y-74497138D01*
X182865645Y-74497144D01*
X182954525Y-74612973D01*
X182954526Y-74612974D01*
X183070355Y-74701854D01*
X183070361Y-74701857D01*
X183127962Y-74725716D01*
X183205246Y-74757728D01*
X183277623Y-74767256D01*
X183349999Y-74776785D01*
X183350000Y-74776785D01*
X183350001Y-74776785D01*
X183398251Y-74770432D01*
X183494754Y-74757728D01*
X183608676Y-74710540D01*
X194884200Y-74710540D01*
X194884200Y-74857459D01*
X194912858Y-75001534D01*
X194912861Y-75001544D01*
X194969078Y-75137266D01*
X194969083Y-75137275D01*
X195050698Y-75259419D01*
X195050701Y-75259423D01*
X195154576Y-75363298D01*
X195154580Y-75363301D01*
X195276724Y-75444916D01*
X195276733Y-75444921D01*
X195301800Y-75455304D01*
X195412458Y-75501140D01*
X195556540Y-75529799D01*
X195556544Y-75529800D01*
X195556545Y-75529800D01*
X195703456Y-75529800D01*
X195703457Y-75529799D01*
X195847542Y-75501140D01*
X195983269Y-75444920D01*
X196105420Y-75363301D01*
X196209301Y-75259420D01*
X196290920Y-75137269D01*
X196347140Y-75001542D01*
X196375800Y-74857455D01*
X196375800Y-74710545D01*
X196347140Y-74566458D01*
X196290920Y-74430731D01*
X196290919Y-74430730D01*
X196290916Y-74430724D01*
X196209301Y-74308580D01*
X196209298Y-74308576D01*
X196142079Y-74241357D01*
X199482074Y-74241357D01*
X199482074Y-74241360D01*
X199501130Y-74386111D01*
X199501132Y-74386116D01*
X199557001Y-74520997D01*
X199557004Y-74521003D01*
X199645884Y-74636832D01*
X199645885Y-74636833D01*
X199761714Y-74725713D01*
X199761720Y-74725716D01*
X199820347Y-74750000D01*
X199896605Y-74781587D01*
X199968982Y-74791115D01*
X200041358Y-74800644D01*
X200041359Y-74800644D01*
X200041360Y-74800644D01*
X200089610Y-74794291D01*
X200186113Y-74781587D01*
X200321002Y-74725714D01*
X200436833Y-74636833D01*
X200525714Y-74521002D01*
X200581587Y-74386113D01*
X200598816Y-74255245D01*
X200600644Y-74241360D01*
X200600644Y-74241357D01*
X200581587Y-74096606D01*
X200581587Y-74096605D01*
X200525714Y-73961717D01*
X200436833Y-73845885D01*
X200321002Y-73757004D01*
X200320999Y-73757003D01*
X200320997Y-73757001D01*
X200186116Y-73701132D01*
X200186111Y-73701130D01*
X200041360Y-73682074D01*
X200041358Y-73682074D01*
X199896606Y-73701130D01*
X199896604Y-73701131D01*
X199761720Y-73757002D01*
X199761717Y-73757003D01*
X199761717Y-73757004D01*
X199645885Y-73845885D01*
X199561970Y-73955246D01*
X199557002Y-73961720D01*
X199501131Y-74096604D01*
X199501130Y-74096606D01*
X199482074Y-74241357D01*
X196142079Y-74241357D01*
X196105423Y-74204701D01*
X196105419Y-74204698D01*
X195983275Y-74123083D01*
X195983266Y-74123078D01*
X195861752Y-74072746D01*
X195847542Y-74066860D01*
X195847538Y-74066859D01*
X195847534Y-74066858D01*
X195703459Y-74038200D01*
X195703455Y-74038200D01*
X195556545Y-74038200D01*
X195556540Y-74038200D01*
X195412465Y-74066858D01*
X195412455Y-74066861D01*
X195276733Y-74123078D01*
X195276724Y-74123083D01*
X195154580Y-74204698D01*
X195154576Y-74204701D01*
X195050701Y-74308576D01*
X195050698Y-74308580D01*
X194969083Y-74430724D01*
X194969078Y-74430733D01*
X194912861Y-74566455D01*
X194912858Y-74566465D01*
X194884200Y-74710540D01*
X183608676Y-74710540D01*
X183629643Y-74701855D01*
X183745474Y-74612974D01*
X183834355Y-74497143D01*
X183890228Y-74362254D01*
X183905006Y-74250000D01*
X183909285Y-74217501D01*
X183909285Y-74217498D01*
X183890228Y-74072747D01*
X183890228Y-74072746D01*
X183834355Y-73937858D01*
X183745474Y-73822026D01*
X183629643Y-73733145D01*
X183629640Y-73733144D01*
X183629638Y-73733142D01*
X183494757Y-73677273D01*
X183494752Y-73677271D01*
X183350001Y-73658215D01*
X183349999Y-73658215D01*
X183205247Y-73677271D01*
X183205245Y-73677272D01*
X183070361Y-73733143D01*
X183070358Y-73733144D01*
X183070358Y-73733145D01*
X182954526Y-73822026D01*
X182898168Y-73895474D01*
X182865643Y-73937861D01*
X182809772Y-74072745D01*
X182809771Y-74072747D01*
X182790715Y-74217498D01*
X181824592Y-74217498D01*
X181784355Y-74120358D01*
X181695474Y-74004526D01*
X181579643Y-73915645D01*
X181579640Y-73915644D01*
X181579638Y-73915642D01*
X181444757Y-73859773D01*
X181444752Y-73859771D01*
X181300001Y-73840715D01*
X181299999Y-73840715D01*
X181155247Y-73859771D01*
X181155245Y-73859772D01*
X181020361Y-73915643D01*
X181020358Y-73915644D01*
X181020358Y-73915645D01*
X180904526Y-74004526D01*
X180819262Y-74115645D01*
X180815643Y-74120361D01*
X180759772Y-74255245D01*
X180759771Y-74255247D01*
X180740715Y-74399998D01*
X179593329Y-74399998D01*
X179498753Y-74305422D01*
X179498746Y-74305416D01*
X179306303Y-74157750D01*
X179306302Y-74157749D01*
X179306299Y-74157747D01*
X179096222Y-74036459D01*
X179019129Y-74004526D01*
X178872114Y-73943630D01*
X178637795Y-73880844D01*
X178397299Y-73849183D01*
X178397298Y-73849183D01*
X178154722Y-73849183D01*
X178154721Y-73849183D01*
X177914224Y-73880844D01*
X177679905Y-73943630D01*
X177455804Y-74036456D01*
X177455795Y-74036460D01*
X177245716Y-74157750D01*
X177053273Y-74305416D01*
X177053266Y-74305422D01*
X176881749Y-74476939D01*
X176881743Y-74476946D01*
X176734077Y-74669389D01*
X176612787Y-74879468D01*
X176612783Y-74879477D01*
X176519957Y-75103578D01*
X176457171Y-75337897D01*
X176425510Y-75578394D01*
X173941272Y-75578394D01*
X174008484Y-75533484D01*
X174064734Y-75449301D01*
X174079500Y-75375067D01*
X174079499Y-73624934D01*
X174064734Y-73550699D01*
X174046068Y-73522765D01*
X174030856Y-73499998D01*
X223140715Y-73499998D01*
X223140715Y-73500001D01*
X223159771Y-73644752D01*
X223159773Y-73644757D01*
X223215642Y-73779638D01*
X223215645Y-73779644D01*
X223304525Y-73895473D01*
X223304526Y-73895474D01*
X223420355Y-73984354D01*
X223420361Y-73984357D01*
X223458127Y-74000000D01*
X223555246Y-74040228D01*
X223627623Y-74049756D01*
X223699999Y-74059285D01*
X223700000Y-74059285D01*
X223700001Y-74059285D01*
X223748251Y-74052932D01*
X223844754Y-74040228D01*
X223979643Y-73984355D01*
X224095474Y-73895474D01*
X224184355Y-73779643D01*
X224240228Y-73644754D01*
X224259285Y-73500000D01*
X224240228Y-73355246D01*
X224184355Y-73220358D01*
X224095474Y-73104526D01*
X223979643Y-73015645D01*
X223979640Y-73015644D01*
X223979638Y-73015642D01*
X223844757Y-72959773D01*
X223844752Y-72959771D01*
X223700001Y-72940715D01*
X223699999Y-72940715D01*
X223555247Y-72959771D01*
X223555245Y-72959772D01*
X223420361Y-73015643D01*
X223420358Y-73015644D01*
X223420358Y-73015645D01*
X223329006Y-73085742D01*
X223304526Y-73104526D01*
X223215643Y-73220361D01*
X223159772Y-73355245D01*
X223159771Y-73355247D01*
X223140715Y-73499998D01*
X174030856Y-73499998D01*
X174008484Y-73466515D01*
X173958019Y-73432796D01*
X173924301Y-73410266D01*
X173924299Y-73410265D01*
X173924296Y-73410264D01*
X173850069Y-73395500D01*
X172099936Y-73395500D01*
X172025698Y-73410266D01*
X171941515Y-73466515D01*
X171885266Y-73550699D01*
X171885264Y-73550703D01*
X171870500Y-73624928D01*
X171870500Y-73824740D01*
X171850815Y-73891779D01*
X171798011Y-73937534D01*
X171728853Y-73947478D01*
X171665297Y-73918453D01*
X171634118Y-73877145D01*
X171608600Y-73822422D01*
X171608599Y-73822420D01*
X171473113Y-73628926D01*
X171473108Y-73628920D01*
X171306082Y-73461894D01*
X171112578Y-73326399D01*
X170898492Y-73226570D01*
X170898483Y-73226566D01*
X170754065Y-73187870D01*
X170694404Y-73151505D01*
X170663875Y-73088658D01*
X170672170Y-73019283D01*
X170716655Y-72965405D01*
X170783207Y-72944130D01*
X170786158Y-72944095D01*
X214780048Y-72944095D01*
X214780050Y-72944095D01*
X214907344Y-72909987D01*
X215021472Y-72844095D01*
X215114658Y-72750909D01*
X215180550Y-72636781D01*
X215214658Y-72509487D01*
X215214658Y-70899998D01*
X222140715Y-70899998D01*
X222140715Y-70900001D01*
X222159771Y-71044752D01*
X222159773Y-71044757D01*
X222215642Y-71179638D01*
X222215645Y-71179644D01*
X222304525Y-71295473D01*
X222304526Y-71295474D01*
X222420355Y-71384354D01*
X222420361Y-71384357D01*
X222487801Y-71412291D01*
X222555246Y-71440228D01*
X222627623Y-71449756D01*
X222699999Y-71459285D01*
X222700000Y-71459285D01*
X222700001Y-71459285D01*
X222748251Y-71452932D01*
X222844754Y-71440228D01*
X222979643Y-71384355D01*
X223095474Y-71295474D01*
X223184355Y-71179643D01*
X223240228Y-71044754D01*
X223259285Y-70900000D01*
X223240228Y-70755246D01*
X223184355Y-70620358D01*
X223095474Y-70504526D01*
X223095471Y-70504524D01*
X223095470Y-70504522D01*
X223024119Y-70449772D01*
X222982917Y-70393344D01*
X222979807Y-70341151D01*
X222925308Y-70370073D01*
X222855681Y-70364260D01*
X222852944Y-70363164D01*
X222844757Y-70359773D01*
X222844752Y-70359771D01*
X222700001Y-70340715D01*
X222699999Y-70340715D01*
X222555247Y-70359771D01*
X222555245Y-70359772D01*
X222420361Y-70415643D01*
X222304526Y-70504526D01*
X222215643Y-70620361D01*
X222159772Y-70755245D01*
X222159771Y-70755247D01*
X222140715Y-70899998D01*
X215214658Y-70899998D01*
X215214658Y-69699998D01*
X222740715Y-69699998D01*
X222740715Y-69700001D01*
X222759771Y-69844752D01*
X222759773Y-69844757D01*
X222815642Y-69979638D01*
X222815645Y-69979644D01*
X222879422Y-70062759D01*
X222904526Y-70095474D01*
X222975882Y-70150228D01*
X223017083Y-70206654D01*
X223020192Y-70258847D01*
X223074692Y-70229926D01*
X223144320Y-70235739D01*
X223146984Y-70236805D01*
X223155246Y-70240228D01*
X223227623Y-70249756D01*
X223299999Y-70259285D01*
X223300000Y-70259285D01*
X223300001Y-70259285D01*
X223348251Y-70252932D01*
X223444754Y-70240228D01*
X223579643Y-70184355D01*
X223695474Y-70095474D01*
X223784355Y-69979643D01*
X223840228Y-69844754D01*
X223859285Y-69700000D01*
X223840228Y-69555246D01*
X223784355Y-69420358D01*
X223695474Y-69304526D01*
X223579643Y-69215645D01*
X223579640Y-69215644D01*
X223579638Y-69215642D01*
X223444757Y-69159773D01*
X223444752Y-69159771D01*
X223300001Y-69140715D01*
X223299999Y-69140715D01*
X223155247Y-69159771D01*
X223155245Y-69159772D01*
X223020361Y-69215643D01*
X222904526Y-69304526D01*
X222815643Y-69420361D01*
X222759772Y-69555245D01*
X222759771Y-69555247D01*
X222740715Y-69699998D01*
X215214658Y-69699998D01*
X215214658Y-68100000D01*
X217234246Y-68100000D01*
X217253591Y-68259323D01*
X217253592Y-68259328D01*
X217310504Y-68409391D01*
X217401676Y-68541477D01*
X217521809Y-68647905D01*
X217663920Y-68722491D01*
X217663922Y-68722491D01*
X217663923Y-68722492D01*
X217819752Y-68760900D01*
X217980248Y-68760900D01*
X218136076Y-68722492D01*
X218136076Y-68722491D01*
X218136080Y-68722491D01*
X218278191Y-68647905D01*
X218398324Y-68541477D01*
X218489496Y-68409391D01*
X218546408Y-68259325D01*
X218565754Y-68100000D01*
X218546408Y-67940675D01*
X218546407Y-67940673D01*
X218546407Y-67940671D01*
X218520546Y-67872482D01*
X218489496Y-67790609D01*
X218398324Y-67658523D01*
X218278191Y-67552095D01*
X218136080Y-67477509D01*
X218136079Y-67477508D01*
X218136076Y-67477507D01*
X217980248Y-67439100D01*
X217819752Y-67439100D01*
X217663923Y-67477507D01*
X217521809Y-67552095D01*
X217401675Y-67658523D01*
X217310505Y-67790607D01*
X217310504Y-67790608D01*
X217253592Y-67940671D01*
X217253591Y-67940676D01*
X217234246Y-68100000D01*
X215214658Y-68100000D01*
X215214658Y-66779003D01*
X220824382Y-66779003D01*
X220824382Y-66915916D01*
X220851088Y-67050176D01*
X220851090Y-67050184D01*
X220903480Y-67176664D01*
X220979541Y-67290499D01*
X221076342Y-67387300D01*
X221076345Y-67387302D01*
X221190176Y-67463361D01*
X221316658Y-67515752D01*
X221450925Y-67542459D01*
X221450929Y-67542460D01*
X221450930Y-67542460D01*
X221587835Y-67542460D01*
X221587836Y-67542459D01*
X221722106Y-67515752D01*
X221848588Y-67463361D01*
X221962419Y-67387302D01*
X222059224Y-67290497D01*
X222135283Y-67176666D01*
X222187674Y-67050184D01*
X222214382Y-66915912D01*
X222214382Y-66779008D01*
X222187674Y-66644736D01*
X222135283Y-66518254D01*
X222059224Y-66404423D01*
X222059222Y-66404420D01*
X221962421Y-66307619D01*
X221863666Y-66241634D01*
X221848588Y-66231559D01*
X221722106Y-66179168D01*
X221722098Y-66179166D01*
X221587838Y-66152460D01*
X221587834Y-66152460D01*
X221450930Y-66152460D01*
X221450925Y-66152460D01*
X221316665Y-66179166D01*
X221316657Y-66179168D01*
X221190177Y-66231558D01*
X221076342Y-66307619D01*
X220979541Y-66404420D01*
X220903480Y-66518255D01*
X220851090Y-66644735D01*
X220851088Y-66644743D01*
X220824382Y-66779003D01*
X215214658Y-66779003D01*
X215214658Y-65599998D01*
X216840715Y-65599998D01*
X216840715Y-65600001D01*
X216859771Y-65744752D01*
X216859773Y-65744757D01*
X216915642Y-65879638D01*
X216915645Y-65879644D01*
X217004525Y-65995473D01*
X217004526Y-65995474D01*
X217120355Y-66084354D01*
X217120361Y-66084357D01*
X217187801Y-66112291D01*
X217255246Y-66140228D01*
X217327623Y-66149756D01*
X217399999Y-66159285D01*
X217400000Y-66159285D01*
X217400001Y-66159285D01*
X217451842Y-66152460D01*
X217544754Y-66140228D01*
X217679643Y-66084355D01*
X217795474Y-65995474D01*
X217884355Y-65879643D01*
X217940228Y-65744754D01*
X217959285Y-65600000D01*
X217953886Y-65558993D01*
X217940228Y-65455247D01*
X217940228Y-65455246D01*
X217884355Y-65320358D01*
X217795474Y-65204526D01*
X217679643Y-65115645D01*
X217679640Y-65115644D01*
X217679638Y-65115642D01*
X217544757Y-65059773D01*
X217544752Y-65059771D01*
X217400001Y-65040715D01*
X217399999Y-65040715D01*
X217255247Y-65059771D01*
X217255245Y-65059772D01*
X217120361Y-65115643D01*
X217004526Y-65204526D01*
X216915643Y-65320361D01*
X216859772Y-65455245D01*
X216859771Y-65455247D01*
X216840715Y-65599998D01*
X215214658Y-65599998D01*
X215214658Y-61012279D01*
X217220933Y-61012279D01*
X217220933Y-61149192D01*
X217247639Y-61283452D01*
X217247641Y-61283460D01*
X217300031Y-61409940D01*
X217376092Y-61523775D01*
X217472893Y-61620576D01*
X217472896Y-61620578D01*
X217586727Y-61696637D01*
X217713209Y-61749028D01*
X217847476Y-61775735D01*
X217847480Y-61775736D01*
X217847481Y-61775736D01*
X217984386Y-61775736D01*
X217984387Y-61775735D01*
X218118657Y-61749028D01*
X218245139Y-61696637D01*
X218358970Y-61620578D01*
X218455775Y-61523773D01*
X218531834Y-61409942D01*
X218584225Y-61283460D01*
X218610933Y-61149188D01*
X218610933Y-61012284D01*
X218584225Y-60878012D01*
X218531834Y-60751530D01*
X218455775Y-60637699D01*
X218455773Y-60637696D01*
X218358972Y-60540895D01*
X218302054Y-60502864D01*
X218245139Y-60464835D01*
X218118657Y-60412444D01*
X218118649Y-60412442D01*
X217984389Y-60385736D01*
X217984385Y-60385736D01*
X217847481Y-60385736D01*
X217847476Y-60385736D01*
X217713216Y-60412442D01*
X217713208Y-60412444D01*
X217586728Y-60464834D01*
X217472893Y-60540895D01*
X217376092Y-60637696D01*
X217300031Y-60751531D01*
X217247641Y-60878011D01*
X217247639Y-60878019D01*
X217220933Y-61012279D01*
X215214658Y-61012279D01*
X215214658Y-55567892D01*
X215234343Y-55500853D01*
X215287147Y-55455098D01*
X215356305Y-55445154D01*
X215419861Y-55474179D01*
G37*
%TD.AperFunction*%
%TD*%
M02*
