%TF.GenerationSoftware,KiCad,Pcbnew,8.0.7*%
%TF.CreationDate,2026-07-08T19:47:45-07:00*%
%TF.ProjectId,ChemistryDetector,4368656d-6973-4747-9279-446574656374,rev?*%
%TF.SameCoordinates,Original*%
%TF.FileFunction,Copper,L4,Bot*%
%TF.FilePolarity,Positive*%
%FSLAX46Y46*%
G04 Gerber Fmt 4.6, Leading zero omitted, Abs format (unit mm)*
G04 Created by KiCad (PCBNEW 8.0.7) date 2026-07-08 19:47:45*
%MOMM*%
%LPD*%
G01*
G04 APERTURE LIST*
G04 Aperture macros list*
%AMRoundRect*
0 Rectangle with rounded corners*
0 $1 Rounding radius*
0 $2 $3 $4 $5 $6 $7 $8 $9 X,Y pos of 4 corners*
0 Add a 4 corners polygon primitive as box body*
4,1,4,$2,$3,$4,$5,$6,$7,$8,$9,$2,$3,0*
0 Add four circle primitives for the rounded corners*
1,1,$1+$1,$2,$3*
1,1,$1+$1,$4,$5*
1,1,$1+$1,$6,$7*
1,1,$1+$1,$8,$9*
0 Add four rect primitives between the rounded corners*
20,1,$1+$1,$2,$3,$4,$5,0*
20,1,$1+$1,$4,$5,$6,$7,0*
20,1,$1+$1,$6,$7,$8,$9,0*
20,1,$1+$1,$8,$9,$2,$3,0*%
%AMFreePoly0*
4,1,21,0.923536,1.533536,0.925000,1.530000,0.925000,-0.770000,0.923536,-0.773536,0.920000,-0.775000,-1.030000,-0.775000,-1.033536,-0.773536,-1.035000,-0.770000,-1.035000,-0.275000,-1.730000,-0.275000,-1.733536,-0.273536,-1.735000,-0.270000,-1.735000,0.830000,-1.733536,0.833536,-1.730000,0.835000,-0.335000,0.835000,-0.335000,1.530000,-0.333536,1.533536,-0.330000,1.535000,0.920000,1.535000,
0.923536,1.533536,0.923536,1.533536,$1*%
%AMFreePoly1*
4,1,21,0.333536,1.533536,0.335000,1.530000,0.335000,0.835000,1.730000,0.835000,1.733536,0.833536,1.735000,0.830000,1.735000,-0.270000,1.733536,-0.273536,1.730000,-0.275000,1.035000,-0.275000,1.035000,-0.770000,1.033536,-0.773536,1.030000,-0.775000,-0.920000,-0.775000,-0.923536,-0.773536,-0.925000,-0.770000,-0.925000,1.530000,-0.923536,1.533536,-0.920000,1.535000,0.330000,1.535000,
0.333536,1.533536,0.333536,1.533536,$1*%
G04 Aperture macros list end*
%TA.AperFunction,SMDPad,CuDef*%
%ADD10RoundRect,0.375000X0.375000X-0.625000X0.375000X0.625000X-0.375000X0.625000X-0.375000X-0.625000X0*%
%TD*%
%TA.AperFunction,SMDPad,CuDef*%
%ADD11RoundRect,0.500000X1.400000X-0.500000X1.400000X0.500000X-1.400000X0.500000X-1.400000X-0.500000X0*%
%TD*%
%TA.AperFunction,ComponentPad*%
%ADD12R,1.700000X1.700000*%
%TD*%
%TA.AperFunction,ComponentPad*%
%ADD13O,1.700000X1.700000*%
%TD*%
%TA.AperFunction,ComponentPad*%
%ADD14C,3.000000*%
%TD*%
%TA.AperFunction,SMDPad,CuDef*%
%ADD15R,0.700000X0.700000*%
%TD*%
%TA.AperFunction,SMDPad,CuDef*%
%ADD16RoundRect,0.225000X-0.225000X-0.250000X0.225000X-0.250000X0.225000X0.250000X-0.225000X0.250000X0*%
%TD*%
%TA.AperFunction,SMDPad,CuDef*%
%ADD17RoundRect,0.243750X0.456250X-0.243750X0.456250X0.243750X-0.456250X0.243750X-0.456250X-0.243750X0*%
%TD*%
%TA.AperFunction,ComponentPad*%
%ADD18R,1.508000X1.508000*%
%TD*%
%TA.AperFunction,ComponentPad*%
%ADD19C,1.508000*%
%TD*%
%TA.AperFunction,SMDPad,CuDef*%
%ADD20R,0.300000X1.400000*%
%TD*%
%TA.AperFunction,SMDPad,CuDef*%
%ADD21FreePoly0,180.000000*%
%TD*%
%TA.AperFunction,SMDPad,CuDef*%
%ADD22FreePoly1,180.000000*%
%TD*%
%TA.AperFunction,SMDPad,CuDef*%
%ADD23RoundRect,0.225000X0.225000X0.250000X-0.225000X0.250000X-0.225000X-0.250000X0.225000X-0.250000X0*%
%TD*%
%TA.AperFunction,SMDPad,CuDef*%
%ADD24RoundRect,0.250000X-0.450000X0.262500X-0.450000X-0.262500X0.450000X-0.262500X0.450000X0.262500X0*%
%TD*%
%TA.AperFunction,SMDPad,CuDef*%
%ADD25RoundRect,0.243750X-0.456250X0.243750X-0.456250X-0.243750X0.456250X-0.243750X0.456250X0.243750X0*%
%TD*%
%TA.AperFunction,SMDPad,CuDef*%
%ADD26RoundRect,0.225000X0.250000X-0.225000X0.250000X0.225000X-0.250000X0.225000X-0.250000X-0.225000X0*%
%TD*%
%TA.AperFunction,ViaPad*%
%ADD27C,0.600000*%
%TD*%
%TA.AperFunction,ViaPad*%
%ADD28C,0.558800*%
%TD*%
%TA.AperFunction,ViaPad*%
%ADD29C,0.812800*%
%TD*%
%TA.AperFunction,ViaPad*%
%ADD30C,0.500000*%
%TD*%
%TA.AperFunction,Conductor*%
%ADD31C,0.304800*%
%TD*%
%TA.AperFunction,Conductor*%
%ADD32C,0.254000*%
%TD*%
%TA.AperFunction,Conductor*%
%ADD33C,0.635000*%
%TD*%
%TA.AperFunction,Conductor*%
%ADD34C,0.200000*%
%TD*%
%TA.AperFunction,Conductor*%
%ADD35C,0.508000*%
%TD*%
G04 APERTURE END LIST*
D10*
%TO.P,U2,1,VI*%
%TO.N,+BATT*%
X221200000Y-69900000D03*
%TO.P,U2,2,GND*%
%TO.N,GND*%
X218900000Y-69900000D03*
D11*
X218900000Y-63600000D03*
D10*
%TO.P,U2,3,VO*%
%TO.N,+3.3V*%
X216600000Y-69900000D03*
%TD*%
D12*
%TO.P,J3,1,Pin_1*%
%TO.N,Net-(J3-Pin_1)*%
X172975000Y-74500000D03*
D13*
%TO.P,J3,2,Pin_2*%
%TO.N,GND*%
X170435000Y-74500000D03*
%TD*%
D14*
%TO.P,J6,1,Pin_1*%
%TO.N,GND*%
X214100000Y-86200000D03*
%TD*%
%TO.P,J8,1,Pin_1*%
%TO.N,Net-(J8-Pin_1)*%
X168800000Y-101400000D03*
%TD*%
%TO.P,J7,1,Pin_1*%
%TO.N,Net-(J7-Pin_1)*%
X210376010Y-102699683D03*
%TD*%
%TO.P,J9,1,Pin_1*%
%TO.N,GND*%
X168600000Y-87900000D03*
%TD*%
D15*
%TO.P,Y1,1,OUTPUT*%
%TO.N,XTAL*%
X192776010Y-79999683D03*
%TO.P,Y1,2,GND*%
%TO.N,GND*%
X194576010Y-79999683D03*
%TO.P,Y1,3,OE*%
%TO.N,+3.3V*%
X194576010Y-80999683D03*
%TO.P,Y1,4,VDD*%
X192776010Y-80999683D03*
%TD*%
D16*
%TO.P,C2,1*%
%TO.N,+3.3V*%
X216725000Y-72100000D03*
%TO.P,C2,2*%
%TO.N,GND*%
X218275000Y-72100000D03*
%TD*%
D17*
%TO.P,D2,1,K*%
%TO.N,Net-(D2-K)*%
X162100000Y-83937500D03*
%TO.P,D2,2,A*%
%TO.N,Net-(D2-A)*%
X162100000Y-82062500D03*
%TD*%
D18*
%TO.P,S3,1*%
%TO.N,L_BUTTON*%
X200152020Y-108000000D03*
D19*
%TO.P,S3,2*%
%TO.N,unconnected-(S3-Pad2)*%
X193652020Y-108000000D03*
%TO.P,S3,3*%
%TO.N,GND*%
X200152020Y-112500000D03*
%TO.P,S3,4*%
%TO.N,unconnected-(S3-Pad4)*%
X193652020Y-112500000D03*
%TD*%
D18*
%TO.P,S2,1*%
%TO.N,C_BUTTON*%
X195026010Y-101400000D03*
D19*
%TO.P,S2,2*%
%TO.N,unconnected-(S2-Pad2)*%
X188526010Y-101400000D03*
%TO.P,S2,3*%
%TO.N,GND*%
X195026010Y-105900000D03*
%TO.P,S2,4*%
%TO.N,unconnected-(S2-Pad4)*%
X188526010Y-105900000D03*
%TD*%
D17*
%TO.P,D3,1,K*%
%TO.N,Net-(D3-K)*%
X221452020Y-83937500D03*
%TO.P,D3,2,A*%
%TO.N,Net-(D3-A)*%
X221452020Y-82062500D03*
%TD*%
D20*
%TO.P,J10,1,1*%
%TO.N,GND*%
X188450000Y-74800000D03*
%TO.P,J10,2,2*%
%TO.N,+3.3V*%
X187950000Y-74800000D03*
%TO.P,J10,3,3*%
%TO.N,LCD_SCK*%
X187450000Y-74800000D03*
%TO.P,J10,4,4*%
%TO.N,LCD_MOSI*%
X186950000Y-74800000D03*
%TO.P,J10,5,5*%
%TO.N,LCD_RESET*%
X186450000Y-74800000D03*
%TO.P,J10,6,6*%
%TO.N,LCD_DC*%
X185950000Y-74800000D03*
%TO.P,J10,7,7*%
%TO.N,LCD_CS*%
X185450000Y-74800000D03*
%TO.P,J10,8,8*%
%TO.N,LCD_BLK*%
X184950000Y-74800000D03*
D21*
%TO.P,J10,S1*%
%TO.N,N/C*%
X189820000Y-75670000D03*
D22*
%TO.P,J10,S2*%
X183580000Y-75670000D03*
%TD*%
D23*
%TO.P,C1,1*%
%TO.N,+BATT*%
X221275000Y-72000000D03*
%TO.P,C1,2*%
%TO.N,GND*%
X219725000Y-72000000D03*
%TD*%
D24*
%TO.P,TH1,1*%
%TO.N,Net-(R28-Pad2)*%
X217452020Y-82087500D03*
%TO.P,TH1,2*%
%TO.N,TEMP_CH1*%
X217452020Y-83912500D03*
%TD*%
D25*
%TO.P,D4,1,K*%
%TO.N,Net-(D4-K)*%
X164100000Y-82062500D03*
%TO.P,D4,2,A*%
%TO.N,GND*%
X164100000Y-83937500D03*
%TD*%
%TO.P,D1,1,K*%
%TO.N,Net-(D1-K)*%
X219452020Y-82062500D03*
%TO.P,D1,2,A*%
%TO.N,GND*%
X219452020Y-83937500D03*
%TD*%
D18*
%TO.P,S1,1*%
%TO.N,unconnected-(S1-Pad1)*%
X189900000Y-108000000D03*
D19*
%TO.P,S1,2*%
%TO.N,R_BUTTON*%
X183400000Y-108000000D03*
%TO.P,S1,3*%
%TO.N,unconnected-(S1-Pad3)*%
X189900000Y-112500000D03*
%TO.P,S1,4*%
%TO.N,GND*%
X183400000Y-112500000D03*
%TD*%
D26*
%TO.P,C39,1*%
%TO.N,+3.3V*%
X196076010Y-81349683D03*
%TO.P,C39,2*%
%TO.N,GND*%
X196076010Y-79799683D03*
%TD*%
D24*
%TO.P,TH2,1*%
%TO.N,Net-(R30-Pad2)*%
X166100000Y-82087500D03*
%TO.P,TH2,2*%
%TO.N,TEMP_CH2*%
X166100000Y-83912500D03*
%TD*%
D27*
%TO.N,GND*%
X216576010Y-61199683D03*
X219376010Y-65599683D03*
X221276010Y-64399683D03*
X219876010Y-62199683D03*
X216076010Y-63899683D03*
X165376010Y-102799683D03*
X169676010Y-103799683D03*
X169876010Y-106999683D03*
%TO.N,Net-(D1-K)*%
X219700000Y-81200000D03*
%TO.N,GND*%
X183176010Y-81699683D03*
X172476010Y-91199683D03*
D28*
X163100000Y-94400000D03*
D27*
X223600000Y-88700000D03*
X157376010Y-84799683D03*
X199476010Y-91699683D03*
X187576010Y-95399683D03*
X220100000Y-78800000D03*
X209976010Y-91399683D03*
X187076010Y-99399683D03*
X219900000Y-85100000D03*
X225600000Y-81400000D03*
X195112711Y-78901730D03*
X194076010Y-89999683D03*
X175776010Y-90499683D03*
X184376010Y-82299683D03*
X205776010Y-106399683D03*
X170276010Y-84473000D03*
D29*
X219538164Y-68761837D03*
D27*
X220376010Y-98899683D03*
D28*
X171400000Y-102100000D03*
D27*
X181776010Y-86499683D03*
X199876010Y-100099683D03*
D28*
X160536219Y-79969477D03*
D30*
X220100000Y-86600000D03*
D27*
X220800000Y-95100000D03*
X164806726Y-85629654D03*
X191976010Y-92199683D03*
X218876010Y-91299683D03*
X192700000Y-75200000D03*
X158762500Y-76762500D03*
X178976010Y-101699683D03*
D28*
X172800000Y-105200000D03*
D27*
X187276010Y-113999683D03*
X201876010Y-97899683D03*
X164200000Y-75100000D03*
X164676010Y-91999683D03*
D28*
X175000000Y-95700000D03*
X162000000Y-91275000D03*
D30*
X216200000Y-76900000D03*
D27*
X168100000Y-95700000D03*
X211276010Y-77699683D03*
X179776010Y-106999683D03*
X223900000Y-86000000D03*
X221100000Y-75500000D03*
X183676010Y-102099683D03*
X193476010Y-84499683D03*
X165076010Y-99499683D03*
X179976010Y-103799683D03*
X162776010Y-88599683D03*
X182776010Y-90399683D03*
X191676010Y-86099683D03*
X215176010Y-97599683D03*
X196376010Y-114099683D03*
X196200000Y-75800000D03*
X191776010Y-114599683D03*
X181676010Y-91899683D03*
%TO.N,+3.3V*%
X183976010Y-91599683D03*
X220988683Y-78811317D03*
X225000000Y-82800000D03*
D28*
X157700000Y-80400000D03*
D27*
X197300000Y-112300000D03*
X159200000Y-74700000D03*
X183376010Y-83399683D03*
D29*
X217900000Y-68100000D03*
D27*
X192000000Y-105700000D03*
D30*
X213990192Y-75923902D03*
D27*
X186300000Y-112100000D03*
D28*
X160300000Y-95200000D03*
D27*
X190600000Y-96500000D03*
D30*
X218500000Y-95500000D03*
D27*
X200041359Y-74241359D03*
X166000000Y-74200000D03*
X201476010Y-92899683D03*
X164300000Y-101300000D03*
X185676010Y-95499683D03*
D30*
X213600000Y-79800000D03*
D27*
X188276010Y-76799683D03*
X200696880Y-90332329D03*
X170400000Y-77100000D03*
X193400000Y-78200000D03*
X217000000Y-90300000D03*
X166401126Y-85798604D03*
D28*
X159600000Y-82700000D03*
D27*
X181300000Y-74400000D03*
X222700000Y-70900000D03*
X190676010Y-78899683D03*
X167300000Y-91100000D03*
%TO.N,SWCLK*%
X198200000Y-77500000D03*
X197415057Y-86586865D03*
%TO.N,SWO*%
X195100000Y-84900000D03*
X196900000Y-77500000D03*
%TO.N,SWDIO*%
X199400000Y-77500000D03*
X196400272Y-87873000D03*
%TO.N,Net-(D4-K)*%
X164100000Y-81200000D03*
%TO.N,PPG_CH2*%
X167900000Y-76800000D03*
X186700000Y-82600000D03*
%TO.N,LCD_SCK*%
X189300000Y-87300000D03*
X188500000Y-78000000D03*
%TO.N,LCD_CS*%
X185564993Y-79451707D03*
%TO.N,LCD_MOSI*%
X189355919Y-88255919D03*
%TO.N,LCD_RESET*%
X186091817Y-81816179D03*
%TO.N,LCD_BLK*%
X183350000Y-74217500D03*
X185098725Y-80191051D03*
%TO.N,LCD_DC*%
X186445997Y-79766149D03*
%TO.N,+BATT*%
X223100000Y-66900000D03*
X223300000Y-69700000D03*
X202176010Y-114299683D03*
D28*
X172200000Y-103200000D03*
D27*
%TO.N,Net-(D2-K)*%
X161400000Y-88000000D03*
%TO.N,Net-(U5B-+)*%
X215000000Y-74600000D03*
X218800000Y-77600000D03*
%TO.N,LED_CLK*%
X216100000Y-88500000D03*
X209850000Y-80150000D03*
%TO.N,Net-(D3-K)*%
X222600000Y-85300000D03*
%TO.N,Net-(R28-Pad2)*%
X214400000Y-82100000D03*
%TO.N,TEMP_CH1*%
X216712021Y-85079800D03*
X200200000Y-86900000D03*
X194300000Y-87800000D03*
%TO.N,Net-(R30-Pad2)*%
X171500000Y-80000000D03*
%TO.N,TEMP_CH2*%
X182300000Y-83800000D03*
X166600214Y-87870724D03*
%TO.N,GSR_CH1*%
X220800000Y-90700000D03*
X218000000Y-90000000D03*
X201100000Y-87200000D03*
X193100000Y-87100000D03*
%TO.N,PPG_CH1*%
X200200000Y-78600000D03*
X217500000Y-74100000D03*
X223700000Y-73500000D03*
X195800000Y-88500000D03*
%TO.N,GSR_CH2*%
X169000000Y-91000000D03*
X166183138Y-96254676D03*
%TO.N,Net-(U9B-+)*%
X163300000Y-80400000D03*
X162487893Y-77587893D03*
%TO.N,VBAT*%
X192700000Y-90500000D03*
X196800000Y-94400000D03*
%TO.N,Net-(D2-A)*%
X161700000Y-76960893D03*
%TO.N,Net-(D3-A)*%
X223327400Y-82900000D03*
%TO.N,TEMP_CTRL*%
X198000000Y-82200000D03*
X191356644Y-82356642D03*
%TO.N,Net-(J3-Pin_1)*%
X217400000Y-65600000D03*
%TO.N,XTAL*%
X190376010Y-82899683D03*
%TD*%
D31*
%TO.N,Net-(D1-K)*%
X219700000Y-82062500D02*
X219700000Y-81200000D01*
D32*
%TO.N,GND*%
X194576010Y-79999683D02*
X194576010Y-79438431D01*
X194576010Y-79438431D02*
X195112711Y-78901730D01*
D31*
X218900000Y-71475000D02*
X218275000Y-72100000D01*
X219500000Y-72000000D02*
X218900000Y-71400000D01*
X219725000Y-72000000D02*
X219500000Y-72000000D01*
D32*
X164100000Y-84922928D02*
X164806726Y-85629654D01*
X164100000Y-83937500D02*
X164100000Y-84922928D01*
X188450000Y-74800000D02*
X189050000Y-74200000D01*
D33*
X218900000Y-69400001D02*
X218900000Y-69900000D01*
D32*
X194576010Y-79999683D02*
X195876010Y-79999683D01*
D31*
X218900000Y-69900000D02*
X218900000Y-71475000D01*
D32*
X192700000Y-75200000D02*
X191700000Y-74200000D01*
X189050000Y-74200000D02*
X191700000Y-74200000D01*
D33*
X219538164Y-68761837D02*
X218900000Y-69400001D01*
D31*
X219900000Y-83937500D02*
X219900000Y-85100000D01*
X218900000Y-71400000D02*
X218900000Y-69900000D01*
D32*
X195876010Y-79999683D02*
X196076010Y-79799683D01*
%TO.N,+3.3V*%
X193676010Y-80999683D02*
X193676010Y-78476010D01*
D31*
X216725000Y-70025000D02*
X216600000Y-69900000D01*
D32*
X193676010Y-80999683D02*
X194576010Y-80999683D01*
X195726010Y-80999683D02*
X196076010Y-81349683D01*
X187950000Y-76473673D02*
X188276010Y-76799683D01*
D33*
X216600000Y-69400000D02*
X217900000Y-68100000D01*
D32*
X192776010Y-80999683D02*
X193676010Y-80999683D01*
X187950000Y-74800000D02*
X187950000Y-76473673D01*
D33*
X216600000Y-69900000D02*
X216600000Y-69400000D01*
D31*
X216725000Y-72100000D02*
X216725000Y-70025000D01*
D32*
X194576010Y-80999683D02*
X195726010Y-80999683D01*
X193676010Y-78476010D02*
X193400000Y-78200000D01*
D34*
%TO.N,SWCLK*%
X198200000Y-77500000D02*
X199000000Y-78300000D01*
X199000000Y-78300000D02*
X199000000Y-85001922D01*
X199000000Y-85001922D02*
X197415057Y-86586865D01*
%TO.N,SWO*%
X196900000Y-77500000D02*
X197000000Y-77500000D01*
X198600000Y-83100000D02*
X196800000Y-84900000D01*
X196800000Y-84900000D02*
X195100000Y-84900000D01*
X197000000Y-77500000D02*
X198600000Y-79100000D01*
X198600000Y-79100000D02*
X198600000Y-83100000D01*
%TO.N,SWDIO*%
X199400000Y-86000000D02*
X199400000Y-77500000D01*
X197086407Y-87186865D02*
X198213135Y-87186865D01*
X198213135Y-87186865D02*
X199400000Y-86000000D01*
X196400272Y-87873000D02*
X197086407Y-87186865D01*
D32*
%TO.N,Net-(D4-K)*%
X164100000Y-81200000D02*
X164100000Y-82062500D01*
%TO.N,PPG_CH2*%
X169500000Y-78400000D02*
X167900000Y-76800000D01*
X174800000Y-80700000D02*
X174500000Y-80700000D01*
X183913288Y-80700000D02*
X185813288Y-82600000D01*
X174500000Y-80700000D02*
X172200000Y-78400000D01*
X185813288Y-82600000D02*
X186700000Y-82600000D01*
X174800000Y-80700000D02*
X183913288Y-80700000D01*
X172200000Y-78400000D02*
X169500000Y-78400000D01*
%TO.N,LCD_SCK*%
X187450000Y-76901784D02*
X187450000Y-74800000D01*
X188500000Y-78000000D02*
X188500000Y-77951784D01*
X189300000Y-87300000D02*
X188500000Y-86500000D01*
X188500000Y-86500000D02*
X188500000Y-78000000D01*
X188500000Y-77951784D02*
X187450000Y-76901784D01*
%TO.N,LCD_CS*%
X185450000Y-79336714D02*
X185450000Y-74800000D01*
X185564993Y-79451707D02*
X185450000Y-79336714D01*
%TO.N,LCD_MOSI*%
X187873000Y-78512149D02*
X187873000Y-77966837D01*
X187873000Y-86773000D02*
X189355919Y-88255919D01*
X187873000Y-77966837D02*
X186950000Y-77043837D01*
X186950000Y-77043837D02*
X186950000Y-74800000D01*
X187873000Y-78512149D02*
X187873000Y-86773000D01*
%TO.N,LCD_RESET*%
X186450000Y-77450001D02*
X186450000Y-74800000D01*
X187072997Y-78072998D02*
X186450000Y-77450001D01*
X187072997Y-80025861D02*
X187072997Y-78072998D01*
X186091817Y-81007041D02*
X187072997Y-80025861D01*
X186091817Y-81816179D02*
X186091817Y-81007041D01*
%TO.N,LCD_BLK*%
X184937993Y-74812007D02*
X184937993Y-80030319D01*
X184937993Y-80030319D02*
X185098725Y-80191051D01*
X184950000Y-74800000D02*
X184367500Y-74217500D01*
X184367500Y-74217500D02*
X183350000Y-74217500D01*
X184950000Y-74800000D02*
X184937993Y-74812007D01*
%TO.N,LCD_DC*%
X186400000Y-78042053D02*
X185950000Y-77592053D01*
X186400000Y-79720152D02*
X186400000Y-78042053D01*
X185950000Y-77592053D02*
X185950000Y-74800000D01*
X186445997Y-79766149D02*
X186400000Y-79720152D01*
D35*
%TO.N,+BATT*%
X221400000Y-69700000D02*
X221200000Y-69900000D01*
D31*
X221200000Y-71925000D02*
X221275000Y-72000000D01*
X221200000Y-69900000D02*
X221200000Y-71925000D01*
D35*
X223300000Y-69700000D02*
X221400000Y-69700000D01*
D31*
%TO.N,Net-(D2-K)*%
X161400000Y-84637500D02*
X162100000Y-83937500D01*
X161400000Y-88000000D02*
X161400000Y-84637500D01*
%TO.N,Net-(U5B-+)*%
X218800000Y-77600000D02*
X218000000Y-77600000D01*
X218000000Y-77600000D02*
X215000000Y-74600000D01*
D32*
%TO.N,LED_CLK*%
X209850000Y-80150000D02*
X210633769Y-80150000D01*
X216100000Y-85616231D02*
X216100000Y-88500000D01*
X210633769Y-80150000D02*
X216100000Y-85616231D01*
D31*
%TO.N,Net-(D3-K)*%
X221900000Y-83937500D02*
X221900000Y-84600000D01*
X221900000Y-84600000D02*
X222600000Y-85300000D01*
%TO.N,Net-(R28-Pad2)*%
X217900000Y-82087500D02*
X214412500Y-82087500D01*
X214412500Y-82087500D02*
X214400000Y-82100000D01*
D32*
%TO.N,TEMP_CH1*%
X195540288Y-89127000D02*
X194300000Y-87886712D01*
X197973000Y-89127000D02*
X195540288Y-89127000D01*
D31*
X217900000Y-83912500D02*
X217879321Y-83912500D01*
X217879321Y-83912500D02*
X216712021Y-85079800D01*
D32*
X200200000Y-86900000D02*
X197973000Y-89127000D01*
X194300000Y-87886712D02*
X194300000Y-87800000D01*
%TO.N,Net-(R30-Pad2)*%
X171500000Y-80000000D02*
X171100000Y-80400000D01*
X166800000Y-80400000D02*
X166100000Y-81100000D01*
X171100000Y-80400000D02*
X166800000Y-80400000D01*
X166100000Y-81100000D02*
X166100000Y-82087500D01*
%TO.N,TEMP_CH2*%
X176300000Y-83800000D02*
X182300000Y-83800000D01*
X175000000Y-85100000D02*
X176300000Y-83800000D01*
X165676010Y-84336490D02*
X166100000Y-83912500D01*
X165676010Y-86946520D02*
X165676010Y-84336490D01*
X166600214Y-87870724D02*
X165676010Y-86946520D01*
X166600214Y-87870724D02*
X166600214Y-87316017D01*
X166600214Y-87316017D02*
X168816231Y-85100000D01*
X168816231Y-85100000D02*
X175000000Y-85100000D01*
%TO.N,GSR_CH1*%
X193100000Y-87600000D02*
X193100000Y-87100000D01*
X220800000Y-90700000D02*
X220100000Y-90000000D01*
X220100000Y-90000000D02*
X218000000Y-90000000D01*
X201100000Y-87200000D02*
X198693600Y-89606400D01*
X198693600Y-89606400D02*
X195106400Y-89606400D01*
X195106400Y-89606400D02*
X193100000Y-87600000D01*
D31*
%TO.N,PPG_CH1*%
X223700000Y-73500000D02*
X218100000Y-73500000D01*
X218100000Y-73500000D02*
X217500000Y-74100000D01*
D32*
X200200000Y-78600000D02*
X200200000Y-85803870D01*
X197503870Y-88500000D02*
X195800000Y-88500000D01*
X200200000Y-85803870D02*
X197503870Y-88500000D01*
D31*
%TO.N,GSR_CH2*%
X169000000Y-93437814D02*
X169000000Y-91000000D01*
X166183138Y-96254676D02*
X169000000Y-93437814D01*
D32*
%TO.N,Net-(U9B-+)*%
X162487893Y-79587893D02*
X163300000Y-80400000D01*
X162487893Y-77587893D02*
X162487893Y-79587893D01*
%TO.N,VBAT*%
X192900000Y-90500000D02*
X192700000Y-90500000D01*
X196800000Y-94400000D02*
X192900000Y-90500000D01*
D31*
%TO.N,Net-(D2-A)*%
X162100000Y-82062500D02*
X161700000Y-81662500D01*
X161700000Y-81662500D02*
X161700000Y-76960893D01*
%TO.N,Net-(D3-A)*%
X221900000Y-82062500D02*
X222489900Y-82062500D01*
X222489900Y-82062500D02*
X223327400Y-82900000D01*
D32*
%TO.N,TEMP_CTRL*%
X191407203Y-82306083D02*
X191356644Y-82356642D01*
X197893917Y-82306083D02*
X191407203Y-82306083D01*
X198000000Y-82200000D02*
X197893917Y-82306083D01*
%TO.N,XTAL*%
X192776010Y-79999683D02*
X192172010Y-79999683D01*
X192172010Y-79999683D02*
X190376010Y-81795683D01*
X190376010Y-81795683D02*
X190376010Y-82899683D01*
%TD*%
%TA.AperFunction,Conductor*%
%TO.N,GND*%
G36*
X188517252Y-75432911D02*
G01*
X188573924Y-75473777D01*
X188599506Y-75538795D01*
X188600000Y-75549848D01*
X188600000Y-76004837D01*
X188627666Y-76055504D01*
X188630500Y-76081862D01*
X188630500Y-76160751D01*
X188610815Y-76227790D01*
X188558011Y-76273545D01*
X188488853Y-76283489D01*
X188459049Y-76275313D01*
X188445776Y-76269815D01*
X188420764Y-76259455D01*
X188420762Y-76259454D01*
X188413257Y-76256346D01*
X188414039Y-76254456D01*
X188363738Y-76223789D01*
X188333215Y-76160940D01*
X188331500Y-76140388D01*
X188331500Y-75643845D01*
X188337954Y-75611402D01*
X188337351Y-75611282D01*
X188343893Y-75578394D01*
X188354382Y-75525656D01*
X188386767Y-75463746D01*
X188447482Y-75429172D01*
X188517252Y-75432911D01*
G37*
%TD.AperFunction*%
%TA.AperFunction,Conductor*%
G36*
X219668039Y-71769685D02*
G01*
X219713794Y-71822489D01*
X219725000Y-71874000D01*
X219725000Y-72126000D01*
X219705315Y-72193039D01*
X219652511Y-72238794D01*
X219601000Y-72250000D01*
X219355000Y-72250000D01*
X219345023Y-72259976D01*
X219335315Y-72293039D01*
X219282511Y-72338794D01*
X219231000Y-72350000D01*
X218399000Y-72350000D01*
X218331961Y-72330315D01*
X218286206Y-72277511D01*
X218275000Y-72226000D01*
X218275000Y-71974000D01*
X218294685Y-71906961D01*
X218347489Y-71861206D01*
X218399000Y-71850000D01*
X218645000Y-71850000D01*
X218654976Y-71840023D01*
X218664685Y-71806961D01*
X218717489Y-71761206D01*
X218769000Y-71750000D01*
X219601000Y-71750000D01*
X219668039Y-71769685D01*
G37*
%TD.AperFunction*%
%TA.AperFunction,Conductor*%
G36*
X215419861Y-55474179D02*
G01*
X215422670Y-55476691D01*
X215788236Y-55813703D01*
X216153797Y-56150711D01*
X216156798Y-56153571D01*
X216994286Y-56979108D01*
X216997189Y-56982067D01*
X217806587Y-57835109D01*
X217809390Y-57838163D01*
X218589853Y-58717817D01*
X218592552Y-58720964D01*
X219343157Y-59626192D01*
X219345749Y-59629427D01*
X220065660Y-60559218D01*
X220068132Y-60562522D01*
X220609095Y-61311647D01*
X220756607Y-61515920D01*
X220758967Y-61519306D01*
X220913441Y-61749028D01*
X221415162Y-62495147D01*
X221417411Y-62498615D01*
X222040661Y-63495907D01*
X222042772Y-63499416D01*
X222632292Y-64516904D01*
X222634310Y-64520525D01*
X223189497Y-65557165D01*
X223191393Y-65560852D01*
X223527212Y-66241634D01*
X223539216Y-66310465D01*
X223512102Y-66374859D01*
X223454478Y-66414371D01*
X223384639Y-66416457D01*
X223368554Y-66411051D01*
X223244757Y-66359773D01*
X223244752Y-66359771D01*
X223100001Y-66340715D01*
X223099999Y-66340715D01*
X222955247Y-66359771D01*
X222955245Y-66359772D01*
X222820361Y-66415643D01*
X222704526Y-66504526D01*
X222615643Y-66620361D01*
X222559772Y-66755245D01*
X222559771Y-66755247D01*
X222540715Y-66899998D01*
X222540715Y-66900001D01*
X222559771Y-67044752D01*
X222559773Y-67044757D01*
X222615642Y-67179638D01*
X222615645Y-67179644D01*
X222704525Y-67295473D01*
X222704526Y-67295474D01*
X222820355Y-67384354D01*
X222820361Y-67384357D01*
X222887801Y-67412291D01*
X222955246Y-67440228D01*
X223027623Y-67449756D01*
X223099999Y-67459285D01*
X223100000Y-67459285D01*
X223100001Y-67459285D01*
X223148251Y-67452932D01*
X223244754Y-67440228D01*
X223379643Y-67384355D01*
X223495474Y-67295474D01*
X223584355Y-67179643D01*
X223640228Y-67044754D01*
X223643372Y-67020868D01*
X223671637Y-66956973D01*
X223729961Y-66918501D01*
X223799826Y-66917668D01*
X223859050Y-66954739D01*
X223879289Y-66985945D01*
X224198075Y-67690638D01*
X224199720Y-67694443D01*
X224288941Y-67910637D01*
X224645092Y-68773644D01*
X224648314Y-68781450D01*
X224649831Y-68785308D01*
X225061851Y-69886734D01*
X225063238Y-69890640D01*
X225438199Y-71005182D01*
X225439453Y-71009128D01*
X225762864Y-72088567D01*
X225776962Y-72135622D01*
X225778085Y-72139613D01*
X226077736Y-73276707D01*
X226078726Y-73280733D01*
X226340212Y-74427259D01*
X226341066Y-74431315D01*
X226564080Y-75585923D01*
X226564798Y-75590006D01*
X226749092Y-76751422D01*
X226749673Y-76755526D01*
X226895041Y-77922440D01*
X226895485Y-77926562D01*
X227001770Y-79097723D01*
X227002075Y-79101857D01*
X227069151Y-80275878D01*
X227069318Y-80280020D01*
X227097113Y-81455622D01*
X227097142Y-81459767D01*
X227085626Y-82635670D01*
X227085516Y-82639814D01*
X227034702Y-83814647D01*
X227034454Y-83818785D01*
X226944394Y-84991301D01*
X226944007Y-84995429D01*
X226814810Y-86164236D01*
X226814286Y-86168348D01*
X226646090Y-87332200D01*
X226645429Y-87336292D01*
X226438421Y-88493890D01*
X226437623Y-88497958D01*
X226192036Y-89647988D01*
X226191102Y-89652027D01*
X225907226Y-90793147D01*
X225906159Y-90797153D01*
X225584270Y-91928247D01*
X225583068Y-91932214D01*
X225223577Y-93051832D01*
X225222244Y-93055757D01*
X224825527Y-94162743D01*
X224824064Y-94166622D01*
X224390543Y-95259786D01*
X224388950Y-95263613D01*
X223919161Y-96341608D01*
X223917442Y-96345380D01*
X223411861Y-97407112D01*
X223410016Y-97410825D01*
X222869240Y-98455040D01*
X222867273Y-98458688D01*
X222291882Y-99484269D01*
X222289793Y-99487850D01*
X221680456Y-100493601D01*
X221678249Y-100497110D01*
X221035636Y-101481927D01*
X221033313Y-101485361D01*
X220358126Y-102448170D01*
X220355690Y-102451523D01*
X219648701Y-103391220D01*
X219646153Y-103394491D01*
X218908153Y-104310025D01*
X218905498Y-104313208D01*
X218137312Y-105203557D01*
X218134552Y-105206650D01*
X217337026Y-106070833D01*
X217334164Y-106073832D01*
X216508215Y-106910855D01*
X216505255Y-106913757D01*
X215651757Y-107722734D01*
X215648701Y-107725535D01*
X214768651Y-108505523D01*
X214765503Y-108508220D01*
X213859897Y-109258332D01*
X213856661Y-109260923D01*
X212926458Y-109980370D01*
X212923137Y-109982851D01*
X211969412Y-110670798D01*
X211966009Y-110673167D01*
X210989824Y-111328847D01*
X210986345Y-111331100D01*
X209988793Y-111953781D01*
X209985240Y-111955917D01*
X208967433Y-112544905D01*
X208963811Y-112546921D01*
X207926891Y-113101557D01*
X207923204Y-113103451D01*
X206868312Y-113623122D01*
X206864563Y-113624892D01*
X205792875Y-114109017D01*
X205789069Y-114110660D01*
X204701816Y-114558685D01*
X204697957Y-114560200D01*
X203596335Y-114971632D01*
X203592428Y-114973017D01*
X202477679Y-115347394D01*
X202473728Y-115348648D01*
X201347068Y-115685559D01*
X201343077Y-115686680D01*
X200205796Y-115985740D01*
X200201770Y-115986727D01*
X199055129Y-116247604D01*
X199051072Y-116248456D01*
X197896352Y-116470861D01*
X197892269Y-116471577D01*
X196730752Y-116655260D01*
X196726647Y-116655839D01*
X195559631Y-116800595D01*
X195555509Y-116801036D01*
X194384351Y-116906699D01*
X194380217Y-116907003D01*
X193206130Y-116973462D01*
X193201988Y-116973627D01*
X192026343Y-117000804D01*
X192022197Y-117000830D01*
X190846331Y-116988694D01*
X190842187Y-116988582D01*
X189667378Y-116937149D01*
X189663241Y-116936899D01*
X188490775Y-116846222D01*
X188486647Y-116845833D01*
X187317904Y-116716019D01*
X187313793Y-116715493D01*
X186150005Y-116546681D01*
X186145913Y-116546017D01*
X184988454Y-116338404D01*
X184984386Y-116337604D01*
X183834507Y-116091417D01*
X183830469Y-116090482D01*
X182689442Y-115805991D01*
X182685437Y-115804921D01*
X181554549Y-115482446D01*
X181550582Y-115481242D01*
X180431154Y-115121162D01*
X180427229Y-115119827D01*
X179320444Y-114722524D01*
X179316566Y-114721059D01*
X178255654Y-114299681D01*
X201616725Y-114299681D01*
X201616725Y-114299684D01*
X201635781Y-114444435D01*
X201635783Y-114444440D01*
X201691652Y-114579321D01*
X201691655Y-114579327D01*
X201780535Y-114695156D01*
X201780536Y-114695157D01*
X201896365Y-114784037D01*
X201896371Y-114784040D01*
X201963811Y-114811974D01*
X202031256Y-114839911D01*
X202103633Y-114849439D01*
X202176009Y-114858968D01*
X202176010Y-114858968D01*
X202176011Y-114858968D01*
X202224261Y-114852615D01*
X202320764Y-114839911D01*
X202455653Y-114784038D01*
X202571484Y-114695157D01*
X202660365Y-114579326D01*
X202716238Y-114444437D01*
X202735295Y-114299683D01*
X202716238Y-114154929D01*
X202660365Y-114020041D01*
X202571484Y-113904209D01*
X202455653Y-113815328D01*
X202455650Y-113815327D01*
X202455648Y-113815325D01*
X202320767Y-113759456D01*
X202320762Y-113759454D01*
X202176011Y-113740398D01*
X202176009Y-113740398D01*
X202031257Y-113759454D01*
X202031255Y-113759455D01*
X201896371Y-113815326D01*
X201780536Y-113904209D01*
X201691653Y-114020044D01*
X201635782Y-114154928D01*
X201635781Y-114154930D01*
X201616725Y-114299681D01*
X178255654Y-114299681D01*
X178223629Y-114286961D01*
X178219803Y-114285366D01*
X177489906Y-113966820D01*
X177142041Y-113815002D01*
X177138301Y-113813295D01*
X176642540Y-113576901D01*
X176076821Y-113307148D01*
X176073109Y-113305301D01*
X175029178Y-112763976D01*
X175025531Y-112762007D01*
X174559103Y-112499999D01*
X182141210Y-112499999D01*
X182141210Y-112500000D01*
X182160333Y-112718582D01*
X182160335Y-112718592D01*
X182217121Y-112930524D01*
X182217125Y-112930533D01*
X182309854Y-113129392D01*
X182354003Y-113192443D01*
X182917037Y-112629409D01*
X182934075Y-112692993D01*
X182999901Y-112807007D01*
X183092993Y-112900099D01*
X183207007Y-112965925D01*
X183270590Y-112982962D01*
X182707555Y-113545996D01*
X182770601Y-113590142D01*
X182770605Y-113590144D01*
X182969466Y-113682874D01*
X182969475Y-113682878D01*
X183181407Y-113739664D01*
X183181417Y-113739666D01*
X183399999Y-113758790D01*
X183400001Y-113758790D01*
X183618582Y-113739666D01*
X183618592Y-113739664D01*
X183830524Y-113682878D01*
X183830533Y-113682874D01*
X184029392Y-113590145D01*
X184092443Y-113545995D01*
X183529410Y-112982962D01*
X183592993Y-112965925D01*
X183707007Y-112900099D01*
X183800099Y-112807007D01*
X183865925Y-112692993D01*
X183882962Y-112629409D01*
X184445995Y-113192442D01*
X184490145Y-113129392D01*
X184582874Y-112930533D01*
X184582878Y-112930524D01*
X184639664Y-112718592D01*
X184639666Y-112718582D01*
X184658790Y-112500000D01*
X184658790Y-112499999D01*
X184639666Y-112281417D01*
X184639664Y-112281407D01*
X184591056Y-112099998D01*
X185740715Y-112099998D01*
X185740715Y-112100001D01*
X185759771Y-112244752D01*
X185759773Y-112244757D01*
X185815642Y-112379638D01*
X185815645Y-112379644D01*
X185904525Y-112495473D01*
X185904526Y-112495474D01*
X186020355Y-112584354D01*
X186020361Y-112584357D01*
X186087801Y-112612291D01*
X186155246Y-112640228D01*
X186227623Y-112649756D01*
X186299999Y-112659285D01*
X186300000Y-112659285D01*
X186300001Y-112659285D01*
X186348251Y-112652932D01*
X186444754Y-112640228D01*
X186579643Y-112584355D01*
X186689576Y-112500000D01*
X188886620Y-112500000D01*
X188906091Y-112697699D01*
X188963760Y-112887808D01*
X189057401Y-113062998D01*
X189057405Y-113063005D01*
X189183431Y-113216568D01*
X189336994Y-113342594D01*
X189337001Y-113342598D01*
X189512191Y-113436239D01*
X189512193Y-113436239D01*
X189512196Y-113436241D01*
X189702299Y-113493908D01*
X189702298Y-113493908D01*
X189720024Y-113495653D01*
X189900000Y-113513380D01*
X190097701Y-113493908D01*
X190287804Y-113436241D01*
X190463004Y-113342595D01*
X190616568Y-113216568D01*
X190742595Y-113063004D01*
X190836241Y-112887804D01*
X190893908Y-112697701D01*
X190913380Y-112500000D01*
X192638640Y-112500000D01*
X192658111Y-112697699D01*
X192715780Y-112887808D01*
X192809421Y-113062998D01*
X192809425Y-113063005D01*
X192935451Y-113216568D01*
X193089014Y-113342594D01*
X193089021Y-113342598D01*
X193264211Y-113436239D01*
X193264213Y-113436239D01*
X193264216Y-113436241D01*
X193454319Y-113493908D01*
X193454318Y-113493908D01*
X193472044Y-113495653D01*
X193652020Y-113513380D01*
X193849721Y-113493908D01*
X194039824Y-113436241D01*
X194215024Y-113342595D01*
X194368588Y-113216568D01*
X194494615Y-113063004D01*
X194588261Y-112887804D01*
X194645928Y-112697701D01*
X194665400Y-112500000D01*
X194645928Y-112302299D01*
X194645230Y-112299998D01*
X196740715Y-112299998D01*
X196740715Y-112300001D01*
X196759771Y-112444752D01*
X196759773Y-112444757D01*
X196815642Y-112579638D01*
X196815645Y-112579644D01*
X196904525Y-112695473D01*
X196904526Y-112695474D01*
X197020355Y-112784354D01*
X197020361Y-112784357D01*
X197087801Y-112812291D01*
X197155246Y-112840228D01*
X197227623Y-112849756D01*
X197299999Y-112859285D01*
X197300000Y-112859285D01*
X197300001Y-112859285D01*
X197348251Y-112852932D01*
X197444754Y-112840228D01*
X197579643Y-112784355D01*
X197695474Y-112695474D01*
X197784355Y-112579643D01*
X197817345Y-112499999D01*
X198893230Y-112499999D01*
X198893230Y-112500000D01*
X198912353Y-112718582D01*
X198912355Y-112718592D01*
X198969141Y-112930524D01*
X198969145Y-112930533D01*
X199061874Y-113129392D01*
X199106023Y-113192443D01*
X199669057Y-112629409D01*
X199686095Y-112692993D01*
X199751921Y-112807007D01*
X199845013Y-112900099D01*
X199959027Y-112965925D01*
X200022610Y-112982962D01*
X199459575Y-113545996D01*
X199522621Y-113590142D01*
X199522625Y-113590144D01*
X199721486Y-113682874D01*
X199721495Y-113682878D01*
X199933427Y-113739664D01*
X199933437Y-113739666D01*
X200152019Y-113758790D01*
X200152021Y-113758790D01*
X200370602Y-113739666D01*
X200370612Y-113739664D01*
X200582544Y-113682878D01*
X200582553Y-113682874D01*
X200781412Y-113590145D01*
X200844463Y-113545995D01*
X200281430Y-112982962D01*
X200345013Y-112965925D01*
X200459027Y-112900099D01*
X200552119Y-112807007D01*
X200617945Y-112692993D01*
X200634982Y-112629409D01*
X201198015Y-113192442D01*
X201242165Y-113129392D01*
X201334894Y-112930533D01*
X201334898Y-112930524D01*
X201391684Y-112718592D01*
X201391686Y-112718582D01*
X201410810Y-112500000D01*
X201410810Y-112499999D01*
X201391686Y-112281417D01*
X201391684Y-112281407D01*
X201334898Y-112069475D01*
X201334894Y-112069466D01*
X201242164Y-111870605D01*
X201242162Y-111870601D01*
X201198016Y-111807555D01*
X200634982Y-112370589D01*
X200617945Y-112307007D01*
X200552119Y-112192993D01*
X200459027Y-112099901D01*
X200345013Y-112034075D01*
X200281429Y-112017037D01*
X200844463Y-111454003D01*
X200781412Y-111409854D01*
X200582553Y-111317125D01*
X200582544Y-111317121D01*
X200370612Y-111260335D01*
X200370602Y-111260333D01*
X200152021Y-111241210D01*
X200152019Y-111241210D01*
X199933437Y-111260333D01*
X199933427Y-111260335D01*
X199721495Y-111317121D01*
X199721486Y-111317124D01*
X199522626Y-111409855D01*
X199522624Y-111409856D01*
X199459576Y-111454003D01*
X199459575Y-111454003D01*
X200022610Y-112017037D01*
X199959027Y-112034075D01*
X199845013Y-112099901D01*
X199751921Y-112192993D01*
X199686095Y-112307007D01*
X199669057Y-112370590D01*
X199106023Y-111807555D01*
X199106023Y-111807556D01*
X199061876Y-111870604D01*
X199061875Y-111870606D01*
X198969144Y-112069466D01*
X198969141Y-112069475D01*
X198912355Y-112281407D01*
X198912353Y-112281417D01*
X198893230Y-112499999D01*
X197817345Y-112499999D01*
X197840228Y-112444754D01*
X197859285Y-112300000D01*
X197840228Y-112155246D01*
X197784355Y-112020358D01*
X197695474Y-111904526D01*
X197579643Y-111815645D01*
X197579640Y-111815644D01*
X197579638Y-111815642D01*
X197444757Y-111759773D01*
X197444752Y-111759771D01*
X197300001Y-111740715D01*
X197299999Y-111740715D01*
X197155247Y-111759771D01*
X197155245Y-111759772D01*
X197020361Y-111815643D01*
X197020358Y-111815644D01*
X197020358Y-111815645D01*
X196904526Y-111904526D01*
X196865607Y-111955247D01*
X196815643Y-112020361D01*
X196759772Y-112155245D01*
X196759771Y-112155247D01*
X196740715Y-112299998D01*
X194645230Y-112299998D01*
X194588261Y-112112196D01*
X194588259Y-112112193D01*
X194588259Y-112112191D01*
X194494618Y-111937001D01*
X194494614Y-111936994D01*
X194368588Y-111783431D01*
X194215025Y-111657405D01*
X194215018Y-111657401D01*
X194039828Y-111563760D01*
X193944772Y-111534925D01*
X193849721Y-111506092D01*
X193849719Y-111506091D01*
X193849721Y-111506091D01*
X193652020Y-111486620D01*
X193454320Y-111506091D01*
X193264211Y-111563760D01*
X193089021Y-111657401D01*
X193089014Y-111657405D01*
X192935451Y-111783431D01*
X192809425Y-111936994D01*
X192809421Y-111937001D01*
X192715780Y-112112191D01*
X192658111Y-112302300D01*
X192638640Y-112500000D01*
X190913380Y-112500000D01*
X190893908Y-112302299D01*
X190836241Y-112112196D01*
X190836239Y-112112193D01*
X190836239Y-112112191D01*
X190742598Y-111937001D01*
X190742594Y-111936994D01*
X190616568Y-111783431D01*
X190463005Y-111657405D01*
X190462998Y-111657401D01*
X190287808Y-111563760D01*
X190192752Y-111534925D01*
X190097701Y-111506092D01*
X190097699Y-111506091D01*
X190097701Y-111506091D01*
X189900000Y-111486620D01*
X189702300Y-111506091D01*
X189512191Y-111563760D01*
X189337001Y-111657401D01*
X189336994Y-111657405D01*
X189183431Y-111783431D01*
X189057405Y-111936994D01*
X189057401Y-111937001D01*
X188963760Y-112112191D01*
X188906091Y-112302300D01*
X188886620Y-112500000D01*
X186689576Y-112500000D01*
X186695474Y-112495474D01*
X186784355Y-112379643D01*
X186840228Y-112244754D01*
X186859285Y-112100000D01*
X186855266Y-112069475D01*
X186840228Y-111955247D01*
X186840228Y-111955246D01*
X186784355Y-111820358D01*
X186695474Y-111704526D01*
X186579643Y-111615645D01*
X186579640Y-111615644D01*
X186579638Y-111615642D01*
X186444757Y-111559773D01*
X186444752Y-111559771D01*
X186300001Y-111540715D01*
X186299999Y-111540715D01*
X186155247Y-111559771D01*
X186155245Y-111559772D01*
X186020361Y-111615643D01*
X186020358Y-111615644D01*
X186020358Y-111615645D01*
X185904526Y-111704526D01*
X185819262Y-111815645D01*
X185815643Y-111820361D01*
X185759772Y-111955245D01*
X185759771Y-111955247D01*
X185740715Y-112099998D01*
X184591056Y-112099998D01*
X184582878Y-112069475D01*
X184582874Y-112069466D01*
X184490144Y-111870605D01*
X184490142Y-111870601D01*
X184445996Y-111807555D01*
X183882962Y-112370589D01*
X183865925Y-112307007D01*
X183800099Y-112192993D01*
X183707007Y-112099901D01*
X183592993Y-112034075D01*
X183529409Y-112017037D01*
X184092443Y-111454003D01*
X184029392Y-111409854D01*
X183830533Y-111317125D01*
X183830524Y-111317121D01*
X183618592Y-111260335D01*
X183618582Y-111260333D01*
X183400001Y-111241210D01*
X183399999Y-111241210D01*
X183181417Y-111260333D01*
X183181407Y-111260335D01*
X182969475Y-111317121D01*
X182969466Y-111317124D01*
X182770606Y-111409855D01*
X182770604Y-111409856D01*
X182707556Y-111454003D01*
X182707555Y-111454003D01*
X183270590Y-112017037D01*
X183207007Y-112034075D01*
X183092993Y-112099901D01*
X182999901Y-112192993D01*
X182934075Y-112307007D01*
X182917037Y-112370590D01*
X182354003Y-111807555D01*
X182354003Y-111807556D01*
X182309856Y-111870604D01*
X182309855Y-111870606D01*
X182217124Y-112069466D01*
X182217121Y-112069475D01*
X182160335Y-112281407D01*
X182160333Y-112281417D01*
X182141210Y-112499999D01*
X174559103Y-112499999D01*
X174000252Y-112186074D01*
X173996672Y-112183983D01*
X172991265Y-111574130D01*
X172987757Y-111571922D01*
X172003243Y-110928768D01*
X171999811Y-110926443D01*
X171037366Y-110250754D01*
X171034013Y-110248315D01*
X170094699Y-109540838D01*
X170091430Y-109538289D01*
X169176299Y-108799819D01*
X169173117Y-108797163D01*
X168283141Y-108028480D01*
X168280050Y-108025718D01*
X168252212Y-108000000D01*
X182386620Y-108000000D01*
X182406091Y-108197699D01*
X182463760Y-108387808D01*
X182557401Y-108562998D01*
X182557405Y-108563005D01*
X182683431Y-108716568D01*
X182836994Y-108842594D01*
X182837001Y-108842598D01*
X183012191Y-108936239D01*
X183012193Y-108936239D01*
X183012196Y-108936241D01*
X183202299Y-108993908D01*
X183202298Y-108993908D01*
X183220024Y-108995653D01*
X183400000Y-109013380D01*
X183597701Y-108993908D01*
X183787804Y-108936241D01*
X183963004Y-108842595D01*
X184116568Y-108716568D01*
X184242595Y-108563004D01*
X184336241Y-108387804D01*
X184393908Y-108197701D01*
X184413380Y-108000000D01*
X184393908Y-107802299D01*
X184336241Y-107612196D01*
X184336239Y-107612193D01*
X184336239Y-107612191D01*
X184242598Y-107437001D01*
X184242594Y-107436994D01*
X184116568Y-107283431D01*
X183963005Y-107157405D01*
X183962998Y-107157401D01*
X183787808Y-107063760D01*
X183674438Y-107029370D01*
X183597701Y-107006092D01*
X183597699Y-107006091D01*
X183597701Y-107006091D01*
X183400000Y-106986620D01*
X183202300Y-107006091D01*
X183012191Y-107063760D01*
X182837001Y-107157401D01*
X182836994Y-107157405D01*
X182683431Y-107283431D01*
X182557405Y-107436994D01*
X182557401Y-107437001D01*
X182463760Y-107612191D01*
X182406091Y-107802300D01*
X182386620Y-108000000D01*
X168252212Y-108000000D01*
X167416303Y-107227752D01*
X167413305Y-107224888D01*
X167321309Y-107134014D01*
X166576702Y-106398484D01*
X166573802Y-106395522D01*
X166287356Y-106092993D01*
X166104623Y-105900000D01*
X187512630Y-105900000D01*
X187532101Y-106097699D01*
X187589770Y-106287808D01*
X187683411Y-106462998D01*
X187683415Y-106463005D01*
X187809441Y-106616568D01*
X187963004Y-106742594D01*
X187963011Y-106742598D01*
X188138201Y-106836239D01*
X188138203Y-106836239D01*
X188138206Y-106836241D01*
X188328309Y-106893908D01*
X188328308Y-106893908D01*
X188346034Y-106895653D01*
X188526010Y-106913380D01*
X188723711Y-106893908D01*
X188834805Y-106860207D01*
X188904671Y-106859584D01*
X188963784Y-106896832D01*
X188993375Y-106960125D01*
X188984050Y-107029370D01*
X188968574Y-107051875D01*
X188969301Y-107052361D01*
X188906266Y-107146699D01*
X188906264Y-107146703D01*
X188891500Y-107220928D01*
X188891500Y-108779063D01*
X188906266Y-108853301D01*
X188962515Y-108937484D01*
X188996234Y-108960014D01*
X189046699Y-108993734D01*
X189046702Y-108993734D01*
X189046703Y-108993735D01*
X189071666Y-108998700D01*
X189120933Y-109008500D01*
X190679066Y-109008499D01*
X190753301Y-108993734D01*
X190837484Y-108937484D01*
X190893734Y-108853301D01*
X190908500Y-108779067D01*
X190908499Y-108000000D01*
X192638640Y-108000000D01*
X192658111Y-108197699D01*
X192715780Y-108387808D01*
X192809421Y-108562998D01*
X192809425Y-108563005D01*
X192935451Y-108716568D01*
X193089014Y-108842594D01*
X193089021Y-108842598D01*
X193264211Y-108936239D01*
X193264213Y-108936239D01*
X193264216Y-108936241D01*
X193454319Y-108993908D01*
X193454318Y-108993908D01*
X193472044Y-108995653D01*
X193652020Y-109013380D01*
X193849721Y-108993908D01*
X194039824Y-108936241D01*
X194215024Y-108842595D01*
X194368588Y-108716568D01*
X194494615Y-108563004D01*
X194588261Y-108387804D01*
X194645928Y-108197701D01*
X194665400Y-108000000D01*
X194645928Y-107802299D01*
X194588261Y-107612196D01*
X194588259Y-107612193D01*
X194588259Y-107612191D01*
X194494618Y-107437001D01*
X194494614Y-107436994D01*
X194368588Y-107283431D01*
X194292427Y-107220928D01*
X199143520Y-107220928D01*
X199143520Y-108779063D01*
X199158286Y-108853301D01*
X199214535Y-108937484D01*
X199248254Y-108960014D01*
X199298719Y-108993734D01*
X199298722Y-108993734D01*
X199298723Y-108993735D01*
X199323686Y-108998700D01*
X199372953Y-109008500D01*
X200931086Y-109008499D01*
X201005321Y-108993734D01*
X201089504Y-108937484D01*
X201145754Y-108853301D01*
X201160520Y-108779067D01*
X201160519Y-107220934D01*
X201145754Y-107146699D01*
X201103107Y-107082874D01*
X201089504Y-107062515D01*
X201039039Y-107028796D01*
X201005321Y-107006266D01*
X201005319Y-107006265D01*
X201005316Y-107006264D01*
X200931089Y-106991500D01*
X199372956Y-106991500D01*
X199298718Y-107006266D01*
X199214535Y-107062515D01*
X199158286Y-107146699D01*
X199158284Y-107146703D01*
X199143520Y-107220928D01*
X194292427Y-107220928D01*
X194264170Y-107197738D01*
X194227313Y-107143630D01*
X194190092Y-107142154D01*
X194171263Y-107134014D01*
X194039824Y-107063759D01*
X194002250Y-107052361D01*
X193849721Y-107006092D01*
X193849719Y-107006091D01*
X193849721Y-107006091D01*
X193652020Y-106986620D01*
X193454320Y-107006091D01*
X193264211Y-107063760D01*
X193089021Y-107157401D01*
X193089014Y-107157405D01*
X192935451Y-107283431D01*
X192809425Y-107436994D01*
X192809421Y-107437001D01*
X192715780Y-107612191D01*
X192658111Y-107802300D01*
X192638640Y-108000000D01*
X190908499Y-108000000D01*
X190908499Y-107220934D01*
X190893734Y-107146699D01*
X190851087Y-107082874D01*
X190837484Y-107062515D01*
X190787019Y-107028796D01*
X190753301Y-107006266D01*
X190753299Y-107006265D01*
X190753296Y-107006264D01*
X190679071Y-106991500D01*
X189118380Y-106991500D01*
X189051341Y-106971815D01*
X189005586Y-106919011D01*
X188995642Y-106849853D01*
X189024667Y-106786297D01*
X189059927Y-106758142D01*
X189089014Y-106742595D01*
X189242578Y-106616568D01*
X189368605Y-106463004D01*
X189462251Y-106287804D01*
X189519918Y-106097701D01*
X189539390Y-105900000D01*
X189519918Y-105702299D01*
X189519220Y-105699998D01*
X191440715Y-105699998D01*
X191440715Y-105700001D01*
X191459771Y-105844752D01*
X191459773Y-105844757D01*
X191515642Y-105979638D01*
X191515645Y-105979644D01*
X191604525Y-106095473D01*
X191604526Y-106095474D01*
X191720355Y-106184354D01*
X191720361Y-106184357D01*
X191787801Y-106212291D01*
X191855246Y-106240228D01*
X191927623Y-106249756D01*
X191999999Y-106259285D01*
X192000000Y-106259285D01*
X192000001Y-106259285D01*
X192048251Y-106252932D01*
X192144754Y-106240228D01*
X192279643Y-106184355D01*
X192395474Y-106095474D01*
X192484355Y-105979643D01*
X192517345Y-105899999D01*
X193767220Y-105899999D01*
X193767220Y-105900000D01*
X193786343Y-106118582D01*
X193786345Y-106118592D01*
X193843131Y-106330524D01*
X193843135Y-106330533D01*
X193935864Y-106529392D01*
X193980013Y-106592443D01*
X194543047Y-106029409D01*
X194560085Y-106092993D01*
X194625911Y-106207007D01*
X194719003Y-106300099D01*
X194833017Y-106365925D01*
X194896600Y-106382962D01*
X194333565Y-106945996D01*
X194335336Y-106966236D01*
X194344464Y-106977655D01*
X194344949Y-106982349D01*
X194391308Y-106987752D01*
X194395240Y-106989503D01*
X194595476Y-107082874D01*
X194595485Y-107082878D01*
X194807417Y-107139664D01*
X194807427Y-107139666D01*
X195026009Y-107158790D01*
X195026011Y-107158790D01*
X195244592Y-107139666D01*
X195244602Y-107139664D01*
X195456534Y-107082878D01*
X195456543Y-107082874D01*
X195655402Y-106990145D01*
X195718453Y-106945995D01*
X195155420Y-106382962D01*
X195219003Y-106365925D01*
X195333017Y-106300099D01*
X195426109Y-106207007D01*
X195491935Y-106092993D01*
X195508972Y-106029409D01*
X196072005Y-106592442D01*
X196116155Y-106529392D01*
X196208884Y-106330533D01*
X196208888Y-106330524D01*
X196265674Y-106118592D01*
X196265676Y-106118582D01*
X196284800Y-105900000D01*
X196284800Y-105899999D01*
X196273618Y-105772196D01*
X206447417Y-105772196D01*
X206476258Y-105917183D01*
X206476261Y-105917193D01*
X206532830Y-106053764D01*
X206532837Y-106053777D01*
X206614966Y-106176691D01*
X206614969Y-106176695D01*
X206719498Y-106281224D01*
X206719502Y-106281227D01*
X206842416Y-106363356D01*
X206842429Y-106363363D01*
X206979000Y-106419932D01*
X206979005Y-106419934D01*
X206979009Y-106419934D01*
X206979010Y-106419935D01*
X207123997Y-106448776D01*
X207124000Y-106448776D01*
X207271838Y-106448776D01*
X207369380Y-106429372D01*
X207416831Y-106419934D01*
X207553413Y-106363360D01*
X207676334Y-106281227D01*
X207780869Y-106176692D01*
X207863002Y-106053771D01*
X207919576Y-105917189D01*
X207948418Y-105772194D01*
X207948418Y-105624358D01*
X207948418Y-105624355D01*
X207919577Y-105479368D01*
X207919576Y-105479367D01*
X207919576Y-105479363D01*
X207895137Y-105420361D01*
X207863005Y-105342787D01*
X207862998Y-105342774D01*
X207780869Y-105219860D01*
X207780866Y-105219856D01*
X207676337Y-105115327D01*
X207676333Y-105115324D01*
X207553419Y-105033195D01*
X207553406Y-105033188D01*
X207416835Y-104976619D01*
X207416825Y-104976616D01*
X207271838Y-104947776D01*
X207271836Y-104947776D01*
X207124000Y-104947776D01*
X207123998Y-104947776D01*
X206979010Y-104976616D01*
X206979000Y-104976619D01*
X206842429Y-105033188D01*
X206842416Y-105033195D01*
X206719502Y-105115324D01*
X206719498Y-105115327D01*
X206614969Y-105219856D01*
X206614966Y-105219860D01*
X206532837Y-105342774D01*
X206532830Y-105342787D01*
X206476261Y-105479358D01*
X206476258Y-105479368D01*
X206447418Y-105624355D01*
X206447418Y-105624358D01*
X206447418Y-105772194D01*
X206447418Y-105772196D01*
X206447417Y-105772196D01*
X196273618Y-105772196D01*
X196265676Y-105681417D01*
X196265674Y-105681407D01*
X196208888Y-105469475D01*
X196208884Y-105469466D01*
X196116154Y-105270605D01*
X196116152Y-105270601D01*
X196072006Y-105207555D01*
X195508972Y-105770589D01*
X195491935Y-105707007D01*
X195426109Y-105592993D01*
X195333017Y-105499901D01*
X195219003Y-105434075D01*
X195155419Y-105417037D01*
X195718453Y-104854003D01*
X195655402Y-104809854D01*
X195456543Y-104717125D01*
X195456534Y-104717121D01*
X195244602Y-104660335D01*
X195244592Y-104660333D01*
X195026011Y-104641210D01*
X195026009Y-104641210D01*
X194807427Y-104660333D01*
X194807417Y-104660335D01*
X194595485Y-104717121D01*
X194595476Y-104717124D01*
X194396616Y-104809855D01*
X194396614Y-104809856D01*
X194333566Y-104854003D01*
X194333565Y-104854003D01*
X194896600Y-105417037D01*
X194833017Y-105434075D01*
X194719003Y-105499901D01*
X194625911Y-105592993D01*
X194560085Y-105707007D01*
X194543047Y-105770590D01*
X193980013Y-105207555D01*
X193980013Y-105207556D01*
X193935866Y-105270604D01*
X193935865Y-105270606D01*
X193843134Y-105469466D01*
X193843131Y-105469475D01*
X193786345Y-105681407D01*
X193786343Y-105681417D01*
X193767220Y-105899999D01*
X192517345Y-105899999D01*
X192540228Y-105844754D01*
X192559285Y-105700000D01*
X192540228Y-105555246D01*
X192484355Y-105420358D01*
X192395474Y-105304526D01*
X192279643Y-105215645D01*
X192279640Y-105215644D01*
X192279638Y-105215642D01*
X192144757Y-105159773D01*
X192144752Y-105159771D01*
X192000001Y-105140715D01*
X191999999Y-105140715D01*
X191855247Y-105159771D01*
X191855245Y-105159772D01*
X191720361Y-105215643D01*
X191720358Y-105215644D01*
X191720358Y-105215645D01*
X191604526Y-105304526D01*
X191579613Y-105336994D01*
X191515643Y-105420361D01*
X191459772Y-105555245D01*
X191459771Y-105555247D01*
X191440715Y-105699998D01*
X189519220Y-105699998D01*
X189462251Y-105512196D01*
X189462249Y-105512193D01*
X189462249Y-105512191D01*
X189368608Y-105337001D01*
X189368604Y-105336994D01*
X189242578Y-105183431D01*
X189089015Y-105057405D01*
X189089008Y-105057401D01*
X188913818Y-104963760D01*
X188818762Y-104934925D01*
X188723711Y-104906092D01*
X188723709Y-104906091D01*
X188723711Y-104906091D01*
X188526010Y-104886620D01*
X188328310Y-104906091D01*
X188138201Y-104963760D01*
X187963011Y-105057401D01*
X187963004Y-105057405D01*
X187809441Y-105183431D01*
X187683415Y-105336994D01*
X187683411Y-105337001D01*
X187589770Y-105512191D01*
X187532101Y-105702300D01*
X187512630Y-105900000D01*
X166104623Y-105900000D01*
X165765284Y-105541608D01*
X165762488Y-105538555D01*
X165739151Y-105512196D01*
X164982948Y-104658074D01*
X164980290Y-104654969D01*
X164352636Y-103896393D01*
X164230634Y-103748942D01*
X164228045Y-103745705D01*
X163806438Y-103199998D01*
X171661493Y-103199998D01*
X171661493Y-103200001D01*
X171679841Y-103339374D01*
X171679843Y-103339379D01*
X171733637Y-103469252D01*
X171733639Y-103469255D01*
X171819217Y-103580781D01*
X171819218Y-103580782D01*
X171930744Y-103666360D01*
X171930747Y-103666362D01*
X171989747Y-103690800D01*
X172060624Y-103720158D01*
X172130312Y-103729332D01*
X172199999Y-103738507D01*
X172200000Y-103738507D01*
X172200001Y-103738507D01*
X172246458Y-103732390D01*
X172339376Y-103720158D01*
X172469254Y-103666361D01*
X172580782Y-103580782D01*
X172666361Y-103469254D01*
X172720158Y-103339376D01*
X172738507Y-103200000D01*
X172720158Y-103060624D01*
X172679268Y-102961906D01*
X172666363Y-102930751D01*
X172666362Y-102930750D01*
X172666361Y-102930747D01*
X172580782Y-102819218D01*
X172580780Y-102819217D01*
X172580780Y-102819216D01*
X172469254Y-102733639D01*
X172469252Y-102733637D01*
X172387266Y-102699678D01*
X208616590Y-102699678D01*
X208616590Y-102699687D01*
X208636239Y-102961901D01*
X208636240Y-102961906D01*
X208694752Y-103218267D01*
X208694754Y-103218276D01*
X208694756Y-103218281D01*
X208790827Y-103463067D01*
X208922309Y-103690800D01*
X209086264Y-103896393D01*
X209279030Y-104075253D01*
X209496300Y-104223385D01*
X209733222Y-104337481D01*
X209984502Y-104414991D01*
X209984503Y-104414991D01*
X209984506Y-104414992D01*
X210244520Y-104454182D01*
X210244525Y-104454182D01*
X210244528Y-104454183D01*
X210244529Y-104454183D01*
X210507491Y-104454183D01*
X210507492Y-104454183D01*
X210507499Y-104454182D01*
X210767513Y-104414992D01*
X210767514Y-104414991D01*
X210767518Y-104414991D01*
X211018798Y-104337481D01*
X211255720Y-104223385D01*
X211472990Y-104075253D01*
X211665756Y-103896393D01*
X211829711Y-103690800D01*
X211961193Y-103463067D01*
X212057264Y-103218281D01*
X212115779Y-102961911D01*
X212118114Y-102930750D01*
X212135430Y-102699687D01*
X212135430Y-102699678D01*
X212115780Y-102437464D01*
X212115779Y-102437459D01*
X212115779Y-102437455D01*
X212057264Y-102181085D01*
X211961193Y-101936299D01*
X211829711Y-101708566D01*
X211665756Y-101502973D01*
X211472990Y-101324113D01*
X211255720Y-101175981D01*
X211255717Y-101175980D01*
X211255715Y-101175978D01*
X211018798Y-101061885D01*
X210767519Y-100984375D01*
X210767513Y-100984373D01*
X210507499Y-100945183D01*
X210507492Y-100945183D01*
X210244528Y-100945183D01*
X210244520Y-100945183D01*
X209984506Y-100984373D01*
X209984500Y-100984375D01*
X209733221Y-101061885D01*
X209496304Y-101175978D01*
X209279029Y-101324113D01*
X209086266Y-101502971D01*
X209086264Y-101502973D01*
X208922309Y-101708566D01*
X208790827Y-101936298D01*
X208694758Y-102181079D01*
X208694752Y-102181098D01*
X208636240Y-102437459D01*
X208636239Y-102437464D01*
X208616590Y-102699678D01*
X172387266Y-102699678D01*
X172339379Y-102679843D01*
X172339374Y-102679841D01*
X172200001Y-102661493D01*
X172199999Y-102661493D01*
X172060625Y-102679841D01*
X172060620Y-102679843D01*
X171930751Y-102733636D01*
X171930750Y-102733637D01*
X171930747Y-102733638D01*
X171930747Y-102733639D01*
X171819218Y-102819218D01*
X171739044Y-102923704D01*
X171733637Y-102930750D01*
X171733636Y-102930751D01*
X171679843Y-103060620D01*
X171679841Y-103060625D01*
X171661493Y-103199998D01*
X163806438Y-103199998D01*
X163509088Y-102815123D01*
X163506609Y-102811801D01*
X163425825Y-102699683D01*
X162819155Y-101857700D01*
X162816797Y-101854309D01*
X162769865Y-101784357D01*
X162511993Y-101399995D01*
X162444904Y-101299998D01*
X163740715Y-101299998D01*
X163740715Y-101300001D01*
X163759771Y-101444752D01*
X163759773Y-101444757D01*
X163815642Y-101579638D01*
X163815645Y-101579644D01*
X163904525Y-101695473D01*
X163904526Y-101695474D01*
X164020355Y-101784354D01*
X164020361Y-101784357D01*
X164028693Y-101787808D01*
X164155246Y-101840228D01*
X164227623Y-101849756D01*
X164299999Y-101859285D01*
X164300000Y-101859285D01*
X164300001Y-101859285D01*
X164348251Y-101852932D01*
X164444754Y-101840228D01*
X164579643Y-101784355D01*
X164695474Y-101695474D01*
X164784355Y-101579643D01*
X164840228Y-101444754D01*
X164846121Y-101399995D01*
X167040580Y-101399995D01*
X167040580Y-101400004D01*
X167060229Y-101662218D01*
X167060230Y-101662223D01*
X167118742Y-101918584D01*
X167118744Y-101918593D01*
X167118746Y-101918598D01*
X167214817Y-102163384D01*
X167346299Y-102391117D01*
X167510254Y-102596710D01*
X167703020Y-102775570D01*
X167920290Y-102923702D01*
X168157212Y-103037798D01*
X168408492Y-103115308D01*
X168408493Y-103115308D01*
X168408496Y-103115309D01*
X168668510Y-103154499D01*
X168668515Y-103154499D01*
X168668518Y-103154500D01*
X168668519Y-103154500D01*
X168931481Y-103154500D01*
X168931482Y-103154500D01*
X168931489Y-103154499D01*
X169191503Y-103115309D01*
X169191504Y-103115308D01*
X169191508Y-103115308D01*
X169442788Y-103037798D01*
X169679710Y-102923702D01*
X169896980Y-102775570D01*
X170089746Y-102596710D01*
X170253701Y-102391117D01*
X170385183Y-102163384D01*
X170481254Y-101918598D01*
X170539769Y-101662228D01*
X170545958Y-101579638D01*
X170559420Y-101400004D01*
X170559420Y-101400000D01*
X187512630Y-101400000D01*
X187532101Y-101597699D01*
X187589770Y-101787808D01*
X187683411Y-101962998D01*
X187683415Y-101963005D01*
X187809441Y-102116568D01*
X187963004Y-102242594D01*
X187963011Y-102242598D01*
X188138201Y-102336239D01*
X188138203Y-102336239D01*
X188138206Y-102336241D01*
X188328309Y-102393908D01*
X188328308Y-102393908D01*
X188346034Y-102395653D01*
X188526010Y-102413380D01*
X188723711Y-102393908D01*
X188913814Y-102336241D01*
X189089014Y-102242595D01*
X189242578Y-102116568D01*
X189368605Y-101963004D01*
X189462251Y-101787804D01*
X189519918Y-101597701D01*
X189539390Y-101400000D01*
X189519918Y-101202299D01*
X189462251Y-101012196D01*
X189462249Y-101012193D01*
X189462249Y-101012191D01*
X189368608Y-100837001D01*
X189368604Y-100836994D01*
X189242578Y-100683431D01*
X189166418Y-100620928D01*
X194017510Y-100620928D01*
X194017510Y-102179063D01*
X194032276Y-102253301D01*
X194088525Y-102337484D01*
X194122244Y-102360014D01*
X194172709Y-102393734D01*
X194172712Y-102393734D01*
X194172713Y-102393735D01*
X194197676Y-102398700D01*
X194246943Y-102408500D01*
X195805076Y-102408499D01*
X195879311Y-102393734D01*
X195963494Y-102337484D01*
X196019744Y-102253301D01*
X196034510Y-102179067D01*
X196034509Y-100620934D01*
X196019744Y-100546699D01*
X196001078Y-100518765D01*
X195963494Y-100462515D01*
X195913029Y-100428796D01*
X195879311Y-100406266D01*
X195879309Y-100406265D01*
X195879306Y-100406264D01*
X195805079Y-100391500D01*
X194246946Y-100391500D01*
X194172708Y-100406266D01*
X194088525Y-100462515D01*
X194032276Y-100546699D01*
X194032274Y-100546703D01*
X194017510Y-100620928D01*
X189166418Y-100620928D01*
X189089015Y-100557405D01*
X189089008Y-100557401D01*
X188913818Y-100463760D01*
X188818762Y-100434925D01*
X188723711Y-100406092D01*
X188723709Y-100406091D01*
X188723711Y-100406091D01*
X188526010Y-100386620D01*
X188328310Y-100406091D01*
X188138201Y-100463760D01*
X187963011Y-100557401D01*
X187963004Y-100557405D01*
X187809441Y-100683431D01*
X187683415Y-100836994D01*
X187683411Y-100837001D01*
X187589770Y-101012191D01*
X187532101Y-101202300D01*
X187512630Y-101400000D01*
X170559420Y-101400000D01*
X170559420Y-101399995D01*
X170539770Y-101137781D01*
X170539769Y-101137776D01*
X170539769Y-101137772D01*
X170481254Y-100881402D01*
X170385183Y-100636616D01*
X170253701Y-100408883D01*
X170089746Y-100203290D01*
X169994959Y-100115341D01*
X212104272Y-100115341D01*
X212133113Y-100260328D01*
X212133116Y-100260338D01*
X212189685Y-100396909D01*
X212189692Y-100396922D01*
X212271821Y-100519836D01*
X212271824Y-100519840D01*
X212376353Y-100624369D01*
X212376357Y-100624372D01*
X212499271Y-100706501D01*
X212499284Y-100706508D01*
X212635855Y-100763077D01*
X212635860Y-100763079D01*
X212635864Y-100763079D01*
X212635865Y-100763080D01*
X212780852Y-100791921D01*
X212780855Y-100791921D01*
X212928693Y-100791921D01*
X213026235Y-100772517D01*
X213073686Y-100763079D01*
X213210268Y-100706505D01*
X213333189Y-100624372D01*
X213437724Y-100519837D01*
X213519857Y-100396916D01*
X213576431Y-100260334D01*
X213605273Y-100115339D01*
X213605273Y-99967503D01*
X213605273Y-99967500D01*
X213576432Y-99822513D01*
X213576431Y-99822512D01*
X213576431Y-99822508D01*
X213576429Y-99822503D01*
X213519860Y-99685932D01*
X213519853Y-99685919D01*
X213437724Y-99563005D01*
X213437721Y-99563001D01*
X213333192Y-99458472D01*
X213333188Y-99458469D01*
X213210274Y-99376340D01*
X213210261Y-99376333D01*
X213073690Y-99319764D01*
X213073680Y-99319761D01*
X212928693Y-99290921D01*
X212928691Y-99290921D01*
X212780855Y-99290921D01*
X212780853Y-99290921D01*
X212635865Y-99319761D01*
X212635855Y-99319764D01*
X212499284Y-99376333D01*
X212499271Y-99376340D01*
X212376357Y-99458469D01*
X212376353Y-99458472D01*
X212271824Y-99563001D01*
X212271821Y-99563005D01*
X212189692Y-99685919D01*
X212189685Y-99685932D01*
X212133116Y-99822503D01*
X212133113Y-99822513D01*
X212104273Y-99967500D01*
X212104273Y-99967503D01*
X212104273Y-100115339D01*
X212104273Y-100115341D01*
X212104272Y-100115341D01*
X169994959Y-100115341D01*
X169896980Y-100024430D01*
X169679710Y-99876298D01*
X169679707Y-99876297D01*
X169679705Y-99876295D01*
X169442788Y-99762202D01*
X169191509Y-99684692D01*
X169191503Y-99684690D01*
X168931489Y-99645500D01*
X168931482Y-99645500D01*
X168668518Y-99645500D01*
X168668510Y-99645500D01*
X168408496Y-99684690D01*
X168408490Y-99684692D01*
X168157211Y-99762202D01*
X167920294Y-99876295D01*
X167703019Y-100024430D01*
X167510256Y-100203288D01*
X167510254Y-100203290D01*
X167346299Y-100408883D01*
X167214817Y-100636615D01*
X167118748Y-100881396D01*
X167118742Y-100881415D01*
X167060230Y-101137776D01*
X167060229Y-101137781D01*
X167040580Y-101399995D01*
X164846121Y-101399995D01*
X164859285Y-101300000D01*
X164840228Y-101155246D01*
X164784355Y-101020358D01*
X164695474Y-100904526D01*
X164579643Y-100815645D01*
X164579640Y-100815644D01*
X164579638Y-100815642D01*
X164444757Y-100759773D01*
X164444752Y-100759771D01*
X164300001Y-100740715D01*
X164299999Y-100740715D01*
X164155247Y-100759771D01*
X164155245Y-100759772D01*
X164020361Y-100815643D01*
X164020358Y-100815644D01*
X164020358Y-100815645D01*
X163939359Y-100877798D01*
X163904526Y-100904526D01*
X163815643Y-101020361D01*
X163759772Y-101155245D01*
X163759771Y-101155247D01*
X163740715Y-101299998D01*
X162444904Y-101299998D01*
X162161645Y-100877798D01*
X162159393Y-100874318D01*
X161537224Y-99876419D01*
X161535090Y-99872865D01*
X161511067Y-99831302D01*
X160946638Y-98854747D01*
X160944624Y-98851124D01*
X160390528Y-97813899D01*
X160388636Y-97810210D01*
X159869516Y-96755033D01*
X159867749Y-96751283D01*
X159643725Y-96254674D01*
X165623853Y-96254674D01*
X165623853Y-96254677D01*
X165642909Y-96399428D01*
X165642911Y-96399433D01*
X165698780Y-96534314D01*
X165698783Y-96534320D01*
X165787663Y-96650149D01*
X165787664Y-96650150D01*
X165903493Y-96739030D01*
X165903499Y-96739033D01*
X165942127Y-96755033D01*
X166038384Y-96794904D01*
X166110761Y-96804432D01*
X166183137Y-96813961D01*
X166183138Y-96813961D01*
X166183139Y-96813961D01*
X166231389Y-96807608D01*
X166327892Y-96794904D01*
X166462781Y-96739031D01*
X166578612Y-96650150D01*
X166667493Y-96534319D01*
X166681709Y-96499998D01*
X190040715Y-96499998D01*
X190040715Y-96500001D01*
X190059771Y-96644752D01*
X190059773Y-96644757D01*
X190115642Y-96779638D01*
X190115645Y-96779644D01*
X190204525Y-96895473D01*
X190204526Y-96895474D01*
X190320355Y-96984354D01*
X190320361Y-96984357D01*
X190387801Y-97012291D01*
X190455246Y-97040228D01*
X190527623Y-97049756D01*
X190599999Y-97059285D01*
X190600000Y-97059285D01*
X190600001Y-97059285D01*
X190648251Y-97052932D01*
X190744754Y-97040228D01*
X190879643Y-96984355D01*
X190995474Y-96895474D01*
X191084355Y-96779643D01*
X191140228Y-96644754D01*
X191159285Y-96500000D01*
X191140228Y-96355246D01*
X191084355Y-96220358D01*
X190995474Y-96104526D01*
X190879643Y-96015645D01*
X190879640Y-96015644D01*
X190879638Y-96015642D01*
X190744757Y-95959773D01*
X190744752Y-95959771D01*
X190600001Y-95940715D01*
X190599999Y-95940715D01*
X190455247Y-95959771D01*
X190455245Y-95959772D01*
X190320361Y-96015643D01*
X190320358Y-96015644D01*
X190320358Y-96015645D01*
X190204529Y-96104524D01*
X190204526Y-96104526D01*
X190115643Y-96220361D01*
X190059772Y-96355245D01*
X190059771Y-96355247D01*
X190040715Y-96499998D01*
X166681709Y-96499998D01*
X166723366Y-96399430D01*
X166734479Y-96315014D01*
X166762743Y-96251120D01*
X166769724Y-96243532D01*
X167513575Y-95499681D01*
X185116725Y-95499681D01*
X185116725Y-95499684D01*
X185135781Y-95644435D01*
X185135783Y-95644440D01*
X185191652Y-95779321D01*
X185191655Y-95779327D01*
X185280535Y-95895156D01*
X185280536Y-95895157D01*
X185396365Y-95984037D01*
X185396371Y-95984040D01*
X185463811Y-96011974D01*
X185531256Y-96039911D01*
X185603633Y-96049439D01*
X185676009Y-96058968D01*
X185676010Y-96058968D01*
X185676011Y-96058968D01*
X185724261Y-96052615D01*
X185820764Y-96039911D01*
X185955653Y-95984038D01*
X186071484Y-95895157D01*
X186160365Y-95779326D01*
X186216238Y-95644437D01*
X186235253Y-95500000D01*
X217990312Y-95500000D01*
X218010957Y-95643595D01*
X218010958Y-95643599D01*
X218054302Y-95738507D01*
X218071223Y-95775558D01*
X218166225Y-95885196D01*
X218244659Y-95935602D01*
X218288269Y-95963630D01*
X218427461Y-96004499D01*
X218427463Y-96004500D01*
X218427464Y-96004500D01*
X218572537Y-96004500D01*
X218572537Y-96004499D01*
X218711729Y-95963630D01*
X218711730Y-95963630D01*
X218711732Y-95963629D01*
X218833775Y-95885196D01*
X218928777Y-95775558D01*
X218989042Y-95643596D01*
X219009688Y-95500000D01*
X218989042Y-95356404D01*
X218989041Y-95356400D01*
X218928777Y-95224443D01*
X218928777Y-95224442D01*
X218833775Y-95114804D01*
X218749472Y-95060625D01*
X218711730Y-95036369D01*
X218572538Y-94995500D01*
X218572536Y-94995500D01*
X218427464Y-94995500D01*
X218427461Y-94995500D01*
X218288270Y-95036369D01*
X218288269Y-95036369D01*
X218166226Y-95114803D01*
X218071223Y-95224442D01*
X218071222Y-95224443D01*
X218010958Y-95356400D01*
X218010957Y-95356404D01*
X217990312Y-95500000D01*
X186235253Y-95500000D01*
X186235295Y-95499683D01*
X186216238Y-95354929D01*
X186160365Y-95220041D01*
X186071484Y-95104209D01*
X185955653Y-95015328D01*
X185955650Y-95015327D01*
X185955648Y-95015325D01*
X185820767Y-94959456D01*
X185820762Y-94959454D01*
X185676011Y-94940398D01*
X185676009Y-94940398D01*
X185531257Y-94959454D01*
X185531255Y-94959455D01*
X185396371Y-95015326D01*
X185396368Y-95015327D01*
X185396368Y-95015328D01*
X185337342Y-95060620D01*
X185280536Y-95104209D01*
X185191653Y-95220044D01*
X185135782Y-95354928D01*
X185135781Y-95354930D01*
X185116725Y-95499681D01*
X167513575Y-95499681D01*
X169325600Y-93687657D01*
X169379169Y-93594872D01*
X169379170Y-93594871D01*
X169406900Y-93491383D01*
X169406900Y-91599681D01*
X183416725Y-91599681D01*
X183416725Y-91599684D01*
X183435781Y-91744435D01*
X183435783Y-91744440D01*
X183491652Y-91879321D01*
X183491655Y-91879327D01*
X183580535Y-91995156D01*
X183580536Y-91995157D01*
X183696365Y-92084037D01*
X183696371Y-92084040D01*
X183763811Y-92111974D01*
X183831256Y-92139911D01*
X183903633Y-92149439D01*
X183976009Y-92158968D01*
X183976010Y-92158968D01*
X183976011Y-92158968D01*
X184024261Y-92152615D01*
X184120764Y-92139911D01*
X184255653Y-92084038D01*
X184371484Y-91995157D01*
X184460365Y-91879326D01*
X184516238Y-91744437D01*
X184535295Y-91599683D01*
X184533277Y-91584357D01*
X184516238Y-91454930D01*
X184516238Y-91454929D01*
X184460365Y-91320041D01*
X184371484Y-91204209D01*
X184255653Y-91115328D01*
X184255650Y-91115327D01*
X184255648Y-91115325D01*
X184120767Y-91059456D01*
X184120762Y-91059454D01*
X183976011Y-91040398D01*
X183976009Y-91040398D01*
X183831257Y-91059454D01*
X183831255Y-91059455D01*
X183696371Y-91115326D01*
X183696368Y-91115327D01*
X183696368Y-91115328D01*
X183580536Y-91204209D01*
X183522654Y-91279643D01*
X183491653Y-91320044D01*
X183435782Y-91454928D01*
X183435781Y-91454930D01*
X183416725Y-91599681D01*
X169406900Y-91599681D01*
X169406900Y-91422675D01*
X169426585Y-91355636D01*
X169432525Y-91347188D01*
X169484354Y-91279644D01*
X169484353Y-91279644D01*
X169484355Y-91279643D01*
X169540228Y-91144754D01*
X169553989Y-91040226D01*
X169559285Y-91000001D01*
X169559285Y-90999998D01*
X169540228Y-90855247D01*
X169540228Y-90855246D01*
X169484355Y-90720358D01*
X169395474Y-90604526D01*
X169279643Y-90515645D01*
X169279640Y-90515644D01*
X169279638Y-90515642D01*
X169241870Y-90499998D01*
X192140715Y-90499998D01*
X192140715Y-90500001D01*
X192159771Y-90644752D01*
X192159773Y-90644757D01*
X192215642Y-90779638D01*
X192215645Y-90779644D01*
X192304525Y-90895473D01*
X192304526Y-90895474D01*
X192420355Y-90984354D01*
X192420361Y-90984357D01*
X192487801Y-91012291D01*
X192555246Y-91040228D01*
X192627623Y-91049756D01*
X192699999Y-91059285D01*
X192700000Y-91059285D01*
X192833570Y-91041700D01*
X192902604Y-91052465D01*
X192937435Y-91076958D01*
X196207954Y-94347477D01*
X196241439Y-94408800D01*
X196243212Y-94418972D01*
X196259772Y-94544753D01*
X196259773Y-94544757D01*
X196315642Y-94679638D01*
X196315645Y-94679644D01*
X196404525Y-94795473D01*
X196404526Y-94795474D01*
X196520355Y-94884354D01*
X196520361Y-94884357D01*
X196587801Y-94912291D01*
X196655246Y-94940228D01*
X196727623Y-94949756D01*
X196799999Y-94959285D01*
X196800000Y-94959285D01*
X196800001Y-94959285D01*
X196848251Y-94952932D01*
X196944754Y-94940228D01*
X197079643Y-94884355D01*
X197195474Y-94795474D01*
X197284355Y-94679643D01*
X197340228Y-94544754D01*
X197356787Y-94418972D01*
X197359285Y-94400001D01*
X197359285Y-94399998D01*
X197340228Y-94255247D01*
X197340228Y-94255246D01*
X197284355Y-94120358D01*
X197195474Y-94004526D01*
X197079643Y-93915645D01*
X197079640Y-93915644D01*
X197079638Y-93915642D01*
X196944757Y-93859773D01*
X196944755Y-93859772D01*
X196944754Y-93859772D01*
X196924391Y-93857091D01*
X196818972Y-93843212D01*
X196755076Y-93814945D01*
X196747477Y-93807954D01*
X195839204Y-92899681D01*
X200916725Y-92899681D01*
X200916725Y-92899684D01*
X200935781Y-93044435D01*
X200935783Y-93044440D01*
X200991652Y-93179321D01*
X200991655Y-93179327D01*
X201080535Y-93295156D01*
X201080536Y-93295157D01*
X201196365Y-93384037D01*
X201196371Y-93384040D01*
X201263811Y-93411974D01*
X201331256Y-93439911D01*
X201403633Y-93449439D01*
X201476009Y-93458968D01*
X201476010Y-93458968D01*
X201476011Y-93458968D01*
X201524261Y-93452615D01*
X201620764Y-93439911D01*
X201755653Y-93384038D01*
X201871484Y-93295157D01*
X201960365Y-93179326D01*
X202016238Y-93044437D01*
X202035295Y-92899683D01*
X202016238Y-92754929D01*
X201960365Y-92620041D01*
X201871484Y-92504209D01*
X201755653Y-92415328D01*
X201755650Y-92415327D01*
X201755648Y-92415325D01*
X201620767Y-92359456D01*
X201620762Y-92359454D01*
X201476011Y-92340398D01*
X201476009Y-92340398D01*
X201331257Y-92359454D01*
X201331255Y-92359455D01*
X201196371Y-92415326D01*
X201080536Y-92504209D01*
X200991653Y-92620044D01*
X200935782Y-92754928D01*
X200935781Y-92754930D01*
X200916725Y-92899681D01*
X195839204Y-92899681D01*
X193271850Y-90332327D01*
X200137595Y-90332327D01*
X200137595Y-90332330D01*
X200156651Y-90477081D01*
X200156653Y-90477086D01*
X200212522Y-90611967D01*
X200212525Y-90611973D01*
X200301405Y-90727802D01*
X200301406Y-90727803D01*
X200417235Y-90816683D01*
X200417241Y-90816686D01*
X200474072Y-90840226D01*
X200552126Y-90872557D01*
X200624503Y-90882085D01*
X200696879Y-90891614D01*
X200696880Y-90891614D01*
X200696881Y-90891614D01*
X200745131Y-90885261D01*
X200841634Y-90872557D01*
X200976523Y-90816684D01*
X201092354Y-90727803D01*
X201181235Y-90611972D01*
X201237108Y-90477083D01*
X201256165Y-90332329D01*
X201252504Y-90304524D01*
X201251908Y-90299998D01*
X216440715Y-90299998D01*
X216440715Y-90300001D01*
X216459771Y-90444752D01*
X216459773Y-90444757D01*
X216515642Y-90579638D01*
X216515645Y-90579644D01*
X216604525Y-90695473D01*
X216604526Y-90695474D01*
X216720355Y-90784354D01*
X216720361Y-90784357D01*
X216751254Y-90797153D01*
X216855246Y-90840228D01*
X216889625Y-90844754D01*
X216999999Y-90859285D01*
X217000000Y-90859285D01*
X217000001Y-90859285D01*
X217048251Y-90852932D01*
X217144754Y-90840228D01*
X217279643Y-90784355D01*
X217395474Y-90695474D01*
X217484355Y-90579643D01*
X217488877Y-90568724D01*
X217509383Y-90519221D01*
X217553224Y-90464817D01*
X217619518Y-90442752D01*
X217687217Y-90460031D01*
X217699431Y-90468298D01*
X217720355Y-90484354D01*
X217720361Y-90484357D01*
X217787801Y-90512291D01*
X217855246Y-90540228D01*
X217927623Y-90549756D01*
X217999999Y-90559285D01*
X218000000Y-90559285D01*
X218000001Y-90559285D01*
X218048251Y-90552932D01*
X218144754Y-90540228D01*
X218279643Y-90484355D01*
X218380290Y-90407124D01*
X218445459Y-90381930D01*
X218455777Y-90381500D01*
X219890615Y-90381500D01*
X219957654Y-90401185D01*
X219978296Y-90417819D01*
X220207954Y-90647476D01*
X220241439Y-90708799D01*
X220243212Y-90718971D01*
X220259772Y-90844753D01*
X220259773Y-90844757D01*
X220315642Y-90979638D01*
X220315645Y-90979644D01*
X220404525Y-91095473D01*
X220404526Y-91095474D01*
X220520355Y-91184354D01*
X220520361Y-91184357D01*
X220587801Y-91212291D01*
X220655246Y-91240228D01*
X220689610Y-91244752D01*
X220799999Y-91259285D01*
X220800000Y-91259285D01*
X220800001Y-91259285D01*
X220848251Y-91252932D01*
X220944754Y-91240228D01*
X221079643Y-91184355D01*
X221195474Y-91095474D01*
X221284355Y-90979643D01*
X221340228Y-90844754D01*
X221355625Y-90727802D01*
X221359285Y-90700001D01*
X221359285Y-90699998D01*
X221340228Y-90555247D01*
X221340228Y-90555246D01*
X221284355Y-90420358D01*
X221195474Y-90304526D01*
X221079643Y-90215645D01*
X221079640Y-90215644D01*
X221079638Y-90215642D01*
X220944757Y-90159773D01*
X220944755Y-90159772D01*
X220944754Y-90159772D01*
X220910383Y-90155247D01*
X220818971Y-90143212D01*
X220755075Y-90114945D01*
X220747476Y-90107954D01*
X220551198Y-89911676D01*
X220334247Y-89694724D01*
X220247254Y-89644499D01*
X220247255Y-89644499D01*
X220222996Y-89637999D01*
X220150225Y-89618500D01*
X220150222Y-89618500D01*
X218455777Y-89618500D01*
X218388738Y-89598815D01*
X218380290Y-89592875D01*
X218372383Y-89586808D01*
X218360231Y-89577483D01*
X218279644Y-89515645D01*
X218279638Y-89515642D01*
X218144757Y-89459773D01*
X218144752Y-89459771D01*
X218000001Y-89440715D01*
X217999999Y-89440715D01*
X217855247Y-89459771D01*
X217855245Y-89459772D01*
X217720361Y-89515643D01*
X217720358Y-89515644D01*
X217720358Y-89515645D01*
X217604526Y-89604526D01*
X217535316Y-89694723D01*
X217515643Y-89720361D01*
X217490617Y-89780779D01*
X217446775Y-89835183D01*
X217380481Y-89857247D01*
X217312782Y-89839967D01*
X217300571Y-89831703D01*
X217279643Y-89815645D01*
X217279638Y-89815642D01*
X217144757Y-89759773D01*
X217144752Y-89759771D01*
X217000001Y-89740715D01*
X216999999Y-89740715D01*
X216855247Y-89759771D01*
X216855245Y-89759772D01*
X216720361Y-89815643D01*
X216720358Y-89815644D01*
X216720358Y-89815645D01*
X216604526Y-89904526D01*
X216519262Y-90015645D01*
X216515643Y-90020361D01*
X216459772Y-90155245D01*
X216459771Y-90155247D01*
X216440715Y-90299998D01*
X201251908Y-90299998D01*
X201237108Y-90187576D01*
X201237108Y-90187575D01*
X201181235Y-90052687D01*
X201092354Y-89936855D01*
X200976523Y-89847974D01*
X200976520Y-89847973D01*
X200976518Y-89847971D01*
X200841637Y-89792102D01*
X200841632Y-89792100D01*
X200696881Y-89773044D01*
X200696879Y-89773044D01*
X200552127Y-89792100D01*
X200552125Y-89792101D01*
X200417241Y-89847972D01*
X200417238Y-89847973D01*
X200417238Y-89847974D01*
X200301406Y-89936855D01*
X200240949Y-90015645D01*
X200212523Y-90052690D01*
X200156652Y-90187574D01*
X200156651Y-90187576D01*
X200137595Y-90332327D01*
X193271850Y-90332327D01*
X193219102Y-90279579D01*
X193192221Y-90239349D01*
X193184355Y-90220358D01*
X193095474Y-90104526D01*
X192979643Y-90015645D01*
X192979640Y-90015644D01*
X192979638Y-90015642D01*
X192844757Y-89959773D01*
X192844752Y-89959771D01*
X192700001Y-89940715D01*
X192699999Y-89940715D01*
X192555247Y-89959771D01*
X192555245Y-89959772D01*
X192420361Y-90015643D01*
X192420358Y-90015644D01*
X192420358Y-90015645D01*
X192304526Y-90104526D01*
X192219262Y-90215645D01*
X192215643Y-90220361D01*
X192159772Y-90355245D01*
X192159771Y-90355247D01*
X192140715Y-90499998D01*
X169241870Y-90499998D01*
X169144757Y-90459773D01*
X169144752Y-90459771D01*
X169000001Y-90440715D01*
X168999999Y-90440715D01*
X168855247Y-90459771D01*
X168855245Y-90459772D01*
X168720361Y-90515643D01*
X168720358Y-90515644D01*
X168720358Y-90515645D01*
X168604526Y-90604526D01*
X168516710Y-90718971D01*
X168515643Y-90720361D01*
X168459772Y-90855245D01*
X168459771Y-90855247D01*
X168440715Y-90999998D01*
X168440715Y-91000001D01*
X168459771Y-91144752D01*
X168459773Y-91144757D01*
X168515642Y-91279638D01*
X168515645Y-91279644D01*
X168567475Y-91347188D01*
X168592670Y-91412357D01*
X168593100Y-91422675D01*
X168593100Y-93217907D01*
X168573415Y-93284946D01*
X168556781Y-93305588D01*
X166194292Y-95668076D01*
X166132969Y-95701561D01*
X166122798Y-95703334D01*
X166038384Y-95714448D01*
X165903499Y-95770319D01*
X165903496Y-95770320D01*
X165903496Y-95770321D01*
X165787664Y-95859202D01*
X165707535Y-95963629D01*
X165698781Y-95975037D01*
X165642910Y-96109921D01*
X165642909Y-96109923D01*
X165623853Y-96254674D01*
X159643725Y-96254674D01*
X159512433Y-95963630D01*
X159384207Y-95679384D01*
X159382573Y-95675595D01*
X159186886Y-95199998D01*
X159761493Y-95199998D01*
X159761493Y-95200001D01*
X159779841Y-95339374D01*
X159779843Y-95339379D01*
X159833637Y-95469252D01*
X159833639Y-95469255D01*
X159919217Y-95580781D01*
X159919218Y-95580782D01*
X160030744Y-95666360D01*
X160030747Y-95666362D01*
X160062227Y-95679401D01*
X160160624Y-95720158D01*
X160230312Y-95729332D01*
X160299999Y-95738507D01*
X160300000Y-95738507D01*
X160300001Y-95738507D01*
X160346458Y-95732390D01*
X160439376Y-95720158D01*
X160569254Y-95666361D01*
X160680782Y-95580782D01*
X160766361Y-95469254D01*
X160820158Y-95339376D01*
X160838507Y-95200000D01*
X160820158Y-95060624D01*
X160770288Y-94940228D01*
X160766363Y-94930751D01*
X160766362Y-94930750D01*
X160766361Y-94930747D01*
X160680782Y-94819218D01*
X160680780Y-94819217D01*
X160680780Y-94819216D01*
X160569254Y-94733639D01*
X160569252Y-94733637D01*
X160439379Y-94679843D01*
X160439374Y-94679841D01*
X160300001Y-94661493D01*
X160299999Y-94661493D01*
X160160625Y-94679841D01*
X160160620Y-94679843D01*
X160030751Y-94733636D01*
X160030750Y-94733637D01*
X159919218Y-94819218D01*
X159833637Y-94930750D01*
X159833636Y-94930751D01*
X159779843Y-95060620D01*
X159779841Y-95060625D01*
X159761493Y-95199998D01*
X159186886Y-95199998D01*
X158935087Y-94588024D01*
X158933610Y-94584256D01*
X158522730Y-93482343D01*
X158521367Y-93478492D01*
X158147561Y-92363493D01*
X158146317Y-92359566D01*
X157809986Y-91232685D01*
X157808896Y-91228798D01*
X157775099Y-91099998D01*
X166740715Y-91099998D01*
X166740715Y-91100001D01*
X166759771Y-91244752D01*
X166759773Y-91244757D01*
X166815642Y-91379638D01*
X166815645Y-91379644D01*
X166904525Y-91495473D01*
X166904526Y-91495474D01*
X167020355Y-91584354D01*
X167020361Y-91584357D01*
X167057357Y-91599681D01*
X167155246Y-91640228D01*
X167227623Y-91649756D01*
X167299999Y-91659285D01*
X167300000Y-91659285D01*
X167300001Y-91659285D01*
X167348251Y-91652932D01*
X167444754Y-91640228D01*
X167579643Y-91584355D01*
X167695474Y-91495474D01*
X167784355Y-91379643D01*
X167840228Y-91244754D01*
X167857267Y-91115326D01*
X167859285Y-91100001D01*
X167859285Y-91099998D01*
X167840228Y-90955247D01*
X167840228Y-90955246D01*
X167784355Y-90820358D01*
X167695474Y-90704526D01*
X167579643Y-90615645D01*
X167579640Y-90615644D01*
X167579638Y-90615642D01*
X167444757Y-90559773D01*
X167444752Y-90559771D01*
X167300001Y-90540715D01*
X167299999Y-90540715D01*
X167155247Y-90559771D01*
X167155245Y-90559772D01*
X167020361Y-90615643D01*
X167020358Y-90615644D01*
X167020358Y-90615645D01*
X166904526Y-90704526D01*
X166834960Y-90795187D01*
X166815643Y-90820361D01*
X166759772Y-90955245D01*
X166759771Y-90955247D01*
X166740715Y-91099998D01*
X157775099Y-91099998D01*
X157510408Y-90091253D01*
X157509446Y-90087322D01*
X157249157Y-88940472D01*
X157248308Y-88936415D01*
X157068461Y-87999998D01*
X160840715Y-87999998D01*
X160840715Y-88000001D01*
X160859771Y-88144752D01*
X160859773Y-88144757D01*
X160915642Y-88279638D01*
X160915645Y-88279644D01*
X161004525Y-88395473D01*
X161004526Y-88395474D01*
X161120355Y-88484354D01*
X161120361Y-88484357D01*
X161178856Y-88508586D01*
X161255246Y-88540228D01*
X161327623Y-88549756D01*
X161399999Y-88559285D01*
X161400000Y-88559285D01*
X161400001Y-88559285D01*
X161448251Y-88552932D01*
X161544754Y-88540228D01*
X161679643Y-88484355D01*
X161795474Y-88395474D01*
X161884355Y-88279643D01*
X161940228Y-88144754D01*
X161953463Y-88044222D01*
X161959285Y-88000001D01*
X161959285Y-87999998D01*
X161944383Y-87886807D01*
X161940228Y-87855246D01*
X161887623Y-87728247D01*
X161884355Y-87720357D01*
X161832524Y-87652809D01*
X161807330Y-87587639D01*
X161806900Y-87577323D01*
X161806900Y-84857405D01*
X161826585Y-84790366D01*
X161843219Y-84769724D01*
X161897125Y-84715818D01*
X161958448Y-84682333D01*
X161984806Y-84679499D01*
X162603907Y-84679499D01*
X162603908Y-84679499D01*
X162663250Y-84673120D01*
X162797491Y-84623051D01*
X162856423Y-84578934D01*
X162921884Y-84554518D01*
X162990157Y-84569369D01*
X163036271Y-84613105D01*
X163056370Y-84645691D01*
X163179308Y-84768629D01*
X163327285Y-84859903D01*
X163327290Y-84859905D01*
X163492326Y-84914592D01*
X163594184Y-84924999D01*
X163594197Y-84925000D01*
X163850000Y-84925000D01*
X163850000Y-84061500D01*
X163869685Y-83994461D01*
X163922489Y-83948706D01*
X163974000Y-83937500D01*
X164226000Y-83937500D01*
X164293039Y-83957185D01*
X164338794Y-84009989D01*
X164350000Y-84061500D01*
X164350000Y-84925000D01*
X164605803Y-84925000D01*
X164605815Y-84924999D01*
X164707673Y-84914592D01*
X164872709Y-84859905D01*
X164872714Y-84859903D01*
X165020691Y-84768629D01*
X165082829Y-84706492D01*
X165144152Y-84673007D01*
X165213844Y-84677991D01*
X165269777Y-84719863D01*
X165294194Y-84785327D01*
X165294510Y-84794173D01*
X165294510Y-86996745D01*
X165310186Y-87055247D01*
X165320509Y-87093775D01*
X165320510Y-87093776D01*
X165347614Y-87140721D01*
X165347615Y-87140723D01*
X165370733Y-87180765D01*
X165370735Y-87180768D01*
X166008168Y-87818201D01*
X166041653Y-87879524D01*
X166043426Y-87889696D01*
X166059986Y-88015477D01*
X166059987Y-88015481D01*
X166115856Y-88150362D01*
X166115859Y-88150368D01*
X166204739Y-88266197D01*
X166204740Y-88266198D01*
X166320569Y-88355078D01*
X166320575Y-88355081D01*
X166365473Y-88373678D01*
X166455460Y-88410952D01*
X166592409Y-88428981D01*
X166656305Y-88457247D01*
X166692405Y-88508586D01*
X166776091Y-88732958D01*
X166913191Y-88984038D01*
X166913196Y-88984046D01*
X167019882Y-89126562D01*
X167019883Y-89126563D01*
X167737425Y-88409020D01*
X167823249Y-88537463D01*
X167962537Y-88676751D01*
X168090978Y-88762573D01*
X167373435Y-89480115D01*
X167373436Y-89480116D01*
X167515953Y-89586803D01*
X167515961Y-89586808D01*
X167767042Y-89723908D01*
X167767041Y-89723908D01*
X168035104Y-89823890D01*
X168314637Y-89884699D01*
X168599999Y-89905109D01*
X168600001Y-89905109D01*
X168885362Y-89884699D01*
X169164895Y-89823890D01*
X169432958Y-89723908D01*
X169684038Y-89586808D01*
X169684039Y-89586807D01*
X169826563Y-89480115D01*
X169109020Y-88762573D01*
X169237463Y-88676751D01*
X169376751Y-88537463D01*
X169462573Y-88409020D01*
X170180115Y-89126563D01*
X170286807Y-88984039D01*
X170286808Y-88984038D01*
X170423908Y-88732958D01*
X170523890Y-88464895D01*
X170584699Y-88185362D01*
X170605109Y-87900001D01*
X170605109Y-87899998D01*
X170584699Y-87614637D01*
X170576815Y-87578394D01*
X176425510Y-87578394D01*
X176425510Y-87820971D01*
X176457171Y-88061468D01*
X176519957Y-88295787D01*
X176567660Y-88410952D01*
X176612786Y-88519895D01*
X176734074Y-88729972D01*
X176734076Y-88729975D01*
X176734077Y-88729976D01*
X176881743Y-88922419D01*
X176881749Y-88922426D01*
X177053266Y-89093943D01*
X177053272Y-89093948D01*
X177245721Y-89241619D01*
X177455798Y-89362907D01*
X177679910Y-89455737D01*
X177914221Y-89518521D01*
X178094596Y-89542267D01*
X178154721Y-89550183D01*
X178154722Y-89550183D01*
X178397299Y-89550183D01*
X178445398Y-89543850D01*
X178637799Y-89518521D01*
X178872110Y-89455737D01*
X179096222Y-89362907D01*
X179306299Y-89241619D01*
X179498748Y-89093948D01*
X179670275Y-88922421D01*
X179817946Y-88729972D01*
X179939234Y-88519895D01*
X180032064Y-88295783D01*
X180094848Y-88061472D01*
X180126510Y-87820971D01*
X180126510Y-87578395D01*
X180126416Y-87577684D01*
X180113509Y-87479638D01*
X180094848Y-87337894D01*
X180032064Y-87103583D01*
X179939234Y-86879471D01*
X179817946Y-86669394D01*
X179733830Y-86559772D01*
X179670276Y-86476946D01*
X179670270Y-86476939D01*
X179498753Y-86305422D01*
X179498746Y-86305416D01*
X179306303Y-86157750D01*
X179306302Y-86157749D01*
X179306299Y-86157747D01*
X179099094Y-86038117D01*
X179096224Y-86036460D01*
X179096215Y-86036456D01*
X178872114Y-85943630D01*
X178637795Y-85880844D01*
X178397299Y-85849183D01*
X178397298Y-85849183D01*
X178154722Y-85849183D01*
X178154721Y-85849183D01*
X177914224Y-85880844D01*
X177679905Y-85943630D01*
X177455804Y-86036456D01*
X177455795Y-86036460D01*
X177245716Y-86157750D01*
X177053273Y-86305416D01*
X177053266Y-86305422D01*
X176881749Y-86476939D01*
X176881743Y-86476946D01*
X176734077Y-86669389D01*
X176612787Y-86879468D01*
X176612783Y-86879477D01*
X176519957Y-87103578D01*
X176457171Y-87337897D01*
X176425510Y-87578394D01*
X170576815Y-87578394D01*
X170523890Y-87335104D01*
X170423908Y-87067041D01*
X170286808Y-86815961D01*
X170286803Y-86815953D01*
X170180116Y-86673436D01*
X170180115Y-86673435D01*
X169462572Y-87390978D01*
X169376751Y-87262537D01*
X169237463Y-87123249D01*
X169109020Y-87037425D01*
X169826563Y-86319883D01*
X169826562Y-86319882D01*
X169684046Y-86213196D01*
X169684038Y-86213191D01*
X169432957Y-86076091D01*
X169432958Y-86076091D01*
X169164895Y-85976109D01*
X168885362Y-85915300D01*
X168834302Y-85911648D01*
X168768837Y-85887230D01*
X168726967Y-85831296D01*
X168721983Y-85761605D01*
X168755464Y-85700288D01*
X168937936Y-85517816D01*
X168999258Y-85484334D01*
X169025615Y-85481500D01*
X175050222Y-85481500D01*
X175050225Y-85481500D01*
X175147254Y-85455501D01*
X175234247Y-85405276D01*
X175305276Y-85334247D01*
X176421704Y-84217819D01*
X176483027Y-84184334D01*
X176509385Y-84181500D01*
X181844223Y-84181500D01*
X181911262Y-84201185D01*
X181919707Y-84207122D01*
X181946199Y-84227451D01*
X182020355Y-84284354D01*
X182020361Y-84284357D01*
X182068313Y-84304219D01*
X182155246Y-84340228D01*
X182227623Y-84349756D01*
X182299999Y-84359285D01*
X182300000Y-84359285D01*
X182300001Y-84359285D01*
X182370565Y-84349995D01*
X182444754Y-84340228D01*
X182579643Y-84284355D01*
X182695474Y-84195474D01*
X182784355Y-84079643D01*
X182840228Y-83944754D01*
X182842955Y-83924035D01*
X182871220Y-83860140D01*
X182929544Y-83821668D01*
X182999408Y-83820835D01*
X183041379Y-83841844D01*
X183096367Y-83884038D01*
X183096369Y-83884038D01*
X183096371Y-83884040D01*
X183163811Y-83911974D01*
X183231256Y-83939911D01*
X183303633Y-83949439D01*
X183376009Y-83958968D01*
X183376010Y-83958968D01*
X183376011Y-83958968D01*
X183432394Y-83951545D01*
X183520764Y-83939911D01*
X183655653Y-83884038D01*
X183771484Y-83795157D01*
X183860365Y-83679326D01*
X183916238Y-83544437D01*
X183934499Y-83405730D01*
X183935295Y-83399684D01*
X183935295Y-83399681D01*
X183916876Y-83259773D01*
X183916238Y-83254929D01*
X183860365Y-83120041D01*
X183771484Y-83004209D01*
X183655653Y-82915328D01*
X183655650Y-82915327D01*
X183655648Y-82915325D01*
X183520767Y-82859456D01*
X183520762Y-82859454D01*
X183376011Y-82840398D01*
X183376009Y-82840398D01*
X183231257Y-82859454D01*
X183231255Y-82859455D01*
X183096371Y-82915326D01*
X183096368Y-82915327D01*
X183096368Y-82915328D01*
X182980536Y-83004209D01*
X182913849Y-83091118D01*
X182891653Y-83120044D01*
X182835782Y-83254928D01*
X182835782Y-83254929D01*
X182833054Y-83275649D01*
X182804786Y-83339545D01*
X182746460Y-83378015D01*
X182676596Y-83378845D01*
X182634629Y-83357837D01*
X182579643Y-83315645D01*
X182579638Y-83315642D01*
X182444757Y-83259773D01*
X182444752Y-83259771D01*
X182300001Y-83240715D01*
X182299999Y-83240715D01*
X182155247Y-83259771D01*
X182155245Y-83259772D01*
X182020361Y-83315643D01*
X182020358Y-83315644D01*
X182020358Y-83315645D01*
X181919707Y-83392877D01*
X181854540Y-83418070D01*
X181844223Y-83418500D01*
X176357837Y-83418500D01*
X176357821Y-83418499D01*
X176350225Y-83418499D01*
X176249775Y-83418499D01*
X176152747Y-83444498D01*
X176152745Y-83444498D01*
X176152745Y-83444499D01*
X176065753Y-83494724D01*
X176065750Y-83494726D01*
X174878296Y-84682181D01*
X174816973Y-84715666D01*
X174790615Y-84718500D01*
X168766006Y-84718500D01*
X168698979Y-84736460D01*
X168668976Y-84744499D01*
X168581985Y-84794723D01*
X168581982Y-84794725D01*
X168510953Y-84865755D01*
X166410541Y-86966166D01*
X166349218Y-86999651D01*
X166279526Y-86994667D01*
X166235179Y-86966166D01*
X166093829Y-86824816D01*
X166060344Y-86763493D01*
X166057510Y-86737135D01*
X166057510Y-86442039D01*
X166077195Y-86375000D01*
X166129999Y-86329245D01*
X166199157Y-86319301D01*
X166228962Y-86327478D01*
X166256372Y-86338832D01*
X166328749Y-86348360D01*
X166401125Y-86357889D01*
X166401126Y-86357889D01*
X166401127Y-86357889D01*
X166449377Y-86351536D01*
X166545880Y-86338832D01*
X166680769Y-86282959D01*
X166796600Y-86194078D01*
X166885481Y-86078247D01*
X166941354Y-85943358D01*
X166960411Y-85798604D01*
X166958535Y-85784357D01*
X166945167Y-85682812D01*
X166941354Y-85653850D01*
X166885481Y-85518962D01*
X166796600Y-85403130D01*
X166680769Y-85314249D01*
X166680766Y-85314248D01*
X166680764Y-85314246D01*
X166545883Y-85258377D01*
X166545878Y-85258375D01*
X166401127Y-85239319D01*
X166401125Y-85239319D01*
X166256373Y-85258375D01*
X166256372Y-85258376D01*
X166228961Y-85269730D01*
X166159492Y-85277198D01*
X166097013Y-85245922D01*
X166061361Y-85185833D01*
X166057510Y-85155168D01*
X166057510Y-84803499D01*
X166077195Y-84736460D01*
X166129999Y-84690705D01*
X166181510Y-84679499D01*
X166598251Y-84679499D01*
X166598254Y-84679499D01*
X166658342Y-84673040D01*
X166794267Y-84622342D01*
X166910404Y-84535404D01*
X166997342Y-84419267D01*
X167048040Y-84283342D01*
X167051725Y-84249064D01*
X167054499Y-84223271D01*
X167054499Y-84223264D01*
X167054500Y-84223255D01*
X167054499Y-83601746D01*
X167048040Y-83541658D01*
X167048039Y-83541655D01*
X166997344Y-83405738D01*
X166997343Y-83405737D01*
X166997342Y-83405733D01*
X166946497Y-83337811D01*
X166910404Y-83289595D01*
X166829869Y-83229309D01*
X166794267Y-83202658D01*
X166658342Y-83151960D01*
X166658338Y-83151959D01*
X166598262Y-83145500D01*
X165601748Y-83145500D01*
X165601742Y-83145501D01*
X165541655Y-83151960D01*
X165405738Y-83202655D01*
X165405729Y-83202660D01*
X165323795Y-83263994D01*
X165258330Y-83288410D01*
X165190057Y-83273557D01*
X165148804Y-83234429D01*
X165148112Y-83234977D01*
X165144305Y-83230162D01*
X165143948Y-83229824D01*
X165143631Y-83229310D01*
X165020691Y-83106370D01*
X164872714Y-83015096D01*
X164872709Y-83015094D01*
X164788098Y-82987057D01*
X164730653Y-82947284D01*
X164703830Y-82882768D01*
X164716145Y-82813993D01*
X164763688Y-82762793D01*
X164783768Y-82753169D01*
X164797491Y-82748051D01*
X164912189Y-82662189D01*
X164986884Y-82562407D01*
X165042814Y-82520539D01*
X165112505Y-82515555D01*
X165173829Y-82549039D01*
X165198028Y-82586691D01*
X165198409Y-82586484D01*
X165201312Y-82591801D01*
X165202327Y-82593380D01*
X165202658Y-82594267D01*
X165222251Y-82620440D01*
X165289595Y-82710404D01*
X165335480Y-82744752D01*
X165405733Y-82797342D01*
X165541658Y-82848040D01*
X165601745Y-82854500D01*
X166598254Y-82854499D01*
X166658342Y-82848040D01*
X166794267Y-82797342D01*
X166910404Y-82710404D01*
X166997342Y-82594267D01*
X167048040Y-82458342D01*
X167051007Y-82430747D01*
X167054499Y-82398271D01*
X167054499Y-82398264D01*
X167054500Y-82398255D01*
X167054499Y-81776746D01*
X167048040Y-81716658D01*
X167047662Y-81715645D01*
X166997344Y-81580738D01*
X166997343Y-81580736D01*
X166997342Y-81580733D01*
X166923068Y-81481513D01*
X166910404Y-81464595D01*
X166825272Y-81400868D01*
X166794267Y-81377658D01*
X166794264Y-81377656D01*
X166794261Y-81377655D01*
X166660111Y-81327619D01*
X166604177Y-81285748D01*
X166579761Y-81220283D01*
X166594613Y-81152010D01*
X166615761Y-81123760D01*
X166921703Y-80817819D01*
X166983026Y-80784334D01*
X167009384Y-80781500D01*
X171150222Y-80781500D01*
X171150225Y-80781500D01*
X171247254Y-80755501D01*
X171334247Y-80705276D01*
X171405276Y-80634247D01*
X171405276Y-80634246D01*
X171442268Y-80597254D01*
X171447477Y-80592045D01*
X171508800Y-80558560D01*
X171518968Y-80556787D01*
X171644754Y-80540228D01*
X171779643Y-80484355D01*
X171895474Y-80395474D01*
X171984355Y-80279643D01*
X172040228Y-80144754D01*
X172056755Y-80019216D01*
X172059285Y-80000001D01*
X172059285Y-79999998D01*
X172046580Y-79903497D01*
X172040228Y-79855246D01*
X171984355Y-79720358D01*
X171895474Y-79604526D01*
X171779643Y-79515645D01*
X171779640Y-79515644D01*
X171779638Y-79515642D01*
X171644757Y-79459773D01*
X171644752Y-79459771D01*
X171500001Y-79440715D01*
X171499999Y-79440715D01*
X171355247Y-79459771D01*
X171355245Y-79459772D01*
X171220361Y-79515643D01*
X171220358Y-79515644D01*
X171220358Y-79515645D01*
X171104526Y-79604526D01*
X171035557Y-79694409D01*
X171015643Y-79720361D01*
X170964132Y-79844719D01*
X170959772Y-79855246D01*
X170957782Y-79870361D01*
X170952473Y-79910686D01*
X170924206Y-79974583D01*
X170865881Y-80013053D01*
X170829534Y-80018500D01*
X166749775Y-80018500D01*
X166677003Y-80037999D01*
X166652745Y-80044499D01*
X166565754Y-80094723D01*
X166565751Y-80094725D01*
X166529730Y-80130747D01*
X166494724Y-80165753D01*
X166494722Y-80165755D01*
X166176120Y-80484357D01*
X165848312Y-80812164D01*
X165848311Y-80812164D01*
X165848312Y-80812165D01*
X165794722Y-80865754D01*
X165744499Y-80952745D01*
X165743408Y-80956816D01*
X165718500Y-81049775D01*
X165718500Y-81049777D01*
X165718500Y-81196711D01*
X165698815Y-81263750D01*
X165646011Y-81309505D01*
X165604986Y-81319586D01*
X165605047Y-81320146D01*
X165541655Y-81326960D01*
X165405738Y-81377655D01*
X165405730Y-81377660D01*
X165289594Y-81464596D01*
X165200828Y-81583176D01*
X165144895Y-81625048D01*
X165075203Y-81630032D01*
X165013880Y-81596548D01*
X165002294Y-81583177D01*
X164987024Y-81562779D01*
X164912189Y-81462811D01*
X164797491Y-81376949D01*
X164797490Y-81376948D01*
X164736038Y-81354028D01*
X164680105Y-81312156D01*
X164655688Y-81246692D01*
X164656433Y-81221659D01*
X164656615Y-81220283D01*
X164659285Y-81200000D01*
X164640228Y-81055246D01*
X164584355Y-80920358D01*
X164495474Y-80804526D01*
X164379643Y-80715645D01*
X164379640Y-80715644D01*
X164379638Y-80715642D01*
X164244757Y-80659773D01*
X164244752Y-80659771D01*
X164100001Y-80640715D01*
X164099999Y-80640715D01*
X163983006Y-80656117D01*
X163913971Y-80645351D01*
X163861715Y-80598971D01*
X163842830Y-80531702D01*
X163843880Y-80517006D01*
X163859285Y-80400000D01*
X163858590Y-80394724D01*
X163845429Y-80294752D01*
X163840228Y-80255246D01*
X163784355Y-80120358D01*
X163695474Y-80004526D01*
X163579643Y-79915645D01*
X163579640Y-79915644D01*
X163579638Y-79915642D01*
X163444757Y-79859773D01*
X163444755Y-79859772D01*
X163444754Y-79859772D01*
X163410383Y-79855247D01*
X163318972Y-79843212D01*
X163255076Y-79814945D01*
X163247477Y-79807954D01*
X162905712Y-79466189D01*
X162872227Y-79404866D01*
X162869393Y-79378508D01*
X162869393Y-78043670D01*
X162889078Y-77976631D01*
X162895018Y-77968183D01*
X162931398Y-77920772D01*
X162972248Y-77867536D01*
X163028121Y-77732647D01*
X163047178Y-77587893D01*
X163046712Y-77584357D01*
X163030112Y-77458262D01*
X163028121Y-77443139D01*
X162972248Y-77308251D01*
X162883367Y-77192419D01*
X162767536Y-77103538D01*
X162767533Y-77103537D01*
X162767531Y-77103535D01*
X162632650Y-77047666D01*
X162632645Y-77047664D01*
X162487894Y-77028608D01*
X162487892Y-77028608D01*
X162394881Y-77040853D01*
X162325846Y-77030087D01*
X162273590Y-76983707D01*
X162255757Y-76934101D01*
X162240228Y-76816139D01*
X162233542Y-76799998D01*
X167340715Y-76799998D01*
X167340715Y-76800001D01*
X167359771Y-76944752D01*
X167359773Y-76944757D01*
X167415642Y-77079638D01*
X167415645Y-77079644D01*
X167504525Y-77195473D01*
X167504526Y-77195474D01*
X167620355Y-77284354D01*
X167620361Y-77284357D01*
X167673530Y-77306380D01*
X167755246Y-77340228D01*
X167881026Y-77356787D01*
X167944921Y-77385052D01*
X167952521Y-77392044D01*
X169265753Y-78705276D01*
X169352747Y-78755502D01*
X169449775Y-78781501D01*
X169449778Y-78781501D01*
X169557821Y-78781501D01*
X169557837Y-78781500D01*
X171990615Y-78781500D01*
X172057654Y-78801185D01*
X172078296Y-78817819D01*
X174194724Y-80934247D01*
X174265753Y-81005276D01*
X174352746Y-81055501D01*
X174449775Y-81081500D01*
X174550225Y-81081500D01*
X174749775Y-81081500D01*
X183703903Y-81081500D01*
X183770942Y-81101185D01*
X183791584Y-81117819D01*
X185579041Y-82905276D01*
X185666035Y-82955502D01*
X185763063Y-82981501D01*
X185763066Y-82981501D01*
X185871109Y-82981501D01*
X185871125Y-82981500D01*
X186244223Y-82981500D01*
X186311262Y-83001185D01*
X186319710Y-83007125D01*
X186420355Y-83084354D01*
X186420361Y-83084357D01*
X186431684Y-83089047D01*
X186555246Y-83140228D01*
X186595299Y-83145501D01*
X186699999Y-83159285D01*
X186700000Y-83159285D01*
X186700001Y-83159285D01*
X186748251Y-83152932D01*
X186844754Y-83140228D01*
X186979643Y-83084355D01*
X187095474Y-82995474D01*
X187184355Y-82879643D01*
X187240228Y-82744754D01*
X187244561Y-82711839D01*
X187272827Y-82647943D01*
X187331152Y-82609472D01*
X187401016Y-82608641D01*
X187460240Y-82645713D01*
X187490019Y-82708918D01*
X187491500Y-82728025D01*
X187491500Y-86823225D01*
X187517499Y-86920254D01*
X187561466Y-86996407D01*
X187561660Y-86996742D01*
X187567726Y-87007250D01*
X188763873Y-88203396D01*
X188797358Y-88264719D01*
X188799131Y-88274891D01*
X188812137Y-88373678D01*
X188815006Y-88395473D01*
X188815691Y-88400672D01*
X188815692Y-88400676D01*
X188871561Y-88535557D01*
X188871564Y-88535563D01*
X188960444Y-88651392D01*
X188960445Y-88651393D01*
X189076274Y-88740273D01*
X189076280Y-88740276D01*
X189143720Y-88768210D01*
X189211165Y-88796147D01*
X189283542Y-88805675D01*
X189355918Y-88815204D01*
X189355919Y-88815204D01*
X189355920Y-88815204D01*
X189404170Y-88808851D01*
X189500673Y-88796147D01*
X189635562Y-88740274D01*
X189751393Y-88651393D01*
X189840274Y-88535562D01*
X189896147Y-88400673D01*
X189913851Y-88266197D01*
X189915204Y-88255920D01*
X189915204Y-88255917D01*
X189897113Y-88118500D01*
X189896147Y-88111165D01*
X189840274Y-87976277D01*
X189751393Y-87860445D01*
X189751391Y-87860443D01*
X189751390Y-87860442D01*
X189740885Y-87852382D01*
X189734898Y-87847788D01*
X189693695Y-87791362D01*
X189689540Y-87721616D01*
X189712009Y-87673925D01*
X189726342Y-87655247D01*
X189784355Y-87579643D01*
X189840228Y-87444754D01*
X189857226Y-87315642D01*
X189859285Y-87300001D01*
X189859285Y-87299998D01*
X189840228Y-87155247D01*
X189840228Y-87155246D01*
X189784355Y-87020358D01*
X189695474Y-86904526D01*
X189579643Y-86815645D01*
X189579640Y-86815644D01*
X189579638Y-86815642D01*
X189444757Y-86759773D01*
X189444755Y-86759772D01*
X189444754Y-86759772D01*
X189424391Y-86757091D01*
X189318972Y-86743212D01*
X189255076Y-86714945D01*
X189247477Y-86707954D01*
X188917819Y-86378296D01*
X188884334Y-86316973D01*
X188881500Y-86290615D01*
X188881500Y-82899681D01*
X189816725Y-82899681D01*
X189816725Y-82899684D01*
X189835781Y-83044435D01*
X189835783Y-83044440D01*
X189891652Y-83179321D01*
X189891655Y-83179327D01*
X189980535Y-83295156D01*
X189980536Y-83295157D01*
X190096365Y-83384037D01*
X190096371Y-83384040D01*
X190145829Y-83404526D01*
X190231256Y-83439911D01*
X190266106Y-83444499D01*
X190376009Y-83458968D01*
X190376010Y-83458968D01*
X190376011Y-83458968D01*
X190425079Y-83452508D01*
X190520764Y-83439911D01*
X190655653Y-83384038D01*
X190771484Y-83295157D01*
X190860365Y-83179326D01*
X190916238Y-83044437D01*
X190928856Y-82948586D01*
X190957122Y-82884692D01*
X191015446Y-82846220D01*
X191085311Y-82845388D01*
X191099247Y-82850211D01*
X191211890Y-82896870D01*
X191235673Y-82900001D01*
X191356643Y-82915927D01*
X191356644Y-82915927D01*
X191356645Y-82915927D01*
X191437547Y-82905276D01*
X191501398Y-82896870D01*
X191636282Y-82840999D01*
X191636283Y-82840999D01*
X191636283Y-82840998D01*
X191636287Y-82840997D01*
X191752118Y-82752116D01*
X191764411Y-82736094D01*
X191820840Y-82694893D01*
X191862786Y-82687583D01*
X197703485Y-82687583D01*
X197750937Y-82697021D01*
X197855246Y-82740228D01*
X197889610Y-82744752D01*
X197999999Y-82759285D01*
X198000000Y-82759285D01*
X198000001Y-82759285D01*
X198046464Y-82753168D01*
X198105315Y-82745420D01*
X198174350Y-82756186D01*
X198226606Y-82802565D01*
X198245500Y-82868359D01*
X198245500Y-82901799D01*
X198225815Y-82968838D01*
X198209181Y-82989480D01*
X196689480Y-84509181D01*
X196628157Y-84542666D01*
X196601799Y-84545500D01*
X195587811Y-84545500D01*
X195520772Y-84525815D01*
X195500130Y-84509181D01*
X195495479Y-84504530D01*
X195464087Y-84480442D01*
X195379643Y-84415645D01*
X195379640Y-84415644D01*
X195379638Y-84415642D01*
X195244757Y-84359773D01*
X195244752Y-84359771D01*
X195100001Y-84340715D01*
X195099999Y-84340715D01*
X194955247Y-84359771D01*
X194955245Y-84359772D01*
X194820361Y-84415643D01*
X194820358Y-84415644D01*
X194820358Y-84415645D01*
X194704526Y-84504526D01*
X194616011Y-84619882D01*
X194615643Y-84620361D01*
X194559772Y-84755245D01*
X194559771Y-84755247D01*
X194540715Y-84899998D01*
X194540715Y-84900001D01*
X194559771Y-85044752D01*
X194559773Y-85044757D01*
X194615642Y-85179638D01*
X194615645Y-85179644D01*
X194704525Y-85295473D01*
X194704526Y-85295474D01*
X194820355Y-85384354D01*
X194820361Y-85384357D01*
X194887801Y-85412291D01*
X194955246Y-85440228D01*
X194989306Y-85444712D01*
X195099999Y-85459285D01*
X195100000Y-85459285D01*
X195100001Y-85459285D01*
X195148251Y-85452932D01*
X195244754Y-85440228D01*
X195379643Y-85384355D01*
X195495474Y-85295474D01*
X195495476Y-85295472D01*
X195500134Y-85290815D01*
X195561459Y-85257333D01*
X195587811Y-85254500D01*
X196846669Y-85254500D01*
X196846671Y-85254500D01*
X196936832Y-85230341D01*
X197017668Y-85183671D01*
X198433819Y-83767518D01*
X198495142Y-83734034D01*
X198564834Y-83739018D01*
X198620767Y-83780890D01*
X198645184Y-83846354D01*
X198645500Y-83855200D01*
X198645500Y-84803720D01*
X198625815Y-84870759D01*
X198609181Y-84891401D01*
X197509321Y-85991261D01*
X197447998Y-86024746D01*
X197421640Y-86027580D01*
X197415056Y-86027580D01*
X197270304Y-86046636D01*
X197270302Y-86046637D01*
X197135418Y-86102508D01*
X197135415Y-86102509D01*
X197135415Y-86102510D01*
X197019583Y-86191391D01*
X196937403Y-86298491D01*
X196930700Y-86307226D01*
X196874829Y-86442110D01*
X196874828Y-86442112D01*
X196855772Y-86586863D01*
X196855772Y-86586866D01*
X196874828Y-86731617D01*
X196874829Y-86731618D01*
X196891592Y-86772089D01*
X196899060Y-86841558D01*
X196867784Y-86904037D01*
X196864712Y-86907221D01*
X196802736Y-86969197D01*
X196494537Y-87277396D01*
X196433214Y-87310881D01*
X196406856Y-87313715D01*
X196400271Y-87313715D01*
X196255519Y-87332771D01*
X196255517Y-87332772D01*
X196120633Y-87388643D01*
X196120630Y-87388644D01*
X196120630Y-87388645D01*
X196004798Y-87477526D01*
X195917664Y-87591082D01*
X195915915Y-87593361D01*
X195860044Y-87728245D01*
X195860043Y-87728247D01*
X195845057Y-87842083D01*
X195816790Y-87905980D01*
X195758466Y-87944451D01*
X195738304Y-87948837D01*
X195655246Y-87959772D01*
X195655245Y-87959772D01*
X195520361Y-88015643D01*
X195520358Y-88015644D01*
X195520358Y-88015645D01*
X195483116Y-88044222D01*
X195404523Y-88104528D01*
X195339860Y-88188799D01*
X195283432Y-88230002D01*
X195213686Y-88234156D01*
X195153804Y-88200993D01*
X194890137Y-87937326D01*
X194856652Y-87876003D01*
X194854879Y-87833463D01*
X194859285Y-87800000D01*
X194840228Y-87655246D01*
X194784355Y-87520358D01*
X194695474Y-87404526D01*
X194579643Y-87315645D01*
X194579640Y-87315644D01*
X194579638Y-87315642D01*
X194444757Y-87259773D01*
X194444752Y-87259771D01*
X194300001Y-87240715D01*
X194299999Y-87240715D01*
X194155247Y-87259771D01*
X194155245Y-87259772D01*
X194020361Y-87315643D01*
X194020358Y-87315644D01*
X194020358Y-87315645D01*
X193936961Y-87379638D01*
X193904526Y-87404526D01*
X193815643Y-87520361D01*
X193811751Y-87529758D01*
X193767910Y-87584161D01*
X193701615Y-87606226D01*
X193633916Y-87588947D01*
X193609509Y-87569986D01*
X193589528Y-87550005D01*
X193556043Y-87488682D01*
X193561027Y-87418990D01*
X193578837Y-87386832D01*
X193584355Y-87379643D01*
X193640228Y-87244754D01*
X193659285Y-87100000D01*
X193658465Y-87093775D01*
X193640228Y-86955247D01*
X193640228Y-86955246D01*
X193584355Y-86820358D01*
X193495474Y-86704526D01*
X193379643Y-86615645D01*
X193379640Y-86615644D01*
X193379638Y-86615642D01*
X193244757Y-86559773D01*
X193244752Y-86559771D01*
X193100001Y-86540715D01*
X193099999Y-86540715D01*
X192955247Y-86559771D01*
X192955245Y-86559772D01*
X192820361Y-86615643D01*
X192820358Y-86615644D01*
X192820358Y-86615645D01*
X192704526Y-86704526D01*
X192619262Y-86815645D01*
X192615643Y-86820361D01*
X192559772Y-86955245D01*
X192559771Y-86955247D01*
X192540715Y-87099998D01*
X192540715Y-87100001D01*
X192559771Y-87244752D01*
X192559773Y-87244757D01*
X192615642Y-87379638D01*
X192615645Y-87379644D01*
X192665605Y-87444752D01*
X192692378Y-87479643D01*
X192692875Y-87480290D01*
X192718070Y-87545459D01*
X192718500Y-87555777D01*
X192718500Y-87650225D01*
X192737292Y-87720357D01*
X192744499Y-87747255D01*
X192744500Y-87747256D01*
X192765919Y-87784355D01*
X192794724Y-87834247D01*
X194801124Y-89840647D01*
X194872153Y-89911676D01*
X194959146Y-89961901D01*
X195056175Y-89987900D01*
X195056178Y-89987900D01*
X198743822Y-89987900D01*
X198743825Y-89987900D01*
X198840854Y-89961901D01*
X198927847Y-89911676D01*
X198998876Y-89840647D01*
X198998876Y-89840646D01*
X201047477Y-87792043D01*
X201108798Y-87758560D01*
X201118960Y-87756788D01*
X201244754Y-87740228D01*
X201379643Y-87684355D01*
X201495474Y-87595474D01*
X201508580Y-87578394D01*
X203425510Y-87578394D01*
X203425510Y-87820971D01*
X203457171Y-88061468D01*
X203519957Y-88295787D01*
X203567660Y-88410952D01*
X203612786Y-88519895D01*
X203734074Y-88729972D01*
X203734076Y-88729975D01*
X203734077Y-88729976D01*
X203881743Y-88922419D01*
X203881749Y-88922426D01*
X204053266Y-89093943D01*
X204053272Y-89093948D01*
X204245721Y-89241619D01*
X204455798Y-89362907D01*
X204679910Y-89455737D01*
X204914221Y-89518521D01*
X205094596Y-89542267D01*
X205154721Y-89550183D01*
X205154722Y-89550183D01*
X205397299Y-89550183D01*
X205445398Y-89543850D01*
X205637799Y-89518521D01*
X205872110Y-89455737D01*
X206096222Y-89362907D01*
X206306299Y-89241619D01*
X206498748Y-89093948D01*
X206670275Y-88922421D01*
X206817946Y-88729972D01*
X206939234Y-88519895D01*
X207032064Y-88295783D01*
X207094848Y-88061472D01*
X207126510Y-87820971D01*
X207126510Y-87578395D01*
X207126416Y-87577684D01*
X207113509Y-87479638D01*
X207094848Y-87337894D01*
X207032064Y-87103583D01*
X206939234Y-86879471D01*
X206817946Y-86669394D01*
X206733830Y-86559772D01*
X206670276Y-86476946D01*
X206670270Y-86476939D01*
X206498753Y-86305422D01*
X206498746Y-86305416D01*
X206306303Y-86157750D01*
X206306302Y-86157749D01*
X206306299Y-86157747D01*
X206099094Y-86038117D01*
X206096224Y-86036460D01*
X206096215Y-86036456D01*
X205872114Y-85943630D01*
X205637795Y-85880844D01*
X205397299Y-85849183D01*
X205397298Y-85849183D01*
X205154722Y-85849183D01*
X205154721Y-85849183D01*
X204914224Y-85880844D01*
X204679905Y-85943630D01*
X204455804Y-86036456D01*
X204455795Y-86036460D01*
X204245716Y-86157750D01*
X204053273Y-86305416D01*
X204053266Y-86305422D01*
X203881749Y-86476939D01*
X203881743Y-86476946D01*
X203734077Y-86669389D01*
X203612787Y-86879468D01*
X203612783Y-86879477D01*
X203519957Y-87103578D01*
X203457171Y-87337897D01*
X203425510Y-87578394D01*
X201508580Y-87578394D01*
X201584355Y-87479643D01*
X201640228Y-87344754D01*
X201659285Y-87200000D01*
X201640228Y-87055246D01*
X201584355Y-86920358D01*
X201495474Y-86804526D01*
X201379643Y-86715645D01*
X201379640Y-86715644D01*
X201379638Y-86715642D01*
X201244757Y-86659773D01*
X201244752Y-86659771D01*
X201100001Y-86640715D01*
X201099999Y-86640715D01*
X200955247Y-86659771D01*
X200955242Y-86659773D01*
X200852521Y-86702321D01*
X200783051Y-86709790D01*
X200720572Y-86678514D01*
X200690507Y-86635211D01*
X200684355Y-86620358D01*
X200595474Y-86504526D01*
X200479643Y-86415645D01*
X200479639Y-86415643D01*
X200402267Y-86383594D01*
X200347863Y-86339753D01*
X200325799Y-86273458D01*
X200343079Y-86205759D01*
X200362030Y-86181362D01*
X200505276Y-86038117D01*
X200555502Y-85951123D01*
X200581501Y-85854095D01*
X200581501Y-85753645D01*
X200581501Y-85746050D01*
X200581500Y-85746032D01*
X200581500Y-80149998D01*
X209290715Y-80149998D01*
X209290715Y-80150001D01*
X209309771Y-80294752D01*
X209309773Y-80294757D01*
X209365642Y-80429638D01*
X209365645Y-80429644D01*
X209454525Y-80545473D01*
X209454526Y-80545474D01*
X209570355Y-80634354D01*
X209570361Y-80634357D01*
X209611321Y-80651323D01*
X209705246Y-80690228D01*
X209775735Y-80699508D01*
X209849999Y-80709285D01*
X209850000Y-80709285D01*
X209850001Y-80709285D01*
X209907121Y-80701765D01*
X209994754Y-80690228D01*
X210129643Y-80634355D01*
X210230290Y-80557124D01*
X210295459Y-80531930D01*
X210305777Y-80531500D01*
X210424384Y-80531500D01*
X210491423Y-80551185D01*
X210512065Y-80567819D01*
X213944529Y-84000283D01*
X213978014Y-84061606D01*
X213973030Y-84131298D01*
X213931158Y-84187231D01*
X213865696Y-84211648D01*
X213814636Y-84215300D01*
X213535104Y-84276109D01*
X213267041Y-84376091D01*
X213015961Y-84513191D01*
X213015953Y-84513196D01*
X212873435Y-84619882D01*
X213590979Y-85337426D01*
X213462537Y-85423249D01*
X213323249Y-85562537D01*
X213237426Y-85690979D01*
X212519882Y-84973435D01*
X212413196Y-85115953D01*
X212413191Y-85115961D01*
X212276091Y-85367041D01*
X212176109Y-85635104D01*
X212115300Y-85914637D01*
X212094891Y-86199998D01*
X212094891Y-86200001D01*
X212115300Y-86485362D01*
X212176109Y-86764895D01*
X212276091Y-87032958D01*
X212413191Y-87284038D01*
X212413196Y-87284046D01*
X212519882Y-87426562D01*
X212519883Y-87426563D01*
X213237425Y-86709020D01*
X213323249Y-86837463D01*
X213462537Y-86976751D01*
X213590978Y-87062573D01*
X212873435Y-87780115D01*
X212873436Y-87780116D01*
X213015953Y-87886803D01*
X213015961Y-87886808D01*
X213267042Y-88023908D01*
X213267041Y-88023908D01*
X213535104Y-88123890D01*
X213814637Y-88184699D01*
X214099999Y-88205109D01*
X214100001Y-88205109D01*
X214385362Y-88184699D01*
X214664895Y-88123890D01*
X214932958Y-88023908D01*
X215184038Y-87886808D01*
X215184039Y-87886807D01*
X215326563Y-87780115D01*
X214609020Y-87062573D01*
X214737463Y-86976751D01*
X214876751Y-86837463D01*
X214962573Y-86709020D01*
X215682181Y-87428628D01*
X215715666Y-87489951D01*
X215718500Y-87516309D01*
X215718500Y-88044222D01*
X215698815Y-88111261D01*
X215692876Y-88119708D01*
X215615645Y-88220357D01*
X215615643Y-88220360D01*
X215559772Y-88355245D01*
X215559771Y-88355247D01*
X215540715Y-88499998D01*
X215540715Y-88500001D01*
X215559771Y-88644752D01*
X215559773Y-88644757D01*
X215615642Y-88779638D01*
X215615645Y-88779644D01*
X215704525Y-88895473D01*
X215704526Y-88895474D01*
X215820355Y-88984354D01*
X215820361Y-88984357D01*
X215887801Y-89012291D01*
X215955246Y-89040228D01*
X216027623Y-89049756D01*
X216099999Y-89059285D01*
X216100000Y-89059285D01*
X216100001Y-89059285D01*
X216148251Y-89052932D01*
X216244754Y-89040228D01*
X216379643Y-88984355D01*
X216495474Y-88895474D01*
X216584355Y-88779643D01*
X216640228Y-88644754D01*
X216659285Y-88500000D01*
X216657225Y-88484355D01*
X216646209Y-88400676D01*
X216640228Y-88355246D01*
X216584355Y-88220358D01*
X216530645Y-88150362D01*
X216507124Y-88119708D01*
X216481930Y-88054539D01*
X216481500Y-88044222D01*
X216481500Y-85750131D01*
X216501185Y-85683092D01*
X216553989Y-85637337D01*
X216621684Y-85627192D01*
X216673956Y-85634073D01*
X216712020Y-85639085D01*
X216712021Y-85639085D01*
X216712022Y-85639085D01*
X216802358Y-85627192D01*
X216856775Y-85620028D01*
X216991664Y-85564155D01*
X217107495Y-85475274D01*
X217196376Y-85359443D01*
X217252249Y-85224554D01*
X217263362Y-85140138D01*
X217291626Y-85076244D01*
X217298607Y-85068656D01*
X217651446Y-84715818D01*
X217712769Y-84682333D01*
X217739127Y-84679499D01*
X217950271Y-84679499D01*
X217950274Y-84679499D01*
X218010362Y-84673040D01*
X218146287Y-84622342D01*
X218207126Y-84576798D01*
X218272587Y-84552382D01*
X218340860Y-84567233D01*
X218386972Y-84610968D01*
X218408388Y-84645689D01*
X218531328Y-84768629D01*
X218679305Y-84859903D01*
X218679310Y-84859905D01*
X218844346Y-84914592D01*
X218946204Y-84924999D01*
X218946217Y-84925000D01*
X219202020Y-84925000D01*
X219202020Y-84061500D01*
X219221705Y-83994461D01*
X219274509Y-83948706D01*
X219326020Y-83937500D01*
X219578020Y-83937500D01*
X219645059Y-83957185D01*
X219690814Y-84009989D01*
X219702020Y-84061500D01*
X219702020Y-84925000D01*
X219957823Y-84925000D01*
X219957835Y-84924999D01*
X220059693Y-84914592D01*
X220224729Y-84859905D01*
X220224734Y-84859903D01*
X220372711Y-84768629D01*
X220495649Y-84645691D01*
X220515747Y-84613107D01*
X220567694Y-84566382D01*
X220636656Y-84555158D01*
X220695595Y-84578934D01*
X220750296Y-84619882D01*
X220754529Y-84623051D01*
X220754531Y-84623052D01*
X220888765Y-84673118D01*
X220888764Y-84673118D01*
X220888770Y-84673120D01*
X220948111Y-84679500D01*
X221405849Y-84679499D01*
X221472888Y-84699183D01*
X221518643Y-84751987D01*
X221520408Y-84756041D01*
X221520829Y-84757057D01*
X221574396Y-84849839D01*
X221574400Y-84849844D01*
X222013400Y-85288844D01*
X222046885Y-85350167D01*
X222048658Y-85360339D01*
X222059772Y-85444754D01*
X222115642Y-85579638D01*
X222115645Y-85579644D01*
X222204525Y-85695473D01*
X222204526Y-85695474D01*
X222320355Y-85784354D01*
X222320361Y-85784357D01*
X222354752Y-85798602D01*
X222455246Y-85840228D01*
X222523267Y-85849183D01*
X222599999Y-85859285D01*
X222600000Y-85859285D01*
X222600001Y-85859285D01*
X222676733Y-85849183D01*
X222744754Y-85840228D01*
X222879643Y-85784355D01*
X222995474Y-85695474D01*
X223084355Y-85579643D01*
X223140228Y-85444754D01*
X223159285Y-85300000D01*
X223157816Y-85288844D01*
X223140228Y-85155247D01*
X223140228Y-85155246D01*
X223084355Y-85020358D01*
X222995474Y-84904526D01*
X222879643Y-84815645D01*
X222879640Y-84815644D01*
X222879638Y-84815642D01*
X222744754Y-84759772D01*
X222660339Y-84748658D01*
X222596442Y-84720391D01*
X222588844Y-84713400D01*
X222392257Y-84516813D01*
X222358772Y-84455490D01*
X222363755Y-84385800D01*
X222400140Y-84288250D01*
X222406520Y-84228909D01*
X222406519Y-83646092D01*
X222400140Y-83586750D01*
X222388610Y-83555838D01*
X222350072Y-83452511D01*
X222350070Y-83452508D01*
X222264209Y-83337811D01*
X222149511Y-83251949D01*
X222149508Y-83251947D01*
X222015274Y-83201881D01*
X222015275Y-83201881D01*
X222015271Y-83201880D01*
X222015270Y-83201880D01*
X221955929Y-83195500D01*
X221955919Y-83195500D01*
X220948113Y-83195500D01*
X220948107Y-83195501D01*
X220888769Y-83201879D01*
X220754531Y-83251947D01*
X220754525Y-83251950D01*
X220695596Y-83296064D01*
X220630132Y-83320480D01*
X220561859Y-83305628D01*
X220515749Y-83261893D01*
X220495653Y-83229313D01*
X220495650Y-83229309D01*
X220372711Y-83106370D01*
X220224734Y-83015096D01*
X220224729Y-83015094D01*
X220140118Y-82987057D01*
X220082673Y-82947284D01*
X220055850Y-82882768D01*
X220068165Y-82813993D01*
X220115708Y-82762793D01*
X220135788Y-82753169D01*
X220149511Y-82748051D01*
X220264209Y-82662189D01*
X220350071Y-82547491D01*
X220350071Y-82547490D01*
X220352753Y-82543908D01*
X220408687Y-82502037D01*
X220478379Y-82497053D01*
X220539702Y-82530538D01*
X220551287Y-82543908D01*
X220553968Y-82547490D01*
X220553969Y-82547491D01*
X220639831Y-82662189D01*
X220754528Y-82748050D01*
X220754531Y-82748052D01*
X220794054Y-82762793D01*
X220886689Y-82797344D01*
X220888765Y-82798118D01*
X220888764Y-82798118D01*
X220888770Y-82798120D01*
X220948111Y-82804500D01*
X221955928Y-82804499D01*
X222015270Y-82798120D01*
X222149511Y-82748051D01*
X222264209Y-82662189D01*
X222285451Y-82633811D01*
X222341381Y-82591942D01*
X222411073Y-82586956D01*
X222472394Y-82620438D01*
X222472398Y-82620442D01*
X222740800Y-82888844D01*
X222774285Y-82950167D01*
X222776058Y-82960339D01*
X222787172Y-83044754D01*
X222843042Y-83179638D01*
X222843045Y-83179644D01*
X222931925Y-83295473D01*
X222931926Y-83295474D01*
X223047755Y-83384354D01*
X223047761Y-83384357D01*
X223099368Y-83405733D01*
X223182646Y-83440228D01*
X223215088Y-83444499D01*
X223327399Y-83459285D01*
X223327400Y-83459285D01*
X223327401Y-83459285D01*
X223378877Y-83452508D01*
X223472154Y-83440228D01*
X223607043Y-83384355D01*
X223722874Y-83295474D01*
X223811755Y-83179643D01*
X223867628Y-83044754D01*
X223880793Y-82944752D01*
X223886685Y-82900001D01*
X223886685Y-82899998D01*
X223873520Y-82799998D01*
X224440715Y-82799998D01*
X224440715Y-82800001D01*
X224459771Y-82944752D01*
X224459773Y-82944757D01*
X224515642Y-83079638D01*
X224515645Y-83079644D01*
X224604525Y-83195473D01*
X224604526Y-83195474D01*
X224720355Y-83284354D01*
X224720361Y-83284357D01*
X224771714Y-83305628D01*
X224855246Y-83340228D01*
X224927623Y-83349756D01*
X224999999Y-83359285D01*
X225000000Y-83359285D01*
X225000001Y-83359285D01*
X225048251Y-83352932D01*
X225144754Y-83340228D01*
X225279643Y-83284355D01*
X225395474Y-83195474D01*
X225484355Y-83079643D01*
X225540228Y-82944754D01*
X225559285Y-82800000D01*
X225559037Y-82798120D01*
X225540228Y-82655247D01*
X225540228Y-82655246D01*
X225484355Y-82520358D01*
X225395474Y-82404526D01*
X225279643Y-82315645D01*
X225279640Y-82315644D01*
X225279638Y-82315642D01*
X225144757Y-82259773D01*
X225144752Y-82259771D01*
X225000001Y-82240715D01*
X224999999Y-82240715D01*
X224855247Y-82259771D01*
X224855245Y-82259772D01*
X224720361Y-82315643D01*
X224720358Y-82315644D01*
X224720358Y-82315645D01*
X224604526Y-82404526D01*
X224519331Y-82515555D01*
X224515643Y-82520361D01*
X224459772Y-82655245D01*
X224459771Y-82655247D01*
X224440715Y-82799998D01*
X223873520Y-82799998D01*
X223872867Y-82795040D01*
X223867628Y-82755246D01*
X223811755Y-82620358D01*
X223722874Y-82504526D01*
X223607043Y-82415645D01*
X223607040Y-82415644D01*
X223607038Y-82415642D01*
X223472154Y-82359772D01*
X223387739Y-82348658D01*
X223323842Y-82320391D01*
X223316244Y-82313400D01*
X222739744Y-81736900D01*
X222739743Y-81736899D01*
X222646958Y-81683330D01*
X222646959Y-81683330D01*
X222602532Y-81671426D01*
X222543470Y-81655600D01*
X222543469Y-81655600D01*
X222543467Y-81655600D01*
X222465293Y-81655600D01*
X222398254Y-81635915D01*
X222354368Y-81585268D01*
X222354322Y-81585294D01*
X222354205Y-81585079D01*
X222352499Y-81583111D01*
X222350514Y-81578320D01*
X222350070Y-81577508D01*
X222339044Y-81562779D01*
X222264209Y-81462811D01*
X222149511Y-81376949D01*
X222149508Y-81376947D01*
X222015274Y-81326881D01*
X222015275Y-81326881D01*
X222015271Y-81326880D01*
X222015270Y-81326880D01*
X221955929Y-81320500D01*
X221955919Y-81320500D01*
X220948113Y-81320500D01*
X220948107Y-81320501D01*
X220888769Y-81326879D01*
X220754531Y-81376947D01*
X220754528Y-81376949D01*
X220639831Y-81462811D01*
X220551287Y-81581091D01*
X220495353Y-81622962D01*
X220425661Y-81627946D01*
X220364338Y-81594461D01*
X220352754Y-81581091D01*
X220259352Y-81456323D01*
X220234934Y-81390859D01*
X220238845Y-81349913D01*
X220240226Y-81344757D01*
X220240228Y-81344754D01*
X220258263Y-81207762D01*
X220259285Y-81200001D01*
X220259285Y-81199998D01*
X220241946Y-81068296D01*
X220240228Y-81055246D01*
X220184355Y-80920358D01*
X220095474Y-80804526D01*
X219979643Y-80715645D01*
X219979640Y-80715644D01*
X219979638Y-80715642D01*
X219844757Y-80659773D01*
X219844752Y-80659771D01*
X219700001Y-80640715D01*
X219699999Y-80640715D01*
X219555247Y-80659771D01*
X219555245Y-80659772D01*
X219420361Y-80715643D01*
X219420358Y-80715644D01*
X219420358Y-80715645D01*
X219304526Y-80804526D01*
X219215799Y-80920158D01*
X219215643Y-80920361D01*
X219159772Y-81055245D01*
X219159771Y-81055247D01*
X219139654Y-81208058D01*
X219137407Y-81207762D01*
X219121030Y-81263539D01*
X219068226Y-81309294D01*
X219016717Y-81320500D01*
X218948114Y-81320500D01*
X218948107Y-81320501D01*
X218888769Y-81326879D01*
X218754531Y-81376947D01*
X218754528Y-81376949D01*
X218696078Y-81420705D01*
X218639831Y-81462811D01*
X218639830Y-81462812D01*
X218639829Y-81462813D01*
X218549724Y-81583177D01*
X218493790Y-81625048D01*
X218424099Y-81630032D01*
X218362776Y-81596546D01*
X218351190Y-81583175D01*
X218262424Y-81464595D01*
X218177292Y-81400868D01*
X218146287Y-81377658D01*
X218010362Y-81326960D01*
X218010358Y-81326959D01*
X217950282Y-81320500D01*
X216953768Y-81320500D01*
X216953762Y-81320501D01*
X216893675Y-81326960D01*
X216757758Y-81377655D01*
X216757750Y-81377660D01*
X216641615Y-81464595D01*
X216568118Y-81562779D01*
X216554678Y-81580733D01*
X216553057Y-81585079D01*
X216547516Y-81599935D01*
X216505644Y-81655868D01*
X216440180Y-81680284D01*
X216431335Y-81680600D01*
X214806385Y-81680600D01*
X214739346Y-81660915D01*
X214730898Y-81654975D01*
X214679644Y-81615645D01*
X214679638Y-81615642D01*
X214544757Y-81559773D01*
X214544752Y-81559771D01*
X214400001Y-81540715D01*
X214399999Y-81540715D01*
X214255247Y-81559771D01*
X214255245Y-81559772D01*
X214120361Y-81615643D01*
X214120358Y-81615644D01*
X214120358Y-81615645D01*
X214004526Y-81704526D01*
X213918672Y-81816414D01*
X213915643Y-81820361D01*
X213859772Y-81955245D01*
X213859771Y-81955247D01*
X213840715Y-82099998D01*
X213840715Y-82100001D01*
X213859771Y-82244752D01*
X213859773Y-82244757D01*
X213915642Y-82379638D01*
X213915645Y-82379644D01*
X214004525Y-82495473D01*
X214004526Y-82495474D01*
X214120355Y-82584354D01*
X214120361Y-82584357D01*
X214158127Y-82600000D01*
X214255246Y-82640228D01*
X214313848Y-82647943D01*
X214399999Y-82659285D01*
X214400000Y-82659285D01*
X214400001Y-82659285D01*
X214448251Y-82652932D01*
X214544754Y-82640228D01*
X214679643Y-82584355D01*
X214738733Y-82539013D01*
X214763479Y-82520025D01*
X214828648Y-82494830D01*
X214838966Y-82494400D01*
X216431335Y-82494400D01*
X216498374Y-82514085D01*
X216544129Y-82566889D01*
X216547515Y-82575063D01*
X216554678Y-82594267D01*
X216574271Y-82620440D01*
X216641615Y-82710404D01*
X216687500Y-82744752D01*
X216757753Y-82797342D01*
X216893678Y-82848040D01*
X216953765Y-82854500D01*
X217950274Y-82854499D01*
X218010362Y-82848040D01*
X218146287Y-82797342D01*
X218262424Y-82710404D01*
X218349362Y-82594267D01*
X218349689Y-82593389D01*
X218350248Y-82592642D01*
X218353611Y-82586484D01*
X218354496Y-82586967D01*
X218391558Y-82537456D01*
X218457021Y-82513037D01*
X218525295Y-82527887D01*
X218565135Y-82562408D01*
X218639831Y-82662189D01*
X218754528Y-82748050D01*
X218754531Y-82748052D01*
X218768250Y-82753169D01*
X218824184Y-82795040D01*
X218848601Y-82860504D01*
X218833750Y-82928777D01*
X218784344Y-82978183D01*
X218763921Y-82987057D01*
X218679310Y-83015094D01*
X218679305Y-83015096D01*
X218531328Y-83106370D01*
X218408389Y-83229309D01*
X218408383Y-83229316D01*
X218408064Y-83229835D01*
X218407752Y-83230115D01*
X218403908Y-83234977D01*
X218403076Y-83234319D01*
X218356111Y-83276554D01*
X218287147Y-83287768D01*
X218228224Y-83263994D01*
X218181889Y-83229309D01*
X218146287Y-83202658D01*
X218010362Y-83151960D01*
X218010358Y-83151959D01*
X217950282Y-83145500D01*
X216953768Y-83145500D01*
X216953762Y-83145501D01*
X216893675Y-83151960D01*
X216757758Y-83202655D01*
X216757750Y-83202660D01*
X216641615Y-83289595D01*
X216554680Y-83405730D01*
X216554678Y-83405733D01*
X216503980Y-83541658D01*
X216503979Y-83541662D01*
X216497520Y-83601728D01*
X216497520Y-84223251D01*
X216497521Y-84223257D01*
X216503979Y-84283340D01*
X216505812Y-84288253D01*
X216553416Y-84415883D01*
X216558400Y-84485573D01*
X216524916Y-84546897D01*
X216484688Y-84573776D01*
X216432385Y-84595441D01*
X216432382Y-84595442D01*
X216331151Y-84673120D01*
X216316547Y-84684326D01*
X216231837Y-84794723D01*
X216227664Y-84800161D01*
X216180291Y-84914529D01*
X216136450Y-84968932D01*
X216070155Y-84990997D01*
X216002456Y-84973717D01*
X215978049Y-84954757D01*
X210868017Y-79844725D01*
X210868009Y-79844719D01*
X210861073Y-79840715D01*
X210861070Y-79840714D01*
X210790551Y-79800000D01*
X213090312Y-79800000D01*
X213110957Y-79943595D01*
X213110958Y-79943599D01*
X213168492Y-80069578D01*
X213171223Y-80075558D01*
X213266225Y-80185196D01*
X213277936Y-80192722D01*
X213388269Y-80263630D01*
X213527461Y-80304499D01*
X213527463Y-80304500D01*
X213527464Y-80304500D01*
X213672537Y-80304500D01*
X213672537Y-80304499D01*
X213811729Y-80263630D01*
X213811730Y-80263630D01*
X213816406Y-80260625D01*
X213933775Y-80185196D01*
X214028777Y-80075558D01*
X214075262Y-79973771D01*
X214089041Y-79943599D01*
X214089042Y-79943595D01*
X214090125Y-79936062D01*
X214109688Y-79800000D01*
X214089042Y-79656404D01*
X214089041Y-79656400D01*
X214040304Y-79549683D01*
X214028777Y-79524442D01*
X213933775Y-79414804D01*
X213864996Y-79370602D01*
X213811730Y-79336369D01*
X213672538Y-79295500D01*
X213672536Y-79295500D01*
X213527464Y-79295500D01*
X213527461Y-79295500D01*
X213388270Y-79336369D01*
X213388269Y-79336369D01*
X213266226Y-79414803D01*
X213171223Y-79524442D01*
X213171222Y-79524443D01*
X213110958Y-79656400D01*
X213110957Y-79656404D01*
X213090312Y-79800000D01*
X210790551Y-79800000D01*
X210781025Y-79794500D01*
X210781024Y-79794499D01*
X210756765Y-79787999D01*
X210683994Y-79768500D01*
X210683991Y-79768500D01*
X210305777Y-79768500D01*
X210238738Y-79748815D01*
X210230290Y-79742875D01*
X210129644Y-79665645D01*
X210129638Y-79665642D01*
X209994757Y-79609773D01*
X209994752Y-79609771D01*
X209850001Y-79590715D01*
X209849999Y-79590715D01*
X209705247Y-79609771D01*
X209705245Y-79609772D01*
X209570361Y-79665643D01*
X209570358Y-79665644D01*
X209570358Y-79665645D01*
X209454526Y-79754526D01*
X209372448Y-79861493D01*
X209365643Y-79870361D01*
X209309772Y-80005245D01*
X209309771Y-80005247D01*
X209290715Y-80149998D01*
X200581500Y-80149998D01*
X200581500Y-79055777D01*
X200601185Y-78988738D01*
X200607125Y-78980290D01*
X200645500Y-78930279D01*
X200684355Y-78879643D01*
X200712657Y-78811315D01*
X220429398Y-78811315D01*
X220429398Y-78811318D01*
X220448454Y-78956069D01*
X220448456Y-78956074D01*
X220504325Y-79090955D01*
X220504328Y-79090961D01*
X220593208Y-79206790D01*
X220593209Y-79206791D01*
X220709038Y-79295671D01*
X220709044Y-79295674D01*
X220776484Y-79323608D01*
X220843929Y-79351545D01*
X220916306Y-79361073D01*
X220988682Y-79370602D01*
X220988683Y-79370602D01*
X220988684Y-79370602D01*
X221036934Y-79364249D01*
X221133437Y-79351545D01*
X221268326Y-79295672D01*
X221384157Y-79206791D01*
X221473038Y-79090960D01*
X221528911Y-78956071D01*
X221547968Y-78811317D01*
X221542347Y-78768624D01*
X221528911Y-78666564D01*
X221528911Y-78666563D01*
X221473038Y-78531675D01*
X221384157Y-78415843D01*
X221268326Y-78326962D01*
X221268323Y-78326961D01*
X221268321Y-78326959D01*
X221133440Y-78271090D01*
X221133435Y-78271088D01*
X220988684Y-78252032D01*
X220988682Y-78252032D01*
X220843930Y-78271088D01*
X220843928Y-78271089D01*
X220709044Y-78326960D01*
X220709041Y-78326961D01*
X220709041Y-78326962D01*
X220593209Y-78415843D01*
X220525404Y-78504209D01*
X220504326Y-78531678D01*
X220448455Y-78666562D01*
X220448454Y-78666564D01*
X220429398Y-78811315D01*
X200712657Y-78811315D01*
X200740228Y-78744754D01*
X200759285Y-78600000D01*
X200740228Y-78455246D01*
X200684355Y-78320358D01*
X200595474Y-78204526D01*
X200479643Y-78115645D01*
X200479640Y-78115644D01*
X200479638Y-78115642D01*
X200344757Y-78059773D01*
X200344752Y-78059771D01*
X200200001Y-78040715D01*
X200199999Y-78040715D01*
X200055247Y-78059771D01*
X200055245Y-78059772D01*
X199925953Y-78113327D01*
X199856483Y-78120796D01*
X199794004Y-78089521D01*
X199758352Y-78029432D01*
X199754500Y-77998766D01*
X199754500Y-77987811D01*
X199774185Y-77920772D01*
X199790819Y-77900130D01*
X199795469Y-77895479D01*
X199795471Y-77895476D01*
X199795474Y-77895474D01*
X199884355Y-77779643D01*
X199940228Y-77644754D01*
X199959285Y-77500000D01*
X199956246Y-77476920D01*
X199944878Y-77390567D01*
X199940228Y-77355246D01*
X199884355Y-77220358D01*
X199795474Y-77104526D01*
X199679643Y-77015645D01*
X199679640Y-77015644D01*
X199679638Y-77015642D01*
X199544757Y-76959773D01*
X199544752Y-76959771D01*
X199400001Y-76940715D01*
X199399999Y-76940715D01*
X199255247Y-76959771D01*
X199255245Y-76959772D01*
X199120361Y-77015643D01*
X199120358Y-77015644D01*
X199120358Y-77015645D01*
X199004526Y-77104526D01*
X198915645Y-77220358D01*
X198915644Y-77220359D01*
X198915644Y-77220360D01*
X198914561Y-77222975D01*
X198913054Y-77224843D01*
X198911579Y-77227400D01*
X198911180Y-77227169D01*
X198870719Y-77277378D01*
X198804425Y-77299442D01*
X198736726Y-77282162D01*
X198689116Y-77231025D01*
X198685439Y-77222975D01*
X198684355Y-77220358D01*
X198595474Y-77104526D01*
X198479643Y-77015645D01*
X198479640Y-77015644D01*
X198479638Y-77015642D01*
X198344757Y-76959773D01*
X198344752Y-76959771D01*
X198200001Y-76940715D01*
X198199999Y-76940715D01*
X198055247Y-76959771D01*
X198055245Y-76959772D01*
X197920361Y-77015643D01*
X197920358Y-77015644D01*
X197920358Y-77015645D01*
X197804526Y-77104526D01*
X197727794Y-77204526D01*
X197715643Y-77220361D01*
X197664561Y-77343685D01*
X197620720Y-77398088D01*
X197554426Y-77420153D01*
X197486727Y-77402874D01*
X197439116Y-77351737D01*
X197435439Y-77343685D01*
X197419987Y-77306380D01*
X197384355Y-77220358D01*
X197295474Y-77104526D01*
X197179643Y-77015645D01*
X197179640Y-77015644D01*
X197179638Y-77015642D01*
X197044757Y-76959773D01*
X197044752Y-76959771D01*
X196900001Y-76940715D01*
X196899999Y-76940715D01*
X196755247Y-76959771D01*
X196755245Y-76959772D01*
X196620360Y-77015643D01*
X196620357Y-77015645D01*
X196563505Y-77059269D01*
X196498335Y-77084463D01*
X196429891Y-77070424D01*
X196379901Y-77021610D01*
X196364238Y-76953518D01*
X196366402Y-76936701D01*
X196366920Y-76934099D01*
X196375800Y-76889455D01*
X196375800Y-76742545D01*
X196347140Y-76598458D01*
X196290920Y-76462731D01*
X196290919Y-76462730D01*
X196290916Y-76462724D01*
X196209301Y-76340580D01*
X196209298Y-76340576D01*
X196105423Y-76236701D01*
X196105419Y-76236698D01*
X195983275Y-76155083D01*
X195983266Y-76155078D01*
X195847544Y-76098861D01*
X195847545Y-76098861D01*
X195847542Y-76098860D01*
X195847538Y-76098859D01*
X195847534Y-76098858D01*
X195703459Y-76070200D01*
X195703455Y-76070200D01*
X195556545Y-76070200D01*
X195556540Y-76070200D01*
X195412465Y-76098858D01*
X195412455Y-76098861D01*
X195276733Y-76155078D01*
X195276724Y-76155083D01*
X195154580Y-76236698D01*
X195154576Y-76236701D01*
X195050701Y-76340576D01*
X195050698Y-76340580D01*
X194969083Y-76462724D01*
X194969078Y-76462733D01*
X194912861Y-76598455D01*
X194912858Y-76598465D01*
X194884200Y-76742540D01*
X194884200Y-76889459D01*
X194912858Y-77033534D01*
X194912861Y-77033544D01*
X194969078Y-77169266D01*
X194969083Y-77169275D01*
X195050698Y-77291419D01*
X195050701Y-77291423D01*
X195154576Y-77395298D01*
X195154580Y-77395301D01*
X195276724Y-77476916D01*
X195276730Y-77476919D01*
X195276731Y-77476920D01*
X195412458Y-77533140D01*
X195556540Y-77561799D01*
X195556544Y-77561800D01*
X195556545Y-77561800D01*
X195703456Y-77561800D01*
X195703457Y-77561799D01*
X195847542Y-77533140D01*
X195983269Y-77476920D01*
X196105420Y-77395301D01*
X196133962Y-77366758D01*
X196195283Y-77333274D01*
X196264975Y-77338258D01*
X196320909Y-77380128D01*
X196345327Y-77445592D01*
X196344582Y-77470625D01*
X196340715Y-77499998D01*
X196340715Y-77500001D01*
X196359771Y-77644752D01*
X196359773Y-77644757D01*
X196415642Y-77779638D01*
X196415645Y-77779644D01*
X196504525Y-77895473D01*
X196504526Y-77895474D01*
X196620355Y-77984354D01*
X196620361Y-77984357D01*
X196674785Y-78006900D01*
X196755246Y-78040228D01*
X196821049Y-78048891D01*
X196899999Y-78059285D01*
X196899999Y-78059284D01*
X196900000Y-78059285D01*
X196978945Y-78048891D01*
X197047978Y-78059656D01*
X197082810Y-78084149D01*
X198209181Y-79210520D01*
X198242666Y-79271843D01*
X198245500Y-79298201D01*
X198245500Y-81531640D01*
X198225815Y-81598679D01*
X198173011Y-81644434D01*
X198105316Y-81654579D01*
X198000003Y-81640715D01*
X197999999Y-81640715D01*
X197855247Y-81659771D01*
X197855245Y-81659772D01*
X197720361Y-81715643D01*
X197720358Y-81715644D01*
X197720358Y-81715645D01*
X197604526Y-81804526D01*
X197549627Y-81876071D01*
X197493201Y-81917272D01*
X197451253Y-81924583D01*
X196885866Y-81924583D01*
X196818827Y-81904898D01*
X196773072Y-81852094D01*
X196763128Y-81782936D01*
X196769684Y-81757250D01*
X196799368Y-81677661D01*
X196799367Y-81677661D01*
X196799370Y-81677656D01*
X196805510Y-81620547D01*
X196805510Y-81078819D01*
X196799370Y-81021710D01*
X196799368Y-81021704D01*
X196751186Y-80892522D01*
X196751184Y-80892519D01*
X196745074Y-80884357D01*
X196689987Y-80810771D01*
X196665571Y-80745310D01*
X196680422Y-80677037D01*
X196724158Y-80630923D01*
X196778743Y-80597254D01*
X196898582Y-80477415D01*
X196898588Y-80477408D01*
X196987552Y-80333175D01*
X196987557Y-80333164D01*
X197040865Y-80172289D01*
X197051009Y-80073005D01*
X197051010Y-80072992D01*
X197051010Y-80049683D01*
X195556010Y-80049683D01*
X195556010Y-80125683D01*
X195536325Y-80192722D01*
X195483521Y-80238477D01*
X195432010Y-80249683D01*
X194700010Y-80249683D01*
X194632971Y-80229998D01*
X194587216Y-80177194D01*
X194576010Y-80125683D01*
X194576010Y-79999683D01*
X194450010Y-79999683D01*
X194382971Y-79979998D01*
X194337216Y-79927194D01*
X194326010Y-79875683D01*
X194326010Y-79149683D01*
X194826010Y-79149683D01*
X194826010Y-79749683D01*
X194971010Y-79749683D01*
X194971010Y-79673683D01*
X194990695Y-79606644D01*
X195043499Y-79560889D01*
X195095010Y-79549683D01*
X195826010Y-79549683D01*
X196326010Y-79549683D01*
X197051009Y-79549683D01*
X197051009Y-79526375D01*
X197051008Y-79526360D01*
X197040865Y-79427075D01*
X196987557Y-79266201D01*
X196987552Y-79266190D01*
X196898585Y-79121954D01*
X196898582Y-79121950D01*
X196778742Y-79002110D01*
X196778738Y-79002107D01*
X196634502Y-78913140D01*
X196634491Y-78913135D01*
X196473616Y-78859827D01*
X196374332Y-78849683D01*
X196326010Y-78849683D01*
X196326010Y-79549683D01*
X195826010Y-79549683D01*
X195826010Y-78849683D01*
X195826009Y-78849682D01*
X195777703Y-78849683D01*
X195777685Y-78849684D01*
X195678402Y-78859827D01*
X195517528Y-78913135D01*
X195517517Y-78913140D01*
X195373281Y-79002107D01*
X195253438Y-79121949D01*
X195248623Y-79129756D01*
X195196673Y-79176479D01*
X195127711Y-79187699D01*
X195099753Y-79180838D01*
X195033389Y-79156086D01*
X195033382Y-79156084D01*
X194973854Y-79149683D01*
X194826010Y-79149683D01*
X194326010Y-79149683D01*
X194181510Y-79149683D01*
X194114471Y-79129998D01*
X194068716Y-79077194D01*
X194057510Y-79025683D01*
X194057510Y-78425787D01*
X194057510Y-78425785D01*
X194031511Y-78328756D01*
X193981286Y-78241763D01*
X193981285Y-78241762D01*
X193977222Y-78234724D01*
X193978261Y-78234123D01*
X193957028Y-78182859D01*
X193952011Y-78144752D01*
X193940228Y-78055246D01*
X193884355Y-77920358D01*
X193795474Y-77804526D01*
X193679643Y-77715645D01*
X193679640Y-77715644D01*
X193679638Y-77715642D01*
X193544757Y-77659773D01*
X193544752Y-77659771D01*
X193400001Y-77640715D01*
X193399999Y-77640715D01*
X193255247Y-77659771D01*
X193255245Y-77659772D01*
X193120361Y-77715643D01*
X193120358Y-77715644D01*
X193120358Y-77715645D01*
X193004526Y-77804526D01*
X192931167Y-77900130D01*
X192915643Y-77920361D01*
X192859772Y-78055245D01*
X192859771Y-78055247D01*
X192840715Y-78199998D01*
X192840715Y-78200001D01*
X192859771Y-78344752D01*
X192859773Y-78344757D01*
X192915642Y-78479638D01*
X192915645Y-78479644D01*
X193004525Y-78595473D01*
X193004526Y-78595474D01*
X193120355Y-78684354D01*
X193120361Y-78684357D01*
X193164191Y-78702511D01*
X193217963Y-78724784D01*
X193272366Y-78768624D01*
X193294431Y-78834918D01*
X193294510Y-78839345D01*
X193294510Y-79272619D01*
X193274825Y-79339658D01*
X193222021Y-79385413D01*
X193157243Y-79394727D01*
X193157140Y-79395780D01*
X193151078Y-79395183D01*
X192400946Y-79395183D01*
X192326708Y-79409949D01*
X192242525Y-79466198D01*
X192186273Y-79550385D01*
X192186135Y-79550721D01*
X192185636Y-79551339D01*
X192179491Y-79560537D01*
X192178667Y-79559986D01*
X192142290Y-79605122D01*
X192103672Y-79623035D01*
X192076033Y-79630441D01*
X192024755Y-79644181D01*
X192003593Y-79656400D01*
X191987989Y-79665409D01*
X191937766Y-79694405D01*
X191937760Y-79694409D01*
X191897023Y-79735147D01*
X191866734Y-79765436D01*
X191866732Y-79765438D01*
X190997813Y-80634357D01*
X190124322Y-81507847D01*
X190124321Y-81507847D01*
X190124322Y-81507848D01*
X190070732Y-81561437D01*
X190020509Y-81648428D01*
X190017163Y-81660915D01*
X189994510Y-81745458D01*
X189994510Y-81745460D01*
X189994510Y-82443905D01*
X189974825Y-82510944D01*
X189968886Y-82519391D01*
X189891655Y-82620040D01*
X189891653Y-82620043D01*
X189835782Y-82754928D01*
X189835781Y-82754930D01*
X189816725Y-82899681D01*
X188881500Y-82899681D01*
X188881500Y-78899681D01*
X190116725Y-78899681D01*
X190116725Y-78899684D01*
X190135781Y-79044435D01*
X190135783Y-79044440D01*
X190191652Y-79179321D01*
X190191655Y-79179327D01*
X190280535Y-79295156D01*
X190280536Y-79295157D01*
X190396365Y-79384037D01*
X190396371Y-79384040D01*
X190463811Y-79411974D01*
X190531256Y-79439911D01*
X190603633Y-79449439D01*
X190676009Y-79458968D01*
X190676010Y-79458968D01*
X190676011Y-79458968D01*
X190724261Y-79452615D01*
X190820764Y-79439911D01*
X190955653Y-79384038D01*
X191071484Y-79295157D01*
X191160365Y-79179326D01*
X191216238Y-79044437D01*
X191235295Y-78899683D01*
X191228712Y-78849683D01*
X191216238Y-78754930D01*
X191216238Y-78754929D01*
X191160365Y-78620041D01*
X191071484Y-78504209D01*
X190955653Y-78415328D01*
X190955650Y-78415327D01*
X190955648Y-78415325D01*
X190820767Y-78359456D01*
X190820762Y-78359454D01*
X190676011Y-78340398D01*
X190676009Y-78340398D01*
X190531257Y-78359454D01*
X190531255Y-78359455D01*
X190396371Y-78415326D01*
X190396368Y-78415327D01*
X190396368Y-78415328D01*
X190382738Y-78425787D01*
X190280536Y-78504209D01*
X190191653Y-78620044D01*
X190135782Y-78754928D01*
X190135781Y-78754930D01*
X190116725Y-78899681D01*
X188881500Y-78899681D01*
X188881500Y-78455777D01*
X188901185Y-78388738D01*
X188907125Y-78380290D01*
X188984355Y-78279643D01*
X189040228Y-78144754D01*
X189055785Y-78026585D01*
X189059285Y-78000001D01*
X189059285Y-77999998D01*
X189040228Y-77855247D01*
X189040228Y-77855246D01*
X188997012Y-77750915D01*
X188984356Y-77720360D01*
X188984354Y-77720357D01*
X188980738Y-77715645D01*
X188944936Y-77668986D01*
X188919742Y-77603817D01*
X188933780Y-77535372D01*
X188982594Y-77485383D01*
X189043312Y-77469500D01*
X190150005Y-77469500D01*
X190249304Y-77449747D01*
X190249304Y-77449746D01*
X190249309Y-77449746D01*
X190256380Y-77446817D01*
X190340563Y-77390567D01*
X190396817Y-77306380D01*
X190399746Y-77299309D01*
X190399747Y-77299306D01*
X190399748Y-77299301D01*
X190399750Y-77299294D01*
X190419499Y-77200004D01*
X190419500Y-77200001D01*
X190419500Y-76893500D01*
X190439185Y-76826461D01*
X190491989Y-76780706D01*
X190543500Y-76769500D01*
X191550005Y-76769500D01*
X191649304Y-76749747D01*
X191649304Y-76749746D01*
X191649309Y-76749746D01*
X191656380Y-76746817D01*
X191740563Y-76690567D01*
X191796817Y-76606380D01*
X191799746Y-76599309D01*
X191799747Y-76599306D01*
X191799748Y-76599301D01*
X191799750Y-76599294D01*
X191819499Y-76500004D01*
X191819500Y-76500001D01*
X191819500Y-75726540D01*
X199964200Y-75726540D01*
X199964200Y-75873459D01*
X199992858Y-76017534D01*
X199992861Y-76017544D01*
X200049078Y-76153266D01*
X200049083Y-76153275D01*
X200130698Y-76275419D01*
X200130701Y-76275423D01*
X200234576Y-76379298D01*
X200234580Y-76379301D01*
X200356724Y-76460916D01*
X200356730Y-76460919D01*
X200356731Y-76460920D01*
X200492458Y-76517140D01*
X200636540Y-76545799D01*
X200636544Y-76545800D01*
X200636545Y-76545800D01*
X200783456Y-76545800D01*
X200783457Y-76545799D01*
X200927542Y-76517140D01*
X201063269Y-76460920D01*
X201185420Y-76379301D01*
X201289301Y-76275420D01*
X201370920Y-76153269D01*
X201427140Y-76017542D01*
X201455800Y-75873455D01*
X201455800Y-75726545D01*
X201427140Y-75582458D01*
X201425457Y-75578394D01*
X203425510Y-75578394D01*
X203425510Y-75820971D01*
X203453719Y-76035250D01*
X203457172Y-76061472D01*
X203459511Y-76070200D01*
X203519957Y-76295787D01*
X203571684Y-76420666D01*
X203612786Y-76519895D01*
X203734074Y-76729972D01*
X203734076Y-76729975D01*
X203734077Y-76729976D01*
X203881743Y-76922419D01*
X203881749Y-76922426D01*
X204053266Y-77093943D01*
X204053273Y-77093949D01*
X204151432Y-77169269D01*
X204245721Y-77241619D01*
X204455798Y-77362907D01*
X204649493Y-77443138D01*
X204678724Y-77455246D01*
X204679910Y-77455737D01*
X204914221Y-77518521D01*
X205092481Y-77541989D01*
X205154721Y-77550183D01*
X205154722Y-77550183D01*
X205397299Y-77550183D01*
X205445398Y-77543850D01*
X205637799Y-77518521D01*
X205872110Y-77455737D01*
X206096222Y-77362907D01*
X206306299Y-77241619D01*
X206498748Y-77093948D01*
X206670275Y-76922421D01*
X206817946Y-76729972D01*
X206939234Y-76519895D01*
X207032064Y-76295783D01*
X207094848Y-76061472D01*
X207112959Y-75923902D01*
X213480504Y-75923902D01*
X213501149Y-76067497D01*
X213501150Y-76067501D01*
X213561414Y-76199458D01*
X213561415Y-76199460D01*
X213656417Y-76309098D01*
X213734851Y-76359504D01*
X213778461Y-76387532D01*
X213917653Y-76428401D01*
X213917655Y-76428402D01*
X213917656Y-76428402D01*
X214062729Y-76428402D01*
X214062729Y-76428401D01*
X214201921Y-76387532D01*
X214201922Y-76387532D01*
X214201924Y-76387531D01*
X214323967Y-76309098D01*
X214418969Y-76199460D01*
X214464911Y-76098861D01*
X214479233Y-76067501D01*
X214479234Y-76067497D01*
X214480958Y-76055504D01*
X214499880Y-75923902D01*
X214479234Y-75780306D01*
X214479233Y-75780302D01*
X214418969Y-75648345D01*
X214418969Y-75648344D01*
X214323967Y-75538706D01*
X214289142Y-75516325D01*
X214201922Y-75460271D01*
X214062730Y-75419402D01*
X214062728Y-75419402D01*
X213917656Y-75419402D01*
X213917653Y-75419402D01*
X213778462Y-75460271D01*
X213778461Y-75460271D01*
X213656418Y-75538705D01*
X213656417Y-75538705D01*
X213656417Y-75538706D01*
X213593234Y-75611623D01*
X213561415Y-75648344D01*
X213561414Y-75648345D01*
X213501150Y-75780302D01*
X213501149Y-75780306D01*
X213480504Y-75923902D01*
X207112959Y-75923902D01*
X207126510Y-75820971D01*
X207126510Y-75578395D01*
X207094848Y-75337894D01*
X207032064Y-75103583D01*
X206939234Y-74879471D01*
X206817946Y-74669394D01*
X206764697Y-74599998D01*
X214440715Y-74599998D01*
X214440715Y-74600001D01*
X214459771Y-74744752D01*
X214459773Y-74744757D01*
X214515642Y-74879638D01*
X214515645Y-74879644D01*
X214604525Y-74995473D01*
X214604526Y-74995474D01*
X214720355Y-75084354D01*
X214720361Y-75084357D01*
X214766765Y-75103578D01*
X214855246Y-75140228D01*
X214939659Y-75151341D01*
X215003554Y-75179606D01*
X215011154Y-75186598D01*
X217750157Y-77925601D01*
X217842943Y-77979170D01*
X217946431Y-78006900D01*
X218053570Y-78006900D01*
X218377325Y-78006900D01*
X218444364Y-78026585D01*
X218452812Y-78032525D01*
X218520355Y-78084354D01*
X218520361Y-78084357D01*
X218545392Y-78094725D01*
X218655246Y-78140228D01*
X218689610Y-78144752D01*
X218799999Y-78159285D01*
X218800000Y-78159285D01*
X218800001Y-78159285D01*
X218848251Y-78152932D01*
X218944754Y-78140228D01*
X219079643Y-78084355D01*
X219195474Y-77995474D01*
X219284355Y-77879643D01*
X219340228Y-77744754D01*
X219358689Y-77604526D01*
X219359285Y-77600001D01*
X219359285Y-77599998D01*
X219344196Y-77485383D01*
X219340228Y-77455246D01*
X219284355Y-77320358D01*
X219195474Y-77204526D01*
X219079643Y-77115645D01*
X219079640Y-77115644D01*
X219079638Y-77115642D01*
X218944757Y-77059773D01*
X218944752Y-77059771D01*
X218800001Y-77040715D01*
X218799999Y-77040715D01*
X218655247Y-77059771D01*
X218655245Y-77059772D01*
X218520360Y-77115643D01*
X218520357Y-77115645D01*
X218452810Y-77167476D01*
X218387641Y-77192670D01*
X218377324Y-77193100D01*
X218219906Y-77193100D01*
X218152867Y-77173415D01*
X218132225Y-77156781D01*
X215586598Y-74611154D01*
X215553113Y-74549831D01*
X215551342Y-74539673D01*
X215540228Y-74455246D01*
X215484355Y-74320358D01*
X215395474Y-74204526D01*
X215279643Y-74115645D01*
X215279640Y-74115644D01*
X215279638Y-74115642D01*
X215144757Y-74059773D01*
X215144752Y-74059771D01*
X215000001Y-74040715D01*
X214999999Y-74040715D01*
X214855247Y-74059771D01*
X214855245Y-74059772D01*
X214720361Y-74115643D01*
X214720358Y-74115644D01*
X214720358Y-74115645D01*
X214604526Y-74204526D01*
X214527111Y-74305416D01*
X214515643Y-74320361D01*
X214459772Y-74455245D01*
X214459771Y-74455247D01*
X214440715Y-74599998D01*
X206764697Y-74599998D01*
X206704077Y-74520997D01*
X206670276Y-74476946D01*
X206670270Y-74476939D01*
X206498753Y-74305422D01*
X206498746Y-74305416D01*
X206306303Y-74157750D01*
X206306302Y-74157749D01*
X206306299Y-74157747D01*
X206096222Y-74036459D01*
X206019129Y-74004526D01*
X205872114Y-73943630D01*
X205731043Y-73905830D01*
X205637799Y-73880845D01*
X205637798Y-73880844D01*
X205637795Y-73880844D01*
X205397299Y-73849183D01*
X205397298Y-73849183D01*
X205154722Y-73849183D01*
X205154721Y-73849183D01*
X204914224Y-73880844D01*
X204679905Y-73943630D01*
X204455804Y-74036456D01*
X204455795Y-74036460D01*
X204245716Y-74157750D01*
X204053273Y-74305416D01*
X204053266Y-74305422D01*
X203881749Y-74476939D01*
X203881743Y-74476946D01*
X203734077Y-74669389D01*
X203612787Y-74879468D01*
X203612783Y-74879477D01*
X203519957Y-75103578D01*
X203457171Y-75337897D01*
X203425510Y-75578394D01*
X201425457Y-75578394D01*
X201376529Y-75460273D01*
X201370921Y-75446733D01*
X201370916Y-75446724D01*
X201289301Y-75324580D01*
X201289298Y-75324576D01*
X201185423Y-75220701D01*
X201185419Y-75220698D01*
X201063275Y-75139083D01*
X201063266Y-75139078D01*
X200931151Y-75084355D01*
X200927542Y-75082860D01*
X200927538Y-75082859D01*
X200927534Y-75082858D01*
X200783459Y-75054200D01*
X200783455Y-75054200D01*
X200636545Y-75054200D01*
X200636540Y-75054200D01*
X200492465Y-75082858D01*
X200492455Y-75082861D01*
X200356733Y-75139078D01*
X200356724Y-75139083D01*
X200234580Y-75220698D01*
X200234576Y-75220701D01*
X200130701Y-75324576D01*
X200130698Y-75324580D01*
X200049083Y-75446724D01*
X200049078Y-75446733D01*
X199992861Y-75582455D01*
X199992858Y-75582465D01*
X199964200Y-75726540D01*
X191819500Y-75726540D01*
X191819500Y-75399994D01*
X191799747Y-75300695D01*
X191799745Y-75300688D01*
X191796818Y-75293622D01*
X191740567Y-75209437D01*
X191656383Y-75153185D01*
X191656382Y-75153184D01*
X191656380Y-75153183D01*
X191656377Y-75153181D01*
X191656372Y-75153179D01*
X191649326Y-75150261D01*
X191649309Y-75150254D01*
X191649301Y-75150251D01*
X191649294Y-75150249D01*
X191550004Y-75130500D01*
X191550000Y-75130500D01*
X191243500Y-75130500D01*
X191176461Y-75110815D01*
X191130706Y-75058011D01*
X191119500Y-75006500D01*
X191119500Y-74899994D01*
X191099747Y-74800695D01*
X191099745Y-74800688D01*
X191096818Y-74793622D01*
X191088776Y-74781587D01*
X191041304Y-74710540D01*
X194884200Y-74710540D01*
X194884200Y-74857459D01*
X194912858Y-75001534D01*
X194912861Y-75001544D01*
X194969078Y-75137266D01*
X194969083Y-75137275D01*
X195050698Y-75259419D01*
X195050701Y-75259423D01*
X195154576Y-75363298D01*
X195154580Y-75363301D01*
X195276724Y-75444916D01*
X195276733Y-75444921D01*
X195301800Y-75455304D01*
X195412458Y-75501140D01*
X195556540Y-75529799D01*
X195556544Y-75529800D01*
X195556545Y-75529800D01*
X195703456Y-75529800D01*
X195703457Y-75529799D01*
X195847542Y-75501140D01*
X195983269Y-75444920D01*
X196105420Y-75363301D01*
X196209301Y-75259420D01*
X196290920Y-75137269D01*
X196347140Y-75001542D01*
X196375800Y-74857455D01*
X196375800Y-74710545D01*
X196347140Y-74566458D01*
X196290920Y-74430731D01*
X196290919Y-74430730D01*
X196290916Y-74430724D01*
X196209301Y-74308580D01*
X196209298Y-74308576D01*
X196142079Y-74241357D01*
X199482074Y-74241357D01*
X199482074Y-74241360D01*
X199501130Y-74386111D01*
X199501132Y-74386116D01*
X199557001Y-74520997D01*
X199557004Y-74521003D01*
X199645884Y-74636832D01*
X199645885Y-74636833D01*
X199761714Y-74725713D01*
X199761720Y-74725716D01*
X199820347Y-74750000D01*
X199896605Y-74781587D01*
X199968982Y-74791115D01*
X200041358Y-74800644D01*
X200041359Y-74800644D01*
X200041360Y-74800644D01*
X200094712Y-74793620D01*
X200186113Y-74781587D01*
X200321002Y-74725714D01*
X200436833Y-74636833D01*
X200525714Y-74521002D01*
X200581587Y-74386113D01*
X200598816Y-74255245D01*
X200600644Y-74241360D01*
X200600644Y-74241357D01*
X200581587Y-74096606D01*
X200581587Y-74096605D01*
X200525714Y-73961717D01*
X200436833Y-73845885D01*
X200321002Y-73757004D01*
X200320999Y-73757003D01*
X200320997Y-73757001D01*
X200186116Y-73701132D01*
X200186111Y-73701130D01*
X200041360Y-73682074D01*
X200041358Y-73682074D01*
X199896606Y-73701130D01*
X199896604Y-73701131D01*
X199761720Y-73757002D01*
X199761717Y-73757003D01*
X199761717Y-73757004D01*
X199645885Y-73845885D01*
X199561970Y-73955246D01*
X199557002Y-73961720D01*
X199501131Y-74096604D01*
X199501130Y-74096606D01*
X199482074Y-74241357D01*
X196142079Y-74241357D01*
X196105423Y-74204701D01*
X196105419Y-74204698D01*
X195983275Y-74123083D01*
X195983266Y-74123078D01*
X195861752Y-74072746D01*
X195847542Y-74066860D01*
X195847538Y-74066859D01*
X195847534Y-74066858D01*
X195703459Y-74038200D01*
X195703455Y-74038200D01*
X195556545Y-74038200D01*
X195556540Y-74038200D01*
X195412465Y-74066858D01*
X195412455Y-74066861D01*
X195276733Y-74123078D01*
X195276724Y-74123083D01*
X195154580Y-74204698D01*
X195154576Y-74204701D01*
X195050701Y-74308576D01*
X195050698Y-74308580D01*
X194969083Y-74430724D01*
X194969078Y-74430733D01*
X194912861Y-74566455D01*
X194912858Y-74566465D01*
X194884200Y-74710540D01*
X191041304Y-74710540D01*
X191040567Y-74709437D01*
X191003033Y-74684357D01*
X190956383Y-74653185D01*
X190956382Y-74653184D01*
X190956380Y-74653183D01*
X190956377Y-74653181D01*
X190956372Y-74653179D01*
X190949326Y-74650261D01*
X190949309Y-74650254D01*
X190949301Y-74650251D01*
X190949294Y-74650249D01*
X190850004Y-74630500D01*
X190850000Y-74630500D01*
X189224000Y-74630500D01*
X189156961Y-74610815D01*
X189111206Y-74558011D01*
X189100000Y-74506500D01*
X189100000Y-74052172D01*
X189099999Y-74052155D01*
X189093598Y-73992627D01*
X189093596Y-73992620D01*
X189043354Y-73857913D01*
X189043350Y-73857906D01*
X188957190Y-73742812D01*
X188957187Y-73742809D01*
X188842093Y-73656649D01*
X188842086Y-73656645D01*
X188707379Y-73606403D01*
X188707372Y-73606401D01*
X188647844Y-73600000D01*
X188600000Y-73600000D01*
X188600000Y-74050157D01*
X188580315Y-74117196D01*
X188527511Y-74162951D01*
X188458353Y-74172895D01*
X188394797Y-74143870D01*
X188357023Y-74085092D01*
X188354382Y-74074347D01*
X188354064Y-74072746D01*
X188339734Y-74000699D01*
X188339733Y-74000697D01*
X188339732Y-74000695D01*
X188320898Y-73972508D01*
X188300020Y-73905830D01*
X188300000Y-73903617D01*
X188300000Y-73600000D01*
X188252155Y-73600000D01*
X188192627Y-73606401D01*
X188192620Y-73606403D01*
X188057913Y-73656645D01*
X188057906Y-73656649D01*
X187942814Y-73742808D01*
X187942807Y-73742814D01*
X187903133Y-73795812D01*
X187847198Y-73837683D01*
X187803871Y-73845500D01*
X187774936Y-73845500D01*
X187774930Y-73845501D01*
X187724187Y-73855593D01*
X187675810Y-73855593D01*
X187651398Y-73850737D01*
X187625067Y-73845500D01*
X187625065Y-73845500D01*
X187274934Y-73845500D01*
X187274930Y-73845501D01*
X187224187Y-73855593D01*
X187175810Y-73855593D01*
X187151398Y-73850737D01*
X187125067Y-73845500D01*
X187125065Y-73845500D01*
X186774934Y-73845500D01*
X186774930Y-73845501D01*
X186724187Y-73855593D01*
X186675810Y-73855593D01*
X186651398Y-73850737D01*
X186625067Y-73845500D01*
X186625065Y-73845500D01*
X186274934Y-73845500D01*
X186274930Y-73845501D01*
X186224187Y-73855593D01*
X186175810Y-73855593D01*
X186151398Y-73850737D01*
X186125067Y-73845500D01*
X186125065Y-73845500D01*
X185774934Y-73845500D01*
X185774930Y-73845501D01*
X185724187Y-73855593D01*
X185675810Y-73855593D01*
X185651398Y-73850737D01*
X185625067Y-73845500D01*
X185625065Y-73845500D01*
X185274934Y-73845500D01*
X185274930Y-73845501D01*
X185224187Y-73855593D01*
X185175810Y-73855593D01*
X185151398Y-73850737D01*
X185125067Y-73845500D01*
X185125065Y-73845500D01*
X184774936Y-73845500D01*
X184700698Y-73860266D01*
X184700697Y-73860267D01*
X184677225Y-73875950D01*
X184610547Y-73896826D01*
X184546338Y-73880234D01*
X184514754Y-73861999D01*
X184514755Y-73861999D01*
X184490496Y-73855499D01*
X184417725Y-73836000D01*
X184417722Y-73836000D01*
X183805777Y-73836000D01*
X183738738Y-73816315D01*
X183730290Y-73810375D01*
X183629644Y-73733145D01*
X183629638Y-73733142D01*
X183494757Y-73677273D01*
X183494752Y-73677271D01*
X183350001Y-73658215D01*
X183349999Y-73658215D01*
X183205247Y-73677271D01*
X183205245Y-73677272D01*
X183070361Y-73733143D01*
X183070358Y-73733144D01*
X183070358Y-73733145D01*
X182954526Y-73822026D01*
X182877203Y-73922796D01*
X182865643Y-73937861D01*
X182809772Y-74072745D01*
X182809771Y-74072747D01*
X182790715Y-74217498D01*
X182790715Y-74217501D01*
X182809771Y-74362252D01*
X182809773Y-74362257D01*
X182849865Y-74459048D01*
X182857334Y-74528517D01*
X182826059Y-74590996D01*
X182765970Y-74626648D01*
X182735304Y-74630500D01*
X182549995Y-74630500D01*
X182450695Y-74650252D01*
X182450688Y-74650254D01*
X182443622Y-74653181D01*
X182359437Y-74709432D01*
X182303185Y-74793616D01*
X182303179Y-74793627D01*
X182300261Y-74800673D01*
X182300254Y-74800690D01*
X182300251Y-74800698D01*
X182300249Y-74800705D01*
X182280500Y-74899995D01*
X182280500Y-75006500D01*
X182260815Y-75073539D01*
X182208011Y-75119294D01*
X182156500Y-75130500D01*
X181849995Y-75130500D01*
X181750695Y-75150252D01*
X181750688Y-75150254D01*
X181743622Y-75153181D01*
X181659437Y-75209432D01*
X181603185Y-75293616D01*
X181603179Y-75293627D01*
X181600261Y-75300673D01*
X181600254Y-75300690D01*
X181600251Y-75300698D01*
X181600249Y-75300705D01*
X181580500Y-75399995D01*
X181580500Y-75400000D01*
X181580500Y-76500003D01*
X181580500Y-76500005D01*
X181580499Y-76500005D01*
X181600252Y-76599304D01*
X181600254Y-76599311D01*
X181603181Y-76606377D01*
X181635834Y-76655246D01*
X181659433Y-76690563D01*
X181743620Y-76746817D01*
X181750691Y-76749746D01*
X181750694Y-76749747D01*
X181750696Y-76749747D01*
X181750698Y-76749748D01*
X181750705Y-76749750D01*
X181849995Y-76769499D01*
X181849999Y-76769500D01*
X181850000Y-76769500D01*
X182856500Y-76769500D01*
X182923539Y-76789185D01*
X182969294Y-76841989D01*
X182980500Y-76893500D01*
X182980500Y-77200003D01*
X182980500Y-77200005D01*
X182980499Y-77200005D01*
X183000252Y-77299304D01*
X183000254Y-77299311D01*
X183003181Y-77306377D01*
X183055750Y-77385052D01*
X183059433Y-77390563D01*
X183143620Y-77446817D01*
X183150691Y-77449746D01*
X183150694Y-77449747D01*
X183150696Y-77449747D01*
X183150698Y-77449748D01*
X183150705Y-77449750D01*
X183249995Y-77469499D01*
X183249999Y-77469500D01*
X184432493Y-77469500D01*
X184499532Y-77489185D01*
X184545287Y-77541989D01*
X184556493Y-77593500D01*
X184556493Y-80053393D01*
X184555432Y-80069578D01*
X184539440Y-80191049D01*
X184539440Y-80191052D01*
X184558496Y-80335803D01*
X184558498Y-80335808D01*
X184614367Y-80470689D01*
X184614370Y-80470695D01*
X184703250Y-80586524D01*
X184703251Y-80586525D01*
X184819080Y-80675405D01*
X184819086Y-80675408D01*
X184854865Y-80690228D01*
X184953971Y-80731279D01*
X185026348Y-80740807D01*
X185098724Y-80750336D01*
X185098725Y-80750336D01*
X185098726Y-80750336D01*
X185146976Y-80743983D01*
X185243479Y-80731279D01*
X185378368Y-80675406D01*
X185494199Y-80586525D01*
X185583080Y-80470694D01*
X185638953Y-80335805D01*
X185658010Y-80191051D01*
X185648246Y-80116886D01*
X185659011Y-80047852D01*
X185705391Y-79995596D01*
X185723720Y-79986147D01*
X185791152Y-79958215D01*
X185860619Y-79950747D01*
X185923098Y-79982022D01*
X185953162Y-80025322D01*
X185961638Y-80045785D01*
X185961642Y-80045793D01*
X186050522Y-80161622D01*
X186050523Y-80161623D01*
X186134795Y-80226288D01*
X186175997Y-80282716D01*
X186180152Y-80352462D01*
X186146989Y-80412344D01*
X185857570Y-80701765D01*
X185786542Y-80772792D01*
X185786540Y-80772795D01*
X185736316Y-80859786D01*
X185736316Y-80859787D01*
X185710317Y-80956816D01*
X185710317Y-80956818D01*
X185710317Y-81360401D01*
X185690632Y-81427440D01*
X185684693Y-81435887D01*
X185607462Y-81536536D01*
X185607460Y-81536539D01*
X185585306Y-81590025D01*
X185541465Y-81644428D01*
X185475170Y-81666493D01*
X185407471Y-81649214D01*
X185383064Y-81630253D01*
X184147534Y-80394723D01*
X184139717Y-80390210D01*
X184124081Y-80381183D01*
X184084900Y-80358562D01*
X184060544Y-80344500D01*
X184060543Y-80344499D01*
X184028107Y-80335808D01*
X183963513Y-80318500D01*
X183963510Y-80318500D01*
X174709385Y-80318500D01*
X174642346Y-80298815D01*
X174621704Y-80282181D01*
X172434248Y-78094725D01*
X172434243Y-78094721D01*
X172410095Y-78080780D01*
X172395317Y-78072248D01*
X172365870Y-78055247D01*
X172347256Y-78044500D01*
X172347255Y-78044499D01*
X172322996Y-78037999D01*
X172250225Y-78018500D01*
X172250222Y-78018500D01*
X169709385Y-78018500D01*
X169642346Y-77998815D01*
X169621704Y-77982181D01*
X168739521Y-77099998D01*
X169840715Y-77099998D01*
X169840715Y-77100001D01*
X169859771Y-77244752D01*
X169859773Y-77244757D01*
X169915642Y-77379638D01*
X169915645Y-77379644D01*
X170004525Y-77495473D01*
X170004526Y-77495474D01*
X170120355Y-77584354D01*
X170120361Y-77584357D01*
X170167342Y-77603817D01*
X170255246Y-77640228D01*
X170289610Y-77644752D01*
X170399999Y-77659285D01*
X170400000Y-77659285D01*
X170400001Y-77659285D01*
X170448251Y-77652932D01*
X170544754Y-77640228D01*
X170679643Y-77584355D01*
X170795474Y-77495474D01*
X170884355Y-77379643D01*
X170940228Y-77244754D01*
X170958689Y-77104526D01*
X170959285Y-77100001D01*
X170959285Y-77099998D01*
X170943975Y-76983707D01*
X170940228Y-76955246D01*
X170884355Y-76820358D01*
X170795474Y-76704526D01*
X170679643Y-76615645D01*
X170679640Y-76615644D01*
X170679638Y-76615642D01*
X170544757Y-76559773D01*
X170544752Y-76559771D01*
X170400001Y-76540715D01*
X170399999Y-76540715D01*
X170255247Y-76559771D01*
X170255245Y-76559772D01*
X170120361Y-76615643D01*
X170120358Y-76615644D01*
X170120358Y-76615645D01*
X170004526Y-76704526D01*
X169918883Y-76816139D01*
X169915643Y-76820361D01*
X169859772Y-76955245D01*
X169859771Y-76955247D01*
X169840715Y-77099998D01*
X168739521Y-77099998D01*
X168492044Y-76852521D01*
X168458559Y-76791198D01*
X168456789Y-76781042D01*
X168440228Y-76655246D01*
X168384355Y-76520358D01*
X168295474Y-76404526D01*
X168179643Y-76315645D01*
X168179640Y-76315644D01*
X168179638Y-76315642D01*
X168044757Y-76259773D01*
X168044752Y-76259771D01*
X167900001Y-76240715D01*
X167899999Y-76240715D01*
X167755247Y-76259771D01*
X167755245Y-76259772D01*
X167620361Y-76315643D01*
X167620358Y-76315644D01*
X167620358Y-76315645D01*
X167504526Y-76404526D01*
X167416001Y-76519895D01*
X167415643Y-76520361D01*
X167359772Y-76655245D01*
X167359771Y-76655247D01*
X167340715Y-76799998D01*
X162233542Y-76799998D01*
X162184355Y-76681251D01*
X162095474Y-76565419D01*
X161979643Y-76476538D01*
X161979640Y-76476537D01*
X161979638Y-76476535D01*
X161844757Y-76420666D01*
X161844752Y-76420664D01*
X161700001Y-76401608D01*
X161699999Y-76401608D01*
X161555247Y-76420664D01*
X161555245Y-76420665D01*
X161420361Y-76476536D01*
X161420358Y-76476537D01*
X161420358Y-76476538D01*
X161304526Y-76565419D01*
X161235600Y-76655246D01*
X161215643Y-76681254D01*
X161159772Y-76816138D01*
X161159771Y-76816140D01*
X161140715Y-76960891D01*
X161140715Y-76960894D01*
X161159771Y-77105645D01*
X161159773Y-77105650D01*
X161215642Y-77240531D01*
X161215645Y-77240537D01*
X161243915Y-77277378D01*
X161266163Y-77306372D01*
X161267475Y-77308081D01*
X161292670Y-77373250D01*
X161293100Y-77383568D01*
X161293100Y-81414474D01*
X161273415Y-81481513D01*
X161268367Y-81488784D01*
X161201951Y-81577505D01*
X161201947Y-81577511D01*
X161151881Y-81711744D01*
X161151880Y-81711748D01*
X161151880Y-81711750D01*
X161145500Y-81771091D01*
X161145500Y-81771098D01*
X161145500Y-81771099D01*
X161145500Y-82353906D01*
X161145501Y-82353912D01*
X161151879Y-82413250D01*
X161201947Y-82547488D01*
X161201949Y-82547491D01*
X161287811Y-82662189D01*
X161402508Y-82748050D01*
X161402511Y-82748052D01*
X161442034Y-82762793D01*
X161534669Y-82797344D01*
X161536745Y-82798118D01*
X161536744Y-82798118D01*
X161536750Y-82798120D01*
X161596091Y-82804500D01*
X162603908Y-82804499D01*
X162663250Y-82798120D01*
X162797491Y-82748051D01*
X162912189Y-82662189D01*
X162998051Y-82547491D01*
X162998051Y-82547490D01*
X163000733Y-82543908D01*
X163056667Y-82502037D01*
X163126359Y-82497053D01*
X163187682Y-82530538D01*
X163199267Y-82543908D01*
X163201948Y-82547490D01*
X163201949Y-82547491D01*
X163287811Y-82662189D01*
X163402508Y-82748050D01*
X163402511Y-82748052D01*
X163416230Y-82753169D01*
X163472164Y-82795040D01*
X163496581Y-82860504D01*
X163481730Y-82928777D01*
X163432324Y-82978183D01*
X163411901Y-82987057D01*
X163327290Y-83015094D01*
X163327285Y-83015096D01*
X163179308Y-83106370D01*
X163056368Y-83229310D01*
X163036270Y-83261895D01*
X162984322Y-83308619D01*
X162915359Y-83319840D01*
X162856422Y-83296064D01*
X162797491Y-83251949D01*
X162797489Y-83251948D01*
X162797488Y-83251947D01*
X162663254Y-83201881D01*
X162663255Y-83201881D01*
X162663251Y-83201880D01*
X162663250Y-83201880D01*
X162603909Y-83195500D01*
X162603899Y-83195500D01*
X161596093Y-83195500D01*
X161596087Y-83195501D01*
X161536749Y-83201879D01*
X161402511Y-83251947D01*
X161402508Y-83251949D01*
X161287811Y-83337811D01*
X161201949Y-83452508D01*
X161201947Y-83452511D01*
X161151881Y-83586744D01*
X161151880Y-83586748D01*
X161151880Y-83586750D01*
X161145500Y-83646091D01*
X161145500Y-83646098D01*
X161145500Y-83646099D01*
X161145500Y-84228906D01*
X161145501Y-84228917D01*
X161147667Y-84249064D01*
X161135259Y-84317823D01*
X161112059Y-84349995D01*
X161074400Y-84387654D01*
X161020828Y-84480444D01*
X161007474Y-84530288D01*
X161003149Y-84546430D01*
X160993100Y-84583931D01*
X160993100Y-87577323D01*
X160973415Y-87644362D01*
X160967476Y-87652809D01*
X160915644Y-87720357D01*
X160859772Y-87855245D01*
X160859771Y-87855247D01*
X160840715Y-87999998D01*
X157068461Y-87999998D01*
X157026516Y-87781602D01*
X157025802Y-87777518D01*
X157023200Y-87761005D01*
X156842727Y-86615877D01*
X156842159Y-86611838D01*
X156698012Y-85444708D01*
X156697574Y-85440590D01*
X156694214Y-85403128D01*
X156592522Y-84269312D01*
X156592229Y-84265302D01*
X156526382Y-83091051D01*
X156526223Y-83086976D01*
X156526083Y-83080781D01*
X156517481Y-82699998D01*
X159061493Y-82699998D01*
X159061493Y-82700001D01*
X159079841Y-82839374D01*
X159079843Y-82839379D01*
X159133637Y-82969252D01*
X159133639Y-82969255D01*
X159219217Y-83080781D01*
X159219218Y-83080782D01*
X159330744Y-83166360D01*
X159330747Y-83166362D01*
X159401029Y-83195473D01*
X159460624Y-83220158D01*
X159530141Y-83229310D01*
X159599999Y-83238507D01*
X159600000Y-83238507D01*
X159600001Y-83238507D01*
X159665871Y-83229835D01*
X159739376Y-83220158D01*
X159869254Y-83166361D01*
X159980782Y-83080782D01*
X160066361Y-82969254D01*
X160120158Y-82839376D01*
X160133755Y-82736095D01*
X160138507Y-82700001D01*
X160138507Y-82699998D01*
X160120983Y-82566889D01*
X160120158Y-82560624D01*
X160076509Y-82455246D01*
X160066363Y-82430751D01*
X160066362Y-82430750D01*
X160066361Y-82430747D01*
X159980782Y-82319218D01*
X159980780Y-82319217D01*
X159980780Y-82319216D01*
X159869254Y-82233639D01*
X159869252Y-82233637D01*
X159739379Y-82179843D01*
X159739374Y-82179841D01*
X159600001Y-82161493D01*
X159599999Y-82161493D01*
X159460625Y-82179841D01*
X159460620Y-82179843D01*
X159330751Y-82233636D01*
X159330750Y-82233637D01*
X159330747Y-82233638D01*
X159330747Y-82233639D01*
X159219218Y-82319218D01*
X159145230Y-82415642D01*
X159133637Y-82430750D01*
X159133636Y-82430751D01*
X159079843Y-82560620D01*
X159079841Y-82560625D01*
X159061493Y-82699998D01*
X156517481Y-82699998D01*
X156499665Y-81911332D01*
X156499641Y-81907203D01*
X156499666Y-81904898D01*
X156512397Y-80731237D01*
X156512509Y-80727186D01*
X156527006Y-80399998D01*
X157161493Y-80399998D01*
X157161493Y-80400001D01*
X157179841Y-80539374D01*
X157179843Y-80539379D01*
X157233637Y-80669252D01*
X157233639Y-80669255D01*
X157319217Y-80780781D01*
X157319218Y-80780782D01*
X157430744Y-80866360D01*
X157430747Y-80866362D01*
X157512644Y-80900284D01*
X157560624Y-80920158D01*
X157630312Y-80929332D01*
X157699999Y-80938507D01*
X157700000Y-80938507D01*
X157700001Y-80938507D01*
X157746458Y-80932390D01*
X157839376Y-80920158D01*
X157969254Y-80866361D01*
X158080782Y-80780782D01*
X158166361Y-80669254D01*
X158220158Y-80539376D01*
X158234604Y-80429644D01*
X158238507Y-80400001D01*
X158238507Y-80399998D01*
X158222996Y-80282181D01*
X158220158Y-80260624D01*
X158185600Y-80177194D01*
X158166363Y-80130751D01*
X158166362Y-80130750D01*
X158166361Y-80130747D01*
X158080782Y-80019218D01*
X158080780Y-80019217D01*
X158080780Y-80019216D01*
X157969254Y-79933639D01*
X157969252Y-79933637D01*
X157839379Y-79879843D01*
X157839374Y-79879841D01*
X157700001Y-79861493D01*
X157699999Y-79861493D01*
X157560625Y-79879841D01*
X157560620Y-79879843D01*
X157430751Y-79933636D01*
X157430750Y-79933637D01*
X157430747Y-79933638D01*
X157430747Y-79933639D01*
X157319218Y-80019218D01*
X157241609Y-80120361D01*
X157233637Y-80130750D01*
X157233636Y-80130751D01*
X157179843Y-80260620D01*
X157179841Y-80260625D01*
X157161493Y-80399998D01*
X156527006Y-80399998D01*
X156564564Y-79552371D01*
X156564815Y-79548252D01*
X156567354Y-79515645D01*
X156656113Y-78375786D01*
X156656496Y-78371746D01*
X156786935Y-77202978D01*
X156787461Y-77198893D01*
X156787959Y-77195473D01*
X156956888Y-76035188D01*
X156957533Y-76031219D01*
X157165784Y-74873707D01*
X157166572Y-74869717D01*
X157203002Y-74699998D01*
X158640715Y-74699998D01*
X158640715Y-74700001D01*
X158659771Y-74844752D01*
X158659773Y-74844757D01*
X158715642Y-74979638D01*
X158715645Y-74979644D01*
X158804525Y-75095473D01*
X158804526Y-75095474D01*
X158920355Y-75184354D01*
X158920361Y-75184357D01*
X158980898Y-75209432D01*
X159055246Y-75240228D01*
X159127623Y-75249756D01*
X159199999Y-75259285D01*
X159200000Y-75259285D01*
X159200001Y-75259285D01*
X159248251Y-75252932D01*
X159344754Y-75240228D01*
X159479643Y-75184355D01*
X159595474Y-75095474D01*
X159684355Y-74979643D01*
X159740228Y-74844754D01*
X159753989Y-74740226D01*
X159759285Y-74700001D01*
X159759285Y-74699998D01*
X159745524Y-74595473D01*
X159740228Y-74555246D01*
X159684355Y-74420358D01*
X159595474Y-74304526D01*
X159479643Y-74215645D01*
X159479640Y-74215644D01*
X159479638Y-74215642D01*
X159441870Y-74199998D01*
X165440715Y-74199998D01*
X165440715Y-74200001D01*
X165459771Y-74344752D01*
X165459773Y-74344757D01*
X165515642Y-74479638D01*
X165515645Y-74479644D01*
X165604525Y-74595473D01*
X165604526Y-74595474D01*
X165720355Y-74684354D01*
X165720361Y-74684357D01*
X165780898Y-74709432D01*
X165855246Y-74740228D01*
X165889610Y-74744752D01*
X165999999Y-74759285D01*
X166000000Y-74759285D01*
X166000001Y-74759285D01*
X166070527Y-74750000D01*
X166144754Y-74740228D01*
X166279643Y-74684355D01*
X166395474Y-74595474D01*
X166484355Y-74479643D01*
X166540228Y-74344754D01*
X166558689Y-74204526D01*
X166559285Y-74200001D01*
X166559285Y-74199998D01*
X166540228Y-74055247D01*
X166540228Y-74055246D01*
X166484355Y-73920358D01*
X166395474Y-73804526D01*
X166279643Y-73715645D01*
X166279640Y-73715644D01*
X166279638Y-73715642D01*
X166144757Y-73659773D01*
X166144752Y-73659771D01*
X166000001Y-73640715D01*
X165999999Y-73640715D01*
X165855247Y-73659771D01*
X165855245Y-73659772D01*
X165720361Y-73715643D01*
X165720358Y-73715644D01*
X165720358Y-73715645D01*
X165604526Y-73804526D01*
X165519262Y-73915645D01*
X165515643Y-73920361D01*
X165459772Y-74055245D01*
X165459771Y-74055247D01*
X165440715Y-74199998D01*
X159441870Y-74199998D01*
X159344757Y-74159773D01*
X159344752Y-74159771D01*
X159200001Y-74140715D01*
X159199999Y-74140715D01*
X159055247Y-74159771D01*
X159055245Y-74159772D01*
X158920361Y-74215643D01*
X158920358Y-74215644D01*
X158920358Y-74215645D01*
X158804526Y-74304526D01*
X158731266Y-74400001D01*
X158715643Y-74420361D01*
X158659772Y-74555245D01*
X158659771Y-74555247D01*
X158640715Y-74699998D01*
X157203002Y-74699998D01*
X157413370Y-73719949D01*
X157414304Y-73715926D01*
X157418002Y-73701130D01*
X157583702Y-73038033D01*
X157619052Y-72977766D01*
X157681373Y-72946177D01*
X157704003Y-72944095D01*
X170083842Y-72944095D01*
X170150881Y-72963780D01*
X170196636Y-73016584D01*
X170206580Y-73085742D01*
X170177555Y-73149298D01*
X170118777Y-73187072D01*
X170115935Y-73187870D01*
X169971516Y-73226566D01*
X169971507Y-73226570D01*
X169757422Y-73326399D01*
X169757420Y-73326400D01*
X169563926Y-73461886D01*
X169563920Y-73461891D01*
X169396891Y-73628920D01*
X169396886Y-73628926D01*
X169261400Y-73822420D01*
X169261399Y-73822422D01*
X169161570Y-74036507D01*
X169161567Y-74036513D01*
X169104364Y-74249999D01*
X169104364Y-74250000D01*
X170001988Y-74250000D01*
X169969075Y-74307007D01*
X169935000Y-74434174D01*
X169935000Y-74565826D01*
X169969075Y-74692993D01*
X170001988Y-74750000D01*
X169104364Y-74750000D01*
X169161567Y-74963486D01*
X169161570Y-74963492D01*
X169261399Y-75177578D01*
X169396894Y-75371082D01*
X169563917Y-75538105D01*
X169757421Y-75673600D01*
X169971507Y-75773429D01*
X169971516Y-75773433D01*
X170185000Y-75830634D01*
X170185000Y-74933012D01*
X170242007Y-74965925D01*
X170369174Y-75000000D01*
X170500826Y-75000000D01*
X170627993Y-74965925D01*
X170685000Y-74933012D01*
X170685000Y-75830633D01*
X170898483Y-75773433D01*
X170898492Y-75773429D01*
X171112578Y-75673600D01*
X171306082Y-75538105D01*
X171473105Y-75371082D01*
X171608599Y-75177578D01*
X171634117Y-75122855D01*
X171680289Y-75070415D01*
X171747482Y-75051262D01*
X171814364Y-75071477D01*
X171859699Y-75124642D01*
X171870500Y-75175257D01*
X171870500Y-75375063D01*
X171885266Y-75449301D01*
X171941515Y-75533484D01*
X171949464Y-75538795D01*
X172025699Y-75589734D01*
X172025702Y-75589734D01*
X172025703Y-75589735D01*
X172050666Y-75594700D01*
X172099933Y-75604500D01*
X173850066Y-75604499D01*
X173924301Y-75589734D01*
X173941272Y-75578394D01*
X176425510Y-75578394D01*
X176425510Y-75820971D01*
X176453719Y-76035250D01*
X176457172Y-76061472D01*
X176459511Y-76070200D01*
X176519957Y-76295787D01*
X176571684Y-76420666D01*
X176612786Y-76519895D01*
X176734074Y-76729972D01*
X176734076Y-76729975D01*
X176734077Y-76729976D01*
X176881743Y-76922419D01*
X176881749Y-76922426D01*
X177053266Y-77093943D01*
X177053273Y-77093949D01*
X177151432Y-77169269D01*
X177245721Y-77241619D01*
X177455798Y-77362907D01*
X177649493Y-77443138D01*
X177678724Y-77455246D01*
X177679910Y-77455737D01*
X177914221Y-77518521D01*
X178092481Y-77541989D01*
X178154721Y-77550183D01*
X178154722Y-77550183D01*
X178397299Y-77550183D01*
X178445398Y-77543850D01*
X178637799Y-77518521D01*
X178872110Y-77455737D01*
X179096222Y-77362907D01*
X179306299Y-77241619D01*
X179498748Y-77093948D01*
X179670275Y-76922421D01*
X179817946Y-76729972D01*
X179939234Y-76519895D01*
X180032064Y-76295783D01*
X180094848Y-76061472D01*
X180126510Y-75820971D01*
X180126510Y-75578395D01*
X180094848Y-75337894D01*
X180032064Y-75103583D01*
X179939234Y-74879471D01*
X179817946Y-74669394D01*
X179704077Y-74520997D01*
X179670276Y-74476946D01*
X179670270Y-74476939D01*
X179593329Y-74399998D01*
X180740715Y-74399998D01*
X180740715Y-74400001D01*
X180759771Y-74544752D01*
X180759773Y-74544757D01*
X180815642Y-74679638D01*
X180815645Y-74679644D01*
X180904525Y-74795473D01*
X180904526Y-74795474D01*
X181020355Y-74884354D01*
X181020361Y-74884357D01*
X181058115Y-74899995D01*
X181155246Y-74940228D01*
X181227623Y-74949756D01*
X181299999Y-74959285D01*
X181300000Y-74959285D01*
X181300001Y-74959285D01*
X181348251Y-74952932D01*
X181444754Y-74940228D01*
X181579643Y-74884355D01*
X181695474Y-74795474D01*
X181784355Y-74679643D01*
X181840228Y-74544754D01*
X181855696Y-74427259D01*
X181859285Y-74400001D01*
X181859285Y-74399998D01*
X181840228Y-74255247D01*
X181840228Y-74255246D01*
X181784355Y-74120358D01*
X181695474Y-74004526D01*
X181579643Y-73915645D01*
X181579640Y-73915644D01*
X181579638Y-73915642D01*
X181444757Y-73859773D01*
X181444752Y-73859771D01*
X181300001Y-73840715D01*
X181299999Y-73840715D01*
X181155247Y-73859771D01*
X181155245Y-73859772D01*
X181020361Y-73915643D01*
X181020358Y-73915644D01*
X181020358Y-73915645D01*
X180904526Y-74004526D01*
X180818072Y-74117196D01*
X180815643Y-74120361D01*
X180759772Y-74255245D01*
X180759771Y-74255247D01*
X180740715Y-74399998D01*
X179593329Y-74399998D01*
X179498753Y-74305422D01*
X179498746Y-74305416D01*
X179306303Y-74157750D01*
X179306302Y-74157749D01*
X179306299Y-74157747D01*
X179096222Y-74036459D01*
X179019129Y-74004526D01*
X178872114Y-73943630D01*
X178731043Y-73905830D01*
X178637799Y-73880845D01*
X178637798Y-73880844D01*
X178637795Y-73880844D01*
X178397299Y-73849183D01*
X178397298Y-73849183D01*
X178154722Y-73849183D01*
X178154721Y-73849183D01*
X177914224Y-73880844D01*
X177679905Y-73943630D01*
X177455804Y-74036456D01*
X177455795Y-74036460D01*
X177245716Y-74157750D01*
X177053273Y-74305416D01*
X177053266Y-74305422D01*
X176881749Y-74476939D01*
X176881743Y-74476946D01*
X176734077Y-74669389D01*
X176612787Y-74879468D01*
X176612783Y-74879477D01*
X176519957Y-75103578D01*
X176457171Y-75337897D01*
X176425510Y-75578394D01*
X173941272Y-75578394D01*
X174008484Y-75533484D01*
X174064734Y-75449301D01*
X174079500Y-75375067D01*
X174079499Y-73624934D01*
X174064734Y-73550699D01*
X174039811Y-73513400D01*
X174008484Y-73466515D01*
X173958019Y-73432796D01*
X173924301Y-73410266D01*
X173924299Y-73410265D01*
X173924296Y-73410264D01*
X173850069Y-73395500D01*
X172099936Y-73395500D01*
X172025698Y-73410266D01*
X171941515Y-73466515D01*
X171885266Y-73550699D01*
X171885264Y-73550703D01*
X171870500Y-73624928D01*
X171870500Y-73824740D01*
X171850815Y-73891779D01*
X171798011Y-73937534D01*
X171728853Y-73947478D01*
X171665297Y-73918453D01*
X171634118Y-73877145D01*
X171608600Y-73822422D01*
X171608599Y-73822420D01*
X171473113Y-73628926D01*
X171473108Y-73628920D01*
X171306082Y-73461894D01*
X171112578Y-73326399D01*
X170898492Y-73226570D01*
X170898483Y-73226566D01*
X170754065Y-73187870D01*
X170694404Y-73151505D01*
X170663875Y-73088658D01*
X170672170Y-73019283D01*
X170716655Y-72965405D01*
X170783207Y-72944130D01*
X170786158Y-72944095D01*
X214780048Y-72944095D01*
X214780050Y-72944095D01*
X214907344Y-72909987D01*
X215021472Y-72844095D01*
X215114658Y-72750909D01*
X215180550Y-72636781D01*
X215214658Y-72509487D01*
X215214658Y-69211426D01*
X215595500Y-69211426D01*
X215595500Y-70588555D01*
X215595501Y-70588577D01*
X215598308Y-70624254D01*
X215598308Y-70624257D01*
X215598309Y-70624258D01*
X215642682Y-70776992D01*
X215674398Y-70830621D01*
X215723641Y-70913887D01*
X215723648Y-70913896D01*
X215836103Y-71026351D01*
X215836106Y-71026353D01*
X215836109Y-71026356D01*
X215973008Y-71107318D01*
X216000317Y-71115252D01*
X216125737Y-71151690D01*
X216125740Y-71151690D01*
X216125742Y-71151691D01*
X216161433Y-71154500D01*
X216194098Y-71154499D01*
X216261136Y-71174182D01*
X216306893Y-71226984D01*
X216318100Y-71278499D01*
X216318100Y-71325128D01*
X216298415Y-71392167D01*
X216268411Y-71424394D01*
X216157458Y-71507454D01*
X216157457Y-71507455D01*
X216157456Y-71507456D01*
X216129810Y-71544385D01*
X216074824Y-71617837D01*
X216074823Y-71617839D01*
X216026641Y-71747021D01*
X216026640Y-71747025D01*
X216026640Y-71747027D01*
X216020500Y-71804136D01*
X216020500Y-72395864D01*
X216026640Y-72452973D01*
X216026641Y-72452978D01*
X216074823Y-72582160D01*
X216074824Y-72582162D01*
X216074825Y-72582163D01*
X216157456Y-72692544D01*
X216267836Y-72775174D01*
X216267837Y-72775175D01*
X216267839Y-72775176D01*
X216341723Y-72802733D01*
X216394922Y-72822575D01*
X216397022Y-72823358D01*
X216397021Y-72823358D01*
X216397027Y-72823360D01*
X216454136Y-72829500D01*
X216454146Y-72829500D01*
X216995854Y-72829500D01*
X216995864Y-72829500D01*
X217052973Y-72823360D01*
X217182163Y-72775175D01*
X217263910Y-72713979D01*
X217329372Y-72689562D01*
X217397646Y-72704413D01*
X217443758Y-72748147D01*
X217477428Y-72802733D01*
X217597267Y-72922572D01*
X217597271Y-72922575D01*
X217741507Y-73011542D01*
X217741514Y-73011545D01*
X217754605Y-73015883D01*
X217812050Y-73055655D01*
X217838875Y-73120170D01*
X217826561Y-73188946D01*
X217803284Y-73221271D01*
X217511154Y-73513400D01*
X217449831Y-73546885D01*
X217439660Y-73548658D01*
X217355246Y-73559772D01*
X217220361Y-73615643D01*
X217220358Y-73615644D01*
X217220358Y-73615645D01*
X217104526Y-73704526D01*
X217018748Y-73816315D01*
X217015643Y-73820361D01*
X216959772Y-73955245D01*
X216959771Y-73955247D01*
X216940715Y-74099998D01*
X216940715Y-74100001D01*
X216959771Y-74244752D01*
X216959773Y-74244757D01*
X217015642Y-74379638D01*
X217015645Y-74379644D01*
X217104525Y-74495473D01*
X217104526Y-74495474D01*
X217220355Y-74584354D01*
X217220361Y-74584357D01*
X217284237Y-74610815D01*
X217355246Y-74640228D01*
X217427623Y-74649756D01*
X217499999Y-74659285D01*
X217500000Y-74659285D01*
X217500001Y-74659285D01*
X217548251Y-74652932D01*
X217644754Y-74640228D01*
X217779643Y-74584355D01*
X217895474Y-74495474D01*
X217984355Y-74379643D01*
X218040228Y-74244754D01*
X218051341Y-74160338D01*
X218079605Y-74096444D01*
X218086573Y-74088869D01*
X218232226Y-73943217D01*
X218293549Y-73909734D01*
X218319906Y-73906900D01*
X223277325Y-73906900D01*
X223344364Y-73926585D01*
X223352808Y-73932522D01*
X223359762Y-73937858D01*
X223420355Y-73984354D01*
X223420361Y-73984357D01*
X223469049Y-74004524D01*
X223555246Y-74040228D01*
X223627623Y-74049756D01*
X223699999Y-74059285D01*
X223700000Y-74059285D01*
X223700001Y-74059285D01*
X223754158Y-74052155D01*
X223844754Y-74040228D01*
X223979643Y-73984355D01*
X224095474Y-73895474D01*
X224184355Y-73779643D01*
X224240228Y-73644754D01*
X224259285Y-73500000D01*
X224240228Y-73355246D01*
X224184355Y-73220358D01*
X224095474Y-73104526D01*
X223979643Y-73015645D01*
X223979640Y-73015644D01*
X223979638Y-73015642D01*
X223844757Y-72959773D01*
X223844752Y-72959771D01*
X223700001Y-72940715D01*
X223699999Y-72940715D01*
X223555247Y-72959771D01*
X223555245Y-72959772D01*
X223420360Y-73015643D01*
X223420357Y-73015645D01*
X223352810Y-73067476D01*
X223287641Y-73092670D01*
X223277324Y-73093100D01*
X220401377Y-73093100D01*
X220334338Y-73073415D01*
X220288583Y-73020611D01*
X220278639Y-72951453D01*
X220307664Y-72887897D01*
X220336280Y-72863562D01*
X220402728Y-72822575D01*
X220402732Y-72822572D01*
X220522571Y-72702733D01*
X220556240Y-72648148D01*
X220608188Y-72601424D01*
X220677150Y-72590201D01*
X220736087Y-72613977D01*
X220781734Y-72648148D01*
X220817836Y-72675174D01*
X220817839Y-72675176D01*
X220947022Y-72723358D01*
X220947021Y-72723358D01*
X220947027Y-72723360D01*
X221004136Y-72729500D01*
X221004146Y-72729500D01*
X221545854Y-72729500D01*
X221545864Y-72729500D01*
X221602973Y-72723360D01*
X221732163Y-72675175D01*
X221842544Y-72592544D01*
X221925175Y-72482163D01*
X221973360Y-72352973D01*
X221979500Y-72295864D01*
X221979500Y-71704136D01*
X221973360Y-71647027D01*
X221925175Y-71517837D01*
X221842544Y-71407456D01*
X221824255Y-71393765D01*
X221748376Y-71336961D01*
X221706505Y-71281027D01*
X221701521Y-71211336D01*
X221735007Y-71150013D01*
X221788091Y-71118619D01*
X221826992Y-71107318D01*
X221963891Y-71026356D01*
X221965781Y-71024466D01*
X221967626Y-71023457D01*
X221970057Y-71021573D01*
X221970360Y-71021964D01*
X222027102Y-70990977D01*
X222096794Y-70995956D01*
X222152730Y-71037824D01*
X222168029Y-71064688D01*
X222215643Y-71179640D01*
X222215645Y-71179644D01*
X222304525Y-71295473D01*
X222304526Y-71295474D01*
X222420355Y-71384354D01*
X222420361Y-71384357D01*
X222487801Y-71412291D01*
X222555246Y-71440228D01*
X222627623Y-71449756D01*
X222699999Y-71459285D01*
X222700000Y-71459285D01*
X222700001Y-71459285D01*
X222756460Y-71451852D01*
X222844754Y-71440228D01*
X222979643Y-71384355D01*
X223095474Y-71295474D01*
X223184355Y-71179643D01*
X223240228Y-71044754D01*
X223259285Y-70900000D01*
X223240228Y-70755246D01*
X223184355Y-70620358D01*
X223095474Y-70504526D01*
X223095471Y-70504524D01*
X223095470Y-70504522D01*
X223024119Y-70449772D01*
X222982917Y-70393344D01*
X222978762Y-70323598D01*
X223012975Y-70262678D01*
X223074692Y-70229926D01*
X223144320Y-70235739D01*
X223146984Y-70236805D01*
X223155246Y-70240228D01*
X223227623Y-70249756D01*
X223299999Y-70259285D01*
X223300000Y-70259285D01*
X223300001Y-70259285D01*
X223348251Y-70252932D01*
X223444754Y-70240228D01*
X223579643Y-70184355D01*
X223695474Y-70095474D01*
X223784355Y-69979643D01*
X223840228Y-69844754D01*
X223859285Y-69700000D01*
X223840228Y-69555246D01*
X223784355Y-69420358D01*
X223695474Y-69304526D01*
X223579643Y-69215645D01*
X223579640Y-69215644D01*
X223579638Y-69215642D01*
X223444757Y-69159773D01*
X223444752Y-69159771D01*
X223300001Y-69140715D01*
X223299999Y-69140715D01*
X223155247Y-69159771D01*
X223155245Y-69159772D01*
X223126172Y-69171815D01*
X223101435Y-69182061D01*
X223053984Y-69191500D01*
X222299371Y-69191500D01*
X222232332Y-69171815D01*
X222186577Y-69119011D01*
X222180297Y-69102103D01*
X222157318Y-69023008D01*
X222076356Y-68886109D01*
X222076354Y-68886107D01*
X222076351Y-68886103D01*
X221963896Y-68773648D01*
X221963887Y-68773641D01*
X221826992Y-68692682D01*
X221826987Y-68692680D01*
X221674262Y-68648309D01*
X221674256Y-68648308D01*
X221641614Y-68645739D01*
X221638567Y-68645500D01*
X221638566Y-68645500D01*
X220761444Y-68645500D01*
X220761422Y-68645501D01*
X220725745Y-68648308D01*
X220689909Y-68658719D01*
X220573008Y-68692682D01*
X220573006Y-68692682D01*
X220573006Y-68692683D01*
X220436112Y-68773641D01*
X220436103Y-68773648D01*
X220323648Y-68886103D01*
X220323639Y-68886114D01*
X220295918Y-68932989D01*
X220244849Y-68980672D01*
X220176107Y-68993175D01*
X220111518Y-68966529D01*
X220078099Y-68924961D01*
X220016609Y-68800977D01*
X220016607Y-68800974D01*
X219897367Y-68652633D01*
X219897366Y-68652632D01*
X219749025Y-68533392D01*
X219749022Y-68533390D01*
X219578523Y-68448831D01*
X219393824Y-68402897D01*
X219351097Y-68400000D01*
X219150000Y-68400000D01*
X219150000Y-69776000D01*
X219130315Y-69843039D01*
X219077511Y-69888794D01*
X219026000Y-69900000D01*
X218774000Y-69900000D01*
X218706961Y-69880315D01*
X218661206Y-69827511D01*
X218650000Y-69776000D01*
X218650000Y-68400000D01*
X218641979Y-68391979D01*
X218602255Y-68380315D01*
X218556500Y-68327511D01*
X218546198Y-68261053D01*
X218546408Y-68259325D01*
X218565754Y-68100000D01*
X218546408Y-67940675D01*
X218546407Y-67940673D01*
X218546407Y-67940671D01*
X218520546Y-67872482D01*
X218489496Y-67790609D01*
X218398324Y-67658523D01*
X218278191Y-67552095D01*
X218136080Y-67477509D01*
X218136079Y-67477508D01*
X218136076Y-67477507D01*
X217980248Y-67439100D01*
X217819752Y-67439100D01*
X217663923Y-67477507D01*
X217521809Y-67552095D01*
X217401675Y-67658523D01*
X217310505Y-67790606D01*
X217264983Y-67910637D01*
X217236722Y-67954346D01*
X216581887Y-68609181D01*
X216520564Y-68642666D01*
X216494206Y-68645500D01*
X216161444Y-68645500D01*
X216161422Y-68645501D01*
X216125745Y-68648308D01*
X216089909Y-68658719D01*
X215973008Y-68692682D01*
X215973006Y-68692682D01*
X215973006Y-68692683D01*
X215836112Y-68773641D01*
X215836103Y-68773648D01*
X215723648Y-68886103D01*
X215723641Y-68886112D01*
X215642682Y-69023007D01*
X215642680Y-69023012D01*
X215598309Y-69175737D01*
X215598308Y-69175743D01*
X215595500Y-69211426D01*
X215214658Y-69211426D01*
X215214658Y-66779003D01*
X220824382Y-66779003D01*
X220824382Y-66915916D01*
X220851088Y-67050176D01*
X220851090Y-67050184D01*
X220903480Y-67176664D01*
X220979541Y-67290499D01*
X221076342Y-67387300D01*
X221076345Y-67387302D01*
X221190176Y-67463361D01*
X221316658Y-67515752D01*
X221450925Y-67542459D01*
X221450929Y-67542460D01*
X221450930Y-67542460D01*
X221587835Y-67542460D01*
X221587836Y-67542459D01*
X221722106Y-67515752D01*
X221848588Y-67463361D01*
X221962419Y-67387302D01*
X222059224Y-67290497D01*
X222135283Y-67176666D01*
X222187674Y-67050184D01*
X222214382Y-66915912D01*
X222214382Y-66779008D01*
X222187674Y-66644736D01*
X222135283Y-66518254D01*
X222059224Y-66404423D01*
X222059222Y-66404420D01*
X221962421Y-66307619D01*
X221863666Y-66241634D01*
X221848588Y-66231559D01*
X221722106Y-66179168D01*
X221722098Y-66179166D01*
X221587838Y-66152460D01*
X221587834Y-66152460D01*
X221450930Y-66152460D01*
X221450925Y-66152460D01*
X221316665Y-66179166D01*
X221316657Y-66179168D01*
X221190177Y-66231558D01*
X221076342Y-66307619D01*
X220979541Y-66404420D01*
X220903480Y-66518255D01*
X220851090Y-66644735D01*
X220851088Y-66644743D01*
X220824382Y-66779003D01*
X215214658Y-66779003D01*
X215214658Y-65599998D01*
X216840715Y-65599998D01*
X216840715Y-65600001D01*
X216859771Y-65744752D01*
X216859773Y-65744757D01*
X216915642Y-65879638D01*
X216915645Y-65879644D01*
X217004525Y-65995473D01*
X217004526Y-65995474D01*
X217120355Y-66084354D01*
X217120361Y-66084357D01*
X217187801Y-66112291D01*
X217255246Y-66140228D01*
X217327623Y-66149756D01*
X217399999Y-66159285D01*
X217400000Y-66159285D01*
X217400001Y-66159285D01*
X217451842Y-66152460D01*
X217544754Y-66140228D01*
X217679643Y-66084355D01*
X217795474Y-65995474D01*
X217884355Y-65879643D01*
X217940228Y-65744754D01*
X217959285Y-65600000D01*
X217953886Y-65558993D01*
X217940228Y-65455247D01*
X217940228Y-65455246D01*
X217884355Y-65320358D01*
X217795474Y-65204526D01*
X217679643Y-65115645D01*
X217679640Y-65115644D01*
X217679638Y-65115642D01*
X217544757Y-65059773D01*
X217544752Y-65059771D01*
X217400001Y-65040715D01*
X217399999Y-65040715D01*
X217255247Y-65059771D01*
X217255245Y-65059772D01*
X217120361Y-65115643D01*
X217004526Y-65204526D01*
X216915643Y-65320361D01*
X216859772Y-65455245D01*
X216859771Y-65455247D01*
X216840715Y-65599998D01*
X215214658Y-65599998D01*
X215214658Y-61012279D01*
X217220933Y-61012279D01*
X217220933Y-61149192D01*
X217247639Y-61283452D01*
X217247641Y-61283460D01*
X217300031Y-61409940D01*
X217376092Y-61523775D01*
X217472893Y-61620576D01*
X217472896Y-61620578D01*
X217586727Y-61696637D01*
X217713209Y-61749028D01*
X217847476Y-61775735D01*
X217847480Y-61775736D01*
X217847481Y-61775736D01*
X217984386Y-61775736D01*
X217984387Y-61775735D01*
X218118657Y-61749028D01*
X218245139Y-61696637D01*
X218358970Y-61620578D01*
X218455775Y-61523773D01*
X218531834Y-61409942D01*
X218584225Y-61283460D01*
X218610933Y-61149188D01*
X218610933Y-61012284D01*
X218584225Y-60878012D01*
X218531834Y-60751530D01*
X218455775Y-60637699D01*
X218455773Y-60637696D01*
X218358972Y-60540895D01*
X218302054Y-60502864D01*
X218245139Y-60464835D01*
X218118657Y-60412444D01*
X218118649Y-60412442D01*
X217984389Y-60385736D01*
X217984385Y-60385736D01*
X217847481Y-60385736D01*
X217847476Y-60385736D01*
X217713216Y-60412442D01*
X217713208Y-60412444D01*
X217586728Y-60464834D01*
X217472893Y-60540895D01*
X217376092Y-60637696D01*
X217300031Y-60751531D01*
X217247641Y-60878011D01*
X217247639Y-60878019D01*
X217220933Y-61012279D01*
X215214658Y-61012279D01*
X215214658Y-55567892D01*
X215234343Y-55500853D01*
X215287147Y-55455098D01*
X215356305Y-55445154D01*
X215419861Y-55474179D01*
G37*
%TD.AperFunction*%
%TD*%
M02*
